<?xml version="1.0" encoding="utf-8"?>
<!-- Generator: Adobe Illustrator 27.1.1, SVG Export Plug-In . SVG Version: 6.00 Build 0)  -->
<svg version="1.1" xmlns="http://www.w3.org/2000/svg" xmlns:xlink="http://www.w3.org/1999/xlink" x="0px" y="0px" viewBox="0 0 28 40" style="enable-background:new 0 0 28 40;" xml:space="preserve">
<style type="text/css">
	.st0{display:none;}
	.st1{fill:#FF0000;}
	.st2{fill:#808080;}
	.st3{fill:#CCCCCC;}
	.st4{fill:#8EC6F4;}
	.st5{fill:#009245;}
	.st6{fill:#39B54A;}
	.st7{fill:#B3B3B3;}
	.st8{fill:#E6E6E6;}
	.st9{fill:#736357;}
	.st10{fill:#E8D1B8;}
	.st11{fill:#534741;}
	.st12{fill:#C7B299;}
	.st13{fill:#998675;}
	.st14{fill:#1B1464;}
	.st15{fill:#FFFFFF;}
	.st16{fill:#2E3192;}
	.st17{opacity:0.3;fill:#FFFFFF;}
	.st18{fill:#FFCE00;}
	.st19{fill:#BABABA;}
	.st20{fill:#5E5E5E;}
	.st21{fill:#848484;}
	.st22{fill:#666666;}
	.st23{fill:#D5D5D5;}
	.st24{fill:#4A4A4A;}
	.st25{fill:#B6B6B6;}
	.st26{fill:#8A8A8A;}
	.st27{fill:#F2F2F2;}
</style>
<g id="ガイド_00000162338702563158607440000009963323815856875396_" class="st0">
	<line class="st1" x1="12.8" y1="16.3" x2="6" y2="29.9"/>
	<line class="st1" x1="13.5" y1="16.3" x2="15.9" y2="29.9"/>
	<line class="st1" x1="13.7" y1="16.3" x2="20" y2="30"/>
	<line class="st1" x1="13.2" y1="16.3" x2="10.6" y2="29.9"/>
</g>
<g id="ピン">
	<g>
		<g>
			<polygon class="st2" points="15,40 13,40 12,30 16,30 			"/>
			<rect x="14" y="30" class="st3" width="1" height="10"/>
		</g>
		<g>
			<rect x="12" y="20" class="st2" width="4" height="10"/>
			<rect x="14" y="20" class="st3" width="1" height="10"/>
		</g>
	</g>
</g>
<g id="ノーマル">
	<rect id="空" x="5.3" class="st4" width="14.2" height="16.3"/>
	<g id="葉_00000015348014151516047640000009809921490402443197_">
		<path class="st5" d="M17.4,15.2c0-0.1-0.1-0.3-0.2-0.3c0,0,0-0.1,0-0.1c0-0.2-0.2-0.4-0.4-0.5c0,0,0,0,0,0c0-0.1-0.1-0.3-0.2-0.3
			c0,0,0-0.1,0-0.1c0-0.3-0.2-0.5-0.5-0.5c-0.1,0-0.2,0-0.2,0.1c-0.1,0-0.1-0.1-0.2-0.1c0,0-0.1,0-0.1,0c-0.1-0.1-0.2-0.2-0.4-0.2
			c0,0-0.1,0-0.1,0c-0.1-0.1-0.2-0.2-0.3-0.2c-0.2,0-0.3,0.1-0.4,0.3c-0.1-0.1-0.2-0.1-0.3-0.1c-0.2,0-0.4,0.2-0.5,0.4
			c-0.1,0-0.1-0.1-0.2-0.1c-0.2,0-0.4,0.2-0.4,0.4c0,0,0,0,0,0c-0.2,0-0.4,0.2-0.4,0.5c0,0,0,0.1,0,0.1c0,0,0,0,0,0
			c-0.2,0-0.4,0.2-0.4,0.4c0,0.1,0,0.2,0.1,0.2c0,0.1-0.1,0.2-0.1,0.2c0,0,0,0.1,0,0.1c-0.1,0.1-0.2,0.2-0.2,0.3
			c0,0.2,0.2,0.4,0.4,0.4c0,0.3,0.2,0.6,0.6,0.6c0.2,0,0.4-0.1,0.5-0.3c0.1,0.1,0.2,0.1,0.3,0.1c0.1,0,0.2,0,0.2-0.1
			c0.1,0.2,0.2,0.3,0.4,0.3c0,0,0.1,0,0.1,0c0.1,0.1,0.2,0.2,0.3,0.2c0.2,0,0.3-0.1,0.4-0.3c0.1,0.1,0.2,0.1,0.3,0.1
			c0.2,0,0.3-0.1,0.4-0.3c0.1,0.1,0.1,0.1,0.2,0.1c0.2,0,0.4-0.2,0.4-0.4c0,0,0,0,0,0c0,0,0.1,0,0.1,0c0.3,0,0.5-0.2,0.5-0.5
			c0,0,0-0.1,0-0.1C17.3,15.4,17.4,15.3,17.4,15.2z"/>
		<path class="st6" d="M13.1,14.3c0,0-0.2,0.3-0.1,0.6c0.1,0.2,0.5,0.3,0.5,0.3s0.2-0.3,0-0.5C13.4,14.4,13.1,14.3,13.1,14.3z"/>
		<path class="st6" d="M13.6,14c0,0,0.1,0.4,0.4,0.5c0.2,0.1,0.6-0.1,0.6-0.1s-0.1-0.3-0.4-0.4C13.9,13.9,13.6,14,13.6,14z"/>
		<path class="st6" d="M15.4,13.4c0,0-0.4,0.1-0.5,0.3s0,0.6,0,0.6s0.3,0,0.4-0.3C15.4,13.8,15.4,13.4,15.4,13.4z"/>
		<path class="st6" d="M16.2,13.5c0,0-0.4,0.1-0.5,0.4c-0.1,0.2,0.1,0.6,0.1,0.6s0.3-0.1,0.4-0.4C16.3,13.9,16.2,13.5,16.2,13.5z"/>
		<path class="st6" d="M16.8,14.4c0,0-0.4-0.1-0.6,0.1s-0.1,0.6-0.1,0.6s0.3,0,0.5-0.2C16.7,14.8,16.8,14.4,16.8,14.4z"/>
		<path class="st6" d="M15.6,14.5c0,0-0.3,0-0.4,0.2c-0.1,0.2,0,0.4,0,0.4s0.2,0,0.3-0.2C15.6,14.8,15.6,14.5,15.6,14.5z"/>
		<path class="st6" d="M17.1,15c0,0-0.3-0.1-0.4,0c-0.2,0.1-0.1,0.4-0.1,0.4s0.2,0.1,0.4-0.1C17.1,15.2,17.1,15,17.1,15z"/>
		<path class="st6" d="M16.7,15.7c0,0-0.2-0.1-0.3-0.1s-0.2,0.2-0.2,0.2s0.2,0.1,0.3,0.1C16.5,15.9,16.7,15.7,16.7,15.7z"/>
		<path class="st6" d="M13.5,15.5c0,0-0.1-0.2-0.2-0.2c-0.1,0-0.3,0.1-0.3,0.1s0.1,0.2,0.2,0.2C13.3,15.6,13.5,15.5,13.5,15.5z"/>
		<path class="st6" d="M12.8,15.8c0,0,0.1,0.3,0.2,0.4c0.2,0.1,0.4-0.1,0.4-0.1s-0.1-0.2-0.3-0.3C13,15.8,12.8,15.8,12.8,15.8z"/>
		<path class="st6" d="M13.9,14.5c0,0-0.2,0.2-0.1,0.4c0.1,0.2,0.3,0.2,0.3,0.2s0.1-0.2,0-0.4C14.1,14.7,13.9,14.5,13.9,14.5z"/>
		<path class="st6" d="M14.5,13.4c0,0-0.1,0.2-0.1,0.3c0.1,0.1,0.3,0.2,0.3,0.2s0.1-0.2,0-0.3C14.6,13.5,14.5,13.4,14.5,13.4z"/>
	</g>
	<g id="葉_00000058570082381228839050000010452716868799073175_">
		<path class="st5" d="M14.4,10.7c0-0.2-0.1-0.3-0.2-0.4c0-0.1,0-0.1,0-0.2c0-0.3-0.2-0.5-0.4-0.6c0,0,0,0,0,0
			c0-0.2-0.1-0.3-0.2-0.4c0-0.1,0-0.1,0-0.2c0-0.3-0.2-0.6-0.5-0.6c-0.1,0-0.2,0-0.2,0.1c-0.1-0.1-0.1-0.1-0.2-0.1c0,0-0.1,0-0.1,0
			c-0.1-0.1-0.2-0.2-0.4-0.2c0,0-0.1,0-0.1,0C12,8,11.9,7.9,11.7,7.9c-0.2,0-0.3,0.2-0.4,0.4c-0.1-0.1-0.2-0.1-0.3-0.1
			c-0.2,0-0.4,0.2-0.5,0.5c-0.1,0-0.1-0.1-0.2-0.1c-0.2,0-0.4,0.2-0.4,0.5c0,0,0,0,0,0C9.8,9.1,9.7,9.4,9.7,9.6c0,0,0,0.1,0,0.1
			c0,0,0,0,0,0c-0.2,0-0.4,0.2-0.4,0.5c0,0.1,0,0.2,0.1,0.3c0,0.1-0.1,0.2-0.1,0.3c0,0.1,0,0.1,0,0.2c-0.1,0.1-0.2,0.2-0.2,0.4
			c0,0.3,0.2,0.5,0.4,0.5c0,0.4,0.3,0.7,0.6,0.7c0.2,0,0.4-0.1,0.5-0.4c0.1,0.1,0.2,0.1,0.3,0.1c0.1,0,0.2,0,0.2-0.1
			c0.1,0.2,0.2,0.3,0.4,0.3c0,0,0.1,0,0.1,0c0.1,0.1,0.2,0.3,0.3,0.3c0.2,0,0.3-0.2,0.4-0.4c0.1,0.1,0.2,0.1,0.3,0.1
			c0.2,0,0.4-0.1,0.4-0.3c0.1,0.1,0.1,0.1,0.2,0.1c0.2,0,0.4-0.2,0.4-0.5c0,0,0,0,0,0c0,0,0.1,0,0.1,0c0.3,0,0.5-0.3,0.5-0.6
			c0-0.1,0-0.1,0-0.2C14.3,11,14.4,10.8,14.4,10.7z"/>
		<path class="st6" d="M10,9.5c0,0-0.2,0.4-0.1,0.7s0.5,0.4,0.5,0.4s0.2-0.4,0-0.7C10.3,9.8,10,9.5,10,9.5z"/>
		<path class="st6" d="M10.4,9.2c0,0,0.1,0.5,0.4,0.6s0.6-0.2,0.6-0.2S11.3,9.2,11,9.1C10.8,9.1,10.4,9.2,10.4,9.2z"/>
		<path class="st6" d="M12.3,8.5c0,0-0.4,0.1-0.5,0.3c-0.1,0.3,0,0.7,0,0.7s0.3-0.1,0.5-0.4C12.3,8.9,12.3,8.5,12.3,8.5z"/>
		<path class="st6" d="M13.2,8.7c0,0-0.4,0.1-0.5,0.4c-0.1,0.3,0.1,0.7,0.1,0.7s0.3-0.1,0.4-0.5C13.3,9.1,13.2,8.7,13.2,8.7z"/>
		<path class="st6" d="M13.7,9.7c0,0-0.4-0.1-0.6,0.2c-0.2,0.2-0.1,0.7-0.1,0.7s0.3,0.1,0.5-0.2C13.7,10.2,13.7,9.7,13.7,9.7z"/>
		<path class="st6" d="M12.5,9.8c0,0-0.3,0-0.4,0.3s0,0.5,0,0.5s0.3,0,0.3-0.3C12.5,10.2,12.5,9.8,12.5,9.8z"/>
		<path class="st6" d="M14.1,10.4c0,0-0.3-0.1-0.4,0.1c-0.2,0.1-0.1,0.5-0.1,0.5s0.2,0.1,0.4-0.1C14,10.7,14.1,10.4,14.1,10.4z"/>
		<path class="st6" d="M13.6,11.4c0,0-0.2-0.2-0.3-0.1c-0.1,0-0.2,0.3-0.2,0.3s0.2,0.1,0.3,0.1C13.5,11.6,13.6,11.4,13.6,11.4z"/>
		<path class="st6" d="M10.4,11.1c0,0-0.1-0.2-0.2-0.3c-0.2,0-0.3,0.1-0.3,0.1s0.1,0.2,0.2,0.2C10.2,11.2,10.4,11.1,10.4,11.1z"/>
		<path class="st6" d="M9.6,11.5c0,0,0.1,0.3,0.2,0.4s0.4-0.1,0.4-0.1s-0.1-0.3-0.3-0.4C9.9,11.4,9.6,11.5,9.6,11.5z"/>
		<path class="st6" d="M10.8,9.9c0,0-0.2,0.3-0.1,0.5c0.1,0.2,0.3,0.3,0.3,0.3s0.1-0.3,0-0.5C11,10.1,10.8,9.9,10.8,9.9z"/>
		<path class="st6" d="M11.3,8.5c0,0-0.1,0.2-0.1,0.4c0.1,0.2,0.3,0.2,0.3,0.2s0.1-0.2,0-0.4C11.5,8.6,11.3,8.5,11.3,8.5z"/>
	</g>
	<g id="路">
		<polygon class="st7" points="14,16.3 13.7,16.3 13.4,16.3 13.1,16.3 12.8,16.3 12.5,16.3 2,30 6.5,30 11,30 15.5,30 20,30 
			24.5,30 		"/>
	</g>
	<path id="石畳" class="st2" d="M21.5,24.9h-6L15,22.2h3.5v-1h-1.9l-0.7-1.5h0.8v-1h-2.3l-0.2-1.1H15v-1h-1.5l0.1-0.4l-0.9,0
		l-0.1,0.4h-1.3v1h0.3l-0.5,1.1H9.9v1H12l-0.2,1.5H7.9v1h1.4l-1.4,2.7H4.7v1H11L10.1,30l1,0l0.9-4.1h5.6l1.9,4.1h1.1l-1.9-4.1h2.8
		V24.9z M14.8,19.7l0.7,1.5h-2.7l0.2-1.5H14.8z M12.7,17.7h0.5l0.2,1.1h-1.2L12.7,17.7z M9.1,24.9l1.4-2.7H14l0.6,2.7H9.1z"/>
	<g id="右">
		<polygon class="st8" points="24.5,30 14,16.3 14.2,10.1 19.4,0 28,0 28,30 		"/>
		<polygon class="st9" points="28,1.3 23.3,5.7 23.3,16.3 28,17.3 		"/>
		<polygon class="st9" points="20.2,24.3 20.2,9 18.7,10.4 18.7,22.4 		"/>
		<polygon class="st2" points="16.8,10.8 18.1,9.7 18.1,14.3 16.8,13.9 		"/>
		<polygon class="st7" points="15.6,7.3 15.6,18.5 15.1,17.7 15.1,8.3 		"/>
	</g>
	<g id="左">
		<polygon class="st10" points="0,30 2,30 12.5,16.3 12.5,10.6 5.8,0 0,0 		"/>
		<polygon class="st9" points="1.4,2.9 3.7,5.3 3.7,23.9 1.4,26.7 		"/>
		<polygon class="st11" points="6.4,6.9 8.2,8.5 8.2,12.7 6.4,13.4 		"/>
		<polygon class="st12" points="10,6.6 10,19.6 10.5,18.9 10.5,7.3 		"/>
		<polygon class="st13" points="12,11.2 12,16.9 11,18.3 11,10.3 		"/>
	</g>
</g>


<g id="消失">
	<g>
		<rect id="空_00000149361099129784482310000005372214851396850100_" x="5.3" y="0" class="st19" width="14.2" height="16.3"/>
		<g id="葉_00000054988552195804960230000011515071835334245545_">
			<path class="st20" d="M17.4,15.2c0-0.1-0.1-0.3-0.2-0.3c0,0,0-0.1,0-0.1c0-0.2-0.2-0.4-0.4-0.5c0,0,0,0,0,0
				c0-0.1-0.1-0.3-0.2-0.3c0,0,0-0.1,0-0.1c0-0.3-0.2-0.5-0.5-0.5c-0.1,0-0.2,0-0.2,0.1c-0.1,0-0.1-0.1-0.2-0.1c0,0-0.1,0-0.1,0
				c-0.1-0.1-0.2-0.2-0.4-0.2c0,0-0.1,0-0.1,0c-0.1-0.1-0.2-0.2-0.3-0.2c-0.2,0-0.3,0.1-0.4,0.3c-0.1-0.1-0.2-0.1-0.3-0.1
				c-0.2,0-0.4,0.2-0.5,0.4c-0.1,0-0.1-0.1-0.2-0.1c-0.2,0-0.4,0.2-0.4,0.4c0,0,0,0,0,0c-0.2,0-0.4,0.2-0.4,0.5c0,0,0,0.1,0,0.1
				c0,0,0,0,0,0c-0.2,0-0.4,0.2-0.4,0.4c0,0.1,0,0.2,0.1,0.2c0,0.1-0.1,0.2-0.1,0.2c0,0,0,0.1,0,0.1c-0.1,0.1-0.2,0.2-0.2,0.3
				c0,0.2,0.2,0.4,0.4,0.4c0,0.3,0.2,0.6,0.6,0.6c0.2,0,0.4-0.1,0.5-0.3c0.1,0.1,0.2,0.1,0.3,0.1c0.1,0,0.2,0,0.2-0.1
				c0.1,0.2,0.2,0.3,0.4,0.3c0,0,0.1,0,0.1,0c0.1,0.1,0.2,0.2,0.3,0.2c0.2,0,0.3-0.1,0.4-0.3c0.1,0.1,0.2,0.1,0.3,0.1
				c0.2,0,0.3-0.1,0.4-0.3c0.1,0.1,0.1,0.1,0.2,0.1c0.2,0,0.4-0.2,0.4-0.4c0,0,0,0,0,0c0,0,0.1,0,0.1,0c0.3,0,0.5-0.2,0.5-0.5
				c0,0,0-0.1,0-0.1C17.3,15.4,17.4,15.3,17.4,15.2z"/>
			<path class="st21" d="M13.1,14.3c0,0-0.2,0.3-0.1,0.6c0.1,0.2,0.5,0.3,0.5,0.3s0.2-0.3,0-0.5C13.4,14.4,13.1,14.3,13.1,14.3z"/>
			<path class="st21" d="M13.6,14c0,0,0.1,0.4,0.4,0.5c0.2,0.1,0.6-0.1,0.6-0.1s-0.1-0.3-0.4-0.4C13.9,13.9,13.6,14,13.6,14z"/>
			<path class="st21" d="M15.4,13.4c0,0-0.4,0.1-0.5,0.3s0,0.6,0,0.6s0.3,0,0.4-0.3C15.4,13.8,15.4,13.4,15.4,13.4z"/>
			<path class="st21" d="M16.2,13.5c0,0-0.4,0.1-0.5,0.4c-0.1,0.2,0.1,0.6,0.1,0.6s0.3-0.1,0.4-0.4C16.3,13.9,16.2,13.5,16.2,13.5z"/>
			<path class="st21" d="M16.8,14.4c0,0-0.4-0.1-0.6,0.1s-0.1,0.6-0.1,0.6s0.3,0,0.5-0.2C16.7,14.8,16.8,14.4,16.8,14.4z"/>
			<path class="st21" d="M15.6,14.5c0,0-0.3,0-0.4,0.2c-0.1,0.2,0,0.4,0,0.4s0.2,0,0.3-0.2C15.6,14.8,15.6,14.5,15.6,14.5z"/>
			<path class="st21" d="M17.1,15c0,0-0.3-0.1-0.4,0c-0.2,0.1-0.1,0.4-0.1,0.4s0.2,0.1,0.4-0.1C17.1,15.2,17.1,15,17.1,15z"/>
			<path class="st21" d="M16.7,15.7c0,0-0.2-0.1-0.3-0.1s-0.2,0.2-0.2,0.2s0.2,0.1,0.3,0.1C16.5,15.9,16.7,15.7,16.7,15.7z"/>
			<path class="st21" d="M13.5,15.5c0,0-0.1-0.2-0.2-0.2c-0.1,0-0.3,0.1-0.3,0.1s0.1,0.2,0.2,0.2C13.3,15.6,13.5,15.5,13.5,15.5z"/>
			<path class="st21" d="M12.8,15.8c0,0,0.1,0.3,0.2,0.4c0.2,0.1,0.4-0.1,0.4-0.1s-0.1-0.2-0.3-0.3C13,15.8,12.8,15.8,12.8,15.8z"/>
			<path class="st21" d="M13.9,14.5c0,0-0.2,0.2-0.1,0.4c0.1,0.2,0.3,0.2,0.3,0.2s0.1-0.2,0-0.4C14.1,14.7,13.9,14.5,13.9,14.5z"/>
			<path class="st21" d="M14.5,13.4c0,0-0.1,0.2-0.1,0.3c0.1,0.1,0.3,0.2,0.3,0.2s0.1-0.2,0-0.3C14.6,13.5,14.5,13.4,14.5,13.4z"/>
		</g>
		<g id="葉_00000074404340859095275850000009224334410541662116_">
			<path class="st20" d="M14.4,10.7c0-0.2-0.1-0.3-0.2-0.4c0-0.1,0-0.1,0-0.2c0-0.3-0.2-0.5-0.4-0.6c0,0,0,0,0,0
				c0-0.2-0.1-0.3-0.2-0.4c0-0.1,0-0.1,0-0.2c0-0.3-0.2-0.6-0.5-0.6c-0.1,0-0.2,0-0.2,0.1c-0.1-0.1-0.1-0.1-0.2-0.1c0,0-0.1,0-0.1,0
				c-0.1-0.1-0.2-0.2-0.4-0.2c0,0-0.1,0-0.1,0C12,8,11.9,7.9,11.7,7.9c-0.2,0-0.3,0.2-0.4,0.4c-0.1-0.1-0.2-0.1-0.3-0.1
				c-0.2,0-0.4,0.2-0.5,0.5c-0.1,0-0.1-0.1-0.2-0.1c-0.2,0-0.4,0.2-0.4,0.5c0,0,0,0,0,0C9.8,9.1,9.7,9.4,9.7,9.6c0,0,0,0.1,0,0.1
				c0,0,0,0,0,0c-0.2,0-0.4,0.2-0.4,0.5c0,0.1,0,0.2,0.1,0.3c0,0.1-0.1,0.2-0.1,0.3c0,0.1,0,0.1,0,0.2c-0.1,0.1-0.2,0.2-0.2,0.4
				c0,0.3,0.2,0.5,0.4,0.5c0,0.4,0.3,0.7,0.6,0.7c0.2,0,0.4-0.1,0.5-0.4c0.1,0.1,0.2,0.1,0.3,0.1c0.1,0,0.2,0,0.2-0.1
				c0.1,0.2,0.2,0.3,0.4,0.3c0,0,0.1,0,0.1,0c0.1,0.1,0.2,0.3,0.3,0.3c0.2,0,0.3-0.2,0.4-0.4c0.1,0.1,0.2,0.1,0.3,0.1
				c0.2,0,0.4-0.1,0.4-0.3c0.1,0.1,0.1,0.1,0.2,0.1c0.2,0,0.4-0.2,0.4-0.5c0,0,0,0,0,0c0,0,0.1,0,0.1,0c0.3,0,0.5-0.3,0.5-0.6
				c0-0.1,0-0.1,0-0.2C14.3,11,14.4,10.8,14.4,10.7z"/>
			<path class="st21" d="M10,9.5c0,0-0.2,0.4-0.1,0.7s0.5,0.4,0.5,0.4s0.2-0.4,0-0.7C10.3,9.8,10,9.5,10,9.5z"/>
			<path class="st21" d="M10.4,9.2c0,0,0.1,0.5,0.4,0.6s0.6-0.2,0.6-0.2S11.3,9.2,11,9.1C10.8,9.1,10.4,9.2,10.4,9.2z"/>
			<path class="st21" d="M12.3,8.5c0,0-0.4,0.1-0.5,0.3c-0.1,0.3,0,0.7,0,0.7s0.3-0.1,0.5-0.4C12.3,8.9,12.3,8.5,12.3,8.5z"/>
			<path class="st21" d="M13.2,8.7c0,0-0.4,0.1-0.5,0.4c-0.1,0.3,0.1,0.7,0.1,0.7s0.3-0.1,0.4-0.5C13.3,9.1,13.2,8.7,13.2,8.7z"/>
			<path class="st21" d="M13.7,9.7c0,0-0.4-0.1-0.6,0.2c-0.2,0.2-0.1,0.7-0.1,0.7s0.3,0.1,0.5-0.2C13.7,10.2,13.7,9.7,13.7,9.7z"/>
			<path class="st21" d="M12.5,9.8c0,0-0.3,0-0.4,0.3s0,0.5,0,0.5s0.3,0,0.3-0.3C12.5,10.2,12.5,9.8,12.5,9.8z"/>
			<path class="st21" d="M14.1,10.4c0,0-0.3-0.1-0.4,0.1c-0.2,0.1-0.1,0.5-0.1,0.5s0.2,0.1,0.4-0.1C14,10.7,14.1,10.4,14.1,10.4z"/>
			<path class="st21" d="M13.6,11.4c0,0-0.2-0.2-0.3-0.1c-0.1,0-0.2,0.3-0.2,0.3s0.2,0.1,0.3,0.1C13.5,11.6,13.6,11.4,13.6,11.4z"/>
			<path class="st21" d="M10.4,11.1c0,0-0.1-0.2-0.2-0.3c-0.2,0-0.3,0.1-0.3,0.1s0.1,0.2,0.2,0.2C10.2,11.2,10.4,11.1,10.4,11.1z"/>
			<path class="st21" d="M9.6,11.5c0,0,0.1,0.3,0.2,0.4s0.4-0.1,0.4-0.1s-0.1-0.3-0.3-0.4C9.9,11.4,9.6,11.5,9.6,11.5z"/>
			<path class="st21" d="M10.8,9.9c0,0-0.2,0.3-0.1,0.5c0.1,0.2,0.3,0.3,0.3,0.3s0.1-0.3,0-0.5C11,10.1,10.8,9.9,10.8,9.9z"/>
			<path class="st21" d="M11.3,8.5c0,0-0.1,0.2-0.1,0.4c0.1,0.2,0.3,0.2,0.3,0.2s0.1-0.2,0-0.4C11.5,8.6,11.3,8.5,11.3,8.5z"/>
		</g>
		<g id="路_00000143590571743170376650000005180508991236166020_">
			<polygon class="st7" points="14,16.3 13.7,16.3 13.4,16.3 13.1,16.3 12.8,16.3 12.5,16.3 2,30 6.5,30 11,30 15.5,30 20,30 
				24.5,30 			"/>
		</g>
		<path id="石畳_00000000184696900775525740000013997653131059648141_" class="st2" d="M21.5,24.9h-6L15,22.2h3.5v-1h-1.9
			l-0.7-1.5h0.8v-1h-2.3l-0.2-1.1H15v-1h-1.5l0.1-0.4l-0.9,0l-0.1,0.4h-1.3v1h0.3l-0.5,1.1H9.9v1H12l-0.2,1.5H7.9v1h1.4l-1.4,2.7
			H4.7v1H11L10.1,30l1,0l0.9-4.1h5.6l1.9,4.1h1.1l-1.9-4.1h2.8V24.9z M14.8,19.7l0.7,1.5h-2.7l0.2-1.5H14.8z M12.7,17.7h0.5l0.2,1.1
			h-1.2L12.7,17.7z M9.1,24.9l1.4-2.7H14l0.6,2.7H9.1z"/>
		<g id="右_00000145017127553458865350000003681468991966098343_">
			<polygon class="st8" points="24.5,30 14,16.3 14.2,10.1 19.4,0 28,0 28,30 			"/>
			<polygon class="st22" points="28,1.3 23.3,5.7 23.3,16.3 28,17.3 			"/>
			<polygon class="st22" points="20.2,24.3 20.2,9 18.7,10.4 18.7,22.4 			"/>
			<polygon class="st2" points="16.8,10.8 18.1,9.7 18.1,14.3 16.8,13.9 			"/>
			<polygon class="st7" points="15.6,7.3 15.6,18.5 15.1,17.7 15.1,8.3 			"/>
		</g>
		<g id="左_00000181082429591855114030000008234469658778154145_">
			<polygon class="st23" points="0,30 2,30 12.5,16.3 12.5,10.6 5.8,0 0,0 			"/>
			<polygon class="st22" points="1.4,2.9 3.7,5.3 3.7,23.9 1.4,26.7 			"/>
			<polygon class="st24" points="6.4,6.9 8.2,8.5 8.2,12.7 6.4,13.4 			"/>
			<polygon class="st25" points="10,6.6 10,19.6 10.5,18.9 10.5,7.3 			"/>
			<polygon class="st26" points="12,11.2 12,16.9 11,18.3 11,10.3 			"/>
		</g>
	</g>
	<g>
		<path class="st1" d="M27.1,21.6l-7.5,7.5c-1.2,1.2-3.1,1.2-4.2,0l-7.5-7.5c-1.2-1.2-1.2-3.1,0-4.2l7.5-7.5c1.2-1.2,3.1-1.2,4.2,0
			l7.5,7.5C28.3,18.6,28.3,20.4,27.1,21.6z"/>
		<g>
			<path class="st27" d="M12.7,24.4l-0.2-0.2c-0.5-0.5-0.5-1.3,0-1.8l7.9-7.9c0.5-0.5,1.3-0.5,1.8,0l0.2,0.2c0.5,0.5,0.5,1.3,0,1.8
				l-7.9,7.9C14,24.9,13.2,24.9,12.7,24.4z"/>
			<path class="st27" d="M20.5,24.4l-7.9-7.9c-0.5-0.5-0.5-1.3,0-1.8l0.2-0.2c0.5-0.5,1.3-0.5,1.8,0l7.9,7.9c0.5,0.5,0.5,1.3,0,1.8
				l-0.2,0.2C21.8,24.9,21,24.9,20.5,24.4z"/>
		</g>
	</g>
</g>
</svg>