<?xml version="1.0" encoding="utf-8"?>
<!-- Generator: Adobe Illustrator 27.1.1, SVG Export Plug-In . SVG Version: 6.00 Build 0)  -->
<svg version="1.1" xmlns="http://www.w3.org/2000/svg" xmlns:xlink="http://www.w3.org/1999/xlink" x="0px" y="0px" viewBox="0 0 28 40" style="enable-background:new 0 0 28 40;" xml:space="preserve">
<style type="text/css">
	.st0{display:none;}
	.st1{fill:#808080;}
	.st2{fill:#CCCCCC;}
	.st3{fill:#999999;}
	.st4{fill:#4D4D4D;}
	.st5{fill:#B3B3B3;}
	.st6{fill:#333333;}
	.st7{fill:#1B1464;}
	.st8{fill:#FFFFFF;}
	.st9{fill:#2E3192;}
	.st10{opacity:0.3;fill:#FFFFFF;}
	.st11{fill:#FFCE00;}
	.st12{fill:#FF0000;}
	.st13{fill:#F2F2F2;}
</style>
<g id="ガイド_00000162338702563158607440000009963323815856875396_" class="st0">
</g>
<g id="ピン">
	<g>
		<g>
			<polygon class="st1" points="15,40 13,40 12,30 16,30 			"/>
			<rect x="14" y="30" class="st2" width="1" height="10"/>
		</g>
		<g>
			<rect x="12" y="20" class="st1" width="4" height="10"/>
			<rect x="14" y="20" class="st2" width="1" height="10"/>
		</g>
	</g>
</g>
<g id="ノーマル">
	<rect id="床版" y="18.5" class="st2" width="28" height="11.5"/>
	<path id="欄干奥" class="st3" d="M17.2,19.2h2.6V8c0-0.3-0.2-0.5-0.5-0.5h-1.5c-0.3,0-0.5,0.2-0.5,0.5V19.2z"/>
	<polygon id="影_00000150784863907388050180000016560760846726526598_" class="st4" points="8.5,9.6 17.9,11.4 17.9,19.2 8.5,28.1 
			"/>
	<path id="柵" class="st5" d="M10.6,11.2v13.9L9,26.5l-0.2,3l9.4-9.7v-1.1l-0.1,0.1v-8.6L17.4,10L8.8,7.5v3.6L10.6,11.2z
		 M16.8,19.9v-8.2l0.6,0v7.6L16.8,19.9z M15.4,21.1v-9.5l0.6,0v8.9L15.4,21.1z M13.7,22.5v-11l0.8,0.1v10.3L13.7,22.5z M11.6,11.3
		l1.1,0.1v12l-1.1,0.9V11.3z"/>
	<g id="欄干手前_00000092437547142287796600000012851576880900234168_">
		<path id="欄干手前" class="st3" d="M0,30h9V1.5C9,0.7,8.3,0,7.5,0H1.6C0.7,0,0,0.7,0,1.6V30z"/>
		<g>
			<path class="st6" d="M2,13.8c-0.3,0.6-0.5,1.1-0.9,1.6c-0.1,0.1-0.1,0.2-0.2,0.2c-0.1,0-0.2-0.1-0.2-0.2c0-0.1,0-0.1,0.2-0.3
				c0.4-0.6,0.8-1.6,1-2.3l-0.8,0.1l-0.1,0c-0.1,0-0.2-0.1-0.2-0.2c0-0.1,0.1-0.2,0.2-0.2L2,12.2v-1.6c0-0.1,0.1-0.2,0.3-0.2
				c0.1,0,0.3,0.1,0.3,0.2v1.5L3,12.1c0.2,0,0.3,0.1,0.3,0.2c0,0.1-0.1,0.2-0.2,0.2l-0.6,0.1v0.7l0.1,0.1c0.6,0.4,0.8,0.6,0.8,0.8
				c0,0.1-0.1,0.2-0.3,0.2c-0.1,0-0.2,0-0.3-0.2c-0.1-0.2-0.2-0.3-0.4-0.4v3.3c0,0.1-0.1,0.2-0.3,0.2c-0.2,0-0.3-0.1-0.3-0.2V13.8z
				 M6.6,13.4c0.1,0,0.1,0.1,0.1,0.2c0,0.1-0.1,0.2-0.2,0.2L5,13.8c0,0,0,0,0,0C5,14,4.9,14,4.8,14c-0.2,0-0.2-0.1-0.2-0.2L4.4,13
				c-0.4,0.5-0.9,0.8-1,0.8c-0.1,0-0.2-0.1-0.2-0.2c0-0.1,0-0.1,0.3-0.3c0.4-0.3,0.7-0.7,1.1-1.2l-0.9,0.1c-0.2,0-0.3-0.1-0.3-0.2
				c0-0.1,0.1-0.2,0.2-0.2l1.2-0.1l0-0.1C4.9,11.3,5,11.2,5,11.1c-0.5,0.1-0.8,0.1-0.8,0.1C4.1,11.2,4,11.1,4,11
				c0-0.1,0-0.1,0.1-0.2c0,0,0,0,0.2,0c0.6-0.1,1.4-0.3,1.9-0.5c0,0,0.1,0,0.2,0c0.1,0,0.3,0.1,0.3,0.3c0,0.2-0.2,0.3-1.1,0.5
				c0,0.2-0.1,0.3-0.2,0.6l2-0.2c0.2,0,0.3,0.1,0.3,0.2c0,0.1-0.1,0.2-0.2,0.2l-1.1,0.1c0.5,0.5,1.1,1,1.6,1.3
				c0.2,0.1,0.2,0.2,0.2,0.2c0,0.1-0.3,0.2-0.5,0.2c-0.1,0-0.1,0-0.3-0.1c-0.2-0.2-0.5-0.4-0.7-0.7l0,0L6.6,13.4z M7.2,14.1
				c0.1,0,0.2,0,0.3,0.1c0.1,0.1,0.1,0.2,0.1,0.6c0,0.7-0.1,1.8-0.2,2.2c-0.1,0.3-0.2,0.5-0.4,0.5c-0.1,0-0.4-0.1-0.7-0.2
				c-0.2-0.1-0.2-0.1-0.2-0.2c0-0.1,0.1-0.2,0.2-0.2c0,0,0.1,0,0.2,0c0.1,0,0.2,0.1,0.3,0.1c0.1,0,0.2-0.1,0.2-0.2
				c0-0.3,0.1-1.3,0.1-1.8c0-0.2,0-0.2-0.2-0.2l-2.7,0.2L4.3,17v0c0,0.1-0.1,0.2-0.3,0.2c-0.2,0-0.3-0.1-0.3-0.3l-0.1-2.5
				c0-0.2,0.1-0.3,0.3-0.3c0.1,0,0.2,0,0.2,0.1L7.2,14.1z M6.5,16c0.1,0,0.2,0.1,0.2,0.2c0,0.1-0.1,0.2-0.2,0.2l-1.2,0.1
				c0,0.1-0.1,0.2-0.2,0.2c-0.1,0-0.2-0.1-0.2-0.2l-0.1-1.2v0c0-0.1,0.1-0.2,0.2-0.2c0.1,0,0.2,0,0.2,0.1L6.2,15
				c0.2,0,0.4,0.1,0.4,0.3c0,0,0,0,0,0.1L6.5,16z M6.3,12.5C6.2,12.3,6,12,5.9,11.9L5.2,12c-0.1,0.2-0.2,0.3-0.4,0.6c0,0,0,0,0,0
				l1.4-0.1H6.3z M6.1,13c0-0.1,0-0.1-0.1-0.1L4.9,13L5,13.5l1.1-0.1L6.1,13z M6.1,15.6c0-0.1,0-0.1-0.1-0.1l-0.8,0.1l0,0.6L6,16.1
				L6.1,15.6z"/>
		</g>
	</g>
</g>


<g id="消失">
	<g>
		<rect id="床版_00000107586349973594392020000007424325540054642867_" y="18.5" class="st2" width="28" height="11.5"/>
		<path id="欄干奥_00000178890179044674578020000012405372683064745400_" class="st3" d="M17.2,19.2h2.6V8c0-0.3-0.2-0.5-0.5-0.5
			h-1.5c-0.3,0-0.5,0.2-0.5,0.5V19.2z"/>
		<polygon id="影_00000131329175754564428510000006218323461991132580_" class="st4" points="8.5,9.6 17.9,11.4 17.9,19.2 
			8.5,28.1 		"/>
		<path id="柵_00000101087407746243282660000001108442147018823056_" class="st5" d="M10.6,11.2v13.9L9,26.5l-0.2,3l9.4-9.7v-1.1
			l-0.1,0.1v-8.6L17.4,10L8.8,7.5v3.6L10.6,11.2z M16.8,19.9v-8.2l0.6,0v7.6L16.8,19.9z M15.4,21.1v-9.5l0.6,0v8.9L15.4,21.1z
			 M13.7,22.5v-11l0.8,0.1v10.3L13.7,22.5z M11.6,11.3l1.1,0.1v12l-1.1,0.9V11.3z"/>
		<g id="欄干手前_00000001633011988415417120000013566043652579090849_">
			<path id="欄干手前_00000108271064453754744810000017485931371679037114_" class="st3" d="M0,30h9V1.5C9,0.7,8.3,0,7.5,0H1.6
				C0.7,0,0,0.7,0,1.6V30z"/>
			<g>
				<path class="st6" d="M2,13.8c-0.3,0.6-0.5,1.1-0.9,1.6c-0.1,0.1-0.1,0.2-0.2,0.2c-0.1,0-0.2-0.1-0.2-0.2c0-0.1,0-0.1,0.2-0.3
					c0.4-0.6,0.8-1.6,1-2.3l-0.8,0.1l-0.1,0c-0.1,0-0.2-0.1-0.2-0.2c0-0.1,0.1-0.2,0.2-0.2L2,12.2v-1.6c0-0.1,0.1-0.2,0.3-0.2
					c0.1,0,0.3,0.1,0.3,0.2v1.5L3,12.1c0.2,0,0.3,0.1,0.3,0.2c0,0.1-0.1,0.2-0.2,0.2l-0.6,0.1v0.7l0.1,0.1c0.6,0.4,0.8,0.6,0.8,0.8
					c0,0.1-0.1,0.2-0.3,0.2c-0.1,0-0.2,0-0.3-0.2c-0.1-0.2-0.2-0.3-0.4-0.4v3.3c0,0.1-0.1,0.2-0.3,0.2c-0.2,0-0.3-0.1-0.3-0.2V13.8z
					 M6.6,13.4c0.1,0,0.1,0.1,0.1,0.2c0,0.1-0.1,0.2-0.2,0.2L5,13.8c0,0,0,0,0,0C5,14,4.9,14,4.8,14c-0.2,0-0.2-0.1-0.2-0.2L4.4,13
					c-0.4,0.5-0.9,0.8-1,0.8c-0.1,0-0.2-0.1-0.2-0.2c0-0.1,0-0.1,0.3-0.3c0.4-0.3,0.7-0.7,1.1-1.2l-0.9,0.1c-0.2,0-0.3-0.1-0.3-0.2
					c0-0.1,0.1-0.2,0.2-0.2l1.2-0.1l0-0.1C4.9,11.3,5,11.2,5,11.1c-0.5,0.1-0.8,0.1-0.8,0.1C4.1,11.2,4,11.1,4,11
					c0-0.1,0-0.1,0.1-0.2c0,0,0,0,0.2,0c0.6-0.1,1.4-0.3,1.9-0.5c0,0,0.1,0,0.2,0c0.1,0,0.3,0.1,0.3,0.3c0,0.2-0.2,0.3-1.1,0.5
					c0,0.2-0.1,0.3-0.2,0.6l2-0.2c0.2,0,0.3,0.1,0.3,0.2c0,0.1-0.1,0.2-0.2,0.2l-1.1,0.1c0.5,0.5,1.1,1,1.6,1.3
					c0.2,0.1,0.2,0.2,0.2,0.2c0,0.1-0.3,0.2-0.5,0.2c-0.1,0-0.1,0-0.3-0.1c-0.2-0.2-0.5-0.4-0.7-0.7l0,0L6.6,13.4z M7.2,14.1
					c0.1,0,0.2,0,0.3,0.1c0.1,0.1,0.1,0.2,0.1,0.6c0,0.7-0.1,1.8-0.2,2.2c-0.1,0.3-0.2,0.5-0.4,0.5c-0.1,0-0.4-0.1-0.7-0.2
					c-0.2-0.1-0.2-0.1-0.2-0.2c0-0.1,0.1-0.2,0.2-0.2c0,0,0.1,0,0.2,0c0.1,0,0.2,0.1,0.3,0.1c0.1,0,0.2-0.1,0.2-0.2
					c0-0.3,0.1-1.3,0.1-1.8c0-0.2,0-0.2-0.2-0.2l-2.7,0.2L4.3,17v0c0,0.1-0.1,0.2-0.3,0.2c-0.2,0-0.3-0.1-0.3-0.3l-0.1-2.5
					c0-0.2,0.1-0.3,0.3-0.3c0.1,0,0.2,0,0.2,0.1L7.2,14.1z M6.5,16c0.1,0,0.2,0.1,0.2,0.2c0,0.1-0.1,0.2-0.2,0.2l-1.2,0.1
					c0,0.1-0.1,0.2-0.2,0.2c-0.1,0-0.2-0.1-0.2-0.2l-0.1-1.2v0c0-0.1,0.1-0.2,0.2-0.2c0.1,0,0.2,0,0.2,0.1L6.2,15
					c0.2,0,0.4,0.1,0.4,0.3c0,0,0,0,0,0.1L6.5,16z M6.3,12.5C6.2,12.3,6,12,5.9,11.9L5.2,12c-0.1,0.2-0.2,0.3-0.4,0.6c0,0,0,0,0,0
					l1.4-0.1H6.3z M6.1,13c0-0.1,0-0.1-0.1-0.1L4.9,13L5,13.5l1.1-0.1L6.1,13z M6.1,15.6c0-0.1,0-0.1-0.1-0.1l-0.8,0.1l0,0.6L6,16.1
					L6.1,15.6z"/>
			</g>
		</g>
	</g>
	<g>
		<path class="st12" d="M27.1,21.6l-7.5,7.5c-1.2,1.2-3.1,1.2-4.2,0l-7.5-7.5c-1.2-1.2-1.2-3.1,0-4.2l7.5-7.5c1.2-1.2,3.1-1.2,4.2,0
			l7.5,7.5C28.3,18.6,28.3,20.4,27.1,21.6z"/>
		<g>
			<path class="st13" d="M12.7,24.4l-0.2-0.2c-0.5-0.5-0.5-1.3,0-1.8l7.9-7.9c0.5-0.5,1.3-0.5,1.8,0l0.2,0.2c0.5,0.5,0.5,1.3,0,1.8
				l-7.9,7.9C14,24.9,13.2,24.9,12.7,24.4z"/>
			<path class="st13" d="M20.5,24.4l-7.9-7.9c-0.5-0.5-0.5-1.3,0-1.8l0.2-0.2c0.5-0.5,1.3-0.5,1.8,0l7.9,7.9c0.5,0.5,0.5,1.3,0,1.8
				l-0.2,0.2C21.8,24.9,21,24.9,20.5,24.4z"/>
		</g>
	</g>
</g>
</svg>