<?xml version="1.0" encoding="utf-8"?>
<!-- Generator: Adobe Illustrator 27.1.1, SVG Export Plug-In . SVG Version: 6.00 Build 0)  -->
<svg version="1.1" xmlns="http://www.w3.org/2000/svg" xmlns:xlink="http://www.w3.org/1999/xlink" x="0px" y="0px" viewBox="0 0 28 40" style="enable-background:new 0 0 28 40;" xml:space="preserve">
<style type="text/css">
	.st0{display:none;}
	.st1{fill:#808080;}
	.st2{fill:#CCCCCC;}
	.st3{display:inline;fill:#808080;}
	.st4{display:inline;fill:#CCCCCC;}
	.st5{fill:#B3B3B3;}
	.st6{fill:#999999;}
	.st7{fill:#333333;}
	.st8{fill:#39B54A;}
	.st9{fill:#A96E2D;}
	.st10{fill:#1B1464;}
	.st11{fill:#FFFFFF;}
	.st12{fill:#2E3192;}
	.st13{opacity:0.3;fill:#FFFFFF;}
	.st14{fill:#FFCE00;}
	.st15{fill:#848484;}
	.st16{fill:#797979;}
	.st17{fill:#FF0000;}
	.st18{fill:#F2F2F2;}
</style>
<g id="ガイド_00000162338702563158607440000009963323815856875396_" class="st0">
</g>
<g id="ピン">
	<g>
		<g>
			<polygon class="st1" points="15,40 13,40 12,30 16,30 			"/>
			<rect x="14" y="30" class="st2" width="1" height="10"/>
		</g>
		<g class="st0">
			<rect x="12" y="20" class="st3" width="4" height="10"/>
			<rect x="14" y="20" class="st4" width="1" height="10"/>
		</g>
	</g>
</g>
<g id="ノーマル">
	<g id="舟形">
		<path id="船_00000169559318985929268780000010545479431546649269_" class="st1" d="M25.3,24.3c-0.6-1-1.8-1.3-1.8-1.3
			s-1.1,0.3-1.8,1.3c-0.7,1.1-0.6,2-0.6,2l0.2,3.7h2.2h2.2l0.2-3.7C26,26.3,26.1,25.4,25.3,24.3z"/>
		<path id="船_00000067936411607005960100000008500036948331409331_" class="st1" d="M6.3,22.3c-0.6-1-1.8-1.3-1.8-1.3
			s-1.1,0.3-1.8,1.3c-0.7,1.1-0.6,2-0.6,2L2.4,28h2.2h2.2L7,24.3C7,24.3,7.1,23.4,6.3,22.3z"/>
		<path id="船_00000029019544929452499620000006002649501632979855_" class="st5" d="M22.3,27.3c-0.6-1-1.8-1.3-1.8-1.3
			s-1.1,0.3-1.8,1.3c-0.7,1.1-0.6,2-0.6,2l0.2,3.7h2.2h2.2l0.2-3.7C23,29.3,23.1,28.4,22.3,27.3z"/>
		<path id="船_00000001647248603021028150000000133141800875732921_" class="st5" d="M27.3,27.3c-0.6-1-1.8-1.3-1.8-1.3
			s-1.1,0.3-1.8,1.3c-0.7,1.1-0.6,2-0.6,2l0.2,3.7h2.2h2.2l0.2-3.7C28,29.3,28.1,28.4,27.3,27.3z"/>
		<path id="船_00000157993528613057117170000016372117971292368308_" class="st5" d="M4.2,27.3c-0.6-1-1.8-1.3-1.8-1.3
			s-1.1,0.3-1.8,1.3c-0.7,1.1-0.6,2-0.6,2L0.2,33h2.2h2.2l0.2-3.7C4.9,29.3,5,28.4,4.2,27.3z"/>
		<path id="船_00000118397901454542155720000000418060322041766059_" class="st5" d="M9.2,26.3c-0.6-1-1.8-1.3-1.8-1.3
			s-1.1,0.3-1.8,1.3c-0.7,1.1-0.6,2-0.6,2L5.2,32h2.2h2.2l0.2-3.7C9.9,28.3,10,27.4,9.2,26.3z"/>
	</g>
	<g id="基礎">
		<rect x="7" y="30" class="st1" width="14" height="3"/>
	</g>
	<rect id="本体" x="10" y="6" class="st6" width="8" height="24"/>
	<g id="萬霊">
		<path class="st7" d="M11.5,15.2c0-0.1,0-0.2,0-0.2c0.1,0,0.2,0.1,0.3,0.2c0,0,0.1,0.2,0.1,0.4c0,0.3,0.1,0.6,0.2,0.8
			c0.1,0.2,0.2,0.4,0.2,0.4c0.1,0.1,0.1,0.3,0.1,0.3c0,0-0.1,0.1-0.1,0.1c0,0,0,0-0.1,0c-0.1-0.1-0.5-0.4-0.5-0.5c0,0,0-0.1-0.1-0.2
			c-0.1-0.3-0.2-0.5-0.2-0.8c0-0.1,0-0.1,0-0.2C11.5,15.4,11.5,15.3,11.5,15.2z M14.3,10.4C14.3,10.4,14.3,10.4,14.3,10.4
			c0.2,0,0.6,0.2,0.6,0.3c0,0,0,0.1,0,0.2l0,0.1H15c0.2,0,0.3,0,0.4,0c0.3,0,0.6,0.3,0.6,0.4c0,0,0,0,0,0c0,0-0.1,0-0.1,0
			c-0.1,0-0.1,0-0.2,0c0,0-0.1,0-0.1,0c0,0,0,0-0.1,0c0,0-0.1,0-0.2,0c-0.1,0-0.2,0-0.3,0c-0.1,0-0.1,0-0.1,0c-0.1,0-0.1,0-0.2,0.1
			c-0.1,0.1-0.2,0.2-0.3,0.4c0,0.1-0.4,0.4-0.5,0.4c0,0,0-0.1,0-0.2c0.1-0.2,0.2-0.4,0.2-0.5l0-0.1l-0.2,0.1
			c-0.1,0.1-0.3,0.1-0.4,0.1c-0.1,0-0.2,0.1-0.3,0.1c-0.1,0-0.1,0-0.2,0.3c0,0.1-0.1,0.2-0.2,0.2c-0.1,0-0.1-0.1-0.2-0.2l0-0.1
			l-0.2,0c-0.1,0-0.2,0-0.2,0s-0.1,0-0.2,0C12,12,12,11.9,12,11.9c0-0.1,0.1-0.2,0.4-0.2c0.1,0,0.2-0.1,0.2-0.1c0,0,0,0,0,0
			c0-0.1,0-0.1-0.1-0.3c-0.1-0.1-0.1-0.1-0.1-0.1c0,0,0,0,0,0c0,0,0,0,0.1,0c0.1,0,0.3,0.1,0.4,0.3c0,0.1,0.1,0.1,0.1,0.1
			c0,0,0,0,0,0c0.1,0,0.3-0.1,0.4-0.1c0.1,0,0.4-0.1,0.7-0.2c0.2,0,0.2-0.1,0.2-0.2v0c0,0,0-0.1-0.1-0.1c-0.1,0-0.2-0.1-0.2-0.1
			c0,0,0-0.1,0.1-0.1C14.2,10.4,14.2,10.4,14.3,10.4z M14.7,12.2c0.2,0,0.3,0,0.4,0c0.1,0,0.2,0.1,0.3,0.2c0.2,0.2,0.2,0.3,0.2,0.5
			c0,0.1,0,0.1,0,0.2c0,0.1,0,0.1,0,0.1c0,0,0,0,0,0.1c0,0,0,0,0,0.1c0,0.1-0.2,0.6-0.3,0.6c-0.1,0.1-0.3,0.2-0.4,0.2
			c0,0-0.1,0-0.1,0c0,0,0,0-0.1,0c0,0,0,0-0.1,0c0,0-0.1,0-0.1,0c0,0-0.1,0-0.2,0c-0.1,0-0.1,0-0.1,0.1c0,0,0,0,0,0.1
			c0,0,0,0.1,0,0.1c0,0,0,0.1,0,0.2l0,0.2l0.1,0c0.3-0.1,1-0.3,1.2-0.3c0,0,0.1,0,0.1,0c0.1,0,0.3,0,0.4,0c0.1,0,0.1,0,0.2,0
			c0,0,0.2,0,0.2,0c0.1,0,0.2,0.1,0.4,0.3c0.1,0.1,0.2,0.2,0.2,0.2c0,0,0,0.2,0,0.4v0.1l0,0.2c0,0.1,0,0.2,0,0.3c0,0,0,0.1,0,0.1
			c0,0,0,0.1,0,0.1l0,0.1l0,0c0,0,0,0,0,0.1l0,0.2c0,0.1-0.1,0.2-0.1,0.2c0,0.1-0.2,0.4-0.3,0.5c-0.1,0.1-0.2,0.4-0.3,0.4
			c0,0,0,0-0.1,0c0,0-0.1,0-0.1,0h-0.1c-0.1,0-0.2,0-0.2-0.1c0-0.1-0.1-0.1-0.1-0.1c0,0-0.2-0.1-0.2-0.1c-0.1,0-0.2-0.1-0.2-0.1
			c-0.1-0.1-0.4-0.4-0.4-0.4v0c0,0,0,0,0,0c0,0,0,0,0,0v0h0c0,0,0.1,0,0.1,0c0,0,0.2,0.1,0.3,0.1c0.1,0,0.2,0.1,0.2,0.1
			c0,0,0.3,0,0.4,0c0.1,0,0.1,0,0.1,0c0.1,0,0.3-0.6,0.4-0.8c0,0,0-0.1,0.1-0.2c0-0.1,0.2-0.6,0.2-0.7c0,0,0-0.1,0-0.2v-0.1
			c0-0.1,0-0.1,0-0.1c-0.1,0-0.3-0.1-0.4-0.1l-0.1,0c-0.3,0-0.7,0.1-1,0.2c-0.1,0-0.2,0.1-0.3,0.1c0,0-0.1,0-0.1,0c0,0-0.1,0-0.2,0
			c-0.1,0-0.2,0-0.2,0c0,0-0.1,0.4-0.2,0.5c0,0,0,0.1,0,0.1c0,0,0,0,0,0c0,0,0.2,0,0.3-0.1c0.1,0,0.3-0.1,0.3-0.1
			c0.1,0,0.1-0.1,0.1-0.1c0,0,0,0,0,0.1c0,0.1,0,0.2-0.1,0.2c0,0,0,0,0,0.1c0,0-0.1,0.1-0.5,0.2C13.8,16,13.7,16,13.7,16
			c0,0-0.1,0-0.1,0c0,0-0.1,0-0.3,0.1c0,0-0.1,0-0.1,0l0,0c0,0-0.1-0.1-0.1-0.1c0-0.1,0-0.1-0.1-0.2c0-0.1,0-0.1,0-0.1v0
			c0,0,0-0.1,0.1-0.1c0,0,0.1-0.1,0.2-0.1c0,0,0.1,0,0.1,0s0,0,0.1,0c0,0,0,0,0.1,0c0,0,0,0,0.1-0.1c0.1-0.1,0.2-0.3,0.2-0.4
			c0,0,0,0,0,0c0,0-0.2,0-0.4,0.1c-0.1,0-0.2,0.1-0.3,0.1c-0.1,0-0.1,0-0.2,0c0,0-0.1-0.1-0.1-0.1c0,0,0.6-0.2,0.6-0.2
			c0,0,0.2-0.1,0.2-0.1c0,0,0.1,0,0.1,0c0.1,0,0.1,0,0.1-0.4l0-0.2l-0.1,0c0,0-0.1,0-0.1,0c-0.2,0-0.3,0-0.3,0.1v0.1
			c0,0.1,0,0.1-0.1,0.1c-0.1,0-0.2-0.1-0.3-0.4c-0.1-0.1-0.3-0.6-0.3-0.7c0,0,0-0.1,0-0.1c0,0,0,0,0,0c0,0,0-0.1-0.1-0.2
			c-0.1-0.1-0.1-0.2-0.1-0.2c0,0,0,0,0,0c0,0,0,0,0,0c0,0,0,0,0.1,0c0.1,0,0.2,0.2,0.3,0.3c0,0.1,0.1,0.1,0.1,0.1c0,0,0.1,0,0.2,0
			c0.1,0,0.2,0,0.3-0.1c0.1,0,0.2,0,0.2-0.1c0,0,0-0.1-0.1-0.1c0,0-0.1-0.1-0.1-0.1c0,0,0-0.1-0.1-0.1c0,0-0.1-0.1-0.2-0.1l-0.1-0.1
			l0.1,0l0.3-0.1c0.1,0,0.2,0,0.2-0.1c0.1,0,0.4-0.1,0.5-0.1c0,0,0.1,0,0.2,0c0.1,0,0.2,0,0.2,0C14.6,12.2,14.7,12.2,14.7,12.2z
			 M12.9,13.3C12.9,13.3,12.9,13.3,12.9,13.3C12.9,13.3,12.9,13.3,12.9,13.3L12.9,13.3l0.1,0.4l0.1,0.3l0.2,0c0.1,0,0.2,0,0.3-0.1
			c0,0,0.1,0,0.1,0c0,0,0,0,0-0.1v-0.1l0-0.2l-0.2,0c-0.1,0-0.2,0-0.3,0h-0.1c0,0-0.1,0-0.1,0C13,13.4,12.9,13.3,12.9,13.3z
			 M15,12.5C15,12.5,15,12.5,15,12.5l-0.1,0c-0.2,0-0.5,0-0.8,0.2c-0.2,0.1-0.3,0.1-0.4,0.1c0,0,0,0,0,0c0,0,0,0,0.1,0
			c0,0,0.1,0.1,0.2,0.1l0.1,0.1l0.2,0c0.2,0,0.3,0,0.3,0.1c0,0.1,0,0.1-0.2,0.1c-0.1,0-0.2,0.1-0.2,0.1c0,0,0,0.1,0,0.2
			c0,0.2,0,0.2,0,0.2c0,0,0,0,0,0c0,0,0,0,0,0h0c0,0,0.1,0,0.1,0c0.1,0,0.1,0,0.2,0c0.1,0,0.2-0.2,0.4-0.5C14.9,13,15,12.6,15,12.5z
			 M14.5,15.1C14.5,15.1,14.6,15.1,14.5,15.1c0.1,0,0.2,0,0.3,0c0.3,0.1,0.5,0.4,0.5,0.7v0.1c0,0.1,0,0.1,0,0.1c0,0-0.1,0-0.1,0
			c0,0,0,0-0.1,0c-0.1,0-0.1-0.1-0.2-0.2c-0.1-0.1-0.1-0.2-0.1-0.3c0-0.1-0.1-0.2-0.2-0.3C14.6,15.2,14.5,15.1,14.5,15.1z"/>
		<path class="st7" d="M13.7,19.4C13.7,19.4,13.6,19.4,13.7,19.4c-0.1-0.1-0.1-0.1-0.1-0.2c0,0,0,0,0-0.1l0,0c0,0,0.1-0.1,0.1-0.1
			l0,0l0,0c0,0,0,0,0,0s0.1,0,0.2,0l0,0c0.2,0.1,0.3,0.1,0.3,0.2v0c0,0,0,0,0,0.1v0c0,0,0,0,0,0c0.1,0,0.2,0,0.4-0.1
			c0.1,0,0.4-0.1,0.5-0.1c0.1,0,0.3,0,0.5,0c0.2,0,0.3,0,0.4,0c0.5,0.1,0.6,0.1,0.9,0.3c0.1,0.1,0.2,0.2,0.2,0.3
			c0,0.1,0,0.2-0.2,0.3c-0.1,0.1-0.1,0.1-0.2,0.2l0,0l0,0l0,0c0,0,0,0-0.1,0c0,0-0.1,0-0.1,0l0,0h0c0,0,0,0-0.1,0
			c-0.1,0-0.3,0.1-0.5,0.1h-0.1c-0.2,0-0.2,0-0.2,0.1c0,0.1-0.1,0.1-0.3,0.2c-0.2,0.1-0.8,0.4-0.8,0.4c0,0,0,0,0.1,0c0,0,0,0,0,0
			c0.3,0.1,0.4,0.2,0.4,0.2v0c0,0.1-0.1,0.2-0.2,0.2c0,0-0.1,0-0.2,0.1c-0.1,0.1-0.2,0.1-0.2,0.1c0,0-0.1,0.1-0.2,0.1
			c0,0-0.1,0.1-0.1,0.1c0,0-0.1,0-0.1,0.1c-0.3,0.2-0.5,0.4-0.5,0.5l0,0h0c0.1,0,0.2-0.1,0.5-0.2c0.2-0.1,0.4-0.2,0.4-0.2
			c0.1,0,0.2-0.1,0.2-0.1c0,0,0,0,0.1,0c0,0,0.1,0,0.2,0c0.3,0.1,0.4,0.1,0.4,0.2c0,0,0,0,0,0.1c0,0.1-0.1,0.1-0.2,0.1
			c-0.2,0-0.3,0-0.3,0.1c0,0,0,0,0,0c0,0,0,0,0,0.1c0,0.1,0,0.2,0,0.7c0,0.4,0,0.6,0,0.7c0,0,0.4-0.4,0.5-0.6c0,0,0-0.1,0-0.1
			c0,0,0-0.1-0.1-0.1c-0.1,0-0.2-0.1-0.2-0.1c0,0,0.1-0.1,0.2-0.1c0,0,0,0,0,0c0,0,0.1,0,0.1,0c0,0,0,0,0.1,0c0.1,0,0.1,0,0.2,0.1
			c0,0,0.1,0.1,0.2,0.1c0.1,0.1,0.2,0.2,0.2,0.2c0,0.1-0.2,0.4-0.4,0.6c-0.2,0.2-0.4,0.3-0.8,0.4c-0.1,0-0.2,0.1-0.2,0.2
			c0,0,0,0,0,0v0c0,0,0,0,0,0c0,0,0,0,0,0c0,0,0.3,0,0.7,0c0.2,0,0.2,0,0.2,0c0,0,0,0,0,0h0l0,0c0.1,0,0.9,0.3,1,0.3
			c0.1,0.1,0.2,0.2,0.2,0.3v0.1c0,0,0,0.1-0.1,0.1h-0.1c-0.2,0-0.5,0-0.8-0.1c-0.1,0-0.3,0-0.4,0c-0.1,0-0.2,0-0.2,0
			c0,0-0.1,0-0.1,0c-0.2,0-0.3,0-0.4,0c-0.1,0-0.3,0-0.5,0c0,0-0.1,0-0.1,0c0,0,0,0-0.1,0h0c-0.2,0-0.3,0-0.5,0.1c0,0,0,0-0.1,0
			c-0.1,0-0.2,0-0.2,0c0,0-0.1,0-0.1,0c-0.1,0-0.1,0-0.2,0c-0.1,0-0.2,0-0.2,0.1c0,0-0.1,0-0.1,0c0,0-0.1,0-0.1,0h0c0,0-0.1,0-0.1,0
			c-0.2,0.1-0.3,0.1-0.5,0.1h0c-0.2,0-0.2,0-0.3-0.1l-0.1,0l0.1,0c0,0,0.1,0,0.2-0.1l0.2,0c0.1,0,0.2-0.1,0.3-0.1c0,0,0.1,0,0.1,0
			l0.1,0c0.2-0.1,0.4-0.1,0.4-0.1c0,0,0.3-0.1,0.4-0.1c0.1,0,0.2,0,0.2,0c0,0,0.1,0,0.1,0s0,0,0,0c0,0,0-0.1-0.1-0.1l0,0
			c0-0.1-0.1-0.1-0.1-0.1c0,0,0,0,0-0.1c0,0,0,0,0,0c0,0,0,0,0,0l0,0c0,0,0-0.2,0-0.3c0-0.1,0-0.2,0-0.2c-0.1,0-0.3,0.2-0.3,0.2l0,0
			c0,0,0,0,0,0c0,0,0,0,0,0.1L13,24.4c-0.1,0.1-0.1,0.2-0.1,0.2c0,0,0,0.1-0.1,0.1c0,0,0,0,0,0c0,0-0.1,0-0.1,0l0,0
			c-0.2-0.2-0.4-0.4-0.4-0.5l0,0v0c0-0.1,0.1-0.3,0.2-0.3h0c0.1,0,0.2,0.1,0.2,0.2v0c0,0.1,0,0.1,0.1,0.1c0,0,0.1,0,0.1,0
			c0.1,0,0.3-0.1,0.4-0.2c0,0,0,0,0,0s0,0,0,0c0,0,0,0,0,0.1c0,0,0,0.1,0,0.1s0,0,0,0c0,0,0.1,0,0.2-0.1l0.1-0.1v-0.3
			c0-0.2,0-0.3,0-0.3c0,0,0,0,0,0c0,0,0.2,0.2,0.2,0.3c0.1,0.2,0.1,0.5,0.2,0.8c0,0.1,0,0.2,0,0.2c0,0,0,0,0,0c0,0,0,0,0,0l0,0h0
			c0,0,0,0,0.1-0.1c0.1-0.2,0.1-0.3,0.1-0.6v-0.1c0-0.1,0-0.1,0-0.1c0-0.3,0-0.7,0-0.7c0,0,0,0,0,0c0,0,0,0-0.1,0
			c-0.1,0.1-0.4,0.2-0.5,0.2c0,0-0.2,0-0.3,0h-0.1c-0.1,0-0.1,0-0.1,0c0,0-0.1-0.1-0.1-0.2c0-0.1,0-0.1,0-0.1c0-0.1,0.1-0.2,0.2-0.3
			l0,0c0,0,0.1,0,0.1-0.1c0,0,0.1-0.1,0.1-0.1l0,0c0,0,0,0,0,0c0,0,0.1,0,0.1-0.1s0,0,0.1-0.1c0.1-0.1,0.2-0.1,0.2-0.2
			c0,0,0,0-0.1,0c-0.2,0-0.4-0.2-0.4-0.3c0,0,0,0,0-0.1c0,0,0,0,0,0c0,0,0,0,0.1,0c0,0,0.1,0,0.2,0c0.1,0,0.2,0,0.2,0v0
			c0,0-0.1-0.2-0.1-0.2c0,0,0-0.1,0-0.1c0-0.1,0-0.1,0-0.1c0,0,0,0,0,0c0,0,0,0,0.1,0c0,0,0,0,0-0.1c0-0.1,0-0.2,0-0.4
			c0-0.1,0-0.1,0-0.1c0,0-0.2,0.2-0.3,0.3c-0.1,0.1-0.1,0.2-0.2,0.3c-0.1,0.1-0.1,0.2-0.1,0.2v0c0,0,0,0,0,0c0,0,0,0.1,0,0.1
			c0,0,0,0.1,0,0.1c0,0-0.1,0-0.1,0l0,0h0c-0.1,0-0.2-0.2-0.3-0.3c-0.1-0.1-0.1-0.2-0.1-0.3c0,0,0-0.1,0-0.1c0-0.1,0-0.2,0-0.3
			l0-0.2l-0.1,0c-0.1,0-0.3,0.1-0.3,0.1c0,0-0.1,0-0.1,0.1c-0.1,0.1-0.4,0.4-0.4,0.5c0,0.1-0.2,0.5-0.3,0.6c0,0,0,0-0.1,0
			c-0.1,0-0.3-0.2-0.3-0.4c0-0.1,0-0.2-0.1-0.2c0,0,0,0,0-0.1c0,0,0-0.1,0.1-0.1c0.1-0.1,0.2-0.3,0.4-0.6c0.4-0.5,0.7-0.9,0.9-1
			c0,0,0,0,0.1,0c0,0,0,0,0.1,0.1c0,0.1,0.1,0.1,0.1,0.2c0,0,0,0.1-0.1,0.1c0,0-0.2,0.3-0.2,0.3h0c0,0,0.1,0,0.1,0
			c0.1,0,0.2-0.1,0.3-0.1c0.1,0,0.2-0.1,0.2-0.1s0.1,0,0.1,0c0.1,0,0.1,0,0.1,0c0,0,0.1-0.1,0.2-0.1c0.1,0,0.2-0.1,0.2-0.1
			c0,0,0.1,0,0.2-0.1c0,0,0,0,0-0.1C13.8,19.5,13.7,19.4,13.7,19.4C13.7,19.4,13.7,19.4,13.7,19.4z M13.3,20.7c0,0,0.1-0.1,0.2-0.1
			l0,0c0.1,0,0.1-0.1,0.1-0.1c0.1,0,0.1-0.1,0.1-0.2v-0.1c0-0.1,0-0.1,0-0.1s-0.1,0-0.1,0c-0.1,0-0.1,0.1-0.2,0.1c0,0-0.1,0-0.2,0.1
			c-0.1,0-0.2,0.1-0.2,0.1c0,0-0.1,0.1-0.1,0.1c0,0,0,0.1,0,0.1c0,0,0,0.1,0,0.1c0,0.1,0,0.2,0.1,0.2c0,0,0.1,0,0.1-0.1
			C13.2,20.8,13.3,20.7,13.3,20.7z M13.5,18.3c0.1,0,0.2,0,0.3,0l0,0c0,0,0,0,0,0c0.1,0,0.2,0,0.2,0c0.1,0,0.3-0.1,0.3-0.1
			c0,0,0,0,0,0c0.1,0,0.2,0,0.4,0.1c0.2,0.1,0.2,0.1,0.3,0.2c0,0,0,0.1,0,0.1c0,0,0,0,0,0.1c0,0-0.1,0.1-0.2,0.1c0,0-0.1,0-0.2,0
			l0,0c0,0,0,0,0,0l-0.1,0c-0.1,0-0.1,0-0.2,0c-0.1,0-0.2,0-0.4,0c-0.1,0-0.2,0-0.3,0c-0.2,0-0.3-0.1-0.5-0.2
			c-0.1-0.1-0.1-0.1-0.1-0.2c0,0,0-0.1,0-0.1C13.3,18.3,13.4,18.3,13.5,18.3z M13.9,24.7C13.9,24.7,13.9,24.7,13.9,24.7
			C13.9,24.8,13.9,24.8,13.9,24.7C13.9,24.8,13.9,24.8,13.9,24.7C13.9,24.8,13.9,24.8,13.9,24.7C14,24.8,14,24.7,13.9,24.7
			C14,24.7,14,24.7,13.9,24.7C14,24.7,14,24.7,13.9,24.7C13.9,24.7,13.9,24.7,13.9,24.7z M14.9,20.4c0,0-0.1-0.1-0.1-0.2
			c0-0.1-0.1-0.1-0.1-0.1c0,0-0.1,0-0.1,0c0,0-0.1,0-0.1,0c0,0-0.1,0-0.1,0.1c0,0,0,0,0,0c0,0,0,0,0,0c-0.2,0.1-0.2,0.1-0.2,0.5
			c0,0.2,0,0.5,0,0.6c0,0,0,0.1,0,0.1c0,0,0,0,0,0s0,0,0,0c0,0,0,0,0,0s0,0,0,0c0,0,0,0,0.1,0c0,0,0.1,0,0.2-0.1
			c0.1-0.1,0.5-0.4,0.5-0.5c0,0,0,0,0,0c0,0,0,0,0,0c0,0,0,0-0.1,0c-0.1,0-0.2,0-0.2,0c0,0,0,0,0,0c0,0,0.1,0,0.2-0.1L14.9,20.4
			L14.9,20.4z M16.2,20c0.2-0.1,0.3-0.2,0.3-0.2v0c0,0-0.3-0.1-0.4-0.1c0,0-0.3,0-0.5,0h-0.2c0,0-0.1,0-0.1,0
			c-0.1,0-0.6,0.1-0.6,0.1c0,0-0.1,0-0.2,0.1l0,0c-0.1,0-0.2,0-0.2,0.1c0,0,0,0.1,0,0.2c0,0,0,0,0,0c0.1,0,0.4-0.2,0.4-0.2
			c0,0,0.1,0,0.1,0c0,0,0.1,0,0.1,0c0.1,0,0.2,0.1,0.2,0.1l0,0c0,0,0,0.2,0.1,0.2c0.1,0.1,0.1,0.1,0.2,0.1c0,0,0.1,0,0.1,0
			C15.6,20.3,15.9,20.1,16.2,20z"/>
	</g>
	<path id="笠" class="st1" d="M19.1,3.8c-0.4,0-1.7-0.9-2.1-1.1s-1.1-0.2-1.1-0.2H14h-1.9c0,0-0.7-0.1-1.1,0.2S9.3,3.8,8.9,3.8
		c-0.4,0-0.9,0-0.9,0l0.4,1.9C8.4,5.9,8.6,6,8.9,6H14h5.1c0.3,0,0.5-0.1,0.5-0.3L20,3.8C20,3.8,19.6,3.8,19.1,3.8z"/>
	<path id="宝珠" class="st1" d="M15.9,1.9c-0.1-1.1-1.6-1.7-1.6-1.7L14,0l-0.3,0.1c0,0-1.4,0.6-1.6,1.7c-0.1,0.6,0.3,0.8,0.3,0.8
		H14h1.6C15.6,2.7,15.9,2.4,15.9,1.9z"/>
	<g id="地面_00000085960540020044898610000002193894466238366089_">
		<path id="草_00000050658507514173148250000014360179358624052912_" class="st8" d="M2.4,34c-0.4-1.3-0.5-2.2-1.3-3.5
			C2.8,30.4,3.5,32.9,2.4,34L2.4,34z"/>
		<path id="草_00000179627912085844586860000016558588140227868062_" class="st8" d="M26.6,34c-1.1-1.1-0.4-3.6,1.3-3.5
			C27.1,31.8,27,32.7,26.6,34L26.6,34z"/>
		<path id="草_00000151529837931384215080000007510860043949423779_" class="st8" d="M25.8,34.5c-1.2-2.3-0.6-6.1,2.1-7
			C26.2,29.6,26.2,32,25.8,34.5L25.8,34.5z"/>
		<rect id="地面" y="33" class="st9" width="28" height="2"/>
	</g>
</g>
<g id="画像なし">
	<g id="画像なし_00000162343747632278853550000006555249944818105236_">
		<path class="st10" d="M27.1,26.6l-7.5,7.5c-1.2,1.2-3.1,1.2-4.2,0l-7.5-7.5c-1.2-1.2-1.2-3.1,0-4.2l7.5-7.5c1.2-1.2,3.1-1.2,4.2,0
			l7.5,7.5C28.3,23.5,28.3,25.5,27.1,26.6z"/>
		<path id="カメラ" class="st11" d="M22,20.5h-1.5l-0.8-1.6c-0.1-0.2-0.3-0.4-0.6-0.4h-3.2c-0.2,0-0.5,0.1-0.6,0.4l-0.8,1.6H13
			c-0.9,0-1.5,0.7-1.5,1.5V27c0,0.9,0.7,1.5,1.5,1.5H22c0.9,0,1.5-0.7,1.5-1.5V22C23.5,21.2,22.8,20.5,22,20.5z M17.5,27
			c-1.4,0-2.5-1.1-2.5-2.5c0-1.4,1.1-2.5,2.5-2.5c1.4,0,2.5,1.1,2.5,2.5C20,25.9,18.9,27,17.5,27z"/>
		<g id="斜線">
			<rect x="10.3" y="23.6" transform="matrix(0.7071 0.7071 -0.7071 0.7071 22.3017 -5.5482)" class="st12" width="15" height="1"/>
			<rect x="9.6" y="24.4" transform="matrix(0.7071 0.7071 -0.7071 0.7071 22.5946 -4.8411)" class="st11" width="15" height="1"/>
		</g>
	</g>
</g>


</svg>