<?xml version="1.0" encoding="UTF-8"?>
<svg xmlns="http://www.w3.org/2000/svg" viewBox="0 0 28 40">
  <defs>
    <style>
      .cls-1 {
        fill: #fff;
        opacity: .3;
      }

      .cls-2 {
        fill: #9e5b3b;
      }

      .cls-3 {
        fill: #333;
      }

      .cls-4 {
        fill: gray;
      }

      .cls-5 {
        fill: #c9956d;
      }

      .cls-6 {
        fill: #472511;
      }

      .cls-7 {
        fill: #ffce00;
      }

      .cls-8 {
        fill: #ccc;
      }
    </style>
  </defs>
  <g id="_ピン" data-name="ピン">
    <g>
      <g>
        <polygon class="cls-4" points="15 40 13 40 12 30 16 30 15 40"/>
        <rect class="cls-8" x="14" y="30" width="1" height="10"/>
      </g>
      <g>
        <rect class="cls-4" x="12" y="20" width="4" height="10"/>
        <rect class="cls-8" x="14" y="20" width="1" height="10"/>
      </g>
    </g>
  </g>
  <g id="_ノーマル" data-name="ノーマル">
    <g id="_顔" data-name="顔">
      <path id="_顔耳" data-name="顔耳" class="cls-2" d="M26.13,0s-2.5,2.77-3.59,5.2c-.29,.64-.57,1.52-.79,2.3-2.69-1.8-6.14-2.13-7.75-2.13s-5.06,.33-7.75,2.13c-.22-.78-.5-1.66-.79-2.3C4.37,2.77,1.87,0,1.87,0,1.87,0-.42,4.13,.07,5.93c.38,1.39,2.94,2.94,4.09,3.57-.74,1.03-1.29,2.29-1.47,3.88-.66,5.65,3.07,8.04,3.62,11.36,.6,3.56,.65,5.96,2.88,8.66,1.19,1.44,4.02,1.59,4.81,1.59s3.62-.16,4.81-1.59c2.23-2.7,2.29-5.1,2.88-8.66,.56-3.33,4.29-5.71,3.62-11.36-.19-1.59-.73-2.85-1.47-3.88,1.16-.64,3.72-2.18,4.09-3.57,.49-1.8-1.8-5.93-1.8-5.93Z"/>
      <path id="_たてがみ" data-name="たてがみ" class="cls-6" d="M11.7,2.95s-3.91,1.5-4.75,4.34c-.6,2.07,4.04,5.65,4.04,5.65l.11-2.62,5.29,3.8,1.44-3.71,2.77,2.42s1.41-2.03,1.17-4.11c-.24-2.08-1.47-3.21-2.74-3.79s-2.75-.69-2.75-.69c0,0,.6-.29,1.33-.37s2.2,.47,2.2,.47c0,0-1.37-1.39-4.89-1.02-.81,.08-3.62,1.09-3.62,1.09l.39-1.46Z"/>
      <g id="_鼻" data-name="鼻">
        <path id="_鼻-2" data-name="鼻" class="cls-5" d="M13.98,25.54c-2.24,.11-4.88,1.11-7.21,2.23,.36,2.05,.86,3.77,2.4,5.63,1.19,1.44,4.02,1.59,4.81,1.59s3.62-.16,4.81-1.59c1.59-1.92,2.07-3.69,2.43-5.83-2.34-1.17-4.99-2.14-7.24-2.03Z"/>
        <g>
          <ellipse class="cls-2" cx="11.55" cy="31.02" rx=".87" ry=".75"/>
          <ellipse class="cls-2" cx="16.45" cy="31.02" rx=".88" ry=".75"/>
        </g>
      </g>
    </g>
    <ellipse id="_目" data-name="目" class="cls-3" cx="9.8" cy="19.1" rx="1.31" ry="1.51"/>
    <ellipse id="_目-2" data-name="目" class="cls-3" cx="18.2" cy="19.1" rx="1.31" ry="1.51"/>
  </g>
  <g id="_要調査" data-name="要調査">
    <path id="_白ベール" data-name="白ベール" class="cls-1" d="M0,0H28V27.59c0,4.09-3.32,7.41-7.41,7.41H10.72c-5.92,0-10.72-4.8-10.72-10.72V0H0Z"/>
    <g>
      <rect class="cls-7" x="9.19" y="16.19" width="16.61" height="16.61" rx="3" ry="3" transform="translate(-12.2 19.55) rotate(-45)"/>
      <path d="M18.75,28.83c0,.7-.56,1.26-1.25,1.26s-1.25-.56-1.25-1.26,.56-1.25,1.25-1.25,1.25,.56,1.25,1.25Zm-.57-2.88c-.07,.46-.16,.78-.69,.78s-.61-.35-.66-.78l-.46-3.49v-2.5c0-.78,.42-1.05,1.16-1.05s1.11,.31,1.11,1.05v2.5l-.46,3.49Z"/>
    </g>
  </g>
</svg>