<?xml version="1.0" encoding="utf-8"?>
<!-- Generator: Adobe Illustrator 27.1.1, SVG Export Plug-In . SVG Version: 6.00 Build 0)  -->
<svg version="1.1" xmlns="http://www.w3.org/2000/svg" xmlns:xlink="http://www.w3.org/1999/xlink" x="0px" y="0px" viewBox="0 0 28 40" style="enable-background:new 0 0 28 40;" xml:space="preserve">
<style type="text/css">
	.st0{display:none;}
	.st1{fill:#808080;}
	.st2{fill:#CCCCCC;}
	.st3{fill:#9E5B3B;}
	.st4{fill:#472511;}
	.st5{fill:#C9956D;}
	.st6{fill:#333333;}
	.st7{fill:#1B1464;}
	.st8{fill:#FFFFFF;}
	.st9{fill:#2E3192;}
	.st10{opacity:0.3;fill:#FFFFFF;}
	.st11{fill:#FFCE00;}
	.st12{fill:#6C6C6C;}
	.st13{fill:#2D2D2D;}
	.st14{fill:#A0A0A0;}
	.st15{fill:#FF0000;}
	.st16{fill:#F2F2F2;}
</style>
<g id="ガイド_00000162338702563158607440000009963323815856875396_" class="st0">
</g>
<g id="ピン">
	<g>
		<g>
			<polygon class="st1" points="15,40 13,40 12,30 16,30 			"/>
			<rect x="14" y="30" class="st2" width="1" height="10"/>
		</g>
		<g>
			<rect x="12" y="20" class="st1" width="4" height="10"/>
			<rect x="14" y="20" class="st2" width="1" height="10"/>
		</g>
	</g>
</g>
<g id="ノーマル">
	<g id="顔_00000137832255687553486690000000462489442842902661_">
		<path id="顔耳_00000009574867689786706860000001527146993239598218_" class="st3" d="M26.1,0c0,0-2.5,2.8-3.6,5.2
			c-0.3,0.6-0.6,1.5-0.8,2.3c-2.7-1.8-6.1-2.1-7.7-2.1S8.9,5.7,6.3,7.5C6,6.7,5.8,5.8,5.5,5.2C4.4,2.8,1.9,0,1.9,0s-2.3,4.1-1.8,5.9
			C0.4,7.3,3,8.9,4.2,9.5c-0.7,1-1.3,2.3-1.5,3.9C2,19,5.8,21.4,6.3,24.7c0.6,3.6,0.7,6,2.9,8.7c1.2,1.4,4,1.6,4.8,1.6
			s3.6-0.2,4.8-1.6c2.2-2.7,2.3-5.1,2.9-8.7c0.6-3.3,4.3-5.7,3.6-11.4c-0.2-1.6-0.7-2.9-1.5-3.9c1.2-0.6,3.7-2.2,4.1-3.6
			C28.4,4.1,26.1,0,26.1,0z"/>
		<path id="たてがみ_00000070106249150304397790000004969250974794013340_" class="st4" d="M11.7,3c0,0-3.9,1.5-4.7,4.3
			c-0.6,2.1,4,5.6,4,5.6l0.1-2.6l5.3,3.8l1.4-3.7l2.8,2.4c0,0,1.4-2,1.2-4.1c-0.2-2.1-1.5-3.2-2.7-3.8s-2.8-0.7-2.8-0.7
			s0.6-0.3,1.3-0.4c0.7-0.1,2.2,0.5,2.2,0.5s-1.4-1.4-4.9-1c-0.8,0.1-3.6,1.1-3.6,1.1L11.7,3z"/>
		<g id="鼻_00000098211600962793673470000015980822750886033284_">
			<path id="鼻_00000132045960971268493870000012232256320953335176_" class="st5" d="M14,25.5c-2.2,0.1-4.9,1.1-7.2,2.2
				c0.4,2,0.9,3.8,2.4,5.6c1.2,1.4,4,1.6,4.8,1.6c0.8,0,3.6-0.2,4.8-1.6c1.6-1.9,2.1-3.7,2.4-5.8C18.9,26.4,16.2,25.4,14,25.5z"/>
			<g>
				<ellipse class="st3" cx="11.6" cy="31" rx="0.9" ry="0.8"/>
				<ellipse class="st3" cx="16.5" cy="31" rx="0.9" ry="0.8"/>
			</g>
		</g>
	</g>
	<ellipse id="目_00000113336467354431484150000013094967090532796331_" class="st6" cx="9.8" cy="19.1" rx="1.3" ry="1.5"/>
	<ellipse id="目_00000158749576560780331740000008041502951593618608_" class="st6" cx="18.2" cy="19.1" rx="1.3" ry="1.5"/>
</g>



</svg>