<?xml version="1.0" encoding="UTF-8"?>
<svg xmlns="http://www.w3.org/2000/svg" viewBox="0 0 28 40">
  <defs>
    <style>
      .cls-1 {
        fill: #009245;
      }

      .cls-2, .cls-3 {
        fill: #fff;
      }

      .cls-4 {
        fill: #b08030;
      }

      .cls-3 {
        opacity: .3;
      }

      .cls-5 {
        fill: #cc974a;
      }

      .cls-6 {
        fill: #604406;
      }

      .cls-7 {
        fill: #f49dcf;
      }

      .cls-8 {
        fill: gray;
      }

      .cls-9 {
        fill: #ffce00;
      }

      .cls-10 {
        fill: #ccc;
      }

      .cls-11 {
        fill: #06def4;
      }

      .cls-12 {
        fill: #f2407b;
      }
    </style>
  </defs>
  <g id="_ピン" data-name="ピン">
    <g id="_ピン-2" data-name="ピン">
      <rect class="cls-8" x="12" y="20" width="4" height="10"/>
      <polygon class="cls-8" points="15 40 13 40 12 30 16 30 15 40"/>
      <rect class="cls-10" x="14" y="20" width="1" height="20"/>
    </g>
  </g>
  <g id="_ノーマル" data-name="ノーマル">
    <path id="_胴" data-name="胴" class="cls-5" d="M22.78,26.11c0-4.71-3.94-8.53-8.8-8.53s-8.8,3.82-8.8,8.53c0,.01,0,.03,0,.04h0v8.84H22.78v-8.84s0,0,0,0c0-.01,0-.03,0-.04Z"/>
    <path id="_右耳" data-name="右耳" class="cls-5" d="M9.26,10.97c-.23-.69-1.06-1.11-1.59-.34-.35,.52,.11,1.37,.13,1.55s-.38,1.55,.21,2.06c.52,.44,1.17,0,1.17,0,0,0,.27-1.51,.25-2.16s-.18-1.1-.18-1.1Z"/>
    <path id="_左耳" data-name="左耳" class="cls-5" d="M18.69,10.97c.23-.69,1.06-1.11,1.59-.34,.35,.52-.11,1.37-.13,1.55s.38,1.55-.21,2.06c-.52,.44-1.17,0-1.17,0,0,0-.27-1.51-.25-2.16s.18-1.1,.18-1.1Z"/>
    <ellipse id="_顔" data-name="顔" class="cls-5" cx="14.06" cy="11.98" rx="5.21" ry="5.6"/>
    <path id="_髪" data-name="髪" class="cls-6" d="M9.17,11.39s.24-2.43,1.07-2.9c1.04-.59,2.67-.16,3.82-.14s2.76-.51,3.48-.15,1.72,3.2,1.72,3.2v-3.27s-.39-.74-.91-.91-.79-1.51-.79-1.51c0,0-.15-1.55-1.03-2.14s-1.11-.52-2.48-.52-1.81-.07-2.62,.66-.89,1.92-.89,1.92c0,0-.69,1.08-1.21,1.93s-.18,3.83-.18,3.83Z"/>
    <g id="_手" data-name="手">
      <path class="cls-2" d="M23.63,32.14c.54,0,1.57-.19,2.34-1.48,.75-1.27,2.46-5.86,1.78-7.26-.18-.42-.45-.68-.81-.78-.21-.55-.54-.87-1-.96l-.1-.02h-.15s-.07,0-.1,0c-.24-.21-.51-.32-.82-.32-.47,0-1.08,.21-1.28,1.23-.05,.24-.06,.76-.05,1.32-1.01,.11-1.48,1.11-1.98,2.17l-.47,1.03c-.67,1.68-.58,2.99,.28,3.94,.66,.73,1.52,1.16,2.35,1.16Z"/>
      <path class="cls-5" d="M22.91,27.95c-.05,.21-.1,.43-.13,.66,.75-.7,1.16-1.8,1.03-2.82-.24,.4-.43,.8-.59,1.2l-.9-.39c.47-1,.81-1.76,1.37-1.7,.64,.07,.78,0,.78,0,0,0-.07-1.77,0-2.12,.05-.26,.1-.42,.3-.42,.31,0,.57,.89,.57,.89,0,0,.1-.62,.38-.56,.37,.08,.47,1.36,.47,1.36,0,0,.2-.47,.47-.41,.11,.03,.16,.21,.19,.25,.37,.6-.76,4.65-1.74,6.31-.92,1.55-2.31,1.04-3.09,.17-.73-.81-.46-1.97-.11-2.85l1.01,.43Z"/>
    </g>
    <g id="_手-2" data-name="手">
      <path class="cls-2" d="M5.17,25.67c.47,.28,1.25,.97,1.25,2.47,0,1.47-.89,6.29-2.19,7.15-.37,.27-.74,.35-1.1,.25-.46,.36-.91,.47-1.35,.32l-.1-.03-.13-.07s-.06-.04-.08-.05c-.32,.06-.61,.01-.87-.14-.4-.24-.81-.73-.47-1.71,.08-.23,.34-.68,.63-1.16-.81-.61-.71-1.71-.59-2.88l.13-1.12c.28-1.79,1.04-2.86,2.26-3.24,.94-.29,1.9-.21,2.61,.21Z"/>
      <path class="cls-5" d="M2.41,28.89c.07-.21,.14-.42,.23-.63,.29,.99,.08,2.14-.56,2.95,0-.47,.04-.91,.11-1.34l-.97-.13c-.11,1.1-.21,1.93,.31,2.16,.58,.27,.67,.4,.67,.4,0,0-.97,1.48-1.09,1.82-.09,.25-.13,.41,.04,.52,.26,.16,.95-.47,.95-.47,0,0-.24,.58,.04,.68,.36,.12,1.1-.93,1.1-.93,0,0-.07,.51,.19,.59,.11,.04,.24-.1,.29-.12,.63-.32,1.73-4.39,1.74-6.31,0-1.8-1.45-2.07-2.57-1.73-1.04,.32-1.41,1.45-1.56,2.39l1.09,.14Z"/>
    </g>
    <g id="_宝冠" data-name="宝冠">
      <path id="_宝冠上" data-name="宝冠上" class="cls-4" d="M20.42,2.71s-2.39,.17-3.36,1.29c-.05,.06-.09,.13-.14,.2,0-.57-.09-1.45-.5-2.19-.67-1.21-2.29-2.01-2.29-2.01,0,0-1.79,.7-2.55,2.11-.29,.53-.31,1.45-.3,2.08-.04-.06-.08-.13-.13-.19-.97-1.12-3.36-1.29-3.36-1.29,0,0,.99,1.75,1.13,2.72,.16,1.11,.09,1.88,.09,1.88l2.56-.29,.03,.28,4.96-.03,.03-.25,2.6,.29s-.08-.77,.09-1.88c.14-.96,1.13-2.72,1.13-2.72Z"/>
      <path id="_宝冠下" data-name="宝冠下" class="cls-4" d="M9.04,8.17s2.66-.31,4.59-.33,5.64,.27,5.64,.27l.11-1.86s-3.78-.31-5.38-.26-5.1,.31-5.1,.31l.14,1.87Z"/>
      <g id="_宝石" data-name="宝石">
        <circle class="cls-11" cx="14.09" cy="6.91" r=".64"/>
        <circle class="cls-7" cx="12.19" cy="6.96" r=".64"/>
        <circle class="cls-11" cx="10.23" cy="7.11" r=".64"/>
        <circle class="cls-7" cx="16.12" cy="6.96" r=".64"/>
        <circle class="cls-11" cx="18" cy="7.11" r=".64"/>
      </g>
      <rect id="_宝石-2" data-name="宝石" class="cls-11" x="12.91" y="2.4" width="2.29" height="2.29" transform="translate(1.61 10.98) rotate(-45)"/>
    </g>
    <g id="_蓮" data-name="蓮">
      <path id="_茎" data-name="茎" class="cls-1" d="M23.07,27.64s-.02,0-.04,0c-.28-.02-.48-.26-.46-.53,.03-.44,.05-.87,.07-1.31,.06-1.59,.13-3.23,.82-5.16,.09-.26,.38-.39,.64-.3,.26,.09,.39,.38,.3,.64-.64,1.78-.7,3.34-.76,4.86-.02,.45-.04,.89-.07,1.34-.02,.26-.24,.46-.5,.46Z"/>
      <path id="_蓮-2" data-name="蓮" class="cls-12" d="M25.75,14.25s1.51,2.15,1.02,4.99c-.16,.91-1.31,1.85-2.36,1.68s-2.13-.5-1.68-3c.38-2.11,3-3.66,3.02-3.66Z"/>
    </g>
    <g id="_眉目やさしい" data-name="眉目やさしい">
      <g id="_眉" data-name="眉">
        <path id="_眉-2" data-name="眉" class="cls-6" d="M13.48,10.46c-.96-1.22-2.7-1.12-3.7,0,.69-1.43,3.04-1.53,3.7,0h0Z"/>
        <path id="_眉-3" data-name="眉" class="cls-6" d="M14.52,10.46c.66-1.53,3-1.43,3.7,0-1-1.12-2.73-1.22-3.7,0h0Z"/>
      </g>
      <g id="_目" data-name="目">
        <path class="cls-6" d="M10.15,11.51s.44-1.25,1.32-1.19,1.68,1.19,1.68,1.19c0,0-.8,.8-1.5,.8s-1.5-.8-1.5-.8Z"/>
        <path class="cls-6" d="M17.85,11.51s-.44-1.25-1.32-1.19-1.68,1.19-1.68,1.19c0,0,.8,.8,1.5,.8s1.5-.8,1.5-.8Z"/>
      </g>
    </g>
  </g>
  <g id="_要調査" data-name="要調査">
    <path id="_白ベール" data-name="白ベール" class="cls-3" d="M12.73,0h2.2c7.21,0,13.07,5.85,13.07,13.07V30.13c0,2.69-2.18,4.87-4.87,4.87H0V12.73C0,5.7,5.7,0,12.73,0Z"/>
    <g>
      <rect class="cls-9" x="9.19" y="16.09" width="16.61" height="16.61" rx="3" ry="3" transform="translate(-12.12 19.52) rotate(-45)"/>
      <path d="M18.75,28.72c0,.7-.56,1.26-1.25,1.26s-1.25-.56-1.25-1.26,.56-1.25,1.25-1.25,1.25,.56,1.25,1.25Zm-.57-2.88c-.07,.46-.16,.78-.69,.78s-.61-.35-.66-.78l-.46-3.49v-2.5c0-.78,.42-1.05,1.16-1.05s1.11,.31,1.11,1.05v2.5l-.46,3.49Z"/>
    </g>
  </g>
</svg>