<?xml version="1.0" encoding="utf-8"?>
<!-- Generator: Adobe Illustrator 27.1.1, SVG Export Plug-In . SVG Version: 6.00 Build 0)  -->
<svg version="1.1" xmlns="http://www.w3.org/2000/svg" xmlns:xlink="http://www.w3.org/1999/xlink" x="0px" y="0px" viewBox="0 0 28 40" style="enable-background:new 0 0 28 40;" xml:space="preserve">
<style type="text/css">
	.st0{display:none;}
	.st1{fill:#808080;}
	.st2{fill:#CCCCCC;}
	.st3{fill:#CC974A;}
	.st4{fill:#604406;}
	.st5{fill:#FFFFFF;}
	.st6{fill:#B08030;}
	.st7{fill:#06DEF4;}
	.st8{fill:#F49DCF;}
	.st9{fill:#009245;}
	.st10{fill:#F2407B;}
	.st11{fill:#1B1464;}
	.st12{fill:#2E3192;}
	.st13{opacity:0.3;fill:#FFFFFF;}
	.st14{fill:#FFCE00;}
	.st15{fill:#9E9E9E;}
	.st16{fill:#464646;}
	.st17{fill:#868686;}
	.st18{fill:#A0A0A0;}
	.st19{fill:#BDBDBD;}
	.st20{fill:#5E5E5E;}
	.st21{fill:#7C7C7C;}
	.st22{fill:#FF0000;}
	.st23{fill:#F2F2F2;}
</style>
<g id="ガイド_00000045591302362160722190000018018493940298725527_" class="st0">
</g>
<g id="ピン_00000000927453457432803150000008469140276230901636_">
	<g id="ピン">
		<rect x="12" y="20" class="st1" width="4" height="10"/>
		<polygon class="st1" points="15,40 13,40 12,30 16,30 		"/>
		<rect x="14" y="20" class="st2" width="1" height="20"/>
	</g>
</g>
<g id="ノーマル">
	<path id="胴_00000106126689990679698960000017638745134668276359_" class="st3" d="M22.8,26.1c0-4.7-3.9-8.5-8.8-8.5
		s-8.8,3.8-8.8,8.5c0,0,0,0,0,0h0V35h17.6L22.8,26.1L22.8,26.1C22.8,26.1,22.8,26.1,22.8,26.1z"/>
	<path id="右耳" class="st3" d="M9.3,11C9,10.3,8.2,9.9,7.7,10.6c-0.3,0.5,0.1,1.4,0.1,1.5S7.4,13.7,8,14.2c0.5,0.4,1.2,0,1.2,0
		s0.3-1.5,0.3-2.2S9.3,11,9.3,11z"/>
	<path id="左耳" class="st3" d="M18.7,11c0.2-0.7,1.1-1.1,1.6-0.3c0.3,0.5-0.1,1.4-0.1,1.5s0.4,1.6-0.2,2.1c-0.5,0.4-1.2,0-1.2,0
		s-0.3-1.5-0.3-2.2S18.7,11,18.7,11z"/>
	<ellipse id="顔_00000158729306056619698010000004512639797464009357_" class="st3" cx="14.1" cy="12" rx="5.2" ry="5.6"/>
	<path id="髪" class="st4" d="M9.2,11.4c0,0,0.2-2.4,1.1-2.9c1-0.6,2.7-0.2,3.8-0.1c1.1,0,2.8-0.5,3.5-0.2c0.7,0.4,1.7,3.2,1.7,3.2
		V8.1c0,0-0.4-0.7-0.9-0.9c-0.5-0.2-0.8-1.5-0.8-1.5s-0.1-1.6-1-2.1C15.7,3,15.4,3,14.1,3S12.3,3,11.4,3.7s-0.9,1.9-0.9,1.9
		S9.9,6.7,9.3,7.6S9.2,11.4,9.2,11.4z"/>
	<g id="手_00000020382353133693104890000006363005689709836957_">
		<g>
			<path class="st5" d="M23.6,32.1c0.5,0,1.6-0.2,2.3-1.5c0.8-1.3,2.5-5.9,1.8-7.3c-0.2-0.4-0.5-0.7-0.8-0.8c-0.2-0.5-0.5-0.9-1-1
				l-0.1,0l-0.1,0c0,0-0.1,0-0.1,0c-0.2-0.2-0.5-0.3-0.8-0.3c-0.5,0-1.1,0.2-1.3,1.2c0,0.2-0.1,0.8,0,1.3c-1,0.1-1.5,1.1-2,2.2
				L21,27c-0.7,1.7-0.6,3,0.3,3.9C21.9,31.7,22.8,32.1,23.6,32.1z"/>
		</g>
		<path class="st3" d="M22.9,27.9c-0.1,0.2-0.1,0.4-0.1,0.7c0.8-0.7,1.2-1.8,1-2.8c-0.2,0.4-0.4,0.8-0.6,1.2l-0.9-0.4
			c0.5-1,0.8-1.8,1.4-1.7c0.6,0.1,0.8,0,0.8,0s-0.1-1.8,0-2.1c0.1-0.3,0.1-0.4,0.3-0.4c0.3,0,0.6,0.9,0.6,0.9s0.1-0.6,0.4-0.6
			c0.4,0.1,0.5,1.4,0.5,1.4s0.2-0.5,0.5-0.4c0.1,0,0.2,0.2,0.2,0.3c0.4,0.6-0.8,4.7-1.7,6.3c-0.9,1.5-2.3,1-3.1,0.2
			c-0.7-0.8-0.5-2-0.1-2.9L22.9,27.9z"/>
	</g>
	<g id="手_00000163061626841249121840000017165061260055506358_">
		<g>
			<path class="st5" d="M5.2,25.7c0.5,0.3,1.3,1,1.2,2.5c0,1.5-0.9,6.3-2.2,7.1c-0.4,0.3-0.7,0.4-1.1,0.3c-0.5,0.4-0.9,0.5-1.3,0.3
				l-0.1,0l-0.1-0.1c0,0-0.1,0-0.1-0.1c-0.3,0.1-0.6,0-0.9-0.1c-0.4-0.2-0.8-0.7-0.5-1.7c0.1-0.2,0.3-0.7,0.6-1.2
				C0,32.1,0.1,31,0.2,29.8l0.1-1.1c0.3-1.8,1-2.9,2.3-3.2C3.5,25.2,4.5,25.2,5.2,25.7z"/>
		</g>
		<path class="st3" d="M2.4,28.9c0.1-0.2,0.1-0.4,0.2-0.6c0.3,1,0.1,2.1-0.6,2.9c0-0.5,0-0.9,0.1-1.3l-1-0.1
			c-0.1,1.1-0.2,1.9,0.3,2.2c0.6,0.3,0.7,0.4,0.7,0.4s-1,1.5-1.1,1.8c-0.1,0.3-0.1,0.4,0,0.5c0.3,0.2,0.9-0.5,0.9-0.5
			s-0.2,0.6,0,0.7c0.4,0.1,1.1-0.9,1.1-0.9s-0.1,0.5,0.2,0.6c0.1,0,0.2-0.1,0.3-0.1c0.6-0.3,1.7-4.4,1.7-6.3c0-1.8-1.4-2.1-2.6-1.7
			c-1,0.3-1.4,1.5-1.6,2.4L2.4,28.9z"/>
	</g>
	<g id="宝冠">
		<path id="宝冠上" class="st6" d="M20.4,2.7c0,0-2.4,0.2-3.4,1.3C17,4.1,17,4.1,16.9,4.2c0-0.6-0.1-1.5-0.5-2.2
			c-0.7-1.2-2.3-2-2.3-2s-1.8,0.7-2.6,2.1c-0.3,0.5-0.3,1.5-0.3,2.1c0-0.1-0.1-0.1-0.1-0.2c-1-1.1-3.4-1.3-3.4-1.3s1,1.8,1.1,2.7
			C9.1,6.5,9,7.3,9,7.3L11.6,7l0,0.3l5,0l0-0.2l2.6,0.3c0,0-0.1-0.8,0.1-1.9C19.4,4.5,20.4,2.7,20.4,2.7z"/>
		<path id="宝冠下" class="st6" d="M9,8.2c0,0,2.7-0.3,4.6-0.3c1.9,0,5.6,0.3,5.6,0.3l0.1-1.9c0,0-3.8-0.3-5.4-0.3
			C12.4,6,8.9,6.3,8.9,6.3L9,8.2z"/>
		<g id="宝石_00000178168996995681553840000017948064960923401360_">
			<circle class="st7" cx="14.1" cy="6.9" r="0.6"/>
			<circle class="st8" cx="12.2" cy="7" r="0.6"/>
			<circle class="st7" cx="10.2" cy="7.1" r="0.6"/>
			<circle class="st8" cx="16.1" cy="7" r="0.6"/>
			<circle class="st7" cx="18" cy="7.1" r="0.6"/>
		</g>
		
			<rect id="宝石" x="12.9" y="2.4" transform="matrix(0.7071 -0.7071 0.7071 0.7071 1.613 10.9799)" class="st7" width="2.3" height="2.3"/>
	</g>
	<g id="蓮_00000163069888374785465370000012052973090228189360_">
		<path id="茎" class="st9" d="M23.1,27.6C23.1,27.6,23,27.6,23.1,27.6c-0.3,0-0.5-0.3-0.5-0.5c0-0.4,0-0.9,0.1-1.3
			c0.1-1.6,0.1-3.2,0.8-5.2c0.1-0.3,0.4-0.4,0.6-0.3c0.3,0.1,0.4,0.4,0.3,0.6c-0.6,1.8-0.7,3.3-0.8,4.9c0,0.4,0,0.9-0.1,1.3
			C23.5,27.4,23.3,27.6,23.1,27.6z"/>
		<path id="蓮" class="st10" d="M25.7,14.2c0,0,1.5,2.1,1,5c-0.2,0.9-1.3,1.8-2.4,1.7c-1.1-0.2-2.1-0.5-1.7-3
			C23.1,15.8,25.7,14.2,25.7,14.2z"/>
	</g>
	<g id="眉目やさしい">
		<g id="眉_00000059278337859623208290000009714789687849173923_">
			<path id="眉_00000136411035978530401480000015852186490993348003_" class="st4" d="M13.5,10.5c-1-1.2-2.7-1.1-3.7,0
				C10.5,9,12.8,8.9,13.5,10.5L13.5,10.5z"/>
			<path id="眉_00000123423311807163890540000007598090301004616122_" class="st4" d="M14.5,10.5c0.7-1.5,3-1.4,3.7,0
				C17.2,9.3,15.5,9.2,14.5,10.5L14.5,10.5z"/>
		</g>
		<g id="目">
			<path class="st4" d="M10.1,11.5c0,0,0.4-1.2,1.3-1.2c0.9,0.1,1.7,1.2,1.7,1.2s-0.8,0.8-1.5,0.8S10.1,11.5,10.1,11.5z"/>
			<path class="st4" d="M17.9,11.5c0,0-0.4-1.2-1.3-1.2c-0.9,0.1-1.7,1.2-1.7,1.2s0.8,0.8,1.5,0.8C17.1,12.3,17.9,11.5,17.9,11.5z"/>
		</g>
	</g>
</g>



</svg>