<?xml version="1.0" encoding="utf-8"?>
<!-- Generator: Adobe Illustrator 27.1.1, SVG Export Plug-In . SVG Version: 6.00 Build 0)  -->
<svg version="1.1" xmlns="http://www.w3.org/2000/svg" xmlns:xlink="http://www.w3.org/1999/xlink" x="0px" y="0px" viewBox="0 0 28 40" style="enable-background:new 0 0 28 40;" xml:space="preserve">
<style type="text/css">
	.st0{display:none;}
	.st1{fill:#808080;}
	.st2{fill:#CCCCCC;}
	.st3{display:inline;fill:#808080;}
	.st4{display:inline;fill:#CCCCCC;}
	.st5{fill:#39B54A;}
	.st6{fill:#A96E2D;}
	.st7{fill:#4D4D4D;}
	.st8{fill:#B3B3B3;}
	.st9{fill:#1B1464;}
	.st10{fill:#FFFFFF;}
	.st11{fill:#2E3192;}
	.st12{opacity:0.3;fill:#FFFFFF;}
	.st13{fill:#FFCE00;}
	.st14{fill:#848484;}
	.st15{fill:#797979;}
	.st16{fill:#FF0000;}
	.st17{fill:#F2F2F2;}
</style>
<g id="ガイド_00000162338702563158607440000009963323815856875396_" class="st0">
</g>
<g id="ピン">
	<g>
		<g>
			<polygon class="st1" points="15,40 13,40 12,30 16,30 			"/>
			<rect x="14" y="30" class="st2" width="1" height="10"/>
		</g>
		<g class="st0">
			<rect x="12" y="20" class="st3" width="4" height="10"/>
			<rect x="14" y="20" class="st4" width="1" height="10"/>
		</g>
	</g>
</g>
<g id="ノーマル">
	<g id="地面_00000085960540020044898610000002193894466238366089_">
		<path id="草_00000050658507514173148250000014360179358624052912_" class="st5" d="M2.4,29c-0.4-1.3-0.5-2.2-1.3-3.5
			C2.8,25.4,3.5,27.9,2.4,29L2.4,29z"/>
		<path id="草_00000179627912085844586860000016558588140227868062_" class="st5" d="M26.6,29c-1.1-1.1-0.4-3.6,1.3-3.5
			C27.1,26.8,27,27.7,26.6,29L26.6,29z"/>
		<path id="草_00000151529837931384215080000007510860043949423779_" class="st5" d="M25.8,29.5c-1.2-2.3-0.6-6.1,2.1-7
			C26.2,24.6,26.2,27,25.8,29.5L25.8,29.5z"/>
		<rect id="地面" y="28" class="st6" width="28" height="2"/>
	</g>
	<path id="竿" class="st1" d="M16.4,11.8h-5.1c-1.3,0-2.3,1-2.3,2.3V28h10V14.4C19,13,17.8,11.8,16.4,11.8z"/>
	<path class="st7" d="M17,27h-6V16.4c0-1.3,1-2.3,2.3-2.3h1.3c1.3,0,2.4,1.1,2.4,2.4V27z"/>
	<path class="st8" d="M16,26.3h-4v-6.1c0-0.9,0.7-1.6,1.6-1.6h0.8c0.9,0,1.6,0.7,1.6,1.6V26.3z"/>
	<circle class="st8" cx="14" cy="16.7" r="2"/>
	<path class="st1" d="M16,12H12c-1.7,0-3-1.4-3-3V6c0-1.7,1.4-3,3-3H16c1.7,0,3,1.4,3,3v2.9C19,10.6,17.6,12,16,12z"/>
	<path id="笠" class="st1" d="M17.5,0.6C15.5,0.2,14,0,14,0s-1.5,0.2-3.5,0.6C8,1.2,7,2,7,2v1h7h7V2C21,2,20,1.2,17.5,0.6z"/>
</g>


<g id="消失">
	<g>
		<g id="地面_00000181768751921491717330000011170143475467377836_">
			<path id="草_00000161601658661111646240000002770655269849475456_" class="st14" d="M2.4,29c-0.4-1.3-0.5-2.2-1.3-3.5
				C2.8,25.4,3.5,27.9,2.4,29L2.4,29z"/>
			<path id="草_00000055699073060817286530000006212681662002247359_" class="st14" d="M26.6,29c-1.1-1.1-0.4-3.6,1.3-3.5
				C27.1,26.8,27,27.7,26.6,29L26.6,29z"/>
			<path id="草_00000023964969388605310970000014400714617525806981_" class="st14" d="M25.8,29.5c-1.2-2.3-0.6-6.1,2.1-7
				C26.2,24.6,26.2,27,25.8,29.5L25.8,29.5z"/>
			<rect id="地面_00000091711883616025033170000004093210686644403375_" y="28" class="st15" width="28" height="2"/>
		</g>
		<path id="竿_00000101061793987349190210000006293454775344322945_" class="st1" d="M16.4,11.8h-5.1c-1.3,0-2.3,1-2.3,2.3V28h10
			V14.4C19,13,17.8,11.8,16.4,11.8z"/>
		<path class="st7" d="M17,27h-6V16.4c0-1.3,1-2.3,2.3-2.3h1.3c1.3,0,2.4,1.1,2.4,2.4V27z"/>
		<path class="st8" d="M16,26.3h-4v-6.1c0-0.9,0.7-1.6,1.6-1.6h0.8c0.9,0,1.6,0.7,1.6,1.6V26.3z"/>
		<circle class="st8" cx="14" cy="16.7" r="2"/>
		<path class="st1" d="M16,12H12c-1.7,0-3-1.4-3-3V6c0-1.7,1.4-3,3-3H16c1.7,0,3,1.4,3,3v2.9C19,10.6,17.6,12,16,12z"/>
		<path id="笠_00000170993513965721969260000000115478315336617603_" class="st1" d="M17.5,0.6C15.5,0.2,14,0,14,0
			s-1.5,0.2-3.5,0.6C8,1.2,7,2,7,2v1h7h7V2C21,2,20,1.2,17.5,0.6z"/>
	</g>
	<g>
		<path class="st16" d="M27.1,21.6l-7.5,7.5c-1.2,1.2-3.1,1.2-4.2,0l-7.5-7.5c-1.2-1.2-1.2-3.1,0-4.2l7.5-7.5c1.2-1.2,3.1-1.2,4.2,0
			l7.5,7.5C28.3,18.6,28.3,20.4,27.1,21.6z"/>
		<g>
			<path class="st17" d="M12.7,24.4l-0.2-0.2c-0.5-0.5-0.5-1.3,0-1.8l7.9-7.9c0.5-0.5,1.3-0.5,1.8,0l0.2,0.2c0.5,0.5,0.5,1.3,0,1.8
				l-7.9,7.9C14,24.9,13.2,24.9,12.7,24.4z"/>
			<path class="st17" d="M20.5,24.4l-7.9-7.9c-0.5-0.5-0.5-1.3,0-1.8l0.2-0.2c0.5-0.5,1.3-0.5,1.8,0l7.9,7.9c0.5,0.5,0.5,1.3,0,1.8
				l-0.2,0.2C21.8,24.9,21,24.9,20.5,24.4z"/>
		</g>
	</g>
</g>
</svg>