<?xml version="1.0" encoding="utf-8"?>
<!-- Generator: Adobe Illustrator 27.1.1, SVG Export Plug-In . SVG Version: 6.00 Build 0)  -->
<svg version="1.1" xmlns="http://www.w3.org/2000/svg" xmlns:xlink="http://www.w3.org/1999/xlink" x="0px" y="0px" viewBox="0 0 28 40" style="enable-background:new 0 0 28 40;" xml:space="preserve">
<style type="text/css">
	.st0{display:none;}
	.st1{fill:#808080;}
	.st2{fill:#CCCCCC;}
	.st3{display:inline;fill:#808080;}
	.st4{display:inline;fill:#CCCCCC;}
	.st5{fill:#666666;}
	.st6{fill:#969660;}
	.st7{fill:#3E3E1C;}
	.st8{fill:#39B54A;}
	.st9{fill:#A96E2D;}
	.st10{fill:#1B1464;}
	.st11{fill:#FFFFFF;}
	.st12{fill:#2E3192;}
	.st13{opacity:0.3;fill:#FFFFFF;}
	.st14{fill:#FFCE00;}
	.st15{fill:#909090;}
	.st16{fill:#3A3A3A;}
	.st17{fill:#848484;}
	.st18{fill:#797979;}
	.st19{fill:#FF0000;}
	.st20{fill:#F2F2F2;}
</style>
<g id="ガイド_00000162338702563158607440000009963323815856875396_" class="st0">
</g>
<g id="ピン">
	<g>
		<g>
			<polygon class="st1" points="15,40 13,40 12,30 16,30 			"/>
			<rect x="14" y="30" class="st2" width="1" height="10"/>
		</g>
		<g class="st0">
			<rect x="12" y="20" class="st3" width="4" height="10"/>
			<rect x="14" y="20" class="st4" width="1" height="10"/>
		</g>
	</g>
</g>
<g id="ノーマル">
	<rect id="土台" x="4" y="25" class="st5" width="20" height="3"/>
	<path id="本体" class="st6" d="M19,5L19,5c0-2.8-2.2-5-5-5S9,2.2,9,5h0L8,25h12L19,5z"/>
	<g id="碑">
		<path class="st7" d="M10.5,9.7c-0.1,0-0.2-0.1-0.2-0.2c0-0.1,0.1-0.3,0.2-0.3l2.3-0.1c0.1,0,0.3,0.1,0.3,0.2s-0.1,0.3-0.2,0.3
			L10.5,9.7C10.5,9.7,10.5,9.7,10.5,9.7z"/>
		<path class="st7" d="M10.6,17C10.6,17,10.6,17,10.6,17c-0.1,0-0.3-0.1-0.2-0.3c0,0,0.1-2.6,0.1-3.4c0-0.8,0-3.7,0-3.7l0.5,0
			c0,0,0,2.8,0,3.7c0,0.8-0.1,3.3-0.1,3.4C10.8,16.9,10.7,17,10.6,17z"/>
		<path class="st7" d="M12.4,13.9c-0.4,0-1.1-0.2-1.1-1c0-0.6,0-1.1,0.3-1.4c0.3-0.3,0.6-0.3,0.9-0.3h0c0,0,0,0,0,0
			c0.6,0,0.8,0.7,0.8,1.1c0,0.6,0,1-0.2,1.2C12.9,13.9,12.5,13.9,12.4,13.9z M12.5,11.8c-0.2,0-0.4,0-0.6,0.2
			c-0.2,0.1-0.2,0.5-0.2,1c0,0.5,0.6,0.5,0.6,0.5c0.1,0,0.3,0,0.4-0.1c0.1-0.1,0.1-0.7,0-0.8C12.8,12.1,12.6,11.8,12.5,11.8
			C12.5,11.8,12.5,11.8,12.5,11.8L12.5,11.8z"/>
		<path class="st7" d="M14.4,11.9C14.4,11.9,14.4,11.9,14.4,11.9c-0.4-0.1-0.8-0.2-0.9-0.5c-0.2-0.4-0.2-1.5,0-1.8
			c0.4-0.5,1-0.5,1.6-0.5c0.5,0,1.4,0,1.8,0.5c0.3,0.3,0.3,0.9,0.3,1.2c-0.1,0.5-0.4,0.7-0.5,0.8c-0.2,0.1-0.7,0.3-0.8,0.3
			c-0.1,0-0.3-0.1-0.3-0.2c0-0.1,0.1-0.3,0.2-0.3c0.2-0.1,0.5-0.2,0.6-0.2c0.1-0.1,0.2-0.2,0.3-0.5c0-0.2,0-0.6-0.2-0.8
			c-0.3-0.3-1-0.3-1.4-0.3c-0.5,0-1,0-1.3,0.4c-0.1,0.1-0.1,1,0,1.3c0,0,0.3,0.1,0.5,0.2c0.1,0,0.2,0.2,0.2,0.3
			C14.6,11.8,14.5,11.9,14.4,11.9z"/>
		<path class="st7" d="M14.4,10.9c-0.1,0-0.2-0.1-0.2-0.2c0-0.1,0.1-0.3,0.2-0.3l1.7-0.1c0.1,0,0.3,0.1,0.3,0.2s-0.1,0.3-0.2,0.3
			L14.4,10.9C14.4,10.9,14.4,10.9,14.4,10.9z"/>
		<path class="st7" d="M15.2,9.5c-0.1,0-0.2-0.1-0.2-0.2v-1C14.9,8.1,15,8,15.2,8s0.2,0.1,0.2,0.2v1C15.4,9.4,15.3,9.5,15.2,9.5z"/>
		<path class="st7" d="M14.1,18.2c-0.1,0-0.2-0.1-0.2-0.2v-4.4c0-0.3,0.1-0.5,0.3-0.7l0.7-0.6c0.1-0.1,0.2-0.3,0.2-0.5v-1
			c0-0.1,0.1-0.2,0.2-0.2s0.2,0.1,0.2,0.2v1c0,0.3-0.1,0.6-0.4,0.9l-0.7,0.6c-0.1,0.1-0.1,0.2-0.1,0.3v4.4
			C14.3,18.1,14.2,18.2,14.1,18.2z"/>
		<path class="st7" d="M16,15.3c-0.2,0-0.3-0.1-0.5-0.2l-0.6-0.5c-0.1-0.1-0.2-0.2-0.2-0.4s0-0.3,0.1-0.4l1.1-1.2
			c0.1-0.1,0.3-0.1,0.4,0c0.1,0.1,0.1,0.3,0,0.4l-1.1,1.2l0,0.1l0.6,0.5c0,0,0.1,0.1,0.2,0.1c0.1,0,0.1,0,0.1-0.1l1.1-1.5
			c0.1-0.1,0.2-0.1,0.4,0c0.1,0.1,0.1,0.2,0,0.4L16.6,15C16.4,15.2,16.3,15.3,16,15.3C16.1,15.3,16,15.3,16,15.3z"/>
		<path class="st7" d="M16.3,17.9c-0.1,0-0.1,0-0.2-0.1l-0.8-1.1c-0.5-0.6-0.5-1.5,0-2.2l1.3-1.7c0.1-0.1,0.2-0.1,0.3-0.1
			c0.1,0.1,0.1,0.2,0.1,0.4l-1.3,1.7c-0.3,0.5-0.3,1.1,0,1.6l0.8,1.1c0.1,0.1,0.1,0.3,0,0.4C16.5,17.9,16.4,17.9,16.3,17.9z"/>
	</g>
	<g id="地面_00000101091998949004178620000012519200341839764391_">
		<path id="草_00000050658507514173148250000014360179358624052912_" class="st8" d="M2.4,29c-0.4-1.3-0.5-2.2-1.3-3.5
			C2.8,25.4,3.5,27.9,2.4,29L2.4,29z"/>
		<path id="草_00000179627912085844586860000016558588140227868062_" class="st8" d="M26.6,29c-1.1-1.1-0.4-3.6,1.3-3.5
			C27.1,26.8,27,27.7,26.6,29L26.6,29z"/>
		<path id="草_00000151529837931384215080000007510860043949423779_" class="st8" d="M25.8,29.5c-1.2-2.3-0.6-6.1,2.1-7
			C26.2,24.6,26.2,27,25.8,29.5L25.8,29.5z"/>
		<rect id="地面_00000139984170963894392230000001730919936118768028_" y="28" class="st9" width="28" height="2"/>
	</g>
</g>


<g id="消失">
	<g>
		<rect id="土台_00000182528654000242316700000008343365836037364407_" x="4" y="25" class="st5" width="20" height="3"/>
		<path id="本体_00000155836702888007268700000015114643727615002534_" class="st15" d="M19,5L19,5c0-2.8-2.2-5-5-5S9,2.2,9,5h0
			L8,25h12L19,5z"/>
		<g id="碑_00000150077320049876993980000018128837442306548921_">
			<path class="st16" d="M10.5,9.7c-0.1,0-0.2-0.1-0.2-0.2c0-0.1,0.1-0.3,0.2-0.3l2.3-0.1C12.9,9,13,9.2,13,9.3s-0.1,0.3-0.2,0.3
				L10.5,9.7C10.5,9.7,10.5,9.7,10.5,9.7z"/>
			<path class="st16" d="M10.6,17C10.6,17,10.6,17,10.6,17c-0.1,0-0.3-0.1-0.2-0.3c0,0,0.1-2.6,0.1-3.4c0-0.8,0-3.7,0-3.7l0.5,0
				c0,0,0,2.8,0,3.7c0,0.8-0.1,3.3-0.1,3.4C10.8,16.9,10.7,17,10.6,17z"/>
			<path class="st16" d="M12.4,13.9c-0.4,0-1.1-0.2-1.1-1c0-0.6,0-1.1,0.3-1.4c0.3-0.3,0.6-0.3,0.9-0.3h0c0,0,0,0,0,0
				c0.6,0,0.8,0.7,0.8,1.1c0,0.6,0,1-0.2,1.2C12.9,13.9,12.5,13.9,12.4,13.9z M12.5,11.7c-0.2,0-0.4,0-0.6,0.2
				c-0.2,0.1-0.2,0.5-0.2,1c0,0.5,0.6,0.5,0.6,0.5c0.1,0,0.3,0,0.4-0.1c0.1-0.1,0.1-0.7,0-0.8C12.8,12.1,12.6,11.7,12.5,11.7
				C12.5,11.7,12.5,11.7,12.5,11.7L12.5,11.7z"/>
			<path class="st16" d="M14.4,11.9C14.4,11.9,14.4,11.9,14.4,11.9c-0.4-0.1-0.8-0.2-0.9-0.5c-0.2-0.4-0.2-1.5,0-1.8
				c0.4-0.5,1-0.5,1.6-0.5c0.5,0,1.4,0,1.8,0.5c0.3,0.3,0.3,0.9,0.3,1.2c-0.1,0.5-0.4,0.7-0.5,0.8c-0.2,0.1-0.7,0.3-0.8,0.3
				c-0.1,0-0.3-0.1-0.3-0.2c0-0.1,0.1-0.3,0.2-0.3c0.2-0.1,0.5-0.2,0.6-0.2c0.1-0.1,0.2-0.2,0.3-0.5c0-0.2,0-0.6-0.2-0.8
				c-0.3-0.3-1-0.3-1.4-0.3c-0.5,0-1,0-1.3,0.4c-0.1,0.1-0.1,1,0,1.3c0,0,0.3,0.1,0.5,0.2c0.1,0,0.2,0.2,0.2,0.3
				C14.6,11.8,14.5,11.9,14.4,11.9z"/>
			<path class="st16" d="M14.4,10.9c-0.1,0-0.2-0.1-0.2-0.2c0-0.1,0.1-0.3,0.2-0.3l1.7-0.1c0.1,0,0.3,0.1,0.3,0.2s-0.1,0.3-0.2,0.3
				L14.4,10.9C14.4,10.9,14.4,10.9,14.4,10.9z"/>
			<path class="st16" d="M15.2,9.5c-0.1,0-0.2-0.1-0.2-0.2v-1C14.9,8.1,15,8,15.2,8s0.2,0.1,0.2,0.2v1C15.4,9.4,15.3,9.5,15.2,9.5z"/>
			<path class="st16" d="M14.1,18.2c-0.1,0-0.2-0.1-0.2-0.2v-4.4c0-0.3,0.1-0.5,0.3-0.7l0.7-0.6c0.1-0.1,0.2-0.3,0.2-0.5v-1
				c0-0.1,0.1-0.2,0.2-0.2s0.2,0.1,0.2,0.2v1c0,0.3-0.1,0.6-0.4,0.9l-0.7,0.6c-0.1,0.1-0.1,0.2-0.1,0.3v4.4
				C14.3,18.1,14.2,18.2,14.1,18.2z"/>
			<path class="st16" d="M16,15.3c-0.2,0-0.3-0.1-0.5-0.2l-0.6-0.5c-0.1-0.1-0.2-0.2-0.2-0.4s0-0.3,0.1-0.4l1.1-1.2
				c0.1-0.1,0.3-0.1,0.4,0c0.1,0.1,0.1,0.3,0,0.4l-1.1,1.2l0,0.1l0.6,0.5c0,0,0.1,0.1,0.2,0.1c0.1,0,0.1,0,0.1-0.1l1.1-1.5
				c0.1-0.1,0.2-0.1,0.4,0c0.1,0.1,0.1,0.2,0,0.4L16.6,15C16.4,15.2,16.3,15.3,16,15.3C16.1,15.3,16,15.3,16,15.3z"/>
			<path class="st16" d="M16.3,17.9c-0.1,0-0.1,0-0.2-0.1l-0.8-1.1c-0.5-0.6-0.5-1.5,0-2.2l1.3-1.7c0.1-0.1,0.2-0.1,0.3-0.1
				c0.1,0.1,0.1,0.2,0.1,0.4l-1.3,1.7c-0.3,0.5-0.3,1.1,0,1.6l0.8,1.1c0.1,0.1,0.1,0.3,0,0.4C16.5,17.9,16.4,17.9,16.3,17.9z"/>
		</g>
		<g id="地面_00000021101398160634767520000007017782374509589638_">
			<path id="草_00000047058509595618549210000014492206259029122706_" class="st17" d="M2.4,29c-0.4-1.3-0.5-2.2-1.3-3.5
				C2.8,25.4,3.5,27.9,2.4,29L2.4,29z"/>
			<path id="草_00000089540505411563863490000011613943685043822524_" class="st17" d="M26.6,29c-1.1-1.1-0.4-3.6,1.3-3.5
				C27.1,26.8,27,27.6,26.6,29L26.6,29z"/>
			<path id="草_00000031185094567989444570000001098180149287154084_" class="st17" d="M25.8,29.5c-1.2-2.3-0.6-6.1,2.1-7
				C26.2,24.6,26.2,27,25.8,29.5L25.8,29.5z"/>
			<rect id="地面_00000049209277636698299990000000226424939680730794_" y="28" class="st18" width="28" height="2"/>
		</g>
	</g>
	<g>
		<path class="st19" d="M27.1,21.6l-7.5,7.5c-1.2,1.2-3.1,1.2-4.2,0l-7.5-7.5c-1.2-1.2-1.2-3.1,0-4.2l7.5-7.5c1.2-1.2,3.1-1.2,4.2,0
			l7.5,7.5C28.3,18.6,28.3,20.4,27.1,21.6z"/>
		<g>
			<path class="st20" d="M12.7,24.4l-0.2-0.2c-0.5-0.5-0.5-1.3,0-1.8l7.9-7.9c0.5-0.5,1.3-0.5,1.8,0l0.2,0.2c0.5,0.5,0.5,1.3,0,1.8
				l-7.9,7.9C14,24.9,13.2,24.9,12.7,24.4z"/>
			<path class="st20" d="M20.5,24.4l-7.9-7.9c-0.5-0.5-0.5-1.3,0-1.8l0.2-0.2c0.5-0.5,1.3-0.5,1.8,0l7.9,7.9c0.5,0.5,0.5,1.3,0,1.8
				l-0.2,0.2C21.8,24.9,21,24.9,20.5,24.4z"/>
		</g>
	</g>
</g>
</svg>