<?xml version="1.0" encoding="UTF-8"?>
<svg xmlns="http://www.w3.org/2000/svg" viewBox="0 0 28 40">
  <defs>
    <style>
      .cls-1 {
        fill: #fff;
        opacity: .3;
      }

      .cls-2 {
        fill: #969660;
      }

      .cls-3 {
        fill: #39b54a;
      }

      .cls-4 {
        fill: gray;
      }

      .cls-5 {
        fill: #3e3e1c;
      }

      .cls-6 {
        fill: #ffce00;
      }

      .cls-7 {
        fill: #a96e2d;
      }

      .cls-8 {
        fill: #ccc;
      }

      .cls-9 {
        fill: #666;
      }
    </style>
  </defs>
  <g id="_ピン" data-name="ピン">
    <g>
      <polygon class="cls-4" points="15 40 13 40 12 30 16 30 15 40"/>
      <rect class="cls-8" x="14" y="30" width="1" height="10"/>
    </g>
  </g>
  <g id="_ノーマル" data-name="ノーマル">
    <rect id="_土台" data-name="土台" class="cls-9" x="4" y="25" width="20" height="3"/>
    <path id="_本体" data-name="本体" class="cls-2" d="M19,5h0C18.99,2.24,16.76,.01,14,.01s-4.99,2.23-5,4.99h0l-1,20h12l-1-20Z"/>
    <g id="_碑" data-name="碑">
      <path class="cls-5" d="M10.5,9.69c-.13,0-.24-.1-.25-.24,0-.14,.1-.25,.24-.26l2.25-.1c.14-.03,.25,.1,.26,.24s-.1,.25-.24,.26l-2.25,.1s0,0-.01,0Z"/>
      <path class="cls-5" d="M10.57,16.99h0c-.14,0-.25-.12-.24-.26,0-.03,.09-2.6,.09-3.42s-.04-3.68-.04-3.68h.5s.04,2.84,.04,3.68-.08,3.33-.09,3.44c0,.14-.12,.24-.25,.24Z"/>
      <path class="cls-5" d="M12.38,13.94c-.36,0-1.11-.24-1.13-.98-.01-.61,0-1.1,.35-1.4,.32-.27,.63-.3,.9-.3h0c.55,0,.79,.7,.81,1.15,.02,.56,.03,1.03-.19,1.24-.25,.25-.57,.29-.74,.29Zm.12-2.18c-.25,0-.4,.03-.57,.18-.16,.14-.19,.46-.17,1.01,.01,.46,.62,.49,.63,.49,.07,0,.26-.01,.39-.14,.08-.11,.05-.66,.04-.84-.01-.32-.16-.69-.31-.69h0Z"/>
      <path class="cls-5" d="M14.43,11.9s-.04,0-.06,0c-.3-.08-.69-.23-.79-.46-.16-.38-.23-1.52,.05-1.82,.42-.45,1.04-.52,1.6-.52,.53,0,1.38-.01,1.81,.5,.27,.31,.35,.86,.27,1.21-.1,.46-.36,.71-.5,.81-.18,.13-.66,.25-.8,.29-.14,.04-.27-.05-.3-.19-.03-.13,.05-.27,.19-.3,.24-.06,.55-.15,.62-.2,.07-.05,.24-.2,.31-.52,.05-.22-.01-.6-.16-.78-.28-.33-.98-.33-1.4-.32-.47,0-.97,.05-1.25,.36-.08,.14-.08,.98,.05,1.29,.03,.03,.25,.12,.45,.17,.13,.04,.21,.17,.18,.31-.03,.11-.13,.19-.24,.19Z"/>
      <path class="cls-5" d="M14.44,10.91c-.13,0-.24-.1-.25-.24,0-.14,.1-.26,.24-.26l1.7-.09c.13-.02,.26,.1,.26,.24s-.1,.26-.24,.26l-1.7,.09s0,0-.01,0Z"/>
      <path class="cls-5" d="M15.18,9.51c-.14,0-.25-.11-.25-.25v-.98c0-.14,.11-.25,.25-.25s.25,.11,.25,.25v.98c0,.14-.11,.25-.25,.25Z"/>
      <path class="cls-5" d="M14.07,18.2c-.14,0-.25-.11-.25-.25v-4.37c0-.27,.11-.52,.31-.7l.7-.64c.14-.12,.21-.3,.21-.48v-.97c0-.14,.11-.25,.25-.25s.25,.11,.25,.25v.97c0,.32-.14,.63-.38,.85l-.7,.64c-.09,.08-.15,.21-.15,.33v4.37c0,.14-.11,.25-.25,.25Z"/>
      <path class="cls-5" d="M16.01,15.29c-.17,0-.34-.06-.47-.17l-.63-.55c-.12-.1-.19-.24-.2-.4s.04-.3,.15-.42l1.11-1.23c.09-.1,.25-.11,.35-.02,.1,.09,.11,.25,.02,.35l-1.11,1.23v.1s.64,.55,.64,.55c.05,.04,.1,.05,.16,.05,.06,0,.11-.04,.15-.08l1.13-1.46c.08-.11,.24-.13,.35-.04,.11,.08,.13,.24,.04,.35l-1.13,1.46c-.12,.16-.3,.25-.49,.27-.02,0-.05,0-.07,0Z"/>
      <path class="cls-5" d="M16.35,17.92c-.07,0-.15-.03-.2-.1l-.84-1.07c-.5-.63-.51-1.52-.03-2.16l1.25-1.68c.08-.11,.24-.13,.35-.05,.11,.08,.13,.24,.05,.35l-1.25,1.68c-.34,.46-.34,1.1,.02,1.55l.84,1.07c.09,.11,.07,.27-.04,.35-.05,.04-.1,.05-.15,.05Z"/>
    </g>
    <g id="_地面" data-name="地面">
      <path id="_草" data-name="草" class="cls-3" d="M2.4,29c-.44-1.34-.51-2.22-1.31-3.5,1.67-.06,2.41,2.38,1.31,3.5h0Z"/>
      <path id="_草-2" data-name="草" class="cls-3" d="M26.58,29c-1.1-1.12-.36-3.56,1.31-3.5-.8,1.28-.87,2.16-1.31,3.5h0Z"/>
      <path id="_草-3" data-name="草" class="cls-3" d="M25.82,29.5c-1.16-2.29-.63-6.07,2.07-7-1.67,2.1-1.73,4.49-2.07,7h0Z"/>
      <rect id="_地面-2" data-name="地面" class="cls-7" y="28" width="28" height="2"/>
    </g>
  </g>
  <g id="_要調査" data-name="要調査">
    <path id="_白ベール" data-name="白ベール" class="cls-1" d="M11.02,0h5.53c6.32,0,11.45,5.13,11.45,11.45V30H0V11.02C0,4.94,4.94,0,11.02,0Z"/>
    <g>
      <rect class="cls-6" x="9.19" y="11.28" width="16.61" height="16.61" rx="3" ry="3" transform="translate(-8.72 18.11) rotate(-45)"/>
      <path d="M18.75,23.92c0,.7-.56,1.26-1.25,1.26s-1.25-.56-1.25-1.26,.56-1.25,1.25-1.25,1.25,.56,1.25,1.25Zm-.57-2.88c-.07,.46-.16,.78-.69,.78s-.61-.35-.66-.78l-.46-3.49v-2.5c0-.78,.42-1.05,1.16-1.05s1.11,.31,1.11,1.05v2.5l-.46,3.49Z"/>
    </g>
  </g>
</svg>