<?xml version="1.0" encoding="utf-8"?>
<!-- Generator: Adobe Illustrator 27.1.1, SVG Export Plug-In . SVG Version: 6.00 Build 0)  -->
<svg version="1.1" xmlns="http://www.w3.org/2000/svg" xmlns:xlink="http://www.w3.org/1999/xlink" x="0px" y="0px" viewBox="0 0 28 40" style="enable-background:new 0 0 28 40;" xml:space="preserve">
<style type="text/css">
	.st0{display:none;}
	.st1{fill:#808080;}
	.st2{fill:#CCCCCC;}
	.st3{fill:#B3B3B3;}
	.st4{fill:#999999;}
	.st5{fill:#4D4D4D;}
	.st6{fill:#A67C52;}
	.st7{fill:url(#SVGID_1_);}
	.st8{fill:#1B1464;}
	.st9{fill:#FFFFFF;}
	.st10{fill:#2E3192;}
	.st11{opacity:0.3;fill:#FFFFFF;}
	.st12{fill:#FFCE00;}
	.st13{fill:#848484;}
	.st14{fill:url(#SVGID_00000005966653461144599490000017292828291371693452_);}
	.st15{fill:#FF0000;}
	.st16{fill:#F2F2F2;}
</style>
<g id="ガイド_00000162338702563158607440000009963323815856875396_" class="st0">
</g>
<g id="ピン">
	<g>
		<g>
			<polygon class="st1" points="15,40 13,40 12,30 16,30 			"/>
			<rect x="14" y="30" class="st2" width="1" height="10"/>
		</g>
		<g>
			<rect x="12" y="20" class="st1" width="4" height="10"/>
			<rect x="14" y="20" class="st2" width="1" height="10"/>
		</g>
	</g>
</g>
<g id="ノーマル">
	<rect class="st3" width="28" height="3"/>
	<rect x="8.9" y="3" class="st4" width="10" height="11.9"/>
	<path class="st5" d="M15.3,4.9h-2.8c-0.9,0-1.6,0.7-1.6,1.6v8.4h6V6.5C16.9,5.7,16.2,4.9,15.3,4.9z"/>
	<polygon class="st6" points="0,3.1 8.9,3 8.9,14.9 0,30 	"/>
	<polygon class="st6" points="28,3 28,30 18.9,14.9 18.9,3 	"/>
	<linearGradient id="SVGID_1_" gradientUnits="userSpaceOnUse" x1="0" y1="22.475" x2="28" y2="22.475">
		<stop offset="0" style="stop-color:#006837"/>
		<stop offset="0.2" style="stop-color:#006837"/>
		<stop offset="0.5" style="stop-color:#00A99D"/>
		<stop offset="0.8" style="stop-color:#0075BE"/>
		<stop offset="0.9944" style="stop-color:#006837"/>
	</linearGradient>
	<polygon class="st7" points="0,30 8.9,14.9 18.9,14.9 28,30 	"/>
</g>



</svg>