<?xml version="1.0" encoding="UTF-8"?>
<svg xmlns="http://www.w3.org/2000/svg" viewBox="0 0 28 40">
  <defs>
    <style>
      .cls-1 {
        fill: #4d4d4d;
      }

      .cls-2 {
        fill: gray;
      }

      .cls-3 {
        fill: #999;
      }

      .cls-4 {
        fill: #ccc;
      }

      .cls-5 {
        fill: #cc9f72;
      }
    </style>
  </defs>
  <g id="_ピン" data-name="ピン">
    <g>
      <g>
        <polygon class="cls-2" points="15 40 13 40 12 30 16 30 15 40"/>
        <rect class="cls-4" x="14" y="30" width="1" height="10"/>
      </g>
      <g>
        <rect class="cls-2" x="12" y="20" width="4" height="10"/>
        <rect class="cls-4" x="14" y="20" width="1" height="10"/>
      </g>
    </g>
  </g>
  <g id="_ノーマル" data-name="ノーマル">
    <rect id="_縦" data-name="縦" class="cls-5" x="10" width="8" height="30"/>
    <g id="_左向き" data-name="左向き">
      <polygon class="cls-3" points="24 2 8.98 2 8.98 .81 0 6 8.98 11.19 8.98 10 24 10 24 2"/>
      <g id="_西" data-name="西">
        <path class="cls-1" d="M9,3.43c.31,.07,.34,.08,.44,.12,.1,.04,.18,.14,.18,.22,0,.1-.07,.11-.5,.14-.23,.02-.35,.02-.81,.07,.15,.16,.18,.2,.18,.28v.06c-.02,.13-.02,.25-.03,.29-.01,.14-.02,.25-.02,.27,0,.04,0,.17-.01,.3,.2-.03,.34-.05,.43-.06,.58-.08,.6-.08,.76-.12,.09-.02,.16-.05,.34-.11h.04c.37,.14,.61,.29,.61,.38,0,.02-.01,.07-.04,.13l-.05,.13c-.11,.33-.2,.62-.23,.72-.14,.47-.24,.79-.28,.88-.02,.07-.1,.26-.17,.46-.05,.16-.08,.2-.21,.3-.04,.04-.1,.07-.11,.07-.04,0-.08-.05-.16-.18-.04-.06-.07-.11-.16-.25-.1-.08-.15-.11-.27-.11-.17,0-1.44,.19-2.21,.33-.05,.05-.09,.08-.12,.08-.08,0-.25-.22-.32-.41-.02-.12-.04-.23-.05-.27-.04-.2-.1-.46-.27-1.28l-.06-.18c-.05-.09-.06-.13-.06-.17,0-.03,.02-.04,.08-.04,.03,0,.07,0,.14,.02,.16,.02,.31,.04,.39,.04,.23,0,.46-.04,.74-.12,.02-.23,.03-.41,.03-.52,0-.08,0-.19-.01-.34l-.02-.12s-.03-.07-.08-.11c-.05-.05-.06-.07-.1-.14-.19,.05-.21,.05-.39,.08h-.04c-.11-.03-.16-.05-.21-.08-.03-.02-.06-.05-.1-.07-.02,0-.04-.02-.04-.02,0-.01,.02-.02,.05-.02,.16-.03,.34-.06,.37-.07l.94-.17c.45-.08,.82-.16,1.09-.22,.16-.03,.17-.04,.28-.16l.05-.02Zm-2.66,2.45c.16,.68,.21,.91,.35,1.61,.13-.02,.27-.05,.31-.05,.9-.16,1.56-.27,1.6-.28,.23-.05,.29-.07,.38-.07,.12,0,.19,.03,.32,.13,.07,.02,.09,.03,.11,.03,.03,0,.07-.04,.09-.12,.09-.28,.26-.92,.45-1.71,0-.13-.01-.14-.12-.18-.66,.06-.85,.08-1.42,.17,.01,.28,.01,.35,.01,.46,0,.28,.09,.4,.31,.4,.07,0,.15-.02,.19-.04,0,0,.04-.02,.08-.05,.02-.01,.05-.03,.1-.05h.05c.3,.07,.4,.13,.4,.23,0,.14-.23,.22-.64,.22-.23,0-.47-.05-.6-.13-.13-.08-.19-.19-.22-.41-.01-.08-.02-.17-.04-.56-.21,.04-.26,.05-.55,.1-.13,.56-.37,.99-.78,1.35-.03,.02-.06,.03-.07,.03s-.02,0-.02-.03v-.02c.32-.51,.38-.65,.49-1.26l-.23,.04-.23,.04h-.05c-.14,.02-.17,.02-.31,.02l.04,.07v.05Zm1.69-1.62c-.02-.09-.04-.13-.11-.23-.35,.06-.41,.07-.7,.11,.2,.04,.34,.13,.39,.24l.02,.1c-.02,.43-.02,.49-.08,.86,.23-.05,.26-.05,.5-.1,0-.29,0-.39,0-.54v-.35l-.02-.09Z"/>
      </g>
    </g>
    <g id="_右向き" data-name="右向き">
      <polygon class="cls-3" points="28 19 19.02 13.81 19.02 15 4 15 4 23 19.02 23 19.02 24.19 28 19"/>
      <g id="_東" data-name="東">
        <path class="cls-1" d="M19.82,16.46v-.08c-.02-.17-.02-.17-.12-.32-.04-.06-.07-.12-.07-.14,0-.04,.01-.04,.11-.05,.24,.04,.48,.18,.54,.31v.06c-.01,.13-.01,.14-.03,.26v.13s-.01,.15-.01,.15c.38-.05,.44-.07,.64-.24h.04c.31,.03,.55,.14,.55,.26,0,.06-.05,.1-.16,.11-.41,.04-.49,.04-1.08,.13-.02,.23-.02,.27-.02,.51,.67-.1,.88-.14,1.08-.24h.04c.37,.19,.49,.28,.49,.35,0,.03-.02,.06-.05,.1-.04,.05-.07,.08-.08,.1l-.04,.06c-.05,.16-.09,.27-.11,.32-.09,.26-.15,.44-.18,.51-.01,.04-.05,.14-.1,.26-.08,.11-.12,.14-.17,.14-.05,0-.06,0-.26-.11-.11,0-.32,.02-.62,.06v.03c.3,.26,.47,.37,1.27,.91,.49,.33,.79,.46,1.59,.69,.02,.02,.04,.05,.04,.05h0s-.03,.04-.08,.05c-.42,.1-.66,.13-1.25,.17-.06,0-.07,0-.12-.05-.66-.77-.83-.96-1.45-1.62,.03,1.1,.03,1.14,.07,1.76v.03c-.1,.44-.16,.58-.23,.58t-.17-.16c-.17-.19-.37-.35-.67-.54-.03-.02-.05-.05-.05-.06,0,0,.02-.01,.04-.01,.01,0,.04,0,.05,0,.21,.03,.25,.03,.42,.04,.12,0,.13-.02,.14-.16,0-.56,0-.64,.02-1.19-.47,.52-1.52,1.21-2.03,1.35-.02,0-.03,0-.04,0s-.02,0-.02-.02c0,0,0-.02,0-.03,.82-.53,1.55-1.21,1.83-1.73-.1,.02-.11,.02-.21,.05h-.13s-.05,.05-.05,.07c-.03,.04-.05,.06-.08,.06-.1,0-.21-.13-.28-.31-.11-.47-.13-.55-.25-.97l-.02-.07s-.02-.05-.05-.1c-.09-.12-.11-.15-.11-.19,0-.02,.02-.04,.08-.04,.16,.02,.17,.02,.31,.08,.27-.03,.4-.05,1.06-.17,0-.17,0-.24,0-.33v-.19c-.38,.07-.44,.08-.77,.14h-.1c-.2-.06-.25-.09-.33-.19-.01-.01-.02-.02-.02-.03,0,0,.01-.01,.04-.01,.07,0,.11-.01,.13-.01l.33-.04,.31-.04s.22-.03,.41-.07v-.38Zm0,1.98c-.17,.02-.2,.03-.36,.07h-.02s-.06-.02-.07-.03c-.03-.01-.08-.04-.14-.08l-.02-.02h-.01s.04-.03,.04-.03c.25-.04,.3-.04,.6-.1v-.45c-.11,.02-.18,.03-.2,.04l-.34,.05s-.19,.03-.35,.06c.02,.06,.04,.15,.07,.26l.2,.83c.31-.04,.36-.04,.63-.1v-.5Zm.57-.73s-.09,.01-.18,.02c0,.14,0,.2,0,.27v.17c.07-.02,.08-.03,.16-.05,.08-.04,.1-.05,.17-.1h.02c.22,.05,.32,.11,.32,.19,0,.04-.03,.07-.1,.09-.29,.04-.34,.05-.58,.07v.49c.19-.04,.22-.05,.42-.07h.08c.07,0,.1,0,.14,0h.1c.1-.46,.12-.55,.22-1.08,0-.02,0-.04,0-.05,0-.04-.02-.04-.08-.04-.14,.01-.25,.02-.28,.03l-.4,.06Z"/>
      </g>
    </g>
  </g>
</svg>