<?xml version="1.0" encoding="utf-8"?>
<!-- Generator: Adobe Illustrator 27.1.1, SVG Export Plug-In . SVG Version: 6.00 Build 0)  -->
<svg version="1.1" xmlns="http://www.w3.org/2000/svg" xmlns:xlink="http://www.w3.org/1999/xlink" x="0px" y="0px" viewBox="0 0 28 40" style="enable-background:new 0 0 28 40;" xml:space="preserve">
<style type="text/css">
	.st0{display:none;}
	.st1{fill:#808080;}
	.st2{fill:#CCCCCC;}
	.st3{fill-rule:evenodd;clip-rule:evenodd;fill:#CC9F72;}
	.st4{fill:#999999;}
	.st5{fill:#4D4D4D;}
	.st6{fill:#1B1464;}
	.st7{fill:#FFFFFF;}
	.st8{fill:#2E3192;}
	.st9{opacity:0.3;fill:#FFFFFF;}
	.st10{fill:#FFCE00;}
	.st11{fill-rule:evenodd;clip-rule:evenodd;fill:#A8A8A8;}
	.st12{fill:#FF0000;}
	.st13{fill:#F2F2F2;}
</style>
<g id="ガイド_00000162338702563158607440000009963323815856875396_" class="st0">
</g>
<g id="ピン">
	<g>
		<g>
			<polygon class="st1" points="15,40 13,40 12,30 16,30 			"/>
			<rect x="14" y="30" class="st2" width="1" height="10"/>
		</g>
		<g>
			<rect x="12" y="20" class="st1" width="4" height="10"/>
			<rect x="14" y="20" class="st2" width="1" height="10"/>
		</g>
	</g>
</g>
<g id="ノーマル">
	<rect id="縦" x="10" class="st3" width="8" height="30"/>
	<g id="左向き">
		<polygon class="st4" points="24,2 9,2 9,0.8 0,6 9,11.2 9,10 24,10 		"/>
		<g id="西">
			<path class="st5" d="M9,3.4c0.3,0.1,0.3,0.1,0.4,0.1c0.1,0,0.2,0.1,0.2,0.2c0,0.1-0.1,0.1-0.5,0.1c-0.2,0-0.3,0-0.8,0.1
				c0.1,0.2,0.2,0.2,0.2,0.3l0,0.1c0,0.1,0,0.2,0,0.3c0,0.1,0,0.2,0,0.3c0,0,0,0.2,0,0.3c0.2,0,0.3,0,0.4-0.1C9.4,5,9.4,5,9.6,5
				c0.1,0,0.2,0,0.3-0.1h0c0.4,0.1,0.6,0.3,0.6,0.4c0,0,0,0.1,0,0.1l-0.1,0.1c-0.1,0.3-0.2,0.6-0.2,0.7C10.1,6.7,10,7,10,7.1
				c0,0.1-0.1,0.3-0.2,0.5C9.8,7.7,9.7,7.8,9.6,7.9c0,0-0.1,0.1-0.1,0.1c0,0-0.1,0-0.2-0.2c0-0.1-0.1-0.1-0.2-0.3
				C9.1,7.4,9,7.4,8.9,7.4c-0.2,0-1.4,0.2-2.2,0.3C6.6,7.8,6.6,7.8,6.6,7.8c-0.1,0-0.3-0.2-0.3-0.4c0-0.1,0-0.2,0-0.3
				c0-0.2-0.1-0.5-0.3-1.3L5.9,5.7c0-0.1-0.1-0.1-0.1-0.2c0,0,0,0,0.1,0c0,0,0.1,0,0.1,0c0.2,0,0.3,0,0.4,0c0.2,0,0.5,0,0.7-0.1
				c0-0.2,0-0.4,0-0.5c0-0.1,0-0.2,0-0.3l0-0.1c0,0,0-0.1-0.1-0.1C7,4.3,7,4.3,7,4.2c-0.2,0-0.2,0.1-0.4,0.1h0c-0.1,0-0.2,0-0.2-0.1
				c0,0-0.1,0-0.1-0.1c0,0,0,0,0,0c0,0,0,0,0,0C6.4,4,6.6,4,6.6,4l0.9-0.2C8,3.7,8.4,3.7,8.7,3.6C8.8,3.6,8.8,3.6,9,3.4L9,3.4z
				 M6.3,5.9c0.2,0.7,0.2,0.9,0.4,1.6c0.1,0,0.3,0,0.3-0.1c0.9-0.2,1.6-0.3,1.6-0.3C8.8,7.1,8.9,7.1,9,7.1c0.1,0,0.2,0,0.3,0.1
				c0.1,0,0.1,0,0.1,0c0,0,0.1,0,0.1-0.1c0.1-0.3,0.3-0.9,0.4-1.7c0-0.1,0-0.1-0.1-0.2C9.2,5.3,9,5.3,8.4,5.4c0,0.3,0,0.3,0,0.5
				c0,0.3,0.1,0.4,0.3,0.4c0.1,0,0.1,0,0.2,0c0,0,0,0,0.1-0.1c0,0,0.1,0,0.1-0.1l0,0c0.3,0.1,0.4,0.1,0.4,0.2c0,0.1-0.2,0.2-0.6,0.2
				c-0.2,0-0.5,0-0.6-0.1C8.2,6.4,8.1,6.3,8.1,6c0-0.1,0-0.2,0-0.6c-0.2,0-0.3,0.1-0.6,0.1c-0.1,0.6-0.4,1-0.8,1.3c0,0-0.1,0-0.1,0
				c0,0,0,0,0,0v0C6.9,6.4,7,6.3,7.1,5.7l-0.2,0l-0.2,0l-0.1,0c-0.1,0-0.2,0-0.3,0L6.3,5.9L6.3,5.9z M8,4.3C8,4.2,8,4.1,7.9,4
				C7.6,4.1,7.5,4.1,7.2,4.1c0.2,0,0.3,0.1,0.4,0.2l0,0.1c0,0.4,0,0.5-0.1,0.9c0.2,0,0.3-0.1,0.5-0.1C8,5,8,4.9,8,4.7L8,4.3L8,4.3z"/>
		</g>
	</g>
	<g id="右向き_00000010991087231111509420000001820395737661091989_">
		<polygon class="st4" points="28,19 19,13.8 19,15 4,15 4,23 19,23 19,24.2 		"/>
		<g id="東">
			<path class="st5" d="M19.8,16.5L19.8,16.5c0-0.2,0-0.3-0.1-0.4c0-0.1-0.1-0.1-0.1-0.1c0,0,0,0,0.1-0.1c0.2,0,0.5,0.2,0.5,0.3v0.1
				c0,0.1,0,0.1,0,0.3l0,0.1l0,0.1c0.4,0,0.4-0.1,0.6-0.2l0,0c0.3,0,0.5,0.2,0.5,0.3c0,0.1,0,0.1-0.2,0.1c-0.4,0-0.5,0-1.1,0.1
				c0,0.2,0,0.3,0,0.5c0.7-0.1,0.9-0.1,1.1-0.2l0,0c0.4,0.2,0.5,0.3,0.5,0.3c0,0,0,0.1,0,0.1c0,0-0.1,0.1-0.1,0.1l0,0.1
				c-0.1,0.2-0.1,0.3-0.1,0.3c-0.1,0.3-0.1,0.4-0.2,0.5c0,0-0.1,0.1-0.1,0.3c-0.1,0.1-0.1,0.1-0.2,0.1c0,0-0.1,0-0.3-0.1
				c-0.1,0-0.3,0-0.6,0.1v0c0.3,0.3,0.5,0.4,1.3,0.9c0.5,0.3,0.8,0.5,1.6,0.7c0,0,0,0,0,0v0c0,0,0,0-0.1,0c-0.4,0.1-0.7,0.1-1.2,0.2
				c-0.1,0-0.1,0-0.1-0.1c-0.7-0.8-0.8-1-1.5-1.6c0,1.1,0,1.1,0.1,1.8v0c-0.1,0.4-0.2,0.6-0.2,0.6c0,0,0,0-0.2-0.2
				c-0.2-0.2-0.4-0.4-0.7-0.5c0,0-0.1,0-0.1-0.1c0,0,0,0,0,0c0,0,0,0,0.1,0c0.2,0,0.2,0,0.4,0c0.1,0,0.1,0,0.1-0.2
				c0-0.6,0-0.6,0-1.2c-0.5,0.5-1.5,1.2-2,1.3c0,0,0,0,0,0s0,0,0,0c0,0,0,0,0,0c0.8-0.5,1.5-1.2,1.8-1.7c-0.1,0-0.1,0-0.2,0h-0.1
				c0,0,0,0.1-0.1,0.1c0,0-0.1,0.1-0.1,0.1c-0.1,0-0.2-0.1-0.3-0.3c-0.1-0.5-0.1-0.5-0.2-1l0-0.1c0,0,0-0.1-0.1-0.1
				c-0.1-0.1-0.1-0.1-0.1-0.2c0,0,0,0,0.1,0c0.2,0,0.2,0,0.3,0.1c0.3,0,0.4-0.1,1.1-0.2c0-0.2,0-0.2,0-0.3v-0.2
				c-0.4,0.1-0.4,0.1-0.8,0.1l-0.1,0c-0.2-0.1-0.3-0.1-0.3-0.2c0,0,0,0,0,0c0,0,0,0,0,0c0.1,0,0.1,0,0.1,0l0.3,0l0.3,0
				c0,0,0.2,0,0.4-0.1V16.5z M19.8,18.4c-0.2,0-0.2,0-0.4,0.1h0c0,0-0.1,0-0.1,0c0,0-0.1,0-0.1-0.1l0,0l0,0l0,0c0.3,0,0.3,0,0.6-0.1
				v-0.4c-0.1,0-0.2,0-0.2,0l-0.3,0.1c0,0-0.2,0-0.4,0.1c0,0.1,0,0.1,0.1,0.3l0.2,0.8c0.3,0,0.4,0,0.6-0.1V18.4z M20.4,17.7
				c0,0-0.1,0-0.2,0c0,0.1,0,0.2,0,0.3v0.2c0.1,0,0.1,0,0.2,0c0.1,0,0.1,0,0.2-0.1h0c0.2,0.1,0.3,0.1,0.3,0.2c0,0,0,0.1-0.1,0.1
				c-0.3,0-0.3,0-0.6,0.1v0.5c0.2,0,0.2,0,0.4-0.1h0.1c0.1,0,0.1,0,0.1,0h0.1c0.1-0.5,0.1-0.5,0.2-1.1c0,0,0,0,0,0c0,0,0,0-0.1,0
				c-0.1,0-0.2,0-0.3,0L20.4,17.7z"/>
		</g>
	</g>
</g>


<g id="消失">
	<g>
		<rect id="縦_00000020383214094110239370000015351961195723827336_" x="10" class="st11" width="8" height="30"/>
		<g id="左向き_00000044137112426499960430000002366193421412457139_">
			<polygon class="st4" points="24,2 9,2 9,0.8 0,6 9,11.2 9,10 24,10 			"/>
			<g id="西_00000166663127765353204100000004587007019539487624_">
				<path class="st5" d="M9,3.4c0.3,0.1,0.3,0.1,0.4,0.1c0.1,0,0.2,0.1,0.2,0.2c0,0.1-0.1,0.1-0.5,0.1c-0.2,0-0.3,0-0.8,0.1
					c0.1,0.2,0.2,0.2,0.2,0.3l0,0.1c0,0.1,0,0.2,0,0.3c0,0.1,0,0.2,0,0.3c0,0,0,0.2,0,0.3c0.2,0,0.3,0,0.4-0.1C9.4,5,9.4,5,9.6,5
					c0.1,0,0.2,0,0.3-0.1h0c0.4,0.1,0.6,0.3,0.6,0.4c0,0,0,0.1,0,0.1l-0.1,0.1c-0.1,0.3-0.2,0.6-0.2,0.7C10.1,6.7,10,7,10,7.1
					c0,0.1-0.1,0.3-0.2,0.5C9.8,7.7,9.7,7.8,9.6,7.9c0,0-0.1,0.1-0.1,0.1c0,0-0.1,0-0.2-0.2c0-0.1-0.1-0.1-0.2-0.3
					C9.1,7.4,9,7.4,8.9,7.4c-0.2,0-1.4,0.2-2.2,0.3C6.6,7.8,6.6,7.8,6.6,7.8c-0.1,0-0.3-0.2-0.3-0.4c0-0.1,0-0.2,0-0.3
					c0-0.2-0.1-0.5-0.3-1.3L5.9,5.7c0-0.1-0.1-0.1-0.1-0.2c0,0,0,0,0.1,0c0,0,0.1,0,0.1,0c0.2,0,0.3,0,0.4,0c0.2,0,0.5,0,0.7-0.1
					c0-0.2,0-0.4,0-0.5c0-0.1,0-0.2,0-0.3l0-0.1c0,0,0-0.1-0.1-0.1C7,4.3,7,4.3,7,4.2c-0.2,0-0.2,0.1-0.4,0.1h0
					c-0.1,0-0.2,0-0.2-0.1c0,0-0.1,0-0.1-0.1c0,0,0,0,0,0c0,0,0,0,0,0C6.4,4,6.6,4,6.6,4l0.9-0.2C8,3.7,8.4,3.7,8.7,3.6
					C8.8,3.6,8.8,3.6,9,3.4L9,3.4z M6.3,5.9c0.2,0.7,0.2,0.9,0.4,1.6c0.1,0,0.3,0,0.3-0.1c0.9-0.2,1.6-0.3,1.6-0.3
					C8.8,7.1,8.9,7.1,9,7.1c0.1,0,0.2,0,0.3,0.1c0.1,0,0.1,0,0.1,0c0,0,0.1,0,0.1-0.1c0.1-0.3,0.3-0.9,0.4-1.7c0-0.1,0-0.1-0.1-0.2
					C9.2,5.3,9,5.3,8.4,5.4c0,0.3,0,0.3,0,0.5c0,0.3,0.1,0.4,0.3,0.4c0.1,0,0.1,0,0.2,0c0,0,0,0,0.1-0.1c0,0,0.1,0,0.1-0.1l0,0
					c0.3,0.1,0.4,0.1,0.4,0.2c0,0.1-0.2,0.2-0.6,0.2c-0.2,0-0.5,0-0.6-0.1C8.2,6.4,8.1,6.3,8.1,6c0-0.1,0-0.2,0-0.6
					c-0.2,0-0.3,0.1-0.6,0.1c-0.1,0.6-0.4,1-0.8,1.3c0,0-0.1,0-0.1,0c0,0,0,0,0,0v0C6.9,6.4,7,6.3,7.1,5.7l-0.2,0l-0.2,0l-0.1,0
					c-0.1,0-0.2,0-0.3,0L6.3,5.9L6.3,5.9z M8,4.3C8,4.2,8,4.1,7.9,4C7.6,4.1,7.5,4.1,7.2,4.1c0.2,0,0.3,0.1,0.4,0.2l0,0.1
					c0,0.4,0,0.5-0.1,0.9c0.2,0,0.3-0.1,0.5-0.1C8,5,8,4.9,8,4.7L8,4.3L8,4.3z"/>
			</g>
		</g>
		<g id="右向き_00000078021747936677774430000017047088291402921622_">
			<polygon class="st4" points="28,19 19,13.8 19,15 4,15 4,23 19,23 19,24.2 			"/>
			<g id="東_00000035489567581193654720000002183692794708528545_">
				<path class="st5" d="M19.8,16.5L19.8,16.5c0-0.2,0-0.3-0.1-0.4c0-0.1-0.1-0.1-0.1-0.1c0,0,0,0,0.1-0.1c0.2,0,0.5,0.2,0.5,0.3
					v0.1c0,0.1,0,0.1,0,0.3l0,0.1l0,0.1c0.4,0,0.4-0.1,0.6-0.2l0,0c0.3,0,0.5,0.2,0.5,0.3c0,0.1,0,0.1-0.2,0.1c-0.4,0-0.5,0-1.1,0.1
					c0,0.2,0,0.3,0,0.5c0.7-0.1,0.9-0.1,1.1-0.2l0,0c0.4,0.2,0.5,0.3,0.5,0.3c0,0,0,0.1,0,0.1c0,0-0.1,0.1-0.1,0.1l0,0.1
					c-0.1,0.2-0.1,0.3-0.1,0.3c-0.1,0.3-0.1,0.4-0.2,0.5c0,0-0.1,0.1-0.1,0.3c-0.1,0.1-0.1,0.1-0.2,0.1c0,0-0.1,0-0.3-0.1
					c-0.1,0-0.3,0-0.6,0.1v0c0.3,0.3,0.5,0.4,1.3,0.9c0.5,0.3,0.8,0.5,1.6,0.7c0,0,0,0,0,0v0c0,0,0,0-0.1,0
					c-0.4,0.1-0.7,0.1-1.2,0.2c-0.1,0-0.1,0-0.1-0.1c-0.7-0.8-0.8-1-1.5-1.6c0,1.1,0,1.1,0.1,1.8v0c-0.1,0.4-0.2,0.6-0.2,0.6
					c0,0,0,0-0.2-0.2c-0.2-0.2-0.4-0.4-0.7-0.5c0,0-0.1,0-0.1-0.1c0,0,0,0,0,0c0,0,0,0,0.1,0c0.2,0,0.2,0,0.4,0c0.1,0,0.1,0,0.1-0.2
					c0-0.6,0-0.6,0-1.2c-0.5,0.5-1.5,1.2-2,1.3c0,0,0,0,0,0s0,0,0,0c0,0,0,0,0,0c0.8-0.5,1.5-1.2,1.8-1.7c-0.1,0-0.1,0-0.2,0h-0.1
					c0,0,0,0.1-0.1,0.1c0,0-0.1,0.1-0.1,0.1c-0.1,0-0.2-0.1-0.3-0.3c-0.1-0.5-0.1-0.5-0.2-1l0-0.1c0,0,0-0.1-0.1-0.1
					c-0.1-0.1-0.1-0.1-0.1-0.2c0,0,0,0,0.1,0c0.2,0,0.2,0,0.3,0.1c0.3,0,0.4-0.1,1.1-0.2c0-0.2,0-0.2,0-0.3v-0.2
					c-0.4,0.1-0.4,0.1-0.8,0.1l-0.1,0c-0.2-0.1-0.3-0.1-0.3-0.2c0,0,0,0,0,0c0,0,0,0,0,0c0.1,0,0.1,0,0.1,0l0.3,0l0.3,0
					c0,0,0.2,0,0.4-0.1V16.5z M19.8,18.4c-0.2,0-0.2,0-0.4,0.1h0c0,0-0.1,0-0.1,0c0,0-0.1,0-0.1-0.1l0,0l0,0l0,0
					c0.3,0,0.3,0,0.6-0.1v-0.4c-0.1,0-0.2,0-0.2,0l-0.3,0.1c0,0-0.2,0-0.4,0.1c0,0.1,0,0.1,0.1,0.3l0.2,0.8c0.3,0,0.4,0,0.6-0.1
					V18.4z M20.4,17.7c0,0-0.1,0-0.2,0c0,0.1,0,0.2,0,0.3v0.2c0.1,0,0.1,0,0.2,0c0.1,0,0.1,0,0.2-0.1h0c0.2,0.1,0.3,0.1,0.3,0.2
					c0,0,0,0.1-0.1,0.1c-0.3,0-0.3,0-0.6,0.1v0.5c0.2,0,0.2,0,0.4-0.1h0.1c0.1,0,0.1,0,0.1,0h0.1c0.1-0.5,0.1-0.5,0.2-1.1
					c0,0,0,0,0,0c0,0,0,0-0.1,0c-0.1,0-0.2,0-0.3,0L20.4,17.7z"/>
			</g>
		</g>
	</g>
	<g>
		<path class="st12" d="M27.1,21.6l-7.5,7.5c-1.2,1.2-3.1,1.2-4.2,0l-7.5-7.5c-1.2-1.2-1.2-3.1,0-4.2l7.5-7.5c1.2-1.2,3.1-1.2,4.2,0
			l7.5,7.5C28.3,18.6,28.3,20.4,27.1,21.6z"/>
		<g>
			<path class="st13" d="M12.7,24.4l-0.2-0.2c-0.5-0.5-0.5-1.3,0-1.8l7.9-7.9c0.5-0.5,1.3-0.5,1.8,0l0.2,0.2c0.5,0.5,0.5,1.3,0,1.8
				l-7.9,7.9C14,24.9,13.2,24.9,12.7,24.4z"/>
			<path class="st13" d="M20.5,24.4l-7.9-7.9c-0.5-0.5-0.5-1.3,0-1.8l0.2-0.2c0.5-0.5,1.3-0.5,1.8,0l7.9,7.9c0.5,0.5,0.5,1.3,0,1.8
				l-0.2,0.2C21.8,24.9,21,24.9,20.5,24.4z"/>
		</g>
	</g>
</g>
</svg>