<?xml version="1.0" encoding="UTF-8"?>
<svg xmlns="http://www.w3.org/2000/svg" viewBox="0 0 28 40">
  <defs>
    <style>
      .cls-1, .cls-2 {
        fill: #fff;
      }

      .cls-3 {
        fill: #8c9296;
      }

      .cls-2 {
        opacity: .3;
      }

      .cls-4 {
        fill: #868686;
      }

      .cls-5 {
        fill: gray;
      }

      .cls-6 {
        fill: #d5d5d5;
      }

      .cls-7 {
        fill: #ffce00;
      }

      .cls-8 {
        fill: #dcdcdc;
      }

      .cls-9 {
        fill: #ccc;
      }

      .cls-10 {
        fill: #776b73;
      }

      .cls-11 {
        fill: #666;
      }
    </style>
  </defs>
  <g id="_ピン" data-name="ピン">
    <g id="_ピン-2" data-name="ピン">
      <polygon class="cls-5" points="15 40 13 40 12 30 16 30 15 40"/>
      <rect class="cls-9" x="14" y="30" width="1" height="10"/>
    </g>
  </g>
  <g id="_ノーマル" data-name="ノーマル">
    <polygon id="_後髪" data-name="後髪" class="cls-11" points="4.8 11.26 2.33 22.93 13.87 23.15 13.06 11.45 4.8 11.26"/>
    <path id="_胴男" data-name="胴男" class="cls-3" d="M24.62,25.85c0-4.39-2.95-7.95-6.6-7.95s-6.6,3.56-6.6,7.95c0,.01,0,.03,0,.04h0v9.04h13.19v-9.04s0,0,0,0c0-.01,0-.03,0-.04Z"/>
    <path id="_胴女" data-name="胴女" class="cls-10" d="M15.8,26.15c0-4.27-2.87-7.73-6.41-7.73s-6.41,3.46-6.41,7.73c0,.01,0,.03,0,.04h0v8.72H15.8v-8.72s0,0,0,0c0-.01,0-.03,0-.04Z"/>
    <path id="_耳女" data-name="耳女" class="cls-6" d="M5.04,12.41c-.2-.62-.91-1.01-1.36-.31-.3,.47,.1,1.24,.12,1.4s-.33,1.41,.18,1.87c.44,.4,1.01,0,1.01,0,0,0,.24-1.37,.22-1.96s-.16-1-.16-1Z"/>
    <ellipse id="_顔女" data-name="顔女" class="cls-6" cx="9.16" cy="13.34" rx="4.47" ry="5.08"/>
    <path id="_髪女" data-name="髪女" class="cls-11" d="M4.96,12.8s1.15-2.2,1.87-2.63c.9-.53,2.29-.15,3.28-.13s1.76-.27,2.38,.05,1.15,2.71,1.15,2.71c0,0-.33-1.85-.55-2.88-.32-1.53-1.53-2.64-1.53-2.64,0,0-.05-1.76-.48-2.5-.29-.51-.78-.9-1.33-.9-.92,0-1.47,.21-2.03,.9-.62,.75-.65,2.52-.65,2.52,0,0-1.2,.56-1.86,1.71-.74,1.27-.24,3.79-.24,3.79Z"/>
    <g id="_眉目やさしい" data-name="眉目やさしい">
      <g id="_眉" data-name="眉">
        <path id="_眉-2" data-name="眉" class="cls-11" d="M9.61,11.96c-.83-1.11-2.32-1.01-3.18,0,.6-1.3,2.61-1.39,3.18,0h0Z"/>
        <path id="_眉-3" data-name="眉" class="cls-11" d="M10.5,11.96c.56-1.39,2.58-1.3,3.18,0-.86-1.01-2.35-1.11-3.18,0h0Z"/>
      </g>
      <g id="_目" data-name="目">
        <path class="cls-11" d="M6.75,12.91s.38-1.13,1.13-1.08,1.44,1.08,1.44,1.08c0,0-.68,.73-1.29,.73s-1.29-.73-1.29-.73Z"/>
        <path class="cls-11" d="M13.36,12.91s-.38-1.13-1.13-1.08-1.44,1.08-1.44,1.08c0,0,.68,.73,1.29,.73s1.29-.73,1.29-.73Z"/>
      </g>
    </g>
    <g id="_宝冠" data-name="宝冠">
      <path id="_宝冠上" data-name="宝冠上" class="cls-4" d="M11.18,4.86c0-.39-.05-.99-.3-1.5-.4-.83-1.38-1.38-1.38-1.38,0,0-1.07,.48-1.53,1.44-.17,.36-.19,.99-.18,1.42-.03-.04,.17,1.94,.17,1.94l.02,.19,2.98-.02,.02-.17s.22-1.97,.19-1.92Z"/>
      <polygon id="_宝石" data-name="宝石" class="cls-8" points="9.57 6.71 10.97 5.22 9.57 3.74 8.16 5.22 9.57 6.71"/>
    </g>
    <path id="_袖女" data-name="袖女" class="cls-1" d="M9,34.28c-.23,0-.46-.02-.68-.07l-2.77-.59c-.27-.06-.45-.34-.39-.62,.05-.29,.32-.47,.59-.41l2.77,.59c.7,.15,1.4-.02,2.02-.5,.84-.65,1.39-1.76,1.52-3.04l.56-5.79-6.41-1.77c-.27-.07-.43-.36-.36-.64,.07-.28,.35-.45,.61-.37l7.24,2-.64,6.69c-.15,1.57-.85,2.95-1.92,3.78-.64,.5-1.38,.76-2.13,.76Z"/>
    <ellipse id="_顔男" data-name="顔男" class="cls-6" cx="18.36" cy="12.68" rx="4.5" ry="5.22"/>
    <path id="_髪男" data-name="髪男" class="cls-11" d="M13.96,12.13s.21-2.26,.95-2.71c.92-.55,1.43-.15,2.44-.13s2.45-.5,3.07-.14c1.2,.69,2.45,3.29,2.45,3.29,0,0,.06-1.15-.18-3.2s-1.65-2.52-1.65-2.52c0,0,.17-.94-.61-1.49s-.95-.87-2.15-.87-1.37,.19-2.09,.87-1,1.53-1,1.53c0,0-.71,.95-1.06,1.8-.47,1.11-.16,3.57-.16,3.57Z"/>
    <g id="_冠" data-name="冠">
      <path class="cls-11" d="M26.21,18.35c-.42-.85-2.2-4.43-2.36-6.12-.06-.63-.44-1.85-.48-2.27-.11-1.3-.15-1.89-.54-3.94-.46-2.41-1.48-3.72-2.24-3.91-.63-.16-1.1-.15-1.34,.03-.27,.2-.29,.64-.29,.64l-2-.02c0-.14,.03-1.41,1.06-2.2,.76-.59,1.8-.72,3.08-.39,1.76,.45,3.15,2.5,3.71,5.48,.41,2.15,.64,5.8,1.2,7.34,.35,.96,1.08,2.63,2,4.46l-1.79,.89Z"/>
      <path id="_冠下" data-name="冠下" class="cls-11" d="M14.18,8.25s1.25-.15,2.91-.18,5.29,.24,5.29,.24l-.44-1.72c-.07-.28-.3-.49-.57-.52-.71-.07-2.21-.2-4.16-.2-1.38,0-2.44,.44-2.44,.44l-.59,1.92Z"/>
      <path id="_冠上" data-name="冠上" class="cls-11" d="M19.94,4.48c.03-.39,.02-.99-.23-1.52-.41-.87-.66-1.44-1.51-1.52s-1.3,.36-1.92,1.27c-.23,.34-.3,.97-.32,1.4-.03-.05-.3,2.11-.3,2.11l4.29,.37s.02-2.14-.01-2.1Z"/>
    </g>
    <path id="_耳男" data-name="耳男" class="cls-6" d="M22.72,11.73c.22-.64,.99-1.04,1.48-.32,.33,.48-.11,1.28-.13,1.44s.36,1.45-.2,1.92c-.48,.41-1.09,0-1.09,0,0,0-.26-1.41-.24-2.01s.17-1.03,.17-1.03Z"/>
    <g id="_眉目やさしい-2" data-name="眉目やさしい">
      <g id="_眉-4" data-name="眉">
        <path id="_眉-5" data-name="眉" class="cls-11" d="M17.06,11.27c-.83-1.14-2.33-1.04-3.2,0,.6-1.34,2.63-1.43,3.2,0h0Z"/>
        <path id="_眉-6" data-name="眉" class="cls-11" d="M17.96,11.27c.57-1.43,2.6-1.34,3.2,0-.86-1.04-2.37-1.14-3.2,0h0Z"/>
      </g>
      <g id="_目-2" data-name="目">
        <path class="cls-11" d="M14.18,12.25s.38-1.16,1.14-1.11,1.45,1.11,1.45,1.11c0,0-.69,.75-1.3,.75s-1.3-.75-1.3-.75Z"/>
        <path class="cls-11" d="M20.84,12.25s-.38-1.16-1.14-1.11-1.45,1.11-1.45,1.11c0,0,.69,.75,1.3,.75s1.3-.75,1.3-.75Z"/>
      </g>
    </g>
    <g id="_袖男" data-name="袖男">
      <path id="_袖" data-name="袖" class="cls-3" d="M18.28,21.46l-4.47,1.47,.64,7.87c.15,1.89,1.29,3.2,2.51,2.89l3.33-.85"/>
      <path class="cls-1" d="M16.53,34.28c-.44,0-.88-.16-1.27-.46-.76-.6-1.28-1.71-1.38-2.97l-.67-8.31,4.85-1.6c.26-.09,.54,.07,.62,.36,.08,.29-.07,.59-.33,.67l-4.08,1.34,.6,7.44c.08,.95,.44,1.77,.97,2.19,.3,.23,.61,.3,.92,.23l3.33-.85c.27-.07,.54,.11,.6,.4,.06,.29-.1,.58-.37,.65l-3.33,.85c-.15,.04-.31,.06-.47,.06Z"/>
    </g>
    <polygon class="cls-10" points="2.33 29.03 0 30.37 0 22.55 2.33 24.04 2.33 29.03"/>
  </g>
  <g id="_要調査" data-name="要調査">
    <path id="_白ベール" data-name="白ベール" class="cls-2" d="M12.49,0h8.73c3.74,0,6.78,3.04,6.78,6.78v28.22H0V12.49C0,5.6,5.6,0,12.49,0Z"/>
    <g>
      <rect class="cls-7" x="9.19" y="15.96" width="16.61" height="16.61" rx="3" ry="3" transform="translate(-12.03 19.48) rotate(-45)"/>
      <path d="M18.75,28.6c0,.7-.56,1.26-1.25,1.26s-1.25-.56-1.25-1.26,.56-1.25,1.25-1.25,1.25,.56,1.25,1.25Zm-.57-2.88c-.07,.46-.16,.78-.69,.78s-.61-.35-.66-.78l-.46-3.49v-2.5c0-.78,.42-1.05,1.16-1.05s1.11,.31,1.11,1.05v2.5l-.46,3.49Z"/>
    </g>
  </g>
</svg>