<?xml version="1.0" encoding="utf-8"?>
<!-- Generator: Adobe Illustrator 27.1.1, SVG Export Plug-In . SVG Version: 6.00 Build 0)  -->
<svg version="1.1" xmlns="http://www.w3.org/2000/svg" xmlns:xlink="http://www.w3.org/1999/xlink" x="0px" y="0px" viewBox="0 0 28 40" style="enable-background:new 0 0 28 40;" xml:space="preserve">
<style type="text/css">
	.st0{display:none;}
	.st1{fill:#808080;}
	.st2{fill:#CCCCCC;}
	.st3{fill:#666666;}
	.st4{fill:#8C9296;}
	.st5{fill:#776B73;}
	.st6{fill:#D5D5D5;}
	.st7{fill:#868686;}
	.st8{fill:#DCDCDC;}
	.st9{fill:#FFFFFF;}
	.st10{fill:#1B1464;}
	.st11{fill:#2E3192;}
	.st12{opacity:0.3;fill:#FFFFFF;}
	.st13{fill:#FFCE00;}
	.st14{fill:#919191;}
	.st15{fill:#6F6F6F;}
	.st16{fill:#FF0000;}
	.st17{fill:#F2F2F2;}
</style>
<g id="ガイド" class="st0">
</g>
<g id="ピン_00000088842173266805817450000003284342926343756201_">
	<g id="ピン">
		<polygon class="st1" points="15,40 13,40 12,30 16,30 		"/>
		<rect x="14" y="30" class="st2" width="1" height="10"/>
	</g>
</g>
<g id="ノーマル">
	<polygon id="後髪" class="st3" points="4.8,11.3 2.3,22.9 13.9,23.2 13.1,11.5 	"/>
	<path id="胴男" class="st4" d="M24.6,25.9c0-4.4-3-7.9-6.6-7.9s-6.6,3.6-6.6,7.9c0,0,0,0,0,0h0v9h13.2L24.6,25.9L24.6,25.9
		C24.6,25.9,24.6,25.9,24.6,25.9z"/>
	<path id="胴女" class="st5" d="M15.8,26.2c0-4.3-2.9-7.7-6.4-7.7S3,21.9,3,26.2c0,0,0,0,0,0h0v8.7h12.8L15.8,26.2L15.8,26.2
		C15.8,26.2,15.8,26.2,15.8,26.2z"/>
	<path id="耳女" class="st6" d="M5,12.4c-0.2-0.6-0.9-1-1.4-0.3c-0.3,0.5,0.1,1.2,0.1,1.4c0,0.2-0.3,1.4,0.2,1.9c0.4,0.4,1,0,1,0
		s0.2-1.4,0.2-2C5.2,12.8,5,12.4,5,12.4z"/>
	<ellipse id="顔女" class="st6" cx="9.2" cy="13.3" rx="4.5" ry="5.1"/>
	<path id="髪女" class="st3" d="M5,12.8c0,0,1.1-2.2,1.9-2.6C7.7,9.6,9.1,10,10.1,10s1.8-0.3,2.4,0.1c0.6,0.3,1.1,2.7,1.1,2.7
		s-0.3-1.9-0.6-2.9c-0.3-1.5-1.5-2.6-1.5-2.6s-0.1-1.8-0.5-2.5c-0.3-0.5-0.8-0.9-1.3-0.9c-0.9,0-1.5,0.2-2,0.9
		C7.1,5.5,7.1,7.3,7.1,7.3S5.9,7.9,5.2,9C4.5,10.3,5,12.8,5,12.8z"/>
	<g id="眉目やさしい_00000028323658730012805740000011276943422038912190_">
		<g id="眉_00000173160247707415430870000001870978350645923504_">
			<path id="眉_00000148637664924857228320000013691490687103854487_" class="st3" d="M9.6,12c-0.8-1.1-2.3-1-3.2,0
				C7,10.7,9,10.6,9.6,12L9.6,12z"/>
			<path id="眉_00000045588098879190975410000004430996467851900325_" class="st3" d="M10.5,12c0.6-1.4,2.6-1.3,3.2,0
				C12.8,10.9,11.3,10.9,10.5,12L10.5,12z"/>
		</g>
		<g id="目_00000133507067048912901640000002528399801334628763_">
			<path class="st3" d="M6.7,12.9c0,0,0.4-1.1,1.1-1.1s1.4,1.1,1.4,1.1S8.6,13.6,8,13.6C7.4,13.6,6.7,12.9,6.7,12.9z"/>
			<path class="st3" d="M13.4,12.9c0,0-0.4-1.1-1.1-1.1c-0.8,0-1.4,1.1-1.4,1.1s0.7,0.7,1.3,0.7S13.4,12.9,13.4,12.9z"/>
		</g>
	</g>
	<g id="宝冠_00000139282282149962034140000005098553797814855089_">
		<path id="宝冠上_00000066496973876248679990000002190847175410714012_" class="st7" d="M11.2,4.9c0-0.4-0.1-1-0.3-1.5
			C10.5,2.5,9.5,2,9.5,2S8.4,2.5,8,3.4c-0.2,0.4-0.2,1-0.2,1.4c0,0,0.2,1.9,0.2,1.9L8,7l3,0l0-0.2C11,6.8,11.2,4.8,11.2,4.9z"/>
		<polygon id="宝石_00000018939306355062306650000008823473997866172327_" class="st8" points="9.6,6.7 11,5.2 9.6,3.7 8.2,5.2 		
			"/>
	</g>
	<path id="袖女" class="st9" d="M9,34.3c-0.2,0-0.5,0-0.7-0.1l-2.8-0.6c-0.3-0.1-0.4-0.3-0.4-0.6c0.1-0.3,0.3-0.5,0.6-0.4l2.8,0.6
		c0.7,0.1,1.4,0,2-0.5c0.8-0.7,1.4-1.8,1.5-3l0.6-5.8l-6.4-1.8c-0.3-0.1-0.4-0.4-0.4-0.6c0.1-0.3,0.3-0.5,0.6-0.4l7.2,2L13,29.7
		c-0.2,1.6-0.9,2.9-1.9,3.8C10.5,34,9.7,34.3,9,34.3z"/>
	<ellipse id="顔男" class="st6" cx="18.4" cy="12.7" rx="4.5" ry="5.2"/>
	<path id="髪男" class="st3" d="M14,12.1c0,0,0.2-2.3,0.9-2.7c0.9-0.5,1.4-0.2,2.4-0.1c1,0,2.4-0.5,3.1-0.1
		c1.2,0.7,2.4,3.3,2.4,3.3s0.1-1.2-0.2-3.2C22.4,7.2,21,6.7,21,6.7s0.2-0.9-0.6-1.5s-0.9-0.9-2.2-0.9c-1.2,0-1.4,0.2-2.1,0.9
		c-0.7,0.7-1,1.5-1,1.5s-0.7,0.9-1.1,1.8C13.6,9.7,14,12.1,14,12.1z"/>
	<g id="冠">
		<path class="st3" d="M26.2,18.4c-0.4-0.8-2.2-4.4-2.4-6.1c-0.1-0.6-0.4-1.8-0.5-2.3c-0.1-1.3-0.2-1.9-0.5-3.9
			c-0.5-2.4-1.5-3.7-2.2-3.9C20,2,19.5,2,19.2,2.1C19,2.3,19,2.8,19,2.8l-2,0c0-0.1,0-1.4,1.1-2.2c0.8-0.6,1.8-0.7,3.1-0.4
			c1.8,0.5,3.1,2.5,3.7,5.5c0.4,2.2,0.6,5.8,1.2,7.3c0.3,1,1.1,2.6,2,4.5L26.2,18.4z"/>
		<path id="冠下" class="st3" d="M14.2,8.3c0,0,1.2-0.2,2.9-0.2c1.7,0,5.3,0.2,5.3,0.2l-0.4-1.7c-0.1-0.3-0.3-0.5-0.6-0.5
			c-0.7-0.1-2.2-0.2-4.2-0.2c-1.4,0-2.4,0.4-2.4,0.4L14.2,8.3z"/>
		<path id="冠上" class="st3" d="M19.9,4.5c0-0.4,0-1-0.2-1.5c-0.4-0.9-0.7-1.4-1.5-1.5c-0.8-0.1-1.3,0.4-1.9,1.3
			C16.1,3,16,3.7,16,4.1c0,0-0.3,2.1-0.3,2.1L20,6.6C20,6.6,20,4.4,19.9,4.5z"/>
	</g>
	<path id="耳男" class="st6" d="M22.7,11.7c0.2-0.6,1-1,1.5-0.3c0.3,0.5-0.1,1.3-0.1,1.4s0.4,1.4-0.2,1.9c-0.5,0.4-1.1,0-1.1,0
		s-0.3-1.4-0.2-2C22.6,12.2,22.7,11.7,22.7,11.7z"/>
	<g id="眉目やさしい">
		<g id="眉_00000059278337859623208290000009714789687849173923_">
			<path id="眉_00000136411035978530401480000015852186490993348003_" class="st3" d="M17.1,11.3c-0.8-1.1-2.3-1-3.2,0
				C14.5,9.9,16.5,9.8,17.1,11.3L17.1,11.3z"/>
			<path id="眉_00000100368690618792447440000002775067244884898993_" class="st3" d="M18,11.3c0.6-1.4,2.6-1.3,3.2,0
				C20.3,10.2,18.8,10.1,18,11.3L18,11.3z"/>
		</g>
		<g id="目">
			<path class="st3" d="M14.2,12.2c0,0,0.4-1.2,1.1-1.1c0.8,0,1.5,1.1,1.5,1.1S16.1,13,15.5,13S14.2,12.2,14.2,12.2z"/>
			<path class="st3" d="M20.8,12.2c0,0-0.4-1.2-1.1-1.1c-0.8,0-1.5,1.1-1.5,1.1s0.7,0.7,1.3,0.7C20.1,13,20.8,12.2,20.8,12.2z"/>
		</g>
	</g>
	<g id="袖男">
		<path id="袖_00000152984715657555841480000012025140313330092970_" class="st4" d="M18.3,21.5l-4.5,1.5l0.6,7.9
			c0.2,1.9,1.3,3.2,2.5,2.9l3.3-0.8"/>
		<path class="st9" d="M16.5,34.3c-0.4,0-0.9-0.2-1.3-0.5c-0.8-0.6-1.3-1.7-1.4-3l-0.7-8.3l4.9-1.6c0.3-0.1,0.5,0.1,0.6,0.4
			c0.1,0.3-0.1,0.6-0.3,0.7l-4.1,1.3l0.6,7.4c0.1,1,0.4,1.8,1,2.2c0.3,0.2,0.6,0.3,0.9,0.2l3.3-0.8c0.3-0.1,0.5,0.1,0.6,0.4
			c0.1,0.3-0.1,0.6-0.4,0.6L17,34.2C16.8,34.3,16.7,34.3,16.5,34.3z"/>
	</g>
	<polygon class="st5" points="2.3,29 0,30.4 0,22.6 2.3,24 	"/>
</g>



</svg>