<?xml version="1.0" encoding="UTF-8"?>
<svg xmlns="http://www.w3.org/2000/svg" viewBox="0 0 28 40">
  <defs>
    <style>
      .cls-1 {
        fill: #fff;
      }

      .cls-2 {
        fill: #7c7c7c;
      }

      .cls-3 {
        fill: gray;
      }

      .cls-4 {
        fill: #697caf;
      }

      .cls-5 {
        fill: #ccc;
      }

      .cls-6 {
        fill: #f2f2f2;
      }

      .cls-7 {
        fill: red;
      }
    </style>
  </defs>
  <g id="_ピン" data-name="ピン">
    <g>
      <g>
        <polygon class="cls-3" points="15 40 13 40 12 30 16 30 15 40"/>
        <rect class="cls-5" x="14" y="30" width="1" height="10"/>
      </g>
      <g>
        <rect class="cls-3" x="12" y="20" width="4" height="10"/>
        <rect class="cls-5" x="14" y="20" width="1" height="10"/>
      </g>
    </g>
  </g>
  <g id="_ノーマル" data-name="ノーマル">
    <path id="_富士山" data-name="富士山" class="cls-4" d="M22,12c-2.5-3.5-4.43-12-4.43-12h-7.13s-1.93,8.5-4.43,12C4.31,14.37,0,20,0,20H28s-4.31-5.63-6-8Z"/>
    <g id="_山頂" data-name="山頂">
      <path class="cls-1" d="M17,1h-6s-.58,3.03-1.5,6.22l2.88-2.22,1.62,3,1.62-3,2.88,2.22c-.92-3.19-1.5-6.22-1.5-6.22Z"/>
    </g>
  </g>
  <g id="_消失" data-name="消失">
    <g>
      <path id="_富士山-2" data-name="富士山" class="cls-2" d="M22,12c-2.5-3.5-4.43-12-4.43-12h-7.13s-1.93,8.5-4.43,12c-1.69,2.37-6,8-6,8H28s-4.31-5.63-6-8Z"/>
      <g id="_山頂-2" data-name="山頂">
        <path class="cls-1" d="M17,1h-6s-.58,3.03-1.5,6.22l2.88-2.22,1.62,3,1.62-3,2.88,2.22c-.92-3.19-1.5-6.22-1.5-6.22Z"/>
      </g>
    </g>
    <g>
      <rect class="cls-7" x="9.19" y="11.2" width="16.61" height="16.61" rx="3" ry="3" transform="translate(-8.66 18.08) rotate(-45)"/>
      <g>
        <rect class="cls-6" x="16.12" y="12.64" width="2.75" height="13.73" rx="1.26" ry="1.26" transform="translate(18.91 -6.66) rotate(45)"/>
        <rect class="cls-6" x="10.63" y="18.13" width="13.73" height="2.75" rx="1.26" ry="1.26" transform="translate(18.91 -6.66) rotate(45)"/>
      </g>
    </g>
  </g>
</svg>