<?xml version="1.0" encoding="UTF-8"?>
<svg xmlns="http://www.w3.org/2000/svg" viewBox="0 0 28 40">
  <defs>
    <style>
      .cls-1, .cls-2 {
        fill: #fff;
      }

      .cls-2 {
        opacity: .3;
      }

      .cls-3 {
        fill: gray;
      }

      .cls-4 {
        fill: #697caf;
      }

      .cls-5 {
        fill: #ffce00;
      }

      .cls-6 {
        fill: #ccc;
      }
    </style>
  </defs>
  <g id="_ピン" data-name="ピン">
    <g>
      <g>
        <polygon class="cls-3" points="15 40 13 40 12 30 16 30 15 40"/>
        <rect class="cls-6" x="14" y="30" width="1" height="10"/>
      </g>
      <g>
        <rect class="cls-3" x="12" y="20" width="4" height="10"/>
        <rect class="cls-6" x="14" y="20" width="1" height="10"/>
      </g>
    </g>
  </g>
  <g id="_ノーマル" data-name="ノーマル">
    <path id="_富士山" data-name="富士山" class="cls-4" d="M22,12c-2.5-3.5-4.43-12-4.43-12h-7.13s-1.93,8.5-4.43,12C4.31,14.37,0,20,0,20H28s-4.31-5.63-6-8Z"/>
    <g id="_山頂" data-name="山頂">
      <path class="cls-1" d="M17,1h-6s-.58,3.03-1.5,6.22l2.88-2.22,1.62,3,1.62-3,2.88,2.22c-.92-3.19-1.5-6.22-1.5-6.22Z"/>
    </g>
  </g>
  <g id="_要調査" data-name="要調査">
    <path id="_白ベール" data-name="白ベール" class="cls-2" d="M10.07,0h9.17c4.84,0,8.76,3.93,8.76,8.76v11.24H0V10.07C0,4.51,4.51,0,10.07,0Z"/>
    <g>
      <rect class="cls-5" x="9.19" y="11.19" width="16.61" height="16.61" rx="3" ry="3" transform="translate(-8.66 18.08) rotate(-45)"/>
      <path d="M18.75,23.83c0,.7-.56,1.26-1.25,1.26s-1.25-.56-1.25-1.26,.56-1.25,1.25-1.25,1.25,.56,1.25,1.25Zm-.57-2.88c-.07,.46-.16,.78-.69,.78s-.61-.35-.66-.78l-.46-3.49v-2.5c0-.78,.42-1.05,1.16-1.05s1.11,.31,1.11,1.05v2.5l-.46,3.49Z"/>
    </g>
  </g>
</svg>