<?xml version="1.0" encoding="UTF-8"?>
<svg xmlns="http://www.w3.org/2000/svg" viewBox="0 0 28 40">
  <defs>
    <style>
      .cls-1 {
        fill: #fff;
      }

      .cls-2 {
        fill: gray;
      }

      .cls-3 {
        fill: #697caf;
      }

      .cls-4 {
        fill: #ccc;
      }
    </style>
  </defs>
  <g id="_ピン" data-name="ピン">
    <g>
      <g>
        <polygon class="cls-2" points="15 40 13 40 12 30 16 30 15 40"/>
        <rect class="cls-4" x="14" y="30" width="1" height="10"/>
      </g>
      <g>
        <rect class="cls-2" x="12" y="20" width="4" height="10"/>
        <rect class="cls-4" x="14" y="20" width="1" height="10"/>
      </g>
    </g>
  </g>
  <g id="_ノーマル" data-name="ノーマル">
    <path id="_富士山" data-name="富士山" class="cls-3" d="M22,12c-2.5-3.5-4.43-12-4.43-12h-7.13s-1.93,8.5-4.43,12C4.31,14.37,0,20,0,20H28s-4.31-5.63-6-8Z"/>
    <g id="_山頂" data-name="山頂">
      <path class="cls-1" d="M17,1h-6s-.58,3.03-1.5,6.22l2.88-2.22,1.62,3,1.62-3,2.88,2.22c-.92-3.19-1.5-6.22-1.5-6.22Z"/>
    </g>
  </g>
</svg>