<?xml version="1.0" encoding="utf-8"?>
<!-- Generator: Adobe Illustrator 27.1.1, SVG Export Plug-In . SVG Version: 6.00 Build 0)  -->
<svg version="1.1" xmlns="http://www.w3.org/2000/svg" xmlns:xlink="http://www.w3.org/1999/xlink" x="0px" y="0px" viewBox="0 0 28 40" style="enable-background:new 0 0 28 40;" xml:space="preserve">
<style type="text/css">
	.st0{display:none;}
	.st1{fill:#808080;}
	.st2{fill:#CCCCCC;}
	.st3{fill:#697CAF;}
	.st4{fill:#FFFFFF;}
	.st5{fill:#1B1464;}
	.st6{fill:#2E3192;}
	.st7{opacity:0.3;fill:#FFFFFF;}
	.st8{fill:#FFCE00;}
	.st9{fill:#7C7C7C;}
	.st10{fill:#FF0000;}
	.st11{fill:#F2F2F2;}
</style>
<g id="ガイド_00000162338702563158607440000009963323815856875396_" class="st0">
</g>
<g id="ピン">
	<g>
		<g>
			<polygon class="st1" points="15,40 13,40 12,30 16,30 			"/>
			<rect x="14" y="30" class="st2" width="1" height="10"/>
		</g>
		<g>
			<rect x="12" y="20" class="st1" width="4" height="10"/>
			<rect x="14" y="20" class="st2" width="1" height="10"/>
		</g>
	</g>
</g>
<g id="ノーマル">
	<path id="富士山" class="st3" d="M22,12c-2.5-3.5-4.4-12-4.4-12H14h-3.6c0,0-1.9,8.5-4.4,12c-1.7,2.4-6,8-6,8h14h14
		C28,20,23.7,14.4,22,12z"/>
	<g id="山頂">
		<path class="st4" d="M17,1h-3h-3c0,0-0.6,3-1.5,6.2L12.4,5L14,8l1.6-3l2.9,2.2C17.6,4,17,1,17,1z"/>
	</g>
</g>

<g id="要調査">
	<path id="白ベール" class="st7" d="M28,20H0v-9.9C0,4.5,4.5,0,10.1,0h9.2C24.1,0,28,3.9,28,8.8V20z"/>
	<g>
		<path class="st8" d="M27.1,21.6l-7.5,7.5c-1.2,1.2-3.1,1.2-4.2,0l-7.5-7.5c-1.2-1.2-1.2-3.1,0-4.2l7.5-7.5c1.2-1.2,3.1-1.2,4.2,0
			l7.5,7.5C28.3,18.5,28.3,20.5,27.1,21.6z"/>
		<g>
			<path d="M18.7,23.8c0,0.7-0.6,1.3-1.2,1.3s-1.3-0.6-1.3-1.3c0-0.7,0.6-1.2,1.3-1.2S18.7,23.1,18.7,23.8z M18.2,21
				c-0.1,0.5-0.2,0.8-0.7,0.8c-0.5,0-0.6-0.4-0.7-0.8l-0.5-3.5V15c0-0.8,0.4-1.1,1.2-1.1c0.7,0,1.1,0.3,1.1,1.1v2.5L18.2,21z"/>
		</g>
	</g>
</g>

</svg>