<?xml version="1.0" encoding="UTF-8"?>
<svg xmlns="http://www.w3.org/2000/svg" viewBox="0 0 28 40">
  <defs>
    <style>
      .cls-1 {
        fill: #797979;
      }

      .cls-2 {
        fill: #fff;
      }

      .cls-3 {
        fill: #848484;
      }

      .cls-4 {
        fill: #39b54a;
      }

      .cls-5 {
        fill: gray;
      }

      .cls-6 {
        fill: #a96e2d;
      }

      .cls-7 {
        fill: #ccc;
      }

      .cls-8 {
        fill: #f2f2f2;
      }

      .cls-9 {
        fill: red;
      }
    </style>
  </defs>
  <g id="_ピン" data-name="ピン">
    <g>
      <polygon class="cls-5" points="15 40 13 40 12 30 16 30 15 40"/>
      <rect class="cls-7" x="14" y="30" width="1" height="10"/>
    </g>
  </g>
  <g id="_ノーマル" data-name="ノーマル">
    <circle id="_水" data-name="水" class="cls-5" cx="14" cy="17.54" r="5.01"/>
    <g id="_地" data-name="地">
      <rect class="cls-2" x="7.63" y="21.68" width="12.74" height="6.28"/>
      <rect class="cls-5" x="7.63" y="22.29" width="12.74" height="5.79"/>
    </g>
    <g id="_風" data-name="風">
      <polygon class="cls-2" points="11.31 7.52 10.17 4.29 17.83 4.29 16.69 7.52 14 7.57 11.31 7.52"/>
      <polygon class="cls-5" points="14 4.74 10.81 4.74 11.64 7.08 14 7.12 16.36 7.08 17.19 4.74 14 4.74"/>
    </g>
    <g id="_火" data-name="火">
      <path class="cls-2" d="M8.59,13.2c-.52,0-.96-.39-1.03-.9l-.46-3.46h1.43c.06-.02,.47-.21,1.95-1.69,.28-.28,.67-.43,1.12-.43,.18,0,.33,.03,.42,.04h3.95c.08-.02,.23-.04,.42-.04,.45,0,.83,.15,1.12,.43,1.48,1.48,1.89,1.67,1.99,1.69h1.4s-.46,3.46-.46,3.46c-.07,.51-.51,.9-1.02,.9H8.59Z"/>
      <path class="cls-5" d="M19.46,9.29c-.46,0-1.82-1.37-2.28-1.82s-1.16-.26-1.16-.26h-4.06s-.7-.2-1.16,.26-1.82,1.82-2.28,1.82h-.91l.39,2.95c.04,.29,.28,.5,.57,.5h10.82c.29,0,.54-.22,.57-.5l.39-2.95h-.91Z"/>
    </g>
    <path id="_空" data-name="空" class="cls-5" d="M16.96,2.95c-.23-1.82-2.5-2.73-2.5-2.73l-.46-.22-.46,.22s-2.28,.91-2.5,2.73c-.11,.9,.42,1.33,.42,1.33h5.08s.53-.43,.42-1.33Z"/>
    <g id="_地面" data-name="地面">
      <path id="_草" data-name="草" class="cls-4" d="M2.4,29c-.44-1.34-.51-2.22-1.31-3.5,1.67-.06,2.41,2.38,1.31,3.5h0Z"/>
      <path id="_草-2" data-name="草" class="cls-4" d="M26.58,29c-1.1-1.12-.36-3.56,1.31-3.5-.8,1.28-.87,2.16-1.31,3.5h0Z"/>
      <path id="_草-3" data-name="草" class="cls-4" d="M25.82,29.5c-1.16-2.29-.63-6.07,2.07-7-1.67,2.1-1.73,4.49-2.07,7h0Z"/>
      <rect id="_地面-2" data-name="地面" class="cls-6" y="28" width="28" height="2"/>
    </g>
  </g>
  <g id="_消失" data-name="消失">
    <g>
      <circle id="_水-2" data-name="水" class="cls-5" cx="14" cy="17.54" r="5.01"/>
      <g id="_地-2" data-name="地">
        <rect class="cls-2" x="7.63" y="21.68" width="12.74" height="6.28"/>
        <rect class="cls-5" x="7.63" y="22.29" width="12.74" height="5.79"/>
      </g>
      <g id="_風-2" data-name="風">
        <polygon class="cls-2" points="11.31 7.52 10.17 4.29 17.83 4.29 16.69 7.52 14 7.57 11.31 7.52"/>
        <polygon class="cls-5" points="14 4.74 10.81 4.74 11.64 7.08 14 7.12 16.36 7.08 17.19 4.74 14 4.74"/>
      </g>
      <g id="_火-2" data-name="火">
        <path class="cls-2" d="M8.59,13.2c-.52,0-.96-.39-1.03-.9l-.46-3.46h1.43c.06-.02,.47-.21,1.95-1.69,.28-.28,.67-.43,1.12-.43,.18,0,.33,.03,.42,.04h3.95c.08-.02,.23-.04,.42-.04,.45,0,.83,.15,1.12,.43,1.48,1.48,1.89,1.67,1.99,1.69h1.4s-.46,3.46-.46,3.46c-.07,.51-.51,.9-1.02,.9H8.59Z"/>
        <path class="cls-5" d="M19.46,9.29c-.46,0-1.82-1.37-2.28-1.82s-1.16-.26-1.16-.26h-4.06s-.7-.2-1.16,.26-1.82,1.82-2.28,1.82h-.91l.39,2.95c.04,.29,.28,.5,.57,.5h10.82c.29,0,.54-.22,.57-.5l.39-2.95h-.91Z"/>
      </g>
      <path id="_空-2" data-name="空" class="cls-5" d="M16.96,2.95c-.23-1.82-2.5-2.73-2.5-2.73l-.46-.22-.46,.22s-2.28,.91-2.5,2.73c-.11,.9,.42,1.33,.42,1.33h5.08s.53-.43,.42-1.33Z"/>
      <g id="_地面-3" data-name="地面">
        <path id="_草-4" data-name="草" class="cls-3" d="M2.4,29c-.44-1.34-.51-2.22-1.31-3.5,1.67-.06,2.41,2.38,1.31,3.5h0Z"/>
        <path id="_草-5" data-name="草" class="cls-3" d="M26.58,29c-1.1-1.12-.36-3.56,1.31-3.5-.8,1.28-.87,2.16-1.31,3.5h0Z"/>
        <path id="_草-6" data-name="草" class="cls-3" d="M25.82,29.5c-1.16-2.29-.63-6.07,2.07-7-1.67,2.1-1.73,4.49-2.07,7h0Z"/>
        <rect id="_地面-4" data-name="地面" class="cls-1" y="28" width="28" height="2"/>
      </g>
    </g>
    <g>
      <rect class="cls-9" x="9.2" y="10.95" width="16.61" height="16.61" rx="3" ry="3" transform="translate(-8.49 18.02) rotate(-45)"/>
      <g>
        <rect class="cls-8" x="16.13" y="12.39" width="2.75" height="13.73" rx="1.26" ry="1.26" transform="translate(18.74 -6.73) rotate(45)"/>
        <rect class="cls-8" x="10.64" y="17.88" width="13.73" height="2.75" rx="1.26" ry="1.26" transform="translate(18.74 -6.73) rotate(45)"/>
      </g>
    </g>
  </g>
</svg>