<?xml version="1.0" encoding="utf-8"?>
<!-- Generator: Adobe Illustrator 27.1.1, SVG Export Plug-In . SVG Version: 6.00 Build 0)  -->
<svg version="1.1" xmlns="http://www.w3.org/2000/svg" xmlns:xlink="http://www.w3.org/1999/xlink" x="0px" y="0px" viewBox="0 0 28 40" style="enable-background:new 0 0 28 40;" xml:space="preserve">
<style type="text/css">
	.st0{display:none;}
	.st1{fill:#808080;}
	.st2{fill:#CCCCCC;}
	.st3{fill:#F15A24;}
	.st4{fill:url(#SVGID_1_);}
	.st5{fill:#1B1464;}
	.st6{fill:#FFFFFF;}
	.st7{fill:#2E3192;}
	.st8{opacity:0.3;fill:#FFFFFF;}
	.st9{fill:#FFCE00;}
	.st10{fill:#818181;}
	.st11{fill:url(#SVGID_00000150809867352177226540000017536826047257784204_);}
	.st12{fill:#FF0000;}
	.st13{fill:#F2F2F2;}
</style>
<g id="ガイド_00000162338702563158607440000009963323815856875396_" class="st0">
</g>
<g id="ピン">
	<g>
		<g>
			<polygon class="st1" points="15,40 13,40 12,30 16,30 			"/>
			<rect x="14" y="30" class="st2" width="1" height="10"/>
		</g>
		<g>
			<rect x="12" y="20" class="st1" width="4" height="10"/>
			<rect x="14" y="20" class="st2" width="1" height="10"/>
		</g>
	</g>
</g>
<g id="ノーマル">
	<circle class="st3" cx="14" cy="11" r="11"/>
	<radialGradient id="SVGID_1_" cx="14" cy="23.6076" r="10.8826" fx="14.0246" fy="19.1858" gradientUnits="userSpaceOnUse">
		<stop offset="0" style="stop-color:#FBB03B"/>
		<stop offset="1" style="stop-color:#2E3192"/>
		<stop offset="1" style="stop-color:#2E3192"/>
	</radialGradient>
	<path class="st4" d="M0,30v-9l9.1-3.6c0.6-0.2,1.3-0.2,1.8,0.1L18,21l2.7-1.3c0.8-0.4,1.8-0.3,2.5,0.3l4.9,4v6H0z"/>
</g>
<g id="画像なし">
	<g id="画像なし_00000052826117572747028460000016017265853480651424_">
		<path class="st5" d="M27.1,21.6l-7.5,7.5c-1.2,1.2-3.1,1.2-4.2,0l-7.5-7.5c-1.2-1.2-1.2-3.1,0-4.2l7.5-7.5c1.2-1.2,3.1-1.2,4.2,0
			l7.5,7.5C28.3,18.5,28.3,20.5,27.1,21.6z"/>
		<path id="カメラ" class="st6" d="M22,15.5h-1.5l-0.8-1.6c-0.1-0.2-0.3-0.4-0.6-0.4h-3.2c-0.2,0-0.5,0.1-0.6,0.4l-0.8,1.6H13
			c-0.9,0-1.5,0.7-1.5,1.5V22c0,0.9,0.7,1.5,1.5,1.5H22c0.9,0,1.5-0.7,1.5-1.5V17C23.5,16.2,22.8,15.5,22,15.5z M17.5,22
			c-1.4,0-2.5-1.1-2.5-2.5c0-1.4,1.1-2.5,2.5-2.5c1.4,0,2.5,1.1,2.5,2.5C20,20.9,18.9,22,17.5,22z"/>
		<g id="斜線">
			<rect x="10.3" y="18.6" transform="matrix(0.7071 0.7071 -0.7071 0.7071 18.7662 -7.0127)" class="st7" width="15" height="1"/>
			<rect x="9.6" y="19.4" transform="matrix(0.7071 0.7071 -0.7071 0.7071 19.0591 -6.3056)" class="st6" width="15" height="1"/>
		</g>
	</g>
</g>


</svg>