<?xml version="1.0" encoding="utf-8"?>
<!-- Generator: Adobe Illustrator 27.1.1, SVG Export Plug-In . SVG Version: 6.00 Build 0)  -->
<svg version="1.1" xmlns="http://www.w3.org/2000/svg" xmlns:xlink="http://www.w3.org/1999/xlink" x="0px" y="0px" viewBox="0 0 28 40" style="enable-background:new 0 0 28 40;" xml:space="preserve">
<style type="text/css">
	.st0{display:none;}
	.st1{fill:#808080;}
	.st2{fill:#CCCCCC;}
	.st3{display:inline;fill:#808080;}
	.st4{display:inline;fill:#CCCCCC;}
	.st5{fill:#CDA781;}
	.st6{fill:#A67C52;}
	.st7{fill:#603813;}
	.st8{fill:#C7B299;}
	.st9{fill:#1B1464;}
	.st10{fill:#FFFFFF;}
	.st11{fill:#2E3192;}
	.st12{opacity:0.3;fill:#FFFFFF;}
	.st13{fill:#FFCE00;}
	.st14{fill:#AEAEAE;}
	.st15{fill:#848484;}
	.st16{fill:#404040;}
	.st17{fill:#B6B6B6;}
	.st18{fill:#FF0000;}
	.st19{fill:#F2F2F2;}
</style>
<g id="ガイド_00000162338702563158607440000009963323815856875396_" class="st0">
</g>
<g id="ピン">
	<g>
		<g>
			<polygon class="st1" points="15,40 13,40 12,30 16,30 			"/>
			<rect x="14" y="30" class="st2" width="1" height="10"/>
		</g>
		<g class="st0">
			<rect x="12" y="20" class="st3" width="4" height="10"/>
			<rect x="14" y="20" class="st4" width="1" height="10"/>
		</g>
	</g>
</g>
<g id="ノーマル">
	<g id="扉">
		<rect x="7" y="24" class="st5" width="14" height="10"/>
		<rect x="13.5" y="23.8" class="st6" width="1" height="10"/>
	</g>
	<polygon id="柱" class="st6" points="22.3,29.9 22.3,20 19.9,20 19.9,29.9 17.5,29.9 17.5,33.8 10.5,33.8 10.5,29.9 8.1,29.9 
		8.1,20 5.7,20 5.7,29.9 3.4,29.9 3.4,35 9.7,35 10.5,35 17.5,35 18.3,35 24.6,35 24.6,29.9 	"/>
	<g id="屋根_00000042001436421146113630000007507591227388642193_">
		<path id="屋根" class="st7" d="M21,15.8c-3-2-6.1-5.8-6.1-5.8H14h-0.9c0,0-3.1,3.8-6.1,5.8s-7,3.2-7,3.2l1,4.7l13,0.3l13-0.3
			l1-4.7C28,19.1,24,17.8,21,15.8z"/>
		<path id="屋根_00000131354469052975202490000016161526188632633499_" class="st6" d="M3.8,19.8c1.5-0.6,3.3-1.5,4.8-2.5
			c2-1.4,4.1-3.4,5.3-4.8c1.3,1.4,3.3,3.5,5.3,4.8c1.6,1.1,3.4,1.9,4.8,2.5L14,20.1L3.8,19.8z"/>
		<ellipse class="st8" cx="14" cy="17" rx="1.5" ry="2.5"/>
	</g>
	<path id="千木" class="st6" d="M18.5,3V0c-0.4,0.7-2.6,4.6-4.4,6.8c0,0-0.1,0.1-0.1,0.1c0,0-0.1-0.1-0.1-0.1
		c-1.8-2.2-4-6.1-4.4-6.8v3c0.9,1.5,2.3,2.9,3.6,4.4c0.1,0.1,0.2,0.2,0.2,0.3c-1.5,1.8-3.6,4-3.6,4l0.6,0.8c0.1-0.1,2.1-2.2,3.7-4
		c1.6,1.9,3.6,4,3.7,4l0.6-0.8c0,0-2.1-2.2-3.6-4c0.1-0.1,0.2-0.2,0.2-0.3C16.2,5.9,17.6,4.5,18.5,3z"/>
	<rect id="鰹木" x="9.8" y="8.6" class="st6" width="8.4" height="1.3"/>
</g>
<g id="画像なし">
	<g id="画像なし_00000052826117572747028460000016017265853480651424_">
		<path class="st9" d="M27.1,26.6l-7.5,7.5c-1.2,1.2-3.1,1.2-4.2,0l-7.5-7.5c-1.2-1.2-1.2-3.1,0-4.2l7.5-7.5c1.2-1.2,3.1-1.2,4.2,0
			l7.5,7.5C28.3,23.5,28.3,25.5,27.1,26.6z"/>
		<path id="カメラ" class="st10" d="M22,20.5h-1.5l-0.8-1.6c-0.1-0.2-0.3-0.4-0.6-0.4h-3.2c-0.2,0-0.5,0.1-0.6,0.4l-0.8,1.6H13
			c-0.9,0-1.5,0.7-1.5,1.5V27c0,0.9,0.7,1.5,1.5,1.5H22c0.9,0,1.5-0.7,1.5-1.5V22C23.5,21.2,22.8,20.5,22,20.5z M17.5,27
			c-1.4,0-2.5-1.1-2.5-2.5c0-1.4,1.1-2.5,2.5-2.5c1.4,0,2.5,1.1,2.5,2.5C20,25.9,18.9,27,17.5,27z"/>
		<g id="斜線">
			<rect x="10.3" y="23.6" transform="matrix(0.7071 0.7071 -0.7071 0.7071 22.3017 -5.5482)" class="st11" width="15" height="1"/>
			<rect x="9.6" y="24.4" transform="matrix(0.7071 0.7071 -0.7071 0.7071 22.5946 -4.8411)" class="st10" width="15" height="1"/>
		</g>
	</g>
</g>


</svg>