<?xml version="1.0" encoding="UTF-8"?>
<svg xmlns="http://www.w3.org/2000/svg" viewBox="0 0 28 40">
  <defs>
    <style>
      .cls-1 {
        fill: #848484;
      }

      .cls-2 {
        fill: #aeaeae;
      }

      .cls-3 {
        fill: #c7b299;
      }

      .cls-4 {
        fill: #cda781;
      }

      .cls-5 {
        fill: #a67c52;
      }

      .cls-6 {
        fill: #603813;
      }

      .cls-7 {
        fill: gray;
      }

      .cls-8 {
        fill: #b6b6b6;
      }

      .cls-9 {
        fill: #ccc;
      }

      .cls-10 {
        fill: #404040;
      }

      .cls-11 {
        fill: #f2f2f2;
      }

      .cls-12 {
        fill: red;
      }
    </style>
  </defs>
  <g id="_ピン" data-name="ピン">
    <g>
      <polygon class="cls-7" points="15 40 13 40 12 30 16 30 15 40"/>
      <rect class="cls-9" x="14" y="30" width="1" height="10"/>
    </g>
  </g>
  <g id="_ノーマル" data-name="ノーマル">
    <g id="_扉" data-name="扉">
      <rect class="cls-4" x="7" y="24" width="14" height="10"/>
      <rect class="cls-5" x="13.5" y="23.75" width="1" height="10"/>
    </g>
    <polygon id="_柱" data-name="柱" class="cls-5" points="22.28 29.94 22.28 20 19.92 20 19.92 29.94 17.55 29.94 17.55 33.81 10.45 33.81 10.45 29.94 8.08 29.94 8.08 20 5.72 20 5.72 29.94 3.35 29.94 3.35 35.03 9.66 35.03 10.45 35.03 17.55 35.03 18.34 35.03 24.65 35.03 24.65 29.94 22.28 29.94"/>
    <g id="_屋根" data-name="屋根">
      <path id="_屋根-2" data-name="屋根" class="cls-6" d="M21,15.82c-3-2-6.06-5.82-6.06-5.82h-1.89s-3.06,3.82-6.06,5.82S0,19.06,0,19.06l1.04,4.71,12.96,.28,12.96-.28,1.04-4.71s-4-1.25-7-3.25Z"/>
      <path id="_屋根-3" data-name="屋根" class="cls-5" d="M3.83,19.83c1.46-.61,3.25-1.47,4.83-2.52,2.04-1.36,4.05-3.4,5.34-4.81,1.28,1.42,3.29,3.45,5.34,4.81,1.58,1.05,3.37,1.91,4.83,2.52l-10.17,.22-10.17-.22Z"/>
      <ellipse class="cls-3" cx="14" cy="17" rx="1.5" ry="2.5"/>
    </g>
    <path id="_千木" data-name="千木" class="cls-5" d="M18.5,3V0c-.38,.68-2.6,4.59-4.39,6.82-.03,.04-.07,.09-.11,.13-.04-.04-.07-.09-.11-.13C12.1,4.59,9.88,.68,9.5,0V3c.92,1.55,2.35,2.87,3.61,4.45,.08,.09,.16,.19,.24,.29-1.54,1.8-3.61,3.96-3.63,3.98l.57,.82c.1-.07,2.12-2.17,3.71-4.03,1.59,1.85,3.61,3.95,3.71,4.03l.57-.82s-2.09-2.18-3.63-3.98c.08-.1,.16-.2,.24-.29,1.26-1.58,2.69-2.9,3.61-4.45Z"/>
    <rect id="_鰹木" data-name="鰹木" class="cls-5" x="9.8" y="8.6" width="8.4" height="1.3"/>
  </g>
  <g id="_消失" data-name="消失">
    <g>
      <g id="_扉-2" data-name="扉">
        <rect class="cls-2" x="7" y="24" width="14" height="10"/>
        <rect class="cls-1" x="13.5" y="23.75" width="1" height="10"/>
      </g>
      <polygon id="_柱-2" data-name="柱" class="cls-1" points="22.28 29.94 22.28 20 19.92 20 19.92 29.94 17.55 29.94 17.55 33.81 10.45 33.81 10.45 29.94 8.08 29.94 8.08 20 5.72 20 5.72 29.94 3.35 29.94 3.35 35.03 9.66 35.03 10.45 35.03 17.55 35.03 18.34 35.03 24.65 35.03 24.65 29.94 22.28 29.94"/>
      <g id="_屋根-4" data-name="屋根">
        <path id="_屋根-5" data-name="屋根" class="cls-10" d="M21,15.82c-3-2-6.06-5.82-6.06-5.82h-1.89s-3.06,3.82-6.06,5.82S0,19.06,0,19.06l1.04,4.71,12.96,.28,12.96-.28,1.04-4.71s-4-1.25-7-3.25Z"/>
        <path id="_屋根-6" data-name="屋根" class="cls-1" d="M3.83,19.83c1.46-.61,3.25-1.47,4.83-2.52,2.04-1.36,4.05-3.4,5.34-4.81,1.28,1.42,3.29,3.45,5.34,4.81,1.58,1.05,3.37,1.91,4.83,2.52l-10.17,.22-10.17-.22Z"/>
        <ellipse class="cls-8" cx="14" cy="17" rx="1.5" ry="2.5"/>
      </g>
      <path id="_千木-2" data-name="千木" class="cls-1" d="M18.5,3V0c-.38,.68-2.6,4.59-4.39,6.82-.03,.04-.07,.09-.11,.13-.04-.04-.07-.09-.11-.13C12.1,4.59,9.88,.68,9.5,0V3c.92,1.55,2.35,2.87,3.61,4.45,.08,.09,.16,.19,.24,.29-1.54,1.8-3.61,3.96-3.63,3.98l.57,.82c.1-.07,2.12-2.17,3.71-4.03,1.59,1.85,3.61,3.95,3.71,4.03l.57-.82s-2.09-2.18-3.63-3.98c.08-.1,.16-.2,.24-.29,1.26-1.58,2.69-2.9,3.61-4.45Z"/>
      <rect id="_鰹木-2" data-name="鰹木" class="cls-1" x="9.8" y="8.6" width="8.4" height="1.3"/>
    </g>
    <g>
      <rect class="cls-12" x="9.19" y="15.95" width="16.61" height="16.61" rx="3" ry="3" transform="translate(-12.03 19.48) rotate(-45)"/>
      <g>
        <rect class="cls-11" x="16.12" y="17.39" width="2.75" height="13.73" rx="1.26" ry="1.26" transform="translate(22.28 -5.27) rotate(45)"/>
        <rect class="cls-11" x="10.63" y="22.88" width="13.73" height="2.75" rx="1.26" ry="1.26" transform="translate(22.28 -5.27) rotate(45)"/>
      </g>
    </g>
  </g>
</svg>