<?xml version="1.0" encoding="UTF-8"?>
<svg xmlns="http://www.w3.org/2000/svg" viewBox="0 0 28 40">
  <defs>
    <style>
      .cls-1 {
        fill: #fff;
      }

      .cls-2 {
        fill: #39b54a;
      }

      .cls-3 {
        fill: gray;
      }

      .cls-4 {
        fill: #a96e2d;
      }

      .cls-5 {
        fill: #ccc;
      }

      .cls-6 {
        fill: #666;
      }
    </style>
  </defs>
  <g id="_ピン" data-name="ピン">
    <g>
      <polygon class="cls-3" points="15 40 13 40 12 30 16 30 15 40"/>
      <rect class="cls-5" x="14" y="30" width="1" height="10"/>
    </g>
  </g>
  <g id="_ノーマル" data-name="ノーマル">
    <polygon id="_塔身" data-name="塔身" class="cls-3" points="18.62 14.34 18.62 13.96 19.49 13.96 19.49 13.57 8.51 13.57 8.51 13.96 9.29 13.96 9.29 14.34 10.16 14.34 10.16 19.68 9.61 19.68 9.61 20.06 8.78 20.06 8.78 20.44 19.22 20.44 19.22 20.06 18.39 20.06 18.39 19.68 17.84 19.68 17.84 14.34 18.62 14.34"/>
    <g id="_九輪下" data-name="九輪下">
      <rect class="cls-6" x="11.8" y="8.62" width="4.39" height=".38"/>
      <rect class="cls-6" x="11.25" y="9" width="5.49" height=".38"/>
      <rect class="cls-6" x="10.71" y="9.38" width="6.59" height="2.29"/>
    </g>
    <g id="_返花" data-name="返花">
      <path class="cls-6" d="M22.36,25.84c-.64-.41-1.23-.82-1.23-.82H6.87s-.59,.41-1.23,.82c-.64,.41-.89,.82-.89,.82H23.26s-.26-.41-.89-.82Z"/>
      <rect class="cls-6" x="3.33" y="26.67" width="21.34" height="1.24"/>
    </g>
    <g id="_隅飾突起" data-name="隅飾突起">
      <g>
        <g>
          <path class="cls-1" d="M15.75,13.05v-1c0-2.06,2.13-3.67,4.84-3.67h0v4.67h-4.84Z"/>
          <path class="cls-6" d="M20.59,9.38c-2.12,0-3.84,1.2-3.84,2.67h3.84v-2.67Z"/>
        </g>
        <g>
          <path class="cls-1" d="M7.41,13.05v-4.67h0c2.72,0,4.84,1.61,4.84,3.67v1H7.41Z"/>
          <path class="cls-6" d="M7.41,9.38c2.12,0,3.84,1.2,3.84,2.67h-3.84v-2.67Z"/>
        </g>
      </g>
      <rect class="cls-6" x="6.86" y="12.05" width="14.28" height="1.14"/>
    </g>
    <path id="_宝珠" data-name="宝珠" class="cls-3" d="M15.64,1.31c-.13-.81-1.39-1.22-1.39-1.22L14,0l-.25,.1s-1.26,.41-1.39,1.22c-.06,.4,.23,.59,.23,.59h2.81s.3-.19,.23-.59Z"/>
    <g id="_基礎" data-name="基礎">
      <rect class="cls-3" x="7.41" y="20.82" width="13.18" height="4.2"/>
    </g>
    <polygon id="_九輪" data-name="九輪" class="cls-6" points="15.11 2.59 16.21 1.83 14.02 1.83 13.98 1.83 11.79 1.83 12.89 2.59 12.89 6.41 12.34 6.79 12.37 7.17 12.37 8.69 13.98 8.69 14.02 8.69 15.63 8.69 15.63 7.17 15.66 6.79 15.11 6.41 15.11 2.59"/>
    <g id="_地面" data-name="地面">
      <path id="_草" data-name="草" class="cls-2" d="M2.4,29c-.44-1.34-.51-2.22-1.31-3.5,1.67-.06,2.41,2.38,1.31,3.5h0Z"/>
      <path id="_草-2" data-name="草" class="cls-2" d="M26.58,29c-1.1-1.12-.36-3.56,1.31-3.5-.8,1.28-.87,2.16-1.31,3.5h0Z"/>
      <path id="_草-3" data-name="草" class="cls-2" d="M25.82,29.5c-1.16-2.29-.63-6.07,2.07-7-1.67,2.1-1.73,4.49-2.07,7h0Z"/>
      <rect id="_地面-2" data-name="地面" class="cls-4" y="28" width="28" height="2"/>
    </g>
  </g>
</svg>