<?xml version="1.0" encoding="utf-8"?>
<!-- Generator: Adobe Illustrator 27.1.1, SVG Export Plug-In . SVG Version: 6.00 Build 0)  -->
<svg version="1.1" xmlns="http://www.w3.org/2000/svg" xmlns:xlink="http://www.w3.org/1999/xlink" x="0px" y="0px" viewBox="0 0 28 40" style="enable-background:new 0 0 28 40;" xml:space="preserve">
<style type="text/css">
	.st0{display:none;}
	.st1{fill:#808080;}
	.st2{fill:#CCCCCC;}
	.st3{display:inline;fill:#808080;}
	.st4{display:inline;fill:#CCCCCC;}
	.st5{fill:#666666;}
	.st6{fill:#FFFFFF;}
	.st7{fill:#39B54A;}
	.st8{fill:#A96E2D;}
	.st9{fill:#1B1464;}
	.st10{fill:#2E3192;}
	.st11{opacity:0.3;fill:#FFFFFF;}
	.st12{fill:#FFCE00;}
	.st13{fill:#848484;}
	.st14{fill:#797979;}
	.st15{fill:#FF0000;}
	.st16{fill:#F2F2F2;}
</style>
<g id="ガイド_00000162338702563158607440000009963323815856875396_" class="st0">
</g>
<g id="ピン">
	<g>
		<g>
			<polygon class="st1" points="15,40 13,40 12,30 16,30 			"/>
			<rect x="14" y="30" class="st2" width="1" height="10"/>
		</g>
		<g class="st0">
			<rect x="12" y="20" class="st3" width="4" height="10"/>
			<rect x="14" y="20" class="st4" width="1" height="10"/>
		</g>
	</g>
</g>
<g id="ノーマル">
	<polygon id="塔身" class="st1" points="18.6,14.3 18.6,14 19.5,14 19.5,13.6 8.5,13.6 8.5,14 9.3,14 9.3,14.3 10.2,14.3 
		10.2,19.7 9.6,19.7 9.6,20.1 8.8,20.1 8.8,20.4 19.2,20.4 19.2,20.1 18.4,20.1 18.4,19.7 17.8,19.7 17.8,14.3 	"/>
	<g id="九輪下">
		<rect x="11.8" y="8.6" class="st5" width="4.4" height="0.4"/>
		<rect x="11.3" y="9" class="st5" width="5.5" height="0.4"/>
		<rect x="10.7" y="9.4" class="st5" width="6.6" height="2.3"/>
	</g>
	<g id="返花">
		<path class="st5" d="M22.4,25.8c-0.6-0.4-1.2-0.8-1.2-0.8H14h0H6.9c0,0-0.6,0.4-1.2,0.8c-0.6,0.4-0.9,0.8-0.9,0.8H14h0h9.2
			C23.3,26.7,23,26.3,22.4,25.8z"/>
		<g>
			<rect x="3.3" y="26.7" class="st5" width="21.3" height="1.2"/>
		</g>
	</g>
	<g id="隅飾突起">
		<g>
			<g>
				<g>
					<path class="st6" d="M15.7,13v-1c0-2.1,2.1-3.7,4.8-3.7l0,0V13H15.7z"/>
				</g>
				<g>
					<path class="st5" d="M20.6,9.4c-2.1,0-3.8,1.2-3.8,2.7h3.8V9.4z"/>
				</g>
			</g>
			<g>
				<g>
					<path class="st6" d="M7.4,13V8.4l0,0c2.7,0,4.8,1.6,4.8,3.7v1H7.4z"/>
				</g>
				<g>
					<path class="st5" d="M7.4,9.4c2.1,0,3.8,1.2,3.8,2.7H7.4V9.4z"/>
				</g>
			</g>
		</g>
		<g>
			<rect x="6.9" y="12" class="st5" width="14.3" height="1.1"/>
		</g>
	</g>
	<path id="宝珠" class="st1" d="M15.6,1.3c-0.1-0.8-1.4-1.2-1.4-1.2L14,0l-0.3,0.1c0,0-1.3,0.4-1.4,1.2c-0.1,0.4,0.2,0.6,0.2,0.6
		H14h1.4C15.4,1.9,15.7,1.7,15.6,1.3z"/>
	<g id="基礎">
		<rect x="7.4" y="20.8" class="st1" width="13.2" height="4.2"/>
	</g>
	<polygon id="九輪" class="st5" points="15.1,2.6 16.2,1.8 14,1.8 14,1.8 11.8,1.8 12.9,2.6 12.9,6.4 12.3,6.8 12.4,7.2 12.4,8.7 
		14,8.7 14,8.7 15.6,8.7 15.6,7.2 15.7,6.8 15.1,6.4 	"/>
	<g id="地面_00000097484892357282429260000006276544983522626711_">
		<path id="草_00000050658507514173148250000014360179358624052912_" class="st7" d="M2.4,29c-0.4-1.3-0.5-2.2-1.3-3.5
			C2.8,25.4,3.5,27.9,2.4,29L2.4,29z"/>
		<path id="草_00000179627912085844586860000016558588140227868062_" class="st7" d="M26.6,29c-1.1-1.1-0.4-3.6,1.3-3.5
			C27.1,26.8,27,27.7,26.6,29L26.6,29z"/>
		<path id="草_00000151529837931384215080000007510860043949423779_" class="st7" d="M25.8,29.5c-1.2-2.3-0.6-6.1,2.1-7
			C26.2,24.6,26.2,27,25.8,29.5L25.8,29.5z"/>
		<rect id="地面_00000075856115104007067790000004283249619424615089_" y="28" class="st8" width="28" height="2"/>
	</g>
</g>



</svg>