<?xml version="1.0" encoding="utf-8"?>
<!-- Generator: Adobe Illustrator 27.1.1, SVG Export Plug-In . SVG Version: 6.00 Build 0)  -->
<svg version="1.1" xmlns="http://www.w3.org/2000/svg" xmlns:xlink="http://www.w3.org/1999/xlink" x="0px" y="0px" viewBox="0 0 28 40" style="enable-background:new 0 0 28 40;" xml:space="preserve">
<style type="text/css">
	.st0{display:none;}
	.st1{fill:#808080;}
	.st2{fill:#CCCCCC;}
	.st3{display:inline;fill:#808080;}
	.st4{display:inline;fill:#CCCCCC;}
	.st5{fill:#666666;}
	.st6{fill:#B0B088;}
	.st7{fill:#3E3E1C;}
	.st8{fill:#39B54A;}
	.st9{fill:#A96E2D;}
	.st10{fill:#1B1464;}
	.st11{fill:#FFFFFF;}
	.st12{fill:#2E3192;}
	.st13{opacity:0.3;fill:#FFFFFF;}
	.st14{fill:#FFCE00;}
	.st15{fill:#ACACAC;}
	.st16{fill:#3A3A3A;}
	.st17{fill:#848484;}
	.st18{fill:#797979;}
	.st19{fill:#FF0000;}
	.st20{fill:#F2F2F2;}
</style>
<g id="ガイド_00000162338702563158607440000009963323815856875396_" class="st0">
</g>
<g id="ピン">
	<g>
		<g>
			<polygon class="st1" points="15,40 13,40 12,30 16,30 			"/>
			<rect x="14" y="30" class="st2" width="1" height="10"/>
		</g>
		<g class="st0">
			<rect x="12" y="20" class="st3" width="4" height="10"/>
			<rect x="14" y="20" class="st4" width="1" height="10"/>
		</g>
	</g>
</g>
<g id="ノーマル">
	<rect id="土台" x="4" y="25" class="st5" width="20" height="3"/>
	<polygon id="本体" class="st6" points="14,0 4,5.9 6.1,25 14,25 21.9,25 24,5.9 	"/>
	<g id="キリーク">
		<path class="st7" d="M12.2,11.9c-0.5,0-1-0.1-1.1-0.1c-0.3-0.1-0.4-0.3-0.4-0.6s0.3-0.4,0.6-0.4c0.4,0.1,1.1,0.1,1.5,0
			c0.6-0.2,1.6-0.7,1.6-0.8c0.2-0.1,0.5,0,0.7,0.2c0.1,0.2,0,0.5-0.2,0.7c0,0-1.1,0.6-1.8,0.8C12.9,11.9,12.5,11.9,12.2,11.9z"/>
		<path class="st7" d="M17.4,19.5l-0.7-1.5c-0.2-0.4-0.3-1-0.3-1.5c0-1.7,0-5.6-0.1-6.5c0-0.4-0.2-0.7-0.4-0.9
			c-0.2-0.1-0.5-0.1-0.8,0c-0.3,0.1-0.5,0.8-0.6,1.4c0,0.3-0.3,0.5-0.6,0.4c-0.3,0-0.5-0.3-0.4-0.5c0-0.3,0.2-1.8,1.2-2.2
			C15.4,8,16,8.1,16.5,8.4c0.5,0.3,0.8,0.9,0.9,1.6c0.1,1,0.1,4.8,0.1,6.6c0,0.4,0.1,0.8,0.2,1.1l0.7,1.5c0,0,0.3,0.9,0,1.1
			S17.4,19.5,17.4,19.5z"/>
		<path class="st7" d="M11.5,15.8c-0.2,0-0.3-0.1-0.4-0.2c-0.1-0.1-0.9-1.4-0.7-2.4c0.3-1.4,2.5-2.4,2.8-2.5c0.3-0.1,0.5,0,0.7,0.3
			c0.1,0.3,0,0.5-0.3,0.7c-0.8,0.4-2.1,1.2-2.2,1.8c-0.1,0.4,0.3,1.2,0.6,1.6c0.2,0.2,0.1,0.5-0.1,0.7
			C11.7,15.8,11.6,15.8,11.5,15.8z"/>
		<path class="st7" d="M13,18.1C13,18.1,12.9,18.1,13,18.1c-1.6-0.2-4.2-1.9-4.6-2.5c-0.2-0.2-0.1-0.5,0.1-0.7
			c0.2-0.2,0.5-0.1,0.7,0.1c0.3,0.4,2.5,2,3.8,2.1c0.3,0,0.5,0.3,0.4,0.5C13.4,18,13.2,18.1,13,18.1z"/>
		<path class="st7" d="M14.6,19l-0.3-0.9c-0.2-0.7-0.2-1.4-0.1-2.1c0.4-1.4,0.3-1.9-0.6-2.2c-0.2-0.1-0.3,0-0.5,0.1
			c-0.7,0.5-1.3,2.2-1.5,3.1c-0.1,0.3-0.3,0.4-0.6,0.4c-0.3-0.1-0.5-0.3-0.4-0.6c0.1-0.3,0.6-3,1.9-3.8c0.4-0.3,0.9-0.3,1.3-0.2
			c2,0.6,1.6,2.3,1.3,3.4c-0.1,0.5-0.1,1,0,1.5l0.3,0.9c0.1,0.3,0,0.8-0.3,0.9C15.1,19.6,14.7,19.2,14.6,19z"/>
		<circle class="st7" cx="18.9" cy="12.5" r="0.8"/>
		<circle class="st7" cx="18.9" cy="16.6" r="0.8"/>
	</g>
	<g id="地面_00000085960540020044898610000002193894466238366089_">
		<path id="草_00000050658507514173148250000014360179358624052912_" class="st8" d="M2.4,29c-0.4-1.3-0.5-2.2-1.3-3.5
			C2.8,25.4,3.5,27.9,2.4,29L2.4,29z"/>
		<path id="草_00000179627912085844586860000016558588140227868062_" class="st8" d="M26.6,29c-1.1-1.1-0.4-3.6,1.3-3.5
			C27.1,26.8,27,27.7,26.6,29L26.6,29z"/>
		<path id="草_00000151529837931384215080000007510860043949423779_" class="st8" d="M25.8,29.5c-1.2-2.3-0.6-6.1,2.1-7
			C26.2,24.6,26.2,27,25.8,29.5L25.8,29.5z"/>
		<rect id="地面" y="28" class="st9" width="28" height="2"/>
	</g>
</g>


<g id="消失">
	<g>
		<rect id="土台_00000059268142641345059530000005027888923035705984_" x="4" y="25" class="st5" width="20" height="3"/>
		<polygon id="本体_00000148633263462875137460000002376170957915081098_" class="st15" points="14,0 4,5.9 6.1,25 14,25 21.9,25 
			24,5.9 		"/>
		<g id="キリーク_00000017499088859818270220000005167885969970285979_">
			<path class="st16" d="M12.2,11.9c-0.5,0-1-0.1-1.1-0.1c-0.3-0.1-0.4-0.3-0.4-0.6s0.3-0.4,0.6-0.4c0.4,0.1,1.1,0.1,1.5,0
				c0.6-0.2,1.6-0.7,1.6-0.8c0.2-0.1,0.5,0,0.7,0.2c0.1,0.2,0,0.5-0.2,0.7c0,0-1.1,0.6-1.8,0.8C12.9,11.9,12.5,11.9,12.2,11.9z"/>
			<path class="st16" d="M17.4,19.5l-0.7-1.5c-0.2-0.4-0.3-1-0.3-1.5c0-1.7,0-5.6-0.1-6.5c0-0.4-0.2-0.7-0.4-0.9
				c-0.2-0.1-0.5-0.1-0.8,0c-0.3,0.1-0.5,0.8-0.6,1.4c0,0.3-0.3,0.5-0.6,0.4c-0.3,0-0.5-0.3-0.4-0.5c0-0.3,0.2-1.8,1.2-2.2
				C15.4,8,16,8.1,16.5,8.4c0.5,0.3,0.8,0.9,0.9,1.6c0.1,1,0.1,4.8,0.1,6.6c0,0.4,0.1,0.8,0.2,1.1l0.7,1.5c0,0,0.3,0.9,0,1.1
				S17.4,19.5,17.4,19.5z"/>
			<path class="st16" d="M11.5,15.8c-0.2,0-0.3-0.1-0.4-0.2c-0.1-0.1-0.9-1.4-0.7-2.4c0.3-1.4,2.5-2.4,2.8-2.5
				c0.3-0.1,0.5,0,0.7,0.3c0.1,0.3,0,0.5-0.3,0.7c-0.8,0.4-2.1,1.2-2.2,1.8c-0.1,0.4,0.3,1.2,0.6,1.6c0.2,0.2,0.1,0.5-0.1,0.7
				C11.7,15.8,11.6,15.8,11.5,15.8z"/>
			<path class="st16" d="M13,18.1C13,18.1,12.9,18.1,13,18.1c-1.6-0.2-4.2-1.9-4.6-2.5c-0.2-0.2-0.1-0.5,0.1-0.7
				c0.2-0.2,0.5-0.1,0.7,0.1c0.3,0.4,2.5,2,3.8,2.1c0.3,0,0.5,0.3,0.4,0.5C13.4,18,13.2,18.1,13,18.1z"/>
			<path class="st16" d="M14.6,19l-0.3-0.9c-0.2-0.7-0.2-1.4-0.1-2.1c0.4-1.4,0.3-1.9-0.6-2.2c-0.2-0.1-0.3,0-0.5,0.1
				c-0.7,0.5-1.3,2.2-1.5,3.1c-0.1,0.3-0.3,0.4-0.6,0.4c-0.3-0.1-0.5-0.3-0.4-0.6c0.1-0.3,0.6-3,1.9-3.8c0.4-0.3,0.9-0.3,1.3-0.2
				c2,0.6,1.6,2.3,1.3,3.4c-0.1,0.5-0.1,1,0,1.5l0.3,0.9c0.1,0.3,0,0.8-0.3,0.9C15.1,19.6,14.7,19.2,14.6,19z"/>
			<circle class="st16" cx="18.9" cy="12.5" r="0.8"/>
			<circle class="st16" cx="18.9" cy="16.6" r="0.8"/>
		</g>
		<g id="地面_00000000945519840747913430000008844179106725680831_">
			<path id="草_00000009556066833008327090000017908153555534146985_" class="st17" d="M2.4,29c-0.4-1.3-0.5-2.2-1.3-3.5
				C2.8,25.4,3.5,27.9,2.4,29L2.4,29z"/>
			<path id="草_00000160888974986771048460000000008191080553595569_" class="st17" d="M26.6,29c-1.1-1.1-0.4-3.6,1.3-3.5
				C27.1,26.8,27,27.7,26.6,29L26.6,29z"/>
			<path id="草_00000081606246082636823440000010415180860097056434_" class="st17" d="M25.8,29.5c-1.2-2.3-0.6-6.1,2.1-7
				C26.2,24.6,26.2,27,25.8,29.5L25.8,29.5z"/>
			<rect id="地面_00000016765775364825897310000008500079560501012885_" y="28" class="st18" width="28" height="2"/>
		</g>
	</g>
	<g>
		<path class="st19" d="M27.1,21.6l-7.5,7.5c-1.2,1.2-3.1,1.2-4.2,0l-7.5-7.5c-1.2-1.2-1.2-3.1,0-4.2l7.5-7.5c1.2-1.2,3.1-1.2,4.2,0
			l7.5,7.5C28.3,18.6,28.3,20.4,27.1,21.6z"/>
		<g>
			<path class="st20" d="M12.7,24.4l-0.2-0.2c-0.5-0.5-0.5-1.3,0-1.8l7.9-7.9c0.5-0.5,1.3-0.5,1.8,0l0.2,0.2c0.5,0.5,0.5,1.3,0,1.8
				l-7.9,7.9C14,24.9,13.2,24.9,12.7,24.4z"/>
			<path class="st20" d="M20.5,24.4l-7.9-7.9c-0.5-0.5-0.5-1.3,0-1.8l0.2-0.2c0.5-0.5,1.3-0.5,1.8,0l7.9,7.9c0.5,0.5,0.5,1.3,0,1.8
				l-0.2,0.2C21.8,24.9,21,24.9,20.5,24.4z"/>
		</g>
	</g>
</g>
</svg>