<?xml version="1.0" encoding="UTF-8"?>
<svg xmlns="http://www.w3.org/2000/svg" viewBox="0 0 28 40">
  <defs>
    <style>
      .cls-1 {
        fill: #797979;
      }

      .cls-2 {
        fill: #848484;
      }

      .cls-3 {
        fill: #39b54a;
      }

      .cls-4 {
        fill: gray;
      }

      .cls-5 {
        fill: #3e3e1c;
      }

      .cls-6 {
        fill: #3a3a3a;
      }

      .cls-7 {
        fill: #a96e2d;
      }

      .cls-8 {
        fill: #ccc;
      }

      .cls-9 {
        fill: #acacac;
      }

      .cls-10 {
        fill: #b0b088;
      }

      .cls-11 {
        fill: #666;
      }

      .cls-12 {
        fill: #f2f2f2;
      }

      .cls-13 {
        fill: red;
      }
    </style>
  </defs>
  <g id="_ピン" data-name="ピン">
    <g>
      <polygon class="cls-4" points="15 40 13 40 12 30 16 30 15 40"/>
      <rect class="cls-8" x="14" y="30" width="1" height="10"/>
    </g>
  </g>
  <g id="_ノーマル" data-name="ノーマル">
    <rect id="_土台" data-name="土台" class="cls-11" x="4" y="25" width="20" height="3"/>
    <polygon id="_本体" data-name="本体" class="cls-10" points="14 0 4 5.9 6.14 25 14 25 21.86 25 24 5.9 14 0"/>
    <g id="_キリーク" data-name="キリーク">
      <path class="cls-5" d="M12.23,11.94c-.53,0-1.01-.09-1.09-.11-.27-.05-.45-.32-.39-.59s.32-.45,.59-.39c.37,.07,1.11,.14,1.49,.02,.61-.2,1.63-.75,1.64-.75,.24-.13,.55-.04,.68,.21,.13,.24,.04,.55-.2,.68-.04,.02-1.11,.59-1.8,.82-.28,.09-.6,.12-.91,.12Z"/>
      <path class="cls-5" d="M17.38,19.55l-.65-1.49c-.19-.44-.3-1-.29-1.48,.04-1.71,.04-5.56-.06-6.5-.02-.4-.18-.7-.41-.85-.21-.13-.47-.13-.78,0-.25,.1-.5,.81-.56,1.39-.03,.27-.28,.47-.55,.44-.27-.03-.47-.28-.44-.55,.03-.3,.24-1.82,1.18-2.2,.61-.25,1.21-.22,1.69,.09,.51,.32,.83,.92,.88,1.61,.11,.96,.1,4.82,.07,6.6,0,.38,.1,.81,.21,1.06l.65,1.49s.34,.93,0,1.09-.92-.69-.92-.69Z"/>
      <path class="cls-5" d="M11.5,15.82c-.16,0-.32-.08-.41-.22-.1-.14-.93-1.4-.73-2.35,.28-1.35,2.52-2.39,2.78-2.5,.25-.11,.55,0,.66,.25,.11,.25,0,.55-.25,.66-.84,.38-2.08,1.18-2.21,1.79-.08,.39,.29,1.16,.58,1.59,.15,.23,.1,.54-.13,.69-.09,.06-.18,.09-.28,.09Z"/>
      <path class="cls-5" d="M12.97,18.14s-.04,0-.05,0c-1.57-.17-4.12-1.94-4.52-2.54-.15-.23-.09-.53,.14-.69,.23-.15,.54-.09,.69,.14,.26,.39,2.54,1.97,3.79,2.1,.27,.03,.47,.28,.44,.55-.03,.26-.24,.45-.5,.45Z"/>
      <path class="cls-5" d="M14.64,18.97l-.28-.89c-.22-.68-.24-1.41-.06-2.09,.37-1.44,.34-1.93-.59-2.18-.19-.05-.35-.03-.52,.08-.73,.45-1.28,2.17-1.46,3.14-.05,.27-.32,.45-.58,.4-.27-.05-.45-.31-.4-.58,.06-.3,.58-2.97,1.92-3.81,.41-.26,.86-.32,1.31-.2,2.03,.55,1.57,2.33,1.29,3.39-.13,.51-.12,1.04,.04,1.54l.28,.89c.08,.26-.02,.79-.27,.85-.21,.05-.62-.34-.69-.55Z"/>
      <circle class="cls-5" cx="18.93" cy="12.51" r=".75"/>
      <circle class="cls-5" cx="18.91" cy="16.57" r=".75"/>
    </g>
    <g id="_地面" data-name="地面">
      <path id="_草" data-name="草" class="cls-3" d="M2.4,29c-.44-1.34-.51-2.22-1.31-3.5,1.67-.06,2.41,2.38,1.31,3.5h0Z"/>
      <path id="_草-2" data-name="草" class="cls-3" d="M26.58,29c-1.1-1.12-.36-3.56,1.31-3.5-.8,1.28-.87,2.16-1.31,3.5h0Z"/>
      <path id="_草-3" data-name="草" class="cls-3" d="M25.82,29.5c-1.16-2.29-.63-6.07,2.07-7-1.67,2.1-1.73,4.49-2.07,7h0Z"/>
      <rect id="_地面-2" data-name="地面" class="cls-7" y="28" width="28" height="2"/>
    </g>
  </g>
  <g id="_消失" data-name="消失">
    <g>
      <rect id="_土台-2" data-name="土台" class="cls-11" x="4" y="25" width="20" height="3"/>
      <polygon id="_本体-2" data-name="本体" class="cls-9" points="14 0 4 5.9 6.14 25 14 25 21.86 25 24 5.9 14 0"/>
      <g id="_キリーク-2" data-name="キリーク">
        <path class="cls-6" d="M12.23,11.94c-.53,0-1.01-.09-1.09-.11-.27-.05-.45-.32-.39-.59s.32-.45,.59-.39c.37,.07,1.11,.14,1.49,.02,.61-.2,1.63-.75,1.64-.75,.24-.13,.55-.04,.68,.21,.13,.24,.04,.55-.2,.68-.04,.02-1.11,.59-1.8,.82-.28,.09-.6,.12-.91,.12Z"/>
        <path class="cls-6" d="M17.38,19.55l-.65-1.49c-.19-.44-.3-1-.29-1.48,.04-1.71,.04-5.56-.06-6.5-.02-.4-.18-.7-.41-.85-.21-.13-.47-.13-.78,0-.25,.1-.5,.81-.56,1.39-.03,.27-.28,.47-.55,.44-.27-.03-.47-.28-.44-.55,.03-.3,.24-1.82,1.18-2.2,.61-.25,1.21-.22,1.69,.09,.51,.32,.83,.92,.88,1.61,.11,.96,.1,4.82,.07,6.6,0,.38,.1,.81,.21,1.06l.65,1.49s.34,.93,0,1.09-.92-.69-.92-.69Z"/>
        <path class="cls-6" d="M11.5,15.82c-.16,0-.32-.08-.41-.22-.1-.14-.93-1.4-.73-2.35,.28-1.35,2.52-2.39,2.78-2.5,.25-.11,.55,0,.66,.25,.11,.25,0,.55-.25,.66-.84,.38-2.08,1.18-2.21,1.79-.08,.39,.29,1.16,.58,1.59,.15,.23,.1,.54-.13,.69-.09,.06-.18,.09-.28,.09Z"/>
        <path class="cls-6" d="M12.97,18.14s-.04,0-.05,0c-1.57-.17-4.12-1.94-4.52-2.54-.15-.23-.09-.53,.14-.69,.23-.15,.54-.09,.69,.14,.26,.39,2.54,1.97,3.79,2.1,.27,.03,.47,.28,.44,.55-.03,.26-.24,.45-.5,.45Z"/>
        <path class="cls-6" d="M14.64,18.97l-.28-.89c-.22-.68-.24-1.41-.06-2.09,.37-1.44,.34-1.93-.59-2.18-.19-.05-.35-.03-.52,.08-.73,.45-1.28,2.17-1.46,3.14-.05,.27-.32,.45-.58,.4-.27-.05-.45-.31-.4-.58,.06-.3,.58-2.97,1.92-3.81,.41-.26,.86-.32,1.31-.2,2.03,.55,1.57,2.33,1.29,3.39-.13,.51-.12,1.04,.04,1.54l.28,.89c.08,.26-.02,.79-.27,.85-.21,.05-.62-.34-.69-.55Z"/>
        <circle class="cls-6" cx="18.93" cy="12.51" r=".75"/>
        <circle class="cls-6" cx="18.91" cy="16.57" r=".75"/>
      </g>
      <g id="_地面-3" data-name="地面">
        <path id="_草-4" data-name="草" class="cls-2" d="M2.4,29c-.44-1.34-.51-2.22-1.31-3.5,1.67-.06,2.41,2.38,1.31,3.5h0Z"/>
        <path id="_草-5" data-name="草" class="cls-2" d="M26.58,29c-1.1-1.12-.36-3.56,1.31-3.5-.8,1.28-.87,2.16-1.31,3.5h0Z"/>
        <path id="_草-6" data-name="草" class="cls-2" d="M25.82,29.5c-1.16-2.29-.63-6.07,2.07-7-1.67,2.1-1.73,4.49-2.07,7h0Z"/>
        <rect id="_地面-4" data-name="地面" class="cls-1" y="28" width="28" height="2"/>
      </g>
    </g>
    <g>
      <rect class="cls-13" x="9.2" y="11.2" width="16.61" height="16.61" rx="3" ry="3" transform="translate(-8.66 18.09) rotate(-45)"/>
      <g>
        <rect class="cls-12" x="16.13" y="12.64" width="2.75" height="13.73" rx="1.26" ry="1.26" transform="translate(18.92 -6.66) rotate(45)"/>
        <rect class="cls-12" x="10.64" y="18.13" width="13.73" height="2.75" rx="1.26" ry="1.26" transform="translate(18.92 -6.66) rotate(45)"/>
      </g>
    </g>
  </g>
</svg>