<?xml version="1.0" encoding="UTF-8"?>
<svg xmlns="http://www.w3.org/2000/svg" viewBox="0 0 28 40">
  <defs>
    <style>
      .cls-1 {
        fill: #4d4d4d;
      }

      .cls-2 {
        fill: gray;
      }

      .cls-3 {
        fill: #999;
      }

      .cls-4 {
        fill: #ccc;
      }

      .cls-5 {
        fill: red;
      }
    </style>
  </defs>
  <g id="_ピン" data-name="ピン">
    <g id="_ピン-2" data-name="ピン">
      <rect class="cls-2" x="12" y="20" width="4" height="10"/>
      <polygon class="cls-2" points="15 40 13 40 12 30 16 30 15 40"/>
      <rect class="cls-4" x="14" y="20" width="1" height="20"/>
    </g>
  </g>
  <g id="_ノーマル" data-name="ノーマル">
    <g>
      <rect id="_土台" data-name="土台" class="cls-3" x="0" y="32" width="28" height="3" rx="1.5" ry="1.5"/>
      <ellipse id="_顔" data-name="顔" class="cls-3" cx="14" cy="5.6" rx="5.21" ry="5.6"/>
      <path id="_胴" data-name="胴" class="cls-3" d="M23.46,21.02c0-5.42-4.24-9.81-9.46-9.81S4.54,15.6,4.54,21.02c0,.02,0,.03,0,.05h0v13.93H23.46v-13.93h0s0-.03,0-.05Z"/>
      <path id="_右耳" data-name="右耳" class="cls-3" d="M9.34,4.59c-.23-.69-1.06-1.11-1.59-.34-.35,.52,.11,1.37,.13,1.55s-.38,1.55,.21,2.06c.52,.44,1.17,0,1.17,0,0,0,.27-1.51,.25-2.16s-.18-1.1-.18-1.1Z"/>
      <path id="_左耳" data-name="左耳" class="cls-3" d="M18.76,4.59c.23-.69,1.06-1.11,1.59-.34,.35,.52-.11,1.37-.13,1.55s.38,1.55-.21,2.06c-.52,.44-1.17,0-1.17,0,0,0-.27-1.51-.25-2.16s.18-1.1,.18-1.1Z"/>
      <path id="_よだれかけ" data-name="よだれかけ" class="cls-5" d="M21.33,14.82c-1.73-2.2-4.37-3.61-7.33-3.61s-5.6,1.41-7.33,3.61c1.46,2.54,4.19,4.25,7.33,4.25s5.87-1.71,7.33-4.25Z"/>
      <g id="_眉目" data-name="眉目">
        <g id="_眉" data-name="眉">
          <path id="_眉-2" data-name="眉" class="cls-1" d="M13.48,4.95c-.96-1.22-2.7-1.12-3.7,0,.69-1.43,3.04-1.53,3.7,0h0Z"/>
          <path id="_眉-3" data-name="眉" class="cls-1" d="M14.52,4.95c.66-1.53,3-1.43,3.7,0-1-1.12-2.73-1.22-3.7,0h0Z"/>
        </g>
        <g id="_目" data-name="目">
          <path class="cls-1" d="M10.15,5.9s.44-.62,1.32-.6,1.68,.6,1.68,.6c0,0-.8,.4-1.5,.4s-1.5-.4-1.5-.4Z"/>
          <path class="cls-1" d="M17.85,5.9s-.44-.62-1.32-.6-1.68,.6-1.68,.6c0,0,.8,.4,1.5,.4s1.5-.4,1.5-.4Z"/>
        </g>
      </g>
    </g>
  </g>
</svg>