<?xml version="1.0" encoding="utf-8"?>
<!-- Generator: Adobe Illustrator 27.1.1, SVG Export Plug-In . SVG Version: 6.00 Build 0)  -->
<svg version="1.1" xmlns="http://www.w3.org/2000/svg" xmlns:xlink="http://www.w3.org/1999/xlink" x="0px" y="0px" viewBox="0 0 28 40" style="enable-background:new 0 0 28 40;" xml:space="preserve">
<style type="text/css">
	.st0{display:none;}
	.st1{fill:#808080;}
	.st2{fill:#CCCCCC;}
	.st3{fill:#999999;}
	.st4{fill:#FF0000;}
	.st5{fill:#4D4D4D;}
	.st6{fill:#1B1464;}
	.st7{fill:#FFFFFF;}
	.st8{fill:#2E3192;}
	.st9{opacity:0.3;fill:#FFFFFF;}
	.st10{fill:#FFCE00;}
	.st11{fill:#F2F2F2;}
</style>
<g id="ガイド" class="st0">
</g>
<g id="ピン_00000088842173266805817450000003284342926343756201_">
	<g id="ピン">
		<rect x="12" y="20" class="st1" width="4" height="10"/>
		<polygon class="st1" points="15,40 13,40 12,30 16,30 		"/>
		<rect x="14" y="20" class="st2" width="1" height="20"/>
	</g>
</g>
<g id="ノーマル">
	<g>
		<path id="土台" class="st3" d="M26.5,35h-25C0.7,35,0,34.3,0,33.5l0,0C0,32.7,0.7,32,1.5,32h25c0.8,0,1.5,0.7,1.5,1.5l0,0
			C28,34.3,27.3,35,26.5,35z"/>
		<ellipse id="顔_00000181074702622513283140000001828425622519858059_" class="st3" cx="14" cy="5.6" rx="5.2" ry="5.6"/>
		<path id="胴_00000106126689990679698960000017638745134668276359_" class="st3" d="M23.5,21c0-5.4-4.2-9.8-9.5-9.8
			S4.5,15.6,4.5,21c0,0,0,0,0,0h0V35h18.9V21L23.5,21C23.5,21.1,23.5,21,23.5,21z"/>
		<path id="右耳" class="st3" d="M9.3,4.6C9.1,3.9,8.3,3.5,7.8,4.2C7.4,4.8,7.9,5.6,7.9,5.8c0,0.2-0.4,1.6,0.2,2.1
			c0.5,0.4,1.2,0,1.2,0s0.3-1.5,0.3-2.2C9.5,5,9.3,4.6,9.3,4.6z"/>
		<path id="左耳" class="st3" d="M18.8,4.6c0.2-0.7,1.1-1.1,1.6-0.3c0.3,0.5-0.1,1.4-0.1,1.5c0,0.2,0.4,1.6-0.2,2.1
			c-0.5,0.4-1.2,0-1.2,0s-0.3-1.5-0.3-2.2C18.6,5,18.8,4.6,18.8,4.6z"/>
		<path id="よだれかけ" class="st4" d="M21.3,14.8c-1.7-2.2-4.4-3.6-7.3-3.6s-5.6,1.4-7.3,3.6c1.5,2.5,4.2,4.3,7.3,4.3
			S19.9,17.4,21.3,14.8z"/>
		<g id="眉目">
			<g id="眉_00000059278337859623208290000009714789687849173923_">
				<path id="眉_00000173135606952800447560000009596417749278513544_" class="st5" d="M13.5,4.9c-1-1.2-2.7-1.1-3.7,0
					C10.5,3.5,12.8,3.4,13.5,4.9L13.5,4.9z"/>
				<path id="眉_00000031184390555454077670000003258053932443774855_" class="st5" d="M14.5,4.9c0.7-1.5,3-1.4,3.7,0
					C17.2,3.8,15.5,3.7,14.5,4.9L14.5,4.9z"/>
			</g>
			<g id="目_00000055697030195872255970000014913008323447981712_">
				<path class="st5" d="M10.1,5.9c0,0,0.4-0.6,1.3-0.6c0.9,0,1.7,0.6,1.7,0.6s-0.8,0.4-1.5,0.4S10.1,5.9,10.1,5.9z"/>
				<path class="st5" d="M17.9,5.9c0,0-0.4-0.6-1.3-0.6c-0.9,0-1.7,0.6-1.7,0.6s0.8,0.4,1.5,0.4C17.1,6.3,17.9,5.9,17.9,5.9z"/>
			</g>
		</g>
	</g>
</g>


<g id="消失">
	<g>
		<path id="土台_00000062182485677190309460000007861429153560039310_" class="st3" d="M26.5,35h-25C0.7,35,0,34.3,0,33.5l0,0
			C0,32.7,0.7,32,1.5,32h25c0.8,0,1.5,0.7,1.5,1.5l0,0C28,34.3,27.3,35,26.5,35z"/>
		<ellipse id="顔_00000049935331931395021670000000074601887403986577_" class="st3" cx="14" cy="5.6" rx="5.2" ry="5.6"/>
		<path id="胴_00000069357553881488049580000010572724636388319374_" class="st3" d="M23.5,21c0-5.4-4.2-9.8-9.5-9.8
			S4.5,15.6,4.5,21c0,0,0,0,0,0h0V35h18.9V21L23.5,21C23.5,21.1,23.5,21,23.5,21z"/>
		<path id="右耳_00000142141436270633899700000010613874147898337710_" class="st3" d="M9.3,4.6C9.1,3.9,8.3,3.5,7.8,4.2
			C7.4,4.8,7.9,5.6,7.9,5.8c0,0.2-0.4,1.6,0.2,2.1c0.5,0.4,1.2,0,1.2,0s0.3-1.5,0.3-2.2C9.5,5,9.3,4.6,9.3,4.6z"/>
		<path id="左耳_00000086676266749480537960000002832182387271477917_" class="st3" d="M18.8,4.6c0.2-0.7,1.1-1.1,1.6-0.3
			c0.3,0.5-0.1,1.4-0.1,1.5c0,0.2,0.4,1.6-0.2,2.1c-0.5,0.4-1.2,0-1.2,0s-0.3-1.5-0.3-2.2C18.6,5,18.8,4.6,18.8,4.6z"/>
		<path id="よだれかけ_00000068638348955254044650000017923998598214919560_" class="st5" d="M21.3,14.8
			c-1.7-2.2-4.4-3.6-7.3-3.6s-5.6,1.4-7.3,3.6c1.5,2.5,4.2,4.3,7.3,4.3S19.9,17.4,21.3,14.8z"/>
		<g id="眉目_00000118385431252895620680000002462138521805665956_">
			<g id="眉_00000155853699185165223000000016884480109566006438_">
				<path id="眉_00000057867782044372967550000016202759991744385455_" class="st5" d="M13.5,4.9c-1-1.2-2.7-1.1-3.7,0
					C10.5,3.5,12.8,3.4,13.5,4.9L13.5,4.9z"/>
				<path id="眉_00000033331046536448048430000008579045217932790154_" class="st5" d="M14.5,4.9c0.7-1.5,3-1.4,3.7,0
					C17.2,3.8,15.5,3.7,14.5,4.9L14.5,4.9z"/>
			</g>
			<g id="目_00000142881923084790410550000017072194970473792406_">
				<path class="st5" d="M10.1,5.9c0,0,0.4-0.6,1.3-0.6c0.9,0,1.7,0.6,1.7,0.6s-0.8,0.4-1.5,0.4S10.1,5.9,10.1,5.9z"/>
				<path class="st5" d="M17.9,5.9c0,0-0.4-0.6-1.3-0.6c-0.9,0-1.7,0.6-1.7,0.6s0.8,0.4,1.5,0.4C17.1,6.3,17.9,5.9,17.9,5.9z"/>
			</g>
		</g>
	</g>
	<g>
		<path class="st4" d="M27.1,26.5L19.6,34c-1.2,1.2-3.1,1.2-4.2,0l-7.5-7.5c-1.2-1.2-1.2-3.1,0-4.2l7.5-7.5c1.2-1.2,3.1-1.2,4.2,0
			l7.5,7.5C28.3,23.5,28.3,25.4,27.1,26.5z"/>
		<g>
			<path class="st11" d="M12.7,29.3l-0.2-0.2c-0.5-0.5-0.5-1.3,0-1.8l7.9-7.9c0.5-0.5,1.3-0.5,1.8,0l0.2,0.2c0.5,0.5,0.5,1.3,0,1.8
				l-7.9,7.9C14,29.8,13.2,29.8,12.7,29.3z"/>
			<path class="st11" d="M20.5,29.3l-7.9-7.9c-0.5-0.5-0.5-1.3,0-1.8l0.2-0.2c0.5-0.5,1.3-0.5,1.8,0l7.9,7.9c0.5,0.5,0.5,1.3,0,1.8
				l-0.2,0.2C21.8,29.8,21,29.8,20.5,29.3z"/>
		</g>
	</g>
</g>
</svg>