<?xml version="1.0" encoding="utf-8"?>
<!-- Generator: Adobe Illustrator 27.1.1, SVG Export Plug-In . SVG Version: 6.00 Build 0)  -->
<svg version="1.1" xmlns="http://www.w3.org/2000/svg" xmlns:xlink="http://www.w3.org/1999/xlink" x="0px" y="0px" viewBox="0 0 28 40" style="enable-background:new 0 0 28 40;" xml:space="preserve">
<style type="text/css">
	.st0{display:none;}
	.st1{fill:#808080;}
	.st2{fill:#CCCCCC;}
	.st3{fill:#333333;}
	.st4{fill:#666666;}
	.st5{fill:#FFFFFF;}
	.st6{fill:#39B54A;}
	.st7{fill:#A96E2D;}
	.st8{fill:#1B1464;}
	.st9{fill:#2E3192;}
	.st10{opacity:0.3;fill:#FFFFFF;}
	.st11{fill:#FFCE00;}
	.st12{fill:#848484;}
	.st13{fill:#797979;}
	.st14{fill:#FF0000;}
	.st15{fill:#F2F2F2;}
</style>
<g id="ガイド_00000162338702563158607440000009963323815856875396_" class="st0">
</g>
<g id="ピン">
	<g>
		<g>
			<polygon class="st1" points="15,40 13,40 12,30 16,30 			"/>
			<rect x="14" y="30" class="st2" width="1" height="10"/>
		</g>
		<g>
			<rect x="12" y="20" class="st1" width="4" height="10"/>
			<rect x="14" y="20" class="st2" width="1" height="10"/>
		</g>
	</g>
</g>
<g id="ノーマル">
	<rect id="土台" x="2" y="15" class="st3" width="24" height="3"/>
	<path id="本体" class="st3" d="M21.9,0H6C4.9,0,4,0.9,4,2v13h20V2.1C24,0.9,23.1,0,21.9,0z"/>
	<path id="本体内" class="st4" d="M19.8,12.2H8.2C7.5,12.2,7,11.6,7,11V4.4c0-0.7,0.5-1.2,1.2-1.2h11.6c0.7,0,1.2,0.5,1.2,1.2V11
		C21,11.6,20.5,12.2,19.8,12.2z"/>
	<path id="光沢" class="st5" d="M23,6.6h-0.8V3.5c0-0.9-0.7-1.6-1.6-1.6h-1.2V1.1h1.2c1.3,0,2.3,1,2.3,2.3V6.6z"/>
	<g id="碑">
		<path class="st5" d="M12.4,6.9l0.1-0.2c0,0,0-0.1,0.1-0.1c0,0,0.1,0,0.1,0L13.1,7c0,0,0.1,0.1,0.1,0.1c0,0.1,0,0.1-0.2,0.2v1.6
			c0,0.1,0,0.9,0,1.1c0,0.1,0,0.2-0.3,0.2c-0.1,0-0.1-0.1-0.1-0.1V9.9h-0.9v0.6c0,0.1,0,0.2-0.3,0.2c-0.2,0-0.2-0.1-0.2-0.2
			c0-0.1,0-1.1,0-1.1V7.8c-0.2,0.3-0.4,0.7-0.8,1.1l-0.1-0.1c0.9-1.6,1.1-3,1.2-3.8h-0.4c-0.3,0-0.5,0-0.6,0l-0.1-0.4
			c0.2,0,0.5,0,0.8,0h1.2l0.2-0.3c0,0,0-0.1,0.1-0.1c0,0,0.1,0,0.1,0.1l0.5,0.4c0.1,0,0.1,0.1,0.1,0.1C13.4,5,13.2,5,13.2,5h-1.3
			c-0.1,0.9-0.2,1.3-0.4,1.8l0.1,0.1H12.4z M11.6,7.2v2.4h0.9V7.2H11.6z M14.9,8.1c0.1,0.1,0.2,0.1,0.2,0.2c0,0.1-0.1,0.1-0.3,0.1
			c-0.2,0.3-0.3,0.5-0.5,0.7h1.3V8.9c0-0.3,0-0.7,0-0.9L16.1,8c0.1,0,0.2,0,0.2,0.1c0,0.1-0.1,0.1-0.3,0.2V9h0.7L17,8.7
			c0,0,0-0.1,0.1-0.1c0,0,0.1,0,0.1,0.1l0.5,0.4c0.1,0,0.1,0.1,0.1,0.1c0,0.1-0.1,0.1-0.2,0.1H16v0.7c0,0.2,0,0.9,0,1.1
			c0,0.2-0.1,0.2-0.3,0.2c-0.1,0-0.2,0-0.2-0.2c0-0.2,0-1,0-1.1V9.3h-1.8c-0.1,0-0.4,0-0.6,0L13.1,9c0.3,0,0.5,0,0.8,0H14
			c0.2-0.4,0.4-0.9,0.4-1.2L14.9,8.1z M16.7,4.9l0.2-0.2c0,0,0-0.1,0.1-0.1s0.1,0,0.1,0L17.4,5c0.1,0,0.1,0.1,0.1,0.1
			c0,0.1,0,0.1-0.3,0.2v1.5c0,0.2,0,0.9,0,1C17.3,8,17.1,8,16.9,8c-0.1,0-0.1-0.1-0.1-0.1V7.7H14v0.1c0,0.1,0,0.2-0.3,0.2
			c-0.1,0-0.2,0-0.2-0.1c0-0.2,0-0.8,0-1V5.7c0-0.6,0-0.8,0-1l0.5,0.3h0.7c0.1-0.1,0.2-0.6,0.3-0.9l0.5,0.2c0.1,0.1,0.2,0.1,0.2,0.2
			c0,0.1-0.1,0.1-0.3,0.1c-0.1,0.2-0.2,0.2-0.4,0.4H16.7z M15.2,6.5H14v0.9h1.2V6.5z M15.2,5.2H14v0.9h1.2V5.2z M15.6,6.1h1.2V5.2
			h-1.2V6.1z M15.6,7.4h1.2V6.5h-1.2V7.4z"/>
	</g>
	<g id="地面_00000171703516658030370300000004728640655407702406_">
		<path id="草_00000050658507514173148250000014360179358624052912_" class="st6" d="M2.4,19c-0.4-1.3-0.5-2.2-1.3-3.5
			C2.8,15.4,3.5,17.9,2.4,19L2.4,19z"/>
		<path id="草_00000179627912085844586860000016558588140227868062_" class="st6" d="M26.6,19c-1.1-1.1-0.4-3.6,1.3-3.5
			C27.1,16.8,27,17.7,26.6,19L26.6,19z"/>
		<path id="草_00000151529837931384215080000007510860043949423779_" class="st6" d="M25.8,19.5c-1.2-2.3-0.6-6.1,2.1-7
			C26.2,14.6,26.2,17,25.8,19.5L25.8,19.5z"/>
		<rect id="地面_00000125560456868431405000000007692527408937609860_" y="18" class="st7" width="28" height="2"/>
	</g>
</g>

<g id="要調査">
	<path id="白ベール" class="st10" d="M28,20H0V4c0-2.2,1.8-4,4-4h20.1C26.3,0,28,1.7,28,3.9V20z"/>
	<g>
		<path class="st11" d="M27.1,21.6l-7.5,7.5c-1.2,1.2-3.1,1.2-4.2,0l-7.5-7.5c-1.2-1.2-1.2-3.1,0-4.2l7.5-7.5c1.2-1.2,3.1-1.2,4.2,0
			l7.5,7.5C28.3,18.5,28.3,20.5,27.1,21.6z"/>
		<g>
			<path d="M18.7,23.8c0,0.7-0.6,1.3-1.2,1.3s-1.3-0.6-1.3-1.3c0-0.7,0.6-1.2,1.3-1.2S18.7,23.1,18.7,23.8z M18.2,21
				c-0.1,0.5-0.2,0.8-0.7,0.8c-0.5,0-0.6-0.4-0.7-0.8l-0.5-3.5V15c0-0.8,0.4-1.1,1.2-1.1c0.7,0,1.1,0.3,1.1,1.1v2.5L18.2,21z"/>
		</g>
	</g>
</g>

</svg>