<?xml version="1.0" encoding="UTF-8"?>
<svg xmlns="http://www.w3.org/2000/svg" viewBox="0 0 28 40">
  <defs>
    <style>
      .cls-1, .cls-2 {
        fill: #fff;
      }

      .cls-2 {
        opacity: .3;
      }

      .cls-3 {
        fill: #333;
      }

      .cls-4 {
        fill: #39b54a;
      }

      .cls-5 {
        fill: gray;
      }

      .cls-6 {
        fill: #ffce00;
      }

      .cls-7 {
        fill: #a96e2d;
      }

      .cls-8 {
        fill: #ccc;
      }

      .cls-9 {
        fill: #666;
      }
    </style>
  </defs>
  <g id="_ピン" data-name="ピン">
    <g>
      <g>
        <polygon class="cls-5" points="15 40 13 40 12 30 16 30 15 40"/>
        <rect class="cls-8" x="14" y="30" width="1" height="10"/>
      </g>
      <g>
        <rect class="cls-5" x="12" y="20" width="4" height="10"/>
        <rect class="cls-8" x="14" y="20" width="1" height="10"/>
      </g>
    </g>
  </g>
  <g id="_ノーマル" data-name="ノーマル">
    <rect id="_土台" data-name="土台" class="cls-3" x="2" y="15" width="24" height="3"/>
    <path id="_本体" data-name="本体" class="cls-3" d="M6.01,0h15.9c1.15,0,2.09,.94,2.09,2.09V15H4V2.01c0-1.11,.9-2.01,2.01-2.01Z"/>
    <rect id="_本体内" data-name="本体内" class="cls-9" x="7" y="3.18" width="14" height="9" rx="1.21" ry="1.21"/>
    <path id="_光沢" data-name="光沢" class="cls-1" d="M23,6.57h-.75V3.46c0-.87-.71-1.58-1.58-1.58h-1.17v-.75h1.17c1.29,0,2.33,1.05,2.33,2.33v3.12Z"/>
    <g id="_碑" data-name="碑">
      <path class="cls-1" d="M12.43,6.88l.14-.21s.05-.06,.09-.06c.03,0,.07,.03,.08,.04l.37,.33s.06,.06,.06,.11c0,.07-.02,.09-.25,.23v1.61c0,.06,.04,.94,.04,1.06,0,.07,0,.23-.32,.23-.14,0-.14-.06-.14-.13v-.21h-.88v.62c0,.06,0,.19-.28,.19-.16,0-.18-.07-.18-.18,0-.1,.03-1.06,.03-1.1v-1.66c-.16,.3-.37,.67-.8,1.12l-.1-.09c.92-1.6,1.1-2.95,1.19-3.81h-.39c-.27,0-.48,.02-.6,.03l-.14-.38c.22,.02,.48,.03,.8,.03h1.24l.23-.32s.05-.06,.09-.06c.05,0,.08,.02,.11,.06l.48,.42c.06,.05,.07,.09,.07,.12,0,.11-.14,.11-.19,.11h-1.26c-.11,.9-.22,1.31-.38,1.84l.1,.06h.78Zm-.82,.32v2.38h.88v-2.38h-.88Zm3.29,.86c.13,.06,.22,.09,.22,.18,0,.1-.12,.1-.31,.11-.22,.34-.32,.46-.51,.68h1.29v-.14c0-.28,0-.67-.04-.91l.56,.08c.1,.02,.21,.03,.21,.12,0,.1-.09,.13-.3,.22v.63h.73l.22-.31s.05-.06,.09-.06c.05,0,.08,.03,.11,.06l.46,.41c.06,.05,.07,.08,.07,.12,0,.1-.14,.11-.19,.11h-1.5v.74c0,.17,.02,.91,.02,1.06s-.12,.21-.3,.21c-.12,0-.16-.04-.16-.15,0-.18,.02-.96,.02-1.12v-.74h-1.76c-.1,0-.36,0-.6,.03l-.14-.38c.32,.02,.47,.02,.81,.02h.16c.2-.41,.38-.88,.42-1.15l.43,.18Zm1.81-3.13l.16-.22s.04-.06,.07-.06,.07,.02,.1,.05l.36,.3c.06,.05,.07,.07,.07,.12,0,.06-.05,.12-.26,.23v1.46c0,.16,.04,.92,.04,1.01,0,.14-.11,.22-.32,.22-.14,0-.14-.06-.14-.13v-.17h-2.74v.14c0,.1-.04,.19-.29,.19-.13,0-.18-.04-.18-.14,0-.16,.03-.84,.03-.98v-1.27c0-.61,0-.8-.03-1.04l.52,.3h.74c.06-.14,.22-.61,.27-.92l.46,.2c.12,.06,.21,.1,.21,.18,0,.1-.1,.1-.31,.11-.1,.15-.18,.23-.37,.43h1.61Zm-1.52,1.54h-1.15v.94h1.15v-.94Zm0-1.22h-1.15v.9h1.15v-.9Zm.43,.9h1.16v-.91h-1.16v.91Zm0,1.26h1.16v-.94h-1.16v.94Z"/>
    </g>
    <g id="_地面" data-name="地面">
      <path id="_草" data-name="草" class="cls-4" d="M2.4,19c-.44-1.34-.51-2.22-1.31-3.5,1.67-.06,2.41,2.38,1.31,3.5h0Z"/>
      <path id="_草-2" data-name="草" class="cls-4" d="M26.58,19c-1.1-1.12-.36-3.56,1.31-3.5-.8,1.28-.87,2.16-1.31,3.5h0Z"/>
      <path id="_草-3" data-name="草" class="cls-4" d="M25.82,19.5c-1.16-2.29-.63-6.07,2.07-7-1.67,2.1-1.73,4.49-2.07,7h0Z"/>
      <rect id="_地面-2" data-name="地面" class="cls-7" y="18" width="28" height="2"/>
    </g>
  </g>
  <g id="_要調査" data-name="要調査">
    <path id="_白ベール" data-name="白ベール" class="cls-2" d="M4.03,0H24.09c2.16,0,3.91,1.75,3.91,3.91V20H0V4.03C0,1.8,1.8,0,4.03,0Z"/>
    <g>
      <rect class="cls-6" x="9.19" y="11.19" width="16.61" height="16.61" rx="3" ry="3" transform="translate(-8.66 18.08) rotate(-45)"/>
      <path d="M18.75,23.83c0,.7-.56,1.26-1.25,1.26s-1.25-.56-1.25-1.26,.56-1.25,1.25-1.25,1.25,.56,1.25,1.25Zm-.57-2.88c-.07,.46-.16,.78-.69,.78s-.61-.35-.66-.78l-.46-3.49v-2.5c0-.78,.42-1.05,1.16-1.05s1.11,.31,1.11,1.05v2.5l-.46,3.49Z"/>
    </g>
  </g>
</svg>