<?xml version="1.0" encoding="utf-8"?>
<!-- Generator: Adobe Illustrator 27.1.1, SVG Export Plug-In . SVG Version: 6.00 Build 0)  -->
<svg version="1.1" xmlns="http://www.w3.org/2000/svg" xmlns:xlink="http://www.w3.org/1999/xlink" x="0px" y="0px" viewBox="0 0 28 40" style="enable-background:new 0 0 28 40;" xml:space="preserve">
<style type="text/css">
	.st0{display:none;}
	.st1{fill:#808080;}
	.st2{fill:#CCCCCC;}
	.st3{fill:#B3B3B3;}
	.st4{fill:#666666;}
	.st5{fill:#FFFFFF;}
	.st6{fill:#C1272D;}
	.st7{fill:#4D4D4D;}
	.st8{fill:#333333;}
	.st9{fill:#1B1464;}
	.st10{fill:#2E3192;}
	.st11{opacity:0.3;fill:#FFFFFF;}
	.st12{fill:#FFCE00;}
	.st13{fill:#565656;}
	.st14{fill:#FF0000;}
	.st15{fill:#F2F2F2;}
</style>
<g id="ガイド_00000162338702563158607440000009963323815856875396_" class="st0">
</g>
<g id="ピン">
	<g id="ピン_00000178200821674323619740000011794091811933454987_">
		<rect x="12" y="20" class="st1" width="4" height="10"/>
		<polygon class="st1" points="15,40 13,40 12,30 16,30 		"/>
		<rect x="14" y="20" class="st2" width="1" height="20"/>
	</g>
</g>
<g id="ノーマル">
	<path id="尾_00000091718328533100748960000014235741825324479887_" class="st1" d="M10.6,20.4c0,0,0.3-2.4-1.7-4.2
		c-2-1.8-3.6-4.8-3.6-4.8s0.2,3.8-1.5,6.1c-1.1,1.5-2.6,2.5-2.9,4c-0.5,2-0.5,3.7,0,5.4C1.6,29.4,3.1,30,4.5,30c3.2,0,4.6-1.2,5.6-4
		C10.8,24.3,10.6,20.4,10.6,20.4z"/>
	<g>
		<path class="st3" d="M2.3,22.4c0,0-0.8-0.2-1.6,0.7c-0.4,0.5-0.8,1.8,0.2,2.1c0.6,0.2,1.2,0.1,1.5-0.4s0.3-1-0.2-1.1
			c-0.5-0.2-0.9,0.2-1,0.4"/>
		<path class="st4" d="M1.3,25.6c-0.2,0-0.4,0-0.6-0.1c-0.4-0.1-0.6-0.4-0.7-0.8c-0.2-0.6,0.1-1.4,0.5-1.7c0.9-1,1.8-0.8,1.8-0.8
			c0.1,0,0.2,0.2,0.2,0.3c0,0.1-0.2,0.2-0.3,0.2c0,0-0.6-0.1-1.3,0.6c-0.3,0.3-0.5,0.9-0.4,1.3c0.1,0.2,0.2,0.4,0.4,0.4
			c0.5,0.2,1,0,1.2-0.3c0.1-0.2,0.2-0.5,0.2-0.6c0,0,0-0.1-0.2-0.2c-0.5-0.1-0.7,0.2-0.7,0.3c-0.1,0.1-0.2,0.2-0.3,0.1
			c-0.1-0.1-0.2-0.2-0.1-0.3c0.2-0.4,0.7-0.7,1.3-0.5c0.3,0.1,0.5,0.3,0.5,0.5c0.1,0.3,0,0.7-0.2,1.1C2.3,25.3,1.8,25.6,1.3,25.6z"/>
	</g>
	<g>
		<path class="st3" d="M1.7,24.7c0,0-0.8,0-1.3,1.1c-0.3,0.6-0.2,2,0.8,2c0.6,0,1.1-0.3,1.3-0.8c0.1-0.5,0-1-0.5-1
			c-0.6,0-0.8,0.4-0.8,0.7"/>
		<path class="st4" d="M1.2,28.1C1.2,28.1,1.2,28.1,1.2,28.1c-0.5,0-0.8-0.2-1-0.5c-0.3-0.5-0.3-1.3-0.1-1.8
			c0.6-1.2,1.5-1.3,1.5-1.3c0.1,0,0.3,0.1,0.3,0.2c0,0.1-0.1,0.3-0.2,0.3c0,0-0.6,0.1-1.1,1c-0.2,0.3-0.2,1,0,1.3
			c0.1,0.2,0.3,0.3,0.5,0.3c0.5,0,0.9-0.2,1-0.6c0.1-0.3,0.1-0.5,0-0.6c0,0-0.1-0.1-0.2-0.1c0,0,0,0,0,0c-0.5,0-0.6,0.4-0.6,0.5
			c0,0.1-0.2,0.2-0.3,0.2c-0.1,0-0.2-0.1-0.2-0.3c0.1-0.4,0.4-0.9,1.1-0.9c0,0,0,0,0,0c0.3,0,0.5,0.2,0.6,0.3
			c0.2,0.3,0.2,0.6,0.1,1.1C2.5,27.7,1.9,28.1,1.2,28.1z"/>
	</g>
	<path id="左前脚_00000078753657099590490850000007118616950297400231_" class="st1" d="M25.8,17.1c0,0-0.7,5-0.7,6.3
		c0.1,1.3-0.2,2.4,0.3,3.6c0.5,1.3,2.1,0.9,2.1,1.8s0,0.9,0,0.9s-3.3,0.4-3.7,0c-0.4-0.4-2.1-1.1-2.1-2.7c0-0.9-0.6-5.4-0.6-5.4
		L25.8,17.1z"/>
	<g id="顔胴_00000130621973271211651720000011525073339159863215_">
		<g>
			<path class="st5" d="M8.6,29.6c-0.5,0-1-0.1-1.4-0.2c-2-0.7-1.9-4.5-1.3-6.8c0.6-2.2,1.6-3.3,3.7-5.4
				C12.5,14.3,11.7,29.6,8.6,29.6C8.6,29.6,8.6,29.6,8.6,29.6z"/>
		</g>
		<g id="顔胴">
			<path class="st1" d="M27.6,3.7c0-0.4-3-0.9-3.8-0.9c-0.4,0-0.9,0.2-1.3,0.3c-0.7-0.3-1.4-0.4-2.2-0.5c0,0-0.2-2.6-0.7-2.6
				s-0.7,2.7-0.7,2.7c-0.6,0.1-1.4,0.2-2.2,0.5c-0.4-0.2-1-0.4-1.4-0.4c-0.8,0-3.4,0.5-3.4,0.9c0,0.2,0.9,1.8,2,1.8
				c-1,1.8-0.5,4-0.9,6.3c-0.4,2.6-0.6,4.2-2.7,6.1s-2.9,3-3.4,5c-0.6,2.3-0.4,5.2,0.7,5.6c3.6,1.2,12.4-5.2,13.8-5.8
				c1.7-0.7,3.8-1.5,4.7-3.3c0.8-1.8,0.8-3.7,0.8-5.1c0-1.5,0.2-6.4-0.6-7.9C26,6,25.8,5.8,25.6,5.5C26.6,5.4,27.6,3.9,27.6,3.7z"/>
		</g>
	</g>
	<g id="右前足">
		<path class="st5" d="M20.6,29.8c-0.7,0-1.8,0.1-2.1,0.1c-0.1,0-0.8-0.1-1.1-0.1c-1.5,0-1.1,0.3-1.3-0.2c-0.4-0.8-1.3-5.3-1-7.2
			c0.2-1.7,1.9-4,1.9-4.1l0,0l4.2-0.2l0,0c-0.3,0.7,0.1,3.2,0.1,4.4c0,0.7,0,1.4-0.1,2.1c-0.1,0.9-0.2,1.9,0,2.3
			c0.1,0.3,1.2,2.3,1,2.5C21.9,29.8,21.8,29.8,20.6,29.8z"/>
		<path id="右前足_00000064349672857246419530000008415986373270484403_" class="st1" d="M21.3,17.1c0,0-1,3-0.9,4.8
			c0.1,1.8-0.5,4,0,5.1s1.8,1.6,1.9,2.4S19,29.7,19,29.7s-1.6,0.2-1.9-0.5c-0.3-0.8-1.2-5.5-1-7.3c0.2-1.8,1-4.6,1-4.6L21.3,17.1z"/>
	</g>
	<g id="後ろ脚">
		<path class="st5" d="M9.1,22.4c1.5-2.2,2.5-1.8,2.9-1.8l0.1,0l0.1,0c0.5,0,2.9,0.3,4,1.7c0.8,1.2,1.8,2.7,1.4,4
			c-0.1,0.5-0.5,1-0.8,1.5c1.2,0.4,2.5,0.8,2.5,2c0,0.2-1.5,0.1-1.5,0.1S8,24.1,9.1,22.4z"/>
		<path id="後足_00000045582528336439268380000003204604918186951076_" class="st1" d="M12.1,21.6c0,0,2.4,0.2,3.2,1.3
			c0.8,1.1,1.3,2.1,1.2,2.9c-0.1,0.8-1.2,1.8-1.2,2.2c0,0.4,2.9,0.7,2.9,1.4s-1.1,0.5-1.1,0.5l-6.1,0c0,0-2.2,0.2-3.4-1.5
			c-0.8-1.1-1.2-3.2,0-4.9S12.1,21.6,12.1,21.6z"/>
	</g>
	<path id="口ん_00000103955946266787252490000006768206965785419651_" class="st6" d="M15.3,9.8c0.7,0.1,1.5,0.6,2.1,0.5
		c0.5,0,1.2-0.7,2.2-0.8c0.8-0.1,1.7,0.4,2.3,0.7c0.7,0.2,1.3-0.3,2-0.5c-0.3,0.3-0.5,0.6-0.8,0.8c-1.1,1-2.3-0.2-3.4-0.1
		c-0.5,0-1,0.3-1.5,0.5C17,11.5,16.1,10.5,15.3,9.8L15.3,9.8z"/>
	<path id="鼻" class="st7" d="M20.7,8c0,0-0.2-1.5-1-1.5s-1,1.5-1,1.5s-1.1-0.2-1,0.7c0.1,0.9,2,0.8,2,0.8s1.9,0.1,2-0.8
		C21.8,7.8,20.7,8,20.7,8z"/>
	<g id="目">
		<ellipse id="目_00000119094039136691246040000013016648942958979242_" class="st5" cx="16.9" cy="6.8" rx="1.1" ry="0.9"/>
		<ellipse id="目_00000124122656313838682930000009009491079301659571_" class="st5" cx="22.4" cy="6.8" rx="1.1" ry="0.9"/>
		<ellipse id="目_00000148644924253180125500000004880899052284198536_" class="st8" cx="16.9" cy="6.8" rx="0.5" ry="0.5"/>
		<ellipse id="目_00000160894662729528299910000005482315242798419870_" class="st8" cx="22.4" cy="6.8" rx="0.5" ry="0.5"/>
	</g>
	<path id="額" class="st4" d="M15.3,5.3c0.7,0.2,1.4,0.4,2.1,0.4c0.7,0,1.4-0.2,2.1-0.2c1.7,0.1,2.6,0.3,4.2-0.3
		c-0.5,0.5-1.2,1.1-2,1.2c-0.8,0.2-1.6,0-2.2,0.1c-0.7,0-1.5,0.2-2.3-0.1C16.5,6.3,15.9,5.8,15.3,5.3L15.3,5.3z"/>
	<g id="歯">
		<polygon class="st5" points="16.8,10.3 17.5,10.3 17.2,11.4 		"/>
		<polygon class="st5" points="21.9,10.3 21.9,11.4 22.7,10.3 		"/>
	</g>
	<path id="顎" class="st2" d="M14.7,12.1c0.8,0.2,1.5,0.8,2.3,0.6c0.9-0.2,1.7-0.5,2.7-0.5c0.8,0.1,1.8,0.3,2.6,0.5
		c0.8,0.1,1.5-0.6,2.2-0.9c-0.8,0.9-1.6,1.9-3,1.6c-0.4,0-1.5-0.2-1.9-0.3c-0.7,0-1.7,0.2-2.5,0.3C16.1,13.6,15.4,12.7,14.7,12.1
		L14.7,12.1z"/>
	<g>
		<path class="st3" d="M13.5,8.3c0,0-0.8,0-1.3,1.1c-0.3,0.6-0.2,2,0.8,2c0.6,0,1.1-0.3,1.3-0.8s0-1-0.5-1S13,10,13,10.2"/>
		<path class="st4" d="M13.1,11.7C13,11.7,13,11.7,13.1,11.7c-0.5,0-0.8-0.2-1-0.5c-0.3-0.5-0.3-1.3-0.1-1.8C12.6,8.1,13.4,8,13.5,8
			c0.1,0,0.3,0.1,0.3,0.2c0,0.1-0.1,0.3-0.2,0.3c0,0-0.6,0.1-1.1,1c-0.2,0.3-0.2,1,0,1.3c0.1,0.2,0.3,0.3,0.5,0.3
			c0.5,0,0.9-0.2,1-0.6c0.1-0.3,0.1-0.5,0-0.6c0,0-0.1-0.1-0.2-0.1c-0.5,0-0.6,0.4-0.6,0.5c0,0.1-0.1,0.2-0.3,0.2
			c-0.1,0-0.2-0.1-0.2-0.3c0.1-0.4,0.4-0.9,1.1-0.9c0.4,0,0.5,0.2,0.7,0.3c0.2,0.3,0.2,0.6,0.1,1.1C14.4,11.2,13.7,11.7,13.1,11.7z"/>
	</g>
	<g>
		<path class="st3" d="M13.4,10.9c0,0-0.8,0-1.3,1.1c-0.3,0.6-0.2,2,0.8,2c0.6,0,1.1-0.3,1.3-0.8c0.1-0.5,0-1-0.5-1
			c-0.6,0-0.8,0.4-0.8,0.7"/>
		<path class="st4" d="M12.9,14.2C12.9,14.2,12.9,14.2,12.9,14.2c-0.5,0-0.8-0.2-1-0.5c-0.3-0.5-0.3-1.3-0.1-1.8
			c0.6-1.2,1.5-1.3,1.5-1.3c0.1,0,0.3,0.1,0.3,0.2c0,0.1-0.1,0.3-0.2,0.3c0,0-0.6,0.1-1.1,1c-0.2,0.3-0.2,1,0,1.3
			c0.1,0.2,0.3,0.3,0.5,0.3c0.5,0,0.9-0.2,1-0.6c0.1-0.3,0.1-0.5,0-0.6c0,0-0.1-0.1-0.2-0.1c-0.5,0-0.6,0.4-0.6,0.5
			c0,0.1-0.2,0.2-0.3,0.2c-0.1,0-0.2-0.1-0.2-0.3c0.1-0.4,0.4-0.9,1.1-0.9c0.4,0,0.5,0.2,0.7,0.3c0.2,0.3,0.2,0.6,0.1,1.1
			C14.2,13.8,13.6,14.2,12.9,14.2z"/>
	</g>
	<g>
		<path class="st3" d="M7,23.4c0,0-0.8,0-1.3,1.1c-0.3,0.6-0.2,2,0.8,2c0.6,0,1.1-0.3,1.3-0.8c0.1-0.5,0-1-0.5-1
			c-0.6,0-0.8,0.4-0.8,0.7"/>
		<path class="st4" d="M6.6,26.8C6.6,26.8,6.6,26.8,6.6,26.8c-0.5,0-0.8-0.2-1-0.5c-0.3-0.5-0.3-1.3-0.1-1.8C6.1,23.2,7,23.2,7,23.2
			c0.1,0,0.3,0.1,0.3,0.2c0,0.1-0.1,0.3-0.2,0.3c0,0-0.6,0.1-1.1,1c-0.2,0.3-0.2,1,0,1.3c0.1,0.2,0.3,0.3,0.5,0.3
			c0.5,0,0.9-0.2,1-0.6c0.1-0.3,0.1-0.5,0-0.6c0,0-0.1-0.1-0.2-0.1c0,0,0,0,0,0c-0.5,0-0.6,0.4-0.6,0.5c0,0.1-0.2,0.2-0.3,0.2
			c-0.1,0-0.2-0.1-0.2-0.3c0.1-0.4,0.4-0.9,1.1-0.9c0.3,0,0.5,0.2,0.7,0.3c0.2,0.3,0.2,0.6,0.1,1.1C7.9,26.4,7.3,26.8,6.6,26.8z"/>
	</g>
	<g>
		<path class="st3" d="M7,25.8c0,0-0.8,0-1.3,1.1c-0.3,0.6-0.2,2,0.8,2c0.6,0,1.1-0.3,1.3-0.8c0.1-0.5,0-1-0.5-1
			c-0.6,0-0.8,0.4-0.8,0.7"/>
		<path class="st4" d="M6.6,29.1C6.6,29.1,6.6,29.1,6.6,29.1c-0.5,0-0.8-0.2-1-0.5c-0.3-0.5-0.3-1.3-0.1-1.8C6.1,25.6,7,25.5,7,25.5
			c0.1,0,0.3,0.1,0.3,0.2c0,0.1-0.1,0.3-0.2,0.3c0,0-0.6,0.1-1.1,1c-0.2,0.3-0.2,1,0,1.3c0.1,0.2,0.3,0.3,0.5,0.3
			c0.5,0,0.9-0.2,1-0.6c0.1-0.3,0.1-0.5,0-0.6c0,0-0.1-0.1-0.2-0.1c0,0,0,0,0,0c-0.5,0-0.6,0.4-0.6,0.5c0,0.1-0.2,0.2-0.3,0.2
			c-0.1,0-0.2-0.1-0.2-0.3c0.1-0.4,0.4-0.9,1.1-0.9c0.3,0,0.5,0.2,0.7,0.3c0.2,0.3,0.2,0.6,0.1,1.1C7.9,28.7,7.3,29.1,6.6,29.1z"/>
	</g>
	<g>
		<path class="st3" d="M26.2,8.3c0,0,0.8,0,1.3,1.1c0.3,0.6,0.2,2-0.8,2c-0.6,0-1.1-0.3-1.3-0.8c-0.1-0.5,0-1,0.5-1s0.8,0.4,0.8,0.7
			"/>
		<path class="st4" d="M26.6,11.7c-0.7,0-1.3-0.4-1.5-1c-0.1-0.4-0.1-0.8,0.1-1.1c0.1-0.1,0.3-0.3,0.7-0.3c0.6,0,1,0.5,1.1,0.9
			c0,0.1-0.1,0.3-0.2,0.3c-0.1,0-0.3-0.1-0.3-0.2c0,0-0.1-0.5-0.6-0.5c0,0,0,0,0,0c-0.2,0-0.2,0.1-0.2,0.1c-0.1,0.1-0.1,0.4,0,0.6
			c0.1,0.4,0.5,0.6,1,0.6c0.2,0,0.4-0.1,0.5-0.3c0.2-0.4,0.2-1,0-1.3c-0.4-0.9-1-1-1.1-1c-0.1,0-0.2-0.1-0.2-0.3
			C25.9,8.1,26,8,26.2,8c0,0,0.9,0.1,1.5,1.3c0.2,0.5,0.3,1.3-0.1,1.8C27.4,11.5,27.1,11.7,26.6,11.7C26.7,11.7,26.6,11.7,26.6,11.7
			z"/>
	</g>
	<g>
		<path class="st3" d="M26.3,10.9c0,0,0.8,0,1.3,1.1c0.3,0.6,0.2,2-0.8,2c-0.6,0-1.1-0.3-1.3-0.8c-0.1-0.5,0-1,0.5-1
			c0.6,0,0.8,0.4,0.8,0.7"/>
		<path class="st4" d="M26.8,14.3c-0.7,0-1.3-0.4-1.5-1c-0.1-0.4-0.1-0.8,0.1-1.1c0.1-0.1,0.3-0.3,0.6-0.3c0,0,0,0,0,0
			c0.6,0,1,0.5,1.1,0.9c0,0.1-0.1,0.3-0.2,0.3c-0.1,0-0.3-0.1-0.3-0.2c0,0-0.1-0.5-0.6-0.5c0,0,0,0,0,0c-0.2,0-0.2,0.1-0.2,0.1
			c-0.1,0.1-0.1,0.4,0,0.6c0.1,0.4,0.6,0.7,1,0.6c0.2,0,0.4-0.1,0.5-0.3c0.2-0.4,0.2-1,0-1.3c-0.4-0.9-1-1-1.1-1
			c-0.1,0-0.2-0.1-0.2-0.3c0-0.1,0.1-0.3,0.3-0.2c0,0,0.9,0.1,1.5,1.3c0.2,0.5,0.3,1.3-0.1,1.8C27.6,14.1,27.2,14.2,26.8,14.3
			C26.8,14.3,26.8,14.3,26.8,14.3z"/>
	</g>
</g>

<g id="要調査">
	<path id="白ベール" class="st11" d="M28,30H0V18.8C0,8.4,8.4,0,18.8,0H23c2.8,0,5,2.3,5,5V30z"/>
	<g>
		<path class="st12" d="M27.1,21.6l-7.5,7.5c-1.2,1.2-3.1,1.2-4.2,0l-7.5-7.5c-1.2-1.2-1.2-3.1,0-4.2l7.5-7.5c1.2-1.2,3.1-1.2,4.2,0
			l7.5,7.5C28.3,18.5,28.3,20.5,27.1,21.6z"/>
		<g>
			<path d="M18.7,23.8c0,0.7-0.6,1.3-1.2,1.3s-1.3-0.6-1.3-1.3c0-0.7,0.6-1.2,1.3-1.2S18.7,23.1,18.7,23.8z M18.2,21
				c-0.1,0.5-0.2,0.8-0.7,0.8c-0.5,0-0.6-0.4-0.7-0.8l-0.5-3.5V15c0-0.8,0.4-1.1,1.2-1.1c0.7,0,1.1,0.3,1.1,1.1v2.5L18.2,21z"/>
		</g>
	</g>
</g>

</svg>