<?xml version="1.0" encoding="utf-8"?>
<!-- Generator: Adobe Illustrator 27.1.1, SVG Export Plug-In . SVG Version: 6.00 Build 0)  -->
<svg version="1.1" xmlns="http://www.w3.org/2000/svg" xmlns:xlink="http://www.w3.org/1999/xlink" x="0px" y="0px" viewBox="0 0 28 40" style="enable-background:new 0 0 28 40;" xml:space="preserve">
<style type="text/css">
	.st0{display:none;}
	.st1{fill:#808080;}
	.st2{fill:#CCCCCC;}
	.st3{fill:#D19490;}
	.st4{fill:#F9CCA2;}
	.st5{fill:#935C21;}
	.st6{fill:#B55B99;}
	.st7{fill:#040000;}
	.st8{fill:#FFFFFF;}
	.st9{fill:#1B1464;}
	.st10{fill:#2E3192;}
	.st11{fill:#FFCE00;}
	.st12{opacity:0.3;fill:#FFFFFF;}
	.st13{fill:#A6A6A6;}
	.st14{fill:#D5D5D5;}
	.st15{fill:#666666;}
	.st16{fill:#7D7D7D;}
	.st17{fill:#010101;}
	.st18{fill:#FF0000;}
	.st19{fill:#F2F2F2;}
</style>
<g id="ガイド_00000162338702563158607440000009963323815856875396_" class="st0">
</g>
<g id="ピン">
	<g id="ピン_00000178200821674323619740000011794091811933454987_">
		<rect x="12" y="20" class="st1" width="4" height="10"/>
		<polygon class="st1" points="15,40 13,40 12,30 16,30 		"/>
		<rect x="14" y="20" class="st2" width="1" height="20"/>
	</g>
</g>
<g id="ノーマル">
	<g id="耳">
		<path id="右耳" class="st3" d="M9.8,3.6C9.6,2.9,8.7,2.5,8.2,3.3C7.9,3.8,8.3,4.6,8.3,4.8C8.4,5,8,6.4,8.5,6.9
			c0.5,0.4,1.2,0,1.2,0S10,5.4,10,4.7S9.8,3.6,9.8,3.6z"/>
		<path id="左耳" class="st3" d="M18.2,3.6c0.2-0.7,1.1-1.1,1.6-0.3c0.3,0.5-0.1,1.4-0.1,1.5c0,0.2,0.4,1.6-0.2,2.1
			c-0.5,0.4-1.2,0-1.2,0S18,5.4,18,4.7S18.2,3.6,18.2,3.6z"/>
	</g>
	<g>
		<path id="顔" class="st4" d="M17.4,1.7c-0.6-0.7-2.1-1.6-3.4-1.6l0,0c-1.4,0-3.1,0.6-3.7,1.6c-0.5,0.8-1.1,1.3-1,3.5
			s0.7,3.1,1.2,3.5c0.5,0.4,1.9,1.3,3.3,1.2c1.5,0.1,2.9-0.8,3.4-1.2c0.5-0.4,1.2-1.3,1.2-3.5C18.6,3.1,18.1,2.4,17.4,1.7z"/>
		<path id="頭" class="st5" d="M17.5,1.6C16.9,0.9,15.4,0,14.1,0l0,0c-1.4,0-3.1,0.6-3.7,1.6C9.9,2.4,9.3,3,9.4,5.2
			c0.1,2.2,0.7,3.1,1.3,3.5c0,0,0,0,0,0c-0.2-0.6-0.5-1.6-0.5-2.9c-0.1-2.4,0.9-3.3,1.8-3.3c1.5,0,1.7,0.9,2.1,0.9
			c0.4,0,0.5-0.9,1.6-0.9c1.4,0,2,1.3,2.1,2.9c0.1,1.1-0.2,2.5-0.4,3.2c0,0,0,0,0,0c0.5-0.4,1.2-1.3,1.3-3.5S18.2,2.3,17.5,1.6z"/>
		<path id="口" class="st6" d="M14.1,8.3c-0.3,0-0.6-0.1-0.8-0.3c-0.1-0.1-0.1-0.2,0-0.2c0.1-0.1,0.2-0.1,0.2,0C13.6,8,14,8,14.3,8
			c0.2,0,0.4-0.1,0.5-0.2c0-0.1,0.1-0.1,0.2-0.1c0.1,0,0.1,0.1,0.1,0.2c-0.1,0.2-0.4,0.3-0.7,0.4C14.3,8.3,14.2,8.3,14.1,8.3z"/>
		<path id="目_00000005986313732981105460000017607434955032015025_" class="st7" d="M13,5.7c0,0.6-0.2,1-0.5,1
			c-0.3,0-0.5-0.4-0.5-1c0-0.6,0.2-1,0.5-1C12.8,4.7,13,5.2,13,5.7z"/>
		<path id="目" class="st7" d="M16,5.7c0,0.6-0.2,1-0.5,1c-0.3,0-0.5-0.4-0.5-1c0-0.6,0.2-1,0.5-1C15.8,4.7,16,5.2,16,5.7z"/>
	</g>
	<path id="手" class="st5" d="M20,13c3.9,0.7,0.3-4.5-0.1-5.3c-0.2-0.4,0.2-2.1,0.4-3.4C20.4,2.7,20.6,2.1,21,2
		c0.7-0.2,1.5,0.9,1.8,1.7c0.4,1.5-0.3,3.8-0.1,4.5s4.8,2.3,4.5,5.4c-0.2,2.6-5,4-5,4"/>
	<path id="手_00000134227788527594778160000014321836820495829919_" class="st5" d="M8,13c-3.9,0.7-0.4-4.5,0.1-5.3
		c0.2-0.4-0.2-2.1-0.4-3.4C7.6,2.7,7.4,2.1,7,2C6.2,1.8,5.4,2.9,5.2,3.7C4.8,5.2,5.6,7.5,5.4,8.2s-4.8,2.3-4.5,5.4c0.2,2.6,5,4,5,4"/>
	<ellipse id="胴" class="st5" cx="14" cy="20.1" rx="9" ry="10.1"/>
	<g id="足">
		<path class="st8" d="M7,30l-2-9c0.8,0.5,3.2,1.5,3.7,3.1c0.4,1.2,0.9,2.6,1.3,3.2c0.2,0.4,0.5,0.6,0.7,0.9
			c0.5,0.5,1.1,1.1,0.9,2.4C11.3,32.4,9,31.8,8,32L7,30z"/>
		<path id="足_00000038400674541700779060000011500547401545110168_" class="st5" d="M5.1,21.7c0,0,2,0.8,2.6,2.7
			c0.3,1,0.9,2.7,1.4,3.4c0.7,1.3,1.7,1.4,1.5,2.6c-0.3,1.3-3.2,1.9-3.2,1.9S3.3,34.4,2.7,33c-0.7-1.4,2.7-2.7,2.5-3.3
			s-4.2-5-4.9-6.9c-0.7-2.1,0-3.4,1.5-4.1c0.9-0.4,3.4,0,3.4,0V21.7z"/>
	</g>
	<g id="足_00000013168699997602161240000008531837617941755808_">
		<path class="st8" d="M21,30l2-9c-0.8,0.5-3.2,1.5-3.7,3.1c-0.4,1.2-0.9,2.6-1.3,3.2c-0.2,0.4-0.5,0.6-0.7,0.9
			c-0.5,0.5-1.1,1.1-0.9,2.4c0.3,1.7,2.7,1.2,3.6,1.4L21,30z"/>
		<path id="足_00000106112240280213563350000009690050584120396943_" class="st5" d="M22.9,21.7c0,0-2,0.8-2.6,2.7
			c-0.3,1-0.9,2.7-1.4,3.4c-0.7,1.3-1.7,1.4-1.5,2.6c0.3,1.3,3.2,1.9,3.2,1.9s4.1,2.1,4.8,0.7c0.7-1.4-2.7-2.7-2.5-3.3
			c0.3-0.6,4.2-5,4.9-6.9c0.7-2.1,0-3.4-1.5-4.1c-0.9-0.4-3.4,0-3.4,0V21.7z"/>
	</g>
</g>



</svg>