<?xml version="1.0" encoding="UTF-8"?>
<svg xmlns="http://www.w3.org/2000/svg" viewBox="0 0 28 40">
  <defs>
    <style>
      .cls-1, .cls-2 {
        fill: #fff;
      }

      .cls-3 {
        fill: #935c21;
      }

      .cls-4 {
        fill: #b55b99;
      }

      .cls-2 {
        opacity: .3;
      }

      .cls-5 {
        fill: #040000;
      }

      .cls-6 {
        fill: gray;
      }

      .cls-7 {
        fill: #f9cca2;
      }

      .cls-8 {
        fill: #ffce00;
      }

      .cls-9 {
        fill: #ccc;
      }

      .cls-10 {
        fill: #d19490;
      }
    </style>
  </defs>
  <g id="_ピン" data-name="ピン">
    <g id="_ピン-2" data-name="ピン">
      <rect class="cls-6" x="12" y="20" width="4" height="10"/>
      <polygon class="cls-6" points="15 40 13 40 12 30 16 30 15 40"/>
      <rect class="cls-9" x="14" y="20" width="1" height="20"/>
    </g>
  </g>
  <g id="_ノーマル" data-name="ノーマル">
    <g id="_耳" data-name="耳">
      <path id="_右耳" data-name="右耳" class="cls-10" d="M9.79,3.61c-.23-.69-1.06-1.11-1.59-.34-.35,.52,.11,1.37,.13,1.55s-.38,1.55,.21,2.06c.52,.44,1.17,0,1.17,0,0,0,.27-1.51,.25-2.16s-.18-1.1-.18-1.1Z"/>
      <path id="_左耳" data-name="左耳" class="cls-10" d="M18.21,3.61c.23-.69,1.06-1.11,1.59-.34,.35,.52-.11,1.37-.13,1.55s.38,1.55-.21,2.06c-.52,.44-1.17,0-1.17,0,0,0-.27-1.51-.25-2.16s.18-1.1,.18-1.1Z"/>
    </g>
    <g>
      <path id="_顔" data-name="顔" class="cls-7" d="M17.45,1.73c-.63-.68-2.08-1.55-3.43-1.57h0c-1.39-.03-3.07,.63-3.65,1.57-.51,.82-1.1,1.34-1.02,3.55s.73,3.07,1.24,3.47c.5,.39,1.88,1.33,3.34,1.24,1.47,.12,2.88-.84,3.39-1.24s1.17-1.26,1.24-3.47-.45-2.84-1.11-3.55Z"/>
      <path id="_頭" data-name="頭" class="cls-3" d="M17.54,1.6C16.91,.92,15.45,.03,14.08,0h0c-1.41-.03-3.09,.64-3.68,1.6-.51,.84-1.1,1.36-1.03,3.6,.07,2.24,.74,3.12,1.25,3.52,0,0,0,0,0,0-.22-.62-.46-1.59-.49-2.86-.06-2.4,.93-3.27,1.83-3.27,1.5,0,1.66,.87,2.13,.87,.4,0,.55-.87,1.56-.85,1.43,.03,2.04,1.29,2.13,2.92,.06,1.11-.22,2.46-.4,3.2,0,0,0,0,.01,0,.52-.4,1.18-1.28,1.25-3.52s-.45-2.89-1.12-3.61Z"/>
      <path id="_口" data-name="口" class="cls-4" d="M14.07,8.34c-.32,0-.63-.09-.82-.26-.07-.06-.08-.17-.02-.24,.06-.07,.17-.08,.24-.02,.17,.15,.52,.21,.84,.16,.22-.04,.4-.13,.46-.24,.05-.08,.15-.11,.23-.06,.08,.05,.11,.15,.06,.23-.12,.2-.37,.35-.7,.4-.1,.02-.19,.02-.29,.02Z"/>
      <path id="_目" data-name="目" class="cls-5" d="M13.05,5.72c0,.55-.22,1-.5,1s-.5-.45-.5-1,.22-1,.5-1,.5,.45,.5,1Z"/>
      <path id="_目-2" data-name="目" class="cls-5" d="M16.05,5.72c0,.55-.22,1-.5,1s-.5-.45-.5-1,.22-1,.5-1,.5,.45,.5,1Z"/>
    </g>
    <path id="_手" data-name="手" class="cls-3" d="M20.04,13c3.93,.75,.35-4.53-.15-5.32-.23-.36,.19-2.05,.35-3.42,.19-1.62,.38-2.18,.78-2.29,.74-.21,1.53,.92,1.76,1.73,.42,1.47-.33,3.77-.14,4.5s4.77,2.3,4.53,5.39c-.2,2.58-4.98,3.96-4.98,3.96"/>
    <path id="_手-2" data-name="手" class="cls-3" d="M8.04,13c-3.93,.75-.42-4.53,.08-5.32,.23-.36-.19-2.05-.35-3.42-.19-1.62-.38-2.18-.78-2.29-.74-.21-1.53,.92-1.76,1.73-.42,1.47,.33,3.77,.14,4.5S.59,10.51,.83,13.6c.2,2.58,4.98,3.96,4.98,3.96"/>
    <ellipse id="_胴" data-name="胴" class="cls-3" cx="14" cy="20.09" rx="9" ry="10.09"/>
    <g id="_足" data-name="足">
      <path class="cls-1" d="M7,30l-2-9c.78,.45,3.21,1.54,3.74,3.15,.39,1.18,.94,2.64,1.29,3.24,.21,.37,.45,.61,.7,.86,.48,.48,1.13,1.13,.88,2.39-.34,1.73-2.65,1.15-3.62,1.36l-1-2Z"/>
      <path id="_足-2" data-name="足" class="cls-3" d="M5.15,21.74s2.01,.8,2.65,2.72c.34,1.03,.94,2.67,1.37,3.42,.73,1.28,1.71,1.37,1.47,2.57-.26,1.3-3.18,1.88-3.18,1.88,0,0-4.11,2.05-4.79,.68s2.74-2.74,2.49-3.33S.92,24.7,.27,22.75c-.68-2.05,0-3.42,1.47-4.12,.95-.45,3.41,0,3.41,0v3.11Z"/>
    </g>
    <g id="_足-3" data-name="足">
      <path class="cls-1" d="M21,30l2-9c-.78,.45-3.21,1.54-3.74,3.15-.39,1.18-.94,2.64-1.29,3.24-.21,.37-.45,.61-.7,.86-.48,.48-1.13,1.13-.88,2.39,.34,1.73,2.65,1.15,3.62,1.36l1-2Z"/>
      <path id="_足-4" data-name="足" class="cls-3" d="M22.85,21.74s-2.01,.8-2.65,2.72c-.34,1.03-.94,2.67-1.37,3.42-.73,1.28-1.71,1.37-1.47,2.57,.26,1.3,3.18,1.88,3.18,1.88,0,0,4.11,2.05,4.79,.68s-2.74-2.74-2.49-3.33,4.23-4.98,4.88-6.93c.68-2.05,0-3.42-1.47-4.12-.95-.45-3.41,0-3.41,0v3.11Z"/>
    </g>
  </g>
  <g id="_要調査" data-name="要調査">
    <g>
      <rect class="cls-8" x="9.19" y="10.7" width="16.61" height="16.61" rx="3" ry="3" transform="translate(-8.31 17.94) rotate(-45)"/>
      <path d="M18.75,23.33c0,.7-.56,1.26-1.25,1.26s-1.25-.56-1.25-1.26,.56-1.25,1.25-1.25,1.25,.56,1.25,1.25Zm-.57-2.88c-.07,.46-.16,.78-.69,.78s-.61-.35-.66-.78l-.46-3.49v-2.5c0-.78,.42-1.05,1.16-1.05s1.11,.31,1.11,1.05v2.5l-.46,3.49Z"/>
    </g>
    <path id="_白ベール" data-name="白ベール" class="cls-2" d="M28,34h-11.35l-.65-4h-4l-.8,4H0V11.48C0,5.14,5.14,0,11.48,0h4.9C22.8,0,28,5.2,28,11.62v22.38Z"/>
  </g>
</svg>