<?xml version="1.0" encoding="utf-8"?>
<!-- Generator: Adobe Illustrator 27.1.1, SVG Export Plug-In . SVG Version: 6.00 Build 0)  -->
<svg version="1.1" xmlns="http://www.w3.org/2000/svg" xmlns:xlink="http://www.w3.org/1999/xlink" x="0px" y="0px" viewBox="0 0 28 40" style="enable-background:new 0 0 28 40;" xml:space="preserve">
<style type="text/css">
	.st0{display:none;}
	.st1{fill:#808080;}
	.st2{fill:#CCCCCC;}
	.st3{display:inline;fill:#808080;}
	.st4{display:inline;fill:#CCCCCC;}
	.st5{fill:#666666;}
	.st6{fill:#999999;}
	.st7{fill:#B3B3B3;}
	.st8{fill:#333333;}
	.st9{fill:#4D4D4D;}
	.st10{fill:#39B54A;}
	.st11{fill:#A96E2D;}
	.st12{fill:#1B1464;}
	.st13{fill:#FFFFFF;}
	.st14{fill:#2E3192;}
	.st15{opacity:0.3;fill:#FFFFFF;}
	.st16{fill:#FFCE00;}
	.st17{fill:#848484;}
	.st18{fill:#797979;}
	.st19{fill:#FF0000;}
	.st20{fill:#F2F2F2;}
</style>
<g id="ガイド_00000162338702563158607440000009963323815856875396_" class="st0">
</g>
<g id="ピン">
	<g>
		<g>
			<polygon class="st1" points="15,40 13,40 12,30 16,30 			"/>
			<rect x="14" y="30" class="st2" width="1" height="10"/>
		</g>
		<g class="st0">
			<rect x="12" y="20" class="st3" width="4" height="10"/>
			<rect x="14" y="20" class="st4" width="1" height="10"/>
		</g>
	</g>
</g>
<g id="ノーマル">
	<rect id="土台" x="4" y="25" class="st5" width="20" height="3"/>
	<rect id="本体" x="8.3" y="5" class="st6" width="11.4" height="20"/>
	<path id="本体内" class="st7" d="M14.2,23h-0.4c-1.8,0-3.2-1.4-3.2-3.2v-9.6C10.6,8.4,12,7,13.8,7h0.4c1.8,0,3.2,1.4,3.2,3.2
		v9.6C17.4,21.6,16,23,14.2,23z"/>
	<g id="奉">
		<path class="st8" d="M13.3,11.2C13.2,11.2,13.2,11.2,13.3,11.2c0-0.1,0-0.1,0.1-0.1c0,0,0.1,0,0.2,0h0c0.1,0,0.1,0,0.2,0.1
			c0.1,0,0.1,0.1,0.1,0.2c0,0,0,0.1,0,0.1c0,0,0,0.1,0,0.2c0,0.1,0,0.1,0,0.2c0,0,0,0.1,0,0.1l0,0.1l0.3,0c0.4-0.1,0.7-0.1,0.7-0.1
			c0,0,0.1,0,0.1,0h0c0.1,0,0.2,0.1,0.2,0.2v0c0,0.1-0.1,0.2-0.2,0.2c0,0-0.1,0-0.2,0.1c-0.1,0-0.1,0-0.1,0c0,0,0,0-0.1,0
			c-0.2,0.1-0.3,0.1-0.3,0.1h0l0,0c0,0,0,0,0,0c0,0-0.1,0.1-0.2,0.1c-0.3,0.1-0.3,0.1-0.4,0.2c0,0,0,0.1,0,0.1c0,0,0,0,0,0l0,0
			c0,0,0.1,0,0.2-0.1c0.1,0,0.2-0.1,0.3-0.1s0.2,0,0.2-0.1c0,0,0.1,0,0.1,0c0,0,0.1,0,0.1,0c0,0,0.1,0,0.2,0c0.1,0,0.2,0.1,0.2,0.2
			c0,0,0,0,0,0.1c0,0-0.1,0.1-0.2,0.1c0,0-0.1,0-0.1,0c0,0,0,0-0.1,0c0,0-0.1,0-0.3,0.1c-0.2,0.1-0.3,0.2-0.3,0.2c0,0,0,0,0.1,0
			c0,0,0,0,0.1,0l0,0l0,0c0,0,0.1,0,0.2,0l0,0l0.1,0l0.2-0.1c0.1,0,0.2-0.1,0.2-0.1c0,0,0.1,0,0.2-0.1c0.1,0,0.1-0.1,0.2-0.1
			c0.1,0,0.2,0,0.2,0s0.1,0,0.1,0c0.1,0,0.1,0.1,0.1,0.1c0,0,0,0.1,0,0.1c0,0-0.2,0.1-0.3,0.1c-0.2,0-0.5,0.1-0.5,0.1
			c0,0,0.1,0.1,0.1,0.1c0.2,0.2,0.4,0.4,0.5,0.5c0.3,0.4,0.7,0.8,1.1,1c0.1,0,0.2,0.1,0.4,0.2c0.3,0.2,0.6,0.4,0.7,0.4
			c0,0,0,0.1,0,0.1c0,0,0,0.1-0.1,0.2c0,0-0.1,0.1-0.1,0.1c0,0-0.2,0-0.3-0.1c-0.1,0-0.2-0.1-0.3-0.1c-0.1,0-0.2-0.1-0.2-0.1
			c0,0-0.1,0-0.1,0c0,0-0.1,0-0.1-0.1c-0.1,0-0.1-0.1-0.2-0.1c-0.4-0.2-0.9-0.7-1.2-1.2c-0.2-0.3-0.6-0.7-0.7-0.7h0
			c0,0-0.1,0-0.2,0.1l0,0c-0.1,0-0.2,0.1-0.2,0.1c-0.2,0.1-0.4,0.2-0.5,0.2l-0.2,0.1c-0.1,0.1-0.2,0.1-0.3,0.4
			c-0.1,0.2-0.1,0.2-0.3,0.5l0,0c-0.2,0.2-0.2,0.2-0.5,0.6c-0.4,0.5-0.7,0.7-1.1,0.9c-0.1,0-0.2,0.1-0.4,0.1c-0.1,0-0.2,0-0.3,0
			c0,0,0,0,0,0c0,0,0,0,0,0c0,0,0,0,0,0c0,0,0.1,0,0.1-0.1c0,0,0.2-0.1,0.2-0.1c0.1,0,0.1-0.1,0.1-0.1c0,0,0.1-0.1,0.3-0.2
			c0.3-0.2,0.7-0.6,0.8-0.8l0.1-0.1c0.1,0,0.2-0.3,0.3-0.5c0,0,0.1-0.1,0.1-0.1c0,0,0-0.1,0.1-0.1c0,0,0,0,0,0s0,0,0,0l0,0
			c0,0-0.1,0-0.1,0c0,0,0,0-0.1,0c0,0-0.1,0-0.2,0.1c-0.1,0-0.2,0.1-0.3,0.1c-0.1,0-0.1,0-0.2-0.1c0,0-0.1-0.1-0.1-0.2
			c0,0,0-0.1,0-0.1c0-0.1,0.1-0.1,0.3-0.2c0.1,0,0.1-0.1,0.5-0.3c0.3-0.2,0.7-0.5,0.7-0.5c0,0,0-0.1,0.1-0.1l0-0.1l-0.2,0
			c-0.1,0-0.2,0-0.2,0c-0.1,0-0.2-0.1-0.2-0.2v0c0-0.1,0-0.1,0.1-0.1c0.1,0,0.1-0.1,0.2-0.1c0.5-0.2,0.5-0.3,0.6-0.6l0,0
			c0,0,0,0-0.1,0c-0.4-0.1-0.6-0.2-0.7-0.3c0,0,0-0.1,0-0.1c0,0,0-0.1,0.1-0.1c0.1,0,0.1,0,0.1,0c0,0,0.1,0,0.2,0c0.1,0,0.2,0,0.3,0
			c0.1,0,0.1,0,0.1,0c0.1,0,0.1,0,0.1-0.1l0,0c0,0,0-0.1,0-0.2c0-0.1,0-0.2,0-0.2C13.4,11.4,13.4,11.3,13.3,11.2
			C13.3,11.3,13.3,11.3,13.3,11.2z M12.6,14.5C12.6,14.4,12.7,14.4,12.6,14.5l0.1-0.2c0,0-0.3,0.2-0.4,0.2v0
			C12.4,14.6,12.5,14.5,12.6,14.5z M13.8,14.6C13.7,14.6,13.7,14.6,13.8,14.6L13.8,14.6C13.8,14.5,13.8,14.5,13.8,14.6
			c0.1-0.1,0.1-0.1,0.2,0h0c0,0,0,0,0.1,0c0,0,0,0,0.1,0.1c0,0,0,0.1,0,0.2v0.1c0,0.2,0,0.2,0.2,0.3c0.1,0,0.1,0.1,0.1,0.1
			c0,0,0,0,0,0.1s0,0,0,0.1c0,0-0.1,0.1-0.2,0.2c-0.1,0.1-0.1,0.1-0.1,0.2l0,0.1c0,0,0,0.2,0,0.2v0.1l0.1-0.1l0.1-0.1v-0.2
			c0-0.1,0-0.2,0-0.2v0c0,0,0-0.1,0-0.1s0.1,0.1,0.1,0.2c0,0,0.1,0.1,0.2,0.1c0.2,0.1,0.2,0.1,0.2,0.2c0,0.1-0.4,0.5-0.5,0.5
			c0,0-0.2,0.2-0.2,0.2c0,0,0,0.2,0,0.4c0,0.3,0,0.4,0,0.4c0,0.1,0,0.3,0,0.5c0,0.4,0,0.6,0,0.6l0,0l0,0.1c0,0,0,0,0,0
			c0,0.1,0,0.1,0,0.1c0,0,0,0,0,0l0,0c-0.1,0-0.1-0.1-0.1-0.3l0-0.1c0-0.1,0-0.1,0-0.2c0-0.1,0-0.5-0.1-1c0-0.2,0-0.3,0-0.3
			c0,0-0.1,0-0.2,0.1c-0.3,0.1-0.4,0.2-0.7,0.2c-0.1,0-0.1,0-0.1,0c-0.1,0-0.1,0-0.1-0.1c0,0,0-0.1-0.1-0.1c0,0,0-0.1,0-0.1
			c0-0.1,0.2-0.3,0.8-0.9l0.4-0.4v-0.1c0-0.1,0-0.1-0.1-0.1l-0.1,0l0,0c0,0-0.1,0-0.1-0.1c-0.1,0-0.1-0.1-0.1-0.1c0,0,0,0,0,0
			c0,0,0.3-0.1,0.4-0.1s0.1,0,0.1-0.1c0,0,0-0.1,0-0.1c0,0,0-0.1,0-0.2S13.8,14.6,13.8,14.6z M12.8,13.2
			C12.8,13.3,12.8,13.3,12.8,13.2c0.1,0,0.1,0,0.2,0c0,0,0.1-0.1,0.1-0.1h0C12.9,13.1,12.8,13.2,12.8,13.2z M13.7,16.3
			c0-0.1,0-0.2,0-0.2c0,0-0.3,0.3-0.5,0.5c-0.1,0.1-0.1,0.1-0.1,0.1c0,0,0,0,0,0c0,0,0,0,0.1,0c0,0,0.1,0,0.1,0c0,0,0.2-0.1,0.4-0.2
			l0.1,0V16.3z M13.9,13.8c0,0-0.1,0-0.1-0.1c-0.1-0.1-0.1-0.1-0.1-0.1c0,0-0.1,0-0.2,0.1c-0.1,0.1-0.2,0.1-0.2,0.2
			c0,0.1,0,0.1,0,0.2c0,0,0.1,0,0.1,0C13.8,13.9,13.9,13.9,13.9,13.8C14,13.9,14,13.9,13.9,13.8C14,13.9,14,13.8,13.9,13.8
			C14,13.8,13.9,13.8,13.9,13.8z"/>
	</g>
	<polygon id="屋根大" class="st1" points="19.7,0 8.3,0 6,5 22,5 	"/>
	<path id="屋根小" class="st9" d="M20.4,2.4c-0.7,0-1.4-0.2-1.9-0.6L18,1.5c-0.9-0.6-2-0.9-3.1-0.9H14h-0.9
		c-1.1,0-2.2,0.3-3.1,0.9L9.6,1.8C9,2.2,8.3,2.4,7.6,2.4H6v2h1.6c1.1,0,2.2-0.3,3.1-0.9l0.5-0.3c0.5-0.4,1.2-0.6,1.9-0.6H14h0.9
		c0.7,0,1.4,0.2,1.9,0.6l0.5,0.3c0.9,0.6,2,0.9,3.1,0.9H22v-2H20.4z"/>
	<g id="地面_00000085960540020044898610000002193894466238366089_">
		<path id="草_00000050658507514173148250000014360179358624052912_" class="st10" d="M2.4,29c-0.4-1.3-0.5-2.2-1.3-3.5
			C2.8,25.4,3.5,27.9,2.4,29L2.4,29z"/>
		<path id="草_00000179627912085844586860000016558588140227868062_" class="st10" d="M26.6,29c-1.1-1.1-0.4-3.6,1.3-3.5
			C27.1,26.8,27,27.7,26.6,29L26.6,29z"/>
		<path id="草_00000151529837931384215080000007510860043949423779_" class="st10" d="M25.8,29.5c-1.2-2.3-0.6-6.1,2.1-7
			C26.2,24.6,26.2,27,25.8,29.5L25.8,29.5z"/>
		<rect id="地面" y="28" class="st11" width="28" height="2"/>
	</g>
</g>

<g id="要調査">
	<path id="白ベール" class="st15" d="M28,30H0V8.6C0,3.9,3.9,0,8.6,0h10.6C24.1,0,28,3.9,28,8.8V30z"/>
	<g>
		<path class="st16" d="M27.1,21.6l-7.5,7.5c-1.2,1.2-3.1,1.2-4.2,0l-7.5-7.5c-1.2-1.2-1.2-3.1,0-4.2l7.5-7.5c1.2-1.2,3.1-1.2,4.2,0
			l7.5,7.5C28.3,18.5,28.3,20.5,27.1,21.6z"/>
		<g>
			<path d="M18.7,23.8c0,0.7-0.6,1.3-1.2,1.3s-1.3-0.6-1.3-1.3c0-0.7,0.6-1.2,1.3-1.2S18.7,23.1,18.7,23.8z M18.2,21
				c-0.1,0.5-0.2,0.8-0.7,0.8c-0.5,0-0.6-0.4-0.7-0.8l-0.5-3.5V15c0-0.8,0.4-1.1,1.2-1.1c0.7,0,1.1,0.3,1.1,1.1v2.5L18.2,21z"/>
		</g>
	</g>
</g>

</svg>