<?xml version="1.0" encoding="UTF-8"?>
<svg xmlns="http://www.w3.org/2000/svg" viewBox="0 0 28 40">
  <defs>
    <style>
      .cls-1 {
        fill: #4d4d4d;
      }

      .cls-2 {
        fill: #333;
      }

      .cls-3 {
        fill: #39b54a;
      }

      .cls-4 {
        fill: gray;
      }

      .cls-5 {
        fill: #a96e2d;
      }

      .cls-6 {
        fill: #999;
      }

      .cls-7 {
        fill: #ccc;
      }

      .cls-8 {
        fill: #b3b3b3;
      }

      .cls-9 {
        fill: #666;
      }
    </style>
  </defs>
  <g id="_ピン" data-name="ピン">
    <g>
      <polygon class="cls-4" points="15 40 13 40 12 30 16 30 15 40"/>
      <rect class="cls-7" x="14" y="30" width="1" height="10"/>
    </g>
  </g>
  <g id="_ノーマル" data-name="ノーマル">
    <rect id="_土台" data-name="土台" class="cls-9" x="4" y="25" width="20" height="3"/>
    <rect id="_本体" data-name="本体" class="cls-6" x="8.29" y="5" width="11.43" height="20"/>
    <rect id="_本体内" data-name="本体内" class="cls-8" x="10.57" y="7" width="6.86" height="16" rx="3.21" ry="3.21"/>
    <g id="_奉" data-name="奉">
      <path class="cls-2" d="M13.26,11.24s-.03-.06-.03-.07c0-.02,.04-.05,.11-.07,.02,0,.12-.02,.18-.03h.02c.07,0,.1,.02,.16,.06,.06,.04,.09,.09,.09,.17,0,.02,0,.08-.02,.13,0,.04-.02,.13-.03,.19,0,.06-.02,.14-.03,.16,0,.02-.02,.09-.02,.14v.1s.27-.04,.27-.04c.44-.06,.7-.09,.72-.09,.04,0,.08,.02,.12,.03h0c.14,.05,.23,.14,.23,.22v.02c-.02,.09-.13,.18-.22,.19-.05,0-.11,.03-.18,.06-.06,.03-.12,.05-.13,.05,0,0-.05,0-.09,.03-.18,.08-.28,.12-.31,.12h-.02s-.02,0-.05,0c-.03,.02-.13,.06-.17,.08-.27,.1-.3,.13-.36,.25-.02,.05-.03,.1-.03,.11t0,0v.02s.1-.02,.18-.06c.09-.02,.22-.06,.3-.07s.18-.04,.22-.06c.05-.02,.09-.03,.13-.03,.05,0,.09,0,.14,.05,.04,.03,.1,.05,.15,.05,.11,0,.2,.12,.2,.23,0,.03,0,.05-.02,.08-.02,.04-.12,.06-.2,.06-.03,0-.06,0-.09,0-.02,0-.05-.02-.06-.02-.04,0-.12,.03-.33,.13-.17,.08-.3,.15-.3,.16,0,.02,.04,.02,.1,.02,.03,0,.04,0,.11,0h.02s0,.02,0,.02c.04,0,.1,0,.16,.03h.02s.14,.06,.14,.06l.16-.06c.09-.04,.18-.07,.23-.08,.05,0,.11-.05,.15-.08,.06-.05,.09-.06,.22-.06,.08,0,.15,.02,.18,.03s.06,.03,.1,.04c.08,.02,.13,.08,.13,.14,0,.05,0,.07-.02,.08-.05,.04-.18,.08-.31,.1-.19,.02-.46,.08-.46,.1,0,0,.06,.07,.14,.14,.2,.18,.44,.44,.49,.5,.3,.43,.69,.81,1.07,1.04,.06,.04,.22,.13,.39,.21,.32,.16,.65,.35,.74,.45,.04,.03,.05,.06,.05,.09,0,.04-.02,.1-.08,.15-.04,.04-.07,.06-.13,.06-.05,0-.15-.04-.3-.1-.12-.05-.25-.1-.31-.14-.09-.04-.15-.07-.2-.1-.03-.02-.06-.05-.08-.05-.02-.02-.06-.04-.12-.08-.06-.03-.14-.09-.2-.14-.37-.25-.87-.74-1.18-1.18-.23-.32-.58-.7-.66-.7h-.03s-.1,.02-.23,.07l-.03,.02c-.07,.04-.15,.07-.19,.09-.16,.06-.38,.18-.47,.22l-.18,.1c-.14,.07-.18,.14-.28,.44-.06,.17-.1,.25-.26,.47v.02q-.16,.22-.47,.59c-.37,.46-.69,.72-1.1,.91-.12,.05-.19,.07-.36,.08-.11,0-.24,.02-.27,.03-.02,0-.03,0-.05,0-.03,0-.05,0-.05-.03,0,0,0-.02,0-.02,0-.02,.06-.05,.13-.07,.05-.02,.15-.08,.22-.12,.06-.04,.12-.08,.13-.08,0,0,.13-.08,.26-.18,.29-.22,.69-.61,.78-.75l.09-.12c.06-.05,.2-.28,.31-.5,.02-.05,.06-.1,.06-.1,.02-.02,.05-.07,.06-.1,0-.02,.02-.03,.02-.04s0-.02-.02-.02h-.02s-.06,.02-.09,.04c-.02,.02-.05,.04-.07,.04-.02,0-.13,.03-.24,.07-.13,.04-.24,.07-.32,.07-.11,0-.14,0-.21-.08-.05-.05-.08-.13-.1-.19,0-.03-.02-.07-.02-.09,0-.08,.07-.12,.29-.23,.06-.03,.13-.08,.46-.31,.26-.18,.68-.48,.72-.52,.02-.02,.05-.06,.06-.1l.02-.06-.15,.02c-.08,0-.18,0-.23-.02-.11-.03-.2-.14-.21-.24v-.02c0-.06,.02-.08,.09-.13,.06-.04,.12-.08,.17-.1,.5-.24,.54-.28,.58-.55v-.04s0-.03-.06-.04c-.39-.06-.63-.15-.7-.29-.02-.04-.03-.08-.03-.11,0-.05,.02-.1,.09-.14,.06-.04,.08-.05,.14-.05,.05,0,.12,0,.22,.03,.09,.02,.24,.03,.33,.04,.06,0,.07,0,.1,0,.06,0,.07-.02,.09-.12h0s.02-.14,.04-.21c.02-.06,.02-.18,.02-.23,0-.09,0-.12-.05-.13-.02,0-.06-.04-.08-.08Zm-.66,3.23s.08-.06,.09-.1v-.06s-.34,.22-.35,.25h0s.15-.03,.26-.09Zm1.16,.12s-.02-.02-.02-.03v-.02s.02,0,.05,0c.03,0,.06,0,.13,.02h.02s.04,0,.06,0,.05,.02,.08,.06,.04,.06,.04,.16v.12c0,.18,.03,.22,.16,.26,.06,.02,.12,.06,.14,.1,.02,.03,.02,.05,.02,.06s0,.03-.02,.07c-.02,.04-.1,.14-.18,.21-.1,.1-.12,.14-.12,.17v.06s.02,.17,.02,.24v.13l.1-.07,.1-.06v-.22c0-.12-.02-.23-.03-.24v-.02s.02-.06,.05-.06,.09,.11,.14,.23c0,.02,.09,.06,.18,.1,.17,.07,.19,.11,.19,.22,0,.07-.41,.46-.49,.46-.04,0-.19,.18-.19,.22,0,.02-.02,.18-.02,.36,0,.33-.02,.39-.02,.42,0,.06-.02,.27-.03,.47-.02,.35-.03,.56-.05,.62l-.02,.05-.02,.1s0,.02,0,.04c-.02,.07-.02,.1-.04,.1,0,0-.02,0-.04,0h0c-.08-.05-.12-.14-.13-.3v-.06c-.02-.08-.02-.14-.02-.22,0-.07-.03-.54-.06-1.01,0-.18-.02-.33-.02-.34,0,0-.08,.02-.16,.06-.27,.13-.35,.16-.67,.2-.06,0-.11,.02-.14,.02-.07,0-.1-.02-.14-.07-.02-.04-.05-.08-.08-.13-.03-.04-.05-.06-.05-.1,0-.1,.18-.28,.81-.93l.38-.4v-.11q0-.1-.07-.1h-.06s-.04,0-.04,0c0,0-.06-.03-.12-.06-.09-.05-.14-.1-.14-.14,0,0,0-.02,.02-.02,.05-.03,.34-.1,.41-.1s.06,0,.06-.07c0-.04,0-.1,0-.12,0-.04,.02-.14,.02-.2s0-.11,0-.13Zm-.94-1.38s0,.04,.03,.04,.07-.02,.14-.06c.04-.03,.07-.06,.07-.07h-.03c-.14,0-.22,.06-.22,.1Zm.89,3.06c0-.1,0-.17-.02-.17-.02,0-.31,.28-.49,.47-.06,.06-.1,.11-.1,.14,0,0,0,.02,.02,.02,0,0,.04-.02,.06-.02,.05-.02,.07-.03,.08-.03,.02,0,.23-.1,.35-.18l.1-.05v-.18Zm.22-2.46s-.07-.04-.13-.08c-.06-.06-.1-.08-.1-.08,0,0-.07,.04-.15,.1-.13,.09-.16,.11-.22,.23-.03,.07-.04,.14-.04,.16,.03,0,.06,0,.11-.03,.41-.18,.49-.2,.55-.22,.04,0,.04-.02,.04-.03s0-.02,0-.02c-.02-.02-.04-.02-.06-.02Z"/>
    </g>
    <polygon id="_屋根大" data-name="屋根大" class="cls-4" points="19.71 0 8.29 0 6 5 22 5 19.71 0"/>
    <path id="_屋根小" data-name="屋根小" class="cls-1" d="M20.38,2.41c-.7,0-1.39-.2-1.94-.58l-.49-.33c-.88-.59-1.96-.92-3.06-.92h-1.78c-1.1,0-2.19,.33-3.06,.92l-.49,.33c-.55,.37-1.24,.58-1.94,.58h-1.62v2h1.62c1.1,0,2.19-.33,3.06-.92l.49-.33c.55-.37,1.24-.58,1.94-.58h1.78c.7,0,1.39,.2,1.94,.58l.49,.33c.88,.59,1.96,.92,3.06,.92h1.62V2.41h-1.62Z"/>
    <g id="_地面" data-name="地面">
      <path id="_草" data-name="草" class="cls-3" d="M2.4,29c-.44-1.34-.51-2.22-1.31-3.5,1.67-.06,2.41,2.38,1.31,3.5h0Z"/>
      <path id="_草-2" data-name="草" class="cls-3" d="M26.58,29c-1.1-1.12-.36-3.56,1.31-3.5-.8,1.28-.87,2.16-1.31,3.5h0Z"/>
      <path id="_草-3" data-name="草" class="cls-3" d="M25.82,29.5c-1.16-2.29-.63-6.07,2.07-7-1.67,2.1-1.73,4.49-2.07,7h0Z"/>
      <rect id="_地面-2" data-name="地面" class="cls-5" y="28" width="28" height="2"/>
    </g>
  </g>
</svg>