<?xml version="1.0" encoding="utf-8"?>
<!-- Generator: Adobe Illustrator 27.1.1, SVG Export Plug-In . SVG Version: 6.00 Build 0)  -->
<svg version="1.1" xmlns="http://www.w3.org/2000/svg" xmlns:xlink="http://www.w3.org/1999/xlink" x="0px" y="0px" viewBox="0 0 28 40" style="enable-background:new 0 0 28 40;" xml:space="preserve">
<style type="text/css">
	.st0{display:none;}
	.st1{fill:#808080;}
	.st2{fill:#CCCCCC;}
	.st3{fill:#534741;}
	.st4{opacity:0.7;fill:#FFFFFF;}
	.st5{fill:#A67C52;}
	.st6{fill:#754C24;}
	.st7{fill:#998675;}
	.st8{fill:#C7B299;}
	.st9{fill:#1B1464;}
	.st10{fill:#FFFFFF;}
	.st11{fill:#2E3192;}
	.st12{opacity:0.3;fill:#FFFFFF;}
	.st13{fill:#FFCE00;}
	.st14{fill:#4A4A4A;}
	.st15{fill:#848484;}
	.st16{fill:#545454;}
	.st17{fill:#8A8A8A;}
	.st18{fill:#B6B6B6;}
	.st19{fill:#FF0000;}
	.st20{fill:#F2F2F2;}
</style>
<g id="ガイド_00000162338702563158607440000009963323815856875396_" class="st0">
</g>
<g id="ピン">
	<g>
		<g>
			<polygon class="st1" points="15,40 13,40 12,30 16,30 			"/>
			<rect x="14" y="30" class="st2" width="1" height="10"/>
		</g>
		<g>
			<rect x="12" y="20" class="st1" width="4" height="10"/>
			<rect x="14" y="20" class="st2" width="1" height="10"/>
		</g>
	</g>
</g>
<g id="ノーマル">
	<path id="山右" class="st3" d="M17,20h11c0,0-1.8-15-5.7-15S17,20,17,20z"/>
	<path id="山頂" class="st4" d="M22.3,6c-0.8,0-1.8,2.1-2.7,5.5l1.1-1.1l1.2,2.1l1.5-2.5l1.7,1.5C24.2,8.2,23.2,6,22.3,6z"/>
	<path id="木_00000094597043782361187890000001201587704141609404_" class="st5" d="M25,14.5c0-0.3-0.1-0.6-0.1-0.9
		c-0.2,0.2-0.3,0.3-0.4,0.5c-0.2-0.2-0.4-0.3-0.7-0.4c-0.1,0.5,0,0.9,0.2,1.4c-0.2,0.6-0.2,1.3,0,2c0.5-0.5,0.8-1.1,1-1.7
		C25.7,15,26,14.6,25,14.5z"/>
	<path id="山中" class="st6" d="M7.2,20h13.7c0,0-2.3-20-7.1-20S7.2,20,7.2,20z"/>
	<path id="山左" class="st7" d="M0,20h11c0,0-1.8-15-5.7-15S0,20,0,20z"/>
	<path id="木_00000020394455519836591090000009122873992155569068_" class="st8" d="M4.5,9.3C4.3,9.1,4.1,8.9,3.9,8.6
		C3.8,8.8,3.8,9.1,3.8,9.3C3.6,9.2,3.3,9.2,3,9.3c0.2,0.5,0.5,0.8,0.9,1.1c0.1,0.6,0.5,1.2,1,1.8c0.2-0.7,0.2-1.4,0-2
		C5.4,9.4,5.4,8.9,4.5,9.3z"/>
	<path id="木_00000018212021164583372290000012213413152196059293_" class="st8" d="M2.8,15.4c-0.1-0.3-0.2-0.6-0.3-0.9
		c-0.1,0.2-0.2,0.4-0.3,0.6C2,15,1.7,14.9,1.4,14.9c0,0.5,0.2,0.9,0.5,1.3c-0.1,0.7,0.1,1.3,0.4,2c0.4-0.6,0.6-1.2,0.6-1.9
		C3.6,15.8,3.8,15.3,2.8,15.4z"/>
	<path id="木_00000044889171225970369770000006936042994711782590_" class="st5" d="M12.5,12.3c-0.2-0.3-0.4-0.5-0.6-0.7
		c-0.1,0.2-0.1,0.4-0.1,0.6c-0.2-0.1-0.5-0.1-0.8,0c0.2,0.5,0.5,0.8,0.9,1.1c0.1,0.6,0.5,1.2,1,1.8c0.2-0.7,0.2-1.4,0-2
		C13.4,12.4,13.4,11.9,12.5,12.3z"/>
	<path id="木_00000132069537543455827480000007574229573586123665_" class="st5" d="M13.5,2.3c-0.2-0.3-0.4-0.5-0.6-0.7
		c-0.1,0.2-0.1,0.4-0.1,0.6c-0.2-0.1-0.5-0.1-0.8,0c0.2,0.5,0.5,0.8,0.9,1.1c0.1,0.6,0.5,1.2,1,1.8c0.2-0.7,0.2-1.4,0-2
		C14.4,2.4,14.4,1.9,13.5,2.3z"/>
	<path id="木_00000011732787007914761040000004986449473781148829_" class="st8" d="M8.1,14.6c0-0.3,0-0.6,0-0.9
		c-0.2,0.1-0.3,0.3-0.5,0.5c-0.2-0.2-0.4-0.4-0.6-0.5C6.8,14.1,6.8,14.6,7,15c-0.3,0.6-0.4,1.3-0.2,2c0.6-0.5,0.9-1,1.1-1.6
		C8.7,15.2,9,14.7,8.1,14.6z"/>
	<path id="木_00000104681676914389088100000003139314258685874608_" class="st5" d="M17.1,8.6c0-0.3,0-0.6,0-0.9
		c-0.2,0.1-0.3,0.3-0.5,0.5c-0.2-0.2-0.4-0.4-0.6-0.5C15.8,8.1,15.8,8.6,16,9c-0.3,0.6-0.4,1.3-0.2,2c0.6-0.5,0.9-1,1.1-1.6
		C17.7,9.2,18,8.7,17.1,8.6z"/>
	<path id="木" class="st5" d="M18.5,16c-0.3,0-0.6,0.1-0.8,0.2c-0.1-0.2-0.1-0.4-0.2-0.6c-0.2,0.3-0.3,0.5-0.4,0.8
		c-1-0.2-0.8,0.3-0.2,0.8c-0.1,0.6,0.1,1.3,0.4,1.9c0.4-0.6,0.6-1.3,0.6-2C18.2,16.9,18.4,16.5,18.5,16z"/>
</g>

<g id="要調査">
	<path id="白ベール" class="st12" d="M28,20H0v-8.3C0,5.2,5.2,0,11.7,0h4.2C22.6,0,28,5.4,28,12.1V20z"/>
	<g>
		<path class="st13" d="M27.1,21.6l-7.5,7.5c-1.2,1.2-3.1,1.2-4.2,0l-7.5-7.5c-1.2-1.2-1.2-3.1,0-4.2l7.5-7.5c1.2-1.2,3.1-1.2,4.2,0
			l7.5,7.5C28.3,18.5,28.3,20.5,27.1,21.6z"/>
		<g>
			<path d="M18.7,23.8c0,0.7-0.6,1.3-1.2,1.3s-1.3-0.6-1.3-1.3c0-0.7,0.6-1.2,1.3-1.2S18.7,23.1,18.7,23.8z M18.2,21
				c-0.1,0.5-0.2,0.8-0.7,0.8c-0.5,0-0.6-0.4-0.7-0.8l-0.5-3.5V15c0-0.8,0.4-1.1,1.2-1.1c0.7,0,1.1,0.3,1.1,1.1v2.5L18.2,21z"/>
		</g>
	</g>
</g>

</svg>