<?xml version="1.0" encoding="UTF-8"?>
<svg xmlns="http://www.w3.org/2000/svg" viewBox="0 0 28 40">
  <defs>
    <style>
      .cls-1 {
        fill: #998675;
      }

      .cls-2 {
        fill: #534741;
      }

      .cls-3 {
        fill: #c7b299;
      }

      .cls-4 {
        fill: #a67c52;
      }

      .cls-5 {
        fill: #fff;
        opacity: .7;
      }

      .cls-6 {
        fill: gray;
      }

      .cls-7 {
        fill: #ccc;
      }

      .cls-8 {
        fill: #754c24;
      }
    </style>
  </defs>
  <g id="_ピン" data-name="ピン">
    <g>
      <g>
        <polygon class="cls-6" points="15 40 13 40 12 30 16 30 15 40"/>
        <rect class="cls-7" x="14" y="30" width="1" height="10"/>
      </g>
      <g>
        <rect class="cls-6" x="12" y="20" width="4" height="10"/>
        <rect class="cls-7" x="14" y="20" width="1" height="10"/>
      </g>
    </g>
  </g>
  <g id="_ノーマル" data-name="ノーマル">
    <path id="_山右" data-name="山右" class="cls-2" d="M17,20h11s-1.85-15-5.68-15-5.32,15-5.32,15Z"/>
    <path id="_山頂" data-name="山頂" class="cls-5" d="M22.32,6c-.76,0-1.8,2.13-2.69,5.5l1.11-1.14,1.17,2.14,1.55-2.5,1.71,1.49c-.93-3.27-2-5.49-2.85-5.49Z"/>
    <path id="_木" data-name="木" class="cls-4" d="M24.99,14.51c-.01-.3-.05-.6-.14-.91-.16,.16-.29,.33-.42,.5-.19-.18-.41-.32-.69-.42-.11,.51,0,.94,.21,1.35-.21,.63-.22,1.32-.02,2.04,.52-.51,.84-1.09,.98-1.72,.79-.32,1.06-.77,.08-.84Z"/>
    <path id="_山中" data-name="山中" class="cls-8" d="M7.17,20h13.67S18.54,0,13.78,0,7.17,20,7.17,20Z"/>
    <path id="_山左" data-name="山左" class="cls-1" d="M0,20H11s-1.85-15-5.68-15S0,20,0,20Z"/>
    <path id="_木-2" data-name="木" class="cls-3" d="M4.49,9.34c-.16-.25-.35-.49-.58-.72-.06,.22-.09,.43-.11,.64-.25-.06-.51-.07-.8-.01,.16,.49,.48,.81,.87,1.06,.14,.65,.48,1.25,1.02,1.77,.18-.71,.17-1.37-.03-1.98,.51-.67,.52-1.19-.36-.76Z"/>
    <path id="_木-3" data-name="木" class="cls-3" d="M2.81,15.41c-.07-.29-.18-.58-.32-.86-.12,.19-.22,.38-.3,.57-.22-.13-.47-.23-.76-.27,0,.52,.19,.92,.48,1.28-.07,.66,.05,1.33,.4,2,.4-.61,.59-1.24,.6-1.88,.7-.47,.88-.97-.1-.84Z"/>
    <path id="_木-4" data-name="木" class="cls-4" d="M12.49,12.34c-.16-.25-.35-.49-.58-.72-.06,.22-.09,.43-.11,.64-.25-.06-.51-.07-.8-.01,.16,.49,.48,.81,.87,1.06,.14,.65,.48,1.25,1.02,1.77,.18-.71,.17-1.37-.03-1.98,.51-.67,.52-1.19-.36-.76Z"/>
    <path id="_木-5" data-name="木" class="cls-4" d="M13.49,2.34c-.16-.25-.35-.49-.58-.72-.06,.22-.09,.43-.11,.64-.25-.06-.51-.07-.8-.01,.16,.49,.48,.81,.87,1.06,.14,.65,.48,1.25,1.02,1.77,.18-.71,.17-1.37-.03-1.98,.51-.67,.52-1.19-.36-.76Z"/>
    <path id="_木-6" data-name="木" class="cls-3" d="M8.07,14.57c.02-.3,0-.6-.05-.92-.17,.14-.32,.3-.46,.45-.17-.19-.38-.36-.64-.48-.16,.49-.09,.94,.07,1.37-.27,.61-.35,1.29-.23,2.03,.56-.46,.94-1,1.15-1.61,.81-.24,1.14-.66,.16-.83Z"/>
    <path id="_木-7" data-name="木" class="cls-4" d="M17.07,8.57c.02-.3,0-.6-.05-.92-.17,.14-.32,.3-.46,.45-.17-.19-.38-.36-.64-.48-.16,.49-.09,.94,.07,1.37-.27,.61-.35,1.29-.23,2.03,.56-.46,.94-1,1.15-1.61,.81-.24,1.14-.66,.16-.83Z"/>
    <path id="_木-8" data-name="木" class="cls-4" d="M18.47,15.97c-.3,.01-.55,.08-.78,.19-.07-.2-.14-.4-.25-.6-.18,.27-.31,.55-.41,.83-.95-.23-.82,.28-.18,.82-.06,.64,.07,1.29,.41,1.94,.41-.63,.61-1.29,.6-1.95,.32-.33,.56-.71,.61-1.23Z"/>
  </g>
</svg>