<?xml version="1.0" encoding="UTF-8"?>
<svg xmlns="http://www.w3.org/2000/svg" viewBox="0 0 28 40">
  <defs>
    <style>
      .cls-1 {
        fill: #797979;
      }

      .cls-2 {
        fill: #848484;
      }

      .cls-3 {
        fill: #333;
      }

      .cls-4 {
        fill: #39b54a;
      }

      .cls-5 {
        fill: gray;
      }

      .cls-6 {
        fill: #a96e2d;
      }

      .cls-7 {
        fill: #999;
      }

      .cls-8 {
        fill: #ccc;
      }

      .cls-9 {
        fill: #666;
      }

      .cls-10 {
        fill: #f2f2f2;
      }

      .cls-11 {
        fill: red;
      }
    </style>
  </defs>
  <g id="_ピン" data-name="ピン">
    <g>
      <polygon class="cls-5" points="15 40 13 40 12 30 16 30 15 40"/>
      <rect class="cls-8" x="14" y="30" width="1" height="10"/>
    </g>
  </g>
  <g id="_ノーマル" data-name="ノーマル">
    <rect id="_土台" data-name="土台" class="cls-9" x="4" y="25" width="20" height="3"/>
    <polygon id="_本体" data-name="本体" class="cls-7" points="14 0 4 5.9 6.14 25 14 25 21.86 25 24 5.9 14 0"/>
    <g id="_南无" data-name="南无">
      <path class="cls-3" d="M10.99,12.36s0-.04,0-.05c0-.02,0-.04,0-.1,0-.22,.03-.56,.06-.66,.1-.48,.31-.85,.5-1.01,.06-.05,.1-.07,.11-.07h0s.02,0,.04,.02c0,0,.02,0,.02,0,.09,.04,.14,.18,.14,.28,0,.02,0,.05-.05,.09-.17,.1-.3,.66-.32,1.11v.27c0,.09,0,.16,0,.18,0,.02,.03,.11,.03,.18,0,.09,.02,.11,.06,.11h.03s.03,.05,.05,.32v.06c0,.14,.02,.28,.03,.32v.1c0,.06-.03,.09-.1,.1-.02,0-.04,0-.06,0-.06,0-.1,0-.17-.04-.22-.1-.31-.3-.33-.59,0-.03-.02-.07-.02-.09,0-.02,0-.05,0-.06-.02-.03-.03-.14-.03-.25,0-.12-.02-.22-.02-.22Zm2.21-4.29c-.14-.07-.22-.16-.22-.22,0-.02-.02-.03-.05-.05-.03-.02-.05-.03-.05-.06s.02-.06,.07-.08c.02,0,.03-.02,.06-.02h.03c.07,0,.16,.02,.35,.06,.16,.05,.18,.06,.31,.2,.07,.1,.14,.31,.14,.34s.02,.05,.03,.06c.02,.02,.03,.02,.06,.02h0s.15-.03,.25-.12c.04-.04,.06-.05,.14-.05,.02,0,.04,.02,.06,.02h.16s.02,0,.06,.02c.08,0,.15,0,.19,.02,.06,.03,.1,.06,.12,.07,.02,0,.15,.07,.18,.14,.02,.02,.04,.06,.04,.09,0,.05-.14,.15-.21,.18,0,0-.03,.02-.06,.02-.06,.02-.14,.05-.23,.09-.26,.11-.46,.18-.53,.18s-.16,.09-.19,.19c0,.03-.03,.06-.06,.07s-.06,.07-.11,.16c-.1,.19-.22,.32-.54,.62-.22,.18-.37,.29-.41,.29-.02,0-.02-.02-.02-.03,0-.06,.03-.15,.15-.29,.16-.26,.3-.58,.31-.74l.03-.12h-.22c-.26-.02-.44-.09-.61-.2-.07-.06-.12-.1-.12-.15v-.02s0-.04,.02-.06c.03-.1,.13-.1,.31-.1h.06c.14,0,.28-.02,.41-.04,.16-.04,.18-.05,.18-.1h0s.02-.15,.02-.21c0-.1-.02-.11-.13-.16Zm.65,1.97c.11-.02,.28-.04,.3-.04,0,0,.02,0,.04-.02,.09-.02,.26-.09,.48-.17,.46-.15,.55-.18,.81-.21h.03s.04-.02,.04-.02h.02s.03-.02,.07-.02c.02,0,.06,.02,.12,.02,.16,0,.24,.02,.33,.08,.21,.11,.32,.21,.33,.3,0,.02,.02,.04,.02,.06h0s0,.02,0,.02t0,.02h-.02s0,.07,.02,.11c.04,.15,.06,.26,.06,.66,0,.1,0,.16,0,.23,0,.27,.02,.36,.02,.37,.02,.02,.03,.27,.03,.58,0,.24,0,.5-.02,.75,0,.1-.02,.42-.03,.48v.03l-.02,.06s-.02,.11-.02,.14c0,.05-.02,.1-.02,.13v.02s-.03,.12-.03,.12c0,.04-.02,.12-.03,.18-.02,.16-.09,.32-.15,.4l-.12,.12v.02s0,.02,0,.02c-.03,.02-.1,.05-.17,.06-.03,0-.08,0-.09,0-.02,0-.06,0-.14-.03-.04-.03-.1-.09-.12-.12-.02-.04-.06-.07-.09-.07-.03,0-.14-.15-.14-.19,0-.02-.02-.04-.04-.05-.07-.06-.37-.42-.37-.44,0-.02-.02-.04-.03-.06t-.02-.03s-.06-.13-.09-.19c-.1-.21-.22-.32-.5-.54-.07-.07-.19-.16-.2-.16,0,.02,0,.12-.02,.27v.1c0,.07,0,.17,0,.27,0,.06,0,.12,0,.18,0,.1-.02,.2-.02,.25,0,.03,0,.06,0,.12,0,0-.04,.07-.05,.14,0,.07-.02,.12-.04,.14,0,.02-.02,.06-.02,.08,0,.06-.14,.28-.18,.32-.02,.02-.05,.06-.06,.1,0,.03-.02,.05-.03,.05t0,0v-.02s-.02-.03-.02-.04v-.02c0-.09-.05-.9-.06-1v-.28s-.03-.27-.03-.27v-.12c-.02-.07-.02-.1-.07-.1,0,0-.02,0-.03,0-.02,0-.04,.02-.05,.02-.14,.05-.49,.09-.6,.09-.1,0-.16-.03-.22-.19-.02-.05-.04-.09-.04-.12,.02-.07,.05-.12,.11-.18,.22-.14,.8-.66,.8-.7,0-.02-.03-.03-.06-.03h0c-.21,0-.27,.02-.32,.04-.03,.02-.08,.02-.09,.02-.1-.02-.2-.14-.22-.25,0-.03,0-.05,0-.06,0-.05,.02-.06,.07-.1,.22-.06,.56-.38,.82-.63h0c.27-.28,.35-.4,.35-.42h0s-.03,0-.06,.02c-.12,.04-.58,.17-.66,.17-.04,0-.05,0-.05,.02,0,0,0,.02,0,.04v.02s0,.02,0,.02c0,.02,0,.06-.02,.06-.02,0-.04,.09-.05,.12-.04,.25-.07,.33-.14,.33,0,0-.02,0-.04,0l-.05-.02h0s-.02,0-.02,0c-.07,0-.21-.18-.22-.27v-.05c0-.07,.03-.26,.09-.38,.03-.07,.06-.09,.11-.09h.02c.08,0,.25-.05,.41-.12,.02,0,.06-.02,.08-.02h.02s.15-.06,.27-.1c0,0,.02,0,.04-.02l.06-.02Zm-.29,2.29v-.06s0-.07-.02-.07h0s0,0,0,0c-.09,0-.31,.24-.31,.33h0s.29-.1,.3-.13c.02,0,.02-.05,.02-.06Zm2.21,.8s.05-.25,.06-.3c.02-.1,.05-.3,.06-.45,.02-.09,.02-.18,.02-.25,.02-.2,.03-.81,.04-1.54,0-.11,.02-.23,.02-.32,0-.2,0-.34,0-.41v-.04s-.06-.05-.12-.05c-.03,0-.06,0-.11,0h-.07c-.16,.02-.29,.06-.54,.17l-.31,.1,.02,.1s.02,.06,.02,.09c0,.02,0,.04,0,.06s-.02,.05-.02,.06t0,0s-.21,.23-.4,.38c-.18,.14-.61,.42-.68,.42-.02,0-.03,.02-.06,.04h0s0,0,0,0c0,.02-.02,.03-.02,.04h0s.02,0,.06,0c.03,0,.07-.02,.13-.03h.04c.16-.04,.26-.06,.35-.06,0,0,.02,0,.06,0h.02s.04,0,.06,.02h.02s.05,.02,.08,.02c.02,0,.05,.02,.06,.02,.09,.02,.17,.14,.17,.21v.03s-.08,.07-.14,.07c-.08,.04-.21,.12-.33,.2-.04,.02-.08,.05-.1,.07-.05,.05-.06,.07-.06,.13v.02s0,.03,0,.04c0,.09,.02,.12,.04,.12t.02,0c.07-.06,.37-.13,.46-.13h.02s.05,.02,.06,.02h0s.18,.13,.18,.15c0,.02-.04,.05-.12,.07-.06,0-.14,.05-.17,.06-.04,.02-.1,.04-.11,.04-.02,0-.06,.04-.1,.08l-.08,.08,.09,.07c.46,.45,.95,.84,1.13,.93h.03s.02,.02,.02,.02c0,0,.03,0,.04-.02,.04-.05,.12-.21,.12-.27,0-.03,0-.07,.02-.08,0,0,.02,0,.02-.02Z"/>
      <path class="cls-3" d="M16.72,21.88c-.43,.14-1.57,.3-1.93,.33-.08,0-.16,0-.24,0-.56,0-.92-.16-1.07-.5-.08-.16-.1-.28-.1-.54,0-.12,0-.27,.02-.48,.02-.32,.03-.57,.04-.61,0-.04,.02-.17,.03-.29,0-.12,.02-.23,.02-.26,.09-.38,.13-.58,.13-.68,0-.04,0-.06-.02-.08t0,0s-.05,.04-.1,.14c-.13,.27-.26,.51-.31,.59,0,0-.03,.05-.06,.1,0,.02-.04,.07-.06,.1-.03,.06-.1,.16-.22,.31-.1,.13-.24,.33-.41,.57-.02,.03-.06,.09-.12,.15-.04,.05-.13,.16-.18,.22-.06,.07-.11,.15-.13,.18,0,0-.04,.05-.07,.08-.02,0-.03,.02-.05,.04-.04,.03-.11,.12-.16,.18-.05,.06-.13,.16-.18,.22-.12,.13-.3,.25-.41,.26h0c-.08,0-.2-.07-.2-.13s.23-.32,.5-.61c.41-.42,.52-.56,1.06-1.42,.22-.38,.52-1.02,.52-1.11h0s-.07,0-.11,.02c-.09,0-.25,.06-.39,.1-.12,.04-.34,.11-.53,.18-.06,.02-.11,.02-.17,.03-.07,0-.13,.02-.18,.04-.18,.08-.25,.1-.31,.1,0,0-.06,0-.1,.02-.05,.02-.09,.02-.11,.02s-.06-.02-.11-.05c-.12-.06-.24-.18-.3-.34,0,0-.02-.02-.02-.03,0-.05,.1-.07,.26-.1,.08,0,.15-.02,.22-.03,.17-.02,.34-.06,.38-.06,.06-.02,.18-.05,.33-.08,.19-.04,.4-.09,.49-.12,.02,0,.07-.02,.08-.02,.09-.02,.23-.05,.34-.08,.06-.02,.11-.05,.14-.06,.08-.03,.15-.06,.21-.08,.07-.03,.1-.09,.14-.18,.07-.22,.1-.32,.14-.65,.02-.17,.03-.26,.03-.31,0-.07-.02-.1-.06-.14-.06-.06-.09-.07-.18-.07h-.07c-.09,0-.2-.02-.26-.02-.1-.02-.18-.12-.18-.21v-.07s0-.06,0-.06c0-.1,.31-.24,.61-.28,.05,0,.12-.02,.15-.02,.02,0,.07-.02,.09-.02h.06s.13-.02,.18-.02h.1c.06,0,.12-.02,.18-.02,.07,0,.15,0,.18-.02h.02s.1,0,.17,.02c.27,.04,.46,.17,.5,.34,0,.02,0,.03,0,.05,0,.02-.02,.05-.04,.07-.02,.02-.04,.03-.06,.04t-.03,.02h-.15c-.06,.02-.12,.03-.14,.05-.02,.02-.06,.02-.09,.02-.02,0-.14,.05-.26,.1l-.2,.13,.02,.18c0,.15-.02,.28-.1,.5,0,.03-.02,.13-.06,.23-.02,.07-.04,.14-.04,.17h0s.02,0,.02,0l.13-.02,.14-.02h.05c.25-.08,.49-.14,.66-.17,.14-.03,.32-.1,.47-.22,.02-.02,.1-.04,.16-.06,.03,0,.08,.03,.12,.06,0,0,.02,.02,.04,.03,.12,.07,.22,.13,.24,.13,0,0,.08,.04,.17,.1,.13,.09,.14,.1,.14,.18,0,.05-.02,.1-.03,.11-.02,.02-.13,.02-.26,.02h-.09c-.17,0-.34,0-.38,.02-.02,0-.05,0-.08,0h-.09c-.1,.02-.17,.02-.29,.05-.03,0-.06,0-.1,0h-.03s-.09,.02-.14,.03c-.05,.02-.13,.04-.18,.04-.02,0-.21,.04-.35,.07-.06,.02-.13,.03-.18,.04-.05,0-.08,.02-.1,.02l-.06,.02s-.1,.04-.11,.06c0,.02,0,.03,0,.05,0,.03,.02,.06,.09,.14,.15,.21,.19,.34,.19,.61-.02,.24-.06,.55-.1,.72v.07c-.02,.13-.03,.39-.05,.7,0,.2-.02,.44-.02,.57,0,.29,.03,.32,.11,.35,.1,.02,.14,.02,.29,.03h.02s.08,0,.12,0c.1,0,.21-.02,.3-.04h.06s.05,0,.06-.02l.19-.02c.16-.02,.37-.06,.48-.1,.05-.02,.1-.02,.16-.03,.05,0,.14-.02,.16-.02,.6-.16,.74-.25,.9-.56,.02-.03,.03-.07,.05-.1,.02-.05,.03-.09,.04-.1,0-.03,.02-.07,.03-.09,0-.02,.02-.07,.02-.13,0-.06,.02-.18,.04-.28,.02-.1,.02-.19,.02-.29,0-.08,0-.15,0-.22-.02-.08-.02-.2-.02-.3s0-.17,.02-.17c.02,0,.03,.02,.03,.04,0,.04,.04,.24,.1,.38,.02,.05,.05,.11,.06,.14,0,.02,.02,.06,.04,.08,.02,.02,.03,.06,.03,.09,0,.02,.02,.07,.05,.1,.03,.04,.05,.1,.05,.22,0,.1,.04,.19,.08,.27,.04,.1,.05,.14,.05,.27v.21c-.02,.2-.04,.38-.06,.42-.06,.17-.22,.29-.54,.37Z"/>
    </g>
    <g id="_地面" data-name="地面">
      <path id="_草" data-name="草" class="cls-4" d="M2.4,29c-.44-1.34-.51-2.22-1.31-3.5,1.67-.06,2.41,2.38,1.31,3.5h0Z"/>
      <path id="_草-2" data-name="草" class="cls-4" d="M26.58,29c-1.1-1.12-.36-3.56,1.31-3.5-.8,1.28-.87,2.16-1.31,3.5h0Z"/>
      <path id="_草-3" data-name="草" class="cls-4" d="M25.82,29.5c-1.16-2.29-.63-6.07,2.07-7-1.67,2.1-1.73,4.49-2.07,7h0Z"/>
      <rect id="_地面-2" data-name="地面" class="cls-6" y="28" width="28" height="2"/>
    </g>
  </g>
  <g id="_消失" data-name="消失">
    <g>
      <rect id="_土台-2" data-name="土台" class="cls-9" x="4" y="25" width="20" height="3"/>
      <polygon id="_本体-2" data-name="本体" class="cls-7" points="14 0 4 5.9 6.14 25 14 25 21.86 25 24 5.9 14 0"/>
      <g id="_南无-2" data-name="南无">
        <path class="cls-3" d="M10.99,12.36s0-.04,0-.05c0-.02,0-.04,0-.1,0-.22,.03-.56,.06-.66,.1-.48,.31-.85,.5-1.01,.06-.05,.1-.07,.11-.07h0s.02,0,.04,.02c0,0,.02,0,.02,0,.09,.04,.14,.18,.14,.28,0,.02,0,.05-.05,.09-.17,.1-.3,.66-.32,1.11v.27c0,.09,0,.16,0,.18,0,.02,.03,.11,.03,.18,0,.09,.02,.11,.06,.11h.03s.03,.05,.05,.32v.06c0,.14,.02,.28,.03,.32v.1c0,.06-.03,.09-.1,.1-.02,0-.04,0-.06,0-.06,0-.1,0-.17-.04-.22-.1-.31-.3-.33-.59,0-.03-.02-.07-.02-.09,0-.02,0-.05,0-.06-.02-.03-.03-.14-.03-.25,0-.12-.02-.22-.02-.22Zm2.21-4.29c-.14-.07-.22-.16-.22-.22,0-.02-.02-.03-.05-.05-.03-.02-.05-.03-.05-.06s.02-.06,.07-.08c.02,0,.03-.02,.06-.02h.03c.07,0,.16,.02,.35,.06,.16,.05,.18,.06,.31,.2,.07,.1,.14,.31,.14,.34s.02,.05,.03,.06c.02,.02,.03,.02,.06,.02h0s.15-.03,.25-.12c.04-.04,.06-.05,.14-.05,.02,0,.04,.02,.06,.02h.16s.02,0,.06,.02c.08,0,.15,0,.19,.02,.06,.03,.1,.06,.12,.07,.02,0,.15,.07,.18,.14,.02,.02,.04,.06,.04,.09,0,.05-.14,.15-.21,.18,0,0-.03,.02-.06,.02-.06,.02-.14,.05-.23,.09-.26,.11-.46,.18-.53,.18s-.16,.09-.19,.19c0,.03-.03,.06-.06,.07s-.06,.07-.11,.16c-.1,.19-.22,.32-.54,.62-.22,.18-.37,.29-.41,.29-.02,0-.02-.02-.02-.03,0-.06,.03-.15,.15-.29,.16-.26,.3-.58,.31-.74l.03-.12h-.22c-.26-.02-.44-.09-.61-.2-.07-.06-.12-.1-.12-.15v-.02s0-.04,.02-.06c.03-.1,.13-.1,.31-.1h.06c.14,0,.28-.02,.41-.04,.16-.04,.18-.05,.18-.1h0s.02-.15,.02-.21c0-.1-.02-.11-.13-.16Zm.65,1.97c.11-.02,.28-.04,.3-.04,0,0,.02,0,.04-.02,.09-.02,.26-.09,.48-.17,.46-.15,.55-.18,.81-.21h.03s.04-.02,.04-.02h.02s.03-.02,.07-.02c.02,0,.06,.02,.12,.02,.16,0,.24,.02,.33,.08,.21,.11,.32,.21,.33,.3,0,.02,.02,.04,.02,.06h0s0,.02,0,.02t0,.02h-.02s0,.07,.02,.11c.04,.15,.06,.26,.06,.66,0,.1,0,.16,0,.23,0,.27,.02,.36,.02,.37,.02,.02,.03,.27,.03,.58,0,.24,0,.5-.02,.75,0,.1-.02,.42-.03,.48v.03l-.02,.06s-.02,.11-.02,.14c0,.05-.02,.1-.02,.13v.02s-.03,.12-.03,.12c0,.04-.02,.12-.03,.18-.02,.16-.09,.32-.15,.4l-.12,.12v.02s0,.02,0,.02c-.03,.02-.1,.05-.17,.06-.03,0-.08,0-.09,0-.02,0-.06,0-.14-.03-.04-.03-.1-.09-.12-.12-.02-.04-.06-.07-.09-.07-.03,0-.14-.15-.14-.19,0-.02-.02-.04-.04-.05-.07-.06-.37-.42-.37-.44,0-.02-.02-.04-.03-.06t-.02-.03s-.06-.13-.09-.19c-.1-.21-.22-.32-.5-.54-.07-.07-.19-.16-.2-.16,0,.02,0,.12-.02,.27v.1c0,.07,0,.17,0,.27,0,.06,0,.12,0,.18,0,.1-.02,.2-.02,.25,0,.03,0,.06,0,.12,0,0-.04,.07-.05,.14,0,.07-.02,.12-.04,.14,0,.02-.02,.06-.02,.08,0,.06-.14,.28-.18,.32-.02,.02-.05,.06-.06,.1,0,.03-.02,.05-.03,.05t0,0v-.02s-.02-.03-.02-.04v-.02c0-.09-.05-.9-.06-1v-.28s-.03-.27-.03-.27v-.12c-.02-.07-.02-.1-.07-.1,0,0-.02,0-.03,0-.02,0-.04,.02-.05,.02-.14,.05-.49,.09-.6,.09-.1,0-.16-.03-.22-.19-.02-.05-.04-.09-.04-.12,.02-.07,.05-.12,.11-.18,.22-.14,.8-.66,.8-.7,0-.02-.03-.03-.06-.03h0c-.21,0-.27,.02-.32,.04-.03,.02-.08,.02-.09,.02-.1-.02-.2-.14-.22-.25,0-.03,0-.05,0-.06,0-.05,.02-.06,.07-.1,.22-.06,.56-.38,.82-.63h0c.27-.28,.35-.4,.35-.42h0s-.03,0-.06,.02c-.12,.04-.58,.17-.66,.17-.04,0-.05,0-.05,.02,0,0,0,.02,0,.04v.02s0,.02,0,.02c0,.02,0,.06-.02,.06-.02,0-.04,.09-.05,.12-.04,.25-.07,.33-.14,.33,0,0-.02,0-.04,0l-.05-.02h0s-.02,0-.02,0c-.07,0-.21-.18-.22-.27v-.05c0-.07,.03-.26,.09-.38,.03-.07,.06-.09,.11-.09h.02c.08,0,.25-.05,.41-.12,.02,0,.06-.02,.08-.02h.02s.15-.06,.27-.1c0,0,.02,0,.04-.02l.06-.02Zm-.29,2.29v-.06s0-.07-.02-.07h0s0,0,0,0c-.09,0-.31,.24-.31,.33h0s.29-.1,.3-.13c.02,0,.02-.05,.02-.06Zm2.21,.8s.05-.25,.06-.3c.02-.1,.05-.3,.06-.45,.02-.09,.02-.18,.02-.25,.02-.2,.03-.81,.04-1.54,0-.11,.02-.23,.02-.32,0-.2,0-.34,0-.41v-.04s-.06-.05-.12-.05c-.03,0-.06,0-.11,0h-.07c-.16,.02-.29,.06-.54,.17l-.31,.1,.02,.1s.02,.06,.02,.09c0,.02,0,.04,0,.06s-.02,.05-.02,.06t0,0s-.21,.23-.4,.38c-.18,.14-.61,.42-.68,.42-.02,0-.03,.02-.06,.04h0s0,0,0,0c0,.02-.02,.03-.02,.04h0s.02,0,.06,0c.03,0,.07-.02,.13-.03h.04c.16-.04,.26-.06,.35-.06,0,0,.02,0,.06,0h.02s.04,0,.06,.02h.02s.05,.02,.08,.02c.02,0,.05,.02,.06,.02,.09,.02,.17,.14,.17,.21v.03s-.08,.07-.14,.07c-.08,.04-.21,.12-.33,.2-.04,.02-.08,.05-.1,.07-.05,.05-.06,.07-.06,.13v.02s0,.03,0,.04c0,.09,.02,.12,.04,.12t.02,0c.07-.06,.37-.13,.46-.13h.02s.05,.02,.06,.02h0s.18,.13,.18,.15c0,.02-.04,.05-.12,.07-.06,0-.14,.05-.17,.06-.04,.02-.1,.04-.11,.04-.02,0-.06,.04-.1,.08l-.08,.08,.09,.07c.46,.45,.95,.84,1.13,.93h.03s.02,.02,.02,.02c0,0,.03,0,.04-.02,.04-.05,.12-.21,.12-.27,0-.03,0-.07,.02-.08,0,0,.02,0,.02-.02Z"/>
        <path class="cls-3" d="M16.72,21.88c-.43,.14-1.57,.3-1.93,.33-.08,0-.16,0-.24,0-.56,0-.92-.16-1.07-.5-.08-.16-.1-.28-.1-.54,0-.12,0-.27,.02-.48,.02-.32,.03-.57,.04-.61,0-.04,.02-.17,.03-.29,0-.12,.02-.23,.02-.26,.09-.38,.13-.58,.13-.68,0-.04,0-.06-.02-.08t0,0s-.05,.04-.1,.14c-.13,.27-.26,.51-.31,.59,0,0-.03,.05-.06,.1,0,.02-.04,.07-.06,.1-.03,.06-.1,.16-.22,.31-.1,.13-.24,.33-.41,.57-.02,.03-.06,.09-.12,.15-.04,.05-.13,.16-.18,.22-.06,.07-.11,.15-.13,.18,0,0-.04,.05-.07,.08-.02,0-.03,.02-.05,.04-.04,.03-.11,.12-.16,.18-.05,.06-.13,.16-.18,.22-.12,.13-.3,.25-.41,.26h0c-.08,0-.2-.07-.2-.13s.23-.32,.5-.61c.41-.42,.52-.56,1.06-1.42,.22-.38,.52-1.02,.52-1.11h0s-.07,0-.11,.02c-.09,0-.25,.06-.39,.1-.12,.04-.34,.11-.53,.18-.06,.02-.11,.02-.17,.03-.07,0-.13,.02-.18,.04-.18,.08-.25,.1-.31,.1,0,0-.06,0-.1,.02-.05,.02-.09,.02-.11,.02s-.06-.02-.11-.05c-.12-.06-.24-.18-.3-.34,0,0-.02-.02-.02-.03,0-.05,.1-.07,.26-.1,.08,0,.15-.02,.22-.03,.17-.02,.34-.06,.38-.06,.06-.02,.18-.05,.33-.08,.19-.04,.4-.09,.49-.12,.02,0,.07-.02,.08-.02,.09-.02,.23-.05,.34-.08,.06-.02,.11-.05,.14-.06,.08-.03,.15-.06,.21-.08,.07-.03,.1-.09,.14-.18,.07-.22,.1-.32,.14-.65,.02-.17,.03-.26,.03-.31,0-.07-.02-.1-.06-.14-.06-.06-.09-.07-.18-.07h-.07c-.09,0-.2-.02-.26-.02-.1-.02-.18-.12-.18-.21v-.07s0-.06,0-.06c0-.1,.31-.24,.61-.28,.05,0,.12-.02,.15-.02,.02,0,.07-.02,.09-.02h.06s.13-.02,.18-.02h.1c.06,0,.12-.02,.18-.02,.07,0,.15,0,.18-.02h.02s.1,0,.17,.02c.27,.04,.46,.17,.5,.34,0,.02,0,.03,0,.05,0,.02-.02,.05-.04,.07-.02,.02-.04,.03-.06,.04t-.03,.02h-.15c-.06,.02-.12,.03-.14,.05-.02,.02-.06,.02-.09,.02-.02,0-.14,.05-.26,.1l-.2,.13,.02,.18c0,.15-.02,.28-.1,.5,0,.03-.02,.13-.06,.23-.02,.07-.04,.14-.04,.17h0s.02,0,.02,0l.13-.02,.14-.02h.05c.25-.08,.49-.14,.66-.17,.14-.03,.32-.1,.47-.22,.02-.02,.1-.04,.16-.06,.03,0,.08,.03,.12,.06,0,0,.02,.02,.04,.03,.12,.07,.22,.13,.24,.13,0,0,.08,.04,.17,.1,.13,.09,.14,.1,.14,.18,0,.05-.02,.1-.03,.11-.02,.02-.13,.02-.26,.02h-.09c-.17,0-.34,0-.38,.02-.02,0-.05,0-.08,0h-.09c-.1,.02-.17,.02-.29,.05-.03,0-.06,0-.1,0h-.03s-.09,.02-.14,.03c-.05,.02-.13,.04-.18,.04-.02,0-.21,.04-.35,.07-.06,.02-.13,.03-.18,.04-.05,0-.08,.02-.1,.02l-.06,.02s-.1,.04-.11,.06c0,.02,0,.03,0,.05,0,.03,.02,.06,.09,.14,.15,.21,.19,.34,.19,.61-.02,.24-.06,.55-.1,.72v.07c-.02,.13-.03,.39-.05,.7,0,.2-.02,.44-.02,.57,0,.29,.03,.32,.11,.35,.1,.02,.14,.02,.29,.03h.02s.08,0,.12,0c.1,0,.21-.02,.3-.04h.06s.05,0,.06-.02l.19-.02c.16-.02,.37-.06,.48-.1,.05-.02,.1-.02,.16-.03,.05,0,.14-.02,.16-.02,.6-.16,.74-.25,.9-.56,.02-.03,.03-.07,.05-.1,.02-.05,.03-.09,.04-.1,0-.03,.02-.07,.03-.09,0-.02,.02-.07,.02-.13,0-.06,.02-.18,.04-.28,.02-.1,.02-.19,.02-.29,0-.08,0-.15,0-.22-.02-.08-.02-.2-.02-.3s0-.17,.02-.17c.02,0,.03,.02,.03,.04,0,.04,.04,.24,.1,.38,.02,.05,.05,.11,.06,.14,0,.02,.02,.06,.04,.08,.02,.02,.03,.06,.03,.09,0,.02,.02,.07,.05,.1,.03,.04,.05,.1,.05,.22,0,.1,.04,.19,.08,.27,.04,.1,.05,.14,.05,.27v.21c-.02,.2-.04,.38-.06,.42-.06,.17-.22,.29-.54,.37Z"/>
      </g>
      <g id="_地面-3" data-name="地面">
        <path id="_草-4" data-name="草" class="cls-2" d="M2.4,29c-.44-1.34-.51-2.22-1.31-3.5,1.67-.06,2.41,2.38,1.31,3.5h0Z"/>
        <path id="_草-5" data-name="草" class="cls-2" d="M26.58,29c-1.1-1.12-.36-3.56,1.31-3.5-.8,1.28-.87,2.16-1.31,3.5h0Z"/>
        <path id="_草-6" data-name="草" class="cls-2" d="M25.82,29.5c-1.16-2.29-.63-6.07,2.07-7-1.67,2.1-1.73,4.49-2.07,7h0Z"/>
        <rect id="_地面-4" data-name="地面" class="cls-1" y="28" width="28" height="2"/>
      </g>
    </g>
    <g>
      <rect class="cls-11" x="9.2" y="11.2" width="16.61" height="16.61" rx="3" ry="3" transform="translate(-8.66 18.09) rotate(-45)"/>
      <g>
        <rect class="cls-10" x="16.13" y="12.64" width="2.75" height="13.73" rx="1.26" ry="1.26" transform="translate(18.92 -6.66) rotate(45)"/>
        <rect class="cls-10" x="10.64" y="18.13" width="13.73" height="2.75" rx="1.26" ry="1.26" transform="translate(18.92 -6.66) rotate(45)"/>
      </g>
    </g>
  </g>
</svg>