<?xml version="1.0" encoding="utf-8"?>
<!-- Generator: Adobe Illustrator 27.1.1, SVG Export Plug-In . SVG Version: 6.00 Build 0)  -->
<svg version="1.1" xmlns="http://www.w3.org/2000/svg" xmlns:xlink="http://www.w3.org/1999/xlink" x="0px" y="0px" viewBox="0 0 28 40" style="enable-background:new 0 0 28 40;" xml:space="preserve">
<style type="text/css">
	.st0{display:none;}
	.st1{fill:#808080;}
	.st2{fill:#CCCCCC;}
	.st3{display:inline;fill:#808080;}
	.st4{display:inline;fill:#CCCCCC;}
	.st5{fill:#666666;}
	.st6{fill:#999999;}
	.st7{fill:#333333;}
	.st8{fill:#39B54A;}
	.st9{fill:#A96E2D;}
	.st10{fill:#1B1464;}
	.st11{fill:#FFFFFF;}
	.st12{fill:#2E3192;}
	.st13{opacity:0.3;fill:#FFFFFF;}
	.st14{fill:#FFCE00;}
	.st15{fill:#848484;}
	.st16{fill:#797979;}
	.st17{fill:#FF0000;}
	.st18{fill:#F2F2F2;}
</style>
<g id="ガイド_00000162338702563158607440000009963323815856875396_" class="st0">
</g>
<g id="ピン">
	<g>
		<g>
			<polygon class="st1" points="15,40 13,40 12,30 16,30 			"/>
			<rect x="14" y="30" class="st2" width="1" height="10"/>
		</g>
		<g class="st0">
			<rect x="12" y="20" class="st3" width="4" height="10"/>
			<rect x="14" y="20" class="st4" width="1" height="10"/>
		</g>
	</g>
</g>
<g id="ノーマル">
	<rect id="土台" x="4" y="25" class="st5" width="20" height="3"/>
	<polygon id="本体" class="st6" points="14,0 4,5.9 6.1,25 14,25 21.9,25 24,5.9 	"/>
	<g id="南无">
		<path class="st7" d="M11,12.4C11,12.3,11,12.3,11,12.4c0-0.1,0-0.1,0-0.2c0-0.2,0-0.6,0.1-0.7c0.1-0.5,0.3-0.8,0.5-1
			c0.1,0,0.1-0.1,0.1-0.1h0c0,0,0,0,0,0c0,0,0,0,0,0c0.1,0,0.1,0.2,0.1,0.3c0,0,0,0,0,0.1c-0.2,0.1-0.3,0.7-0.3,1.1v0.3
			c0,0.1,0,0.2,0,0.2c0,0,0,0.1,0,0.2c0,0.1,0,0.1,0.1,0.1h0c0,0,0,0,0,0.3v0.1c0,0.1,0,0.3,0,0.3v0.1c0,0.1,0,0.1-0.1,0.1
			c0,0,0,0-0.1,0c-0.1,0-0.1,0-0.2,0c-0.2-0.1-0.3-0.3-0.3-0.6c0,0,0-0.1,0-0.1c0,0,0,0,0-0.1c0,0,0-0.1,0-0.2
			C11,12.5,11,12.4,11,12.4z M13.2,8.1C13.1,8,13,7.9,13,7.8c0,0,0,0,0,0c0,0,0,0,0-0.1c0,0,0-0.1,0.1-0.1c0,0,0,0,0.1,0h0
			c0.1,0,0.2,0,0.4,0.1c0.2,0,0.2,0.1,0.3,0.2c0.1,0.1,0.1,0.3,0.1,0.3s0,0,0,0.1c0,0,0,0,0.1,0h0c0,0,0.2,0,0.2-0.1
			c0,0,0.1,0,0.1,0c0,0,0,0,0.1,0l0.2,0c0,0,0,0,0.1,0c0.1,0,0.2,0,0.2,0c0.1,0,0.1,0.1,0.1,0.1c0,0,0.2,0.1,0.2,0.1
			c0,0,0,0.1,0,0.1c0,0-0.1,0.2-0.2,0.2c0,0,0,0-0.1,0c-0.1,0-0.1,0-0.2,0.1C14.4,8.9,14.2,9,14.1,9c-0.1,0-0.2,0.1-0.2,0.2
			c0,0,0,0.1-0.1,0.1s-0.1,0.1-0.1,0.2c-0.1,0.2-0.2,0.3-0.5,0.6c-0.2,0.2-0.4,0.3-0.4,0.3c0,0,0,0,0,0c0-0.1,0-0.2,0.2-0.3
			c0.2-0.3,0.3-0.6,0.3-0.7l0-0.1l-0.2,0c-0.3,0-0.4-0.1-0.6-0.2c-0.1-0.1-0.1-0.1-0.1-0.2v0c0,0,0,0,0-0.1c0-0.1,0.1-0.1,0.3-0.1
			h0.1c0.1,0,0.3,0,0.4,0c0.2,0,0.2,0,0.2-0.1v0c0,0,0-0.1,0-0.2C13.3,8.1,13.3,8.1,13.2,8.1z M13.9,10c0.1,0,0.3,0,0.3,0
			c0,0,0,0,0,0c0.1,0,0.3-0.1,0.5-0.2c0.5-0.2,0.6-0.2,0.8-0.2l0,0l0,0l0,0c0,0,0,0,0.1,0c0,0,0.1,0,0.1,0c0.2,0,0.2,0,0.3,0.1
			c0.2,0.1,0.3,0.2,0.3,0.3c0,0,0,0,0,0.1l0,0l0,0c0,0,0,0,0,0h0l0,0c0,0,0,0.1,0,0.1c0,0.2,0.1,0.3,0.1,0.7c0,0.1,0,0.2,0,0.2
			c0,0.3,0,0.4,0,0.4c0,0,0,0.3,0,0.6c0,0.2,0,0.5,0,0.8c0,0.1,0,0.4,0,0.5v0l0,0.1c0,0,0,0.1,0,0.1c0,0,0,0.1,0,0.1l0,0l0,0.1
			c0,0,0,0.1,0,0.2c0,0.2-0.1,0.3-0.2,0.4l-0.1,0.1v0c0,0,0,0,0,0c0,0-0.1,0-0.2,0.1c0,0-0.1,0-0.1,0c0,0-0.1,0-0.1,0
			c0,0-0.1-0.1-0.1-0.1c0,0-0.1-0.1-0.1-0.1c0,0-0.1-0.2-0.1-0.2c0,0,0,0,0,0C15.3,14,15,13.7,15,13.6c0,0,0,0,0-0.1c0,0,0,0,0,0
			c0,0-0.1-0.1-0.1-0.2c-0.1-0.2-0.2-0.3-0.5-0.5c-0.1-0.1-0.2-0.2-0.2-0.2c0,0,0,0.1,0,0.3l0,0.1c0,0.1,0,0.2,0,0.3
			c0,0.1,0,0.1,0,0.2c0,0.1,0,0.2,0,0.2c0,0,0,0.1,0,0.1c0,0,0,0.1,0,0.1c0,0.1,0,0.1,0,0.1c0,0,0,0.1,0,0.1c0,0.1-0.1,0.3-0.2,0.3
			c0,0,0,0.1-0.1,0.1c0,0,0,0,0,0c0,0,0,0,0,0l0,0c0,0,0,0,0,0v0c0-0.1,0-0.9-0.1-1v-0.2l0,0l0-0.3l0-0.1c0-0.1,0-0.1-0.1-0.1
			c0,0,0,0,0,0c0,0,0,0,0,0c-0.1,0-0.5,0.1-0.6,0.1c-0.1,0-0.2,0-0.2-0.2c0,0,0-0.1,0-0.1c0-0.1,0-0.1,0.1-0.2
			c0.2-0.1,0.8-0.7,0.8-0.7c0,0,0,0-0.1,0h0c-0.2,0-0.3,0-0.3,0c0,0-0.1,0-0.1,0c-0.1,0-0.2-0.1-0.2-0.2c0,0,0,0,0-0.1
			c0,0,0-0.1,0.1-0.1c0.2-0.1,0.6-0.4,0.8-0.6l0,0c0.3-0.3,0.4-0.4,0.4-0.4h0c0,0,0,0-0.1,0c-0.1,0-0.6,0.2-0.7,0.2c0,0,0,0,0,0
			c0,0,0,0,0,0l0,0v0c0,0,0,0.1,0,0.1c0,0,0,0.1,0,0.1c0,0.2-0.1,0.3-0.1,0.3c0,0,0,0,0,0l0,0l0,0h0c-0.1,0-0.2-0.2-0.2-0.3v0
			c0-0.1,0-0.3,0.1-0.4c0-0.1,0.1-0.1,0.1-0.1h0c0.1,0,0.2,0,0.4-0.1c0,0,0.1,0,0.1,0l0,0c0,0,0.2,0,0.3-0.1
			C13.8,10.1,13.8,10.1,13.9,10L13.9,10z M13.6,12.3L13.6,12.3c0-0.1,0-0.1,0-0.1v0h0c-0.1,0-0.3,0.2-0.3,0.3h0
			C13.3,12.5,13.5,12.4,13.6,12.3C13.6,12.4,13.6,12.3,13.6,12.3z M15.8,13.1c0,0,0-0.2,0.1-0.3c0-0.1,0-0.3,0.1-0.4
			c0-0.1,0-0.2,0-0.2c0-0.2,0-0.8,0-1.5c0-0.1,0-0.2,0-0.3c0-0.2,0-0.3,0-0.4v0c0,0-0.1,0-0.1,0c0,0-0.1,0-0.1,0l-0.1,0
			c-0.2,0-0.3,0.1-0.5,0.2l-0.3,0.1l0,0.1c0,0,0,0.1,0,0.1c0,0,0,0,0,0.1s0,0,0,0.1c0,0,0,0,0,0c0,0-0.2,0.2-0.4,0.4
			c-0.2,0.1-0.6,0.4-0.7,0.4c0,0,0,0-0.1,0v0l0,0c0,0,0,0,0,0h0c0,0,0,0,0.1,0c0,0,0.1,0,0.1,0h0c0.2,0,0.3-0.1,0.4-0.1
			c0,0,0,0,0.1,0h0c0,0,0,0,0.1,0h0c0,0,0,0,0.1,0c0,0,0,0,0.1,0c0.1,0,0.2,0.1,0.2,0.2v0c0,0-0.1,0.1-0.1,0.1
			c-0.1,0-0.2,0.1-0.3,0.2c0,0-0.1,0-0.1,0.1c0,0-0.1,0.1-0.1,0.1v0c0,0,0,0,0,0c0,0.1,0,0.1,0,0.1c0,0,0,0,0,0
			c0.1-0.1,0.4-0.1,0.5-0.1h0c0,0,0,0,0.1,0h0c0,0,0.2,0.1,0.2,0.2c0,0,0,0-0.1,0.1c-0.1,0-0.1,0-0.2,0.1c0,0-0.1,0-0.1,0
			c0,0-0.1,0-0.1,0.1l-0.1,0.1l0.1,0.1c0.5,0.4,1,0.8,1.1,0.9l0,0l0,0c0,0,0,0,0,0C15.7,13.4,15.7,13.3,15.8,13.1
			C15.7,13.2,15.8,13.1,15.8,13.1C15.8,13.1,15.8,13.1,15.8,13.1z"/>
		<path class="st7" d="M16.7,21.9c-0.4,0.1-1.6,0.3-1.9,0.3c-0.1,0-0.2,0-0.2,0c-0.6,0-0.9-0.2-1.1-0.5c-0.1-0.2-0.1-0.3-0.1-0.5
			c0-0.1,0-0.3,0-0.5c0-0.3,0-0.6,0-0.6c0,0,0-0.2,0-0.3c0-0.1,0-0.2,0-0.3c0.1-0.4,0.1-0.6,0.1-0.7c0,0,0-0.1,0-0.1c0,0,0,0,0,0
			c0,0,0,0-0.1,0.1c-0.1,0.3-0.3,0.5-0.3,0.6c0,0,0,0-0.1,0.1c0,0,0,0.1-0.1,0.1c0,0.1-0.1,0.2-0.2,0.3c-0.1,0.1-0.2,0.3-0.4,0.6
			c0,0-0.1,0.1-0.1,0.2c0,0-0.1,0.2-0.2,0.2C12.1,21,12,21.1,12,21.1c0,0,0,0-0.1,0.1c0,0,0,0,0,0c0,0-0.1,0.1-0.2,0.2
			c0,0.1-0.1,0.2-0.2,0.2c-0.1,0.1-0.3,0.2-0.4,0.3h0c-0.1,0-0.2-0.1-0.2-0.1s0.2-0.3,0.5-0.6c0.4-0.4,0.5-0.6,1.1-1.4
			c0.2-0.4,0.5-1,0.5-1.1h0c0,0-0.1,0-0.1,0c-0.1,0-0.2,0.1-0.4,0.1c-0.1,0-0.3,0.1-0.5,0.2c-0.1,0-0.1,0-0.2,0c-0.1,0-0.1,0-0.2,0
			c-0.2,0.1-0.2,0.1-0.3,0.1c0,0-0.1,0-0.1,0c0,0-0.1,0-0.1,0s-0.1,0-0.1,0c-0.1-0.1-0.2-0.2-0.3-0.3c0,0,0,0,0,0
			c0,0,0.1-0.1,0.3-0.1c0.1,0,0.2,0,0.2,0c0.2,0,0.3-0.1,0.4-0.1c0.1,0,0.2,0,0.3-0.1c0.2,0,0.4-0.1,0.5-0.1c0,0,0.1,0,0.1,0
			c0.1,0,0.2,0,0.3-0.1c0.1,0,0.1,0,0.1-0.1c0.1,0,0.2-0.1,0.2-0.1c0.1,0,0.1-0.1,0.1-0.2c0.1-0.2,0.1-0.3,0.1-0.6
			c0-0.2,0-0.3,0-0.3c0-0.1,0-0.1-0.1-0.1c-0.1-0.1-0.1-0.1-0.2-0.1h-0.1c-0.1,0-0.2,0-0.3,0c-0.1,0-0.2-0.1-0.2-0.2v0l0-0.1v-0.1
			c0-0.1,0.3-0.2,0.6-0.3c0,0,0.1,0,0.2,0c0,0,0.1,0,0.1,0l0.1,0c0,0,0.1,0,0.2,0l0.1,0c0.1,0,0.1,0,0.2,0c0.1,0,0.2,0,0.2,0h0
			c0,0,0.1,0,0.2,0c0.3,0,0.5,0.2,0.5,0.3c0,0,0,0,0,0c0,0,0,0,0,0.1c0,0,0,0-0.1,0c0,0,0,0,0,0h0l-0.1,0c-0.1,0-0.1,0-0.1,0
			c0,0-0.1,0-0.1,0c0,0-0.1,0-0.3,0.1L14,16.9l0,0.2c0,0.2,0,0.3-0.1,0.5c0,0,0,0.1-0.1,0.2c0,0.1,0,0.1,0,0.2v0h0l0.1,0l0.1,0l0,0
			c0.2-0.1,0.5-0.1,0.7-0.2c0.1,0,0.3-0.1,0.5-0.2c0,0,0.1,0,0.2-0.1c0,0,0.1,0,0.1,0.1c0,0,0,0,0,0c0.1,0.1,0.2,0.1,0.2,0.1
			c0,0,0.1,0,0.2,0.1c0.1,0.1,0.1,0.1,0.1,0.2c0,0,0,0.1,0,0.1c0,0-0.1,0-0.3,0h-0.1c-0.2,0-0.3,0-0.4,0c0,0,0,0-0.1,0l-0.1,0
			c-0.1,0-0.2,0-0.3,0c0,0-0.1,0-0.1,0h0c0,0-0.1,0-0.1,0c0,0-0.1,0-0.2,0c0,0-0.2,0-0.4,0.1c-0.1,0-0.1,0-0.2,0c0,0-0.1,0-0.1,0
			l-0.1,0c0,0-0.1,0-0.1,0.1c0,0,0,0,0,0c0,0,0,0.1,0.1,0.1c0.2,0.2,0.2,0.3,0.2,0.6c0,0.2-0.1,0.6-0.1,0.7l0,0.1c0,0.1,0,0.4,0,0.7
			c0,0.2,0,0.4,0,0.6c0,0.3,0,0.3,0.1,0.4c0.1,0,0.1,0,0.3,0h0c0,0,0.1,0,0.1,0c0.1,0,0.2,0,0.3,0l0.1,0c0,0,0,0,0.1,0l0.2,0
			c0.2,0,0.4-0.1,0.5-0.1c0,0,0.1,0,0.2,0c0,0,0.1,0,0.2,0c0.6-0.2,0.7-0.2,0.9-0.6c0,0,0-0.1,0-0.1c0,0,0-0.1,0-0.1
			c0,0,0-0.1,0-0.1c0,0,0-0.1,0-0.1c0-0.1,0-0.2,0-0.3c0-0.1,0-0.2,0-0.3c0-0.1,0-0.2,0-0.2c0-0.1,0-0.2,0-0.3c0-0.1,0-0.2,0-0.2
			c0,0,0,0,0,0c0,0,0,0.2,0.1,0.4c0,0,0,0.1,0.1,0.1c0,0,0,0.1,0,0.1c0,0,0,0.1,0,0.1c0,0,0,0.1,0,0.1c0,0,0,0.1,0,0.2
			c0,0.1,0,0.2,0.1,0.3c0,0.1,0,0.1,0,0.3v0.2c0,0.2,0,0.4-0.1,0.4C17.2,21.7,17,21.8,16.7,21.9z"/>
	</g>
	<g id="地面_00000085960540020044898610000002193894466238366089_">
		<path id="草_00000050658507514173148250000014360179358624052912_" class="st8" d="M2.4,29c-0.4-1.3-0.5-2.2-1.3-3.5
			C2.8,25.4,3.5,27.9,2.4,29L2.4,29z"/>
		<path id="草_00000179627912085844586860000016558588140227868062_" class="st8" d="M26.6,29c-1.1-1.1-0.4-3.6,1.3-3.5
			C27.1,26.8,27,27.7,26.6,29L26.6,29z"/>
		<path id="草_00000151529837931384215080000007510860043949423779_" class="st8" d="M25.8,29.5c-1.2-2.3-0.6-6.1,2.1-7
			C26.2,24.6,26.2,27,25.8,29.5L25.8,29.5z"/>
		<rect id="地面" y="28" class="st9" width="28" height="2"/>
	</g>
</g>


<g id="消失">
	<g>
		<rect id="土台_00000158027282887963685830000003889048385847032746_" x="4" y="25" class="st5" width="20" height="3"/>
		<polygon id="本体_00000075150372645118428870000012144139716006838156_" class="st6" points="14,0 4,5.9 6.1,25 14,25 21.9,25 
			24,5.9 		"/>
		<g id="南无_00000168106825884383950770000001719264243154447285_">
			<path class="st7" d="M11,12.4C11,12.3,11,12.3,11,12.4c0-0.1,0-0.1,0-0.2c0-0.2,0-0.6,0.1-0.7c0.1-0.5,0.3-0.8,0.5-1
				c0.1,0,0.1-0.1,0.1-0.1h0c0,0,0,0,0,0c0,0,0,0,0,0c0.1,0,0.1,0.2,0.1,0.3c0,0,0,0,0,0.1c-0.2,0.1-0.3,0.7-0.3,1.1v0.3
				c0,0.1,0,0.2,0,0.2c0,0,0,0.1,0,0.2c0,0.1,0,0.1,0.1,0.1h0c0,0,0,0,0,0.3v0.1c0,0.1,0,0.3,0,0.3v0.1c0,0.1,0,0.1-0.1,0.1
				c0,0,0,0-0.1,0c-0.1,0-0.1,0-0.2,0c-0.2-0.1-0.3-0.3-0.3-0.6c0,0,0-0.1,0-0.1c0,0,0,0,0-0.1c0,0,0-0.1,0-0.2
				C11,12.5,11,12.4,11,12.4z M13.2,8.1C13.1,8,13,7.9,13,7.8c0,0,0,0,0,0c0,0,0,0,0-0.1c0,0,0-0.1,0.1-0.1c0,0,0,0,0.1,0h0
				c0.1,0,0.2,0,0.4,0.1c0.2,0,0.2,0.1,0.3,0.2c0.1,0.1,0.1,0.3,0.1,0.3s0,0,0,0.1c0,0,0,0,0.1,0h0c0,0,0.2,0,0.2-0.1
				c0,0,0.1,0,0.1,0c0,0,0,0,0.1,0l0.2,0c0,0,0,0,0.1,0c0.1,0,0.2,0,0.2,0c0.1,0,0.1,0.1,0.1,0.1c0,0,0.2,0.1,0.2,0.1
				c0,0,0,0.1,0,0.1c0,0-0.1,0.2-0.2,0.2c0,0,0,0-0.1,0c-0.1,0-0.1,0-0.2,0.1C14.4,8.9,14.2,9,14.1,9c-0.1,0-0.2,0.1-0.2,0.2
				c0,0,0,0.1-0.1,0.1s-0.1,0.1-0.1,0.2c-0.1,0.2-0.2,0.3-0.5,0.6c-0.2,0.2-0.4,0.3-0.4,0.3c0,0,0,0,0,0c0-0.1,0-0.2,0.2-0.3
				c0.2-0.3,0.3-0.6,0.3-0.7l0-0.1l-0.2,0c-0.3,0-0.4-0.1-0.6-0.2c-0.1-0.1-0.1-0.1-0.1-0.2v0c0,0,0,0,0-0.1c0-0.1,0.1-0.1,0.3-0.1
				h0.1c0.1,0,0.3,0,0.4,0c0.2,0,0.2,0,0.2-0.1v0c0,0,0-0.1,0-0.2C13.3,8.1,13.3,8.1,13.2,8.1z M13.9,10c0.1,0,0.3,0,0.3,0
				c0,0,0,0,0,0c0.1,0,0.3-0.1,0.5-0.2c0.5-0.2,0.6-0.2,0.8-0.2l0,0l0,0l0,0c0,0,0,0,0.1,0c0,0,0.1,0,0.1,0c0.2,0,0.2,0,0.3,0.1
				c0.2,0.1,0.3,0.2,0.3,0.3c0,0,0,0,0,0.1l0,0l0,0c0,0,0,0,0,0h0l0,0c0,0,0,0.1,0,0.1c0,0.2,0.1,0.3,0.1,0.7c0,0.1,0,0.2,0,0.2
				c0,0.3,0,0.4,0,0.4c0,0,0,0.3,0,0.6c0,0.2,0,0.5,0,0.8c0,0.1,0,0.4,0,0.5v0l0,0.1c0,0,0,0.1,0,0.1c0,0,0,0.1,0,0.1l0,0l0,0.1
				c0,0,0,0.1,0,0.2c0,0.2-0.1,0.3-0.2,0.4l-0.1,0.1v0c0,0,0,0,0,0c0,0-0.1,0-0.2,0.1c0,0-0.1,0-0.1,0c0,0-0.1,0-0.1,0
				c0,0-0.1-0.1-0.1-0.1c0,0-0.1-0.1-0.1-0.1c0,0-0.1-0.2-0.1-0.2c0,0,0,0,0,0C15.3,14,15,13.7,15,13.6c0,0,0,0,0-0.1c0,0,0,0,0,0
				c0,0-0.1-0.1-0.1-0.2c-0.1-0.2-0.2-0.3-0.5-0.5c-0.1-0.1-0.2-0.2-0.2-0.2c0,0,0,0.1,0,0.3l0,0.1c0,0.1,0,0.2,0,0.3
				c0,0.1,0,0.1,0,0.2c0,0.1,0,0.2,0,0.2c0,0,0,0.1,0,0.1c0,0,0,0.1,0,0.1c0,0.1,0,0.1,0,0.1c0,0,0,0.1,0,0.1c0,0.1-0.1,0.3-0.2,0.3
				c0,0,0,0.1-0.1,0.1c0,0,0,0,0,0c0,0,0,0,0,0l0,0c0,0,0,0,0,0v0c0-0.1,0-0.9-0.1-1v-0.2l0,0l0-0.3l0-0.1c0-0.1,0-0.1-0.1-0.1
				c0,0,0,0,0,0c0,0,0,0,0,0c-0.1,0-0.5,0.1-0.6,0.1c-0.1,0-0.2,0-0.2-0.2c0,0,0-0.1,0-0.1c0-0.1,0-0.1,0.1-0.2
				c0.2-0.1,0.8-0.7,0.8-0.7c0,0,0,0-0.1,0h0c-0.2,0-0.3,0-0.3,0c0,0-0.1,0-0.1,0c-0.1,0-0.2-0.1-0.2-0.2c0,0,0,0,0-0.1
				c0,0,0-0.1,0.1-0.1c0.2-0.1,0.6-0.4,0.8-0.6l0,0c0.3-0.3,0.4-0.4,0.4-0.4h0c0,0,0,0-0.1,0c-0.1,0-0.6,0.2-0.7,0.2c0,0,0,0,0,0
				c0,0,0,0,0,0l0,0v0c0,0,0,0.1,0,0.1c0,0,0,0.1,0,0.1c0,0.2-0.1,0.3-0.1,0.3c0,0,0,0,0,0l0,0l0,0h0c-0.1,0-0.2-0.2-0.2-0.3v0
				c0-0.1,0-0.3,0.1-0.4c0-0.1,0.1-0.1,0.1-0.1h0c0.1,0,0.2,0,0.4-0.1c0,0,0.1,0,0.1,0l0,0c0,0,0.2,0,0.3-0.1
				C13.8,10.1,13.8,10.1,13.9,10L13.9,10z M13.6,12.3L13.6,12.3c0-0.1,0-0.1,0-0.1v0h0c-0.1,0-0.3,0.2-0.3,0.3h0
				C13.3,12.5,13.5,12.4,13.6,12.3C13.6,12.4,13.6,12.3,13.6,12.3z M15.8,13.1c0,0,0-0.2,0.1-0.3c0-0.1,0-0.3,0.1-0.4
				c0-0.1,0-0.2,0-0.2c0-0.2,0-0.8,0-1.5c0-0.1,0-0.2,0-0.3c0-0.2,0-0.3,0-0.4v0c0,0-0.1,0-0.1,0c0,0-0.1,0-0.1,0l-0.1,0
				c-0.2,0-0.3,0.1-0.5,0.2l-0.3,0.1l0,0.1c0,0,0,0.1,0,0.1c0,0,0,0,0,0.1s0,0,0,0.1c0,0,0,0,0,0c0,0-0.2,0.2-0.4,0.4
				c-0.2,0.1-0.6,0.4-0.7,0.4c0,0,0,0-0.1,0v0l0,0c0,0,0,0,0,0h0c0,0,0,0,0.1,0c0,0,0.1,0,0.1,0h0c0.2,0,0.3-0.1,0.4-0.1
				c0,0,0,0,0.1,0h0c0,0,0,0,0.1,0h0c0,0,0,0,0.1,0c0,0,0,0,0.1,0c0.1,0,0.2,0.1,0.2,0.2v0c0,0-0.1,0.1-0.1,0.1
				c-0.1,0-0.2,0.1-0.3,0.2c0,0-0.1,0-0.1,0.1c0,0-0.1,0.1-0.1,0.1v0c0,0,0,0,0,0c0,0.1,0,0.1,0,0.1c0,0,0,0,0,0
				c0.1-0.1,0.4-0.1,0.5-0.1h0c0,0,0,0,0.1,0h0c0,0,0.2,0.1,0.2,0.2c0,0,0,0-0.1,0.1c-0.1,0-0.1,0-0.2,0.1c0,0-0.1,0-0.1,0
				c0,0-0.1,0-0.1,0.1l-0.1,0.1l0.1,0.1c0.5,0.4,1,0.8,1.1,0.9l0,0l0,0c0,0,0,0,0,0C15.7,13.4,15.7,13.3,15.8,13.1
				C15.7,13.2,15.8,13.1,15.8,13.1C15.8,13.1,15.8,13.1,15.8,13.1z"/>
			<path class="st7" d="M16.7,21.9c-0.4,0.1-1.6,0.3-1.9,0.3c-0.1,0-0.2,0-0.2,0c-0.6,0-0.9-0.2-1.1-0.5c-0.1-0.2-0.1-0.3-0.1-0.5
				c0-0.1,0-0.3,0-0.5c0-0.3,0-0.6,0-0.6c0,0,0-0.2,0-0.3c0-0.1,0-0.2,0-0.3c0.1-0.4,0.1-0.6,0.1-0.7c0,0,0-0.1,0-0.1c0,0,0,0,0,0
				c0,0,0,0-0.1,0.1c-0.1,0.3-0.3,0.5-0.3,0.6c0,0,0,0-0.1,0.1c0,0,0,0.1-0.1,0.1c0,0.1-0.1,0.2-0.2,0.3c-0.1,0.1-0.2,0.3-0.4,0.6
				c0,0-0.1,0.1-0.1,0.2c0,0-0.1,0.2-0.2,0.2C12.1,21,12,21.1,12,21.1c0,0,0,0-0.1,0.1c0,0,0,0,0,0c0,0-0.1,0.1-0.2,0.2
				c0,0.1-0.1,0.2-0.2,0.2c-0.1,0.1-0.3,0.2-0.4,0.3h0c-0.1,0-0.2-0.1-0.2-0.1s0.2-0.3,0.5-0.6c0.4-0.4,0.5-0.6,1.1-1.4
				c0.2-0.4,0.5-1,0.5-1.1h0c0,0-0.1,0-0.1,0c-0.1,0-0.2,0.1-0.4,0.1c-0.1,0-0.3,0.1-0.5,0.2c-0.1,0-0.1,0-0.2,0c-0.1,0-0.1,0-0.2,0
				c-0.2,0.1-0.2,0.1-0.3,0.1c0,0-0.1,0-0.1,0c0,0-0.1,0-0.1,0s-0.1,0-0.1,0c-0.1-0.1-0.2-0.2-0.3-0.3c0,0,0,0,0,0
				c0,0,0.1-0.1,0.3-0.1c0.1,0,0.2,0,0.2,0c0.2,0,0.3-0.1,0.4-0.1c0.1,0,0.2,0,0.3-0.1c0.2,0,0.4-0.1,0.5-0.1c0,0,0.1,0,0.1,0
				c0.1,0,0.2,0,0.3-0.1c0.1,0,0.1,0,0.1-0.1c0.1,0,0.2-0.1,0.2-0.1c0.1,0,0.1-0.1,0.1-0.2c0.1-0.2,0.1-0.3,0.1-0.6
				c0-0.2,0-0.3,0-0.3c0-0.1,0-0.1-0.1-0.1c-0.1-0.1-0.1-0.1-0.2-0.1h-0.1c-0.1,0-0.2,0-0.3,0c-0.1,0-0.2-0.1-0.2-0.2v0l0-0.1v-0.1
				c0-0.1,0.3-0.2,0.6-0.3c0,0,0.1,0,0.2,0c0,0,0.1,0,0.1,0l0.1,0c0,0,0.1,0,0.2,0l0.1,0c0.1,0,0.1,0,0.2,0c0.1,0,0.2,0,0.2,0h0
				c0,0,0.1,0,0.2,0c0.3,0,0.5,0.2,0.5,0.3c0,0,0,0,0,0c0,0,0,0,0,0.1c0,0,0,0-0.1,0c0,0,0,0,0,0h0l-0.1,0c-0.1,0-0.1,0-0.1,0
				c0,0-0.1,0-0.1,0c0,0-0.1,0-0.3,0.1L14,16.9l0,0.2c0,0.2,0,0.3-0.1,0.5c0,0,0,0.1-0.1,0.2c0,0.1,0,0.1,0,0.2v0h0l0.1,0l0.1,0l0,0
				c0.2-0.1,0.5-0.1,0.7-0.2c0.1,0,0.3-0.1,0.5-0.2c0,0,0.1,0,0.2-0.1c0,0,0.1,0,0.1,0.1c0,0,0,0,0,0c0.1,0.1,0.2,0.1,0.2,0.1
				c0,0,0.1,0,0.2,0.1c0.1,0.1,0.1,0.1,0.1,0.2c0,0,0,0.1,0,0.1c0,0-0.1,0-0.3,0h-0.1c-0.2,0-0.3,0-0.4,0c0,0,0,0-0.1,0l-0.1,0
				c-0.1,0-0.2,0-0.3,0c0,0-0.1,0-0.1,0h0c0,0-0.1,0-0.1,0c0,0-0.1,0-0.2,0c0,0-0.2,0-0.4,0.1c-0.1,0-0.1,0-0.2,0c0,0-0.1,0-0.1,0
				l-0.1,0c0,0-0.1,0-0.1,0.1c0,0,0,0,0,0c0,0,0,0.1,0.1,0.1c0.2,0.2,0.2,0.3,0.2,0.6c0,0.2-0.1,0.6-0.1,0.7l0,0.1
				c0,0.1,0,0.4,0,0.7c0,0.2,0,0.4,0,0.6c0,0.3,0,0.3,0.1,0.4c0.1,0,0.1,0,0.3,0h0c0,0,0.1,0,0.1,0c0.1,0,0.2,0,0.3,0l0.1,0
				c0,0,0,0,0.1,0l0.2,0c0.2,0,0.4-0.1,0.5-0.1c0,0,0.1,0,0.2,0c0,0,0.1,0,0.2,0c0.6-0.2,0.7-0.2,0.9-0.6c0,0,0-0.1,0-0.1
				c0,0,0-0.1,0-0.1c0,0,0-0.1,0-0.1c0,0,0-0.1,0-0.1c0-0.1,0-0.2,0-0.3c0-0.1,0-0.2,0-0.3c0-0.1,0-0.2,0-0.2c0-0.1,0-0.2,0-0.3
				c0-0.1,0-0.2,0-0.2c0,0,0,0,0,0c0,0,0,0.2,0.1,0.4c0,0,0,0.1,0.1,0.1c0,0,0,0.1,0,0.1c0,0,0,0.1,0,0.1c0,0,0,0.1,0,0.1
				c0,0,0,0.1,0,0.2c0,0.1,0,0.2,0.1,0.3c0,0.1,0,0.1,0,0.3v0.2c0,0.2,0,0.4-0.1,0.4C17.2,21.7,17,21.8,16.7,21.9z"/>
		</g>
		<g id="地面_00000003797293168505446650000015876259426337531544_">
			<path id="草_00000106140588319209891390000013350729086394948245_" class="st15" d="M2.4,29c-0.4-1.3-0.5-2.2-1.3-3.5
				C2.8,25.4,3.5,27.9,2.4,29L2.4,29z"/>
			<path id="草_00000111890183804867495480000000123739620313620376_" class="st15" d="M26.6,29c-1.1-1.1-0.4-3.6,1.3-3.5
				C27.1,26.8,27,27.7,26.6,29L26.6,29z"/>
			<path id="草_00000165234982344569191410000000465764117807443338_" class="st15" d="M25.8,29.5c-1.2-2.3-0.6-6.1,2.1-7
				C26.2,24.6,26.2,27,25.8,29.5L25.8,29.5z"/>
			<rect id="地面_00000007418503794608368620000016420562744083413928_" y="28" class="st16" width="28" height="2"/>
		</g>
	</g>
	<g>
		<path class="st17" d="M27.1,21.6l-7.5,7.5c-1.2,1.2-3.1,1.2-4.2,0l-7.5-7.5c-1.2-1.2-1.2-3.1,0-4.2l7.5-7.5c1.2-1.2,3.1-1.2,4.2,0
			l7.5,7.5C28.3,18.6,28.3,20.4,27.1,21.6z"/>
		<g>
			<path class="st18" d="M12.7,24.4l-0.2-0.2c-0.5-0.5-0.5-1.3,0-1.8l7.9-7.9c0.5-0.5,1.3-0.5,1.8,0l0.2,0.2c0.5,0.5,0.5,1.3,0,1.8
				l-7.9,7.9C14,24.9,13.2,24.9,12.7,24.4z"/>
			<path class="st18" d="M20.5,24.4l-7.9-7.9c-0.5-0.5-0.5-1.3,0-1.8l0.2-0.2c0.5-0.5,1.3-0.5,1.8,0l7.9,7.9c0.5,0.5,0.5,1.3,0,1.8
				l-0.2,0.2C21.8,24.9,21,24.9,20.5,24.4z"/>
		</g>
	</g>
</g>
</svg>