<?xml version="1.0" encoding="UTF-8"?>
<svg xmlns="http://www.w3.org/2000/svg" viewBox="0 0 28 40">
  <defs>
    <style>
      .cls-1 {
        fill: #5c5c5c;
      }

      .cls-2 {
        fill: #4b4b4b;
      }

      .cls-3 {
        fill: #80b5ae;
      }

      .cls-4 {
        fill: #4d4d4d;
      }

      .cls-5 {
        fill: #a4a4a4;
      }

      .cls-6 {
        fill: #e6b422;
      }

      .cls-7 {
        fill: gray;
      }

      .cls-8 {
        fill: #186356;
      }

      .cls-9 {
        fill: #999;
      }

      .cls-10 {
        fill: #ccc;
      }

      .cls-11 {
        fill: #b3b3b3;
      }

      .cls-12 {
        fill: #ed1c24;
      }

      .cls-13 {
        fill: #454545;
      }

      .cls-14 {
        fill: #5b4313;
      }

      .cls-15 {
        fill: #f2f2f2;
      }

      .cls-16 {
        fill: red;
      }
    </style>
  </defs>
  <g id="_ピン" data-name="ピン">
    <g id="_ピン-2" data-name="ピン">
      <rect class="cls-7" x="12" y="20" width="4" height="10"/>
      <polygon class="cls-7" points="15 40 13 40 12 30 16 30 15 40"/>
      <rect class="cls-10" x="14" y="20" width="1" height="20"/>
    </g>
  </g>
  <g id="_カラー" data-name="カラー">
    <path id="_炎" data-name="炎" class="cls-12" d="M28,19.89s-.57,.13-1.28,.35c.42-.81,.62-2.13,.61-3.35,0-1.32-.9-3.47-.9-3.47,0,0-.05,.67-.39,1.56-.18-.92-1.04-1.19-1-2.73,.05-1.88,.87-3.17,.87-3.17,0,0-.66,.4-1.36,.93-.09-.78-.33-1.67-.66-2.48-.5-1.22-2.13-2.87-2.13-2.87,0,0,.47,1.46,.06,3.29-.11,.49-.28,.82-.48,1.07-.32-.54-.8-.97-.77-2.13,.05-1.88,.87-3.17,.87-3.17,0,0-1.14,.69-2.04,1.48-.05-.38-.11-.77-.2-1.14-.3-1.29-1.65-3.18-1.65-3.18,0,0,.24,1.51-.46,3.25-.17,.43-.37,.71-.58,.93,0,0,0,0,0-.01,0-.72-.3-1.37-.77-1.84l-.56-1.02-1.2-2.19-1.2,2.19-.56,1.02c-.47,.46-.76,1.09-.77,1.8-.2-.21-.39-.48-.55-.88-.7-1.74-.46-3.25-.46-3.25,0,0-1.35,1.89-1.65,3.18-.09,.37-.15,.76-.2,1.14-.89-.79-2.04-1.48-2.04-1.48,0,0,.82,1.29,.87,3.17,.03,1.16-.45,1.59-.77,2.13-.19-.26-.37-.58-.48-1.07-.42-1.83,.06-3.29,.06-3.29,0,0-1.63,1.65-2.13,2.87-.33,.81-.57,1.7-.66,2.48-.71-.53-1.36-.93-1.36-.93,0,0,.82,1.29,.87,3.17,.04,1.54-.82,1.81-1,2.73-.34-.89-.39-1.56-.39-1.56,0,0-.89,2.15-.9,3.47,0,1.22,.19,2.54,.61,3.35-.71-.22-1.28-.35-1.28-.35,0,0,1.18,.96,1.81,2.73,.35,.99,.12,1.55-.03,2.1-.3-.65-.41-1.13-.41-1.13,0,0-.6,2.25-.43,3.56,.16,1.23,.54,2.53,1.08,3.27-.87-.46-1.36-.95-1.36-.95,0,0,.72,2.22,1.57,3.22,.85,1,1.95,1.95,2.84,2.2,.44,.13,.85,.21,1.23,.21h0s0,0,0,0c0,0,.01,0,.02,0h15.34c.39,0,.81-.08,1.26-.21,.88-.26,1.99-1.2,2.84-2.2,.85-1,1.57-3.22,1.57-3.22,0,0-.49,.49-1.36,.95,.54-.74,.92-2.04,1.08-3.27,.17-1.31-.43-3.56-.43-3.56,0,0-.1,.47-.41,1.13-.15-.55-.38-1.11-.03-2.1,.63-1.77,1.81-2.73,1.81-2.73Z"/>
    <path id="_胴" data-name="胴" class="cls-3" d="M22.41,26.48c0-4.51-3.78-8.17-8.44-8.17s-8.44,3.66-8.44,8.17c0,.01,0,.03,0,.04h0v8.48H22.41v-8.48s0,0,0,0c0-.01,0-.03,0-.04Z"/>
    <path id="_右耳" data-name="右耳" class="cls-3" d="M9.46,11.96c-.22-.66-1.02-1.06-1.52-.33-.34,.49,.11,1.31,.13,1.48s-.37,1.49,.2,1.97c.5,.42,1.12,0,1.12,0,0,0,.26-1.45,.24-2.07s-.18-1.06-.18-1.06Z"/>
    <path id="_左耳" data-name="左耳" class="cls-3" d="M18.49,11.96c.22-.66,1.02-1.06,1.52-.33,.34,.49-.11,1.31-.13,1.48s.37,1.49-.2,1.97c-.5,.42-1.12,0-1.12,0,0,0-.26-1.45-.24-2.07s.18-1.06,.18-1.06Z"/>
    <ellipse id="_顔" data-name="顔" class="cls-3" cx="14.06" cy="12.94" rx="4.99" ry="5.37"/>
    <rect id="_手" data-name="手" class="cls-3" x="1.17" y="27.82" width="3.59" height="3.91" rx="1.05" ry="1.05"/>
    <polygon id="_剣" data-name="剣" class="cls-9" points="3.1 1.79 .93 4.8 2.01 33.39 3.1 33.39 4.18 33.39 5.26 4.8 3.1 1.79"/>
    <path id="_髪" data-name="髪" class="cls-14" d="M9.39,12.32s.23-2.33,1.03-2.78c1-.57,2.56-.15,3.66-.14s2.65-.48,3.34-.15,1.65,3.07,1.65,3.07v-3.13s-.16-1.23-.77-1.67c-.42-.29-.85-.65-.85-.65,0,0-.19-.24-.95-.66-.67-.38-1.19-.33-2.5-.33s-1.83,.16-2.33,.38c-.61,.27-.95,.55-.95,.55,0,0-1.13,.71-1.63,1.52s.3,4,.3,4Z"/>
    <circle id="_髪-2" data-name="髪" class="cls-14" cx="14" cy="4.13" r="1.33"/>
    <rect id="_髪飾り" data-name="髪飾り" class="cls-6" x="12.89" y="5.01" width="2.21" height=".91"/>
    <path id="_衣" data-name="衣" class="cls-8" d="M17.09,30.28c.77-1.31,1.4-2.59,1.95-4.21,.4-1.15,.83-3.56,1.11-5.13-.45-.47-.95-.9-1.5-1.26-.36,1.68-.96,3.61-1.81,5.28-.75,1.48-2.93,3.7-4.73,5.31H5.54v4.83H22.41v-4.83s-5.32,0-5.32,0Z"/>
    <g id="_眉" data-name="眉">
      <path class="cls-4" d="M9.8,12.87l1.03-1.03c.21-.21,.55-.21,.77,0l1.74,1.74-3.54-.71Z"/>
      <path class="cls-4" d="M18.2,12.87l-1.03-1.03c-.21-.21-.55-.21-.77,0l-1.74,1.74,3.54-.71Z"/>
    </g>
  </g>
  <g id="_消失" data-name="消失">
    <g>
      <path id="_炎-2" data-name="炎" class="cls-1" d="M22.92,34.89c.88-.26,1.99-1.2,2.84-2.2,.85-1,1.57-3.22,1.57-3.22,0,0-.49,.49-1.36,.95,.54-.74,.92-2.04,1.08-3.27,.17-1.31-.43-3.56-.43-3.56,0,0-.1,.47-.41,1.13-.15-.55-.38-1.11-.03-2.1,.63-1.77,1.81-2.73,1.81-2.73,0,0-.57,.13-1.28,.35,.42-.81,.62-2.13,.61-3.35,0-1.32-.9-3.47-.9-3.47,0,0-.05,.67-.39,1.56-.18-.92-1.04-1.19-1-2.73,.05-1.88,.87-3.17,.87-3.17,0,0-.66,.4-1.36,.93-.09-.78-.33-1.67-.66-2.48-.5-1.22-2.13-2.87-2.13-2.87,0,0,.47,1.46,.06,3.29-.11,.49-.28,.82-.48,1.07-.32-.54-.8-.97-.77-2.13,.05-1.88,.87-3.17,.87-3.17,0,0-1.14,.69-2.04,1.48-.05-.38-.11-.77-.2-1.14-.3-1.29-1.65-3.18-1.65-3.18,0,0,.24,1.51-.46,3.25-.17,.43-.37,.71-.58,.93,0,0,0,0,0-.01,0-.72-.3-1.37-.77-1.84l-.56-1.02-1.2-2.19-1.2,2.19-.56,1.02c-.47,.46-.76,1.09-.77,1.8-.2-.21-.39-.48-.55-.88-.7-1.74-.46-3.25-.46-3.25,0,0-1.35,1.89-1.65,3.18-.09,.37-.15,.76-.2,1.14-.89-.79-2.04-1.48-2.04-1.48,0,0,.82,1.29,.87,3.17,.03,1.16-.45,1.59-.77,2.13-.19-.26-.37-.58-.48-1.07-.42-1.83,.06-3.29,.06-3.29,0,0-1.63,1.65-2.13,2.87-.33,.81-.57,1.7-.66,2.48-.71-.53-1.36-.93-1.36-.93,0,0,.82,1.29,.87,3.17,.04,1.54-.82,1.81-1,2.73-.34-.89-.39-1.56-.39-1.56,0,0-.89,2.15-.9,3.47,0,1.22,.19,2.54,.61,3.35-.71-.22-1.28-.35-1.28-.35,0,0,1.18,.96,1.81,2.73,.35,.99,.12,1.55-.03,2.1-.3-.65-.41-1.13-.41-1.13,0,0-.6,2.25-.43,3.56,.16,1.23,.54,2.53,1.08,3.27-.87-.46-1.36-.95-1.36-.95,0,0,.72,2.22,1.57,3.22,.85,1,1.95,1.95,2.84,2.2"/>
      <path id="_胴-2" data-name="胴" class="cls-5" d="M22.32,35v-8.48s0,0,0,0c0-.01,0-.03,0-.04,0-4.51-3.74-8.17-8.34-8.17s-8.34,3.66-8.34,8.17c0,.01,0,.03,0,.04h0v8.48"/>
      <path id="_右耳-2" data-name="右耳" class="cls-5" d="M9.51,11.96c-.22-.66-1.01-1.06-1.5-.33-.33,.49,.11,1.31,.13,1.48s-.36,1.49,.2,1.97c.49,.42,1.11,0,1.11,0,0,0,.26-1.45,.24-2.07s-.17-1.06-.17-1.06Z"/>
      <path id="_左耳-2" data-name="左耳" class="cls-5" d="M18.44,11.96c.22-.66,1.01-1.06,1.5-.33,.33,.49-.11,1.31-.13,1.48s.36,1.49-.2,1.97c-.49,.42-1.11,0-1.11,0,0,0-.26-1.45-.24-2.07s.17-1.06,.17-1.06Z"/>
      <ellipse id="_顔-2" data-name="顔" class="cls-5" cx="14.06" cy="12.94" rx="4.94" ry="5.37"/>
      <polyline id="_剣-2" data-name="剣" class="cls-9" points="4.28 33.39 5.35 4.8 3.22 1.79 1.08 4.8 2.15 33.39"/>
      <rect id="_手-2" data-name="手" class="cls-5" x="1.31" y="27.82" width="3.55" height="3.91" rx="1.04" ry="1.04"/>
      <path id="_髪-3" data-name="髪" class="cls-13" d="M9.44,12.32s.22-2.33,1.02-2.78c.99-.57,2.53-.15,3.62-.14s2.62-.48,3.3-.15,1.63,3.07,1.63,3.07v-3.13s-.15-1.23-.77-1.67c-.41-.29-.84-.65-.84-.65,0,0-.19-.24-.94-.66-.67-.38-1.18-.33-2.47-.33s-1.81,.16-2.3,.38c-.61,.27-.94,.55-.94,.55,0,0-1.12,.71-1.61,1.52s.3,4,.3,4Z"/>
      <ellipse id="_髪-4" data-name="髪" class="cls-13" cx="14" cy="4.13" rx="1.32" ry="1.33"/>
      <rect id="_髪飾り-2" data-name="髪飾り" class="cls-11" x="12.91" y="5.01" width="2.19" height=".91"/>
      <path id="_衣-2" data-name="衣" class="cls-2" d="M22.32,35v-4.79s-5.26,0-5.26,0c.76-1.3,1.38-2.57,1.93-4.18,.39-1.15,.82-3.54,1.1-5.09-.44-.47-.94-.89-1.48-1.25-.36,1.67-.95,3.58-1.79,5.24-.74,1.47-2.89,3.68-4.67,5.28H5.63v4.79"/>
      <g id="_眉-2" data-name="眉">
        <path class="cls-4" d="M9.85,12.87l1.02-1.03c.21-.21,.55-.21,.76,0l1.72,1.74-3.5-.71Z"/>
        <path class="cls-4" d="M18.15,12.87l-1.02-1.03c-.21-.21-.55-.21-.76,0l-1.72,1.74,3.5-.71Z"/>
      </g>
    </g>
    <g>
      <rect class="cls-16" x="9.19" y="16.29" width="16.62" height="16.62" rx="3" ry="3" transform="translate(-12.27 19.58) rotate(-45)"/>
      <g>
        <rect class="cls-15" x="16.12" y="17.73" width="2.75" height="13.74" rx="1.26" ry="1.26" transform="translate(22.52 -5.17) rotate(45)"/>
        <rect class="cls-15" x="10.63" y="23.23" width="13.74" height="2.75" rx="1.26" ry="1.26" transform="translate(22.52 -5.17) rotate(45)"/>
      </g>
    </g>
  </g>
</svg>