<?xml version="1.0" encoding="utf-8"?>
<!-- Generator: Adobe Illustrator 27.1.1, SVG Export Plug-In . SVG Version: 6.00 Build 0)  -->
<svg version="1.1" xmlns="http://www.w3.org/2000/svg" xmlns:xlink="http://www.w3.org/1999/xlink" x="0px" y="0px" viewBox="0 0 28 40" style="enable-background:new 0 0 28 40;" xml:space="preserve">
<style type="text/css">
	.st0{display:none;}
	.st1{fill:#808080;}
	.st2{fill:#CCCCCC;}
	.st3{fill:#ED1C24;}
	.st4{fill:#80B5AE;}
	.st5{fill:#999999;}
	.st6{fill:#5B4313;}
	.st7{fill:#E6B422;}
	.st8{fill:#186356;}
	.st9{fill:#4D4D4D;}
	.st10{fill:#1B1464;}
	.st11{fill:#FFFFFF;}
	.st12{fill:#2E3192;}
	.st13{opacity:0.3;fill:#FFFFFF;}
	.st14{fill:#FFCE00;}
	.st15{fill:#5C5C5C;}
	.st16{fill:#A4A4A4;}
	.st17{fill:#454545;}
	.st18{fill:#B3B3B3;}
	.st19{fill:#4B4B4B;}
	.st20{fill:#FF0000;}
	.st21{fill:#F2F2F2;}
</style>
<g id="ガイド_00000045591302362160722190000018018493940298725527_" class="st0">
</g>
<g id="ピン_00000000927453457432803150000008469140276230901636_">
	<g id="ピン">
		<rect x="12" y="20" class="st1" width="4" height="10"/>
		<polygon class="st1" points="15,40 13,40 12,30 16,30 		"/>
		<rect x="14" y="20" class="st2" width="1" height="20"/>
	</g>
</g>
<g id="ノーマル">
	<path id="炎" class="st3" d="M28,19.9c0,0-0.6,0.1-1.3,0.3c0.4-0.8,0.6-2.1,0.6-3.4c0-1.3-0.9-3.5-0.9-3.5S26.4,14.1,26,15
		c-0.2-0.9-1-1.2-1-2.7c0-1.9,0.9-3.2,0.9-3.2s-0.7,0.4-1.4,0.9c-0.1-0.8-0.3-1.7-0.7-2.5c-0.5-1.2-2.1-2.9-2.1-2.9s0.5,1.5,0.1,3.3
		c-0.1,0.5-0.3,0.8-0.5,1.1c-0.3-0.5-0.8-1-0.8-2.1c0-1.9,0.9-3.2,0.9-3.2s-1.1,0.7-2,1.5c0-0.4-0.1-0.8-0.2-1.1
		c-0.3-1.3-1.6-3.2-1.6-3.2s0.2,1.5-0.5,3.3c-0.2,0.4-0.4,0.7-0.6,0.9c0,0,0,0,0,0c0-0.7-0.3-1.4-0.8-1.8l-0.6-1L14,0l-1.2,2.2
		l-0.6,1c-0.5,0.5-0.8,1.1-0.8,1.8c-0.2-0.2-0.4-0.5-0.5-0.9c-0.7-1.7-0.5-3.3-0.5-3.3S9.1,2.8,8.8,4.1C8.7,4.4,8.7,4.8,8.6,5.2
		c-0.9-0.8-2-1.5-2-1.5S7.4,5,7.4,6.9C7.5,8.1,7,8.5,6.7,9C6.5,8.8,6.3,8.4,6.2,7.9C5.8,6.1,6.2,4.7,6.2,4.7S4.6,6.3,4.1,7.5
		C3.8,8.3,3.5,9.2,3.5,10C2.7,9.5,2.1,9.1,2.1,9.1s0.8,1.3,0.9,3.2c0,1.5-0.8,1.8-1,2.7c-0.3-0.9-0.4-1.6-0.4-1.6s-0.9,2.1-0.9,3.5
		c0,1.2,0.2,2.5,0.6,3.4C0.6,20,0,19.9,0,19.9s1.2,1,1.8,2.7c0.4,1,0.1,1.5,0,2.1c-0.3-0.7-0.4-1.1-0.4-1.1S0.8,25.8,1,27.2
		c0.2,1.2,0.5,2.5,1.1,3.3c-0.9-0.5-1.4-1-1.4-1s0.7,2.2,1.6,3.2c0.9,1,2,1.9,2.8,2.2c0.4,0.1,0.8,0.2,1.2,0.2l0,0h0c0,0,0,0,0,0
		h15.3l0,0c0.4,0,0.8-0.1,1.3-0.2c0.9-0.3,2-1.2,2.8-2.2c0.9-1,1.6-3.2,1.6-3.2s-0.5,0.5-1.4,1c0.5-0.7,0.9-2,1.1-3.3
		c0.2-1.3-0.4-3.6-0.4-3.6s-0.1,0.5-0.4,1.1c-0.1-0.6-0.4-1.1,0-2.1C26.8,20.8,28,19.9,28,19.9z"/>
	<path id="胴_00000106126689990679698960000017638745134668276359_" class="st4" d="M22.4,26.5c0-4.5-3.8-8.2-8.4-8.2
		S5.5,22,5.5,26.5c0,0,0,0,0,0h0V35h16.9L22.4,26.5L22.4,26.5C22.4,26.5,22.4,26.5,22.4,26.5z"/>
	<path id="右耳" class="st4" d="M9.5,12c-0.2-0.7-1-1.1-1.5-0.3c-0.3,0.5,0.1,1.3,0.1,1.5s-0.4,1.5,0.2,2c0.5,0.4,1.1,0,1.1,0
		s0.3-1.5,0.2-2.1S9.5,12,9.5,12z"/>
	<path id="左耳" class="st4" d="M18.5,12c0.2-0.7,1-1.1,1.5-0.3c0.3,0.5-0.1,1.3-0.1,1.5c0,0.2,0.4,1.5-0.2,2
		c-0.5,0.4-1.1,0-1.1,0s-0.3-1.5-0.2-2.1C18.3,12.4,18.5,12,18.5,12z"/>
	<ellipse id="顔_00000158729306056619698010000004512639797464009357_" class="st4" cx="14.1" cy="12.9" rx="5" ry="5.4"/>
	<path id="手" class="st4" d="M3.7,31.7H2.2c-0.6,0-1-0.5-1-1v-1.8c0-0.6,0.5-1,1-1h1.5c0.6,0,1,0.5,1,1v1.8
		C4.8,31.3,4.3,31.7,3.7,31.7z"/>
	<polygon id="剣" class="st5" points="3.1,1.8 0.9,4.8 2,33.4 3.1,33.4 4.2,33.4 5.3,4.8 	"/>
	<path id="髪" class="st6" d="M9.4,12.3c0,0,0.2-2.3,1-2.8c1-0.6,2.6-0.2,3.7-0.1s2.6-0.5,3.3-0.1c0.7,0.3,1.7,3.1,1.7,3.1V9.2
		c0,0-0.2-1.2-0.8-1.7c-0.4-0.3-0.8-0.7-0.8-0.7s-0.2-0.2-1-0.7c-0.7-0.4-1.2-0.3-2.5-0.3S12.2,6,11.7,6.2c-0.6,0.3-1,0.5-1,0.5
		S9.6,7.5,9.1,8.3S9.4,12.3,9.4,12.3z"/>
	<circle id="髪_00000001657437862590379190000011488550846782987959_" class="st6" cx="14" cy="4.1" r="1.3"/>
	<rect id="髪飾り" x="12.9" y="5" class="st7" width="2.2" height="0.9"/>
	<path id="衣" class="st8" d="M17.1,30.3c0.8-1.3,1.4-2.6,2-4.2c0.4-1.2,0.8-3.6,1.1-5.1c-0.4-0.5-0.9-0.9-1.5-1.3
		c-0.4,1.7-1,3.6-1.8,5.3c-0.8,1.5-2.9,3.7-4.7,5.3H5.5v4.8h16.9l0-4.8H17.1z"/>
	<g id="眉_00000075154372470899469350000005008060176589131962_">
		<path class="st9" d="M9.8,12.9l1-1c0.2-0.2,0.6-0.2,0.8,0l1.7,1.7L9.8,12.9z"/>
		<path class="st9" d="M18.2,12.9l-1-1c-0.2-0.2-0.6-0.2-0.8,0l-1.7,1.7L18.2,12.9z"/>
	</g>
</g>

<g id="要調査">
	<path class="st13" d="M23.6,35H4.4C2,35,0,33,0,30.6V6.3C0,2.8,2.8,0,6.3,0h9.8C22.7,0,28,5.3,28,11.9v18.7C28,33,26,35,23.6,35z"/>
	<g>
		<path class="st14" d="M27.1,26.6l-7.5,7.5c-1.2,1.2-3.1,1.2-4.2,0l-7.5-7.5c-1.2-1.2-1.2-3.1,0-4.2l7.5-7.5c1.2-1.2,3.1-1.2,4.2,0
			l7.5,7.5C28.3,23.5,28.3,25.5,27.1,26.6z"/>
		<g>
			<path d="M18.7,28.8c0,0.7-0.6,1.3-1.2,1.3s-1.3-0.6-1.3-1.3c0-0.7,0.6-1.2,1.3-1.2S18.7,28.1,18.7,28.8z M18.2,26
				c-0.1,0.5-0.2,0.8-0.7,0.8c-0.5,0-0.6-0.4-0.7-0.8l-0.5-3.5V20c0-0.8,0.4-1.1,1.2-1.1c0.7,0,1.1,0.3,1.1,1.1v2.5L18.2,26z"/>
		</g>
	</g>
</g>

</svg>