<?xml version="1.0" encoding="utf-8"?>
<!-- Generator: Adobe Illustrator 27.1.1, SVG Export Plug-In . SVG Version: 6.00 Build 0)  -->
<svg version="1.1" xmlns="http://www.w3.org/2000/svg" xmlns:xlink="http://www.w3.org/1999/xlink" x="0px" y="0px" viewBox="0 0 28 40" style="enable-background:new 0 0 28 40;" xml:space="preserve">
<style type="text/css">
	.st0{fill:#808080;}
	.st1{fill:#CCCCCC;}
	.st2{fill:#93278F;}
	.st3{fill:#FFFFFF;}
</style>
<g id="ガイド_00000162338702563158607440000009963323815856875396_">
</g>
<g id="ピン">
	<g id="ピン_00000178200821674323619740000011794091811933454987_">
		<rect x="12" y="20" class="st0" width="4" height="10"/>
		<polygon class="st0" points="15,40 13,40 12,30 16,30 		"/>
		<rect x="14" y="20" class="st1" width="1" height="20"/>
	</g>
</g>
<g id="ノーマル">
	<path class="st2" d="M27.3,15.9L15.9,27.2c-1,1-2.7,1-3.8,0L0.8,15.9c-1-1-1-2.7,0-3.8L12.2,0.8c1-1,2.7-1,3.8,0l11.3,11.3
		C28.3,13.2,28.3,14.8,27.3,15.9z"/>
	<g>
		<g>
			<path class="st3" d="M8.2,11.2c0-0.3,0.1-0.7,0.7-0.7c0.4,0,0.8,0.1,0.8,0.7v5.2c0,0.2,0,0.9-0.8,0.9c-0.6,0-0.8-0.3-1.1-0.7
				L5.4,13v3.5c0,0.3-0.1,0.7-0.7,0.7c-0.4,0-0.8-0.1-0.8-0.7v-5.2c0-0.2,0-0.9,0.8-0.9c0.6,0,0.8,0.3,1.1,0.7l2.3,3.5V11.2z"/>
			<path class="st3" d="M14.2,13.1c0.3,0,0.7,0.1,0.7,0.7c0,0.5-0.2,0.7-0.7,0.7h-1.9v1.1c0,0.2,0,0.2,0.2,0.2h2
				c0.3,0,0.7,0.1,0.7,0.7c0,0.5-0.2,0.7-0.7,0.7H12c-1.1,0-1.2-0.8-1.2-1.2v-4.1c0-0.5,0.1-1.2,1.2-1.2h2.5c0.3,0,0.7,0.1,0.7,0.7
				c0,0.6-0.4,0.7-0.7,0.7h-1.9c-0.2,0-0.2,0.1-0.2,0.2v0.9H14.2z"/>
			<path class="st3" d="M23.1,11.3c0.1-0.4,0.2-0.8,0.8-0.8c0.5,0,0.8,0.3,0.8,0.6c0,0.2-0.1,0.4-0.1,0.6L23.3,16
				c-0.2,0.7-0.3,1.2-1.1,1.2c-0.8,0-1-0.5-1.1-1.2l-0.8-3.5L19.4,16c-0.1,0.6-0.3,1.2-1.1,1.2c-0.8,0-1-0.4-1.2-1.2l-1.3-4.4
				c0-0.1-0.1-0.4-0.1-0.6c0-0.3,0.3-0.6,0.8-0.6c0.6,0,0.7,0.3,0.8,0.8l1,3.9l0.8-3.6c0.1-0.5,0.2-1.1,1-1.1c0.9,0,1,0.4,1.2,1.1
				l0.8,3.6L23.1,11.3z"/>
		</g>
	</g>
</g>
</svg>