<?xml version="1.0" encoding="UTF-8"?>
<svg xmlns="http://www.w3.org/2000/svg" viewBox="0 0 28 40">
  <defs>
    <style>
      .cls-1 {
        fill: #fff;
      }

      .cls-2 {
        fill: gray;
      }

      .cls-3 {
        fill: #ccc;
      }

      .cls-4 {
        fill: #93278f;
      }
    </style>
  </defs>
  <g id="_ピン" data-name="ピン">
    <g id="_ピン-2" data-name="ピン">
      <rect class="cls-2" x="12" y="20" width="4" height="10"/>
      <polygon class="cls-2" points="15 40 13 40 12 30 16 30 15 40"/>
      <rect class="cls-3" x="14" y="20" width="1" height="20"/>
    </g>
  </g>
  <g id="_ノーマル" data-name="ノーマル">
    <rect class="cls-4" x="3.36" y="3.32" width="21.36" height="21.36" rx="2.66" ry="2.66" transform="translate(-5.79 14.03) rotate(-45)"/>
    <g>
      <path class="cls-1" d="M8.17,11.17c0-.31,.08-.69,.74-.69,.39,0,.75,.1,.75,.69v5.17c0,.2,0,.86-.85,.86-.55,0-.82-.29-1.08-.7l-2.29-3.52v3.53c0,.32-.09,.69-.74,.69-.4,0-.75-.1-.75-.69v-5.17c0-.19,0-.86,.85-.86,.56,0,.82,.3,1.08,.7l2.29,3.52v-3.53Z"/>
      <path class="cls-1" d="M14.24,13.08c.26,0,.68,.06,.68,.66,0,.47-.22,.67-.68,.67h-1.93v1.06c0,.17,.04,.24,.24,.24h2.01c.29,0,.7,.06,.7,.68,0,.46-.22,.69-.7,.69h-2.58c-1.14,0-1.16-.76-1.16-1.16v-4.13c0-.48,.06-1.16,1.16-1.16h2.47c.26,0,.7,.06,.7,.68s-.37,.69-.7,.69h-1.9c-.19,0-.24,.06-.24,.24v.86h1.93Z"/>
      <path class="cls-1" d="M23.07,11.25c.1-.42,.19-.77,.78-.77,.53,0,.78,.32,.78,.57,0,.16-.08,.43-.11,.55l-1.25,4.4c-.2,.7-.34,1.19-1.14,1.19-.85,0-.97-.53-1.12-1.19l-.81-3.53-.82,3.53c-.14,.61-.27,1.19-1.06,1.19-.85,0-.98-.43-1.19-1.19l-1.26-4.4c-.03-.1-.11-.39-.11-.55,0-.29,.3-.57,.77-.57,.6,0,.68,.34,.79,.77l.97,3.85,.84-3.57c.12-.51,.25-1.06,.99-1.06,.86,0,.98,.36,1.15,1.06l.84,3.57,.97-3.85Z"/>
    </g>
  </g>
</svg>