<?xml version="1.0" encoding="UTF-8"?>
<svg xmlns="http://www.w3.org/2000/svg" viewBox="0 0 28 40">
  <defs>
    <style>
      .cls-1, .cls-2 {
        fill: #fff;
      }

      .cls-3 {
        fill: #b08030;
      }

      .cls-2 {
        opacity: .3;
      }

      .cls-4 {
        fill: #cc974a;
      }

      .cls-5 {
        fill: #604406;
      }

      .cls-6 {
        fill: #f49dcf;
      }

      .cls-7 {
        fill: gray;
      }

      .cls-8 {
        fill: #ffce00;
      }

      .cls-9 {
        fill: #ccc;
      }

      .cls-10 {
        fill: #06def4;
      }
    </style>
  </defs>
  <g id="_ピン" data-name="ピン">
    <g>
      <g>
        <polygon class="cls-7" points="15 40 13 40 12 30 16 30 15 40"/>
        <rect class="cls-9" x="14" y="30" width="1" height="10"/>
      </g>
      <g>
        <rect class="cls-7" x="12" y="20" width="4" height="10"/>
        <rect class="cls-9" x="14" y="20" width="1" height="10"/>
      </g>
    </g>
  </g>
  <g id="_ノーマル" data-name="ノーマル">
    <path id="_後輪" data-name="後輪" class="cls-3" d="M14,1c7.17,0,13,5.83,13,13s-5.83,13-13,13S1,21.17,1,14,6.83,1,14,1m0-1C6.27,0,0,6.27,0,14s6.27,14,14,14,14-6.27,14-14S21.73,0,14,0h0Z"/>
    <path id="_胴" data-name="胴" class="cls-4" d="M22.05,26.88c0-4.31-3.6-7.8-8.05-7.8s-8.05,3.49-8.05,7.8c0,.01,0,.03,0,.04h0v8.08H22.05v-8.08s0,0,0,0c0-.01,0-.03,0-.04Z"/>
    <path id="_右耳" data-name="右耳" class="cls-4" d="M9.69,13.03c-.21-.63-.97-1.02-1.45-.31-.32,.47,.1,1.25,.12,1.41s-.35,1.42,.19,1.88c.47,.41,1.07,0,1.07,0,0,0,.25-1.39,.23-1.97s-.17-1.01-.17-1.01Z"/>
    <path id="_左耳" data-name="左耳" class="cls-4" d="M18.31,13.03c.21-.63,.97-1.02,1.45-.31,.32,.47-.1,1.25-.12,1.41s.35,1.42-.19,1.88c-.47,.41-1.07,0-1.07,0,0,0-.25-1.39-.23-1.97s.17-1.01,.17-1.01Z"/>
    <ellipse id="_顔" data-name="顔" class="cls-4" cx="14.08" cy="13.96" rx="4.76" ry="5.12"/>
    <path id="_髪" data-name="髪" class="cls-5" d="M9.6,13.41s.22-2.22,.98-2.65c.95-.54,2.44-.15,3.49-.13s2.52-.46,3.18-.14,1.58,2.93,1.58,2.93v-2.99s-.36-.68-.83-.83-.72-1.38-.72-1.38c0,0-.14-1.42-.95-1.96s-1.02-.47-2.26-.47-1.65-.07-2.4,.61-.81,1.76-.81,1.76c0,0-.63,.99-1.1,1.76s-.16,3.5-.16,3.5Z"/>
    <g id="_宝冠" data-name="宝冠">
      <path id="_宝冠上" data-name="宝冠上" class="cls-3" d="M19.89,5.48s-2.18,.15-3.07,1.18c-.05,.06-.08,.12-.13,.19,0-.53-.08-1.33-.45-2-.62-1.1-2.1-1.84-2.1-1.84,0,0-1.64,.64-2.33,1.93-.26,.48-.29,1.33-.27,1.9-.04-.06-.07-.12-.12-.17-.89-1.02-3.07-1.18-3.07-1.18,0,0,.91,1.6,1.04,2.48,.15,1.01,.08,1.72,.08,1.72l2.34-.26,.03,.25,4.54-.03,.03-.23,2.38,.27s-.07-.7,.08-1.72c.13-.88,1.04-2.48,1.04-2.48Z"/>
      <path id="_宝冠下" data-name="宝冠下" class="cls-3" d="M9.49,10.47s2.43-.28,4.19-.3,5.16,.25,5.16,.25l.1-1.7s-3.45-.29-4.92-.24-4.67,.29-4.67,.29l.13,1.71Z"/>
      <g id="_宝石" data-name="宝石">
        <circle class="cls-10" cx="14.11" cy="9.32" r=".59"/>
        <circle class="cls-6" cx="12.36" cy="9.36" r=".59"/>
        <circle class="cls-10" cx="10.58" cy="9.5" r=".59"/>
        <circle class="cls-6" cx="15.96" cy="9.36" r=".59"/>
        <circle class="cls-10" cx="17.68" cy="9.5" r=".59"/>
      </g>
      <rect id="_宝石-2" data-name="宝石" class="cls-10" x="13.03" y="5.19" width="2.1" height="2.1" transform="translate(-.29 11.78) rotate(-45)"/>
    </g>
    <g id="_手" data-name="手">
      <path class="cls-1" d="M4.58,29.88c-.18-.01-.35-.05-.52-.11-1.15-.39-1.61-1.14-1.78-1.7-.69-2.23,1.78-5.51,3.76-8.15,.39-.51,.76-1.01,1.05-1.42-.49-.69-.76-1.59-.69-2.48l.25-3.16,.26-.26c.48-.48,.95-.55,1.26-.52,1.21,.1,1.64,1.61,1.79,2.69,.93,1.14,2.08,2.96,1.04,4.06-.88,3.62-3.14,11.32-6.42,11.06h0Z"/>
      <g id="_腕" data-name="腕">
        <path class="cls-4" d="M9,15.18s-.3-2.95-1.39-1.87l-.22,2.79c-.07,.89,.33,1.83,.96,2.28-1.27,2.26-7.88,9.13-3.98,10.45,3,1.01,5.72-10.5,5.72-10.5h-.03c.06-.06,.11-.1,.17-.15,.75-.68-1.23-3-1.23-3Z"/>
      </g>
    </g>
    <g id="_手-2" data-name="手">
      <path class="cls-1" d="M24.14,35.74c-.11,0-.22,0-.34-.02-.63-.06-1.19-.38-1.6-.92-1.69-2.21-.87-8.61-.37-11.6-.04-.2-.28-1.3-.39-1.71-.03-.11-.1-.29-.17-.49-.42-1.17-.83-2.28,.18-2.75,.23-.11,.46-.16,.71-.16,.13,0,.26,.02,.37,.05,0-1.24,.12-1.51,.18-1.64,.3-.68,1.05-1.05,1.6-1.05,.33,0,.63,.13,.84,.36,.29,.32,.32,.36,.3,3.15,.34,.19,.68,.46,.85,.84,.03,.07,.07,.12,.1,.17,.12,.19,.33,.5,.36,.97,.03,.48-.54,2.29-1.19,3.08,.09,.52,.25,1.19,.41,1.89,.73,3.16,1.64,7.09,.21,8.88-.34,.43-.97,.94-2.05,.94Z"/>
      <path class="cls-4" d="M24.49,23.59c.26,2.6,3.49,11.52-.6,11.14-2.88-.27-1.3-10.04-1.02-11.68-.03-.01-.06-.02-.06-.02,0,0-.29-1.33-.41-1.79-.12-.46-.78-1.96-.53-2.08,.41-.19,.71,.09,.76,.22,.06,.13,.24,.56,.24,.56,0,0,.32-.54,.45-.6s.22,.02,.22,.02c0,0-.08-2.1,.07-2.45,.15-.34,.69-.52,.78-.42,.06,.07,.04,3.14,.04,3.14,0,0,.79,.25,.93,.59,.15,.34,.36,.46,.38,.8,.02,.33-.68,2.21-1.04,2.46l-.23,.12Z"/>
    </g>
    <circle id="_法輪" data-name="法輪" class="cls-3" cx="24" cy="14.5" r="2"/>
    <g id="_眉目" data-name="眉目">
      <g id="_眉" data-name="眉">
        <path id="_眉-2" data-name="眉" class="cls-5" d="M13.53,13c-.87-1.1-2.43-1.01-3.33,0,.62-1.29,2.74-1.38,3.33,0h0Z"/>
        <path id="_眉-3" data-name="眉" class="cls-5" d="M14.47,13c.59-1.38,2.7-1.29,3.33,0-.9-1.01-2.46-1.1-3.33,0h0Z"/>
      </g>
      <g id="_目" data-name="目">
        <path class="cls-5" d="M10.54,13.95s.39-1.12,1.19-1.08,1.51,1.08,1.51,1.08c0,0-.72,.72-1.35,.72s-1.35-.72-1.35-.72Z"/>
        <path class="cls-5" d="M17.46,13.95s-.39-1.12-1.19-1.08-1.51,1.08-1.51,1.08c0,0,.72,.72,1.35,.72s1.35-.72,1.35-.72Z"/>
      </g>
    </g>
  </g>
  <g id="_要調査" data-name="要調査">
    <path class="cls-2" d="M10.23,0h7.39C23.35,0,28,4.65,28,10.38V31.83c0,1.75-1.42,3.17-3.17,3.17H5.88c-3.24,0-5.88-2.63-5.88-5.88V10.23C0,4.58,4.58,0,10.23,0Z"/>
    <g>
      <rect class="cls-8" x="9.19" y="16.19" width="16.61" height="16.61" rx="3" ry="3" transform="translate(-12.2 19.55) rotate(-45)"/>
      <path d="M18.75,28.83c0,.7-.56,1.26-1.25,1.26s-1.25-.56-1.25-1.26,.56-1.25,1.25-1.25,1.25,.56,1.25,1.25Zm-.57-2.88c-.07,.46-.16,.78-.69,.78s-.61-.35-.66-.78l-.46-3.49v-2.5c0-.78,.42-1.05,1.16-1.05s1.11,.31,1.11,1.05v2.5l-.46,3.49Z"/>
    </g>
  </g>
</svg>