<?xml version="1.0" encoding="utf-8"?>
<!-- Generator: Adobe Illustrator 27.1.1, SVG Export Plug-In . SVG Version: 6.00 Build 0)  -->
<svg version="1.1" xmlns="http://www.w3.org/2000/svg" xmlns:xlink="http://www.w3.org/1999/xlink" x="0px" y="0px" viewBox="0 0 28 40" style="enable-background:new 0 0 28 40;" xml:space="preserve">
<style type="text/css">
	.st0{display:none;}
	.st1{fill:#808080;}
	.st2{fill:#CCCCCC;}
	.st3{fill:#B08030;}
	.st4{fill:#CC974A;}
	.st5{fill:#604406;}
	.st6{fill:#06DEF4;}
	.st7{fill:#F49DCF;}
	.st8{fill:#FFFFFF;}
	.st9{fill:#1B1464;}
	.st10{fill:#2E3192;}
	.st11{opacity:0.3;fill:#FFFFFF;}
	.st12{fill:#FFCE00;}
	.st13{fill:#868686;}
	.st14{fill:#9E9E9E;}
	.st15{fill:#464646;}
	.st16{fill:#A0A0A0;}
	.st17{fill:#BDBDBD;}
	.st18{fill:#FF0000;}
	.st19{fill:#F2F2F2;}
</style>
<g id="ガイド_00000162338702563158607440000009963323815856875396_" class="st0">
</g>
<g id="ピン">
	<g>
		<g>
			<polygon class="st1" points="15,40 13,40 12,30 16,30 			"/>
			<rect x="14" y="30" class="st2" width="1" height="10"/>
		</g>
		<g>
			<rect x="12" y="20" class="st1" width="4" height="10"/>
			<rect x="14" y="20" class="st2" width="1" height="10"/>
		</g>
	</g>
</g>
<g id="ノーマル">
	<path id="後輪" class="st3" d="M14,1c7.2,0,13,5.8,13,13s-5.8,13-13,13S1,21.2,1,14S6.8,1,14,1 M14,0C6.3,0,0,6.3,0,14
		s6.3,14,14,14s14-6.3,14-14S21.7,0,14,0L14,0z"/>
	<path id="胴_00000106126689990679698960000017638745134668276359_" class="st4" d="M22,26.9c0-4.3-3.6-7.8-8-7.8s-8,3.5-8,7.8
		c0,0,0,0,0,0h0V35H22L22,26.9L22,26.9C22,26.9,22,26.9,22,26.9z"/>
	<path id="右耳" class="st4" d="M9.7,13c-0.2-0.6-1-1-1.5-0.3c-0.3,0.5,0.1,1.3,0.1,1.4S8,15.5,8.6,16c0.5,0.4,1.1,0,1.1,0
		s0.3-1.4,0.2-2C9.8,13.4,9.7,13,9.7,13z"/>
	<path id="左耳" class="st4" d="M18.3,13c0.2-0.6,1-1,1.5-0.3c0.3,0.5-0.1,1.3-0.1,1.4c0,0.2,0.3,1.4-0.2,1.9
		c-0.5,0.4-1.1,0-1.1,0s-0.3-1.4-0.2-2C18.2,13.4,18.3,13,18.3,13z"/>
	<ellipse id="顔_00000158729306056619698010000004512639797464009357_" class="st4" cx="14.1" cy="14" rx="4.8" ry="5.1"/>
	<path id="髪" class="st5" d="M9.6,13.4c0,0,0.2-2.2,1-2.7c1-0.5,2.4-0.1,3.5-0.1s2.5-0.5,3.2-0.1s1.6,2.9,1.6,2.9v-3
		c0,0-0.4-0.7-0.8-0.8s-0.7-1.4-0.7-1.4s-0.1-1.4-0.9-2s-1-0.5-2.3-0.5s-1.7-0.1-2.4,0.6s-0.8,1.8-0.8,1.8s-0.6,1-1.1,1.8
		C9.3,10.7,9.6,13.4,9.6,13.4z"/>
	<g id="宝冠">
		<path id="宝冠上" class="st3" d="M19.9,5.5c0,0-2.2,0.2-3.1,1.2c0,0.1-0.1,0.1-0.1,0.2c0-0.5-0.1-1.3-0.5-2
			C15.6,3.7,14.1,3,14.1,3s-1.6,0.6-2.3,1.9c-0.3,0.5-0.3,1.3-0.3,1.9c0-0.1-0.1-0.1-0.1-0.2c-0.9-1-3.1-1.2-3.1-1.2s0.9,1.6,1,2.5
			c0.1,1,0.1,1.7,0.1,1.7l2.3-0.3l0,0.3l4.5,0l0-0.2l2.4,0.3c0,0-0.1-0.7,0.1-1.7C19,7.1,19.9,5.5,19.9,5.5z"/>
		<path id="宝冠下" class="st3" d="M9.5,10.5c0,0,2.4-0.3,4.2-0.3s5.2,0.3,5.2,0.3l0.1-1.7c0,0-3.5-0.3-4.9-0.2
			c-1.5,0-4.7,0.3-4.7,0.3L9.5,10.5z"/>
		<g id="宝石_00000178168996995681553840000017948064960923401360_">
			<circle class="st6" cx="14.1" cy="9.3" r="0.6"/>
			<circle class="st7" cx="12.4" cy="9.4" r="0.6"/>
			<circle class="st6" cx="10.6" cy="9.5" r="0.6"/>
			<circle class="st7" cx="16" cy="9.4" r="0.6"/>
			<circle class="st6" cx="17.7" cy="9.5" r="0.6"/>
		</g>
		
			<rect id="宝石" x="13" y="5.2" transform="matrix(0.7071 -0.7071 0.7071 0.7071 -0.2885 11.7818)" class="st6" width="2.1" height="2.1"/>
	</g>
	<g id="手">
		<g>
			<path class="st8" d="M4.6,29.9c-0.2,0-0.4-0.1-0.5-0.1c-1.2-0.4-1.6-1.1-1.8-1.7c-0.7-2.2,1.8-5.5,3.8-8.2c0.4-0.5,0.8-1,1-1.4
				c-0.5-0.7-0.8-1.6-0.7-2.5l0.3-3.2l0.3-0.3c0.5-0.5,1-0.5,1.3-0.5c1.2,0.1,1.6,1.6,1.8,2.7c0.9,1.1,2.1,3,1,4.1
				C10.1,22.4,7.9,30.1,4.6,29.9C4.6,29.9,4.6,29.9,4.6,29.9z"/>
		</g>
		<g id="腕">
			<path class="st4" d="M9,15.2c0,0-0.3-3-1.4-1.9c0,0-0.1,1.2-0.2,2.8c-0.1,0.9,0.3,1.8,1,2.3c-1.3,2.3-7.9,9.1-4,10.4
				c3,1,5.7-10.5,5.7-10.5l0,0c0.1,0,0.1-0.1,0.2-0.1C11,17.5,9,15.2,9,15.2z"/>
		</g>
	</g>
	<g id="手_00000016778283243632210720000003148622047365119421_">
		<g>
			<path class="st8" d="M24.1,35.7c-0.1,0-0.2,0-0.3,0c-0.6-0.1-1.2-0.4-1.6-0.9c-1.7-2.2-0.9-8.6-0.4-11.6c0-0.2-0.3-1.3-0.4-1.7
				c0-0.1-0.1-0.3-0.2-0.5c-0.4-1.2-0.8-2.3,0.2-2.8c0.2-0.1,0.5-0.2,0.7-0.2c0.1,0,0.3,0,0.4,0c0-1.2,0.1-1.5,0.2-1.6
				c0.3-0.7,1-1,1.6-1c0.3,0,0.6,0.1,0.8,0.4c0.3,0.3,0.3,0.4,0.3,3.2c0.3,0.2,0.7,0.5,0.8,0.8c0,0.1,0.1,0.1,0.1,0.2
				c0.1,0.2,0.3,0.5,0.4,1c0,0.5-0.5,2.3-1.2,3.1c0.1,0.5,0.2,1.2,0.4,1.9c0.7,3.2,1.6,7.1,0.2,8.9C25.8,35.2,25.2,35.7,24.1,35.7z"/>
		</g>
		<g>
			<path class="st4" d="M24.5,23.6c0.3,2.6,3.5,11.5-0.6,11.1c-2.9-0.3-1.3-10-1-11.7c0,0-0.1,0-0.1,0s-0.3-1.3-0.4-1.8
				c-0.1-0.5-0.8-2-0.5-2.1c0.4-0.2,0.7,0.1,0.8,0.2c0.1,0.1,0.2,0.6,0.2,0.6s0.3-0.5,0.5-0.6s0.2,0,0.2,0s-0.1-2.1,0.1-2.4
				c0.2-0.3,0.7-0.5,0.8-0.4c0.1,0.1,0,3.1,0,3.1s0.8,0.2,0.9,0.6c0.1,0.3,0.4,0.5,0.4,0.8c0,0.3-0.7,2.2-1,2.5L24.5,23.6z"/>
		</g>
	</g>
	<circle id="法輪" class="st3" cx="24" cy="14.5" r="2"/>
	<g id="眉目">
		<g id="眉_00000059278337859623208290000009714789687849173923_">
			<path id="眉_00000129185784493262199870000011821865886644204173_" class="st5" d="M13.5,13c-0.9-1.1-2.4-1-3.3,0
				C10.8,11.7,12.9,11.6,13.5,13L13.5,13z"/>
			<path id="眉_00000123423311807163890540000007598090301004616122_" class="st5" d="M14.5,13c0.6-1.4,2.7-1.3,3.3,0
				C16.9,12,15.3,11.9,14.5,13L14.5,13z"/>
		</g>
		<g id="目">
			<path class="st5" d="M10.5,13.9c0,0,0.4-1.1,1.2-1.1c0.8,0,1.5,1.1,1.5,1.1s-0.7,0.7-1.3,0.7C11.3,14.7,10.5,13.9,10.5,13.9z"/>
			<path class="st5" d="M17.5,13.9c0,0-0.4-1.1-1.2-1.1s-1.5,1.1-1.5,1.1s0.7,0.7,1.3,0.7C16.7,14.7,17.5,13.9,17.5,13.9z"/>
		</g>
	</g>
</g>


<g id="消失">
	<g>
		<path id="後輪_00000119827625958308964900000014870986746653384095_" class="st13" d="M14,1c7.2,0,13,5.8,13,13s-5.8,13-13,13
			S1,21.2,1,14S6.8,1,14,1 M14,0C6.3,0,0,6.3,0,14s6.3,14,14,14s14-6.3,14-14S21.7,0,14,0L14,0z"/>
		<path id="胴_00000139976136400277369180000015261830788348044981_" class="st14" d="M22,26.9c0-4.3-3.6-7.8-8-7.8s-8,3.5-8,7.8
			c0,0,0,0,0,0h0V35H22L22,26.9L22,26.9C22,26.9,22,26.9,22,26.9z"/>
		<path id="右耳_00000145041551777682915730000001518199421274801552_" class="st14" d="M9.7,13c-0.2-0.6-1-1-1.5-0.3
			c-0.3,0.5,0.1,1.3,0.1,1.4S8,15.5,8.6,16c0.5,0.4,1.1,0,1.1,0s0.3-1.4,0.2-2C9.8,13.4,9.7,13,9.7,13z"/>
		<path id="左耳_00000162311540934564436130000016511489240906619058_" class="st14" d="M18.3,13c0.2-0.6,1-1,1.5-0.3
			c0.3,0.5-0.1,1.3-0.1,1.4c0,0.2,0.3,1.4-0.2,1.9c-0.5,0.4-1.1,0-1.1,0s-0.3-1.4-0.2-2C18.2,13.4,18.3,13,18.3,13z"/>
		<ellipse id="顔_00000177449633750213331750000014283385156074027922_" class="st14" cx="14.1" cy="14" rx="4.8" ry="5.1"/>
		<path id="髪_00000120536519362340152420000003800452113842474888_" class="st15" d="M9.6,13.4c0,0,0.2-2.2,1-2.7
			c1-0.5,2.4-0.1,3.5-0.1s2.5-0.5,3.2-0.1s1.6,2.9,1.6,2.9v-3c0,0-0.4-0.7-0.8-0.8s-0.7-1.4-0.7-1.4s-0.1-1.4-0.9-2s-1-0.5-2.3-0.5
			s-1.7-0.1-2.4,0.6s-0.8,1.8-0.8,1.8s-0.6,1-1.1,1.8C9.3,10.7,9.6,13.4,9.6,13.4z"/>
		<g id="宝冠_00000013184332823781500630000016959649930432456849_">
			<path id="宝冠上_00000157303983602717133570000011329025926658122921_" class="st13" d="M19.9,5.5c0,0-2.2,0.2-3.1,1.2
				c0,0.1-0.1,0.1-0.1,0.2c0-0.5-0.1-1.3-0.5-2C15.6,3.7,14.1,3,14.1,3s-1.6,0.6-2.3,1.9c-0.3,0.5-0.3,1.3-0.3,1.9
				c0-0.1-0.1-0.1-0.1-0.2c-0.9-1-3.1-1.2-3.1-1.2s0.9,1.6,1,2.5c0.1,1,0.1,1.7,0.1,1.7l2.3-0.3l0,0.3l4.5,0l0-0.2l2.4,0.3
				c0,0-0.1-0.7,0.1-1.7C19,7.1,19.9,5.5,19.9,5.5z"/>
			<path id="宝冠下_00000098200463752798621190000005091518612497517980_" class="st13" d="M9.5,10.5c0,0,2.4-0.3,4.2-0.3
				s5.2,0.3,5.2,0.3l0.1-1.7c0,0-3.5-0.3-4.9-0.2c-1.5,0-4.7,0.3-4.7,0.3L9.5,10.5z"/>
			<g id="宝石_00000017489556959131127150000012451385308667086248_">
				<circle class="st16" cx="14.1" cy="9.3" r="0.6"/>
				<circle class="st17" cx="12.4" cy="9.4" r="0.6"/>
				<circle class="st16" cx="10.6" cy="9.5" r="0.6"/>
				<circle class="st17" cx="16" cy="9.4" r="0.6"/>
				<circle class="st16" cx="17.7" cy="9.5" r="0.6"/>
			</g>
			
				<rect id="宝石_00000000224735266585426390000005376787307023036848_" x="13" y="5.2" transform="matrix(0.7071 -0.7071 0.7071 0.7071 -0.2885 11.7818)" class="st16" width="2.1" height="2.1"/>
		</g>
		<g id="手_00000080904910501391614450000009829281169142768008_">
			<g>
				<path class="st8" d="M4.6,29.9c-0.2,0-0.4-0.1-0.5-0.1c-1.2-0.4-1.6-1.1-1.8-1.7c-0.7-2.2,1.8-5.5,3.8-8.2c0.4-0.5,0.8-1,1-1.4
					c-0.5-0.7-0.8-1.6-0.7-2.5l0.3-3.2l0.3-0.3c0.5-0.5,1-0.5,1.3-0.5c1.2,0.1,1.6,1.6,1.8,2.7c0.9,1.1,2.1,3,1,4.1
					C10.1,22.4,7.9,30.1,4.6,29.9C4.6,29.9,4.6,29.9,4.6,29.9z"/>
			</g>
			<g id="腕_00000165917777603538367720000018072324657881964958_">
				<path class="st14" d="M9,15.2c0,0-0.3-3-1.4-1.9c0,0-0.1,1.2-0.2,2.8c-0.1,0.9,0.3,1.8,1,2.3c-1.3,2.3-7.9,9.1-4,10.4
					c3,1,5.7-10.5,5.7-10.5l0,0c0.1,0,0.1-0.1,0.2-0.1C11,17.5,9,15.2,9,15.2z"/>
			</g>
		</g>
		<g id="手_00000065053615733923295590000012103352168111874488_">
			<g>
				<path class="st8" d="M24.1,35.7c-0.1,0-0.2,0-0.3,0c-0.6-0.1-1.2-0.4-1.6-0.9c-1.7-2.2-0.9-8.6-0.4-11.6c0-0.2-0.3-1.3-0.4-1.7
					c0-0.1-0.1-0.3-0.2-0.5c-0.4-1.2-0.8-2.3,0.2-2.8c0.2-0.1,0.5-0.2,0.7-0.2c0.1,0,0.3,0,0.4,0c0-1.2,0.1-1.5,0.2-1.6
					c0.3-0.7,1-1,1.6-1c0.3,0,0.6,0.1,0.8,0.4c0.3,0.3,0.3,0.4,0.3,3.2c0.3,0.2,0.7,0.5,0.8,0.8c0,0.1,0.1,0.1,0.1,0.2
					c0.1,0.2,0.3,0.5,0.4,1c0,0.5-0.5,2.3-1.2,3.1c0.1,0.5,0.2,1.2,0.4,1.9c0.7,3.2,1.6,7.1,0.2,8.9C25.8,35.2,25.2,35.7,24.1,35.7z
					"/>
			</g>
			<g>
				<path class="st14" d="M24.5,23.6c0.3,2.6,3.5,11.5-0.6,11.1c-2.9-0.3-1.3-10-1-11.7c0,0-0.1,0-0.1,0s-0.3-1.3-0.4-1.8
					c-0.1-0.5-0.8-2-0.5-2.1c0.4-0.2,0.7,0.1,0.8,0.2c0.1,0.1,0.2,0.6,0.2,0.6s0.3-0.5,0.5-0.6s0.2,0,0.2,0s-0.1-2.1,0.1-2.4
					c0.2-0.3,0.7-0.5,0.8-0.4c0.1,0.1,0,3.1,0,3.1s0.8,0.2,0.9,0.6c0.1,0.3,0.4,0.5,0.4,0.8c0,0.3-0.7,2.2-1,2.5L24.5,23.6z"/>
			</g>
		</g>
		<circle id="法輪_00000068652132757845077060000004343336184378212994_" class="st13" cx="24" cy="14.5" r="2"/>
		<g id="眉目_00000049933544700660646700000014701794895682507698_">
			<g id="眉_00000145753488845367241850000013083013742227715994_">
				<path id="眉_00000087405294997117405170000014297422843116582301_" class="st15" d="M13.5,13c-0.9-1.1-2.4-1-3.3,0
					C10.8,11.7,12.9,11.6,13.5,13L13.5,13z"/>
				<path id="眉_00000149380263929833953100000013877984321463561346_" class="st15" d="M14.5,13c0.6-1.4,2.7-1.3,3.3,0
					C16.9,12,15.3,11.9,14.5,13L14.5,13z"/>
			</g>
			<g id="目_00000052069411281125244900000003111028067751422640_">
				<path class="st15" d="M10.5,13.9c0,0,0.4-1.1,1.2-1.1c0.8,0,1.5,1.1,1.5,1.1s-0.7,0.7-1.3,0.7C11.3,14.7,10.5,13.9,10.5,13.9z"/>
				<path class="st15" d="M17.5,13.9c0,0-0.4-1.1-1.2-1.1s-1.5,1.1-1.5,1.1s0.7,0.7,1.3,0.7C16.7,14.7,17.5,13.9,17.5,13.9z"/>
			</g>
		</g>
	</g>
	<g>
		<path class="st18" d="M27.1,26.6l-7.5,7.5c-1.2,1.2-3.1,1.2-4.2,0l-7.5-7.5c-1.2-1.2-1.2-3.1,0-4.2l7.5-7.5c1.2-1.2,3.1-1.2,4.2,0
			l7.5,7.5C28.3,23.5,28.3,25.5,27.1,26.6z"/>
		<g>
			<path class="st19" d="M12.7,29.4l-0.2-0.2c-0.5-0.5-0.5-1.3,0-1.8l7.9-7.9c0.5-0.5,1.3-0.5,1.8,0l0.2,0.2c0.5,0.5,0.5,1.3,0,1.8
				l-7.9,7.9C14,29.9,13.2,29.9,12.7,29.4z"/>
			<path class="st19" d="M20.5,29.4l-7.9-7.9c-0.5-0.5-0.5-1.3,0-1.8l0.2-0.2c0.5-0.5,1.3-0.5,1.8,0l7.9,7.9c0.5,0.5,0.5,1.3,0,1.8
				l-0.2,0.2C21.8,29.9,21,29.9,20.5,29.4z"/>
		</g>
	</g>
</g>
</svg>