<?xml version="1.0" encoding="UTF-8"?>
<svg xmlns="http://www.w3.org/2000/svg" viewBox="0 0 28 40">
  <defs>
    <style>
      .cls-1, .cls-2 {
        fill: #fff;
      }

      .cls-2 {
        opacity: .3;
      }

      .cls-3 {
        fill: #8c691b;
      }

      .cls-4 {
        fill: #e6b422;
      }

      .cls-5 {
        fill: gray;
      }

      .cls-6 {
        fill: #ffce00;
      }

      .cls-7 {
        fill: #ccc;
      }
    </style>
  </defs>
  <g id="_ピン" data-name="ピン">
    <g id="_ピン-2" data-name="ピン">
      <rect class="cls-5" x="12" y="20" width="4" height="10"/>
      <polygon class="cls-5" points="15 40 13 40 12 30 16 30 15 40"/>
      <rect class="cls-7" x="14" y="20" width="1" height="20"/>
    </g>
  </g>
  <g id="_カラー" data-name="カラー">
    <path id="_胴" data-name="胴" class="cls-4" d="M22.8,23.1c0-4.71-3.94-8.53-8.8-8.53s-8.8,3.82-8.8,8.53c0,.01,0,.03,0,.04h0v11.86H22.8v-11.86h0s0-.03,0-.04Z"/>
    <path id="_右耳" data-name="右耳" class="cls-4" d="M9.29,7.95c-.23-.69-1.06-1.11-1.59-.34-.35,.52,.11,1.37,.13,1.55s-.38,1.55,.21,2.06c.52,.44,1.17,0,1.17,0,0,0,.27-1.51,.25-2.16s-.18-1.1-.18-1.1Z"/>
    <path id="_左耳" data-name="左耳" class="cls-4" d="M18.71,7.95c.23-.69,1.06-1.11,1.59-.34,.35,.52-.11,1.37-.13,1.55s.38,1.55-.21,2.06c-.52,.44-1.17,0-1.17,0,0,0-.27-1.51-.25-2.16s.18-1.1,.18-1.1Z"/>
    <ellipse id="_顔" data-name="顔" class="cls-4" cx="14.08" cy="8.97" rx="5.21" ry="5.6"/>
    <g id="_眉目" data-name="眉目">
      <g id="_眉" data-name="眉">
        <path id="_眉-2" data-name="眉" class="cls-3" d="M13.48,7.94c-.96-1.22-2.7-1.12-3.7,0,.69-1.43,3.04-1.53,3.7,0h0Z"/>
        <path id="_眉-3" data-name="眉" class="cls-3" d="M14.52,7.94c.66-1.53,3-1.43,3.7,0-1-1.12-2.73-1.22-3.7,0h0Z"/>
      </g>
      <g id="_目" data-name="目">
        <path class="cls-3" d="M10.15,9s.44-1.25,1.32-1.19,1.68,1.19,1.68,1.19c0,0-.8,.8-1.5,.8s-1.5-.8-1.5-.8Z"/>
        <path class="cls-3" d="M17.85,9s-.44-1.25-1.32-1.19-1.68,1.19-1.68,1.19c0,0,.8,.8,1.5,.8s1.5-.8,1.5-.8Z"/>
      </g>
    </g>
    <path id="_髪" data-name="髪" class="cls-3" d="M9.19,8.37s.24-2.43,1.07-2.9c1.04-.59,2.67-.16,3.82-.14s2.76-.51,3.48-.15,1.72,3.2,1.72,3.2v-3.27s-.29-1.58-.81-1.74-.89-.68-.89-.68c0,0-.15-1.55-1.03-2.14S15.45,.02,14.08,.02s-1.81-.07-2.62,.66-.89,1.92-.89,1.92c0,0-1.18,.74-1.7,1.59s.31,4.18,.31,4.18Z"/>
    <g id="_手" data-name="手">
      <path class="cls-1" d="M25.51,35.15c-.16,0-.33-.01-.5-.04l-.39-.15-.31-.18c-.21-.18-.6-.46-.94-.58-1.57-.57-1.61-5.31-1.29-7.6,.24-1.39,1.03-1.97,1.65-2.2,.3-.12,.63-.18,.98-.18,.54,0,1.1,.14,1.63,.41,1.27,.64,1.82,2.05,1.65,4.19l-.04,.51c-.06,.82-.13,1.83-.63,2.4l-.39,.44,.2,.55c.14,.4,.17,.53,.18,.6,.13,.75-.25,1.42-.96,1.69-.14,.05-.29,.09-.46,.12-.12,.02-.24,.02-.36,.02Z"/>
      <path class="cls-4" d="M25.76,28.1c-.03-.22-.06-.44-.12-.66-.45,.92-.44,2.1,.06,3,.08-.46,.12-.9,.12-1.34l.98,.04c-.08,1.1-.12,1.94-.67,2.08-.62,.16-.73,.28-.73,.28,0,0,.7,1.62,.76,1.98,.05,.27,.06,.43-.12,.5-.29,.11-.85-.62-.85-.62,0,0,.13,.62-.16,.66-.37,.06-.92-1.1-.92-1.1,0,0-.02,.51-.29,.55-.11,.02-.22-.14-.27-.17-.56-.42-.96-4.62-.64-6.52,.3-1.77,1.78-1.8,2.82-1.27,.97,.49,1.14,1.67,1.13,2.62l-1.1-.04Z"/>
    </g>
    <g id="_手-2" data-name="手">
      <path class="cls-1" d="M4.27,26.09c-.54,0-1.57-.19-2.34-1.48-.75-1.27-2.46-5.86-1.78-7.26,.18-.42,.45-.68,.81-.78,.21-.55,.54-.87,1-.96l.1-.02h.15s.07,0,.1,0c.24-.21,.51-.32,.82-.32,.47,0,1.08,.21,1.28,1.23,.05,.24,.06,.76,.05,1.32,1.01,.11,1.48,1.11,1.98,2.17l.47,1.03c.67,1.68,.58,2.99-.28,3.94-.66,.73-1.52,1.16-2.35,1.16Z"/>
      <path class="cls-4" d="M5,21.91c.05,.21,.1,.43,.13,.66-.75-.7-1.16-1.8-1.03-2.82,.24,.4,.43,.8,.59,1.2l.9-.39c-.47-1-.81-1.76-1.37-1.7-.64,.07-.78,0-.78,0,0,0,.07-1.77,0-2.12-.05-.26-.1-.42-.3-.42-.31,0-.57,.89-.57,.89,0,0-.1-.62-.38-.56-.37,.08-.47,1.36-.47,1.36,0,0-.2-.47-.47-.41-.11,.03-.16,.21-.19,.25-.37,.6,.76,4.65,1.74,6.31,.92,1.55,2.31,1.04,3.09,.17,.73-.81,.46-1.97,.11-2.85l-1.01,.43Z"/>
    </g>
  </g>
  <g id="_要調査" data-name="要調査">
    <path class="cls-2" d="M8.4,0h9.38c5.64,0,10.22,4.58,10.22,10.22v24.78H2.79c-1.54,0-2.79-1.25-2.79-2.79V8.4C0,3.76,3.76,0,8.4,0Z"/>
    <g>
      <rect class="cls-6" x="9.19" y="15.91" width="16.61" height="16.61" rx="3" ry="3" transform="translate(-12 19.47) rotate(-45)"/>
      <path d="M18.75,28.55c0,.7-.56,1.26-1.25,1.26s-1.25-.56-1.25-1.26,.56-1.25,1.25-1.25,1.25,.56,1.25,1.25Zm-.57-2.88c-.07,.46-.16,.78-.69,.78s-.61-.35-.66-.78l-.46-3.49v-2.5c0-.78,.42-1.05,1.16-1.05s1.11,.31,1.11,1.05v2.5l-.46,3.49Z"/>
    </g>
  </g>
</svg>