<?xml version="1.0" encoding="utf-8"?>
<!-- Generator: Adobe Illustrator 27.1.1, SVG Export Plug-In . SVG Version: 6.00 Build 0)  -->
<svg version="1.1" xmlns="http://www.w3.org/2000/svg" xmlns:xlink="http://www.w3.org/1999/xlink" x="0px" y="0px" viewBox="0 0 28 40" style="enable-background:new 0 0 28 40;" xml:space="preserve">
<style type="text/css">
	.st0{display:none;}
	.st1{fill:#808080;}
	.st2{fill:#CCCCCC;}
	.st3{fill:#E6B422;}
	.st4{fill:#8C691B;}
	.st5{fill:#FFFFFF;}
	.st6{fill:#1B1464;}
	.st7{fill:#2E3192;}
	.st8{opacity:0.3;fill:#FFFFFF;}
	.st9{fill:#FFCE00;}
	.st10{fill:#B3B3B3;}
	.st11{fill:#6B6B6B;}
	.st12{fill:#FF0000;}
	.st13{fill:#F2F2F2;}
</style>
<g id="ガイド_00000106108473809149214560000000359391181578257081_" class="st0">
</g>
<g id="ピン_00000049199133351194582150000018429035711285311886_">
	<g id="ピン">
		<rect x="12" y="20" class="st1" width="4" height="10"/>
		<polygon class="st1" points="15,40 13,40 12,30 16,30 		"/>
		<rect x="14" y="20" class="st2" width="1" height="20"/>
	</g>
</g>
<g id="ノーマル">
	<path id="胴_00000106126689990679698960000017638745134668276359_" class="st3" d="M22.8,23.1c0-4.7-3.9-8.5-8.8-8.5
		s-8.8,3.8-8.8,8.5c0,0,0,0,0,0h0V35h17.6V23.1L22.8,23.1C22.8,23.1,22.8,23.1,22.8,23.1z"/>
	<path id="右耳" class="st3" d="M9.3,7.9C9.1,7.3,8.2,6.8,7.7,7.6C7.4,8.1,7.8,9,7.8,9.2S7.5,10.7,8,11.2c0.5,0.4,1.2,0,1.2,0
		s0.3-1.5,0.3-2.2C9.5,8.4,9.3,7.9,9.3,7.9z"/>
	<path id="左耳" class="st3" d="M18.7,7.9c0.2-0.7,1.1-1.1,1.6-0.3c0.3,0.5-0.1,1.4-0.1,1.5c0,0.2,0.4,1.6-0.2,2.1
		c-0.5,0.4-1.2,0-1.2,0s-0.3-1.5-0.3-2.2C18.5,8.4,18.7,7.9,18.7,7.9z"/>
	<ellipse id="顔_00000158729306056619698010000004512639797464009357_" class="st3" cx="14.1" cy="9" rx="5.2" ry="5.6"/>
	<g id="眉目">
		<g id="眉_00000059278337859623208290000009714789687849173923_">
			<path id="眉" class="st4" d="M13.5,7.9c-1-1.2-2.7-1.1-3.7,0C10.5,6.5,12.8,6.4,13.5,7.9L13.5,7.9z"/>
			<path id="眉_00000123423311807163890540000007598090301004616122_" class="st4" d="M14.5,7.9c0.7-1.5,3-1.4,3.7,0
				C17.2,6.8,15.5,6.7,14.5,7.9L14.5,7.9z"/>
		</g>
		<g id="目">
			<path class="st4" d="M10.1,9c0,0,0.4-1.2,1.3-1.2C12.4,7.9,13.1,9,13.1,9s-0.8,0.8-1.5,0.8S10.1,9,10.1,9z"/>
			<path class="st4" d="M17.9,9c0,0-0.4-1.2-1.3-1.2C15.6,7.9,14.9,9,14.9,9s0.8,0.8,1.5,0.8C17.1,9.8,17.9,9,17.9,9z"/>
		</g>
	</g>
	<path id="髪" class="st4" d="M9.2,8.4c0,0,0.2-2.4,1.1-2.9c1-0.6,2.7-0.2,3.8-0.1c1.1,0,2.8-0.5,3.5-0.2c0.7,0.4,1.7,3.2,1.7,3.2
		V5.1c0,0-0.3-1.6-0.8-1.7c-0.5-0.2-0.9-0.7-0.9-0.7s-0.1-1.6-1-2.1C15.7-0.1,15.4,0,14.1,0s-1.8-0.1-2.6,0.7
		c-0.8,0.7-0.9,1.9-0.9,1.9S9.4,3.3,8.9,4.2S9.2,8.4,9.2,8.4z"/>
	<g id="手_00000142857222606553033690000012390970674777086877_">
		<g>
			<path class="st5" d="M25.5,35.1c-0.2,0-0.3,0-0.5,0L24.6,35l-0.3-0.2c-0.2-0.2-0.6-0.5-0.9-0.6c-1.6-0.6-1.6-5.3-1.3-7.6
				c0.2-1.4,1-2,1.6-2.2c0.3-0.1,0.6-0.2,1-0.2c0.5,0,1.1,0.1,1.6,0.4c1.3,0.6,1.8,2.1,1.6,4.2l0,0.5c-0.1,0.8-0.1,1.8-0.6,2.4
				l-0.4,0.4l0.2,0.6c0.1,0.4,0.2,0.5,0.2,0.6c0.1,0.8-0.3,1.4-1,1.7c-0.1,0.1-0.3,0.1-0.5,0.1C25.8,35.1,25.6,35.1,25.5,35.1z"/>
		</g>
		<g>
			<path class="st3" d="M25.8,28.1c0-0.2-0.1-0.4-0.1-0.7c-0.5,0.9-0.4,2.1,0.1,3c0.1-0.5,0.1-0.9,0.1-1.3l1,0
				c-0.1,1.1-0.1,1.9-0.7,2.1c-0.6,0.2-0.7,0.3-0.7,0.3s0.7,1.6,0.8,2c0,0.3,0.1,0.4-0.1,0.5c-0.3,0.1-0.9-0.6-0.9-0.6
				S25.3,34,25,34c-0.4,0.1-0.9-1.1-0.9-1.1s0,0.5-0.3,0.5c-0.1,0-0.2-0.1-0.3-0.2c-0.6-0.4-1-4.6-0.6-6.5c0.3-1.8,1.8-1.8,2.8-1.3
				c1,0.5,1.1,1.7,1.1,2.6L25.8,28.1z"/>
		</g>
	</g>
	<g id="手">
		<g>
			<path class="st5" d="M4.3,26.1c-0.5,0-1.6-0.2-2.3-1.5c-0.8-1.3-2.5-5.9-1.8-7.3c0.2-0.4,0.5-0.7,0.8-0.8c0.2-0.5,0.5-0.9,1-1
				l0.1,0l0.1,0c0,0,0.1,0,0.1,0c0.2-0.2,0.5-0.3,0.8-0.3c0.5,0,1.1,0.2,1.3,1.2c0,0.2,0.1,0.8,0,1.3c1,0.1,1.5,1.1,2,2.2l0.5,1
				c0.7,1.7,0.6,3-0.3,3.9C6,25.7,5.1,26.1,4.3,26.1z"/>
		</g>
		<g>
			<path class="st3" d="M5,21.9c0.1,0.2,0.1,0.4,0.1,0.7c-0.8-0.7-1.2-1.8-1-2.8c0.2,0.4,0.4,0.8,0.6,1.2l0.9-0.4
				c-0.5-1-0.8-1.8-1.4-1.7c-0.6,0.1-0.8,0-0.8,0s0.1-1.8,0-2.1c-0.1-0.3-0.1-0.4-0.3-0.4c-0.3,0-0.6,0.9-0.6,0.9s-0.1-0.6-0.4-0.6
				C1.8,16.7,1.7,18,1.7,18s-0.2-0.5-0.5-0.4c-0.1,0-0.2,0.2-0.2,0.3c-0.4,0.6,0.8,4.7,1.7,6.3c0.9,1.5,2.3,1,3.1,0.2
				c0.7-0.8,0.5-2,0.1-2.9L5,21.9z"/>
		</g>
	</g>
</g>

<g id="要調査">
	<path class="st8" d="M28,35H2.8C1.2,35,0,33.8,0,32.2V8.4C0,3.8,3.8,0,8.4,0h9.4C23.4,0,28,4.6,28,10.2V35z"/>
	<g>
		<path class="st9" d="M27.1,26.6l-7.5,7.5c-1.2,1.2-3.1,1.2-4.2,0l-7.5-7.5c-1.2-1.2-1.2-3.1,0-4.2l7.5-7.5c1.2-1.2,3.1-1.2,4.2,0
			l7.5,7.5C28.3,23.5,28.3,25.5,27.1,26.6z"/>
		<g>
			<path d="M18.7,28.8c0,0.7-0.6,1.3-1.2,1.3s-1.3-0.6-1.3-1.3c0-0.7,0.6-1.2,1.3-1.2S18.7,28.1,18.7,28.8z M18.2,26
				c-0.1,0.5-0.2,0.8-0.7,0.8c-0.5,0-0.6-0.4-0.7-0.8l-0.5-3.5V20c0-0.8,0.4-1.1,1.2-1.1c0.7,0,1.1,0.3,1.1,1.1v2.5L18.2,26z"/>
		</g>
	</g>
</g>

</svg>