<?xml version="1.0" encoding="utf-8"?>
<!-- Generator: Adobe Illustrator 27.1.1, SVG Export Plug-In . SVG Version: 6.00 Build 0)  -->
<svg version="1.1" xmlns="http://www.w3.org/2000/svg" xmlns:xlink="http://www.w3.org/1999/xlink" x="0px" y="0px" viewBox="0 0 28 40" style="enable-background:new 0 0 28 40;" xml:space="preserve">
<style type="text/css">
	.st0{display:none;}
	.st1{fill:#808080;}
	.st2{fill:#CCCCCC;}
	.st3{fill:#666666;}
	.st4{fill:#999999;}
	.st5{fill:#39B54A;}
	.st6{fill:#A96E2D;}
	.st7{fill:#1B1464;}
	.st8{fill:#FFFFFF;}
	.st9{fill:#2E3192;}
	.st10{opacity:0.3;fill:#FFFFFF;}
	.st11{fill:#FFCE00;}
	.st12{fill:#848484;}
	.st13{fill:#797979;}
	.st14{fill:#FF0000;}
	.st15{fill:#F2F2F2;}
</style>
<g id="ガイド_00000162338702563158607440000009963323815856875396_" class="st0">
</g>
<g id="ピン">
	<g>
		<g>
			<polygon class="st1" points="15,40 13,40 12,30 16,30 			"/>
			<rect x="14" y="30" class="st2" width="1" height="10"/>
		</g>
		<g>
			<rect x="12" y="20" class="st1" width="4" height="10"/>
			<rect x="14" y="20" class="st2" width="1" height="10"/>
		</g>
	</g>
</g>
<g id="ノーマル">
	<rect id="土台" x="4" y="25" class="st3" width="20" height="3"/>
	<path id="石" class="st4" d="M14.7,0c2.5,0.1,2.5,4.9,3.5,6.9s4,5.8,4,8.7s-2,9.6-6,9.6s-7,0-8-1.9s-2-7.7-2-9.6s-1-3.8,0-5.8
		s2-2.9,3-3.9S12.2-0.1,14.7,0z"/>
	<g id="大神">
		<path d="M12.5,7C12.5,7,12.5,6.9,12.5,7C12.5,6.9,12.5,6.9,12.5,7c0-0.1,0-0.2,0.1-0.2c0-0.1,0.1-0.2,0.2-0.3c0,0,0.1,0,0.2,0
			c0.1,0,0.3,0.1,0.4,0.2c0,0,0.1,0,0.1,0.1c0.1,0,0.1,0,0.2,0.2c0,0.1,0.1,0.2,0.1,0.4c0,0.1,0,0.2-0.1,0.3c0,0.1,0,0.4,0,0.6v0.1
			l0,0c0,0,0.1,0,0.1,0c0.1,0,0.2-0.1,0.6-0.2c0.1,0,0.3-0.1,0.3-0.1c0,0,0,0,0.1,0s0.1,0,0.1,0c0.2,0.1,0.7,0.2,0.7,0.3
			c0,0,0,0,0.1,0c0,0,0.1,0,0.1,0.1c0,0.1,0,0.1,0,0.1c0,0,0,0,0,0.1c0,0.1-0.1,0.1-0.5,0.1c-0.1,0-0.2,0-0.4,0
			c-0.2,0-0.7,0.1-1,0.1c-0.2,0-0.2,0.1-0.2,0.1c0,0,0,0.1,0,0.1v0c0,0.1,0,0.2,0.2,0.2c0.1,0,0.4,0.2,0.5,0.3
			c0.1,0,0.2,0.1,0.2,0.2c0.1,0,0.2,0.2,0.3,0.2c0,0,0.1,0.1,0.1,0.1c0,0,0,0.1,0.1,0.1c0.4,0.3,0.5,0.4,1,0.7
			c0.3,0.2,0.4,0.2,0.7,0.4c0.3,0.1,0.5,0.2,0.6,0.3c0.1,0.1,0.2,0.2,0.2,0.2c0,0,0.1,0.2,0.1,0.3c0,0,0,0.1,0,0.1c0,0,0,0,0,0.1
			c0,0.1-0.1,0.1-0.2,0.1c-0.2,0-0.2,0-0.3-0.1c-0.1-0.1-0.3-0.1-0.4-0.2c-0.2-0.1-0.8-0.5-1.1-0.7c0,0-0.1-0.1-0.2-0.2l0,0
			c0,0-0.2-0.2-0.4-0.4c-0.4-0.5-1.1-1.2-1.3-1.3c0,0-0.1,0-0.1,0s0,0,0,0c0,0,0,0.1,0,0.1s0,0.1,0,0.1c0,0,0,0,0,0.1
			c0,0,0,0.1,0,0.2c0,0.1-0.2,0.7-0.2,0.9c0,0-0.1,0.1-0.1,0.1c0,0-0.1,0.1-0.1,0.1c-0.1,0.2-0.5,0.5-0.9,0.7
			c-0.2,0.1-0.4,0.2-0.4,0.2v0c-0.1,0-0.2,0-0.5,0c-0.1,0-0.2,0-0.2,0c0,0,0,0-0.1,0c0,0-0.1,0-0.2-0.1c-0.1,0-0.2,0-0.2-0.1
			c0,0,0,0-0.1,0c0,0,0,0-0.1,0c0,0,0,0,0,0c0,0,0,0,0,0c0,0,0,0,0.1-0.1c0.1-0.1,0.5-0.2,0.7-0.2c0.1,0,0.3-0.1,0.5-0.1
			c0.5-0.2,1.1-0.7,1.2-1.2c0-0.1,0-0.1,0-0.1c0,0,0-0.1,0-0.2c0-0.1,0-0.2,0-0.2c0,0,0-0.1,0-0.2c0-0.1,0-0.2,0-0.3v0c0,0,0,0,0,0
			c0,0-0.1,0-0.2,0.1c-0.2,0.1-0.6,0.2-0.7,0.3l-0.2,0h0c-0.1,0-0.2-0.1-0.2-0.2c0-0.1,0.1-0.2,0.8-0.5l0.6-0.3l0-0.2
			c0-0.1,0-0.3,0-0.5V7.6c0-0.1,0-0.2-0.1-0.2c0,0-0.1-0.1-0.1-0.1c0,0,0-0.1-0.1-0.1c0,0-0.1-0.1-0.2-0.2C12.5,7,12.5,7,12.5,7z"/>
		<path d="M12.1,15c0,0,0-0.1-0.1-0.1c-0.1,0-0.1-0.1-0.1-0.1c0,0,0-0.1,0-0.1c0-0.1,0-0.2,0.1-0.2c0,0,0.1,0,0.1,0
			c0.1,0,0.3,0.1,0.5,0.2c0.1,0.1,0.1,0.2,0.1,0.3c0,0,0,0.1-0.1,0.2s-0.1,0.2-0.2,0.3c-0.1,0.1-0.2,0.2-0.2,0.3s-0.1,0.2-0.1,0.2
			c0,0,0,0,0,0l0,0c0,0.1-0.3,0.5-0.4,0.5c-0.1,0.1-0.1,0.2-0.2,0.3v0c0,0,0,0,0,0c0,0,0.1,0,0.2-0.2c0.1-0.1,0.3-0.2,0.3-0.2
			s0,0,0.1,0c0,0,0,0,0.1,0c0,0,0,0,0,0l0,0h0c0,0,0,0,0,0c0,0,0.1,0,0.1,0c0.2,0,0.2,0.1,0.2,0.3v0.1c0,0.1,0,0.3,0,0.3
			s0,0.2,0,0.4l0,0.3l0.3-0.2c0.1-0.1,0.3-0.3,0.4-0.4c0.1-0.1,0.2-0.2,0.2-0.2c0,0,0,0,0,0c0,0,0,0.1-0.1,0.3
			c-0.1,0.1-0.1,0.3-0.1,0.3c0,0,0,0.1-0.1,0.1c-0.1,0.1-0.4,0.5-0.6,0.8c-0.3,0.3-0.3,0.5-0.3,1v0.1c0,0.3,0,0.4,0.1,0.5
			c0,0.1,0.1,0.2,0.1,0.3c0,0,0,0.1,0,0.1c0,0-0.1,0-0.1,0c-0.1,0-0.1,0-0.2-0.1c-0.1-0.1-0.2-0.2-0.2-0.2c0,0,0,0,0,0v0
			c0,0,0,0,0,0v0c0,0,0,0,0,0c0,0,0-0.1,0-0.2c0-0.1,0-0.2-0.1-0.4c0,0,0-0.1,0-0.1l0-0.1l-0.1,0.1c-0.1,0.1-0.2,0.2-0.2,0.2
			c-0.1,0.1-0.3,0.2-0.3,0.3c0,0,0,0-0.1,0.1c0,0-0.1,0-0.1,0c-0.1,0-0.1,0-0.2-0.1c-0.1-0.1-0.2-0.4-0.2-0.5c0-0.1,0.1-0.2,0.1-0.2
			c0.1,0,0.3-0.2,0.4-0.4c0.2-0.2,0.4-0.6,0.5-0.8c0,0,0-0.1,0.1-0.1c0,0,0.1-0.1,0.1-0.2c0.1-0.2,0.2-0.4,0.2-0.5v-0.1c0,0,0,0,0,0
			c0,0,0,0-0.1,0c0,0,0,0-0.1,0.1c0,0-0.1,0.1-0.1,0.1c-0.1,0.1-0.2,0.2-0.3,0.2c-0.1,0.1-0.2,0.2-0.2,0.2c-0.1,0.1-0.1,0.1-0.2,0.1
			c-0.1,0-0.2-0.1-0.2-0.2c0-0.1,0-0.1,0-0.2c0,0,0-0.1,0-0.1c0,0,0,0,0-0.1s0.1-0.1,0.1-0.3c0-0.1,0.1-0.2,0.1-0.2
			c0,0,0.1-0.1,0.1-0.1c0-0.1,0.1-0.2,0.2-0.3C11.6,15.9,12.1,15.1,12.1,15L12.1,15z M14.9,14c0-0.1,0.1-0.1,0.1-0.1
			c0,0,0.1,0,0.1,0c0,0,0.1,0,0.2,0.1c0.1,0.1,0.1,0.1,0.2,0.2l0.1,0.2v0.8c0,0.3,0,0.3,0.1,0.3c0,0,0.1,0,0.1,0c0,0,0,0,0,0l0,0
			c0.2,0,0.3-0.1,0.4-0.1c0.1,0,0.2,0,0.2,0c0.2,0,0.4,0.2,0.4,0.3c0,0.1,0,0.1,0,0.2c0,0,0,0.1,0,0.2c0,0.3-0.1,0.7-0.1,0.9
			c0,0,0,0.1,0,0.1c0,0,0,0,0,0c0,0,0,0.1-0.1,0.2c0,0.1-0.1,0.2-0.1,0.2c-0.1,0.3-0.4,0.8-0.6,1c-0.1,0.1-0.1,0.1-0.3,0.1
			c-0.2,0-0.2,0-0.2,0.1c0,0,0,0.1,0,0.2c0,0.2,0,0.4,0,0.7c0,0.1,0,0.2,0,0.3c0,0.1,0,0.3,0,0.4c0,0.1,0,0.4,0,0.7
			c0,0.1,0,0.1,0,0.2c0,0.1,0,0.2,0,0.2c0,0.2,0,0.2-0.1,0.2h0c0,0-0.1,0-0.1,0c0,0,0,0,0,0c-0.1,0-0.1-0.1-0.2-0.3L15,20.9l0-0.1
			c0-0.1,0-0.1,0-0.2v-0.1c0,0,0,0,0-0.1c0-0.4,0-0.7,0-0.9c0-0.1,0-0.3,0-0.4c0-0.2,0-0.4,0-0.4v-0.2c0,0,0,0-0.1,0.1c0,0,0,0,0,0
			c0,0-0.1,0.1-0.1,0.1c0,0-0.4,0.5-0.5,0.5h0c-0.1,0-0.1-0.1-0.2-0.1c0,0,0,0,0-0.1c0,0,0,0,0-0.1c0-0.1,0-0.1,0-0.2
			c0,0,0-0.1,0.1-0.1c0,0,0.1-0.1,0.1-0.1s0-0.1-0.1-0.1c-0.1-0.1-0.2-0.4-0.2-0.8c0-0.1-0.1-0.5-0.2-0.6c0-0.1-0.1-0.2-0.1-0.3
			c-0.1-0.2-0.1-0.3-0.1-0.5v-0.1c0-0.2,0.1-0.4,0.2-0.5c0,0,0,0,0,0s0.1,0,0.1,0.1c0.1,0.1,0.1,0.1,0.1,0.2c0,0,0,0.1,0,0.1
			c0,0.1-0.1,0.1-0.1,0.2c0,0.2,0.1,0.4,0.2,0.5c0.1,0.1,0.3,0.6,0.3,0.7c0,0,0,0,0,0c0,0,0,0,0,0.1v0c0,0,0,0.1,0,0.1
			c0,0,0,0.1,0,0.1c0,0.1,0,0.1,0,0.2l0,0.1l0-0.1c0,0,0.1-0.2,0.3-0.5l0-0.1c0,0,0.1-0.1,0.1-0.2c0-0.1,0.1-0.1,0.1-0.2
			c0.1-0.1,0.1-0.3,0.1-0.3c0,0,0,0,0,0c0,0,0,0,0,0c0,0,0,0,0,0c0,0-0.2,0-0.3,0.1h0l0,0c-0.2,0-0.3,0.1-0.3,0.1c0,0-0.1,0-0.1-0.1
			v0h0l0,0c0,0-0.1-0.1-0.1-0.1l0,0c0,0,0,0,0,0s0,0,0,0c0,0,0,0,0,0h0l0,0c0,0,0,0,0,0c0,0,0.2-0.1,0.4-0.1c0.2,0,0.2,0,0.4-0.1
			c0.1,0,0.2,0,0.2,0c0,0,0-0.2,0-0.4c0-0.1,0-0.2,0-0.2s0,0-0.1,0c0,0,0,0-0.1,0l0,0c-0.1,0-0.1,0-0.1,0c-0.1,0-0.1,0-0.2-0.1
			c0,0,0-0.1,0-0.1s0,0,0,0c0,0,0,0,0.1,0c0,0,0,0,0.1,0s0.1,0,0.1,0c0,0,0,0,0,0l0,0c0,0,0.1,0,0.2,0l0.1,0v-1.1l-0.1-0.1
			c-0.1,0-0.1-0.1-0.1-0.1c0,0,0,0-0.1-0.1L14.9,14L14.9,14z M14.9,18c-0.1,0.1-0.1,0.2-0.1,0.3c0,0,0,0,0,0c0,0,0.1,0,0.2-0.1l0,0
			c0.2-0.2,0.2-0.2,0.2-0.3c0,0,0-0.1,0-0.1v-0.1h0C15.1,17.5,15,17.7,14.9,18z M16,17.3c0.2-0.3,0.4-0.8,0.4-0.9c0,0,0-0.1,0-0.1
			c0,0,0-0.1,0-0.1c0-0.1,0.1-0.6,0.1-0.7v0c0,0,0,0-0.1,0c-0.1,0-0.3,0-0.6,0.1h0l0,0l-0.1,0c0,0,0,0-0.1,0c0,0-0.1,0-0.1,0
			c0,0,0,0.3,0,0.6c0,0.2,0,0.3,0,0.4h0l0,0c0,0,0,0,0,0c0,0,0,0,0,0c0,0,0,0,0,0.1c0,0.1,0,0.2,0,0.3c0,0,0,0,0,0.1v0
			c0,0.1,0,0.1,0,0.2c0,0,0,0,0,0.1c0,0,0,0.1,0,0.1c0,0,0,0.1,0,0.1c0,0.1,0,0.1-0.1,0.2c0,0,0,0.1,0,0.1v0c0,0,0,0,0,0
			c0,0,0,0,0.1-0.1C15.8,17.7,15.9,17.5,16,17.3z"/>
	</g>
	<g id="地面_00000058565806623518336590000006914489109431071373_">
		<path id="草_00000050658507514173148250000014360179358624052912_" class="st5" d="M2.4,29c-0.4-1.3-0.5-2.2-1.3-3.5
			C2.8,25.4,3.5,27.9,2.4,29L2.4,29z"/>
		<path id="草_00000179627912085844586860000016558588140227868062_" class="st5" d="M26.6,29c-1.1-1.1-0.4-3.6,1.3-3.5
			C27.1,26.8,27,27.7,26.6,29L26.6,29z"/>
		<path id="草_00000151529837931384215080000007510860043949423779_" class="st5" d="M25.8,29.5c-1.2-2.3-0.6-6.1,2.1-7
			C26.2,24.6,26.2,27,25.8,29.5L25.8,29.5z"/>
		<rect id="地面_00000020394074477376840640000007005206060773015720_" y="28" class="st6" width="28" height="2"/>
	</g>
</g>



</svg>