<?xml version="1.0" encoding="UTF-8"?>
<svg xmlns="http://www.w3.org/2000/svg" viewBox="0 0 28 40">
  <defs>
    <style>
      .cls-1 {
        fill: #4d4d4d;
      }

      .cls-2 {
        fill: gray;
      }

      .cls-3 {
        fill: #999;
      }

      .cls-4 {
        fill: #ccc;
      }

      .cls-5 {
        fill: #b3b3b3;
      }

      .cls-6 {
        fill: #666;
      }

      .cls-7 {
        fill: #f2f2f2;
      }

      .cls-8 {
        fill: red;
      }
    </style>
  </defs>
  <g id="_ピン" data-name="ピン">
    <g>
      <g>
        <polygon class="cls-2" points="15 40 13 40 12 30 16 30 15 40"/>
        <rect class="cls-4" x="14" y="30" width="1" height="10"/>
      </g>
      <g>
        <rect class="cls-2" x="12" y="20" width="4" height="10"/>
        <rect class="cls-4" x="14" y="20" width="1" height="10"/>
      </g>
    </g>
  </g>
  <g id="_ノーマル" data-name="ノーマル">
    <g id="_扉" data-name="扉">
      <rect id="_扉-2" data-name="扉" class="cls-6" x="7" y="11" width="14" height="18"/>
      <rect class="cls-1" x="13.5" y="12" width="1" height="12"/>
    </g>
    <rect id="_階段" data-name="階段" class="cls-2" x="10" y="24" width="8" height="5"/>
    <polygon id="_柱" data-name="柱" class="cls-5" points="22.28 23.92 22.28 12 19.92 12 19.92 23.92 17.55 23.92 17.55 28.57 10.45 28.57 10.45 23.92 8.08 23.92 8.08 12 5.72 12 5.72 23.92 3.35 23.92 3.35 30.03 9.66 30.03 10.45 30.03 17.55 30.03 18.34 30.03 24.65 30.03 24.65 23.92 22.28 23.92"/>
    <rect id="_梁" data-name="梁" class="cls-2" x="3.94" y="9.86" width="20.11" height="2.37"/>
    <polygon id="_屋根" data-name="屋根" class="cls-3" points="22.48 0 5.52 0 0 9.86 28 9.86 22.48 0"/>
  </g>
  <g id="_消失" data-name="消失">
    <g>
      <g id="_扉-3" data-name="扉">
        <rect class="cls-6" x="7" y="11" width="14" height="18"/>
        <rect class="cls-1" x="13.5" y="12" width="1" height="12"/>
      </g>
      <rect id="_階段-2" data-name="階段" class="cls-2" x="10" y="24" width="8" height="5"/>
      <polygon id="_柱-2" data-name="柱" class="cls-5" points="22.28 23.92 22.28 12 19.92 12 19.92 23.92 17.55 23.92 17.55 28.57 10.45 28.57 10.45 23.92 8.08 23.92 8.08 12 5.72 12 5.72 23.92 3.35 23.92 3.35 30.03 9.66 30.03 10.45 30.03 17.55 30.03 18.34 30.03 24.65 30.03 24.65 23.92 22.28 23.92"/>
      <rect id="_梁-2" data-name="梁" class="cls-2" x="3.94" y="9.86" width="20.11" height="2.37"/>
      <polygon id="_屋根-2" data-name="屋根" class="cls-3" points="22.48 0 5.52 0 0 9.86 28 9.86 22.48 0"/>
    </g>
    <g>
      <rect class="cls-8" x="9.19" y="10.95" width="16.61" height="16.61" rx="3" ry="3" transform="translate(-8.49 18.01) rotate(-45)"/>
      <g>
        <rect class="cls-7" x="16.12" y="12.39" width="2.75" height="13.73" rx="1.26" ry="1.26" transform="translate(18.74 -6.73) rotate(45)"/>
        <rect class="cls-7" x="10.63" y="17.88" width="13.73" height="2.75" rx="1.26" ry="1.26" transform="translate(18.74 -6.73) rotate(45)"/>
      </g>
    </g>
  </g>
</svg>