<?xml version="1.0" encoding="UTF-8"?>
<svg xmlns="http://www.w3.org/2000/svg" viewBox="0 0 28 40">
  <defs>
    <style>
      .cls-1 {
        fill: #39b54a;
      }

      .cls-2 {
        fill: gray;
      }

      .cls-3 {
        fill: #a96e2d;
      }

      .cls-4 {
        fill: #999;
      }

      .cls-5 {
        fill: #ccc;
      }

      .cls-6 {
        fill: #666;
      }
    </style>
  </defs>
  <g id="_ピン" data-name="ピン">
    <g>
      <g>
        <polygon class="cls-2" points="15 40 13 40 12 30 16 30 15 40"/>
        <rect class="cls-5" x="14" y="30" width="1" height="10"/>
      </g>
      <g>
        <rect class="cls-2" x="12" y="20" width="4" height="10"/>
        <rect class="cls-5" x="14" y="20" width="1" height="10"/>
      </g>
    </g>
  </g>
  <g id="_ノーマル" data-name="ノーマル">
    <rect id="_土台" data-name="土台" class="cls-6" x="4" y="25" width="20" height="3"/>
    <path id="_石" data-name="石" class="cls-4" d="M14.72,0c2.5,.11,2.5,4.93,3.5,6.86s4,5.78,4,8.68-2,9.64-6,9.64-7,0-8-1.93-2-7.71-2-9.64-1-3.83,0-5.77,2-2.91,3-3.87S12.22-.11,14.72,0Z"/>
    <g id="_大神" data-name="大神">
      <path d="M12.51,6.96s0-.02,0-.03c.02-.02,.02-.03,.02-.05,0-.04,0-.07,.02-.12,.03-.12,.11-.25,.23-.3,.04-.02,.12-.02,.18-.02,.07,0,.3,.1,.45,.2,.04,.02,.07,.03,.11,.06,.08,.04,.09,.05,.16,.22,.05,.08,.07,.22,.07,.37,0,.12-.02,.23-.06,.31-.02,.08-.05,.43-.05,.58v.08h0s.06,0,.1-.02c.1-.05,.23-.09,.59-.18,.14-.03,.29-.09,.32-.1,.02-.02,.05-.02,.07-.02s.06,0,.12,.03c.19,.06,.72,.24,.74,.28,.02,.02,.04,.03,.06,.03,.02,0,.06,.05,.09,.11,.03,.06,.04,.09,.04,.12,0,.02,0,.04,0,.06-.04,.11-.12,.14-.49,.14-.1,0-.23,0-.39,0-.19,0-.7,.07-.98,.14-.22,.05-.24,.06-.25,.11,0,.03-.02,.06-.02,.07v.04c.02,.09,.05,.18,.18,.25,.07,.02,.38,.23,.49,.33,.06,.04,.15,.1,.23,.18,.06,.03,.23,.19,.28,.24,0,0,.08,.07,.12,.1,.02,.02,.05,.06,.07,.1,.38,.34,.49,.43,.99,.66,.27,.15,.43,.23,.74,.36,.31,.14,.46,.21,.62,.33,.07,.06,.18,.18,.23,.25,.04,.02,.09,.18,.09,.26,0,.03,0,.06-.02,.06-.02,.02-.02,.05-.02,.07,0,.06-.06,.1-.18,.1-.15-.02-.25-.04-.29-.06-.13-.06-.32-.13-.45-.17-.24-.1-.78-.46-1.09-.7-.03-.03-.11-.11-.18-.16l-.04-.04s-.22-.22-.42-.45c-.43-.48-1.11-1.15-1.29-1.27-.05-.04-.09-.05-.11-.05s-.03,0-.03,.04c0,.02-.02,.07-.04,.11s-.04,.1-.05,.13c0,.02-.02,.04-.02,.07,0,.02-.02,.07-.02,.16-.02,.14-.17,.73-.22,.86-.02,.05-.06,.1-.08,.12-.02,.02-.06,.08-.09,.13-.1,.18-.51,.52-.92,.73-.17,.08-.36,.16-.42,.16v-.02c-.09,0-.22,.02-.47,.05-.13,.02-.21,.02-.25,.02s-.05,0-.06-.02c-.02-.02-.1-.05-.19-.06-.1-.02-.18-.04-.2-.06,0,0-.03-.02-.07-.02-.02,0-.04,0-.06,0-.02,0-.04,0-.05,0-.02,0-.03,0-.03-.02,0-.02,.02-.04,.07-.08,.1-.06,.54-.22,.7-.23,.1-.02,.34-.09,.48-.14,.5-.18,1.06-.72,1.21-1.22,.02-.06,.04-.1,.05-.12,0-.02,.03-.1,.05-.19,0-.08,.02-.15,.04-.22,0-.02,0-.09,.05-.19,0-.08,.02-.23,.03-.26v-.03s0-.03-.02-.03c-.05,0-.1,.02-.19,.07-.25,.13-.6,.25-.74,.27l-.15,.02h-.05c-.11,0-.21-.1-.21-.22,0-.1,.13-.19,.8-.53l.64-.3v-.15c0-.12,.02-.32,.02-.5v-.17c0-.14,0-.15-.06-.17-.03-.02-.07-.06-.09-.1,0-.03-.05-.08-.1-.1-.05-.02-.14-.1-.22-.17-.08-.08-.11-.11-.11-.14Z"/>
      <path d="M12.12,14.96s-.02-.07-.09-.11c-.06-.04-.12-.1-.14-.14-.02-.03-.02-.06-.02-.1,0-.07,.03-.15,.09-.19,.04-.03,.09-.04,.14-.04,.14,0,.34,.09,.49,.23,.1,.1,.14,.17,.14,.26,0,.05-.03,.13-.07,.22s-.13,.22-.2,.29c-.06,.07-.18,.2-.24,.28s-.13,.16-.14,.18c0,0-.02,.03-.03,.05l-.02,.02c-.04,.07-.32,.48-.37,.54-.06,.07-.14,.23-.16,.32v.02s0,0,0,0c.02,0,.09-.05,.22-.17,.14-.11,.26-.22,.29-.25s.04-.04,.06-.04,.03,0,.06,.02c.02,0,.03,.02,.04,.02l.03,.02h0s.02,0,.05,0c.02,0,.06,0,.09,0,.18,.02,.22,.06,.22,.28v.06c0,.12,0,.26-.02,.33s-.02,.23-.03,.38l-.02,.27,.26-.22c.14-.13,.34-.31,.44-.41,.14-.14,.22-.22,.25-.22,0,0,0,0,0,.02,0,.02-.05,.14-.12,.27-.06,.13-.13,.26-.13,.26,0,.02-.02,.06-.06,.09-.1,.11-.43,.53-.64,.81-.26,.34-.31,.5-.31,.98v.1c0,.28,.02,.36,.07,.52,.04,.12,.06,.22,.06,.3,0,.05-.02,.1-.03,.11s-.06,.02-.1,.02c-.06,0-.1-.03-.22-.14-.07-.08-.16-.15-.18-.16-.02,0-.03-.02-.03-.03h0s0-.02,0-.02h0s0-.03,0-.04c-.02-.02-.03-.11-.04-.2-.02-.14-.03-.25-.06-.37,0-.02,0-.08,0-.13v-.09s-.14,.14-.14,.14c-.07,.08-.17,.17-.22,.2-.1,.06-.28,.24-.28,.27,0,.02-.03,.04-.06,.06-.02,.02-.06,.02-.09,.02-.06,0-.12-.02-.17-.07-.06-.06-.17-.38-.17-.47,0-.07,.06-.16,.11-.16s.26-.2,.42-.42c.18-.24,.44-.63,.54-.79,.02-.04,.04-.06,.07-.11,.03-.05,.06-.1,.09-.15,.14-.23,.22-.42,.23-.54v-.06s0-.05-.02-.05c0,0-.03,.02-.07,.05-.02,0-.05,.03-.08,.06-.04,.03-.1,.07-.14,.1-.09,.06-.22,.17-.29,.23-.06,.06-.17,.15-.23,.2-.07,.06-.14,.09-.19,.09-.09,0-.15-.07-.21-.22-.02-.06-.03-.13-.03-.18,0-.05,0-.08,.02-.09,.02,0,.02-.04,.02-.06s.06-.14,.14-.26c.05-.07,.1-.15,.14-.22,.03-.05,.06-.1,.07-.12,.04-.06,.13-.2,.19-.3,.27-.38,.76-1.23,.78-1.36h0Zm2.78-.96c.04-.06,.09-.11,.12-.14,.02-.02,.06-.04,.09-.04,.05,0,.12,.03,.23,.09,.12,.06,.14,.08,.21,.22l.08,.15v.81c0,.26,0,.33,.07,.33,.02,0,.06,0,.1-.02,0,0,.02,0,.03,0h.02c.18-.06,.32-.07,.45-.07,.08,0,.15,0,.23,.02,.2,.04,.36,.15,.42,.3,.03,.06,.05,.11,.05,.21,0,.05,0,.11,0,.21-.02,.34-.07,.7-.13,.88-.02,.04-.03,.1-.04,.14,0,.02,0,.03,0,.04,0,.02-.04,.11-.07,.18-.03,.07-.09,.2-.1,.25-.12,.34-.45,.84-.62,.98-.06,.06-.1,.06-.29,.06-.2,0-.21,0-.22,.06,0,.03-.02,.12-.02,.24,0,.18,0,.43,.02,.7,0,.07,0,.17,0,.26,0,.14,0,.27,.02,.36,0,.14,.02,.44,.03,.68,0,.06,0,.11,0,.16,0,.1,0,.18,0,.23,0,.16-.02,.17-.1,.18h0s-.08,.02-.1,.02c0,0-.02,0-.03,0-.06,0-.13-.09-.23-.3l-.12-.26,.04-.09c.02-.06,.04-.1,.04-.19v-.06s0-.05,0-.11c-.02-.42-.03-.7-.03-.94,0-.1,0-.26-.02-.41,0-.18-.02-.36-.02-.42v-.18s-.05,.05-.08,.09c-.02,.02-.03,.03-.04,.05-.03,.04-.06,.08-.06,.09,0,.04-.45,.53-.5,.54h-.02c-.06,0-.14-.06-.16-.11,0-.02-.02-.04-.03-.07-.02-.03-.02-.05-.03-.07-.03-.06-.04-.11-.04-.16s.02-.1,.06-.14c.03-.04,.06-.08,.06-.09s-.03-.07-.07-.13c-.06-.1-.16-.43-.24-.82-.03-.14-.14-.5-.18-.6-.02-.06-.08-.18-.12-.26-.1-.21-.13-.34-.13-.52v-.06c0-.18,.08-.41,.15-.51,0-.02,.02-.02,.03-.02s.06,.02,.14,.08c.1,.07,.14,.12,.14,.18,0,.03-.02,.07-.04,.12-.03,.06-.06,.14-.06,.24,0,.17,.06,.37,.15,.53,.06,.1,.26,.59,.29,.7,0,.02,.02,.03,.02,.05,0,.02,0,.04,0,.06v.03s.02,.07,.04,.09c0,.02,.02,.08,.03,.14,0,.06,.02,.14,.04,.18l.02,.06,.05-.06s.1-.15,.31-.54l.04-.08s.06-.11,.09-.17c.03-.06,.06-.11,.09-.16,.07-.13,.14-.26,.14-.29,0-.02,0-.03,0-.04,0-.02,0-.02-.02-.02t-.03,0s-.17,.04-.3,.06h-.03c-.18,.05-.3,.07-.34,.07-.05,0-.09-.03-.14-.08h0s0,0,0,0l-.02-.03s-.08-.1-.1-.11v-.02s-.02,0-.02-.02,0,0,0,0c0,0,.02,0,.02,0h.04s.02,0,.03,0c.04-.02,.17-.07,.37-.12,.18-.04,.23-.05,.45-.07,.07,0,.15-.02,.17-.04,.02-.02,.03-.23,.03-.41,0-.1,0-.2-.02-.22s-.02-.02-.06-.02c-.02,0-.04,0-.07,0h-.05c-.06,.02-.12,.02-.14,.02-.08,0-.13-.02-.19-.09-.03-.03-.05-.06-.05-.08s0-.03,.04-.03c.02,0,.03,0,.06,0,.02,0,.04,0,.06,0s.06,0,.07,0c0,0,.02,0,.02,0h.02s.1-.04,.15-.06l.14-.04v-1.14l-.1-.1c-.06-.05-.12-.09-.14-.09,0,0-.05-.03-.09-.07l-.07-.07,.06-.1Zm-.05,3.94c-.08,.14-.1,.22-.1,.26,0,0,0,.02,0,.02,.02,0,.07-.05,.15-.14h0c.15-.18,.18-.22,.19-.35,0-.05,0-.11,0-.14v-.06h0s-.12,.16-.26,.42Zm1.14-.61c.18-.34,.38-.76,.42-.94,0-.02,.02-.06,.02-.06,0-.03,.02-.06,.02-.09,.05-.12,.14-.58,.14-.66v-.02s-.05-.02-.1-.02c-.12,0-.34,.02-.55,.07h-.03s-.06,.02-.06,.02c0,0-.05,0-.07,.02-.05,0-.1,.02-.12,.04-.02,.02-.03,.3-.03,.55,0,.18,0,.34,.02,.35h.02s.02,0,.02,0c0-.02,.02-.03,.03-.03,.02,0,.02,.03,.02,.09,0,.06,0,.18,.02,.28,0,0,0,.02,0,.06v.05c0,.06-.02,.14-.03,.22,0,0,0,.05-.02,.07,0,.03-.02,.06-.02,.08,0,.04-.02,.07-.02,.1-.02,.06-.05,.14-.08,.2-.02,.05-.05,.1-.05,.14v.02s.02,.02,.02,.02c.02,0,.04-.02,.1-.08,.1-.11,.27-.34,.34-.45Z"/>
    </g>
    <g id="_地面" data-name="地面">
      <path id="_草" data-name="草" class="cls-1" d="M2.4,29c-.44-1.34-.51-2.22-1.31-3.5,1.67-.06,2.41,2.38,1.31,3.5h0Z"/>
      <path id="_草-2" data-name="草" class="cls-1" d="M26.58,29c-1.1-1.12-.36-3.56,1.31-3.5-.8,1.28-.87,2.16-1.31,3.5h0Z"/>
      <path id="_草-3" data-name="草" class="cls-1" d="M25.82,29.5c-1.16-2.29-.63-6.07,2.07-7-1.67,2.1-1.73,4.49-2.07,7h0Z"/>
      <rect id="_地面-2" data-name="地面" class="cls-3" y="28" width="28" height="2"/>
    </g>
  </g>
</svg>