<?xml version="1.0" encoding="UTF-8"?>
<svg xmlns="http://www.w3.org/2000/svg" viewBox="0 0 28 40">
  <defs>
    <style>
      .cls-1 {
        fill: #fff;
        opacity: .3;
      }

      .cls-2 {
        fill: #4d4d4d;
      }

      .cls-3 {
        fill: gray;
      }

      .cls-4 {
        fill: #ffce00;
      }

      .cls-5 {
        fill: #999;
      }

      .cls-6 {
        fill: #ccc;
      }

      .cls-7 {
        fill: #b3b3b3;
      }

      .cls-8 {
        fill: #666;
      }
    </style>
  </defs>
  <g id="_ピン" data-name="ピン">
    <g>
      <g>
        <polygon class="cls-3" points="15 40 13 40 12 30 16 30 15 40"/>
        <rect class="cls-6" x="14" y="30" width="1" height="10"/>
      </g>
      <g>
        <rect class="cls-3" x="12" y="20" width="4" height="10"/>
        <rect class="cls-6" x="14" y="20" width="1" height="10"/>
      </g>
    </g>
  </g>
  <g id="_ノーマル" data-name="ノーマル">
    <g id="_扉" data-name="扉">
      <rect id="_扉-2" data-name="扉" class="cls-8" x="7" y="11" width="14" height="18"/>
      <rect class="cls-2" x="13.5" y="12" width="1" height="12"/>
    </g>
    <rect id="_階段" data-name="階段" class="cls-3" x="10" y="24" width="8" height="5"/>
    <polygon id="_柱" data-name="柱" class="cls-7" points="22.28 23.92 22.28 12 19.92 12 19.92 23.92 17.55 23.92 17.55 28.57 10.45 28.57 10.45 23.92 8.08 23.92 8.08 12 5.72 12 5.72 23.92 3.35 23.92 3.35 30.03 9.66 30.03 10.45 30.03 17.55 30.03 18.34 30.03 24.65 30.03 24.65 23.92 22.28 23.92"/>
    <rect id="_梁" data-name="梁" class="cls-3" x="3.94" y="9.86" width="20.11" height="2.37"/>
    <polygon id="_屋根" data-name="屋根" class="cls-5" points="22.48 0 5.52 0 0 9.86 28 9.86 22.48 0"/>
  </g>
  <g id="_要調査" data-name="要調査">
    <path id="_白ベール" data-name="白ベール" class="cls-1" d="M4.62,0H23.47c2.5,0,4.53,2.03,4.53,4.53V27.38c0,1.45-1.18,2.62-2.62,2.62H2.45c-1.35,0-2.45-1.1-2.45-2.45V4.62C0,2.07,2.07,0,4.62,0Z"/>
    <g>
      <rect class="cls-4" x="9.19" y="11.19" width="16.61" height="16.61" rx="3" ry="3" transform="translate(-8.66 18.08) rotate(-45)"/>
      <path d="M18.75,23.83c0,.7-.56,1.26-1.25,1.26s-1.25-.56-1.25-1.26,.56-1.25,1.25-1.25,1.25,.56,1.25,1.25Zm-.57-2.88c-.07,.46-.16,.78-.69,.78s-.61-.35-.66-.78l-.46-3.49v-2.5c0-.78,.42-1.05,1.16-1.05s1.11,.31,1.11,1.05v2.5l-.46,3.49Z"/>
    </g>
  </g>
</svg>