<?xml version="1.0" encoding="UTF-8"?>
<svg xmlns="http://www.w3.org/2000/svg" viewBox="0 0 28 40">
  <defs>
    <style>
      .cls-1 {
        fill: #fff;
      }

      .cls-2 {
        fill: #b08030;
      }

      .cls-3 {
        fill: #575757;
      }

      .cls-4 {
        fill: #e8d7c5;
      }

      .cls-5 {
        fill: #5c5c5c;
      }

      .cls-6 {
        fill: #868686;
      }

      .cls-7 {
        fill: #e6b422;
      }

      .cls-8 {
        fill: #cc974a;
      }

      .cls-9 {
        fill: gray;
      }

      .cls-10 {
        fill: #dadada;
      }

      .cls-11 {
        fill: #0071bc;
      }

      .cls-12 {
        fill: #9b9b9b;
      }

      .cls-13 {
        fill: #ccc;
      }

      .cls-14 {
        fill: #b3b3b3;
      }

      .cls-15 {
        fill: #ed1c24;
      }

      .cls-16 {
        fill: #66aad7;
      }

      .cls-17 {
        fill: #9e9e9e;
      }

      .cls-18 {
        fill: #666;
      }

      .cls-19 {
        fill: #f2f2f2;
      }

      .cls-20 {
        fill: red;
      }
    </style>
  </defs>
  <g id="_ピン" data-name="ピン">
    <g>
      <g>
        <polygon class="cls-9" points="15 40 13 40 12 30 16 30 15 40"/>
        <rect class="cls-13" x="14" y="30" width="1" height="10"/>
      </g>
      <g>
        <rect class="cls-9" x="12" y="20" width="4" height="10"/>
        <rect class="cls-13" x="14" y="20" width="1" height="10"/>
      </g>
    </g>
  </g>
  <g id="_ノーマル" data-name="ノーマル">
    <path id="_後輪" data-name="後輪" class="cls-7" d="M14,3c6.07,0,11,4.93,11,11s-4.93,11-11,11S3,20.07,3,14,7.93,3,14,3m0-2C6.82,1,1,6.82,1,14s5.82,13,13,13,13-5.82,13-13S21.18,1,14,1h0Z"/>
    <circle id="_炎" data-name="炎" class="cls-15" cx="14" cy="2" r="2"/>
    <circle id="_炎-2" data-name="炎" class="cls-15" cx="2" cy="13.5" r="2"/>
    <circle id="_炎-3" data-name="炎" class="cls-15" cx="26" cy="14.5" r="2"/>
    <g id="_手" data-name="手">
      <path id="_腕" data-name="腕" class="cls-11" d="M2.22,17.03s-1.97-2.22-2.22-.71l1.45,2.4c.46,.76,1.34,1.29,2.11,1.29,.29,2.57-1.07,12.02,2.87,10.8,3.02-.93-1.48-11.86-1.48-11.86h-.03c.02-.06,.04-.13,.06-.2,.21-.99-2.75-1.71-2.75-1.71Z"/>
    </g>
    <g id="_手-2" data-name="手">
      <path id="_腕-2" data-name="腕" class="cls-11" d="M25.73,10.2s2.13-2.06,2.27-.54l-1.63,2.28c-.52,.72-1.43,1.18-2.2,1.13-.48,2.54,.15,12.06-3.69,10.55-2.94-1.16,2.39-11.72,2.39-11.72h.03c-.02-.06-.03-.13-.04-.21-.14-1.01,2.87-1.5,2.87-1.5Z"/>
    </g>
    <g id="_胴" data-name="胴">
      <path id="_胴-2" data-name="胴" class="cls-1" d="M23,26.88c0-4.31-4.03-7.8-9-7.8s-9,3.49-9,7.8c0,.01,0,.03,0,.04h0v8.08H23v-8.08s0,0,0,0c0-.01,0-.03,0-.04Z"/>
      <path id="_胴-3" data-name="胴" class="cls-11" d="M22.05,26.88c0-4.31-3.6-7.8-8.05-7.8s-8.05,3.49-8.05,7.8c0,.01,0,.03,0,.04h0v8.08H22.05v-8.08s0,0,0,0c0-.01,0-.03,0-.04Z"/>
    </g>
    <path id="_衣" data-name="衣" class="cls-16" d="M16.99,30.32c.74-1.25,1.34-2.47,1.87-4.01,.38-1.1,.8-3.39,1.06-4.88-.43-.45-.91-.85-1.43-1.2-.35,1.6-.92,3.43-1.74,5.02-.48,.94-1.57,2.2-2.76,3.38-1.18-1.19-2.27-2.44-2.76-3.38-.81-1.59-1.39-3.43-1.74-5.02-.53,.34-1,.75-1.43,1.2,.27,1.49,.68,3.78,1.06,4.88,.53,1.54,1.13,2.76,1.87,4.01H5.91v4.59H22.09v-4.59h-5.1Z"/>
    <path id="_右耳" data-name="右耳" class="cls-11" d="M9.69,13.03c-.21-.63-.97-1.02-1.45-.31-.32,.47,.1,1.25,.12,1.41s-.35,1.42,.19,1.88c.47,.41,1.07,0,1.07,0,0,0,.25-1.39,.23-1.97s-.17-1.01-.17-1.01Z"/>
    <path id="_左耳" data-name="左耳" class="cls-11" d="M18.31,13.03c.21-.63,.97-1.02,1.45-.31,.32,.47-.1,1.25-.12,1.41s.35,1.42-.19,1.88c-.47,.41-1.07,0-1.07,0,0,0-.25-1.39-.23-1.97s.17-1.01,.17-1.01Z"/>
    <ellipse id="_顔" data-name="顔" class="cls-11" cx="14" cy="13.96" rx="4.76" ry="5.12"/>
    <path id="_髪" data-name="髪" d="M9.6,13.41s.22-2.22,.98-2.65c.95-.54,2.44-.15,3.49-.13s2.52-.46,3.18-.14,1.58,2.93,1.58,2.93v-2.99s-.36-.68-.83-.83-.72-1.38-.72-1.38c0,0-.14-1.42-.95-1.96s-1.02-.47-2.26-.47-1.65-.07-2.4,.61-.81,1.76-.81,1.76c0,0-.63,.99-1.1,1.76s-.16,3.5-.16,3.5Z"/>
    <g id="_宝冠" data-name="宝冠">
      <g>
        <path id="_宝冠上" data-name="宝冠上" class="cls-2" d="M19.89,6.15s-2.18,.13-3.07,1.02c-.05,.05-.08,.11-.13,.16,0-.45-.08-1.15-.45-1.73-.62-.96-2.1-1.6-2.1-1.6,0,0-1.64,.56-2.33,1.67-.26,.42-.29,1.15-.27,1.65-.04-.05-.07-.11-.12-.15-.89-.89-3.07-1.02-3.07-1.02,0,0,.91,1.39,1.04,2.15,.15,.88,.08,1.49,.08,1.49l2.34-.23,.03,.22,4.54-.03,.03-.2,2.38,.23s-.07-.61,.08-1.49c.13-.76,1.04-2.15,1.04-2.15Z"/>
        <path id="_宝冠下" data-name="宝冠下" class="cls-2" d="M9.49,10.47s2.43-.24,4.19-.26,5.16,.22,5.16,.22l.1-1.47s-3.45-.25-4.92-.21-4.67,.25-4.67,.25l.13,1.48Z"/>
      </g>
      <polygon id="_宝石" data-name="宝石" class="cls-4" points="14.08 8.09 15.56 6.81 14.08 5.52 12.6 6.81 14.08 8.09"/>
    </g>
    <g id="_槍" data-name="槍">
      <rect class="cls-18" x="-12.12" y="18.83" width="30.69" height="1.5" transform="translate(-16.56 21.09) rotate(-84.99)"/>
      <polygon class="cls-18" points="1.5 5.44 4.93 0 7.46 6.02 1.5 5.44"/>
    </g>
    <g id="_眉" data-name="眉">
      <path d="M10.29,13.05l.91-.91c.19-.19,.49-.19,.68,0l1.54,1.54-3.12-.62Z"/>
      <path d="M17.71,13.05l-.91-.91c-.19-.19-.49-.19-.68,0l-1.54,1.54,3.12-.62Z"/>
    </g>
    <g id="_手-3" data-name="手">
      <rect id="_手-4" data-name="手" class="cls-1" y="25" width="6" height="6" rx="1.67" ry="1.67"/>
      <rect id="_手-5" data-name="手" class="cls-11" y="26" width="5" height="5" rx="1.4" ry="1.4"/>
    </g>
    <g id="_手-6" data-name="手">
      <rect class="cls-1" x="19" y="22" width="7" height="7" rx="2.4" ry="2.4" transform="translate(48 3) rotate(90)"/>
      <rect id="_手-7" data-name="手" class="cls-11" x="20" y="23" width="5" height="5" rx="1.4" ry="1.4"/>
    </g>
    <g id="_ショケラ" data-name="ショケラ">
      <circle class="cls-8" cx="22.62" cy="29.5" r="1.5"/>
      <polygon class="cls-8" points="23.46 31 21.79 31 20.12 34 20.12 36 25.12 36 25.12 34 23.46 31"/>
    </g>
  </g>
  <g id="_消失" data-name="消失">
    <g>
      <path id="_後輪-2" data-name="後輪" class="cls-14" d="M14,3.02c6.07,0,11,4.93,11,11s-4.93,11-11,11S3,20.08,3,14.02,7.93,3.02,14,3.02m0-2C6.82,1.02,1,6.84,1,14.02s5.82,13,13,13,13-5.82,13-13S21.18,1.02,14,1.02h0Z"/>
      <circle id="_炎-4" data-name="炎" class="cls-5" cx="14" cy="2.02" r="2"/>
      <circle id="_炎-5" data-name="炎" class="cls-5" cx="2" cy="13.52" r="2"/>
      <circle id="_炎-6" data-name="炎" class="cls-5" cx="26" cy="14.52" r="2"/>
      <g id="_手-8" data-name="手">
        <path id="_腕-3" data-name="腕" class="cls-3" d="M2.22,17.05s-1.97-2.22-2.22-.71l1.45,2.4c.46,.76,1.34,1.29,2.11,1.29,.29,2.57-1.07,12.02,2.87,10.8,3.02-.93-1.48-11.86-1.48-11.86h-.03c.02-.06,.04-.13,.06-.2,.21-.99-2.75-1.71-2.75-1.71Z"/>
      </g>
      <g id="_手-9" data-name="手">
        <path id="_腕-4" data-name="腕" class="cls-3" d="M25.73,10.21s2.13-2.06,2.27-.54l-1.63,2.28c-.52,.72-1.43,1.18-2.2,1.13-.48,2.54,.15,12.06-3.69,10.55-2.94-1.16,2.39-11.72,2.39-11.72h.03c-.02-.06-.03-.13-.04-.21-.14-1.01,2.87-1.5,2.87-1.5Z"/>
      </g>
      <path id="_胴-4" data-name="胴" class="cls-1" d="M23,26.89c0-4.31-4.03-7.8-9-7.8s-9,3.49-9,7.8c0,.01,0,.03,0,.04h0v8.08H23v-8.08s0,0,0,0c0-.01,0-.03,0-.04Z"/>
      <path id="_胴-5" data-name="胴" class="cls-3" d="M22.05,26.89c0-4.31-3.6-7.8-8.05-7.8s-8.05,3.49-8.05,7.8c0,.01,0,.03,0,.04h0v8.08H22.05v-8.08s0,0,0,0c0-.01,0-.03,0-.04Z"/>
      <path id="_衣-2" data-name="衣" class="cls-12" d="M16.99,30.34c.74-1.25,1.34-2.47,1.87-4.01,.38-1.1,.8-3.39,1.06-4.88-.43-.45-.91-.85-1.43-1.2-.35,1.6-.92,3.43-1.74,5.02-.48,.94-1.57,2.2-2.76,3.38-1.18-1.19-2.27-2.44-2.76-3.38-.81-1.59-1.39-3.43-1.74-5.02-.53,.34-1,.75-1.43,1.2,.27,1.49,.68,3.78,1.06,4.88,.53,1.54,1.13,2.76,1.87,4.01H5.91v4.59H22.09v-4.59h-5.1Z"/>
      <path id="_右耳-2" data-name="右耳" class="cls-3" d="M9.69,13.04c-.21-.63-.97-1.02-1.45-.31-.32,.47,.1,1.25,.12,1.41s-.35,1.42,.19,1.88c.47,.41,1.07,0,1.07,0,0,0,.25-1.39,.23-1.97s-.17-1.01-.17-1.01Z"/>
      <path id="_左耳-2" data-name="左耳" class="cls-3" d="M18.31,13.04c.21-.63,.97-1.02,1.45-.31,.32,.47-.1,1.25-.12,1.41s.35,1.42-.19,1.88c-.47,.41-1.07,0-1.07,0,0,0-.25-1.39-.23-1.97s.17-1.01,.17-1.01Z"/>
      <ellipse id="_顔-2" data-name="顔" class="cls-3" cx="14" cy="13.97" rx="4.76" ry="5.12"/>
      <path id="_髪-2" data-name="髪" d="M9.6,13.43s.22-2.22,.98-2.65c.95-.54,2.44-.15,3.49-.13s2.52-.46,3.18-.14,1.58,2.93,1.58,2.93v-2.99s-.36-.68-.83-.83-.72-1.38-.72-1.38c0,0-.14-1.42-.95-1.96s-1.02-.47-2.26-.47-1.65-.07-2.4,.61-.81,1.76-.81,1.76c0,0-.63,.99-1.1,1.76s-.16,3.5-.16,3.5Z"/>
      <g id="_宝冠-2" data-name="宝冠">
        <g>
          <path id="_宝冠上-2" data-name="宝冠上" class="cls-6" d="M19.89,6.17s-2.18,.13-3.07,1.02c-.05,.05-.08,.11-.13,.16,0-.45-.08-1.15-.45-1.73-.62-.96-2.1-1.6-2.1-1.6,0,0-1.64,.56-2.33,1.67-.26,.42-.29,1.15-.27,1.65-.04-.05-.07-.11-.12-.15-.89-.89-3.07-1.02-3.07-1.02,0,0,.91,1.39,1.04,2.15,.15,.88,.08,1.49,.08,1.49l2.34-.23,.03,.22,4.54-.03,.03-.2,2.38,.23s-.07-.61,.08-1.49c.13-.76,1.04-2.15,1.04-2.15Z"/>
          <path id="_宝冠下-2" data-name="宝冠下" class="cls-6" d="M9.49,10.49s2.43-.24,4.19-.26,5.16,.22,5.16,.22l.1-1.47s-3.45-.25-4.92-.21-4.67,.25-4.67,.25l.13,1.48Z"/>
        </g>
        <polygon id="_宝石-2" data-name="宝石" class="cls-10" points="14.08 8.11 15.56 6.82 14.08 5.54 12.6 6.82 14.08 8.11"/>
      </g>
      <g id="_眉-2" data-name="眉">
        <path d="M10.29,13.07l.91-.91c.19-.19,.49-.19,.68,0l1.54,1.54-3.12-.62Z"/>
        <path d="M17.71,13.07l-.91-.91c-.19-.19-.49-.19-.68,0l-1.54,1.54,3.12-.62Z"/>
      </g>
      <g id="_槍-2" data-name="槍">
        <g>
          <rect class="cls-18" x="-12.12" y="18.83" width="30.69" height="1.5" transform="translate(-16.56 21.09) rotate(-84.99)"/>
          <polygon class="cls-18" points="1.5 5.43 4.93 0 7.46 6 1.5 5.43"/>
        </g>
      </g>
      <g id="_手-10" data-name="手">
        <rect id="_手-11" data-name="手" class="cls-1" y="25.02" width="6" height="6" rx="1.67" ry="1.67"/>
        <rect id="_手-12" data-name="手" class="cls-3" y="26.02" width="5" height="5" rx="1.4" ry="1.4"/>
      </g>
      <g id="_手-13" data-name="手">
        <rect class="cls-1" x="19" y="22.02" width="7" height="7" rx="2.4" ry="2.4" transform="translate(48.02 3.02) rotate(90)"/>
        <rect id="_手-14" data-name="手" class="cls-3" x="20" y="23.02" width="5" height="5" rx="1.4" ry="1.4"/>
      </g>
      <g id="_ショケラ-2" data-name="ショケラ">
        <circle class="cls-17" cx="22.62" cy="29.52" r="1.5"/>
        <polygon class="cls-17" points="23.46 31.02 21.79 31.02 20.12 34.02 20.12 36.02 25.12 36.02 25.12 34.02 23.46 31.02"/>
      </g>
    </g>
    <g>
      <rect class="cls-20" x="9.19" y="16.2" width="16.62" height="16.62" rx="3" ry="3" transform="translate(-12.2 19.55) rotate(-45)"/>
      <g>
        <rect class="cls-19" x="16.12" y="17.64" width="2.75" height="13.74" rx="1.26" ry="1.26" transform="translate(22.45 -5.19) rotate(45)"/>
        <rect class="cls-19" x="10.63" y="23.13" width="13.74" height="2.75" rx="1.26" ry="1.26" transform="translate(22.45 -5.19) rotate(45)"/>
      </g>
    </g>
  </g>
</svg>