<?xml version="1.0" encoding="utf-8"?>
<!-- Generator: Adobe Illustrator 27.1.1, SVG Export Plug-In . SVG Version: 6.00 Build 0)  -->
<svg version="1.1" xmlns="http://www.w3.org/2000/svg" xmlns:xlink="http://www.w3.org/1999/xlink" x="0px" y="0px" viewBox="0 0 28 40" style="enable-background:new 0 0 28 40;" xml:space="preserve">
<style type="text/css">
	.st0{display:none;}
	.st1{fill:#808080;}
	.st2{fill:#CCCCCC;}
	.st3{fill:#E6B422;}
	.st4{fill:#ED1C24;}
	.st5{fill:#0071BC;}
	.st6{fill:#FFFFFF;}
	.st7{fill:#66AAD7;}
	.st8{fill:#B08030;}
	.st9{fill:#E8D7C5;}
	.st10{fill:#666666;}
	.st11{fill:#CC974A;}
	.st12{fill:#1B1464;}
	.st13{fill:#2E3192;}
	.st14{opacity:0.3;fill:#FFFFFF;}
	.st15{fill:#FFCE00;}
	.st16{fill:#B3B3B3;}
	.st17{fill:#5C5C5C;}
	.st18{fill:#575757;}
	.st19{fill:#9B9B9B;}
	.st20{fill:#868686;}
	.st21{fill:#DADADA;}
	.st22{fill:#9E9E9E;}
	.st23{fill:#FF0000;}
	.st24{fill:#F2F2F2;}
</style>
<g id="ガイド_00000162338702563158607440000009963323815856875396_" class="st0">
</g>
<g id="ピン">
	<g>
		<g>
			<polygon class="st1" points="15,40 13,40 12,30 16,30 			"/>
			<rect x="14" y="30" class="st2" width="1" height="10"/>
		</g>
		<g>
			<rect x="12" y="20" class="st1" width="4" height="10"/>
			<rect x="14" y="20" class="st2" width="1" height="10"/>
		</g>
	</g>
</g>
<g id="ノーマル">
	<path id="後輪_00000021817234660988966990000004485002118665165718_" class="st3" d="M14,3c6.1,0,11,4.9,11,11s-4.9,11-11,11
		S3,20.1,3,14S7.9,3,14,3 M14,1C6.8,1,1,6.8,1,14s5.8,13,13,13s13-5.8,13-13S21.2,1,14,1L14,1z"/>
	<circle id="炎_00000168815225689648827720000014791638590402926759_" class="st4" cx="14" cy="2" r="2"/>
	<circle id="炎_00000028288553351339238330000018396131109602379926_" class="st4" cx="2" cy="13.5" r="2"/>
	<circle id="炎" class="st4" cx="26" cy="14.5" r="2"/>
	<g id="手_00000078032282251040937630000008045511318094992044_">
		<path id="腕_00000009584928999183087830000000765993871186086535_" class="st5" d="M2.2,17c0,0-2-2.2-2.2-0.7c0,0,0.6,1,1.4,2.4
			C1.9,19.5,2.8,20,3.6,20c0.3,2.6-1.1,12,2.9,10.8C9.4,29.9,4.9,19,4.9,19l0,0c0-0.1,0-0.1,0.1-0.2C5.2,17.8,2.2,17,2.2,17z"/>
	</g>
	<g id="手">
		<path id="腕" class="st5" d="M25.7,10.2c0,0,2.1-2.1,2.3-0.5c0,0-0.7,0.9-1.6,2.3c-0.5,0.7-1.4,1.2-2.2,1.1
			c-0.5,2.5,0.1,12.1-3.7,10.6c-2.9-1.2,2.4-11.7,2.4-11.7l0,0c0-0.1,0-0.1,0-0.2C22.7,10.7,25.7,10.2,25.7,10.2z"/>
	</g>
	<g id="胴">
		<path id="胴_00000183953657689351798210000012056253929873082254_" class="st6" d="M23,26.9c0-4.3-4-7.8-9-7.8s-9,3.5-9,7.8
			c0,0,0,0,0,0h0V35h18L23,26.9L23,26.9C23,26.9,23,26.9,23,26.9z"/>
		<path id="胴_00000106126689990679698960000017638745134668276359_" class="st5" d="M22,26.9c0-4.3-3.6-7.8-8-7.8s-8,3.5-8,7.8
			c0,0,0,0,0,0h0V35H22L22,26.9L22,26.9C22,26.9,22,26.9,22,26.9z"/>
	</g>
	<path id="衣" class="st7" d="M17,30.3c0.7-1.2,1.3-2.5,1.9-4c0.4-1.1,0.8-3.4,1.1-4.9c-0.4-0.4-0.9-0.9-1.4-1.2
		c-0.3,1.6-0.9,3.4-1.7,5c-0.5,0.9-1.6,2.2-2.8,3.4c-1.2-1.2-2.3-2.4-2.8-3.4c-0.8-1.6-1.4-3.4-1.7-5c-0.5,0.3-1,0.7-1.4,1.2
		c0.3,1.5,0.7,3.8,1.1,4.9c0.5,1.5,1.1,2.8,1.9,4H5.9v4.6h0h16.2h0v-4.6H17z"/>
	<path id="右耳" class="st5" d="M9.7,13c-0.2-0.6-1-1-1.5-0.3c-0.3,0.5,0.1,1.3,0.1,1.4S8,15.5,8.6,16c0.5,0.4,1.1,0,1.1,0
		s0.3-1.4,0.2-2C9.8,13.4,9.7,13,9.7,13z"/>
	<path id="左耳" class="st5" d="M18.3,13c0.2-0.6,1-1,1.5-0.3c0.3,0.5-0.1,1.3-0.1,1.4c0,0.2,0.3,1.4-0.2,1.9
		c-0.5,0.4-1.1,0-1.1,0s-0.3-1.4-0.2-2C18.2,13.4,18.3,13,18.3,13z"/>
	<ellipse id="顔_00000158729306056619698010000004512639797464009357_" class="st5" cx="14" cy="14" rx="4.8" ry="5.1"/>
	<path id="髪" d="M9.6,13.4c0,0,0.2-2.2,1-2.7c1-0.5,2.4-0.1,3.5-0.1s2.5-0.5,3.2-0.1s1.6,2.9,1.6,2.9v-3c0,0-0.4-0.7-0.8-0.8
		s-0.7-1.4-0.7-1.4s-0.1-1.4-0.9-2s-1-0.5-2.3-0.5s-1.7-0.1-2.4,0.6s-0.8,1.8-0.8,1.8s-0.6,1-1.1,1.8C9.3,10.7,9.6,13.4,9.6,13.4z"/>
	<g id="宝冠">
		<g>
			<path id="宝冠上" class="st8" d="M19.9,6.1c0,0-2.2,0.1-3.1,1c0,0-0.1,0.1-0.1,0.2c0-0.5-0.1-1.1-0.5-1.7
				c-0.6-1-2.1-1.6-2.1-1.6s-1.6,0.6-2.3,1.7c-0.3,0.4-0.3,1.1-0.3,1.6c0,0-0.1-0.1-0.1-0.2c-0.9-0.9-3.1-1-3.1-1s0.9,1.4,1,2.2
				c0.1,0.9,0.1,1.5,0.1,1.5l2.3-0.2l0,0.2l4.5,0l0-0.2l2.4,0.2c0,0-0.1-0.6,0.1-1.5C19,7.5,19.9,6.1,19.9,6.1z"/>
			<path id="宝冠下" class="st8" d="M9.5,10.5c0,0,2.4-0.2,4.2-0.3c1.8,0,5.2,0.2,5.2,0.2L18.9,9c0,0-3.5-0.2-4.9-0.2
				C12.6,8.8,9.4,9,9.4,9L9.5,10.5z"/>
		</g>
		<polygon id="宝石" class="st9" points="14.1,8.1 15.6,6.8 14.1,5.5 12.6,6.8 		"/>
	</g>
	<g id="槍_00000027606341922611366160000006763369539560647815_">
		
			<rect x="-12.1" y="18.8" transform="matrix(8.724772e-02 -0.9962 0.9962 8.724772e-02 -16.5561 21.0884)" class="st10" width="30.7" height="1.5"/>
		<g>
			<polygon class="st10" points="1.5,5.4 4.9,0 7.5,6 			"/>
		</g>
	</g>
	<g id="眉">
		<path d="M10.3,13.1l0.9-0.9c0.2-0.2,0.5-0.2,0.7,0l1.5,1.5L10.3,13.1z"/>
		<path d="M17.7,13.1l-0.9-0.9c-0.2-0.2-0.5-0.2-0.7,0l-1.5,1.5L17.7,13.1z"/>
	</g>
	<g id="手_00000066483631189632022930000005455181033745770410_">
		<path id="手_00000113321614572441849390000000299388822154743958_" class="st6" d="M4.3,31H1.7C0.7,31,0,30.3,0,29.3v-2.7
			C0,25.7,0.7,25,1.7,25h2.7C5.3,25,6,25.7,6,26.7v2.7C6,30.3,5.3,31,4.3,31z"/>
		<path id="手_00000054955183372663171060000005259639839251589251_" class="st5" d="M3.6,31H1.4C0.6,31,0,30.4,0,29.6v-2.2
			C0,26.6,0.6,26,1.4,26h2.2C4.4,26,5,26.6,5,27.4v2.2C5,30.4,4.4,31,3.6,31z"/>
	</g>
	<g id="手_00000005224920368404711970000003483782373854672049_">
		<path class="st6" d="M21.4,29c-1.3,0-2.4-1.1-2.4-2.4v-2.2c0-1.3,1.1-2.4,2.4-2.4h2.2c1.3,0,2.4,1.1,2.4,2.4v2.2
			c0,1.3-1.1,2.4-2.4,2.4H21.4z"/>
		<path id="手_00000167366302581703495240000012862935294253195652_" class="st5" d="M23.6,28h-2.2c-0.8,0-1.4-0.6-1.4-1.4v-2.2
			c0-0.8,0.6-1.4,1.4-1.4h2.2c0.8,0,1.4,0.6,1.4,1.4v2.2C25,27.4,24.4,28,23.6,28z"/>
	</g>
	<g id="ショケラ">
		<g>
			<circle class="st11" cx="22.6" cy="29.5" r="1.5"/>
		</g>
		<g>
			<polygon class="st11" points="23.5,31 21.8,31 20.1,34 20.1,36 25.1,36 25.1,34 			"/>
		</g>
	</g>
</g>


<g id="消失">
	<g>
		<path id="後輪_00000129164131076917877730000006890783848603455622_" class="st16" d="M14,3C20.1,3,25,8,25,14s-4.9,11-11,11
			S3,20.1,3,14S7.9,3,14,3 M14,1C6.8,1,1,6.8,1,14s5.8,13,13,13s13-5.8,13-13S21.2,1,14,1L14,1z"/>
		<circle id="炎_00000016763480262170674950000008127994977811626393_" class="st17" cx="14" cy="2" r="2"/>
		<circle id="炎_00000013172442540829903280000009833537232531341990_" class="st17" cx="2" cy="13.5" r="2"/>
		<circle id="炎_00000102521383068333380760000000810031983885584276_" class="st17" cx="26" cy="14.5" r="2"/>
		<g id="手_00000149343294185711146490000003028639051110816957_">
			<path id="腕_00000137091133122676091980000003130797400774298758_" class="st18" d="M2.2,17.1c0,0-2-2.2-2.2-0.7
				c0,0,0.6,1,1.4,2.4C1.9,19.5,2.8,20,3.6,20c0.3,2.6-1.1,12,2.9,10.8C9.4,29.9,4.9,19,4.9,19l0,0c0-0.1,0-0.1,0.1-0.2
				C5.2,17.8,2.2,17.1,2.2,17.1z"/>
		</g>
		<g id="手_00000059305482780904620600000008451139332637344642_">
			<path id="腕_00000057128407199373114810000015650993882354447291_" class="st18" d="M25.7,10.2c0,0,2.1-2.1,2.3-0.5
				c0,0-0.7,0.9-1.6,2.3c-0.5,0.7-1.4,1.2-2.2,1.1c-0.5,2.5,0.1,12.1-3.7,10.6c-2.9-1.2,2.4-11.7,2.4-11.7l0,0c0-0.1,0-0.1,0-0.2
				C22.7,10.7,25.7,10.2,25.7,10.2z"/>
		</g>
		<path id="胴_00000128475720024248171430000016911161824234272685_" class="st6" d="M23,26.9c0-4.3-4-7.8-9-7.8s-9,3.5-9,7.8
			c0,0,0,0,0,0h0V35h18L23,26.9L23,26.9C23,26.9,23,26.9,23,26.9z"/>
		<path id="胴_00000046321962784304560370000013757555280097587601_" class="st18" d="M22,26.9c0-4.3-3.6-7.8-8-7.8s-8,3.5-8,7.8
			c0,0,0,0,0,0h0V35H22L22,26.9L22,26.9C22,26.9,22,26.9,22,26.9z"/>
		<path id="衣_00000045582101934105505060000000740567989529543590_" class="st19" d="M17,30.3c0.7-1.2,1.3-2.5,1.9-4
			c0.4-1.1,0.8-3.4,1.1-4.9c-0.4-0.4-0.9-0.9-1.4-1.2c-0.3,1.6-0.9,3.4-1.7,5c-0.5,0.9-1.6,2.2-2.8,3.4c-1.2-1.2-2.3-2.4-2.8-3.4
			c-0.8-1.6-1.4-3.4-1.7-5c-0.5,0.3-1,0.7-1.4,1.2c0.3,1.5,0.7,3.8,1.1,4.9c0.5,1.5,1.1,2.8,1.9,4H5.9v4.6h0h16.2h0v-4.6H17z"/>
		<path id="右耳_00000042703203736303651420000004009281321049666986_" class="st18" d="M9.7,13c-0.2-0.6-1-1-1.5-0.3
			c-0.3,0.5,0.1,1.3,0.1,1.4S8,15.6,8.6,16c0.5,0.4,1.1,0,1.1,0s0.3-1.4,0.2-2C9.8,13.5,9.7,13,9.7,13z"/>
		<path id="左耳_00000101825826068000611690000009511369591661351821_" class="st18" d="M18.3,13c0.2-0.6,1-1,1.5-0.3
			c0.3,0.5-0.1,1.3-0.1,1.4c0,0.2,0.3,1.4-0.2,1.9c-0.5,0.4-1.1,0-1.1,0s-0.3-1.4-0.2-2C18.2,13.5,18.3,13,18.3,13z"/>
		<ellipse id="顔_00000178909025656022777450000002182822423343828641_" class="st18" cx="14" cy="14" rx="4.8" ry="5.1"/>
		<path id="髪_00000039111455900652100880000009612633312813245616_" d="M9.6,13.4c0,0,0.2-2.2,1-2.7c1-0.5,2.4-0.1,3.5-0.1
			s2.5-0.5,3.2-0.1s1.6,2.9,1.6,2.9v-3c0,0-0.4-0.7-0.8-0.8s-0.7-1.4-0.7-1.4s-0.1-1.4-0.9-2s-1-0.5-2.3-0.5s-1.7-0.1-2.4,0.6
			s-0.8,1.8-0.8,1.8s-0.6,1-1.1,1.8C9.3,10.7,9.6,13.4,9.6,13.4z"/>
		<g id="宝冠_00000063632983446711840520000017686162065577955517_">
			<g>
				<path id="宝冠上_00000001625083799134390400000004778763719512212633_" class="st20" d="M19.9,6.2c0,0-2.2,0.1-3.1,1
					c0,0-0.1,0.1-0.1,0.2c0-0.5-0.1-1.1-0.5-1.7c-0.6-1-2.1-1.6-2.1-1.6s-1.6,0.6-2.3,1.7c-0.3,0.4-0.3,1.1-0.3,1.6
					c0,0-0.1-0.1-0.1-0.2c-0.9-0.9-3.1-1-3.1-1s0.9,1.4,1,2.2c0.1,0.9,0.1,1.5,0.1,1.5l2.3-0.2l0,0.2l4.5,0l0-0.2l2.4,0.2
					c0,0-0.1-0.6,0.1-1.5C19,7.6,19.9,6.2,19.9,6.2z"/>
				<path id="宝冠下_00000036947370363605375310000000661280360680690331_" class="st20" d="M9.5,10.5c0,0,2.4-0.2,4.2-0.3
					c1.8,0,5.2,0.2,5.2,0.2L18.9,9c0,0-3.5-0.2-4.9-0.2C12.6,8.8,9.4,9,9.4,9L9.5,10.5z"/>
			</g>
			<polygon id="宝石_00000134946659691512511440000012021440812528398771_" class="st21" points="14.1,8.1 15.6,6.8 14.1,5.5 
				12.6,6.8 			"/>
		</g>
		<g id="眉_00000024715481382053241500000008791938990621642673_">
			<path d="M10.3,13.1l0.9-0.9c0.2-0.2,0.5-0.2,0.7,0l1.5,1.5L10.3,13.1z"/>
			<path d="M17.7,13.1l-0.9-0.9c-0.2-0.2-0.5-0.2-0.7,0l-1.5,1.5L17.7,13.1z"/>
		</g>
		<g id="槍_00000132069648676030096020000013210654900513695155_">
			<g>
				
					<rect x="-12.1" y="18.8" transform="matrix(8.724772e-02 -0.9962 0.9962 8.724772e-02 -16.5558 21.0881)" class="st10" width="30.7" height="1.5"/>
				<g>
					<polygon class="st10" points="1.5,5.4 4.9,0 7.5,6 					"/>
				</g>
			</g>
		</g>
		<g id="手_00000018227442800920580950000014061301160289599663_">
			<path id="手_00000129188828153249815410000008776451273195672454_" class="st6" d="M4.3,31H1.7C0.7,31,0,30.3,0,29.3v-2.7
				C0,25.8,0.7,25,1.7,25h2.7C5.3,25,6,25.8,6,26.7v2.7C6,30.3,5.3,31,4.3,31z"/>
			<path id="手_00000041275678433120110230000008672875552313106609_" class="st18" d="M3.6,31H1.4C0.6,31,0,30.4,0,29.6v-2.2
				C0,26.6,0.6,26,1.4,26h2.2C4.4,26,5,26.6,5,27.4v2.2C5,30.4,4.4,31,3.6,31z"/>
		</g>
		<g id="手_00000013192071301200656590000017005256207352105867_">
			<path class="st6" d="M21.4,29c-1.3,0-2.4-1.1-2.4-2.4v-2.2c0-1.3,1.1-2.4,2.4-2.4h2.2c1.3,0,2.4,1.1,2.4,2.4v2.2
				c0,1.3-1.1,2.4-2.4,2.4H21.4z"/>
			<path id="手_00000083088955085889247030000015136550638245835679_" class="st18" d="M23.6,28h-2.2c-0.8,0-1.4-0.6-1.4-1.4v-2.2
				c0-0.8,0.6-1.4,1.4-1.4h2.2c0.8,0,1.4,0.6,1.4,1.4v2.2C25,27.4,24.4,28,23.6,28z"/>
		</g>
		<g id="ショケラ_00000023986032424711192070000001261514833136179878_">
			<g>
				<circle class="st22" cx="22.6" cy="29.5" r="1.5"/>
			</g>
			<g>
				<polygon class="st22" points="23.5,31 21.8,31 20.1,34 20.1,36 25.1,36 25.1,34 				"/>
			</g>
		</g>
	</g>
	<g>
		<path class="st23" d="M27.1,26.6l-7.5,7.5c-1.2,1.2-3.1,1.2-4.2,0l-7.5-7.5c-1.2-1.2-1.2-3.1,0-4.2l7.5-7.5c1.2-1.2,3.1-1.2,4.2,0
			l7.5,7.5C28.3,23.5,28.3,25.5,27.1,26.6z"/>
		<g>
			<path class="st24" d="M12.7,29.4l-0.2-0.2c-0.5-0.5-0.5-1.3,0-1.8l7.9-7.9c0.5-0.5,1.3-0.5,1.8,0l0.2,0.2c0.5,0.5,0.5,1.3,0,1.8
				l-7.9,7.9C14,29.9,13.2,29.9,12.7,29.4z"/>
			<path class="st24" d="M20.5,29.4l-7.9-7.9c-0.5-0.5-0.5-1.3,0-1.8l0.2-0.2c0.5-0.5,1.3-0.5,1.8,0l7.9,7.9c0.5,0.5,0.5,1.3,0,1.8
				l-0.2,0.2C21.8,29.9,21,29.9,20.5,29.4z"/>
		</g>
	</g>
</g>
</svg>