<?xml version="1.0" encoding="UTF-8"?>
<svg xmlns="http://www.w3.org/2000/svg" viewBox="0 0 28 40">
  <defs>
    <style>
      .cls-1 {
        fill: #848484;
      }

      .cls-2 {
        fill: #aeaeae;
      }

      .cls-3 {
        fill: #5c5c5c;
      }

      .cls-4 {
        fill: #c7b299;
      }

      .cls-5 {
        fill: #cda781;
      }

      .cls-6 {
        fill: #a67c52;
      }

      .cls-7 {
        fill: #603813;
      }

      .cls-8 {
        fill: gray;
      }

      .cls-9 {
        fill: #b6b6b6;
      }

      .cls-10 {
        fill: #ccc;
      }

      .cls-11 {
        fill: #ed1c24;
      }

      .cls-12 {
        fill: #404040;
      }

      .cls-13 {
        fill: #f2f2f2;
      }

      .cls-14 {
        fill: red;
      }
    </style>
  </defs>
  <g id="_ピン" data-name="ピン">
    <g>
      <g>
        <polygon class="cls-8" points="15 40 13 40 12 30 16 30 15 40"/>
        <rect class="cls-10" x="14" y="30" width="1" height="10"/>
      </g>
      <g>
        <rect class="cls-8" x="12" y="20" width="4" height="10"/>
        <rect class="cls-10" x="14" y="20" width="1" height="10"/>
      </g>
    </g>
  </g>
  <g id="_ノーマル" data-name="ノーマル">
    <g id="_社" data-name="社">
      <g id="_扉" data-name="扉">
        <rect class="cls-5" x="10.6" y="17.65" width="6.8" height="4.85"/>
        <rect class="cls-6" x="13.76" y="17.53" width=".49" height="4.85"/>
      </g>
      <polygon id="_柱" data-name="柱" class="cls-6" points="18.02 20.53 18.02 15.71 16.87 15.71 16.87 20.53 15.72 20.53 15.72 22.41 12.28 22.41 12.28 20.53 11.13 20.53 11.13 15.71 9.98 15.71 9.98 20.53 8.83 20.53 8.83 23 11.89 23 12.28 23 15.72 23 16.11 23 19.17 23 19.17 20.53 18.02 20.53"/>
      <g id="_屋根" data-name="屋根">
        <path id="_屋根-2" data-name="屋根" class="cls-7" d="M17.4,13.68c-1.46-.97-2.94-2.82-2.94-2.82h-.92s-1.48,1.85-2.94,2.82-3.4,1.58-3.4,1.58l.51,2.29,6.29,.14,6.29-.14,.51-2.29s-1.94-.6-3.4-1.58Z"/>
        <path id="_屋根-3" data-name="屋根" class="cls-6" d="M9.07,15.63c.71-.3,1.58-.71,2.34-1.22,.99-.66,1.97-1.65,2.59-2.34,.62,.69,1.6,1.68,2.59,2.34,.76,.51,1.63,.92,2.34,1.22l-4.93,.11-4.93-.11Z"/>
        <ellipse class="cls-4" cx="14" cy="14.25" rx=".73" ry="1.21"/>
      </g>
      <rect id="_鰹木" data-name="鰹木" class="cls-6" x="11.96" y="10.17" width="4.08" height=".63"/>
      <path id="_千木" data-name="千木" class="cls-6" d="M16.18,7.46v-1.46c-.19,.33-1.26,2.23-2.13,3.31-.02,.02-.04,.04-.05,.07-.02-.02-.04-.04-.05-.07-.87-1.09-1.95-2.98-2.13-3.31v1.46c.44,.75,1.14,1.39,1.75,2.16,.04,.05,.08,.09,.12,.14-.75,.87-1.75,1.92-1.76,1.93l.28,.4s1.03-1.06,1.8-1.95c.77,.9,1.75,1.92,1.8,1.95l.28-.4s-1.01-1.06-1.76-1.93c.04-.05,.08-.1,.12-.14,.61-.77,1.31-1.41,1.75-2.16Z"/>
    </g>
    <g id="_柱-2" data-name="柱">
      <rect id="_柱-3" data-name="柱" class="cls-11" x="4" width="4" height="30"/>
      <rect x="4" y="24" width="4" height="6"/>
    </g>
    <g id="_柱-4" data-name="柱">
      <rect id="_柱-5" data-name="柱" class="cls-11" x="20" width="4" height="30"/>
      <rect x="20" y="24" width="4" height="6"/>
    </g>
    <rect id="_貫" data-name="貫" class="cls-11" x="1" y="8" width="26" height="4"/>
    <rect id="_笠木" data-name="笠木" class="cls-11" width="28" height="4"/>
  </g>
  <g id="_消失" data-name="消失">
    <g>
      <g id="_社-2" data-name="社">
        <g id="_扉-2" data-name="扉">
          <rect class="cls-2" x="10.6" y="17.65" width="6.8" height="4.85"/>
          <rect class="cls-1" x="13.76" y="17.53" width=".49" height="4.85"/>
        </g>
        <polygon id="_柱-6" data-name="柱" class="cls-1" points="18.02 20.53 18.02 15.71 16.87 15.71 16.87 20.53 15.72 20.53 15.72 22.41 12.28 22.41 12.28 20.53 11.13 20.53 11.13 15.71 9.98 15.71 9.98 20.53 8.83 20.53 8.83 23 11.89 23 12.28 23 15.72 23 16.11 23 19.17 23 19.17 20.53 18.02 20.53"/>
        <g id="_屋根-4" data-name="屋根">
          <path id="_屋根-5" data-name="屋根" class="cls-12" d="M17.4,13.68c-1.46-.97-2.94-2.82-2.94-2.82h-.92s-1.48,1.85-2.94,2.82-3.4,1.58-3.4,1.58l.51,2.29,6.29,.14,6.29-.14,.51-2.29s-1.94-.6-3.4-1.58Z"/>
          <path id="_屋根-6" data-name="屋根" class="cls-1" d="M9.07,15.63c.71-.3,1.58-.71,2.34-1.22,.99-.66,1.97-1.65,2.59-2.34,.62,.69,1.6,1.68,2.59,2.34,.76,.51,1.63,.92,2.34,1.22l-4.93,.11-4.93-.11Z"/>
          <ellipse class="cls-9" cx="14" cy="14.25" rx=".73" ry="1.21"/>
        </g>
        <rect id="_鰹木-2" data-name="鰹木" class="cls-1" x="11.96" y="10.17" width="4.08" height=".63"/>
        <path id="_千木-2" data-name="千木" class="cls-1" d="M16.18,7.46v-1.46c-.19,.33-1.26,2.23-2.13,3.31-.02,.02-.04,.04-.05,.07-.02-.02-.04-.04-.05-.07-.87-1.09-1.95-2.98-2.13-3.31v1.46c.44,.75,1.14,1.39,1.75,2.16,.04,.05,.08,.09,.12,.14-.75,.87-1.75,1.92-1.76,1.93l.28,.4s1.03-1.06,1.8-1.95c.77,.9,1.75,1.92,1.8,1.95l.28-.4s-1.01-1.06-1.76-1.93c.04-.05,.08-.1,.12-.14,.61-.77,1.31-1.41,1.75-2.16Z"/>
      </g>
      <g id="_柱-7" data-name="柱">
        <rect id="_柱-8" data-name="柱" class="cls-3" x="4" width="4" height="30"/>
        <rect x="4" y="24" width="4" height="6"/>
      </g>
      <g id="_柱-9" data-name="柱">
        <rect id="_柱-10" data-name="柱" class="cls-3" x="20" width="4" height="30"/>
        <rect x="20" y="24" width="4" height="6"/>
      </g>
      <rect id="_貫-2" data-name="貫" class="cls-3" x="1" y="8" width="26" height="4"/>
      <rect id="_笠木-2" data-name="笠木" class="cls-3" width="28" height="4"/>
    </g>
    <g>
      <rect class="cls-14" x="9.19" y="11.2" width="16.61" height="16.61" rx="3" ry="3" transform="translate(-8.66 18.08) rotate(-45)"/>
      <g>
        <rect class="cls-13" x="16.12" y="12.64" width="2.75" height="13.73" rx="1.26" ry="1.26" transform="translate(18.91 -6.66) rotate(45)"/>
        <rect class="cls-13" x="10.63" y="18.13" width="13.73" height="2.75" rx="1.26" ry="1.26" transform="translate(18.91 -6.66) rotate(45)"/>
      </g>
    </g>
  </g>
</svg>