<?xml version="1.0" encoding="utf-8"?>
<!-- Generator: Adobe Illustrator 27.1.1, SVG Export Plug-In . SVG Version: 6.00 Build 0)  -->
<svg version="1.1" xmlns="http://www.w3.org/2000/svg" xmlns:xlink="http://www.w3.org/1999/xlink" x="0px" y="0px" viewBox="0 0 28 40" style="enable-background:new 0 0 28 40;" xml:space="preserve">
<style type="text/css">
	.st0{display:none;}
	.st1{fill:#808080;}
	.st2{fill:#CCCCCC;}
	.st3{fill:#CDA781;}
	.st4{fill:#A67C52;}
	.st5{fill:#603813;}
	.st6{fill:#C7B299;}
	.st7{fill:#ED1C24;}
	.st8{fill:#1B1464;}
	.st9{fill:#FFFFFF;}
	.st10{fill:#2E3192;}
	.st11{opacity:0.3;fill:#FFFFFF;}
	.st12{fill:#FFCE00;}
	.st13{fill:#AEAEAE;}
	.st14{fill:#848484;}
	.st15{fill:#404040;}
	.st16{fill:#B6B6B6;}
	.st17{fill:#5C5C5C;}
	.st18{fill:#FF0000;}
	.st19{fill:#F2F2F2;}
</style>
<g id="ガイド_00000162338702563158607440000009963323815856875396_" class="st0">
</g>
<g id="ピン">
	<g>
		<g>
			<polygon class="st1" points="15,40 13,40 12,30 16,30 			"/>
			<rect x="14" y="30" class="st2" width="1" height="10"/>
		</g>
		<g>
			<rect x="12" y="20" class="st1" width="4" height="10"/>
			<rect x="14" y="20" class="st2" width="1" height="10"/>
		</g>
	</g>
</g>
<g id="ノーマル">
	<g id="社">
		<g id="扉">
			<rect x="10.6" y="17.6" class="st3" width="6.8" height="4.9"/>
			<rect x="13.8" y="17.5" class="st4" width="0.5" height="4.9"/>
		</g>
		<polygon id="柱_00000029751375724739776960000017570042516118855040_" class="st4" points="18,20.5 18,15.7 16.9,15.7 16.9,20.5 
			15.7,20.5 15.7,22.4 12.3,22.4 12.3,20.5 11.1,20.5 11.1,15.7 10,15.7 10,20.5 8.8,20.5 8.8,23 11.9,23 12.3,23 15.7,23 16.1,23 
			19.2,23 19.2,20.5 		"/>
		<g id="屋根_00000042001436421146113630000007507591227388642193_">
			<path id="屋根" class="st5" d="M17.4,13.7c-1.5-1-2.9-2.8-2.9-2.8H14h-0.5c0,0-1.5,1.9-2.9,2.8s-3.4,1.6-3.4,1.6l0.5,2.3
				l6.3,0.1l6.3-0.1l0.5-2.3C20.8,15.3,18.9,14.6,17.4,13.7z"/>
			<path id="屋根_00000131354469052975202490000016161526188632633499_" class="st4" d="M9.1,15.6c0.7-0.3,1.6-0.7,2.3-1.2
				c1-0.7,2-1.6,2.6-2.3c0.6,0.7,1.6,1.7,2.6,2.3c0.8,0.5,1.6,0.9,2.3,1.2L14,15.7L9.1,15.6z"/>
			<ellipse class="st6" cx="14" cy="14.3" rx="0.7" ry="1.2"/>
		</g>
		<rect id="鰹木" x="12" y="10.2" class="st4" width="4.1" height="0.6"/>
		<path id="千木" class="st4" d="M16.2,7.5V6c-0.2,0.3-1.3,2.2-2.1,3.3c0,0,0,0-0.1,0.1c0,0,0,0-0.1-0.1c-0.9-1.1-1.9-3-2.1-3.3
			v1.5c0.4,0.8,1.1,1.4,1.8,2.2c0,0,0.1,0.1,0.1,0.1c-0.7,0.9-1.8,1.9-1.8,1.9l0.3,0.4c0,0,1-1.1,1.8-2c0.8,0.9,1.8,1.9,1.8,2
			l0.3-0.4c0,0-1-1.1-1.8-1.9c0,0,0.1-0.1,0.1-0.1C15,8.8,15.7,8.2,16.2,7.5z"/>
	</g>
	<g id="柱_00000021828176157840506370000002151172585999254147_">
		<rect id="柱_00000168096331100175819820000007488946623102373310_" x="4" class="st7" width="4" height="30"/>
		<rect x="4" y="24" width="4" height="6"/>
	</g>
	<g id="柱_00000041286258727886272170000000632080658267667355_">
		<rect id="柱" x="20" class="st7" width="4" height="30"/>
		<rect x="20" y="24" width="4" height="6"/>
	</g>
	<rect id="貫" x="1" y="8" class="st7" width="26" height="4"/>
	<rect id="笠木" class="st7" width="28" height="4"/>
</g>

<g id="要調査">
	<path id="白ベール" class="st11" d="M25.7,30H2.8C1.3,30,0,28.7,0,27.2V0h28v27.7C28,29,27,30,25.7,30z"/>
	<g>
		<path class="st12" d="M27.1,21.6l-7.5,7.5c-1.2,1.2-3.1,1.2-4.2,0l-7.5-7.5c-1.2-1.2-1.2-3.1,0-4.2l7.5-7.5c1.2-1.2,3.1-1.2,4.2,0
			l7.5,7.5C28.3,18.5,28.3,20.5,27.1,21.6z"/>
		<g>
			<path d="M18.7,23.8c0,0.7-0.6,1.3-1.2,1.3s-1.3-0.6-1.3-1.3c0-0.7,0.6-1.2,1.3-1.2S18.7,23.1,18.7,23.8z M18.2,21
				c-0.1,0.5-0.2,0.8-0.7,0.8c-0.5,0-0.6-0.4-0.7-0.8l-0.5-3.5V15c0-0.8,0.4-1.1,1.2-1.1c0.7,0,1.1,0.3,1.1,1.1v2.5L18.2,21z"/>
		</g>
	</g>
</g>

</svg>