<?xml version="1.0" encoding="utf-8"?>
<!-- Generator: Adobe Illustrator 27.1.1, SVG Export Plug-In . SVG Version: 6.00 Build 0)  -->
<svg version="1.1" xmlns="http://www.w3.org/2000/svg" xmlns:xlink="http://www.w3.org/1999/xlink" x="0px" y="0px" viewBox="0 0 28 40" style="enable-background:new 0 0 28 40;" xml:space="preserve">
<style type="text/css">
	.st0{display:none;}
	.st1{fill:#808080;}
	.st2{fill:#CCCCCC;}
	.st3{fill:#8EC6F4;}
	.st4{fill:#E6E6E6;}
	.st5{fill:#C1272D;}
	.st6{fill:#009245;}
	.st7{fill:#39B54A;}
	.st8{fill:#B3B3B3;}
	.st9{fill:#C7B299;}
	.st10{fill:#1B1464;}
	.st11{fill:#FFFFFF;}
	.st12{fill:#2E3192;}
	.st13{opacity:0.3;fill:#FFFFFF;}
	.st14{fill:#FFCE00;}
	.st15{fill:#BABABA;}
	.st16{fill:#565656;}
	.st17{fill:#5E5E5E;}
	.st18{fill:#848484;}
	.st19{fill:#B6B6B6;}
	.st20{fill:#FF0000;}
	.st21{fill:#F2F2F2;}
</style>
<g id="ガイド_00000162338702563158607440000009963323815856875396_" class="st0">
</g>
<g id="ピン">
	<g>
		<g>
			<polygon class="st1" points="15,40 13,40 12,30 16,30 			"/>
			<rect x="14" y="30" class="st2" width="1" height="10"/>
		</g>
		<g>
			<rect x="12" y="20" class="st1" width="4" height="10"/>
			<rect x="14" y="20" class="st2" width="1" height="10"/>
		</g>
	</g>
</g>
<g id="ノーマル">
	<rect id="空" class="st3" width="28" height="12.4"/>
	<g id="家">
		<rect x="10.5" y="5.1" class="st4" width="4" height="3"/>
		<polygon id="屋根" class="st5" points="15,5.1 12.7,3.9 12.6,3.7 12.5,3.8 12.4,3.7 12.3,3.9 9.9,5.1 10.4,6 12.5,4.9 14.6,6 		
			"/>
	</g>
	<g id="ビル_00000133519914403420308390000010587830053185958050_">
		<rect id="ビル" x="16.1" y="0.9" class="st4" width="5.8" height="8.8"/>
		<rect id="窓" x="18.6" y="2.3" class="st3" width="2" height="2"/>
	</g>
	<g id="葉">
		<path class="st6" d="M12,8.8c0-0.3-0.2-0.6-0.5-0.8c0-0.1,0-0.2,0-0.3c0-0.5-0.4-1-0.9-1.1c0,0,0,0,0,0c0-0.3-0.2-0.6-0.5-0.8
			c0-0.1,0-0.2,0-0.3c0-0.6-0.5-1.1-1.1-1.1C9,4.5,8.8,4.6,8.6,4.7C8.5,4.6,8.3,4.5,8.1,4.5c-0.1,0-0.1,0-0.2,0
			C7.8,4.3,7.4,4.1,7.1,4.1c-0.1,0-0.2,0-0.3,0C6.6,3.9,6.3,3.7,6,3.7C5.6,3.7,5.3,4,5.2,4.3C5,4.2,4.8,4.1,4.5,4.1
			c-0.6,0-1,0.4-1.1,1C3.3,5,3.2,5,3,5C2.5,5,2.1,5.3,2.1,5.8c0,0,0,0,0,0C1.7,5.9,1.3,6.4,1.3,6.9c0,0.1,0,0.1,0,0.2c0,0,0,0,0,0
			C0.8,7.1,0.4,7.5,0.4,8c0,0.2,0.1,0.4,0.2,0.5C0.5,8.6,0.4,8.8,0.4,9c0,0.1,0,0.2,0,0.3C0.2,9.5,0,9.8,0,10.1
			C0,10.6,0.4,11,0.9,11c0,0.7,0.6,1.3,1.3,1.3c0.5,0,0.9-0.3,1.1-0.7c0.2,0.1,0.4,0.2,0.6,0.2c0.2,0,0.4-0.1,0.5-0.2
			c0.2,0.4,0.5,0.6,1,0.6c0.1,0,0.2,0,0.3,0c0.1,0.3,0.4,0.5,0.8,0.5c0.4,0,0.7-0.3,0.8-0.7c0.2,0.1,0.4,0.2,0.7,0.2
			c0.4,0,0.8-0.3,1-0.6c0.1,0.1,0.3,0.2,0.5,0.2c0.5,0,0.9-0.4,0.9-0.9c0,0,0,0,0,0c0.1,0,0.1,0,0.2,0c0.6,0,1.1-0.5,1.1-1.1
			c0-0.1,0-0.2,0-0.3C11.8,9.4,12,9.2,12,8.8z"/>
		<path class="st7" d="M2,6.7c0,0-0.4,0.8-0.2,1.4s1.1,0.7,1.1,0.7s0.4-0.7,0-1.3C2.7,7.1,2,6.7,2,6.7z"/>
		<path class="st7" d="M3,6c0,0,0.3,0.9,0.8,1.1s1.3-0.3,1.3-0.3S4.9,6,4.3,5.9C3.9,5.8,3,6,3,6z"/>
		<path class="st7" d="M7.3,4.7c0,0-0.9,0.1-1.2,0.7C5.8,5.9,6.2,6.7,6.2,6.7s0.8-0.1,1-0.7C7.4,5.5,7.3,4.7,7.3,4.7z"/>
		<path class="st7" d="M9.3,5c0,0-0.9,0.3-1.1,0.8C8,6.4,8.5,7.2,8.5,7.2s0.8-0.2,0.9-0.9C9.5,5.9,9.3,5,9.3,5z"/>
		<path class="st7" d="M10.5,7c0,0-0.9-0.1-1.3,0.3C8.7,7.8,8.9,8.6,8.9,8.6s0.8,0.1,1.2-0.4C10.4,7.9,10.5,7,10.5,7z"/>
		<path class="st7" d="M7.7,7.3c0,0-0.7,0.1-0.9,0.5c-0.2,0.4,0.1,1,0.1,1s0.6-0.1,0.8-0.5C7.7,7.9,7.7,7.3,7.7,7.3z"/>
		<path class="st7" d="M11.3,8.3c0,0-0.6-0.2-1,0.1S10,9.4,10,9.4s0.6,0.1,0.9-0.2C11.1,8.9,11.3,8.3,11.3,8.3z"/>
		<path class="st7" d="M10.3,10.1c0,0-0.4-0.3-0.8-0.2C9.2,10,9,10.5,9,10.5s0.4,0.3,0.7,0.1C9.9,10.5,10.3,10.1,10.3,10.1z"/>
		<path class="st7" d="M3,9.6c0,0-0.2-0.5-0.6-0.5C2.1,8.9,1.7,9.3,1.7,9.3s0.2,0.4,0.6,0.4C2.5,9.8,3,9.6,3,9.6z"/>
		<path class="st7" d="M1.2,10.3c0,0,0.1,0.6,0.5,0.8C2.1,11.3,2.7,11,2.7,11s-0.1-0.6-0.6-0.7C1.8,10.2,1.2,10.3,1.2,10.3z"/>
		<path class="st7" d="M3.8,7.3c0,0-0.4,0.6-0.2,1c0.2,0.4,0.8,0.6,0.8,0.6S4.7,8.4,4.5,8C4.3,7.7,3.8,7.3,3.8,7.3z"/>
		<path class="st7" d="M5.1,4.7c0,0-0.3,0.4-0.2,0.8c0.1,0.3,0.6,0.4,0.6,0.4s0.2-0.4,0.1-0.7C5.5,5,5.1,4.7,5.1,4.7z"/>
	</g>
	<g id="葉_00000015348014151516047640000009809921490402443197_">
		<path class="st6" d="M28,11.8c0-0.3-0.2-0.6-0.5-0.8c0-0.1,0-0.2,0-0.3c0-0.5-0.4-1-0.9-1.1c0,0,0,0,0,0c0-0.3-0.2-0.6-0.5-0.8
			c0-0.1,0-0.2,0-0.3c0-0.6-0.5-1.1-1.1-1.1c-0.2,0-0.4,0.1-0.6,0.2c-0.1-0.1-0.3-0.2-0.5-0.2c-0.1,0-0.1,0-0.2,0
			c-0.2-0.3-0.5-0.5-0.9-0.5c-0.1,0-0.2,0-0.3,0c-0.1-0.3-0.4-0.5-0.8-0.5c-0.4,0-0.7,0.3-0.8,0.7c-0.2-0.1-0.4-0.2-0.7-0.2
			c-0.6,0-1,0.4-1.1,1C19.3,8,19.2,8,19,8c-0.5,0-0.9,0.4-0.9,0.9c0,0,0,0,0,0c-0.5,0.1-0.9,0.5-0.9,1.1c0,0.1,0,0.1,0,0.2
			c0,0,0,0,0,0c-0.5,0-0.9,0.4-0.9,0.9c0,0.2,0.1,0.4,0.2,0.5c-0.1,0.2-0.2,0.4-0.2,0.6c0,0.1,0,0.2,0,0.3c-0.3,0.1-0.5,0.4-0.5,0.8
			c0,0.5,0.4,0.9,0.9,0.9c0,0.7,0.6,1.3,1.3,1.3c0.5,0,0.9-0.3,1.1-0.7c0.2,0.1,0.4,0.2,0.6,0.2c0.2,0,0.4-0.1,0.5-0.2
			c0.2,0.4,0.5,0.6,1,0.6c0.1,0,0.2,0,0.3,0c0.1,0.3,0.4,0.5,0.8,0.5c0.4,0,0.7-0.3,0.8-0.7c0.2,0.1,0.4,0.2,0.7,0.2
			c0.4,0,0.8-0.3,1-0.6c0.1,0.1,0.3,0.2,0.5,0.2c0.5,0,0.9-0.4,0.9-0.9c0,0,0,0,0,0c0.1,0,0.1,0,0.2,0c0.6,0,1.1-0.5,1.1-1.1
			c0-0.1,0-0.2,0-0.3C27.8,12.4,28,12.2,28,11.8z"/>
		<path class="st7" d="M18,9.7c0,0-0.4,0.8-0.2,1.4c0.3,0.6,1.1,0.7,1.1,0.7s0.4-0.7,0-1.3C18.7,10.1,18,9.7,18,9.7z"/>
		<path class="st7" d="M19,9c0,0,0.3,0.9,0.8,1.1c0.6,0.2,1.3-0.3,1.3-0.3S20.9,9,20.3,8.9C19.9,8.8,19,9,19,9z"/>
		<path class="st7" d="M23.3,7.7c0,0-0.9,0.1-1.2,0.7s0.1,1.3,0.1,1.3s0.8-0.1,1-0.7C23.4,8.5,23.3,7.7,23.3,7.7z"/>
		<path class="st7" d="M25.3,8c0,0-0.9,0.3-1.1,0.8c-0.2,0.6,0.3,1.3,0.3,1.3s0.8-0.2,0.9-0.9C25.5,8.9,25.3,8,25.3,8z"/>
		<path class="st7" d="M26.5,10c0,0-0.9-0.1-1.3,0.3c-0.4,0.4-0.3,1.3-0.3,1.3s0.8,0.1,1.2-0.4C26.4,10.9,26.5,10,26.5,10z"/>
		<path class="st7" d="M23.7,10.3c0,0-0.7,0.1-0.9,0.5c-0.2,0.4,0.1,1,0.1,1s0.6-0.1,0.8-0.5C23.7,10.9,23.7,10.3,23.7,10.3z"/>
		<path class="st7" d="M27.3,11.3c0,0-0.6-0.2-1,0.1S26,12.4,26,12.4s0.6,0.1,0.9-0.2C27.1,11.9,27.3,11.3,27.3,11.3z"/>
		<path class="st7" d="M26.3,13.1c0,0-0.4-0.3-0.8-0.2C25.2,13,25,13.5,25,13.5s0.4,0.3,0.7,0.1C25.9,13.5,26.3,13.1,26.3,13.1z"/>
		<path class="st7" d="M19,12.6c0,0-0.2-0.5-0.6-0.5c-0.3-0.1-0.7,0.3-0.7,0.3s0.2,0.4,0.6,0.4C18.5,12.8,19,12.6,19,12.6z"/>
		<path class="st7" d="M17.2,13.3c0,0,0.1,0.6,0.5,0.8c0.4,0.2,0.9-0.2,0.9-0.2s-0.1-0.6-0.6-0.7C17.8,13.2,17.2,13.3,17.2,13.3z"/>
		<path class="st7" d="M19.8,10.3c0,0-0.4,0.6-0.2,1c0.2,0.4,0.8,0.6,0.8,0.6s0.3-0.5,0.1-0.9C20.3,10.7,19.8,10.3,19.8,10.3z"/>
		<path class="st7" d="M21.1,7.7c0,0-0.3,0.4-0.2,0.8c0.1,0.3,0.6,0.4,0.6,0.4s0.2-0.4,0.1-0.7C21.5,8,21.1,7.7,21.1,7.7z"/>
	</g>
	<g id="坂道">
		<polygon class="st1" points="15.3,8 12.7,8 6,30 22,30 		"/>
	</g>
	<polygon id="塀" class="st8" points="0,30 6,30 12.7,8 12.7,6.2 0,11.5 	"/>
	<polygon id="塀_00000067925622525596111270000014870748387447464582_" class="st9" points="28,30 22,30 15.3,8 15.3,6.2 28,11.5 	
		"/>
</g>

<g id="要調査">
	<rect id="白ベール" class="st13" width="28" height="30"/>
	<g>
		<path class="st14" d="M27.1,21.6l-7.5,7.5c-1.2,1.2-3.1,1.2-4.2,0l-7.5-7.5c-1.2-1.2-1.2-3.1,0-4.2l7.5-7.5c1.2-1.2,3.1-1.2,4.2,0
			l7.5,7.5C28.3,18.5,28.3,20.5,27.1,21.6z"/>
		<g>
			<path d="M18.7,23.8c0,0.7-0.6,1.3-1.2,1.3s-1.3-0.6-1.3-1.3c0-0.7,0.6-1.2,1.3-1.2S18.7,23.1,18.7,23.8z M18.2,21
				c-0.1,0.5-0.2,0.8-0.7,0.8c-0.5,0-0.6-0.4-0.7-0.8l-0.5-3.5V15c0-0.8,0.4-1.1,1.2-1.1c0.7,0,1.1,0.3,1.1,1.1v2.5L18.2,21z"/>
		</g>
	</g>
</g>

</svg>