<?xml version="1.0" encoding="utf-8"?>
<!-- Generator: Adobe Illustrator 27.1.1, SVG Export Plug-In . SVG Version: 6.00 Build 0)  -->
<svg version="1.1" xmlns="http://www.w3.org/2000/svg" xmlns:xlink="http://www.w3.org/1999/xlink" x="0px" y="0px" viewBox="0 0 28 40" style="enable-background:new 0 0 28 40;" xml:space="preserve">
<style type="text/css">
	.st0{display:none;}
	.st1{fill:#808080;}
	.st2{fill:#CCCCCC;}
	.st3{fill:#39B54A;}
	.st4{fill:#A96E2D;}
	.st5{fill:#666666;}
	.st6{fill:#B0B088;}
	.st7{fill:#657482;}
	.st8{fill:#C69C6D;}
	.st9{fill:#1B1464;}
	.st10{fill:#FFFFFF;}
	.st11{fill:#2E3192;}
	.st12{opacity:0.3;fill:#FFFFFF;}
	.st13{fill:#FFCE00;}
	.st14{fill:#848484;}
	.st15{fill:#797979;}
	.st16{fill:#ACACAC;}
	.st17{fill:#717171;}
	.st18{fill:#A3A3A3;}
	.st19{fill:#FF0000;}
	.st20{fill:#F2F2F2;}
</style>
<g id="ガイド_00000162338702563158607440000009963323815856875396_" class="st0">
</g>
<g id="ピン">
	<g>
		<g>
			<polygon class="st1" points="15,40 13,40 12,30 16,30 			"/>
			<rect x="14" y="30" class="st2" width="1" height="10"/>
		</g>
		<g>
			<rect x="12" y="20" class="st1" width="4" height="10"/>
			<rect x="14" y="20" class="st2" width="1" height="10"/>
		</g>
	</g>
</g>
<g id="ノーマル">
	<g id="地面_00000085960540020044898610000002193894466238366089_">
		<path id="草_00000050658507514173148250000014360179358624052912_" class="st3" d="M2.4,18.9c-0.4-1.3-0.5-2.2-1.3-3.5
			C2.8,15.3,3.5,17.8,2.4,18.9L2.4,18.9z"/>
		<path id="草_00000179627912085844586860000016558588140227868062_" class="st3" d="M26.6,18.9c-1.1-1.1-0.4-3.6,1.3-3.5
			C27.1,16.7,27,17.5,26.6,18.9L26.6,18.9z"/>
		<path id="草_00000151529837931384215080000007510860043949423779_" class="st3" d="M25.8,19.4c-1.2-2.3-0.6-6.1,2.1-7
			C26.2,14.5,26.2,16.9,25.8,19.4L25.8,19.4z"/>
		<rect id="地面" x="0" y="17.9" class="st4" width="28" height="2"/>
	</g>
	<rect id="基礎" x="3.9" y="15.9" class="st5" width="20" height="2"/>
	<rect id="手水鉢側面" x="5" y="7.7" class="st6" width="18" height="8.2"/>
	<g id="手水鉢上面">
		<polygon id="手水鉢_00000123414913392625357250000001573894874821085619_" class="st6" points="19.2,3.5 8.7,3.5 4.9,6.5 
			23,6.5 		"/>
		<polygon class="st7" points="7.8,5.5 9,4.5 18.9,4.5 20.1,5.5 		"/>
	</g>
	<path id="酌_00000152950196296317046830000001139576450585410964_" class="st8" d="M16.6,7.4l-5.7-4.9c0.3-0.3,0.5-0.6,0.5-1
		c0-0.8-0.9-1.5-2-1.5c-1.1,0-2,0.7-2,1.5S8.3,3,9.4,3c0.2,0,0.3,0,0.5,0l6,5.2L16.6,7.4z"/>
	<path id="酌" class="st8" d="M21.6,7.4L16,2.5c0.3-0.3,0.5-0.6,0.5-1c0-0.8-0.9-1.5-2-1.5c-1.1,0-2,0.7-2,1.5s0.9,1.5,2,1.5
		c0.2,0,0.3,0,0.5,0l6,5.2L21.6,7.4z"/>
</g>
<g id="画像なし">
	<g id="画像なし_00000137829539368038473000000017191533824446270641_">
		<path class="st9" d="M27.1,21.6l-7.5,7.5c-1.2,1.2-3.1,1.2-4.2,0l-7.5-7.5c-1.2-1.2-1.2-3.1,0-4.2l7.5-7.5c1.2-1.2,3.1-1.2,4.2,0
			l7.5,7.5C28.3,18.5,28.3,20.5,27.1,21.6z"/>
		<path id="カメラ" class="st10" d="M22,15.5h-1.5l-0.8-1.6c-0.1-0.2-0.3-0.4-0.6-0.4h-3.2c-0.2,0-0.5,0.1-0.6,0.4l-0.8,1.6H13
			c-0.9,0-1.5,0.7-1.5,1.5V22c0,0.9,0.7,1.5,1.5,1.5H22c0.9,0,1.5-0.7,1.5-1.5V17C23.5,16.2,22.8,15.5,22,15.5z M17.5,22
			c-1.4,0-2.5-1.1-2.5-2.5c0-1.4,1.1-2.5,2.5-2.5c1.4,0,2.5,1.1,2.5,2.5C20,20.9,18.9,22,17.5,22z"/>
		<g id="斜線">
			<rect x="10.3" y="18.6" transform="matrix(0.7071 0.7071 -0.7071 0.7071 18.7662 -7.0127)" class="st11" width="15" height="1"/>
			<rect x="9.6" y="19.4" transform="matrix(0.7071 0.7071 -0.7071 0.7071 19.0591 -6.3056)" class="st10" width="15" height="1"/>
		</g>
	</g>
</g>


</svg>