<?xml version="1.0" encoding="utf-8"?>
<!-- Generator: Adobe Illustrator 27.1.1, SVG Export Plug-In . SVG Version: 6.00 Build 0)  -->
<svg version="1.1" xmlns="http://www.w3.org/2000/svg" xmlns:xlink="http://www.w3.org/1999/xlink" x="0px" y="0px" viewBox="0 0 28 40" style="enable-background:new 0 0 28 40;" xml:space="preserve">
<style type="text/css">
	.st0{display:none;}
	.st1{fill:#808080;}
	.st2{fill:#CCCCCC;}
	.st3{display:inline;fill:#808080;}
	.st4{display:inline;fill:#CCCCCC;}
	.st5{fill:#39B54A;}
	.st6{fill:#A96E2D;}
	.st7{fill:#FFFFFF;}
	.st8{fill:#1B1464;}
	.st9{fill:#2E3192;}
	.st10{opacity:0.3;fill:#FFFFFF;}
	.st11{fill:#FFCE00;}
	.st12{fill:#848484;}
	.st13{fill:#797979;}
	.st14{fill:#FF0000;}
	.st15{fill:#F2F2F2;}
</style>
<g id="ガイド_00000162338702563158607440000009963323815856875396_" class="st0">
</g>
<g id="ピン">
	<g>
		<g>
			<polygon class="st1" points="15,40 13,40 12,30 16,30 			"/>
			<rect x="14" y="30" class="st2" width="1" height="10"/>
		</g>
		<g class="st0">
			<rect x="12" y="20" class="st3" width="4" height="10"/>
			<rect x="14" y="20" class="st4" width="1" height="10"/>
		</g>
	</g>
</g>
<g id="ノーマル">
	<path id="笠" class="st1" d="M19.1,3.8c-0.4,0-1.7-0.9-2.1-1.1s-1.1-0.2-1.1-0.2H14h-1.9c0,0-0.7-0.1-1.1,0.2S9.3,3.8,8.9,3.8
		c-0.4,0-0.9,0-0.9,0l0.4,1.9C8.4,5.9,8.6,6,8.9,6H14h5.1c0.3,0,0.5-0.1,0.5-0.3L20,3.8C20,3.8,19.6,3.8,19.1,3.8z"/>
	<path id="宝珠" class="st1" d="M15.9,1.9c-0.1-1.1-1.6-1.7-1.6-1.7L14,0l-0.3,0.1c0,0-1.4,0.6-1.6,1.7c-0.1,0.6,0.3,0.8,0.3,0.8
		H14h1.6C15.6,2.7,15.9,2.4,15.9,1.9z"/>
	<g id="地面_00000085960540020044898610000002193894466238366089_">
		<path id="草_00000050658507514173148250000014360179358624052912_" class="st5" d="M2.4,29c-0.4-1.3-0.5-2.2-1.3-3.5
			C2.8,25.4,3.5,27.9,2.4,29L2.4,29z"/>
		<path id="草_00000179627912085844586860000016558588140227868062_" class="st5" d="M26.6,29c-1.1-1.1-0.4-3.6,1.3-3.5
			C27.1,26.8,27,27.7,26.6,29L26.6,29z"/>
		<path id="草_00000151529837931384215080000007510860043949423779_" class="st5" d="M25.8,29.5c-1.2-2.3-0.6-6.1,2.1-7
			C26.2,24.6,26.2,27,25.8,29.5L25.8,29.5z"/>
		<rect id="地面" y="28" class="st6" width="28" height="2"/>
	</g>
	<path id="竿" class="st1" d="M16,15c0.2-2.7,1-3,1-3h-3h-3c0,0,0.7,0.3,1,3c0.2,2.7-2,5-2,5h4h4C18,20,15.8,17.7,16,15z"/>
	<path id="火袋" class="st1" d="M11,6v5h6V6H11z M15,9h-2V7h2V9z"/>
	<rect id="中台" x="10" y="11" class="st1" width="8" height="2"/>
	<g id="基礎_xFF11_">
		<g>
			<rect x="4" y="24" class="st7" width="20" height="4"/>
		</g>
		<g>
			<rect x="4" y="25" class="st1" width="20" height="3"/>
		</g>
	</g>
	<g id="基礎2">
		<rect x="7" y="20" class="st7" width="14" height="4"/>
		<rect x="7" y="21" class="st1" width="14" height="3"/>
	</g>
</g>

<g id="要調査">
	<path id="白ベール" class="st10" d="M28,30H0V12.6C0,5.6,5.6,0,12.6,0H16c6.6,0,12,5.4,12,12V30z"/>
	<g>
		<path class="st11" d="M27.1,21.6l-7.5,7.5c-1.2,1.2-3.1,1.2-4.2,0l-7.5-7.5c-1.2-1.2-1.2-3.1,0-4.2l7.5-7.5c1.2-1.2,3.1-1.2,4.2,0
			l7.5,7.5C28.3,18.5,28.3,20.5,27.1,21.6z"/>
		<g>
			<path d="M18.7,23.8c0,0.7-0.6,1.3-1.2,1.3s-1.3-0.6-1.3-1.3c0-0.7,0.6-1.2,1.3-1.2S18.7,23.1,18.7,23.8z M18.2,21
				c-0.1,0.5-0.2,0.8-0.7,0.8c-0.5,0-0.6-0.4-0.7-0.8l-0.5-3.5V15c0-0.8,0.4-1.1,1.2-1.1c0.7,0,1.1,0.3,1.1,1.1v2.5L18.2,21z"/>
		</g>
	</g>
</g>

</svg>