<?xml version="1.0" encoding="UTF-8"?>
<svg xmlns="http://www.w3.org/2000/svg" viewBox="0 0 28 40">
  <defs>
    <style>
      .cls-1, .cls-2 {
        fill: #fff;
      }

      .cls-2 {
        opacity: .3;
      }

      .cls-3 {
        fill: #e2cb5a;
      }

      .cls-4 {
        fill: #756e6d;
      }

      .cls-5 {
        fill: #39b54a;
      }

      .cls-6 {
        fill: gray;
      }

      .cls-7 {
        fill: #ffce00;
      }

      .cls-8 {
        fill: #a96e2d;
      }

      .cls-9 {
        fill: #ccc;
      }
    </style>
  </defs>
  <g id="_ピン" data-name="ピン">
    <g>
      <g>
        <polygon class="cls-6" points="15 40 13 40 12 30 16 30 15 40"/>
        <rect class="cls-9" x="14" y="30" width="1" height="10"/>
      </g>
      <g>
        <rect class="cls-6" x="12" y="20" width="4" height="10"/>
        <rect class="cls-9" x="14" y="20" width="1" height="10"/>
      </g>
    </g>
  </g>
  <g id="_ノーマル" data-name="ノーマル">
    <path id="_石" data-name="石" class="cls-4" d="M.01,10.12c.17-2.49,1.4-4.51,3.94-5.63S11.38,.38,17.56,.18s10.37,4.3,10.44,7.68-2.09,10.14-12.88,10.14S-.25,14,.01,10.12Z"/>
    <g id="_注連縄" data-name="注連縄">
      <g id="_縄" data-name="縄">
        <path class="cls-3" d="M3.04,3.51h.1c.85,0,1.54,.69,1.54,1.54v3.37h-.1c-.85,0-1.54-.69-1.54-1.54V3.51h0Z" transform="translate(-3.09 4.47) rotate(-45)"/>
        <path class="cls-3" d="M5.5,3.51h.1c.85,0,1.54,.69,1.54,1.54v3.37h-.1c-.85,0-1.54-.69-1.54-1.54V3.51h0Z" transform="translate(-2.37 6.21) rotate(-45)"/>
        <path class="cls-3" d="M7.95,3.51h.1c.85,0,1.54,.69,1.54,1.54v3.37h-.1c-.85,0-1.54-.69-1.54-1.54V3.51h0Z" transform="translate(-1.65 7.95) rotate(-45)"/>
        <path class="cls-3" d="M10.41,3.51h.1c.85,0,1.54,.69,1.54,1.54v3.37h-.1c-.85,0-1.54-.69-1.54-1.54V3.51h0Z" transform="translate(-.93 9.69) rotate(-45)"/>
        <path class="cls-3" d="M12.87,3.51h.1c.85,0,1.54,.69,1.54,1.54v3.37h-.1c-.85,0-1.54-.69-1.54-1.54V3.51h0Z" transform="translate(-.21 11.42) rotate(-45)"/>
      </g>
      <g id="_縄-2" data-name="縄">
        <path class="cls-3" d="M15.04,3.51h.1c.85,0,1.54,.69,1.54,1.54v3.37h-.1c-.85,0-1.54-.69-1.54-1.54V3.51h0Z" transform="translate(.43 12.96) rotate(-45)"/>
        <path class="cls-3" d="M17.5,3.51h.1c.85,0,1.54,.69,1.54,1.54v3.37h-.1c-.85,0-1.54-.69-1.54-1.54V3.51h0Z" transform="translate(1.15 14.7) rotate(-45)"/>
        <path class="cls-3" d="M19.95,3.51h.1c.85,0,1.54,.69,1.54,1.54v3.37h-.1c-.85,0-1.54-.69-1.54-1.54V3.51h0Z" transform="translate(1.87 16.43) rotate(-45)"/>
        <path class="cls-3" d="M22.41,3.51h.1c.85,0,1.54,.69,1.54,1.54v3.37h-.1c-.85,0-1.54-.69-1.54-1.54V3.51h0Z" transform="translate(2.59 18.17) rotate(-45)"/>
        <path class="cls-3" d="M24.87,3.51h.1c.85,0,1.54,.69,1.54,1.54v3.37h-.1c-.85,0-1.54-.69-1.54-1.54V3.51h0Z" transform="translate(3.31 19.91) rotate(-45)"/>
      </g>
      <g id="_紙垂" data-name="紙垂">
        <rect class="cls-1" x="8.52" y="7.04" width="1.51" height="3.03" transform="translate(9.79 21.17) rotate(-135)"/>
        <rect class="cls-1" x="8.52" y="9.31" width="1.51" height="3.03" transform="translate(8.18 25.05) rotate(-135)"/>
        <rect class="cls-1" x="8.52" y="11.59" width="1.51" height="3.03" transform="translate(6.57 28.92) rotate(-135)"/>
      </g>
      <g id="_紙垂-2" data-name="紙垂">
        <rect class="cls-1" x="17.43" y="7.13" width="1.51" height="3.03" transform="translate(30.04 24.94) rotate(-151.47)"/>
        <rect class="cls-1" x="18.08" y="9.31" width="1.51" height="3.03" transform="translate(30.21 29.34) rotate(-151.47)"/>
        <rect class="cls-1" x="18.72" y="11.49" width="1.51" height="3.03" transform="translate(30.38 33.74) rotate(-151.47)"/>
      </g>
      <polygon id="_筋" data-name="筋" class="cls-3" points="13.76 7 12.76 14 14.76 14 13.76 7"/>
      <polygon id="_筋-2" data-name="筋" class="cls-3" points="5.94 7.09 3.6 13.76 5.56 14.15 5.94 7.09"/>
      <polygon id="_筋-3" data-name="筋" class="cls-3" points="22.6 7.09 24.94 13.76 22.98 14.15 22.6 7.09"/>
    </g>
    <g id="_地面" data-name="地面">
      <path id="_草" data-name="草" class="cls-5" d="M2.4,19c-.44-1.34-.51-2.22-1.31-3.5,1.67-.06,2.41,2.38,1.31,3.5h0Z"/>
      <path id="_草-2" data-name="草" class="cls-5" d="M26.58,19c-1.1-1.12-.36-3.56,1.31-3.5-.8,1.28-.87,2.16-1.31,3.5h0Z"/>
      <path id="_草-3" data-name="草" class="cls-5" d="M25.82,19.5c-1.16-2.29-.63-6.07,2.07-7-1.67,2.1-1.73,4.49-2.07,7h0Z"/>
      <rect id="_地面-2" data-name="地面" class="cls-8" y="18" width="28" height="2"/>
    </g>
  </g>
  <g id="_要調査" data-name="要調査">
    <path id="_白ベール" data-name="白ベール" class="cls-2" d="M7.15,0h14.96c3.25,0,5.89,2.64,5.89,5.89v14.11H0V7.15C0,3.2,3.2,0,7.15,0Z"/>
    <g>
      <rect class="cls-7" x="9.19" y="11.19" width="16.61" height="16.61" rx="3" ry="3" transform="translate(-8.66 18.08) rotate(-45)"/>
      <path d="M18.75,23.83c0,.7-.56,1.26-1.25,1.26s-1.25-.56-1.25-1.26,.56-1.25,1.25-1.25,1.25,.56,1.25,1.25Zm-.57-2.88c-.07,.46-.16,.78-.69,.78s-.61-.35-.66-.78l-.46-3.49v-2.5c0-.78,.42-1.05,1.16-1.05s1.11,.31,1.11,1.05v2.5l-.46,3.49Z"/>
    </g>
  </g>
</svg>