<?xml version="1.0" encoding="utf-8"?>
<!-- Generator: Adobe Illustrator 27.1.1, SVG Export Plug-In . SVG Version: 6.00 Build 0)  -->
<svg version="1.1" xmlns="http://www.w3.org/2000/svg" xmlns:xlink="http://www.w3.org/1999/xlink" x="0px" y="0px" viewBox="0 0 28 40" style="enable-background:new 0 0 28 40;" xml:space="preserve">
<style type="text/css">
	.st0{display:none;}
	.st1{fill:#808080;}
	.st2{fill:#CCCCCC;}
	.st3{display:inline;fill:#808080;}
	.st4{display:inline;fill:#CCCCCC;}
	.st5{fill:#39B54A;}
	.st6{fill:#A96E2D;}
	.st7{fill:#999999;}
	.st8{fill:#333333;}
	.st9{fill:#1B1464;}
	.st10{fill:#FFFFFF;}
	.st11{fill:#2E3192;}
	.st12{opacity:0.3;fill:#FFFFFF;}
	.st13{fill:#FFCE00;}
	.st14{fill:#848484;}
	.st15{fill:#797979;}
	.st16{fill:#FF0000;}
	.st17{fill:#F2F2F2;}
</style>
<g id="ガイド_00000162338702563158607440000009963323815856875396_" class="st0">
</g>
<g id="ピン">
	<g>
		<g>
			<polygon class="st1" points="15,40 13,40 12,30 16,30 			"/>
			<rect x="14" y="30" class="st2" width="1" height="10"/>
		</g>
		<g class="st0">
			<rect x="12" y="20" class="st3" width="4" height="10"/>
			<rect x="14" y="20" class="st4" width="1" height="10"/>
		</g>
	</g>
</g>
<g id="ノーマル">
	<g id="地面_00000171703516658030370300000004728640655407702406_">
		<path id="草_00000050658507514173148250000014360179358624052912_" class="st5" d="M2.4,29c-0.4-1.3-0.5-2.2-1.3-3.5
			C2.8,25.4,3.5,27.9,2.4,29L2.4,29z"/>
		<path id="草_00000179627912085844586860000016558588140227868062_" class="st5" d="M26.6,29c-1.1-1.1-0.4-3.6,1.3-3.5
			C27.1,26.8,27,27.7,26.6,29L26.6,29z"/>
		<path id="草_00000151529837931384215080000007510860043949423779_" class="st5" d="M25.8,29.5c-1.2-2.3-0.6-6.1,2.1-7
			C26.2,24.6,26.2,27,25.8,29.5L25.8,29.5z"/>
		<rect id="地面_00000125560456868431405000000007692527408937609860_" y="28" class="st6" width="28" height="2"/>
	</g>
	<polygon id="本体" class="st7" points="14,0 8,4 8,28 20,28 20,4 	"/>
	<g id="参道">
		<path class="st8" d="M13.5,6.7C13.5,6.7,13.5,6.7,13.5,6.7c0-0.1,0-0.2,0.1-0.2c0,0,0,0,0,0c0,0,0.1-0.1,0.1-0.1c0,0,0.1,0,0.2,0
			h0c0.2,0,0.5,0.3,0.5,0.5v0c0,0.1-0.1,0.2-0.3,0.3c-0.1,0.1-0.2,0.1-0.3,0.2c0,0-0.2,0.2-0.3,0.3c-0.1,0.1-0.3,0.2-0.3,0.2
			c0,0,0,0,0,0c0.1,0,0.2,0,0.4-0.1c0.6-0.2,0.9-0.2,1.1-0.4c0,0,0.1-0.1,0.1-0.1c0,0,0,0,0,0c0,0,0,0,0-0.1v0
			c0-0.1-0.1-0.1-0.1-0.1c0,0,0,0,0.1-0.1C14.9,7,15,7,15.1,7c0.1,0,0.2,0,0.4,0.1c0.2,0.1,0.2,0.2,0.3,0.3c0.1,0.1,0.1,0.2,0.1,0.3
			c0,0.1-0.1,0.2-0.2,0.2c-0.1,0-0.2,0-0.3-0.1c0,0,0,0-0.1-0.1c-0.1,0-0.1-0.1-0.1-0.1c0-0.1-0.1-0.1-0.2-0.2l-0.1-0.1v0.1
			c0,0.1-0.2,0.3-0.3,0.4c-0.1,0-0.2,0.1-0.2,0.1c-0.1,0-0.3,0.1-0.4,0.2c-0.1,0.1-0.3,0.1-0.3,0.1c0,0,0,0,0,0c0,0,0,0,0.1,0.1
			c0.1,0,0.2,0.1,0.2,0.1l0.1,0l0.2,0c0.1,0,0.1,0,0.2,0c0.1,0,0.1,0,0.2,0c0,0,0,0,0.1,0c0,0,0.1,0,0.1,0h0c0.2,0,0.3,0,0.4-0.1
			c0,0,0.1,0,0.1,0c0,0,0.1,0,0.2,0.1c0.3,0.1,0.4,0.2,0.4,0.3c0,0,0,0,0,0c0,0,0,0,0,0.1c0,0,0,0,0,0.1c0,0,0,0.1-0.1,0.1
			c0,0-0.1,0.1-0.1,0.1c0,0-0.1,0-0.1,0h0c-0.1,0-0.3,0-0.4,0C15.1,9,15,9,15,9c-0.1,0-0.2,0-0.4,0c0,0-0.1,0-0.1,0
			c-0.1,0-0.3,0.1-0.3,0.1c0,0,0,0,0,0c0,0,0.4,0.2,0.6,0.3c0.1,0,0.1,0.1,0.2,0.1l0,0c0,0,0.2,0.1,0.3,0.2c0,0,0.1,0.1,0.2,0.2
			c0.1,0.1,0.2,0.1,0.3,0.2c0.2,0.1,0.3,0.2,0.4,0.3c0.2,0.2,0.5,0.4,0.8,0.5c0.1,0,0.1,0,0.2,0.1c0,0,0.1,0.1,0.2,0.1
			c0,0,0.1,0,0.1,0c0,0,0.1,0,0.1,0c0,0,0.1,0,0.1,0l0.1,0c0,0,0.1,0.1,0.2,0.1c0.1,0.1,0.2,0.1,0.4,0.2c0,0,0.1,0.1,0.1,0.1v0
			c0,0.1,0,0.1-0.1,0.1c0,0-0.1,0-0.1,0h0c0,0-0.1,0-0.1,0l-0.1,0c-0.2,0-0.4-0.1-0.5-0.1c-0.1,0-0.1,0-0.2,0
			c-0.1,0-0.1-0.1-0.2-0.1c-0.1,0-0.2-0.1-0.3-0.1c-0.1,0-0.1-0.1-0.2-0.1c-0.2-0.1-0.5-0.4-0.8-0.7c-0.1-0.1-0.2-0.2-0.2-0.2
			c-0.3-0.3-0.6-0.6-0.8-0.7c0,0-0.1-0.1-0.1-0.1c-0.2-0.1-0.3-0.3-0.4-0.4c0-0.1-0.1-0.1-0.1-0.1h0c-0.1,0-0.2,0.1-0.3,0.2
			c0,0-0.1,0.1-0.1,0.1c0,0,0,0,0,0c0,0,0,0,0,0v0c0,0,0,0,0,0c0,0,0,0,0,0c0,0.1,0,0.2-0.1,0.3c-0.1,0.1-0.1,0.2-0.1,0.2
			c0,0,0,0.1,0,0.1l0,0c0,0-0.1,0.1-0.1,0.1l0,0c0,0.1-0.1,0.2-0.2,0.2c-0.1,0-0.2,0.1-0.3,0.3c-0.3,0.3-0.6,0.6-1.2,0.9
			c-0.1,0-0.3,0.2-0.4,0.2c0,0-0.1,0-0.1,0c0,0-0.6,0.2-0.7,0.2c0,0-0.1,0-0.1,0c0,0-0.1,0-0.2,0c0,0-0.1,0-0.2,0
			c-0.1,0-0.1,0-0.2,0c-0.1,0-0.1,0-0.1,0c-0.1,0-0.1,0-0.1,0c0,0,0,0,0.1,0c0,0,0.1,0,0.2-0.1c0.1,0,0.2-0.1,0.4-0.1
			c0.3-0.1,0.6-0.3,0.9-0.4c0.6-0.4,1.3-1.1,1.6-1.4C12.8,9.9,13,9.5,13,9.4v0c0,0-0.1,0-0.2,0.1c0,0-0.1,0-0.1,0c0,0-0.1,0-0.1,0.1
			c-0.1,0-0.1,0.1-0.2,0.1c-0.2,0.1-0.3,0.1-0.4,0.1c-0.1,0-0.1-0.1-0.2-0.2c0-0.1,0-0.1,0-0.2c0-0.1,0-0.1,0.1-0.1
			c0.1,0,0.1,0,0.2,0c0,0,0.1,0,0.1,0c0,0,0.1,0,0.1,0c0,0,0.1,0,0.2-0.1c0.1,0,0.2-0.1,0.2-0.1c0,0,0.1,0,0.1,0c0,0,0,0,0.1-0.1
			c0.1,0,0.6-0.2,0.6-0.3v0c0-0.1-0.2-0.3-0.2-0.3c0,0-0.1,0-0.3,0.1c-0.2,0.1-0.3,0.1-0.3,0.1c0,0,0,0-0.1,0
			c-0.1,0-0.2-0.2-0.2-0.3c0,0,0-0.1,0-0.1c0-0.1,0.1-0.2,0.3-0.4c0.2-0.2,0.6-0.6,0.8-0.9C13.5,6.9,13.5,6.8,13.5,6.7L13.5,6.7z
			 M13.6,10.8c0.1-0.1,0.2-0.3,0.3-0.4c0-0.1,0-0.1,0.1-0.1c0.1-0.1,0.1-0.1,0.1-0.2c0,0,0,0,0-0.1v0c0,0,0,0,0,0c0,0,0,0,0,0
			c0.2,0,0.4,0.2,0.4,0.3v0c0,0.1-0.1,0.3-0.4,0.5c-0.2,0.1-0.6,0.5-0.6,0.5c0,0,0,0,0,0c0,0,0,0,0,0c0,0,0.1,0,0.1,0
			c0.1,0,0.3-0.1,0.5-0.1l0.3,0l0.1,0c0.2,0.1,0.2,0.1,0.2,0.2c0,0.1-0.1,0.2-0.2,0.3c-0.1,0.1-0.2,0.2-0.2,0.2c0,0-0.1,0-0.2,0.1
			c-0.1,0-0.2,0.2-0.3,0.3c-0.1,0.1-0.2,0.2-0.2,0.2c0,0,0,0,0,0c0,0,0,0,0,0c0,0,0.2-0.1,0.5-0.1l0.4-0.1c0,0,0.1,0,0.1,0
			c0.1,0,0.2,0,0.3,0.1c0.1,0,0.1,0.1,0.1,0.1l0,0c0,0,0,0.1,0,0.1c0,0.1,0,0.3-0.1,0.3c0,0,0,0,0,0c0,0,0,0.1-0.1,0.1
			c0,0.1-0.1,0.2-0.1,0.2c0,0-0.1,0.1-0.1,0.1c0,0-0.1,0.1-0.1,0.1l0,0c0,0-0.1,0.1-0.2,0.2c-0.1,0.1-0.2,0.2-0.4,0.3
			c0,0-0.1,0.1-0.1,0.1c-0.1,0.1-0.2,0.1-0.4,0.3c0,0-0.1,0.1-0.1,0.1c-0.1,0.1-0.2,0.1-0.2,0.1c0,0-0.2,0.1-0.2,0.1
			c-0.1,0.1-0.2,0.1-0.3,0.1c-0.1,0-0.2,0.1-0.2,0.1c0,0-0.1,0-0.1,0c0,0,0-0.1,0.1-0.1c0,0,0.1-0.1,0.1-0.1c0.2-0.2,1.1-1,1.1-1
			l0.1-0.1c0.2-0.2,0.6-0.7,0.6-0.8c0.1-0.1,0.1-0.1,0.1-0.2c0,0,0,0-0.1,0c0,0,0,0-0.1,0l-0.1,0c-0.1,0-0.5,0.1-0.6,0.2
			c0,0,0,0-0.1,0c0,0-0.1,0-0.1,0c-0.2,0-0.2,0.1-0.3,0.1c0,0-0.1,0.1-0.1,0.1c0,0,0,0,0,0c0,0-0.1-0.1-0.1-0.2c0-0.1,0-0.3,0.1-0.3
			c0.1,0,0.5-0.5,0.9-0.9c0.1-0.1,0.1-0.1,0.1-0.2c0,0,0,0,0,0c0,0,0,0-0.1,0c0,0,0,0-0.1,0c0,0-0.1,0-0.1,0h0c0,0-0.1,0-0.3,0.1
			c-0.1,0-0.3,0.1-0.3,0.1c-0.1,0-0.1,0-0.1,0h0c0,0-0.1-0.1-0.1-0.2v0c0,0,0-0.1,0-0.1C13,11.4,13.1,11.2,13.6,10.8z"/>
		<path class="st8" d="M17,23.5c-0.1,0-0.1,0-0.2,0c-0.1,0-0.2,0-0.3,0c0,0-0.1,0-0.2,0c-0.2,0-0.5-0.1-0.6-0.2
			c-0.1-0.1-0.4-0.2-0.5-0.2c-0.1-0.1-0.3-0.1-0.4-0.1c-0.1,0-0.3-0.1-0.5-0.2c-0.1-0.1-0.3-0.1-0.3-0.1s-0.1,0-0.1,0l-0.1,0
			c-0.2,0-0.3-0.1-0.3-0.1c0,0-0.1,0-0.1,0c0,0-0.1,0-0.1,0c0,0-0.1,0-0.1,0c-0.1,0-0.2,0-0.2,0s-0.2,0-0.4,0c-0.3,0-0.6,0-0.7,0
			c-0.1,0-0.4,0.1-0.9,0.3c-0.2,0.1-0.3,0.1-0.4,0.1c-0.1,0-0.1,0-0.2-0.1c0,0-0.1-0.1-0.1-0.1c0,0,0.1-0.1,0.1-0.1
			c0.1-0.1,0.1-0.1,0.1-0.1c0,0,0.1,0,0.1-0.1c0.1-0.1,0.5-0.2,0.7-0.3c0.2-0.1,0.3-0.1,0.4-0.1c0.2,0,0.2,0,0.4-0.2
			c0.1-0.1,0.1-0.2,0.1-0.2s-0.1-0.1-0.3-0.2c-0.2-0.1-0.3-0.2-0.5-0.3c-0.3-0.3-0.4-0.6-0.4-1.2v-0.3l-0.1,0c0,0,0,0,0,0.1
			c0,0,0,0,0,0c0,0-0.1,0-0.1,0c0,0,0,0,0,0c0,0-0.1-0.1-0.1-0.1c0,0-0.1-0.1-0.1-0.1c0,0,0-0.1,0-0.1c0,0,0,0,0-0.1
			c0,0,0.1-0.1,0.1-0.1c0,0,0.1-0.1,0.1-0.2c0.1-0.6,0.2-1,0.4-1.6c0-0.1-0.1-0.3-0.3-0.4c-0.1,0-0.1-0.1-0.1-0.1s0-0.1,0.1-0.1
			c0,0,0.1-0.1,0.1-0.1c0,0,0.1,0,0.1,0c0,0,0.1,0,0.1,0s0.1,0,0.2,0.1c0.2,0.1,0.3,0.2,0.4,0.4c0,0,0,0,0,0.1c0,0,0,0.1-0.1,0.1
			c0,0-0.1,0.1-0.1,0.1l0,0h0c-0.1,0-0.2,0.2-0.2,0.3c0,0.1,0,0.1-0.1,0.2c0,0-0.1,0.2-0.1,0.3c0,0.2-0.1,0.6-0.2,0.8v0
			c0,0,0,0.1,0,0.1c0,0,0,0,0,0c0.1-0.1,0.1-0.1,0.2-0.1l0,0c0,0,0,0,0,0c0,0,0.1,0,0.2,0.1c0.1,0,0.1,0.1,0.1,0.1
			c0.1,0,0.2,0.2,0.2,0.3l0,0.1c0,0.1,0,0.2-0.1,0.3c-0.1,0.2-0.1,0.3-0.1,0.5c0,0.3,0,0.3,0.1,0.4c0.1,0.1,0.2,0.2,0.5,0.3
			c0.3,0.2,0.4,0.2,0.5,0.4c0.1,0.1,0.2,0.2,0.2,0.2l0,0.2c0,0,0,0.1,0,0.1h0.1c0,0,0.1,0,0.2,0c0.5,0,0.6,0.1,0.8,0.1
			c0.1,0,0.7,0.2,0.8,0.2c0.1,0,0.5,0.1,0.5,0.1l0,0c0,0,0,0,0,0c0,0,0-0.1,0-0.1c0,0,0-0.1,0-0.2c0-0.1,0-0.1,0-0.2
			c0,0,0-0.1,0-0.1c0,0,0,0,0,0h0c0.1,0,0.2-0.7,0.2-1.3c0-0.2,0-0.4,0-0.6c0-0.2,0-0.5-0.1-0.8c0-0.4,0-0.5-0.1-0.5
			c0,0-0.1,0-0.1,0.1c-0.1,0-0.1,0.1-0.2,0.1c0,0-0.1,0-0.1,0l0,0c0-0.1,0.1-0.1,0.2-0.3l0.2-0.2l0.1,0c0.1,0,0.3,0.1,0.4,0.2
			c0.1,0.1,0.2,0.8,0.2,1.3c0,0.1,0,0.1,0,0.3c0.1,0.3,0.1,0.7,0.1,1c0,0.2,0,0.3,0,0.5c0,0.2-0.2,0.7-0.3,0.9c0,0,0,0,0,0.1
			c0,0,0.3,0.1,1,0.1c0.1,0,0.4,0,0.5,0l0.3,0c0.4,0,0.4,0,0.6,0.1c0.1,0.1,0.2,0.1,0.2,0.2c0,0,0,0,0,0c0,0,0,0,0,0.1
			c0,0.1-0.1,0.2-0.2,0.2c0,0-0.1,0-0.1,0c-0.1,0-0.5,0.1-0.8,0.1C17.3,23.5,17.1,23.5,17,23.5z M14.9,15.5c0,0,0.2-0.1,0.3-0.2
			c0.1,0,0.2-0.1,0.2-0.1h0c0.2,0,0.3,0.1,0.4,0.1c0.1,0.1,0.2,0.2,0.2,0.4v0.1c0,0.1-0.1,0.2-0.2,0.3c-0.3,0.2-0.4,0.2-0.5,0.3
			c-0.2,0.1-0.4,0.2-0.5,0.3c-0.1,0-0.2,0.1-0.3,0.2c-0.2,0.2-0.3,0.2-0.6,0.5c-0.2,0.2-0.3,0.3-0.3,0.3h0c0,0,0,0,0.1,0
			c0,0,0.1-0.1,0.2-0.1c0.2-0.1,0.6-0.2,0.7-0.3c0.2-0.1,0.7-0.2,1-0.3c0.1,0,0.1,0,0.2-0.1h0c0.1,0,0.1-0.1,0.1-0.1c0,0,0,0,0.1,0
			c0.4,0.2,0.5,0.3,0.6,0.4c0,0,0,0.1,0,0.1c0,0,0,0.1-0.1,0.1c0,0-0.1,0-0.1,0c-0.1,0-0.1,0-0.2-0.1c-0.1,0-0.1,0-0.1,0
			c0,0-0.1,0-0.2,0.1c-0.2,0.1-0.5,0.2-0.6,0.3c-0.1,0.1-0.4,0.3-0.4,0.3c0,0-0.1,0.1-0.1,0.3c0,0.2,0,0.3,0,0.4
			c-0.1,0.2-0.1,0.3-0.1,0.4c0,0.1,0,0.1,0,0.1c0,0,0,0.1,0,0.1c0,0,0,0.1,0,0.1v0c0,0,0,0,0.1,0h0c0.2,0,0.4,0.1,0.5,0.1l0.1,0.1
			L15,19.8c-0.1,0.1-0.1,0.1-0.3,0.1c-0.1,0-0.1,0-0.2,0c-0.1,0-0.1,0-0.1,0c0,0,0,0,0,0c0,0,0,0-0.1,0.2c0,0.1,0,0.2,0,0.3
			c0,0.1,0,0.2,0,0.2c0,0,0.2,0,0.2,0c0.3,0,0.5,0.1,0.5,0.2c0,0,0,0,0,0c0,0.1-0.1,0.1-0.2,0.2c-0.1,0-0.2,0-0.3,0
			c-0.1,0-0.2,0-0.2,0c0,0,0,0,0,0c0,0,0,0,0,0v0c0,0.1,0,0.3,0.1,0.5c0,0.1,0,0.1,0.1,0.1c0,0,0,0,0,0c0.1,0,0.2-0.1,0.3-0.1h0
			c0.1,0,0.2,0,0.3,0.1c0,0,0.1,0.1,0.1,0.1c0,0.1-0.1,0.2-0.3,0.2c-0.1,0-0.2,0.1-0.2,0.1c-0.1,0-0.1,0-0.1,0c-0.1,0-0.1,0-0.1,0
			c0,0-0.1,0-0.1,0c0,0,0,0,0,0c-0.1,0-0.2-0.2-0.3-0.4c0-0.2-0.1-0.3-0.1-0.8c0-0.1,0-0.2,0-0.4c0-0.2,0-0.4,0-0.5
			c0-0.1,0-0.3,0-0.3c0,0,0-0.1,0-0.2v0c0-0.1,0-0.2,0.1-0.2c0,0,0-0.1,0-0.1c0,0,0-0.1,0-0.1c0,0,0.1-0.2,0.1-0.4
			c0.1-0.2,0.1-0.4,0.1-0.5c0-0.1,0.1-0.3,0.2-0.4c0,0,0.1-0.1,0.1-0.1c0,0,0,0,0,0s-0.1,0-0.2,0.1c-0.3,0.2-1,0.5-1,0.5
			s-0.3,0.1-0.3,0.2c-0.1,0-0.1,0.1-0.1,0.1c0,0-0.1,0.1-0.2,0.1c-0.1,0.1-0.1,0.1-0.1,0.1c0,0,0,0-0.1,0c-0.1-0.1-0.2-0.1-0.2-0.3
			c0-0.2,0.1-0.3,0.2-0.3c0.1,0,0.1,0,0.2-0.1c0,0,0,0,0.1,0c0,0,0,0,0,0c0.1,0,0.3-0.2,1.2-1.1c0.7-0.6,1-1,1-1.1
			c0,0,0-0.1-0.1-0.1c0,0-0.1,0-0.1-0.1C14.9,15.6,14.9,15.6,14.9,15.5C14.9,15.6,14.9,15.5,14.9,15.5z M13.3,16
			c0-0.2,0-0.2,0.1-0.3c0.1-0.1,0.1-0.1,0.1-0.1c0,0,0.1,0,0.1,0.1c0,0,0.1,0,0.1,0l0.1,0h0.1c0,0,0.1,0,0.1,0c0,0,0.1,0,0.1,0
			c0.1,0,0.1,0,0.1,0c0,0,0,0.1-0.1,0.1C14.1,16,14,16.1,14,16.1c-0.1,0.1-0.2,0.2-0.3,0.3c0,0-0.1,0-0.1,0c-0.1,0-0.1,0-0.2-0.2
			C13.3,16.2,13.3,16.1,13.3,16z"/>
	</g>
</g>



</svg>