<?xml version="1.0" encoding="utf-8"?>
<!-- Generator: Adobe Illustrator 27.1.1, SVG Export Plug-In . SVG Version: 6.00 Build 0)  -->
<svg version="1.1" xmlns="http://www.w3.org/2000/svg" xmlns:xlink="http://www.w3.org/1999/xlink" x="0px" y="0px" viewBox="0 0 28 40" style="enable-background:new 0 0 28 40;" xml:space="preserve">
<style type="text/css">
	.st0{display:none;}
	.st1{fill:#808080;}
	.st2{fill:#CCCCCC;}
	.st3{display:inline;fill:#808080;}
	.st4{display:inline;fill:#CCCCCC;}
	.st5{fill:#666666;}
	.st6{fill:#39B54A;}
	.st7{fill:#A96E2D;}
	.st8{fill:#1B1464;}
	.st9{fill:#FFFFFF;}
	.st10{fill:#2E3192;}
	.st11{opacity:0.3;fill:#FFFFFF;}
	.st12{fill:#FFCE00;}
	.st13{fill:#848484;}
	.st14{fill:#797979;}
	.st15{fill:#FF0000;}
	.st16{fill:#F2F2F2;}
</style>
<g id="ガイド_00000162338702563158607440000009963323815856875396_" class="st0">
</g>
<g id="ピン">
	<g>
		<g>
			<polygon class="st1" points="15,40 13,40 12,30 16,30 			"/>
			<rect x="14" y="30" class="st2" width="1" height="10"/>
		</g>
		<g class="st0">
			<rect x="12" y="20" class="st3" width="4" height="10"/>
			<rect x="14" y="20" class="st4" width="1" height="10"/>
		</g>
	</g>
</g>
<g id="ノーマル">
	<g id="基礎_00000072277134010801785860000005577093227009260453_">
		<rect x="3" y="26" class="st5" width="22" height="2"/>
	</g>
	<path id="宝珠" class="st1" d="M15.6,1.3c-0.1-0.8-1.4-1.2-1.4-1.2L14,0l-0.3,0.1c0,0-1.3,0.4-1.4,1.2c-0.1,0.4,0.2,0.6,0.2,0.6
		H14h1.4C15.4,1.9,15.7,1.7,15.6,1.3z"/>
	<polygon id="九輪" class="st5" points="15.1,2.6 16.2,1.8 14,1.8 14,1.8 11.8,1.8 12.9,2.6 12.9,6.4 12.3,6.8 12.4,7.2 12.4,8.7 
		14,8.7 14,8.7 15.6,8.7 15.6,7.2 15.7,6.8 15.1,6.4 	"/>
	<g id="_xFF11_">
		<rect x="8" y="21" class="st1" width="12" height="5"/>
	</g>
	<path id="屋根1" class="st1" d="M20.9,18.6c-0.6,0-2.3-0.9-2.9-1.1c-0.6-0.3-1.5-0.2-1.5-0.2H14h-2.5c0,0-0.9-0.1-1.5,0.2
		c-0.6,0.3-2.3,1.1-2.9,1.1s-1.1,0-1.1,0l0.5,1.9c0,0.2,0.4,0.3,0.7,0.3H14h6.8c0.4,0,0.7-0.1,0.7-0.3l0.5-1.9
		C22,18.6,21.4,18.6,20.9,18.6z"/>
	<g id="_xFF12_">
		<rect x="9" y="15" class="st1" width="10" height="2"/>
	</g>
	<path id="屋根2" class="st1" d="M20,12.6c-0.5,0-2-0.9-2.5-1.1s-1.3-0.2-1.3-0.2H14h-2.2c0,0-0.8-0.1-1.3,0.2s-2,1.1-2.5,1.1
		s-1,0-1,0l0.4,1.9c0,0.2,0.3,0.3,0.6,0.3H14h5.9c0.3,0,0.6-0.1,0.6-0.3l0.4-1.9C21,12.6,20.5,12.6,20,12.6z"/>
	<g id="_xFF13_">
		<rect x="10" y="9" class="st1" width="8" height="2"/>
	</g>
	<path id="屋根3" class="st1" d="M19.1,6.7c-0.4,0-1.7-0.9-2.1-1.1c-0.4-0.3-1.1-0.2-1.1-0.2H14h-1.9c0,0-0.7-0.1-1.1,0.2
		c-0.4,0.3-1.7,1.1-2.1,1.1c-0.4,0-0.9,0-0.9,0l0.4,1.9c0,0.2,0.3,0.3,0.5,0.3H14h5.1c0.3,0,0.5-0.1,0.5-0.3L20,6.7
		C20,6.7,19.6,6.7,19.1,6.7z"/>
	<g id="地面_00000097484892357282429260000006276544983522626711_">
		<path id="草_00000050658507514173148250000014360179358624052912_" class="st6" d="M2.4,29c-0.4-1.3-0.5-2.2-1.3-3.5
			C2.8,25.4,3.5,27.9,2.4,29L2.4,29z"/>
		<path id="草_00000179627912085844586860000016558588140227868062_" class="st6" d="M26.6,29c-1.1-1.1-0.4-3.6,1.3-3.5
			C27.1,26.8,27,27.7,26.6,29L26.6,29z"/>
		<path id="草_00000151529837931384215080000007510860043949423779_" class="st6" d="M25.8,29.5c-1.2-2.3-0.6-6.1,2.1-7
			C26.2,24.6,26.2,27,25.8,29.5L25.8,29.5z"/>
		<rect id="地面_00000075856115104007067790000004283249619424615089_" y="28" class="st7" width="28" height="2"/>
	</g>
</g>
<g id="画像なし">
	<g id="画像なし_00000093153185680917284380000000685577598505069481_">
		<path class="st8" d="M27.1,21.6l-7.5,7.5c-1.2,1.2-3.1,1.2-4.2,0l-7.5-7.5c-1.2-1.2-1.2-3.1,0-4.2l7.5-7.5c1.2-1.2,3.1-1.2,4.2,0
			l7.5,7.5C28.3,18.5,28.3,20.5,27.1,21.6z"/>
		<path id="カメラ" class="st9" d="M22,15.5h-1.5l-0.8-1.6c-0.1-0.2-0.3-0.4-0.6-0.4h-3.2c-0.2,0-0.5,0.1-0.6,0.4l-0.8,1.6H13
			c-0.9,0-1.5,0.7-1.5,1.5V22c0,0.9,0.7,1.5,1.5,1.5H22c0.9,0,1.5-0.7,1.5-1.5V17C23.5,16.2,22.8,15.5,22,15.5z M17.5,22
			c-1.4,0-2.5-1.1-2.5-2.5c0-1.4,1.1-2.5,2.5-2.5c1.4,0,2.5,1.1,2.5,2.5C20,20.9,18.9,22,17.5,22z"/>
		<g id="斜線">
			<rect x="10.3" y="18.6" transform="matrix(0.7071 0.7071 -0.7071 0.7071 18.7662 -7.0127)" class="st10" width="15" height="1"/>
			<rect x="9.6" y="19.4" transform="matrix(0.7071 0.7071 -0.7071 0.7071 19.0591 -6.3056)" class="st9" width="15" height="1"/>
		</g>
	</g>
</g>


</svg>