<?xml version="1.0" encoding="UTF-8"?>
<svg xmlns="http://www.w3.org/2000/svg" viewBox="0 0 28 40">
  <defs>
    <style>
      .cls-1 {
        fill: #fff;
      }

      .cls-2 {
        fill: #4d4d4d;
      }

      .cls-3 {
        fill: #e6b422;
      }

      .cls-4 {
        fill: #cc974a;
      }

      .cls-5 {
        fill: gray;
      }

      .cls-6 {
        fill: #0071bc;
      }

      .cls-7 {
        fill: #ccc;
      }

      .cls-8 {
        fill: #5b4313;
      }
    </style>
  </defs>
  <g id="_ピン" data-name="ピン">
    <g id="_ピン-2" data-name="ピン">
      <rect class="cls-5" x="12" y="20" width="4" height="10"/>
      <polygon class="cls-5" points="15 40 13 40 12 30 16 30 15 40"/>
      <rect class="cls-7" x="14" y="20" width="1" height="20"/>
    </g>
  </g>
  <g id="_ノーマル" data-name="ノーマル">
    <ellipse id="_袖" data-name="袖" class="cls-6" cx="3.91" cy="29.13" rx="3.91" ry="4.13"/>
    <g id="_胴" data-name="胴">
      <path id="_胴-2" data-name="胴" class="cls-1" d="M23.44,26.48c0-4.51-4.23-8.17-9.44-8.17s-9.44,3.66-9.44,8.17c0,.01,0,.03,0,.04h0v8.48H23.44v-8.48s0,0,0,0c0-.01,0-.03,0-.04Z"/>
      <path id="_胴-3" data-name="胴" class="cls-6" d="M22.41,26.48c0-4.51-3.78-8.17-8.44-8.17s-8.44,3.66-8.44,8.17c0,.01,0,.03,0,.04h0v8.48H22.41v-8.48s0,0,0,0c0-.01,0-.03,0-.04Z"/>
    </g>
    <path id="_右耳" data-name="右耳" class="cls-4" d="M9.46,11.96c-.22-.66-1.02-1.06-1.52-.33-.34,.49,.11,1.31,.13,1.48s-.37,1.49,.2,1.97c.5,.42,1.12,0,1.12,0,0,0,.26-1.45,.24-2.07s-.18-1.06-.18-1.06Z"/>
    <path id="_左耳" data-name="左耳" class="cls-4" d="M18.49,11.96c.22-.66,1.02-1.06,1.52-.33,.34,.49-.11,1.31-.13,1.48s.37,1.49-.2,1.97c-.5,.42-1.12,0-1.12,0,0,0-.26-1.45-.24-2.07s.18-1.06,.18-1.06Z"/>
    <ellipse id="_顔" data-name="顔" class="cls-4" cx="14.06" cy="12.94" rx="4.99" ry="5.37"/>
    <path id="_髪" data-name="髪" class="cls-8" d="M9.39,12.32s.23-2.33,1.03-2.78c1-.57,2.56-.15,3.66-.14s2.65-.48,3.34-.15,1.65,3.07,1.65,3.07v-3.13s-.16-1.23-.77-1.67c-.42-.29-.85-.65-.85-.65,0,0-.19-.24-.95-.66-.67-.38-1.19-.33-2.5-.33s-1.83,.16-2.33,.38c-.61,.27-.95,.55-.95,.55,0,0-1.13,.71-1.63,1.52s.3,4,.3,4Z"/>
    <path id="_髷" data-name="髷" class="cls-8" d="M15.75,4.05l-1.28,1.51c-.26,.3-.72,.3-.98,0l-1.28-1.51c-.2-.24-.2-.59,0-.83l1.28-1.51c.26-.3,.72-.3,.98,0l1.28,1.51c.2,.24,.2,.59,0,.83Z"/>
    <g id="_眉" data-name="眉">
      <path class="cls-2" d="M9.8,12.87l1.03-1.03c.21-.21,.55-.21,.77,0l1.74,1.74-3.54-.71Z"/>
      <path class="cls-2" d="M18.2,12.87l-1.03-1.03c-.21-.21-.55-.21-.77,0l-1.74,1.74,3.54-.71Z"/>
    </g>
    <g id="_髪飾り" data-name="髪飾り">
      <rect id="_髪飾り-2" data-name="髪飾り" class="cls-3" x="12.89" y="4.96" width="2.21" height="1"/>
      <path class="cls-3" d="M15.06,5.86l-.08-.91s.62,.09,1.13-.16c.56-.28,.54-.46,.84-.54,.48-.13,.76,.16,.76,.16,0,0,.07,.45-.21,.7-.38,.35-.55,.39-.96,.53-.38,.13-1.48,.22-1.48,.22Z"/>
      <path class="cls-3" d="M12.91,5.86l.08-.91s-.64,.08-1.16-.17c-.58-.28-.56-.47-.87-.55-.49-.13-.78,.16-.78,.16,0,0-.07,.45,.22,.71,.39,.35,.58,.4,.99,.54,.39,.14,1.53,.23,1.53,.23Z"/>
    </g>
    <g id="_袖-2" data-name="袖">
      <circle class="cls-1" cx="21.33" cy="21.09" r="6"/>
      <circle class="cls-6" cx="21.33" cy="21.09" r="5"/>
    </g>
    <path id="_塔" data-name="塔" class="cls-5" d="M28,6.36l-3-2.11V.5c0-.28-.22-.5-.5-.5s-.5,.22-.5,.5v3.75l-3,2.11h2v3.3h3v-3.3h2Z"/>
    <g id="_腕" data-name="腕">
      <path class="cls-4" d="M25.72,9.01s2.17-2.02,2.28-.49l-1.68,2.24c-.53,.71-1.45,1.15-2.22,1.08-.54,2.53-.11,12.06-3.91,10.47-2.92-1.22,2.64-11.66,2.64-11.66h.03c-.01-.06-.03-.13-.04-.21-.11-1.01,2.91-1.44,2.91-1.44Z"/>
    </g>
    <g id="_手" data-name="手">
      <path class="cls-4" d="M5.78,34.11c.09-.26,.02-.52-.15-.58l1.15,.38c.22,.07,.47-.08,.56-.34s-.02-.54-.24-.61l.66,.22c.22,.07,.47-.08,.56-.34s-.02-.54-.24-.61l-.66-.22c.22,.07,.47-.08,.56-.34s-.02-.54-.24-.61l-3.55-1.18,1.12,.1c.23,.02,.46-.18,.5-.46s-.11-.51-.34-.53c0,0-1.18-.28-1.61,.11s-.57,.59-.56,.63c.01,.07-.66,.75-.76,1.06s-.11,1.45,0,1.82c.12,.37,.19,.76,.89,1.26l1.89,.63c.17,.06,.38-.11,.47-.37Z"/>
    </g>
  </g>
</svg>