<?xml version="1.0" encoding="UTF-8"?>
<svg xmlns="http://www.w3.org/2000/svg" viewBox="0 0 28 40">
  <defs>
    <style>
      .cls-1, .cls-2 {
        fill: #fff;
      }

      .cls-3 {
        fill: #b08030;
      }

      .cls-4 {
        fill: #e0c192;
      }

      .cls-5 {
        fill: #7d5d3e;
      }

      .cls-2 {
        opacity: .3;
      }

      .cls-6 {
        fill: #f14b94;
      }

      .cls-7 {
        fill: #c1272d;
      }

      .cls-8 {
        fill: #604406;
      }

      .cls-9 {
        fill: #42210b;
      }

      .cls-10 {
        fill: gray;
      }

      .cls-11 {
        fill: #58391b;
      }

      .cls-12 {
        fill: #ffce00;
      }

      .cls-13 {
        fill: #ccc;
      }

      .cls-14 {
        fill: #ed1e79;
      }

      .cls-15 {
        fill: #321908;
      }

      .cls-16 {
        fill: #fcee21;
      }
    </style>
  </defs>
  <g id="_ピン" data-name="ピン">
    <g>
      <g>
        <polygon class="cls-10" points="15 40 13 40 12 30 16 30 15 40"/>
        <rect class="cls-13" x="14" y="30" width="1" height="10"/>
      </g>
      <g>
        <rect class="cls-10" x="12" y="20" width="4" height="10"/>
        <rect class="cls-13" x="14" y="20" width="1" height="10"/>
      </g>
    </g>
  </g>
  <g id="_ノーマル" data-name="ノーマル">
    <g>
      <path class="cls-14" d="M16.08,32.53c-.08,0-.17,0-.25,0-4.23-.08-7.68-.62-10.25-1.6C.89,29.14-.04,26.17,0,23.98c.04-2.19,1.35-3.41,2.4-4.38,.99-.92,1.6-1.54,1.6-2.6,0-1.16-.57-2.38-1.23-3.78-.83-1.77-1.77-3.78-1.77-6.22C1,2.49,5.62,0,14,0c3.03,0,12.95,.39,13.1,5.37,.06,1.89-.98,3.05-1.81,3.99-.75,.84-1.34,1.5-1.29,2.6,.04,1.08,.76,2.21,1.58,3.53,1.13,1.81,2.42,3.85,2.42,6.51,0,2.36-1.22,4.97-3.27,6.98-2.34,2.29-5.4,3.55-8.65,3.55ZM14,2c-3.31,0-11,.49-11,5,0,1.99,.8,3.71,1.58,5.37,.73,1.56,1.42,3.03,1.42,4.63,0,1.99-1.19,3.09-2.24,4.07-.97,.9-1.74,1.61-1.76,2.95-.05,2.28,1.36,3.92,4.29,5.04,2.36,.9,5.58,1.39,9.58,1.47,2.83,.09,5.45-1,7.46-2.97,1.67-1.64,2.67-3.72,2.67-5.56,0-2.08-1.07-3.79-2.11-5.45-.94-1.49-1.82-2.91-1.89-4.51-.08-1.91,.96-3.07,1.8-4.01,.75-.84,1.34-1.5,1.3-2.6-.07-2.25-5.64-3.43-11.1-3.43Z"/>
      <polygon id="_後髪" data-name="後髪" class="cls-15" points="9.71 12 18.43 12 25 31 3 31 9.71 12"/>
      <path id="_胴" data-name="胴" class="cls-6" d="M22.05,26.88c0-4.31-3.6-7.8-8.05-7.8s-8.05,3.49-8.05,7.8c0,.01,0,.03,0,.04h0v8.08H22.05v-8.08s0,0,0,0c0-.01,0-.03,0-.04Z"/>
      <path id="_右耳" data-name="右耳" class="cls-4" d="M9.69,13.03c-.21-.63-.97-1.02-1.45-.31-.32,.47,.1,1.25,.12,1.41s-.35,1.42,.19,1.88c.47,.41,1.07,0,1.07,0,0,0,.25-1.39,.23-1.97s-.17-1.01-.17-1.01Z"/>
      <path id="_左耳" data-name="左耳" class="cls-4" d="M18.31,13.03c.21-.63,.97-1.02,1.45-.31,.32,.47-.1,1.25-.12,1.41s.35,1.42-.19,1.88c-.47,.41-1.07,0-1.07,0,0,0-.25-1.39-.23-1.97s.17-1.01,.17-1.01Z"/>
      <ellipse id="_顔" data-name="顔" class="cls-4" cx="14.08" cy="13.96" rx="4.76" ry="5.12"/>
      <path id="_髪" data-name="髪" class="cls-9" d="M9.6,13.41s.22-2.22,.98-2.65c.95-.54,2.44-.15,3.49-.13s2.52-.46,3.18-.14,1.58,2.93,1.58,2.93c0,0,1.16-2.41,.16-3.41l-1.71-1.79s-.14-1.42-.95-1.96-1.02-.47-2.26-.47-1.65-.07-2.4,.61-.81,1.76-.81,1.76c0,0-.63,.99-1.1,1.76s-.16,3.5-.16,3.5Z"/>
      <g id="_髷" data-name="髷">
        <ellipse class="cls-15" cx="16.5" cy="6.5" rx="2" ry="2.5"/>
        <ellipse class="cls-15" cx="11.5" cy="6.5" rx="2" ry="2.5"/>
      </g>
      <g id="_宝冠" data-name="宝冠">
        <path id="_宝冠上" data-name="宝冠上" class="cls-3" d="M18,5.86s-1.51,.11-2.13,.88c-.03,.04-.06,.09-.09,.14,0-.39-.05-.99-.32-1.5-.43-.83-1.45-1.38-1.45-1.38,0,0-1.13,.48-1.62,1.44-.18,.36-.2,.99-.19,1.42-.03-.04-.05-.09-.08-.13-.61-.76-2.13-.88-2.13-.88,0,0,.63,1.2,.72,1.86,.1,.76,.05,1.28,.05,1.28l1.62-.2,.02,.19,3.14-.02,.02-.17,1.65,.2s-.05-.53,.05-1.28c.09-.66,.72-1.86,.72-1.86Z"/>
        <rect id="_宝石" data-name="宝石" class="cls-16" x="13.03" y="6.19" width="2.09" height="2.09" transform="translate(-1 12.08) rotate(-45)"/>
      </g>
      <g id="_眉目" data-name="眉目">
        <g id="_眉" data-name="眉">
          <path id="_眉-2" data-name="眉" class="cls-8" d="M13.53,13c-.87-1.1-2.43-1.01-3.33,0,.62-1.29,2.74-1.38,3.33,0h0Z"/>
          <path id="_眉-3" data-name="眉" class="cls-8" d="M14.47,13c.59-1.38,2.7-1.29,3.33,0-.9-1.01-2.46-1.1-3.33,0h0Z"/>
        </g>
        <g id="_目" data-name="目">
          <path class="cls-8" d="M10.54,13.95s.39-1.12,1.19-1.08,1.51,1.08,1.51,1.08c0,0-.72,.72-1.35,.72s-1.35-.72-1.35-.72Z"/>
          <path class="cls-8" d="M17.46,13.95s-.39-1.12-1.19-1.08-1.51,1.08-1.51,1.08c0,0,.72,.72,1.35,.72s1.35-.72,1.35-.72Z"/>
        </g>
      </g>
      <g id="_琵琶" data-name="琵琶">
        <g id="_琵琶-2" data-name="琵琶">
          <g>
            <path class="cls-5" d="M26.24,17.4l-1.97,1.34-.43,.19-.89-1.69c-.14-.27-.44-.39-.68-.27s-.3,.44-.16,.71l.86,1.64-6.92,3.11s-4.8,.02-8.09,.5c-3.29,.48-5.8,1.38-7.11,3.11-1.58,2.08-.56,4.67-.05,5.65s2.07,3.29,4.68,3.17c2.17-.1,4.34-1.65,6.6-4.09,2.26-2.44,5.01-6.38,5.01-6.38l6.49-3.93,.86,1.64c.14,.27,.44,.39,.68,.27s.3-.44,.16-.71l-.89-1.69,.41-.25,2.22-.85,.03-.95-.8-.51Z"/>
            <path class="cls-11" d="M2.35,24.71c.65,1,2.08,3.23,2.85,4.7,.81,1.54,1.94,3.97,2.38,4.91,1.26-.57,2.53-1.55,3.83-2.86-.53-1.15-1.39-2.97-2.05-4.23s-1.64-2.98-2.31-4.14c-1.9,.34-3.49,.86-4.7,1.62Z"/>
          </g>
          <path class="cls-1" d="M3.62,31.57c-.09,0-.17-.04-.22-.12-.07-.12-.03-.27,.09-.34l14.56-8.47L2.83,29.84c-.12,.06-.27,0-.33-.12-.06-.12,0-.27,.12-.33l20.55-9.72c.12-.05,.27,0,.33,.11,.06,.12,.02,.27-.1,.33L3.75,31.54s-.08,.03-.13,.03Z"/>
        </g>
        <polygon id="_撥" data-name="撥" class="cls-1" points="10.42 28.15 7.34 26.61 6.18 24.87 4.52 25.97 5.67 27.72 5.89 31.15 10.42 28.15"/>
        <path id="_左手" data-name="左手" class="cls-4" d="M19.63,19.85c-.28,.17-.17,1.28,.13,2.39,.13,.46,.86,.83,1.53,.77l.21-.02c.47-.04,.8-.29,.74-.61-.04-.2-.02-.39,.04-.58l-.16-.72c-.24-.06-.32-.09-.32-.09,0,0,.31-1.03,.29-1.26-.02-.17-.03-.27-.23-.32-.3-.07-.68,.39-.68,.39,0,0,0-.39-.3-.42-.37-.04-.64,.7-.64,.7,0,0-.13-.32-.4-.35-.11-.01-.18,.09-.22,.11Z"/>
        <path id="_右手" data-name="右手" class="cls-4" d="M3.55,25.21c-.26-.2-.02-1.29,.4-2.35,.18-.45,.95-.73,1.61-.59l.21,.04c.46,.1,.76,.38,.66,.69-.06,.2-.06,.39-.02,.58l-.24,.69c-.25,.03-.33,.06-.33,.06,0,0,.19,1.06,.15,1.28-.03,.17-.07,.27-.26,.29-.31,.04-.63-.47-.63-.47,0,0-.05,.39-.34,.38-.37,0-.56-.77-.56-.77,0,0-.17,.31-.44,.3-.11,0-.17-.11-.2-.13Z"/>
      </g>
      <polygon id="_口" data-name="口" class="cls-7" points="14.22 16 14 16.09 13.78 16 13 16.36 14 17 14 17 14.54 16.65 15 16.36 14.22 16"/>
    </g>
  </g>
  <g id="_要調査" data-name="要調査">
    <path class="cls-2" d="M8.07,0h11.72C24.32,0,28,3.68,28,8.21V29.83c0,2.85-2.32,5.17-5.17,5.17H3.71c-2.05,0-3.71-1.66-3.71-3.71V8.07C0,3.61,3.61,0,8.07,0Z"/>
    <g>
      <rect class="cls-12" x="9.19" y="15.96" width="16.61" height="16.61" rx="3" ry="3" transform="translate(-12.03 19.48) rotate(-45)"/>
      <path d="M18.75,28.59c0,.7-.56,1.26-1.25,1.26s-1.25-.56-1.25-1.26,.56-1.25,1.25-1.25,1.25,.56,1.25,1.25Zm-.57-2.88c-.07,.46-.16,.78-.69,.78s-.61-.35-.66-.78l-.46-3.49v-2.5c0-.78,.42-1.05,1.16-1.05s1.11,.31,1.11,1.05v2.5l-.46,3.49Z"/>
    </g>
  </g>
</svg>