<?xml version="1.0" encoding="utf-8"?>
<!-- Generator: Adobe Illustrator 27.1.1, SVG Export Plug-In . SVG Version: 6.00 Build 0)  -->
<svg version="1.1" xmlns="http://www.w3.org/2000/svg" xmlns:xlink="http://www.w3.org/1999/xlink" x="0px" y="0px" viewBox="0 0 28 40" style="enable-background:new 0 0 28 40;" xml:space="preserve">
<style type="text/css">
	.st0{display:none;}
	.st1{fill:#808080;}
	.st2{fill:#CCCCCC;}
	.st3{fill:#0071BC;}
	.st4{fill:#FFFFFF;}
	.st5{fill:#CC974A;}
	.st6{fill:#5B4313;}
	.st7{fill:#4D4D4D;}
	.st8{fill:#E6B422;}
	.st9{fill:#1B1464;}
	.st10{fill:#2E3192;}
	.st11{opacity:0.3;fill:#FFFFFF;}
	.st12{fill:#FFCE00;}
	.st13{fill:#575757;}
	.st14{fill:#9E9E9E;}
	.st15{fill:#454545;}
	.st16{fill:#B3B3B3;}
	.st17{fill:#FF0000;}
	.st18{fill:#F2F2F2;}
</style>
<g id="ガイド_00000045591302362160722190000018018493940298725527_" class="st0">
</g>
<g id="ピン_00000000927453457432803150000008469140276230901636_">
	<g id="ピン">
		<rect x="12" y="20" class="st1" width="4" height="10"/>
		<polygon class="st1" points="15,40 13,40 12,30 16,30 		"/>
		<rect x="14" y="20" class="st2" width="1" height="20"/>
	</g>
</g>
<g id="ノーマル">
	<ellipse id="袖_00000139264660148902654190000018136535818378376110_" class="st3" cx="3.9" cy="29.1" rx="3.9" ry="4.1"/>
	<g id="胴">
		<path id="胴_00000034784297846097032390000006704810111649629631_" class="st4" d="M23.4,26.5c0-4.5-4.2-8.2-9.4-8.2
			S4.6,22,4.6,26.5c0,0,0,0,0,0h0V35h18.9L23.4,26.5L23.4,26.5C23.4,26.5,23.4,26.5,23.4,26.5z"/>
		<path id="胴_00000106126689990679698960000017638745134668276359_" class="st3" d="M22.4,26.5c0-4.5-3.8-8.2-8.4-8.2
			S5.5,22,5.5,26.5c0,0,0,0,0,0h0V35h16.9L22.4,26.5L22.4,26.5C22.4,26.5,22.4,26.5,22.4,26.5z"/>
	</g>
	<path id="右耳" class="st5" d="M9.5,12c-0.2-0.7-1-1.1-1.5-0.3c-0.3,0.5,0.1,1.3,0.1,1.5s-0.4,1.5,0.2,2c0.5,0.4,1.1,0,1.1,0
		s0.3-1.5,0.2-2.1S9.5,12,9.5,12z"/>
	<path id="左耳" class="st5" d="M18.5,12c0.2-0.7,1-1.1,1.5-0.3c0.3,0.5-0.1,1.3-0.1,1.5c0,0.2,0.4,1.5-0.2,2
		c-0.5,0.4-1.1,0-1.1,0s-0.3-1.5-0.2-2.1C18.3,12.4,18.5,12,18.5,12z"/>
	<ellipse id="顔_00000158729306056619698010000004512639797464009357_" class="st5" cx="14.1" cy="12.9" rx="5" ry="5.4"/>
	<path id="髪" class="st6" d="M9.4,12.3c0,0,0.2-2.3,1-2.8c1-0.6,2.6-0.2,3.7-0.1s2.6-0.5,3.3-0.1c0.7,0.3,1.7,3.1,1.7,3.1V9.2
		c0,0-0.2-1.2-0.8-1.7c-0.4-0.3-0.8-0.7-0.8-0.7s-0.2-0.2-1-0.7c-0.7-0.4-1.2-0.3-2.5-0.3S12.2,6,11.7,6.2c-0.6,0.3-1,0.5-1,0.5
		S9.6,7.5,9.1,8.3S9.4,12.3,9.4,12.3z"/>
	<path id="髷" class="st6" d="M15.7,4.1l-1.3,1.5c-0.3,0.3-0.7,0.3-1,0l-1.3-1.5c-0.2-0.2-0.2-0.6,0-0.8l1.3-1.5
		c0.3-0.3,0.7-0.3,1,0l1.3,1.5C15.9,3.5,15.9,3.8,15.7,4.1z"/>
	<g id="眉">
		<path class="st7" d="M9.8,12.9l1-1c0.2-0.2,0.6-0.2,0.8,0l1.7,1.7L9.8,12.9z"/>
		<path class="st7" d="M18.2,12.9l-1-1c-0.2-0.2-0.6-0.2-0.8,0l-1.7,1.7L18.2,12.9z"/>
	</g>
	<g id="髪飾り_00000007415954190083930990000012754999773235610294_">
		<rect id="髪飾り" x="12.9" y="5" class="st8" width="2.2" height="1"/>
		<path class="st8" d="M15.1,5.9L15,4.9c0,0,0.6,0.1,1.1-0.2c0.6-0.3,0.5-0.5,0.8-0.5c0.5-0.1,0.8,0.2,0.8,0.2s0.1,0.4-0.2,0.7
			c-0.4,0.4-0.6,0.4-1,0.5C16.2,5.8,15.1,5.9,15.1,5.9z"/>
		<path class="st8" d="M12.9,5.9L13,4.9c0,0-0.6,0.1-1.2-0.2c-0.6-0.3-0.6-0.5-0.9-0.6c-0.5-0.1-0.8,0.2-0.8,0.2s-0.1,0.4,0.2,0.7
			c0.4,0.4,0.6,0.4,1,0.5C11.8,5.8,12.9,5.9,12.9,5.9z"/>
	</g>
	<g id="袖">
		<circle class="st4" cx="21.3" cy="21.1" r="6"/>
		<circle class="st3" cx="21.3" cy="21.1" r="5"/>
	</g>
	<path id="塔" class="st1" d="M28,6.4l-3-2.1V0.5C25,0.2,24.8,0,24.5,0S24,0.2,24,0.5v3.8l-3,2.1h2v3.3h3V6.4H28z"/>
	<g id="腕_00000096018205294303515310000005715759946550229635_">
		<path class="st5" d="M25.7,9c0,0,2.2-2,2.3-0.5c0,0-0.7,0.9-1.7,2.2c-0.5,0.7-1.5,1.2-2.2,1.1c-0.5,2.5-0.1,12.1-3.9,10.5
			c-2.9-1.2,2.6-11.7,2.6-11.7l0,0c0-0.1,0-0.1,0-0.2C22.7,9.4,25.7,9,25.7,9z"/>
	</g>
	<g id="手">
		<path class="st5" d="M5.8,34.1c0.1-0.3,0-0.5-0.1-0.6l1.2,0.4C7,34,7.2,33.8,7.3,33.6s0-0.5-0.2-0.6l0.7,0.2
			c0.2,0.1,0.5-0.1,0.6-0.3c0.1-0.3,0-0.5-0.2-0.6L7.4,32c0.2,0.1,0.5-0.1,0.6-0.3c0.1-0.3,0-0.5-0.2-0.6l-3.6-1.2L5.3,30
			c0.2,0,0.5-0.2,0.5-0.5c0-0.3-0.1-0.5-0.3-0.5c0,0-1.2-0.3-1.6,0.1s-0.6,0.6-0.6,0.6c0,0.1-0.7,0.7-0.8,1.1s-0.1,1.5,0,1.8
			c0.1,0.4,0.2,0.8,0.9,1.3l1.9,0.6C5.5,34.5,5.7,34.4,5.8,34.1z"/>
	</g>
</g>
<g id="画像なし">
	<g id="画像なし_00000052826117572747028460000016017265853480651424_">
		<path class="st9" d="M27.1,26.6l-7.5,7.5c-1.2,1.2-3.1,1.2-4.2,0l-7.5-7.5c-1.2-1.2-1.2-3.1,0-4.2l7.5-7.5c1.2-1.2,3.1-1.2,4.2,0
			l7.5,7.5C28.3,23.5,28.3,25.5,27.1,26.6z"/>
		<path id="カメラ" class="st4" d="M22,20.5h-1.5l-0.8-1.6c-0.1-0.2-0.3-0.4-0.6-0.4h-3.2c-0.2,0-0.5,0.1-0.6,0.4l-0.8,1.6H13
			c-0.9,0-1.5,0.7-1.5,1.5V27c0,0.9,0.7,1.5,1.5,1.5H22c0.9,0,1.5-0.7,1.5-1.5V22C23.5,21.2,22.8,20.5,22,20.5z M17.5,27
			c-1.4,0-2.5-1.1-2.5-2.5c0-1.4,1.1-2.5,2.5-2.5c1.4,0,2.5,1.1,2.5,2.5C20,25.9,18.9,27,17.5,27z"/>
		<g id="斜線">
			<rect x="10.3" y="23.6" transform="matrix(0.7071 0.7071 -0.7071 0.7071 22.3017 -5.5482)" class="st10" width="15" height="1"/>
			<rect x="9.6" y="24.4" transform="matrix(0.7071 0.7071 -0.7071 0.7071 22.5946 -4.8411)" class="st4" width="15" height="1"/>
		</g>
	</g>
</g>


</svg>