<?xml version="1.0" encoding="utf-8"?>
<!-- Generator: Adobe Illustrator 27.1.1, SVG Export Plug-In . SVG Version: 6.00 Build 0)  -->
<svg version="1.1" xmlns="http://www.w3.org/2000/svg" xmlns:xlink="http://www.w3.org/1999/xlink" x="0px" y="0px" viewBox="0 0 28 40" style="enable-background:new 0 0 28 40;" xml:space="preserve">
<style type="text/css">
	.st0{display:none;}
	.st1{fill:#808080;}
	.st2{fill:#CCCCCC;}
	.st3{fill:#ED1E79;}
	.st4{fill:#321908;}
	.st5{fill:#F14B94;}
	.st6{fill:#E0C192;}
	.st7{fill:#42210B;}
	.st8{fill:#B08030;}
	.st9{fill:#FCEE21;}
	.st10{fill:#604406;}
	.st11{fill:#7D5D3E;}
	.st12{fill:#58391B;}
	.st13{fill:#FFFFFF;}
	.st14{fill:#C1272D;}
	.st15{fill:#1B1464;}
	.st16{fill:#2E3192;}
	.st17{opacity:0.3;fill:#FFFFFF;}
	.st18{fill:#FFCE00;}
	.st19{fill:#666666;}
	.st20{fill:#1F1F1F;}
	.st21{fill:#858585;}
	.st22{fill:#C5C5C5;}
	.st23{fill:#282828;}
	.st24{fill:#868686;}
	.st25{fill:#DCDCDC;}
	.st26{fill:#464646;}
	.st27{fill:#636363;}
	.st28{fill:#3F3F3F;}
	.st29{fill:#565656;}
	.st30{fill:#FF0000;}
	.st31{fill:#F2F2F2;}
</style>
<g id="ガイド_00000162338702563158607440000009963323815856875396_" class="st0">
</g>
<g id="ピン">
	<g>
		<g>
			<polygon class="st1" points="15,40 13,40 12,30 16,30 			"/>
			<rect x="14" y="30" class="st2" width="1" height="10"/>
		</g>
		<g>
			<rect x="12" y="20" class="st1" width="4" height="10"/>
			<rect x="14" y="20" class="st2" width="1" height="10"/>
		</g>
	</g>
</g>
<g id="ノーマル">
	<g>
		<path class="st3" d="M16.1,32.5c-0.1,0-0.2,0-0.2,0c-4.2-0.1-7.7-0.6-10.3-1.6C0.9,29.1,0,26.2,0,24c0-2.2,1.4-3.4,2.4-4.4
			C3.4,18.7,4,18.1,4,17c0-1.2-0.6-2.4-1.2-3.8C1.9,11.4,1,9.4,1,7c0-4.5,4.6-7,13-7c3,0,13,0.4,13.1,5.4c0.1,1.9-1,3.1-1.8,4
			C24.5,10.2,24,10.9,24,12c0,1.1,0.8,2.2,1.6,3.5c1.1,1.8,2.4,3.9,2.4,6.5c0,2.4-1.2,5-3.3,7C22.4,31.3,19.3,32.5,16.1,32.5z M14,2
			C10.7,2,3,2.5,3,7c0,2,0.8,3.7,1.6,5.4C5.3,13.9,6,15.4,6,17c0,2-1.2,3.1-2.2,4.1C2.8,22,2,22.7,2,24c0,2.3,1.4,3.9,4.3,5
			c2.4,0.9,5.6,1.4,9.6,1.5c2.8,0.1,5.4-1,7.5-3C25,25.9,26,23.8,26,22c0-2.1-1.1-3.8-2.1-5.4c-0.9-1.5-1.8-2.9-1.9-4.5
			c-0.1-1.9,1-3.1,1.8-4c0.7-0.8,1.3-1.5,1.3-2.6C25,3.2,19.5,2,14,2z"/>
		<polygon id="後髪" class="st4" points="9.7,12 18.4,12 25,31 3,31 		"/>
		<path id="胴_00000106126689990679698960000017638745134668276359_" class="st5" d="M22,26.9c0-4.3-3.6-7.8-8-7.8s-8,3.5-8,7.8
			c0,0,0,0,0,0h0V35H22L22,26.9L22,26.9C22,26.9,22,26.9,22,26.9z"/>
		<path id="右耳" class="st6" d="M9.7,13c-0.2-0.6-1-1-1.4-0.3c-0.3,0.5,0.1,1.3,0.1,1.4S8,15.5,8.6,16c0.5,0.4,1.1,0,1.1,0
			s0.3-1.4,0.2-2C9.8,13.4,9.7,13,9.7,13z"/>
		<path id="左耳" class="st6" d="M18.3,13c0.2-0.6,1-1,1.4-0.3c0.3,0.5-0.1,1.3-0.1,1.4c0,0.2,0.3,1.4-0.2,1.9
			c-0.5,0.4-1.1,0-1.1,0s-0.3-1.4-0.2-2C18.2,13.4,18.3,13,18.3,13z"/>
		<ellipse id="顔_00000158729306056619698010000004512639797464009357_" class="st6" cx="14.1" cy="14" rx="4.8" ry="5.1"/>
		<path id="髪" class="st7" d="M9.6,13.4c0,0,0.2-2.2,1-2.7c1-0.5,2.4-0.1,3.5-0.1s2.5-0.5,3.2-0.1c0.7,0.3,1.6,2.9,1.6,2.9
			S20,11,19,10l-1.7-1.8c0,0-0.1-1.4-0.9-2c-0.8-0.5-1-0.5-2.3-0.5s-1.7-0.1-2.4,0.6c-0.7,0.7-0.8,1.8-0.8,1.8s-0.6,1-1.1,1.8
			S9.6,13.4,9.6,13.4z"/>
		<g id="髷">
			<ellipse class="st4" cx="16.5" cy="6.5" rx="2" ry="2.5"/>
			<ellipse class="st4" cx="11.5" cy="6.5" rx="2" ry="2.5"/>
		</g>
		<g id="宝冠">
			<path id="宝冠上" class="st8" d="M18,5.9c0,0-1.5,0.1-2.1,0.9c0,0-0.1,0.1-0.1,0.1c0-0.4-0.1-1-0.3-1.5C15,4.6,14,4,14,4
				s-1.1,0.5-1.6,1.4c-0.2,0.4-0.2,1-0.2,1.4c0,0-0.1-0.1-0.1-0.1C11.5,6,10,5.9,10,5.9s0.6,1.2,0.7,1.9C10.8,8.5,10.8,9,10.8,9
				l1.6-0.2l0,0.2l3.1,0l0-0.2L17.2,9c0,0,0-0.5,0.1-1.3C17.4,7.1,18,5.9,18,5.9z"/>
			
				<rect id="宝石" x="13" y="6.2" transform="matrix(0.7071 -0.7071 0.7071 0.7071 -0.9955 12.0753)" class="st9" width="2.1" height="2.1"/>
		</g>
		<g id="眉目">
			<g id="眉_00000059278337859623208290000009714789687849173923_">
				<path id="眉_00000129185784493262199870000011821865886644204173_" class="st10" d="M13.5,13c-0.9-1.1-2.4-1-3.3,0
					C10.8,11.7,12.9,11.6,13.5,13L13.5,13z"/>
				<path id="眉_00000123423311807163890540000007598090301004616122_" class="st10" d="M14.5,13c0.6-1.4,2.7-1.3,3.3,0
					C16.9,12,15.3,11.9,14.5,13L14.5,13z"/>
			</g>
			<g id="目">
				<path class="st10" d="M10.5,13.9c0,0,0.4-1.1,1.2-1.1s1.5,1.1,1.5,1.1s-0.7,0.7-1.3,0.7S10.5,13.9,10.5,13.9z"/>
				<path class="st10" d="M17.5,13.9c0,0-0.4-1.1-1.2-1.1c-0.8,0-1.5,1.1-1.5,1.1s0.7,0.7,1.3,0.7S17.5,13.9,17.5,13.9z"/>
			</g>
		</g>
		<g id="琵琶_00000176041545877922795660000015531794224865735309_">
			<g id="琵琶">
				<g>
					<path class="st11" d="M26.2,17.4l-2,1.3l-0.4,0.2L23,17.3c-0.1-0.3-0.4-0.4-0.7-0.3c-0.2,0.1-0.3,0.4-0.2,0.7l0.9,1.6l-6.9,3.1
						c0,0-4.8,0-8.1,0.5c-3.3,0.5-5.8,1.4-7.1,3.1c-1.6,2.1-0.6,4.7,0,5.6s2.1,3.3,4.7,3.2c2.2-0.1,4.3-1.7,6.6-4.1
						c2.3-2.4,5-6.4,5-6.4l6.5-3.9l0.9,1.6c0.1,0.3,0.4,0.4,0.7,0.3c0.2-0.1,0.3-0.4,0.2-0.7L24.4,20l0.4-0.2l2.2-0.9l0-1L26.2,17.4
						z"/>
					<path class="st12" d="M2.4,24.7c0.7,1,2.1,3.2,2.9,4.7c0.8,1.5,1.9,4,2.4,4.9c1.3-0.6,2.5-1.6,3.8-2.9c-0.5-1.1-1.4-3-2.1-4.2
						c-0.6-1.2-1.6-3-2.3-4.1C5.2,23.4,3.6,23.9,2.4,24.7z"/>
				</g>
				<path class="st13" d="M3.6,31.6c-0.1,0-0.2,0-0.2-0.1c-0.1-0.1,0-0.3,0.1-0.3l14.6-8.5L2.8,29.8c-0.1,0.1-0.3,0-0.3-0.1
					c-0.1-0.1,0-0.3,0.1-0.3l20.5-9.7c0.1-0.1,0.3,0,0.3,0.1c0.1,0.1,0,0.3-0.1,0.3L3.7,31.5C3.7,31.6,3.7,31.6,3.6,31.6z"/>
			</g>
			<polygon id="撥" class="st13" points="10.4,28.1 7.3,26.6 6.2,24.9 4.5,26 5.7,27.7 5.9,31.1 			"/>
			<path id="左手" class="st6" d="M19.6,19.9c-0.3,0.2-0.2,1.3,0.1,2.4c0.1,0.5,0.9,0.8,1.5,0.8l0.2,0c0.5,0,0.8-0.3,0.7-0.6
				c0-0.2,0-0.4,0-0.6l-0.2-0.7C21.9,21,21.8,21,21.8,21s0.3-1,0.3-1.3c0-0.2,0-0.3-0.2-0.3c-0.3-0.1-0.7,0.4-0.7,0.4s0-0.4-0.3-0.4
				c-0.4,0-0.6,0.7-0.6,0.7s-0.1-0.3-0.4-0.3C19.7,19.7,19.7,19.8,19.6,19.9z"/>
			<path id="右手" class="st6" d="M3.5,25.2c-0.3-0.2,0-1.3,0.4-2.4c0.2-0.4,0.9-0.7,1.6-0.6l0.2,0c0.5,0.1,0.8,0.4,0.7,0.7
				c-0.1,0.2-0.1,0.4,0,0.6l-0.2,0.7c-0.2,0-0.3,0.1-0.3,0.1S6,25.4,6,25.6c0,0.2-0.1,0.3-0.3,0.3c-0.3,0-0.6-0.5-0.6-0.5
				S5,25.8,4.7,25.8c-0.4,0-0.6-0.8-0.6-0.8S4,25.3,3.8,25.3C3.6,25.3,3.6,25.2,3.5,25.2z"/>
		</g>
		<polygon id="口" class="st14" points="14.2,16 14,16.1 13.8,16 13,16.4 14,17 14,17 14.5,16.7 15,16.4 		"/>
	</g>
</g>



</svg>