<?xml version="1.0" encoding="utf-8"?>
<!-- Generator: Adobe Illustrator 27.1.1, SVG Export Plug-In . SVG Version: 6.00 Build 0)  -->
<svg version="1.1" xmlns="http://www.w3.org/2000/svg" xmlns:xlink="http://www.w3.org/1999/xlink" x="0px" y="0px" viewBox="0 0 28 40" style="enable-background:new 0 0 28 40;" xml:space="preserve">
<style type="text/css">
	.st0{display:none;}
	.st1{fill:#808080;}
	.st2{fill:#CCCCCC;}
	.st3{display:inline;fill:#808080;}
	.st4{display:inline;fill:#CCCCCC;}
	.st5{fill:#A67C52;}
	.st6{fill:#C69C6D;}
	.st7{fill:#666666;}
	.st8{fill:#999999;}
	.st9{fill:#333333;}
	.st10{fill:#39B54A;}
	.st11{fill:#A96E2D;}
	.st12{fill:#1B1464;}
	.st13{fill:#FFFFFF;}
	.st14{fill:#2E3192;}
	.st15{opacity:0.3;fill:#FFFFFF;}
	.st16{fill:#FFCE00;}
	.st17{fill:#848484;}
	.st18{fill:#A3A3A3;}
	.st19{fill:#797979;}
	.st20{fill:#FF0000;}
	.st21{fill:#F2F2F2;}
</style>
<g id="ガイド_00000162338702563158607440000009963323815856875396_" class="st0">
</g>
<g id="ピン">
	<g>
		<g>
			<polygon class="st1" points="15,40 13,40 12,30 16,30 			"/>
			<rect x="14" y="30" class="st2" width="1" height="10"/>
		</g>
		<g class="st0">
			<rect x="12" y="20" class="st3" width="4" height="10"/>
			<rect x="14" y="20" class="st4" width="1" height="10"/>
		</g>
	</g>
</g>
<g id="ノーマル">
	<path id="卒塔婆_00000103986609361958890140000007281549843346840241_" class="st5" d="M27.4,9.2l0.2-2.6c0-0.6-0.2-1.1-0.6-1.3
		l0.4,0c0,0,0.3-0.3,0.3-0.9c0-1.2-1.2-1.9-1.2-1.9l-0.2-0.2l-0.3,0.1c0,0-1.3,0.5-1.5,1.7c-0.1,0.6,0.1,0.9,0.1,0.9l0.5,0
		c-0.4,0.2-0.7,0.6-0.8,1.2l-0.2,2.6c0,0.5,0.1,0.9,0.4,1.2c-0.3,0.2-0.5,0.6-0.6,1.1l-0.2,2.6c-0.1,0.7,0.4,1.4,0.9,1.4l-0.2,0
		c-0.5,0-0.9,0.4-0.9,1l-1.1,13.1c0,0.1,0.1,0.2,0.2,0.2l2.9,0.2l1.1-13.4c0-0.5-0.3-1-0.7-1.1l-0.3,0c0.6,0,1.1-0.5,1.2-1.3
		l0.2-2.6c0-0.5-0.1-0.9-0.4-1.2C27.1,10.1,27.3,9.7,27.4,9.2z"/>
	<path id="卒塔婆_00000129924765295842853640000005812920110623665064_" class="st6" d="M23.6,7.2V4.4c0-0.6-0.3-1.1-0.7-1.3h0.5
		c0,0,0.3-0.3,0.2-1c-0.1-1.3-1.4-2-1.4-2L21.9,0l-0.3,0.2c0,0-1.3,0.7-1.4,2c-0.1,0.6,0.2,1,0.2,1h0.5c-0.4,0.2-0.7,0.7-0.7,1.3
		v2.8c0,0.5,0.2,1,0.5,1.2c-0.3,0.3-0.5,0.7-0.5,1.2v2.8c0,0.8,0.5,1.4,1.1,1.4h-0.2c-0.5,0-0.9,0.5-0.9,1.2v14
		c0,0.1,0.1,0.2,0.2,0.2h3.2V15c0-0.6-0.4-1.1-0.8-1.1h-0.3c0.6,0,1.1-0.6,1.1-1.4V9.7c0-0.5-0.2-1-0.5-1.2
		C23.3,8.2,23.6,7.8,23.6,7.2z"/>
	<path id="卒塔婆" class="st6" d="M5.4,9.2L5.3,6.6c0-0.6-0.3-1-0.7-1.2l0.4,0c0,0,0.3-0.3,0.2-0.9C5,3.2,3.8,2.6,3.8,2.6
		L3.5,2.5L3.3,2.6c0,0-1.2,0.7-1.3,1.9c0,0.6,0.3,0.9,0.3,0.9l0.5,0C2.4,5.6,2.1,6.1,2.1,6.7l0.1,2.7c0,0.5,0.2,0.9,0.5,1.1
		c-0.3,0.2-0.5,0.7-0.5,1.1l0.1,2.7c0,0.7,0.5,1.3,1.1,1.3l-0.2,0c-0.5,0-0.8,0.5-0.8,1.1l0.4,13.1C2.9,29.9,3,30,3.1,30L6,29.9
		L5.6,16.5c0-0.5-0.4-1-0.8-1l-0.3,0c0.6,0,1-0.6,1-1.4l-0.1-2.7c0-0.5-0.2-0.9-0.5-1.1C5.2,10.1,5.4,9.7,5.4,9.2z"/>
	<rect id="土台" x="3.4" y="25" class="st7" width="20" height="3"/>
	<path id="竿石" class="st8" d="M18.4,25h-10V3.1C8.4,2.5,8.9,2,9.5,2h7.9c0.6,0,1.1,0.5,1.1,1.1V25z"/>
	<g id="墓_00000124849544261647806950000006288072164115035787_">
		<path class="st9" d="M12.1,11.6c0,0,0.1,0,0.1,0c0,0,0.1,0,0.2,0c0,0,0,0,0.2,0l0.1,0c0.2-0.1,0.8-0.2,0.9-0.2c0.1,0,0.1,0,0.2,0
			c0.2,0,0.3,0.1,0.5,0.2c0.2,0.2,0.3,0.4,0.3,0.6c0,0.1,0,0.2,0,0.2c0,0.1-0.1,0.1-0.1,0.2c0,0.1,0,0.2-0.1,0.2
			c0,0.1-0.1,0.1-0.1,0.2c0,0,0,0.1-0.1,0.1c0,0-0.1,0.2-0.1,0.3c-0.1,0.3-0.3,0.5-0.5,0.5l-0.2,0c-0.1,0-0.1-0.1-0.1-0.1l0,0
			c-0.1-0.1-0.1-0.1-0.2-0.1h0c0,0,0,0,0,0c0,0-0.1,0-0.1,0c0,0-0.1,0-0.1,0c-0.1,0-0.1,0-0.1,0c0,0,0,0-0.1,0
			c-0.1,0-0.3,0.1-0.4,0.1c-0.1,0-0.2,0-0.2,0.1c0,0,0,0,0,0c0,0.1,0.1,0.1,0.2,0.2c0.1,0,0.2,0.1,0.2,0.1c0.1,0,0.1,0.1,0.1,0.2
			c0,0,0,0,0,0c0,0,0,0,0,0c0,0,0.2,0,0.3-0.1l0.2,0L13,14.2c-0.1,0-0.2-0.2-0.2-0.3v0h0c0,0,0.1,0,0.1,0l0.1,0c0.1,0,0.1,0,0.1,0
			c0,0,0,0,0,0h0c0,0,0.3,0.1,0.5,0.2c0.1,0,0.1,0,0.1,0c0,0,0,0,0.1,0l0.1,0h0c0.3,0,0.4-0.1,0.6-0.1c0.1,0,0.1,0,0.2,0
			c0.3,0.1,0.7,0.3,0.7,0.4c0,0.1-0.1,0.2-0.2,0.2h0c-0.1,0-0.1,0-0.1,0c0,0-0.3-0.1-0.4-0.1c0,0-0.1,0-0.1,0h0
			c0.1,0.1,1,0.8,1.1,0.9c0.4,0.3,0.9,0.5,1.5,0.7c0.5,0.2,0.6,0.2,0.8,0.4l0,0c0,0,0,0,0,0c0,0,0.1,0.1,0.1,0.1s0,0.1,0,0.1l0,0
			c0,0.1-0.1,0.1-0.1,0.1c0,0,0,0-0.1,0c-0.4,0-1.3-0.3-1.7-0.6c0,0-0.1-0.1-0.2-0.1c-0.2-0.1-0.7-0.5-1-0.7
			c-0.3-0.3-0.5-0.5-0.8-0.7c-0.3-0.2-0.4-0.3-0.5-0.3h0l0,0c0,0,0,0-0.1,0c0,0,0,0-0.1,0c-0.1,0-0.2,0-0.3,0.1c-0.1,0-0.1,0-0.1,0
			h0l0,0c-0.1,0-0.1,0-0.2,0l0,0c-0.1,0-0.1,0-0.1,0c0,0,0,0-0.1,0c0,0,0,0,0,0c-0.1,0-0.3,0.2-0.4,0.4c-0.1,0.1-0.5,0.7-0.6,0.8
			c-0.1,0.1-0.1,0.2-0.2,0.2C11,16.5,10.5,17,10.3,17c0,0-0.2,0.1-0.2,0.1c-0.2,0.1-0.5,0.3-0.6,0.3c0,0-0.1,0-0.1,0
			c0,0-0.1,0-0.2,0c-0.1,0-0.2,0-0.3,0.1c-0.1,0-0.1,0-0.1,0h0c0,0,0.1-0.1,0.2-0.2c0.6-0.4,1.5-1.2,1.8-1.6
			c0.3-0.4,0.5-0.6,0.5-0.7c0,0,0,0,0,0s0,0-0.1,0c0,0-0.1,0-0.1,0h0l0,0c-0.1,0-0.3,0.1-0.4,0.1h0c0,0,0,0-0.1,0
			c-0.1,0-0.1,0-0.2,0h-0.1c0,0-0.1,0-0.1,0c0,0,0,0,0,0c0,0,0.1-0.1,0.2-0.1c0.1,0,0.1,0,0.2-0.1c0,0,0.1,0,0.1,0c0,0,0,0,0.1,0
			c0,0,0.1,0,0.1,0c0,0,0,0,0.1,0l0.1,0c0,0,0.1,0,0.1,0c0,0,0.1,0,0.1,0l0.1,0c0.1,0,0.1-0.1,0.2-0.1c0,0,0.1-0.1,0.2-0.1
			c0.1-0.1,0.1-0.2,0.1-0.2c0,0,0-0.1-0.1-0.1c-0.1,0-0.1-0.2-0.1-0.3c0,0,0,0,0,0v0c0,0,0-0.1-0.1-0.2c0-0.1-0.1-0.3-0.2-0.5
			c-0.1-0.4-0.2-0.6-0.4-0.9c0-0.1-0.1-0.2-0.1-0.3l0,0c0,0,0-0.1,0-0.1c0,0,0,0,0.1-0.1h0c0,0,0,0,0,0c0,0,0.1,0,0.1,0
			c0.1,0,0.4,0.4,0.5,0.6c0.1,0.3,0.3,0.6,0.3,0.7c0,0.1,0,0.2,0.1,0.2c0,0,0.1,0,0.2-0.1c0.3-0.1,0.7-0.2,0.9-0.2h0l0.1,0l0.1-0.3
			c0.2-0.5,0.4-0.9,0.4-1.2l0-0.1l-0.1,0c-0.2,0-0.3,0-0.6,0.1c-0.2,0.1-0.4,0.1-0.6,0.1h0l-0.1,0c-0.2,0-0.3,0-0.3-0.1
			c0,0,0-0.1,0-0.1c0,0,0,0,0,0C12.1,11.6,12.1,11.6,12.1,11.6L12.1,11.6z M12.9,9C12.9,9,12.9,8.9,12.9,9c0-0.1,0.1-0.1,0.1-0.1
			c0,0,0.1,0,0.2-0.1c0.1,0,0.1,0,0.2,0c0.1,0,0.1,0,0.3,0.1C13.9,9,14,9.1,14,9.2c0,0,0,0.1,0,0.2c0,0,0,0.1,0,0.1
			c0,0.1,0.1,0.1,0.3,0.1c0.3,0,0.5,0.1,0.8,0.2c0.2,0.1,0.2,0.2,0.2,0.3c0,0,0,0.1-0.1,0.1s-0.1,0-0.1,0c0,0-0.1,0-0.1,0h0
			c0,0,0,0-0.1,0c0,0-0.1,0-0.1,0c0,0,0,0-0.1,0c0,0,0,0-0.1,0l0,0c0,0-0.1,0-0.1,0c0,0-0.2,0-0.3,0H14c-0.2,0-0.3,0-0.5,0.3
			c-0.1,0.1-0.1,0.2-0.1,0.2s-0.1,0.1-0.1,0.2c-0.1,0.1-0.2,0.2-0.3,0.3c-0.3,0.3-0.4,0.3-0.4,0.3c0,0,0,0,0,0c0,0,0-0.1,0-0.1
			c0.1-0.1,0.3-0.5,0.3-0.7c0-0.1,0.1-0.2,0.1-0.2c0,0,0,0,0,0c0,0-0.1,0-0.2,0h0c0,0,0,0-0.1,0c-0.1,0-0.2,0.1-0.2,0.1h0
			c0,0-0.5,0.2-0.6,0.2c0,0,0,0.1-0.1,0.2c-0.1,0.2-0.1,0.3-0.2,0.3s-0.2-0.1-0.2-0.2c0-0.1,0-0.1-0.3-0.1c-0.3,0-0.5-0.1-0.5-0.1
			c0-0.1,0.2-0.3,0.5-0.3c0,0,0.1,0,0.1,0c0,0,0,0,0,0c0,0,0,0,0,0c0,0,0,0,0,0h0c0,0,0,0,0-0.1c0-0.1-0.1-0.3-0.1-0.5
			c0-0.1-0.1-0.1-0.1-0.1c0,0,0,0,0,0l0,0c0-0.1,0.1-0.1,0.1-0.1c0.1,0,0.3,0.2,0.4,0.4c0.1,0.1,0.1,0.2,0.1,0.2s0.2-0.1,0.5-0.1
			c0.5-0.1,0.6-0.2,0.7-0.2c0,0,0.1,0,0.1,0c0,0,0.1-0.2,0.1-0.3c0-0.1,0-0.1-0.1-0.1C13,9.2,12.9,9.1,12.9,9
			C12.9,9.1,12.9,9.1,12.9,9C12.9,9,12.9,9,12.9,9z M12.7,15.8c0,0,0-0.1,0-0.1c0-0.1-0.2-0.2-0.2-0.2c-0.1,0-0.3-0.2-0.3-0.3
			c0,0,0-0.1,0.2-0.1c0.1,0,0.2,0,0.3,0c0.2,0,0.5,0.2,0.5,0.4l0.1,0.1h0.3c0.2,0,0.3,0,0.4,0.1c0.1,0,0.1,0.1,0.1,0.1v0
			c0,0.1,0,0.1-0.1,0.1c0,0-0.1,0.1-0.3,0.1c-0.1,0-0.2,0.1-0.2,0.1c0,0-0.1,0-0.1,0c0,0-0.1,0.1-0.1,0.2c-0.1,0.2-0.4,0.6-0.4,0.6
			c0,0,0,0,0,0.1c0,0,0,0,0.1,0c0.1,0,0.2,0,0.4-0.1c0.1,0,0.4-0.1,0.5-0.1c0.2,0,0.3,0,0.3,0c0,0,0,0,0.1,0c0.2,0,0.5,0.1,0.7,0.1
			c0.3,0.1,0.5,0.2,0.6,0.3c0,0,0,0.1,0,0.1c0,0.1-0.1,0.2-0.2,0.2c0,0,0,0-0.1,0c0,0-0.1,0-0.2,0s-0.3,0-0.5-0.1
			c-0.2,0-0.4-0.1-0.5-0.1h0c-0.1,0-0.3,0-0.5,0c-0.2,0-0.5,0-0.6,0.1l-0.2,0c0,0-0.1,0-0.1,0c0,0-0.1,0-0.1,0c0,0,0,0-0.1,0
			c0,0-0.1,0-0.2,0.1c-0.1,0-0.2,0.1-0.3,0.1c-0.1,0-0.1,0-0.2,0c0,0-0.1,0-0.1,0c0,0-0.1,0-0.1,0c-0.1,0-0.1,0-0.1,0c0,0,0,0,0,0
			l0,0c-0.1,0-0.3,0.1-0.4,0.1c0,0,0,0,0,0c0,0-0.1,0-0.1-0.1l0-0.1c0,0,0-0.1,0-0.1c0-0.1,0-0.1,0.1-0.1c0,0,0.1,0,0.1-0.1
			c0,0,0,0,0.1,0c0,0,0,0,0.1,0c0,0,0.1,0,0.1,0c0.1,0,0.1,0,0.2,0c0.5-0.2,1.1-0.7,1.2-1l0-0.1l-0.2,0h-0.1c-0.3,0-0.4,0-0.5-0.1
			l-0.1-0.1h0.2c0.1,0,0.3,0,0.7-0.1C12.7,16,12.7,16,12.7,15.8L12.7,15.8z M11.9,12.5c0,0,0.2,0,0.3-0.1c0.1,0,0.2-0.1,0.3-0.1
			c0,0,0.1,0,0.1-0.1c0.1,0,0.1,0,0.2,0c0.1,0,0.2,0,0.2,0c0.1,0,0.1,0.1,0.1,0.1c0,0.1-0.1,0.2-0.4,0.2c-0.2,0-0.3,0.1-0.3,0.1
			c0,0-0.1,0-0.1,0c-0.1,0-0.2,0-0.2,0H12c-0.1,0-0.1,0-0.2-0.1c-0.1,0-0.1-0.1-0.1-0.1c0,0,0,0,0.1,0
			C11.8,12.5,11.8,12.5,11.9,12.5C11.8,12.5,11.9,12.5,11.9,12.5z"/>
	</g>
	<g id="地面_00000085960540020044898610000002193894466238366089_">
		<path id="草_00000050658507514173148250000014360179358624052912_" class="st10" d="M2.4,29c-0.4-1.3-0.5-2.2-1.3-3.5
			C2.8,25.4,3.5,27.9,2.4,29L2.4,29z"/>
		<path id="草_00000179627912085844586860000016558588140227868062_" class="st10" d="M26.6,29c-1.1-1.1-0.4-3.6,1.3-3.5
			C27.1,26.8,27,27.7,26.6,29L26.6,29z"/>
		<path id="草_00000151529837931384215080000007510860043949423779_" class="st10" d="M25.8,29.5c-1.2-2.3-0.6-6.1,2.1-7
			C26.2,24.6,26.2,27,25.8,29.5L25.8,29.5z"/>
		<rect id="地面" y="28" class="st11" width="28" height="2"/>
	</g>
</g>



</svg>