<?xml version="1.0" encoding="UTF-8"?>
<svg xmlns="http://www.w3.org/2000/svg" viewBox="0 0 28 40">
  <defs>
    <style>
      .cls-1 {
        fill: #6a6a6a;
      }

      .cls-2 {
        fill: #009245;
      }

      .cls-3 {
        fill: #8c6239;
      }

      .cls-4 {
        fill: #fff;
      }

      .cls-5 {
        stroke: #848484;
      }

      .cls-5, .cls-6 {
        fill: none;
        stroke-linecap: round;
        stroke-miterlimit: 10;
      }

      .cls-7 {
        fill: #c5c5c5;
      }

      .cls-8 {
        fill: #848484;
      }

      .cls-9 {
        fill: #e2cb5a;
      }

      .cls-10 {
        fill: #39b54a;
      }

      .cls-11 {
        fill: gray;
      }

      .cls-6 {
        stroke: #a67c52;
      }

      .cls-12 {
        fill: #ccc;
      }

      .cls-13 {
        fill: #f2f2f2;
      }

      .cls-14 {
        fill: red;
      }

      .cls-15 {
        fill: #5e5e5e;
      }
    </style>
  </defs>
  <g id="_ピン" data-name="ピン">
    <g>
      <g>
        <polygon class="cls-11" points="15 40 13 40 12 30 16 30 15 40"/>
        <rect class="cls-12" x="14" y="30" width="1" height="10"/>
      </g>
      <g>
        <rect class="cls-11" x="12" y="20" width="4" height="10"/>
        <rect class="cls-12" x="14" y="20" width="1" height="10"/>
      </g>
    </g>
  </g>
  <g id="_ノーマル" data-name="ノーマル">
    <g id="_葉" data-name="葉">
      <path class="cls-2" d="M28,12c0-.79-.46-1.46-1.12-1.79,.07-.23,.12-.46,.12-.71,0-1.21-.86-2.22-2.01-2.45,0-.02,0-.03,0-.05,0-.79-.46-1.46-1.12-1.79,.07-.23,.12-.46,.12-.71,0-1.38-1.12-2.5-2.5-2.5-.49,0-.94,.15-1.33,.39-.33-.24-.73-.39-1.17-.39-.16,0-.31,.02-.46,.06-.45-.64-1.19-1.06-2.04-1.06-.25,0-.49,.05-.71,.12-.33-.66-1-1.12-1.79-1.12-.95,0-1.74,.67-1.95,1.56-.43-.34-.96-.56-1.55-.56-1.31,0-2.37,1.01-2.48,2.29-.3-.18-.65-.29-1.02-.29-1.1,0-2,.9-2,2,0,.02,0,.03,0,.05-1.14,.23-2.01,1.24-2.01,2.45,0,.17,.02,.34,.05,.51-.02,0-.03,0-.05,0-1.1,0-2,.9-2,2,0,.44,.15,.84,.39,1.17-.24,.39-.39,.84-.39,1.33,0,.25,.05,.49,.12,.71-.66,.33-1.12,1-1.12,1.79,0,1.1,.9,2,2,2,0,1.66,1.34,3,3,3,1.13,0,2.11-.63,2.62-1.56,.36,.35,.85,.56,1.38,.56,.47,0,.9-.17,1.24-.44,.4,.85,1.26,1.44,2.26,1.44,.25,0,.49-.05,.71-.12,.33,.66,1,1.12,1.79,1.12,.95,0,1.74-.67,1.95-1.56,.43,.34,.96,.56,1.55,.56,1,0,1.86-.59,2.26-1.44,.34,.27,.77,.44,1.24,.44,1.1,0,2-.9,2-2,0-.02,0-.03,0-.05,.16,.03,.33,.05,.51,.05,1.38,0,2.5-1.12,2.5-2.5,0-.25-.05-.49-.12-.71,.66-.33,1.12-1,1.12-1.79Z"/>
      <path class="cls-10" d="M4.57,7.06s-1,1.89-.39,3.19,2.63,1.61,2.63,1.61c0,0,.85-1.65,.04-2.94-.53-.85-2.28-1.86-2.28-1.86Z"/>
      <path class="cls-10" d="M7.08,5.45s.63,2.04,1.98,2.53,3-.72,3-.72c0,0-.57-1.77-2.05-2.11-.98-.22-2.92,.3-2.92,.3Z"/>
      <path class="cls-10" d="M16.98,2.35s-2.12,.28-2.83,1.52,.21,3.08,.21,3.08c0,0,1.84-.26,2.42-1.67,.38-.93,.19-2.93,.19-2.93Z"/>
      <path class="cls-10" d="M21.6,3.13s-2.04,.63-2.53,1.98,.73,3,.73,3c0,0,1.77-.57,2.1-2.05,.22-.98-.3-2.92-.3-2.92Z"/>
      <path class="cls-10" d="M24.51,7.81s-2.12-.28-3.13,.73c-1.01,1.02-.6,3.03-.6,3.03,0,0,1.84,.23,2.77-.98,.61-.8,.95-2.78,.95-2.78Z"/>
      <path class="cls-10" d="M17.88,8.36s-1.55,.21-2.06,1.11,.16,2.25,.16,2.25c0,0,1.34-.19,1.76-1.22,.28-.68,.14-2.14,.14-2.14Z"/>
      <path class="cls-10" d="M26.4,10.89s-1.51-.39-2.33,.25-.7,2.14-.7,2.14c0,0,1.31,.33,2.09-.46,.52-.52,.94-1.93,.94-1.93Z"/>
      <path class="cls-10" d="M23.93,15.03s-.97-.74-1.75-.52-1.15,1.32-1.15,1.32c0,0,.84,.63,1.65,.3,.53-.22,1.26-1.1,1.26-1.1Z"/>
      <path class="cls-10" d="M6.9,13.73s-.52-1.1-1.32-1.27-1.63,.65-1.63,.65c0,0,.46,.95,1.33,1.02,.57,.05,1.62-.4,1.62-.4Z"/>
      <path class="cls-10" d="M2.75,15.45s.34,1.51,1.28,1.94,2.21-.35,2.21-.35c0,0-.31-1.31-1.36-1.64-.69-.22-2.13,.05-2.13,.05Z"/>
      <path class="cls-10" d="M8.9,8.53s-.83,1.31-.47,2.28,1.81,1.31,1.81,1.31c0,0,.71-1.14,.2-2.12-.34-.65-1.54-1.47-1.54-1.47Z"/>
      <path class="cls-10" d="M11.94,2.4s-.65,1.03-.37,1.79,1.42,1.03,1.42,1.03c0,0,.56-.9,.15-1.67-.26-.51-1.21-1.16-1.21-1.16Z"/>
    </g>
    <g id="_幹" data-name="幹">
      <path class="cls-3" d="M4.41,34.85c-.47,.09-.78-.46-.48-.82,.64-.77,1.5-1.9,2.07-3.03,1-2,2-9,2-9v-6.92l-1-2.78s.91,.41,2,.71c.69,.19,2,2,2,2,0,0,0-2.86,1-3.93,.45-.48,.91-1.03,1.27-1.49,.28-.35,.83-.2,.91,.24,.17,1.02,.45,2.43,.83,3.18,1,2,1,2.41,1,2.41,0,0,0-2.41,2-3.41,.69-.34,1.26-.57,1.71-.72,.42-.14,.78,.31,.58,.7-.16,.31-.29,.67-.29,1.02v10c0,3.16,1,8,2,9,.61,.61,1.7,1.61,2.44,2.28,.27,.25,.08,.7-.29,.68-1.03-.07-2.52-.25-3.15-.73-2.37-1.83-3-2.23-3-2.23l-.9,2.69c-.05,.14-.23,.19-.34,.08l-2.77-2.77-4.35,2.61c-.22,.13-.49-.08-.41-.33l.76-2.28s-.98,.99-3,2c-.95,.47-1.87,.72-2.59,.85Z"/>
      <path class="cls-6" d="M9.63,16.22c.37,4.78-1.14,13.78-1.14,13.78"/>
      <path class="cls-6" d="M17.54,16.22c-.37,4.78,1.14,13.78,1.14,13.78"/>
      <path class="cls-6" d="M12.63,14.22c.37,4.78-1.13,16.28-1.13,16.28"/>
    </g>
    <g id="_注連縄" data-name="注連縄">
      <g id="_紙垂" data-name="紙垂">
        <rect class="cls-4" x="10.49" y="23.04" width="1.51" height="3.03" transform="translate(1.83 49.87) rotate(-135)"/>
        <rect class="cls-4" x="10.49" y="25.31" width="1.51" height="3.03" transform="translate(.22 53.75) rotate(-135)"/>
        <rect class="cls-4" x="10.49" y="27.59" width="1.51" height="3.03" transform="translate(-1.38 57.63) rotate(-135)"/>
      </g>
      <g id="_紙垂-2" data-name="紙垂">
        <rect class="cls-4" x="16.04" y="23.04" width="1.51" height="3.03" transform="translate(11.32 53.8) rotate(-135)"/>
        <rect class="cls-4" x="16.04" y="25.31" width="1.51" height="3.03" transform="translate(9.71 57.68) rotate(-135)"/>
        <rect class="cls-4" x="16.04" y="27.59" width="1.51" height="3.03" transform="translate(8.1 61.56) rotate(-135)"/>
      </g>
      <polygon id="_筋" data-name="筋" class="cls-9" points="14 23 13 30 15 30 14 23"/>
      <polygon id="_筋-2" data-name="筋" class="cls-9" points="8.91 23.09 6.57 29.76 8.53 30.15 8.91 23.09"/>
      <polygon id="_筋-3" data-name="筋" class="cls-9" points="18.57 23.09 20.91 29.76 18.95 30.15 18.57 23.09"/>
      <g id="_注連縄-2" data-name="注連縄">
        <path class="cls-9" d="M8.27,18.81h.1c.85,0,1.54,.69,1.54,1.54v3.37h-.1c-.85,0-1.54-.69-1.54-1.54v-3.37h0Z" transform="translate(-12.38 12.66) rotate(-45)"/>
        <path class="cls-9" d="M10.72,18.81h.1c.85,0,1.54,.69,1.54,1.54v3.37h-.1c-.85,0-1.54-.69-1.54-1.54v-3.37h0Z" transform="translate(-11.66 14.39) rotate(-45)"/>
        <path class="cls-9" d="M13.18,18.81h.1c.85,0,1.54,.69,1.54,1.54v3.37h-.1c-.85,0-1.54-.69-1.54-1.54v-3.37h0Z" transform="translate(-10.94 16.13) rotate(-45)"/>
        <path class="cls-9" d="M15.64,18.81h.1c.85,0,1.54,.69,1.54,1.54v3.37h-.1c-.85,0-1.54-.69-1.54-1.54v-3.37h0Z" transform="translate(-10.22 17.87) rotate(-45)"/>
        <path class="cls-9" d="M18.09,18.81h.1c.85,0,1.54,.69,1.54,1.54v3.37h-.1c-.85,0-1.54-.69-1.54-1.54v-3.37h0Z" transform="translate(-9.5 19.6) rotate(-45)"/>
      </g>
    </g>
  </g>
  <g id="_消失" data-name="消失">
    <g>
      <g id="_葉-2" data-name="葉">
        <path class="cls-15" d="M28,12c0-.79-.46-1.46-1.12-1.79,.07-.23,.12-.46,.12-.71,0-1.21-.86-2.22-2.01-2.45,0-.02,0-.03,0-.05,0-.79-.46-1.46-1.12-1.79,.07-.23,.12-.46,.12-.71,0-1.38-1.12-2.5-2.5-2.5-.49,0-.94,.15-1.33,.39-.33-.24-.73-.39-1.17-.39-.16,0-.31,.02-.46,.06-.45-.64-1.19-1.06-2.04-1.06-.25,0-.49,.05-.71,.12-.33-.66-1-1.12-1.79-1.12-.95,0-1.74,.67-1.95,1.56-.43-.34-.96-.56-1.55-.56-1.31,0-2.37,1.01-2.48,2.29-.3-.18-.65-.29-1.02-.29-1.1,0-2,.9-2,2,0,.02,0,.03,0,.05-1.14,.23-2.01,1.24-2.01,2.45,0,.17,.02,.34,.05,.51-.02,0-.03,0-.05,0-1.1,0-2,.9-2,2,0,.44,.15,.84,.39,1.17-.24,.39-.39,.84-.39,1.33,0,.25,.05,.49,.12,.71-.66,.33-1.12,1-1.12,1.79,0,1.1,.9,2,2,2,0,1.66,1.34,3,3,3,1.13,0,2.11-.63,2.62-1.56,.36,.35,.85,.56,1.38,.56,.47,0,.9-.17,1.24-.44,.4,.85,1.26,1.44,2.26,1.44,.25,0,.49-.05,.71-.12,.33,.66,1,1.12,1.79,1.12,.95,0,1.74-.67,1.95-1.56,.43,.34,.96,.56,1.55,.56,1,0,1.86-.59,2.26-1.44,.34,.27,.77,.44,1.24,.44,1.1,0,2-.9,2-2,0-.02,0-.03,0-.05,.16,.03,.33,.05,.51,.05,1.38,0,2.5-1.12,2.5-2.5,0-.25-.05-.49-.12-.71,.66-.33,1.12-1,1.12-1.79Z"/>
        <path class="cls-8" d="M4.57,7.06s-1,1.89-.39,3.19,2.63,1.61,2.63,1.61c0,0,.85-1.65,.04-2.94-.53-.85-2.28-1.86-2.28-1.86Z"/>
        <path class="cls-8" d="M7.08,5.45s.63,2.04,1.98,2.53,3-.72,3-.72c0,0-.57-1.77-2.05-2.11-.98-.22-2.92,.3-2.92,.3Z"/>
        <path class="cls-8" d="M16.98,2.35s-2.12,.28-2.83,1.52,.21,3.08,.21,3.08c0,0,1.84-.26,2.42-1.67,.38-.93,.19-2.93,.19-2.93Z"/>
        <path class="cls-8" d="M21.6,3.13s-2.04,.63-2.53,1.98,.73,3,.73,3c0,0,1.77-.57,2.1-2.05,.22-.98-.3-2.92-.3-2.92Z"/>
        <path class="cls-8" d="M24.51,7.81s-2.12-.28-3.13,.73c-1.01,1.02-.6,3.03-.6,3.03,0,0,1.84,.23,2.77-.98,.61-.8,.95-2.78,.95-2.78Z"/>
        <path class="cls-8" d="M17.88,8.36s-1.55,.21-2.06,1.11,.16,2.25,.16,2.25c0,0,1.34-.19,1.76-1.22,.28-.68,.14-2.14,.14-2.14Z"/>
        <path class="cls-8" d="M26.4,10.89s-1.51-.39-2.33,.25-.7,2.14-.7,2.14c0,0,1.31,.33,2.09-.46,.52-.52,.94-1.93,.94-1.93Z"/>
        <path class="cls-8" d="M23.93,15.03s-.97-.74-1.75-.52-1.15,1.32-1.15,1.32c0,0,.84,.63,1.65,.3,.53-.22,1.26-1.1,1.26-1.1Z"/>
        <path class="cls-8" d="M6.9,13.73s-.52-1.1-1.32-1.27-1.63,.65-1.63,.65c0,0,.46,.95,1.33,1.02,.57,.05,1.62-.4,1.62-.4Z"/>
        <path class="cls-8" d="M2.75,15.45s.34,1.51,1.28,1.94,2.21-.35,2.21-.35c0,0-.31-1.31-1.36-1.64-.69-.22-2.13,.05-2.13,.05Z"/>
        <path class="cls-8" d="M8.9,8.53s-.83,1.31-.47,2.28,1.81,1.31,1.81,1.31c0,0,.71-1.14,.2-2.12-.34-.65-1.54-1.47-1.54-1.47Z"/>
        <path class="cls-8" d="M11.94,2.4s-.65,1.03-.37,1.79,1.42,1.03,1.42,1.03c0,0,.56-.9,.15-1.67-.26-.51-1.21-1.16-1.21-1.16Z"/>
      </g>
      <g id="_幹-2" data-name="幹">
        <path class="cls-1" d="M4.41,34.85c-.47,.09-.78-.46-.48-.82,.64-.77,1.5-1.9,2.07-3.03,1-2,2-9,2-9v-6.92l-1-2.78s.91,.41,2,.71c.69,.19,2,2,2,2,0,0,0-2.86,1-3.93,.45-.48,.91-1.03,1.27-1.49,.28-.35,.83-.2,.91,.24,.17,1.02,.45,2.43,.83,3.18,1,2,1,2.41,1,2.41,0,0,0-2.41,2-3.41,.69-.34,1.26-.57,1.71-.72,.42-.14,.78,.31,.58,.7-.16,.31-.29,.67-.29,1.02v10c0,3.16,1,8,2,9,.61,.61,1.7,1.61,2.44,2.28,.27,.25,.08,.7-.29,.68-1.03-.07-2.52-.25-3.15-.73-2.37-1.83-3-2.23-3-2.23l-.9,2.69c-.05,.14-.23,.19-.34,.08l-2.77-2.77-4.35,2.61c-.22,.13-.49-.08-.41-.33l.76-2.28s-.98,.99-3,2c-.95,.47-1.87,.72-2.59,.85Z"/>
        <path class="cls-5" d="M9.63,16.22c.37,4.78-1.14,13.78-1.14,13.78"/>
        <path class="cls-5" d="M17.54,16.22c-.37,4.78,1.14,13.78,1.14,13.78"/>
        <path class="cls-5" d="M12.63,14.22c.37,4.78-1.13,16.28-1.13,16.28"/>
      </g>
      <g id="_注連縄-3" data-name="注連縄">
        <g id="_紙垂-3" data-name="紙垂">
          <rect class="cls-4" x="10.49" y="23.04" width="1.51" height="3.03" transform="translate(1.83 49.87) rotate(-135)"/>
          <rect class="cls-4" x="10.49" y="25.31" width="1.51" height="3.03" transform="translate(.22 53.75) rotate(-135)"/>
          <rect class="cls-4" x="10.49" y="27.59" width="1.51" height="3.03" transform="translate(-1.38 57.63) rotate(-135)"/>
        </g>
        <g id="_紙垂-4" data-name="紙垂">
          <rect class="cls-4" x="16.04" y="23.04" width="1.51" height="3.03" transform="translate(11.32 53.8) rotate(-135)"/>
          <rect class="cls-4" x="16.04" y="25.31" width="1.51" height="3.03" transform="translate(9.71 57.68) rotate(-135)"/>
          <rect class="cls-4" x="16.04" y="27.59" width="1.51" height="3.03" transform="translate(8.1 61.56) rotate(-135)"/>
        </g>
        <polygon id="_筋-4" data-name="筋" class="cls-7" points="14 23 13 30 15 30 14 23"/>
        <polygon id="_筋-5" data-name="筋" class="cls-7" points="8.91 23.09 6.57 29.76 8.53 30.15 8.91 23.09"/>
        <polygon id="_筋-6" data-name="筋" class="cls-7" points="18.57 23.09 20.91 29.76 18.95 30.15 18.57 23.09"/>
        <g id="_注連縄-4" data-name="注連縄">
          <path class="cls-7" d="M8.27,18.81h.1c.85,0,1.54,.69,1.54,1.54v3.37h-.1c-.85,0-1.54-.69-1.54-1.54v-3.37h0Z" transform="translate(-12.38 12.66) rotate(-45)"/>
          <path class="cls-7" d="M10.72,18.81h.1c.85,0,1.54,.69,1.54,1.54v3.37h-.1c-.85,0-1.54-.69-1.54-1.54v-3.37h0Z" transform="translate(-11.66 14.39) rotate(-45)"/>
          <path class="cls-7" d="M13.18,18.81h.1c.85,0,1.54,.69,1.54,1.54v3.37h-.1c-.85,0-1.54-.69-1.54-1.54v-3.37h0Z" transform="translate(-10.94 16.13) rotate(-45)"/>
          <path class="cls-7" d="M15.64,18.81h.1c.85,0,1.54,.69,1.54,1.54v3.37h-.1c-.85,0-1.54-.69-1.54-1.54v-3.37h0Z" transform="translate(-10.22 17.87) rotate(-45)"/>
          <path class="cls-7" d="M18.09,18.81h.1c.85,0,1.54,.69,1.54,1.54v3.37h-.1c-.85,0-1.54-.69-1.54-1.54v-3.37h0Z" transform="translate(-9.5 19.6) rotate(-45)"/>
        </g>
      </g>
    </g>
    <g>
      <rect class="cls-14" x="9.19" y="15.95" width="16.61" height="16.61" rx="3" ry="3" transform="translate(-12.03 19.48) rotate(-45)"/>
      <g>
        <rect class="cls-13" x="16.12" y="17.39" width="2.75" height="13.73" rx="1.26" ry="1.26" transform="translate(22.28 -5.27) rotate(45)"/>
        <rect class="cls-13" x="10.63" y="22.88" width="13.73" height="2.75" rx="1.26" ry="1.26" transform="translate(22.28 -5.27) rotate(45)"/>
      </g>
    </g>
  </g>
</svg>