<?xml version="1.0" encoding="utf-8"?>
<!-- Generator: Adobe Illustrator 27.1.1, SVG Export Plug-In . SVG Version: 6.00 Build 0)  -->
<svg version="1.1" xmlns="http://www.w3.org/2000/svg" xmlns:xlink="http://www.w3.org/1999/xlink" x="0px" y="0px" viewBox="0 0 28 40" style="enable-background:new 0 0 28 40;" xml:space="preserve">
<style type="text/css">
	.st0{display:none;}
	.st1{fill:#808080;}
	.st2{fill:#CCCCCC;}
	.st3{fill:#FAC400;}
	.st4{filter:url(#Adobe_OpacityMaskFilter);}
	.st5{mask:url(#SVGID_1_);}
	.st6{fill:#BB9300;}
	.st7{opacity:0.4;}
	.st8{fill:#1B1464;}
	.st9{fill:#FFFFFF;}
	.st10{fill:#2E3192;}
	.st11{opacity:0.3;fill:#FFFFFF;}
	.st12{fill:#FFCE00;}
	.st13{fill:#BFBFBF;}
	.st14{filter:url(#Adobe_OpacityMaskFilter_00000150818944958974470550000002343746218293178503_);}
	.st15{mask:url(#SVGID_00000103972253603303925630000018352126904940175280_);}
	.st16{fill:#8F8F8F;}
	.st17{fill:#FF0000;}
	.st18{fill:#F2F2F2;}
</style>
<g id="ガイド_00000162338702563158607440000009963323815856875396_" class="st0">
</g>
<g id="ピン">
	<g>
		<g>
			<polygon class="st1" points="15,40 13,40 12,30 16,30 			"/>
			<rect x="14" y="30" class="st2" width="1" height="10"/>
		</g>
		<g>
			<rect x="12" y="20" class="st1" width="4" height="10"/>
			<rect x="14" y="20" class="st2" width="1" height="10"/>
		</g>
	</g>
</g>
<g id="ノーマル">
	<g id="月">
		<circle class="st3" cx="14" cy="14" r="14"/>
	</g>
	<g id="うさぎ">
		<defs>
			<filter id="Adobe_OpacityMaskFilter" filterUnits="userSpaceOnUse" x="4" y="4.8" width="20" height="18.4">
				<feFlood style="flood-color:white;flood-opacity:1" result="back"/>
				<feBlend in="SourceGraphic" in2="back" mode="normal"/>
			</filter>
		</defs>
		<mask maskUnits="userSpaceOnUse" x="4" y="4.8" width="20" height="18.4" id="SVGID_1_">
			<g class="st4">
				<image style="overflow:visible;" width="24" height="24" xlink:href="64463FEF.jpg" transform="matrix(1 0 0 1 2 2)">
				</image>
			</g>
		</mask>
		<g class="st5">
			<g>
				<path class="st6" d="M23.2,16.2c-0.2,0-0.3,0.1-0.5,0.2c0-0.2,0-0.3,0-0.5c-0.2-1.4-0.9-2.5-1.8-2.9c0.2-0.3,0.3-0.6,0.3-0.9
					c0-0.6-0.4-1.1-1-1.5c0.5-0.3,0.9-1.4,1-2.7c0.1-1.6-0.3-3-0.9-3c-0.6,0-1.2,1.2-1.3,2.8c-0.1,1.1,0.1,2,0.3,2.5
					c-0.3-0.1-0.6-0.1-0.9-0.1c-0.1,0-0.3,0-0.4,0c0.3-0.5,0.4-1.4,0.4-2.3c0-1.6-0.5-2.9-1.1-2.9s-1.1,1.3-1.1,2.9
					c0,1.2,0.3,2.2,0.6,2.6c-0.7,0.4-1.2,1-1.2,1.7c0,1.1,1.1,1.9,2.6,2c-0.2,0.3-0.3,0.6-0.4,1c-0.3,0-0.6-0.1-0.9-0.1
					c-0.9,0-1.8,0.2-2.1,0.5l0.2-2.6h-1.6l0.1,5.2h-1.9c0,0,0.9,1.5,0.9,2.2S12,23,12,23s1,0,2.5,0s2.4-0.3,2.4-0.3
					s-0.6-1.5-0.6-2.2c0-0.6,0.8-2.5,0.8-2.5h-2.3l0.1-2c0.3,0.3,1.2,0.5,2.2,0.5c0.3,0,0.5,0,0.8,0c0,0,0,0,0,0
					c0.1,1,0.6,1.9,1.2,2.5c-0.2,0.3-0.4,0.8-0.5,1.4c-0.2,1.2,0,2.2,0.5,2.3c0.5,0.1,1.1-0.8,1.3-1.9c0.1-0.4,0.1-0.8,0.1-1.2
					c0.1,0,0.2,0,0.3,0c0,0,0,0,0.1,0c0.1,0.2,0.2,0.5,0.3,0.7c0.5,1.1,1.3,1.8,1.7,1.6s0.4-1.3-0.1-2.3c-0.2-0.3-0.4-0.7-0.6-0.9
					c0.2-0.3,0.4-0.7,0.5-1.2c0.1,0.2,0.3,0.3,0.6,0.3c0.4,0,0.8-0.3,0.8-0.8C24,16.5,23.7,16.2,23.2,16.2z"/>
				<path class="st6" d="M10.1,20.2L10,17.8c0.2,0,0.5-0.1,0.8-0.1c1.2-0.3,2.2-0.8,2.1-1.2s-1.2-0.5-2.4-0.3
					c-0.2,0-0.4,0.1-0.6,0.1l0,0c1.1-0.3,1.8-1.2,1.8-2.1c0-1.1-1-2.1-2.4-2.3c0.3-0.5,0.7-1.2,0.8-2.1c0.3-1.6,0.1-3-0.5-3.1
					C9.1,6.6,8.3,7.8,8,9.4c-0.1,0.6-0.2,1.1-0.1,1.6c-0.2-0.4-0.4-0.7-0.7-1.1c-1-1.3-2.2-2-2.7-1.6s0,1.7,1,3
					c0.4,0.6,0.9,1,1.4,1.3c-0.6,0.4-1,1-1,1.7c0,0.7,0.4,1.3,1,1.7c-0.4,0.9-1.1,2.8-1.4,4.2C5.3,20,5.1,20,5,20c-0.6,0-1,0.4-1,1
					c0,0.6,0.4,1,1,1c0.2,0,0.4-0.1,0.6-0.2C6.5,23,8,23.2,8.8,23.2C9.5,23.3,11,23,11,23s0.6-1.5,0-2.5
					C10.5,19.6,10.1,20.2,10.1,20.2z"/>
			</g>
		</g>
	</g>
	<g id="影" class="st7">
		<path d="M4.2,14c0-5.2,2.2-10,5.6-13.4C4.2,2.4,0,7.7,0,14s4.2,11.6,9.9,13.4C6.4,24,4.2,19.2,4.2,14z"/>
	</g>
</g>



</svg>