<?xml version="1.0" encoding="utf-8"?>
<!-- Generator: Adobe Illustrator 27.1.1, SVG Export Plug-In . SVG Version: 6.00 Build 0)  -->
<svg version="1.1" xmlns="http://www.w3.org/2000/svg" xmlns:xlink="http://www.w3.org/1999/xlink" x="0px" y="0px" viewBox="0 0 28 40" style="enable-background:new 0 0 28 40;" xml:space="preserve">
<style type="text/css">
	.st0{display:none;}
	.st1{fill:#808080;}
	.st2{fill:#CCCCCC;}
	.st3{display:inline;fill:#808080;}
	.st4{display:inline;fill:#CCCCCC;}
	.st5{fill:#B3B3B3;}
	.st6{fill:#39B54A;}
	.st7{fill:#A96E2D;}
	.st8{fill:#1B1464;}
	.st9{fill:#FFFFFF;}
	.st10{fill:#2E3192;}
	.st11{opacity:0.3;fill:#FFFFFF;}
	.st12{fill:#FFCE00;}
	.st13{fill:#848484;}
	.st14{fill:#797979;}
	.st15{fill:#FF0000;}
	.st16{fill:#F2F2F2;}
</style>
<g id="ガイド_00000162338702563158607440000009963323815856875396_" class="st0">
</g>
<g id="ピン">
	<g>
		<g>
			<polygon class="st1" points="15,40 13,40 12,30 16,30 			"/>
			<rect x="14" y="30" class="st2" width="1" height="10"/>
		</g>
		<g class="st0">
			<rect x="12" y="20" class="st3" width="4" height="10"/>
			<rect x="14" y="20" class="st4" width="1" height="10"/>
		</g>
	</g>
</g>
<g id="ノーマル">
	<path id="船_00000092427410978014657930000017242199437549427613_" class="st1" d="M21.2,5C18.6,1.1,14,0,14,0S9.4,1.1,6.8,5
		c-3,4.5-2.6,8-2.6,8l0.9,15H14h8.8l0.9-15C23.7,13,24.2,9.5,21.2,5z"/>
	<circle id="水" class="st5" cx="14" cy="18.7" r="4.5"/>
	<g id="地">
		<rect x="8.3" y="22.4" class="st1" width="11.4" height="5.6"/>
		<rect x="8.3" y="22.9" class="st5" width="11.4" height="5.2"/>
	</g>
	<g id="風">
		<polygon class="st1" points="11.6,9.7 10.6,6.8 17.4,6.8 16.4,9.7 14,9.8 		"/>
		<polygon class="st5" points="14,7.2 11.2,7.2 11.9,9.3 14,9.4 16.1,9.3 16.8,7.2 		"/>
	</g>
	<g id="火">
		<path class="st1" d="M9.2,14.8c-0.5,0-0.9-0.3-0.9-0.8l-0.4-3.1h1.3c0.1,0,0.4-0.2,1.7-1.5c0.3-0.3,0.6-0.4,1-0.4
			c0.2,0,0.3,0,0.4,0h3.5c0.1,0,0.2,0,0.4,0c0.4,0,0.7,0.1,1,0.4c1.3,1.3,1.7,1.5,1.8,1.5l1.2,0L19.7,14c-0.1,0.5-0.5,0.8-0.9,0.8
			H9.2z"/>
		<path class="st5" d="M18.9,11.3c-0.4,0-1.6-1.2-2-1.6s-1-0.2-1-0.2H14h-1.8c0,0-0.6-0.2-1,0.2s-1.6,1.6-2,1.6s-0.8,0-0.8,0
			l0.3,2.6c0,0.3,0.3,0.4,0.5,0.4H14h4.8c0.3,0,0.5-0.2,0.5-0.4l0.3-2.6C19.7,11.3,19.3,11.3,18.9,11.3z"/>
	</g>
	<path id="空" class="st5" d="M16.6,5.6c-0.2-1.6-2.2-2.4-2.2-2.4L14,3l-0.4,0.2c0,0-2,0.8-2.2,2.4c-0.1,0.8,0.4,1.2,0.4,1.2H14
		h2.3C16.3,6.8,16.7,6.4,16.6,5.6z"/>
	<g id="地面_00000085960540020044898610000002193894466238366089_">
		<path id="草_00000050658507514173148250000014360179358624052912_" class="st6" d="M2.4,29c-0.4-1.3-0.5-2.2-1.3-3.5
			C2.8,25.4,3.5,27.9,2.4,29L2.4,29z"/>
		<path id="草_00000179627912085844586860000016558588140227868062_" class="st6" d="M26.6,29c-1.1-1.1-0.4-3.6,1.3-3.5
			C27.1,26.8,27,27.7,26.6,29L26.6,29z"/>
		<path id="草_00000151529837931384215080000007510860043949423779_" class="st6" d="M25.8,29.5c-1.2-2.3-0.6-6.1,2.1-7
			C26.2,24.6,26.2,27,25.8,29.5L25.8,29.5z"/>
		<rect id="地面" y="28" class="st7" width="28" height="2"/>
	</g>
</g>
<g id="画像なし">
	<g id="画像なし_00000052826117572747028460000016017265853480651424_">
		<path class="st8" d="M27.1,21.6l-7.5,7.5c-1.2,1.2-3.1,1.2-4.2,0l-7.5-7.5c-1.2-1.2-1.2-3.1,0-4.2l7.5-7.5c1.2-1.2,3.1-1.2,4.2,0
			l7.5,7.5C28.3,18.5,28.3,20.5,27.1,21.6z"/>
		<path id="カメラ" class="st9" d="M22,15.5h-1.5l-0.8-1.6c-0.1-0.2-0.3-0.4-0.6-0.4h-3.2c-0.2,0-0.5,0.1-0.6,0.4l-0.8,1.6H13
			c-0.9,0-1.5,0.7-1.5,1.5V22c0,0.9,0.7,1.5,1.5,1.5H22c0.9,0,1.5-0.7,1.5-1.5V17C23.5,16.2,22.8,15.5,22,15.5z M17.5,22
			c-1.4,0-2.5-1.1-2.5-2.5c0-1.4,1.1-2.5,2.5-2.5c1.4,0,2.5,1.1,2.5,2.5C20,20.9,18.9,22,17.5,22z"/>
		<g id="斜線">
			<rect x="10.3" y="18.6" transform="matrix(0.7071 0.7071 -0.7071 0.7071 18.7662 -7.0127)" class="st10" width="15" height="1"/>
			<rect x="9.6" y="19.4" transform="matrix(0.7071 0.7071 -0.7071 0.7071 19.0591 -6.3056)" class="st9" width="15" height="1"/>
		</g>
	</g>
</g>


</svg>