<?xml version="1.0" encoding="UTF-8"?>
<svg xmlns="http://www.w3.org/2000/svg" viewBox="0 0 28 40">
  <defs>
    <style>
      .cls-1 {
        fill: #797979;
      }

      .cls-2 {
        fill: #848484;
      }

      .cls-3 {
        fill: #39b54a;
      }

      .cls-4 {
        fill: gray;
      }

      .cls-5 {
        fill: #a96e2d;
      }

      .cls-6 {
        fill: #ccc;
      }

      .cls-7 {
        fill: #b3b3b3;
      }

      .cls-8 {
        fill: #f2f2f2;
      }

      .cls-9 {
        fill: red;
      }
    </style>
  </defs>
  <g id="_ピン" data-name="ピン">
    <g>
      <polygon class="cls-4" points="15 40 13 40 12 30 16 30 15 40"/>
      <rect class="cls-6" x="14" y="30" width="1" height="10"/>
    </g>
  </g>
  <g id="_ノーマル" data-name="ノーマル">
    <path id="_船" data-name="船" class="cls-4" d="M21.15,5.01C18.56,1.09,14,0,14,0c0,0-4.56,1.09-7.15,5.01-3,4.53-2.59,8-2.59,8l.94,14.99H22.8l.94-14.99s.4-3.47-2.59-8Z"/>
    <circle id="_水" data-name="水" class="cls-7" cx="14" cy="18.66" r="4.48"/>
    <g id="_地" data-name="地">
      <rect class="cls-4" x="8.31" y="22.36" width="11.38" height="5.61"/>
      <rect class="cls-7" x="8.31" y="22.91" width="11.38" height="5.17"/>
    </g>
    <g id="_風" data-name="風">
      <polygon class="cls-4" points="11.6 9.72 10.58 6.83 17.42 6.83 16.4 9.72 14 9.77 11.6 9.72"/>
      <polygon class="cls-7" points="14 7.23 11.16 7.23 11.89 9.32 14 9.36 16.11 9.32 16.84 7.23 14 7.23"/>
    </g>
    <g id="_火" data-name="火">
      <path class="cls-4" d="M9.17,14.79c-.46,0-.86-.35-.92-.8l-.41-3.09h1.28c.05-.02,.42-.18,1.74-1.51,.25-.25,.6-.39,1-.39,.16,0,.3,.02,.37,.04h3.53c.08-.02,.21-.04,.37-.04,.4,0,.74,.13,1,.39,1.32,1.32,1.69,1.49,1.77,1.51h1.25s-.41,3.09-.41,3.09c-.06,.46-.45,.8-.92,.8H9.17Z"/>
      <path class="cls-7" d="M18.88,11.3c-.41,0-1.63-1.22-2.03-1.63s-1.03-.23-1.03-.23h-3.62s-.63-.18-1.03,.23-1.63,1.63-2.03,1.63h-.81l.35,2.63c.03,.26,.25,.45,.51,.45h9.66c.26,0,.48-.19,.51-.45l.35-2.63h-.81Z"/>
    </g>
    <path id="_空" data-name="空" class="cls-7" d="M16.64,5.64c-.2-1.63-2.24-2.44-2.24-2.44l-.41-.2-.41,.2s-2.03,.81-2.24,2.44c-.1,.81,.37,1.19,.37,1.19h4.53s.48-.38,.37-1.19Z"/>
    <g id="_地面" data-name="地面">
      <path id="_草" data-name="草" class="cls-3" d="M2.4,29c-.44-1.34-.51-2.22-1.31-3.5,1.67-.06,2.41,2.38,1.31,3.5h0Z"/>
      <path id="_草-2" data-name="草" class="cls-3" d="M26.58,29c-1.1-1.12-.36-3.56,1.31-3.5-.8,1.28-.87,2.16-1.31,3.5h0Z"/>
      <path id="_草-3" data-name="草" class="cls-3" d="M25.82,29.5c-1.16-2.29-.63-6.07,2.07-7-1.67,2.1-1.73,4.49-2.07,7h0Z"/>
      <rect id="_地面-2" data-name="地面" class="cls-5" y="28" width="28" height="2"/>
    </g>
  </g>
  <g id="_消失" data-name="消失">
    <g>
      <path id="_船-2" data-name="船" class="cls-4" d="M21.15,5.01C18.56,1.09,14,0,14,0c0,0-4.56,1.09-7.15,5.01-3,4.53-2.59,8-2.59,8l.94,14.99H22.8l.94-14.99s.4-3.47-2.59-8Z"/>
      <circle id="_水-2" data-name="水" class="cls-7" cx="14" cy="18.66" r="4.48"/>
      <g id="_地-2" data-name="地">
        <rect class="cls-4" x="8.31" y="22.36" width="11.38" height="5.61"/>
        <rect class="cls-7" x="8.31" y="22.91" width="11.38" height="5.17"/>
      </g>
      <g id="_風-2" data-name="風">
        <polygon class="cls-4" points="11.6 9.72 10.58 6.83 17.42 6.83 16.4 9.72 14 9.77 11.6 9.72"/>
        <polygon class="cls-7" points="14 7.23 11.16 7.23 11.89 9.32 14 9.36 16.11 9.32 16.84 7.23 14 7.23"/>
      </g>
      <g id="_火-2" data-name="火">
        <path class="cls-4" d="M9.17,14.79c-.46,0-.86-.35-.92-.8l-.41-3.09h1.28c.05-.02,.42-.18,1.74-1.51,.25-.25,.6-.39,1-.39,.16,0,.3,.02,.37,.04h3.53c.08-.02,.21-.04,.37-.04,.4,0,.74,.13,1,.39,1.32,1.32,1.69,1.49,1.77,1.51h1.25s-.41,3.09-.41,3.09c-.06,.46-.45,.8-.92,.8H9.17Z"/>
        <path class="cls-7" d="M18.88,11.3c-.41,0-1.63-1.22-2.03-1.63s-1.03-.23-1.03-.23h-3.62s-.63-.18-1.03,.23-1.63,1.63-2.03,1.63h-.81l.35,2.63c.03,.26,.25,.45,.51,.45h9.66c.26,0,.48-.19,.51-.45l.35-2.63h-.81Z"/>
      </g>
      <path id="_空-2" data-name="空" class="cls-7" d="M16.64,5.64c-.2-1.63-2.24-2.44-2.24-2.44l-.41-.2-.41,.2s-2.03,.81-2.24,2.44c-.1,.81,.37,1.19,.37,1.19h4.53s.48-.38,.37-1.19Z"/>
      <g id="_地面-3" data-name="地面">
        <path id="_草-4" data-name="草" class="cls-2" d="M2.4,29c-.44-1.34-.51-2.22-1.31-3.5,1.67-.06,2.41,2.38,1.31,3.5h0Z"/>
        <path id="_草-5" data-name="草" class="cls-2" d="M26.58,29c-1.1-1.12-.36-3.56,1.31-3.5-.8,1.28-.87,2.16-1.31,3.5h0Z"/>
        <path id="_草-6" data-name="草" class="cls-2" d="M25.82,29.5c-1.16-2.29-.63-6.07,2.07-7-1.67,2.1-1.73,4.49-2.07,7h0Z"/>
        <rect id="_地面-4" data-name="地面" class="cls-1" y="28" width="28" height="2"/>
      </g>
    </g>
    <g>
      <rect class="cls-9" x="9.19" y="11.2" width="16.61" height="16.61" rx="3" ry="3" transform="translate(-8.66 18.08) rotate(-45)"/>
      <g>
        <rect class="cls-8" x="16.12" y="12.64" width="2.75" height="13.73" rx="1.26" ry="1.26" transform="translate(18.91 -6.66) rotate(45)"/>
        <rect class="cls-8" x="10.63" y="18.13" width="13.73" height="2.75" rx="1.26" ry="1.26" transform="translate(18.91 -6.66) rotate(45)"/>
      </g>
    </g>
  </g>
</svg>