<?xml version="1.0" encoding="utf-8"?>
<!-- Generator: Adobe Illustrator 27.1.1, SVG Export Plug-In . SVG Version: 6.00 Build 0)  -->
<svg version="1.1" xmlns="http://www.w3.org/2000/svg" xmlns:xlink="http://www.w3.org/1999/xlink" x="0px" y="0px"
	 viewBox="0 0 28 40" style="enable-background:new 0 0 28 40;" xml:space="preserve">
<style type="text/css">
	.st0{display:none;}
	.st1{fill:#808080;}
	.st2{fill:#CCCCCC;}
	.st3{fill:#FAC400;}
	.st4{filter:url(#Adobe_OpacityMaskFilter);}
	.st5{mask:url(#SVGID_1_);}
	.st6{fill:#BB9300;}
	.st7{opacity:0.4;}
	.st8{fill:#1B1464;}
	.st9{fill:#FFFFFF;}
	.st10{fill:#2E3192;}
	.st11{opacity:0.3;fill:#FFFFFF;}
	.st12{fill:#FFCE00;}
	.st13{fill:#BFBFBF;}
	.st14{filter:url(#Adobe_OpacityMaskFilter_00000150818944958974470550000002343746218293178503_);}
	.st15{mask:url(#SVGID_00000103972253603303925630000018352126904940175280_);}
	.st16{fill:#8F8F8F;}
	.st17{fill:#FF0000;}
	.st18{fill:#F2F2F2;}
</style>
<g id="ガイド_00000162338702563158607440000009963323815856875396_" class="st0">
</g>
<g id="ピン">
	<g>
		<g>
			<polygon class="st1" points="15,40 13,40 12,30 16,30 			"/>
			<rect x="14" y="30" class="st2" width="1" height="10"/>
		</g>
		<g>
			<rect x="12" y="20" class="st1" width="4" height="10"/>
			<rect x="14" y="20" class="st2" width="1" height="10"/>
		</g>
	</g>
</g>
<g id="ノーマル">
	<g id="月">
		<circle class="st3" cx="14" cy="14" r="14"/>
	</g>
	<g id="うさぎ">
		<defs>
			<filter id="Adobe_OpacityMaskFilter" filterUnits="userSpaceOnUse" x="4" y="4.8" width="20" height="18.4">
				<feFlood  style="flood-color:white;flood-opacity:1" result="back"/>
				<feBlend  in="SourceGraphic" in2="back" mode="normal"/>
			</filter>
		</defs>
		<mask maskUnits="userSpaceOnUse" x="4" y="4.8" width="20" height="18.4" id="SVGID_1_">
			<g class="st4">
				<image style="overflow:visible;" width="24" height="24" xlink:href="64463FEF.jpg"  transform="matrix(1 0 0 1 2 2)">
				</image>
			</g>
		</mask>
		<g class="st5">
			<g>
				<path class="st6" d="M23.2,16.2c-0.2,0-0.3,0.1-0.5,0.2c0-0.2,0-0.3,0-0.5c-0.2-1.4-0.9-2.5-1.8-2.9c0.2-0.3,0.3-0.6,0.3-0.9
					c0-0.6-0.4-1.1-1-1.5c0.5-0.3,0.9-1.4,1-2.7c0.1-1.6-0.3-3-0.9-3c-0.6,0-1.2,1.2-1.3,2.8c-0.1,1.1,0.1,2,0.3,2.5
					c-0.3-0.1-0.6-0.1-0.9-0.1c-0.1,0-0.3,0-0.4,0c0.3-0.5,0.4-1.4,0.4-2.3c0-1.6-0.5-2.9-1.1-2.9s-1.1,1.3-1.1,2.9
					c0,1.2,0.3,2.2,0.6,2.6c-0.7,0.4-1.2,1-1.2,1.7c0,1.1,1.1,1.9,2.6,2c-0.2,0.3-0.3,0.6-0.4,1c-0.3,0-0.6-0.1-0.9-0.1
					c-0.9,0-1.8,0.2-2.1,0.5l0.2-2.6h-1.6l0.1,5.2h-1.9c0,0,0.9,1.5,0.9,2.2S12,23,12,23s1,0,2.5,0s2.4-0.3,2.4-0.3
					s-0.6-1.5-0.6-2.2c0-0.6,0.8-2.5,0.8-2.5h-2.3l0.1-2c0.3,0.3,1.2,0.5,2.2,0.5c0.3,0,0.5,0,0.8,0c0,0,0,0,0,0
					c0.1,1,0.6,1.9,1.2,2.5c-0.2,0.3-0.4,0.8-0.5,1.4c-0.2,1.2,0,2.2,0.5,2.3c0.5,0.1,1.1-0.8,1.3-1.9c0.1-0.4,0.1-0.8,0.1-1.2
					c0.1,0,0.2,0,0.3,0c0,0,0,0,0.1,0c0.1,0.2,0.2,0.5,0.3,0.7c0.5,1.1,1.3,1.8,1.7,1.6s0.4-1.3-0.1-2.3c-0.2-0.3-0.4-0.7-0.6-0.9
					c0.2-0.3,0.4-0.7,0.5-1.2c0.1,0.2,0.3,0.3,0.6,0.3c0.4,0,0.8-0.3,0.8-0.8C24,16.5,23.7,16.2,23.2,16.2z"/>
				<path class="st6" d="M10.1,20.2L10,17.8c0.2,0,0.5-0.1,0.8-0.1c1.2-0.3,2.2-0.8,2.1-1.2s-1.2-0.5-2.4-0.3
					c-0.2,0-0.4,0.1-0.6,0.1l0,0c1.1-0.3,1.8-1.2,1.8-2.1c0-1.1-1-2.1-2.4-2.3c0.3-0.5,0.7-1.2,0.8-2.1c0.3-1.6,0.1-3-0.5-3.1
					C9.1,6.6,8.3,7.8,8,9.4c-0.1,0.6-0.2,1.1-0.1,1.6c-0.2-0.4-0.4-0.7-0.7-1.1c-1-1.3-2.2-2-2.7-1.6s0,1.7,1,3
					c0.4,0.6,0.9,1,1.4,1.3c-0.6,0.4-1,1-1,1.7c0,0.7,0.4,1.3,1,1.7c-0.4,0.9-1.1,2.8-1.4,4.2C5.3,20,5.1,20,5,20c-0.6,0-1,0.4-1,1
					c0,0.6,0.4,1,1,1c0.2,0,0.4-0.1,0.6-0.2C6.5,23,8,23.2,8.8,23.2C9.5,23.3,11,23,11,23s0.6-1.5,0-2.5
					C10.5,19.6,10.1,20.2,10.1,20.2z"/>
			</g>
		</g>
	</g>
	<g id="影" class="st7">
		<path d="M4.2,14c0-5.2,2.2-10,5.6-13.4C4.2,2.4,0,7.7,0,14s4.2,11.6,9.9,13.4C6.4,24,4.2,19.2,4.2,14z"/>
	</g>
</g>
<g id="画像なし">
	<g id="画像なし_00000052826117572747028460000016017265853480651424_">
		<path class="st8" d="M27.1,21.6l-7.5,7.5c-1.2,1.2-3.1,1.2-4.2,0l-7.5-7.5c-1.2-1.2-1.2-3.1,0-4.2l7.5-7.5c1.2-1.2,3.1-1.2,4.2,0
			l7.5,7.5C28.3,18.5,28.3,20.5,27.1,21.6z"/>
		<path id="カメラ" class="st9" d="M22,15.5h-1.5l-0.8-1.6c-0.1-0.2-0.3-0.4-0.6-0.4h-3.2c-0.2,0-0.5,0.1-0.6,0.4l-0.8,1.6H13
			c-0.9,0-1.5,0.7-1.5,1.5V22c0,0.9,0.7,1.5,1.5,1.5H22c0.9,0,1.5-0.7,1.5-1.5V17C23.5,16.2,22.8,15.5,22,15.5z M17.5,22
			c-1.4,0-2.5-1.1-2.5-2.5c0-1.4,1.1-2.5,2.5-2.5c1.4,0,2.5,1.1,2.5,2.5C20,20.9,18.9,22,17.5,22z"/>
		<g id="斜線">
			<rect x="10.3" y="18.6" transform="matrix(0.7071 0.7071 -0.7071 0.7071 18.7662 -7.0127)" class="st10" width="15" height="1"/>
			<rect x="9.6" y="19.4" transform="matrix(0.7071 0.7071 -0.7071 0.7071 19.0591 -6.3056)" class="st9" width="15" height="1"/>
		</g>
	</g>
</g>
<g id="要調査">
	<path id="白ベール" class="st11" d="M19.7,28H8.3C3.7,28,0,24.3,0,19.7V8.3C0,3.7,3.7,0,8.3,0h11.4C24.3,0,28,3.7,28,8.3v11.4
		C28,24.3,24.3,28,19.7,28z"/>
	<g id="_xFF01_">
		<path class="st12" d="M27.1,21.6l-7.5,7.5c-1.2,1.2-3.1,1.2-4.2,0l-7.5-7.5c-1.2-1.2-1.2-3.1,0-4.2l7.5-7.5c1.2-1.2,3.1-1.2,4.2,0
			l7.5,7.5C28.3,18.5,28.3,20.5,27.1,21.6z"/>
		<g>
			<path d="M18.7,23.8c0,0.7-0.6,1.3-1.2,1.3s-1.3-0.6-1.3-1.3c0-0.7,0.6-1.2,1.3-1.2S18.7,23.1,18.7,23.8z M18.2,21
				c-0.1,0.5-0.2,0.8-0.7,0.8c-0.5,0-0.6-0.4-0.7-0.8l-0.5-3.5V15c0-0.8,0.4-1.1,1.2-1.1c0.7,0,1.1,0.3,1.1,1.1v2.5L18.2,21z"/>
		</g>
	</g>
</g>
<g id="消失">
	<g>
		<g id="月_00000101090571057421266810000009636778957209286277_">
			<circle class="st13" cx="14" cy="14" r="14"/>
		</g>
		<g id="うさぎ_00000043421917385814726400000015174077436791077273_">
			<defs>
				
					<filter id="Adobe_OpacityMaskFilter_00000163065372858131202630000013973635805333913003_" filterUnits="userSpaceOnUse" x="4" y="4.8" width="20" height="18.4">
					<feFlood  style="flood-color:white;flood-opacity:1" result="back"/>
					<feBlend  in="SourceGraphic" in2="back" mode="normal"/>
				</filter>
			</defs>
			
				<mask maskUnits="userSpaceOnUse" x="4" y="4.8" width="20" height="18.4" id="SVGID_00000106863991715547032820000011371803912603422906_">
				<g style="filter:url(#Adobe_OpacityMaskFilter_00000163065372858131202630000013973635805333913003_);">
					<image style="overflow:visible;" width="24" height="24" xlink:href="64463FED.jpg"  transform="matrix(1 0 0 1 2 2)">
					</image>
				</g>
			</mask>
			<g style="mask:url(#SVGID_00000106863991715547032820000011371803912603422906_);">
				<g>
					<path class="st16" d="M23.2,16.2c-0.2,0-0.3,0.1-0.5,0.2c0-0.2,0-0.3,0-0.5c-0.2-1.4-0.9-2.5-1.8-2.9c0.2-0.3,0.3-0.6,0.3-0.9
						c0-0.6-0.4-1.1-1-1.5c0.5-0.3,0.9-1.4,1-2.7c0.1-1.6-0.3-3-0.9-3c-0.6,0-1.2,1.2-1.3,2.8c-0.1,1.1,0.1,2,0.3,2.5
						c-0.3-0.1-0.6-0.1-0.9-0.1c-0.1,0-0.3,0-0.4,0c0.3-0.5,0.4-1.4,0.4-2.3c0-1.6-0.5-2.9-1.1-2.9s-1.1,1.3-1.1,2.9
						c0,1.2,0.3,2.2,0.6,2.6c-0.7,0.4-1.2,1-1.2,1.7c0,1.1,1.1,1.9,2.6,2c-0.2,0.3-0.3,0.6-0.4,1c-0.3,0-0.6-0.1-0.9-0.1
						c-0.9,0-1.8,0.2-2.1,0.5l0.2-2.6h-1.6l0.1,5.2h-1.9c0,0,0.9,1.5,0.9,2.2S12,23,12,23s1,0,2.5,0s2.4-0.3,2.4-0.3
						s-0.6-1.5-0.6-2.2c0-0.6,0.8-2.5,0.8-2.5h-2.3l0.1-2c0.3,0.3,1.2,0.5,2.2,0.5c0.3,0,0.5,0,0.8,0c0,0,0,0,0,0
						c0.1,1,0.6,1.9,1.2,2.5c-0.2,0.3-0.4,0.8-0.5,1.4c-0.2,1.2,0,2.2,0.5,2.3c0.5,0.1,1.1-0.8,1.3-1.9c0.1-0.4,0.1-0.8,0.1-1.2
						c0.1,0,0.2,0,0.3,0c0,0,0,0,0.1,0c0.1,0.2,0.2,0.5,0.3,0.7c0.5,1.1,1.3,1.8,1.7,1.6s0.4-1.3-0.1-2.3c-0.2-0.3-0.4-0.7-0.6-0.9
						c0.2-0.3,0.4-0.7,0.5-1.2c0.1,0.2,0.3,0.3,0.6,0.3c0.4,0,0.8-0.3,0.8-0.8C24,16.5,23.7,16.2,23.2,16.2z"/>
					<path class="st16" d="M10.1,20.2L10,17.8c0.2,0,0.5-0.1,0.8-0.1c1.2-0.3,2.2-0.8,2.1-1.2s-1.2-0.5-2.4-0.3
						c-0.2,0-0.4,0.1-0.6,0.1l0,0c1.1-0.3,1.8-1.2,1.8-2.1c0-1.1-1-2.1-2.4-2.3c0.3-0.5,0.7-1.2,0.8-2.1c0.3-1.6,0.1-3-0.5-3.1
						C9.1,6.6,8.3,7.8,8,9.4c-0.1,0.6-0.2,1.1-0.1,1.6c-0.2-0.4-0.4-0.7-0.7-1.1c-1-1.3-2.2-2-2.7-1.6s0,1.7,1,3
						c0.4,0.6,0.9,1,1.4,1.3c-0.6,0.4-1,1-1,1.7c0,0.7,0.4,1.3,1,1.7c-0.4,0.9-1.1,2.8-1.4,4.2C5.3,20,5.1,20,5,20c-0.6,0-1,0.4-1,1
						c0,0.6,0.4,1,1,1c0.2,0,0.4-0.1,0.6-0.2C6.5,23,8,23.2,8.8,23.2C9.5,23.3,11,23,11,23s0.6-1.5,0-2.5
						C10.5,19.6,10.1,20.2,10.1,20.2z"/>
				</g>
			</g>
		</g>
		<g id="影_00000162334713413321708740000009405148387193499576_" class="st7">
			<path d="M4.2,14c0-5.2,2.2-10,5.6-13.4C4.2,2.4,0,7.7,0,14s4.2,11.6,9.9,13.4C6.4,24,4.2,19.2,4.2,14z"/>
		</g>
	</g>
	<g>
		<path class="st17" d="M27.1,21.6l-7.5,7.5c-1.2,1.2-3.1,1.2-4.2,0l-7.5-7.5c-1.2-1.2-1.2-3.1,0-4.2l7.5-7.5c1.2-1.2,3.1-1.2,4.2,0
			l7.5,7.5C28.3,18.6,28.3,20.4,27.1,21.6z"/>
		<g id="_xD7_">
			<path class="st18" d="M12.7,24.4l-0.2-0.2c-0.5-0.5-0.5-1.3,0-1.8l7.9-7.9c0.5-0.5,1.3-0.5,1.8,0l0.2,0.2c0.5,0.5,0.5,1.3,0,1.8
				l-7.9,7.9C14,24.9,13.2,24.9,12.7,24.4z"/>
			<path class="st18" d="M20.5,24.4l-7.9-7.9c-0.5-0.5-0.5-1.3,0-1.8l0.2-0.2c0.5-0.5,1.3-0.5,1.8,0l7.9,7.9c0.5,0.5,0.5,1.3,0,1.8
				l-0.2,0.2C21.8,24.9,21,24.9,20.5,24.4z"/>
		</g>
	</g>
</g>
</svg>
