<?xml version="1.0" encoding="utf-8"?>
<!-- Generator: Adobe Illustrator 27.1.1, SVG Export Plug-In . SVG Version: 6.00 Build 0)  -->
<svg version="1.1" xmlns="http://www.w3.org/2000/svg" xmlns:xlink="http://www.w3.org/1999/xlink" x="0px" y="0px"
	 viewBox="0 0 28 40" style="enable-background:new 0 0 28 40;" xml:space="preserve">
<style type="text/css">
	.st0{display:none;}
	.st1{fill:#808080;}
	.st2{fill:#CCCCCC;}
	.st3{fill:#C69C6D;}
	.st4{fill:#999999;}
	.st5{fill:#8C6239;}
	.st6{fill:#C9956D;}
	.st7{fill:#9E5B3B;}
	.st8{fill:#333333;}
	.st9{fill:#FFFFFF;}
	.st10{fill:#C1272D;}
	.st11{fill:#ED1C24;}
	.st12{fill:#4D4D4D;}
	.st13{fill:#1B1464;}
	.st14{fill:#2E3192;}
	.st15{opacity:0.3;fill:#FFFFFF;}
	.st16{fill:#FFCE00;}
	.st17{fill:#A3A3A3;}
	.st18{fill:#6A6A6A;}
	.st19{fill:#A0A0A0;}
	.st20{fill:#6C6C6C;}
	.st21{fill:#565656;}
	.st22{fill:#5C5C5C;}
	.st23{fill:#FF0000;}
	.st24{fill:#F2F2F2;}
</style>
<g id="ガイド_00000162338702563158607440000009963323815856875396_" class="st0">
</g>
<g id="ピン">
	<g>
		<g>
			<polygon class="st1" points="15,40 13,40 12,30 16,30 			"/>
			<rect x="14" y="30" class="st2" width="1" height="10"/>
		</g>
		<g>
			<rect x="12" y="20" class="st1" width="4" height="10"/>
			<rect x="14" y="20" class="st2" width="1" height="10"/>
		</g>
	</g>
</g>
<g id="ノーマル">
	<g id="牛">
		<path id="角_00000042737943977526449980000016920007814903877533_" class="st3" d="M14.1,5.5l0.7-5.1c0.1-0.5,0.8-0.5,0.9,0
			l0.7,5.2L14.1,5.5z"/>
		<path id="角" class="st3" d="M21.1,5.5l0.7-5.1c0.1-0.5,0.8-0.5,0.9,0l0.7,5.2L21.1,5.5z"/>
		<path id="顔_00000005962829729900271740000006892997309331904660_" class="st4" d="M26.6,4.7L28,5l-1.5-3
			c-0.3-0.7-0.6-1.2-0.6-1.2s-1.5,1.5-2.1,2.8c-0.2,0.4-0.3,0.8-0.5,1.3c-1.6-1-3.7-1.2-4.6-1.2S15.6,4,14,5
			c-0.1-0.4-0.3-0.9-0.5-1.3c-0.5-1-1.5-2.1-1.9-2.6l0-0.2L11.5,1c-0.1-0.1-0.1-0.1-0.1-0.1s-0.8,1.3-1,2.3L9.4,5l1.3-0.3
			c0.6,0.6,1.5,1.1,2,1.4c-0.4,0.6-0.8,1.3-0.9,2.1c-0.4,3.1,1.6,4.4,2,6.2c0.4,1.9,0.4,3.3,1.7,4.7c0.7,0.8,2.6,0.9,3.1,0.9
			s2.4-0.1,3.1-0.9c1.3-1.5,1.4-2.8,1.7-4.7c0.3-1.8,2.4-3.1,2-6.2c-0.1-0.9-0.4-1.6-0.9-2.1C25,5.8,26,5.2,26.6,4.7z"/>
		<path id="たてがみ_00000070106249150304397790000004969250974794013340_" class="st5" d="M17.2,2.5c0,0-2.3,0.8-2.8,2.4
			C14,6,16.8,7.9,16.8,7.9l0.1-1.4L20,8.6l0.9-2l1.7,1.3c0,0,0.8-1.1,0.7-2.2s-0.9-1.8-1.6-2.1C20.8,3.2,20,3.2,20,3.2
			S20.3,3,20.8,3c0.4,0,1.3,0.3,1.3,0.3s-0.8-0.8-2.9-0.6c-0.5,0-2.2,0.6-2.2,0.6L17.2,2.5z"/>
		<g id="鼻_00000098211600962793673470000015980822750886033284_">
			<path id="鼻_00000132045960971268493870000012232256320953335176_" class="st6" d="M18.6,14.8c-1.3,0.1-3.1,0.6-4.5,1.2
				c0.2,1.1,0.7,2.1,1.6,3.1c0.7,0.8,2.4,0.9,2.9,0.9s2.2-0.1,2.9-0.9c0.9-1,1.4-2,1.7-3.2C21.7,15.3,19.9,14.7,18.6,14.8z"/>
			<g>
				<ellipse class="st7" cx="17.1" cy="17.8" rx="0.5" ry="0.4"/>
				<ellipse class="st7" cx="20.1" cy="17.8" rx="0.5" ry="0.4"/>
			</g>
		</g>
		<ellipse id="目_00000113336467354431484150000013094967090532796331_" class="st8" cx="16.1" cy="11.3" rx="0.8" ry="0.8"/>
		<ellipse id="目_00000158749576560780331740000008041502951593618608_" class="st8" cx="21.1" cy="11.3" rx="0.8" ry="0.8"/>
	</g>
	<g id="狐">
		<g id="顔">
			<path class="st9" d="M9.5,12.1l-0.7,1.7c-0.1,0.2-0.4,0.4-0.6,0.4H7.4H6.6c-0.3,0-0.5-0.2-0.6-0.4l-0.7-1.7
				C5,11.7,4.4,11.6,4.1,12c-1.1,1.3-3.6,4.2-3,7.9c1,6.3,5.3,9,6.2,9.2c0.1,0,0.2,0,0.2,0c0.9-0.2,5.4-2.2,6.2-9.2
				c0.4-3.7-1.9-6.5-3-7.9C10.4,11.6,9.7,11.7,9.5,12.1z"/>
			<path class="st4" d="M10.2,11.7c0.2,0,0.4,0.1,0.5,0.2c1.1,1.3,3.4,4.2,3,7.9c-0.8,7-5.3,9-6.2,9.2c0,0-0.1,0-0.1,0s-0.1,0-0.1,0
				c-0.9-0.2-5.2-2.8-6.2-9.2c-0.6-3.6,1.9-6.5,3-7.9c0.1-0.2,0.3-0.2,0.5-0.2c0.3,0,0.5,0.1,0.6,0.4L6,13.8
				c0.1,0.2,0.4,0.4,0.6,0.4h0.8h0.8c0.3,0,0.5-0.2,0.6-0.4l0.7-1.7C9.7,11.9,9.9,11.7,10.2,11.7 M10.2,10.7c-0.7,0-1.3,0.4-1.5,1
				L8,13.2H7.4H6.8l-0.7-1.5c-0.3-0.6-0.9-1-1.5-1c-0.5,0-1,0.2-1.3,0.6l-0.1,0.1C2,12.9-0.5,16,0.1,20c1.1,6.8,5.8,9.8,7,10
				c0.1,0,0.2,0,0.3,0s0.2,0,0.3,0c1.3-0.2,6.1-2.6,7-10c0.5-4.1-2.1-7.3-3.2-8.6C11.1,11,10.7,10.7,10.2,10.7L10.2,10.7z"/>
		</g>
		<path id="耳" class="st10" d="M3.4,15.2L4.3,13c0.1-0.2,0.4-0.2,0.5,0l0.5,1.1c0.1,0.2,0,0.5-0.3,0.6L3.4,15.2z"/>
		<path id="耳_00000139992348354295232240000012958671237424445104_" class="st10" d="M10.6,13l0.9,1.9c0.1,0.2-0.1,0.4-0.3,0.3
			l-1.5-0.4c-0.2-0.1-0.3-0.3-0.2-0.5l0.7-1.3C10.2,12.8,10.5,12.8,10.6,13z"/>
		<g id="目">
			<path class="st11" d="M9.3,21.3c0-1.5,1.6-2.5,3-2.2C11.4,20,10.4,20.6,9.3,21.3L9.3,21.3z"/>
			<path class="st12" d="M8.7,21.7c0-1.5,1.6-2.5,3-2.2C10.8,20.4,9.8,21,8.7,21.7L8.7,21.7z"/>
		</g>
		<g id="目_00000117634498790427627500000017133917451091214245_">
			<path class="st11" d="M5.7,21.5c-1.2-0.6-2.1-1.2-3-2.2C4.1,18.9,5.7,20,5.7,21.5L5.7,21.5z"/>
			<path class="st12" d="M6.3,21.9c-1.2-0.6-2.1-1.2-3-2.2C4.8,19.3,6.3,20.4,6.3,21.9L6.3,21.9z"/>
		</g>
		<path id="口" class="st10" d="M4.4,25.5C4.9,25.7,5.5,26,6,26.2c0.3,0.1,0.6-0.2,0.9-0.2c0.3-0.2,0.9-0.2,1.2,0
			c0.3,0.1,0.6,0.4,0.9,0.3c0.5-0.2,1.1-0.5,1.6-0.5c-0.2,0.2-0.4,0.5-0.6,0.7c-0.2,0.2-0.4,0.4-0.7,0.6c-0.3,0.2-0.9,0.1-1.2,0
			c-0.1,0-0.5-0.2-0.6-0.2c-0.2,0-0.8,0.3-1.2,0.3c-0.4,0-0.8-0.3-1-0.5C4.9,26.3,4.6,25.9,4.4,25.5L4.4,25.5z"/>
		<ellipse id="鼻" class="st10" cx="7.3" cy="24.4" rx="1" ry="0.7"/>
	</g>
</g>
<g id="画像なし">
	<g id="画像なし_00000025404425539411263580000002050163650085232017_">
		<path class="st13" d="M27.1,21.6l-7.5,7.5c-1.2,1.2-3.1,1.2-4.2,0l-7.5-7.5c-1.2-1.2-1.2-3.1,0-4.2l7.5-7.5c1.2-1.2,3.1-1.2,4.2,0
			l7.5,7.5C28.3,18.5,28.3,20.5,27.1,21.6z"/>
		<path id="カメラ" class="st9" d="M22,15.5h-1.5l-0.8-1.6c-0.1-0.2-0.3-0.4-0.6-0.4h-3.2c-0.2,0-0.5,0.1-0.6,0.4l-0.8,1.6H13
			c-0.9,0-1.5,0.7-1.5,1.5V22c0,0.9,0.7,1.5,1.5,1.5H22c0.9,0,1.5-0.7,1.5-1.5V17C23.5,16.2,22.8,15.5,22,15.5z M17.5,22
			c-1.4,0-2.5-1.1-2.5-2.5c0-1.4,1.1-2.5,2.5-2.5c1.4,0,2.5,1.1,2.5,2.5C20,20.9,18.9,22,17.5,22z"/>
		<g id="斜線">
			<rect x="10.3" y="18.6" transform="matrix(0.7071 0.7071 -0.7071 0.7071 18.7662 -7.0127)" class="st14" width="15" height="1"/>
			<rect x="9.6" y="19.4" transform="matrix(0.7071 0.7071 -0.7071 0.7071 19.0591 -6.3056)" class="st9" width="15" height="1"/>
		</g>
	</g>
</g>
<g id="要調査">
	<path id="白ベール" class="st15" d="M16.1,30H7.8C3.5,30,0,26.5,0,22.2v-9.4C0,5.7,5.7,0,12.8,0h12.7C26.9,0,28,1.1,28,2.5
		v15.7C28,24.7,22.7,30,16.1,30z"/>
	<g>
		<path class="st16" d="M27.1,21.6l-7.5,7.5c-1.2,1.2-3.1,1.2-4.2,0l-7.5-7.5c-1.2-1.2-1.2-3.1,0-4.2l7.5-7.5c1.2-1.2,3.1-1.2,4.2,0
			l7.5,7.5C28.3,18.5,28.3,20.5,27.1,21.6z"/>
		<g>
			<path d="M18.7,23.8c0,0.7-0.6,1.3-1.2,1.3s-1.3-0.6-1.3-1.3c0-0.7,0.6-1.2,1.3-1.2S18.7,23.1,18.7,23.8z M18.2,21
				c-0.1,0.5-0.2,0.8-0.7,0.8c-0.5,0-0.6-0.4-0.7-0.8l-0.5-3.5V15c0-0.8,0.4-1.1,1.2-1.1c0.7,0,1.1,0.3,1.1,1.1v2.5L18.2,21z"/>
		</g>
	</g>
</g>
<g id="消失">
	<g>
		<g id="牛_00000154426515623055177410000003640212427272332958_">
			<path id="角_00000065793304290843104020000005013337676519540156_" class="st17" d="M14.1,5.5l0.7-5.1c0.1-0.5,0.8-0.5,0.9,0
				l0.7,5.2L14.1,5.5z"/>
			<path id="角_00000021812164406672381480000007147739224640458882_" class="st17" d="M21.1,5.5l0.7-5.1c0.1-0.5,0.8-0.5,0.9,0
				l0.7,5.2L21.1,5.5z"/>
			<path id="顔_00000130612061527912893180000004523014729356926114_" class="st4" d="M26.6,4.7L28,5l-1.5-3
				c-0.3-0.7-0.6-1.2-0.6-1.2s-1.5,1.5-2.1,2.8c-0.2,0.4-0.3,0.8-0.5,1.3c-1.6-1-3.7-1.2-4.6-1.2S15.6,4,14,5
				c-0.1-0.4-0.3-0.9-0.5-1.3c-0.5-1-1.5-2.1-1.9-2.6l0-0.2L11.5,1c-0.1-0.1-0.1-0.1-0.1-0.1s-0.8,1.3-1,2.3L9.4,5l1.3-0.3
				c0.6,0.6,1.5,1.1,2,1.4c-0.4,0.6-0.8,1.3-0.9,2.1c-0.4,3.1,1.6,4.4,2,6.2c0.4,1.9,0.4,3.3,1.7,4.7c0.7,0.8,2.6,0.9,3.1,0.9
				s2.4-0.1,3.1-0.9c1.3-1.5,1.4-2.8,1.7-4.7c0.3-1.8,2.4-3.1,2-6.2c-0.1-0.9-0.4-1.6-0.9-2.1C25,5.8,26,5.2,26.6,4.7z"/>
			<path id="たてがみ_00000065794124355907062270000009209813603217509543_" class="st18" d="M17.2,2.5c0,0-2.3,0.8-2.8,2.4
				C14,6,16.8,7.9,16.8,7.9l0.1-1.4L20,8.6l0.9-2l1.7,1.3c0,0,0.8-1.1,0.7-2.2s-0.9-1.8-1.6-2.1C20.8,3.2,20,3.2,20,3.2
				S20.3,3,20.8,3c0.4,0,1.3,0.3,1.3,0.3s-0.8-0.8-2.9-0.6c-0.5,0-2.2,0.6-2.2,0.6L17.2,2.5z"/>
			<g id="鼻_00000099628436328906249260000002314189893508992659_">
				<path id="鼻_00000018201519287237936930000010208857301993923738_" class="st19" d="M18.6,14.8c-1.3,0.1-3.1,0.6-4.5,1.2
					c0.2,1.1,0.7,2.1,1.6,3.1c0.7,0.8,2.4,0.9,2.9,0.9s2.2-0.1,2.9-0.9c0.9-1,1.4-2,1.7-3.2C21.7,15.3,19.9,14.7,18.6,14.8z"/>
				<g>
					<ellipse class="st20" cx="17.1" cy="17.8" rx="0.5" ry="0.4"/>
					<ellipse class="st20" cx="20.1" cy="17.8" rx="0.5" ry="0.4"/>
				</g>
			</g>
			<ellipse id="目_00000044161277637744269460000001316039078859119778_" class="st8" cx="16.1" cy="11.3" rx="0.8" ry="0.8"/>
			<ellipse id="目_00000128464262103435807730000017838298871229681552_" class="st8" cx="21.1" cy="11.3" rx="0.8" ry="0.8"/>
		</g>
		<g id="狐_00000000190978487246387490000005573815717944925583_">
			<g id="顔_00000020392936129199575510000001424337861743830972_">
				<path class="st9" d="M9.5,12.1l-0.7,1.7c-0.1,0.2-0.4,0.4-0.6,0.4H7.4H6.6c-0.3,0-0.5-0.2-0.6-0.4l-0.7-1.7
					C5,11.7,4.4,11.6,4.1,12c-1.1,1.3-3.6,4.2-3,7.9c1,6.3,5.3,9,6.2,9.2c0.1,0,0.2,0,0.2,0c0.9-0.2,5.4-2.2,6.2-9.2
					c0.4-3.7-1.9-6.5-3-7.9C10.4,11.6,9.7,11.7,9.5,12.1z"/>
				<path class="st4" d="M10.2,11.7c0.2,0,0.4,0.1,0.5,0.2c1.1,1.3,3.4,4.2,3,7.9c-0.8,7-5.3,9-6.2,9.2c0,0-0.1,0-0.1,0
					s-0.1,0-0.1,0c-0.9-0.2-5.2-2.8-6.2-9.2c-0.6-3.6,1.9-6.5,3-7.9c0.1-0.2,0.3-0.2,0.5-0.2c0.3,0,0.5,0.1,0.6,0.4L6,13.8
					c0.1,0.2,0.4,0.4,0.6,0.4h0.8h0.8c0.3,0,0.5-0.2,0.6-0.4l0.7-1.7C9.7,11.9,9.9,11.7,10.2,11.7 M10.2,10.7c-0.7,0-1.3,0.4-1.5,1
					L8,13.2H7.4H6.8l-0.7-1.5c-0.3-0.6-0.9-1-1.5-1c-0.5,0-1,0.2-1.3,0.6l-0.1,0.1C2,12.9-0.5,16,0.1,20c1.1,6.8,5.8,9.8,7,10
					c0.1,0,0.2,0,0.3,0s0.2,0,0.3,0c1.3-0.2,6.1-2.6,7-10c0.5-4.1-2.1-7.3-3.2-8.6C11.1,11,10.7,10.7,10.2,10.7L10.2,10.7z"/>
			</g>
			<path id="耳_00000011016620370985359430000012400748068073519524_" class="st21" d="M3.4,15.2L4.3,13c0.1-0.2,0.4-0.2,0.5,0
				l0.5,1.1c0.1,0.2,0,0.5-0.3,0.6L3.4,15.2z"/>
			<path id="耳_00000070839419804477536540000009250686545137323169_" class="st21" d="M10.6,13l0.9,1.9c0.1,0.2-0.1,0.4-0.3,0.3
				l-1.5-0.4c-0.2-0.1-0.3-0.3-0.2-0.5l0.7-1.3C10.2,12.8,10.5,12.8,10.6,13z"/>
			<g id="目_00000145029349199620513910000008230675628868278708_">
				<path class="st22" d="M9.3,21.3c0-1.5,1.6-2.5,3-2.2C11.4,20,10.4,20.6,9.3,21.3L9.3,21.3z"/>
				<path class="st12" d="M8.7,21.7c0-1.5,1.6-2.5,3-2.2C10.8,20.4,9.8,21,8.7,21.7L8.7,21.7z"/>
			</g>
			<g id="目_00000088829879650459533150000006807580194012794513_">
				<path class="st22" d="M5.7,21.5c-1.2-0.6-2.1-1.2-3-2.2C4.1,18.9,5.7,20,5.7,21.5L5.7,21.5z"/>
				<path class="st12" d="M6.3,21.9c-1.2-0.6-2.1-1.2-3-2.2C4.8,19.3,6.3,20.4,6.3,21.9L6.3,21.9z"/>
			</g>
			<path id="口_00000171703630936397016030000012815106788911319689_" class="st21" d="M4.4,25.5C4.9,25.7,5.5,26,6,26.2
				c0.3,0.1,0.6-0.2,0.9-0.2c0.3-0.2,0.9-0.2,1.2,0c0.3,0.1,0.6,0.4,0.9,0.3c0.5-0.2,1.1-0.5,1.6-0.5c-0.2,0.2-0.4,0.5-0.6,0.7
				c-0.2,0.2-0.4,0.4-0.7,0.6c-0.3,0.2-0.9,0.1-1.2,0c-0.1,0-0.5-0.2-0.6-0.2c-0.2,0-0.8,0.3-1.2,0.3c-0.4,0-0.8-0.3-1-0.5
				C4.9,26.3,4.6,25.9,4.4,25.5L4.4,25.5z"/>
			<ellipse id="鼻_00000049201873645197057340000013621201764857626507_" class="st21" cx="7.3" cy="24.4" rx="1" ry="0.7"/>
		</g>
	</g>
	<g>
		<path class="st23" d="M27.1,21.6l-7.5,7.5c-1.2,1.2-3.1,1.2-4.2,0l-7.5-7.5c-1.2-1.2-1.2-3.1,0-4.2l7.5-7.5c1.2-1.2,3.1-1.2,4.2,0
			l7.5,7.5C28.3,18.6,28.3,20.4,27.1,21.6z"/>
		<g>
			<path class="st24" d="M12.7,24.4l-0.2-0.2c-0.5-0.5-0.5-1.3,0-1.8l7.9-7.9c0.5-0.5,1.3-0.5,1.8,0l0.2,0.2c0.5,0.5,0.5,1.3,0,1.8
				l-7.9,7.9C14,24.9,13.2,24.9,12.7,24.4z"/>
			<path class="st24" d="M20.5,24.4l-7.9-7.9c-0.5-0.5-0.5-1.3,0-1.8l0.2-0.2c0.5-0.5,1.3-0.5,1.8,0l7.9,7.9c0.5,0.5,0.5,1.3,0,1.8
				l-0.2,0.2C21.8,24.9,21,24.9,20.5,24.4z"/>
		</g>
	</g>
</g>
</svg>
