<?xml version="1.0" encoding="utf-8"?>
<!-- Generator: Adobe Illustrator 27.1.1, SVG Export Plug-In . SVG Version: 6.00 Build 0)  -->
<svg version="1.1" xmlns="http://www.w3.org/2000/svg" xmlns:xlink="http://www.w3.org/1999/xlink" x="0px" y="0px"
	 viewBox="0 0 28 40" style="enable-background:new 0 0 28 40;" xml:space="preserve">
<style type="text/css">
	.st0{display:none;}
	.st1{fill:#808080;}
	.st2{fill:#CCCCCC;}
	.st3{display:inline;fill:#808080;}
	.st4{display:inline;fill:#CCCCCC;}
	.st5{fill:#A67C52;}
	.st6{fill:#C69C6D;}
	.st7{fill:#666666;}
	.st8{fill:#999999;}
	.st9{fill:#333333;}
	.st10{fill:#39B54A;}
	.st11{fill:#A96E2D;}
	.st12{fill:#1B1464;}
	.st13{fill:#FFFFFF;}
	.st14{fill:#2E3192;}
	.st15{opacity:0.3;fill:#FFFFFF;}
	.st16{fill:#FFCE00;}
	.st17{fill:#848484;}
	.st18{fill:#A3A3A3;}
	.st19{fill:#797979;}
	.st20{fill:#FF0000;}
	.st21{fill:#F2F2F2;}
</style>
<g id="ガイド_00000162338702563158607440000009963323815856875396_" class="st0">
</g>
<g id="ピン">
	<g>
		<g>
			<polygon class="st1" points="15,40 13,40 12,30 16,30 			"/>
			<rect x="14" y="30" class="st2" width="1" height="10"/>
		</g>
		<g class="st0">
			<rect x="12" y="20" class="st3" width="4" height="10"/>
			<rect x="14" y="20" class="st4" width="1" height="10"/>
		</g>
	</g>
</g>
<g id="ノーマル">
	<path id="卒塔婆_00000103986609361958890140000007281549843346840241_" class="st5" d="M27.4,9.2l0.2-2.6c0-0.6-0.2-1.1-0.6-1.3
		l0.4,0c0,0,0.3-0.3,0.3-0.9c0-1.2-1.2-1.9-1.2-1.9l-0.2-0.2l-0.3,0.1c0,0-1.3,0.5-1.5,1.7c-0.1,0.6,0.1,0.9,0.1,0.9l0.5,0
		c-0.4,0.2-0.7,0.6-0.8,1.2l-0.2,2.6c0,0.5,0.1,0.9,0.4,1.2c-0.3,0.2-0.5,0.6-0.6,1.1l-0.2,2.6c-0.1,0.7,0.4,1.4,0.9,1.4l-0.2,0
		c-0.5,0-0.9,0.4-0.9,1l-1.1,13.1c0,0.1,0.1,0.2,0.2,0.2l2.9,0.2l1.1-13.4c0-0.5-0.3-1-0.7-1.1l-0.3,0c0.6,0,1.1-0.5,1.2-1.3
		l0.2-2.6c0-0.5-0.1-0.9-0.4-1.2C27.1,10.1,27.3,9.7,27.4,9.2z"/>
	<path id="卒塔婆_00000129924765295842853640000005812920110623665064_" class="st6" d="M23.6,7.2V4.4c0-0.6-0.3-1.1-0.7-1.3h0.5
		c0,0,0.3-0.3,0.2-1c-0.1-1.3-1.4-2-1.4-2L21.9,0l-0.3,0.2c0,0-1.3,0.7-1.4,2c-0.1,0.6,0.2,1,0.2,1h0.5c-0.4,0.2-0.7,0.7-0.7,1.3
		v2.8c0,0.5,0.2,1,0.5,1.2c-0.3,0.3-0.5,0.7-0.5,1.2v2.8c0,0.8,0.5,1.4,1.1,1.4h-0.2c-0.5,0-0.9,0.5-0.9,1.2v14
		c0,0.1,0.1,0.2,0.2,0.2h3.2V15c0-0.6-0.4-1.1-0.8-1.1h-0.3c0.6,0,1.1-0.6,1.1-1.4V9.7c0-0.5-0.2-1-0.5-1.2
		C23.3,8.2,23.6,7.8,23.6,7.2z"/>
	<path id="卒塔婆" class="st6" d="M5.4,9.2L5.3,6.6c0-0.6-0.3-1-0.7-1.2l0.4,0c0,0,0.3-0.3,0.2-0.9C5,3.2,3.8,2.6,3.8,2.6
		L3.5,2.5L3.3,2.6c0,0-1.2,0.7-1.3,1.9c0,0.6,0.3,0.9,0.3,0.9l0.5,0C2.4,5.6,2.1,6.1,2.1,6.7l0.1,2.7c0,0.5,0.2,0.9,0.5,1.1
		c-0.3,0.2-0.5,0.7-0.5,1.1l0.1,2.7c0,0.7,0.5,1.3,1.1,1.3l-0.2,0c-0.5,0-0.8,0.5-0.8,1.1l0.4,13.1C2.9,29.9,3,30,3.1,30L6,29.9
		L5.6,16.5c0-0.5-0.4-1-0.8-1l-0.3,0c0.6,0,1-0.6,1-1.4l-0.1-2.7c0-0.5-0.2-0.9-0.5-1.1C5.2,10.1,5.4,9.7,5.4,9.2z"/>
	<rect id="土台" x="3.4" y="25" class="st7" width="20" height="3"/>
	<path id="竿石" class="st8" d="M18.4,25h-10V3.1C8.4,2.5,8.9,2,9.5,2h7.9c0.6,0,1.1,0.5,1.1,1.1V25z"/>
	<g id="墓_00000124849544261647806950000006288072164115035787_">
		<path class="st9" d="M12.1,11.6c0,0,0.1,0,0.1,0c0,0,0.1,0,0.2,0c0,0,0,0,0.2,0l0.1,0c0.2-0.1,0.8-0.2,0.9-0.2c0.1,0,0.1,0,0.2,0
			c0.2,0,0.3,0.1,0.5,0.2c0.2,0.2,0.3,0.4,0.3,0.6c0,0.1,0,0.2,0,0.2c0,0.1-0.1,0.1-0.1,0.2c0,0.1,0,0.2-0.1,0.2
			c0,0.1-0.1,0.1-0.1,0.2c0,0,0,0.1-0.1,0.1c0,0-0.1,0.2-0.1,0.3c-0.1,0.3-0.3,0.5-0.5,0.5l-0.2,0c-0.1,0-0.1-0.1-0.1-0.1l0,0
			c-0.1-0.1-0.1-0.1-0.2-0.1h0c0,0,0,0,0,0c0,0-0.1,0-0.1,0c0,0-0.1,0-0.1,0c-0.1,0-0.1,0-0.1,0c0,0,0,0-0.1,0
			c-0.1,0-0.3,0.1-0.4,0.1c-0.1,0-0.2,0-0.2,0.1c0,0,0,0,0,0c0,0.1,0.1,0.1,0.2,0.2c0.1,0,0.2,0.1,0.2,0.1c0.1,0,0.1,0.1,0.1,0.2
			c0,0,0,0,0,0c0,0,0,0,0,0c0,0,0.2,0,0.3-0.1l0.2,0L13,14.2c-0.1,0-0.2-0.2-0.2-0.3v0h0c0,0,0.1,0,0.1,0l0.1,0c0.1,0,0.1,0,0.1,0
			c0,0,0,0,0,0h0c0,0,0.3,0.1,0.5,0.2c0.1,0,0.1,0,0.1,0c0,0,0,0,0.1,0l0.1,0h0c0.3,0,0.4-0.1,0.6-0.1c0.1,0,0.1,0,0.2,0
			c0.3,0.1,0.7,0.3,0.7,0.4c0,0.1-0.1,0.2-0.2,0.2h0c-0.1,0-0.1,0-0.1,0c0,0-0.3-0.1-0.4-0.1c0,0-0.1,0-0.1,0h0
			c0.1,0.1,1,0.8,1.1,0.9c0.4,0.3,0.9,0.5,1.5,0.7c0.5,0.2,0.6,0.2,0.8,0.4l0,0c0,0,0,0,0,0c0,0,0.1,0.1,0.1,0.1s0,0.1,0,0.1l0,0
			c0,0.1-0.1,0.1-0.1,0.1c0,0,0,0-0.1,0c-0.4,0-1.3-0.3-1.7-0.6c0,0-0.1-0.1-0.2-0.1c-0.2-0.1-0.7-0.5-1-0.7
			c-0.3-0.3-0.5-0.5-0.8-0.7c-0.3-0.2-0.4-0.3-0.5-0.3h0l0,0c0,0,0,0-0.1,0c0,0,0,0-0.1,0c-0.1,0-0.2,0-0.3,0.1c-0.1,0-0.1,0-0.1,0
			h0l0,0c-0.1,0-0.1,0-0.2,0l0,0c-0.1,0-0.1,0-0.1,0c0,0,0,0-0.1,0c0,0,0,0,0,0c-0.1,0-0.3,0.2-0.4,0.4c-0.1,0.1-0.5,0.7-0.6,0.8
			c-0.1,0.1-0.1,0.2-0.2,0.2C11,16.5,10.5,17,10.3,17c0,0-0.2,0.1-0.2,0.1c-0.2,0.1-0.5,0.3-0.6,0.3c0,0-0.1,0-0.1,0
			c0,0-0.1,0-0.2,0c-0.1,0-0.2,0-0.3,0.1c-0.1,0-0.1,0-0.1,0h0c0,0,0.1-0.1,0.2-0.2c0.6-0.4,1.5-1.2,1.8-1.6
			c0.3-0.4,0.5-0.6,0.5-0.7c0,0,0,0,0,0s0,0-0.1,0c0,0-0.1,0-0.1,0h0l0,0c-0.1,0-0.3,0.1-0.4,0.1h0c0,0,0,0-0.1,0
			c-0.1,0-0.1,0-0.2,0h-0.1c0,0-0.1,0-0.1,0c0,0,0,0,0,0c0,0,0.1-0.1,0.2-0.1c0.1,0,0.1,0,0.2-0.1c0,0,0.1,0,0.1,0c0,0,0,0,0.1,0
			c0,0,0.1,0,0.1,0c0,0,0,0,0.1,0l0.1,0c0,0,0.1,0,0.1,0c0,0,0.1,0,0.1,0l0.1,0c0.1,0,0.1-0.1,0.2-0.1c0,0,0.1-0.1,0.2-0.1
			c0.1-0.1,0.1-0.2,0.1-0.2c0,0,0-0.1-0.1-0.1c-0.1,0-0.1-0.2-0.1-0.3c0,0,0,0,0,0v0c0,0,0-0.1-0.1-0.2c0-0.1-0.1-0.3-0.2-0.5
			c-0.1-0.4-0.2-0.6-0.4-0.9c0-0.1-0.1-0.2-0.1-0.3l0,0c0,0,0-0.1,0-0.1c0,0,0,0,0.1-0.1h0c0,0,0,0,0,0c0,0,0.1,0,0.1,0
			c0.1,0,0.4,0.4,0.5,0.6c0.1,0.3,0.3,0.6,0.3,0.7c0,0.1,0,0.2,0.1,0.2c0,0,0.1,0,0.2-0.1c0.3-0.1,0.7-0.2,0.9-0.2h0l0.1,0l0.1-0.3
			c0.2-0.5,0.4-0.9,0.4-1.2l0-0.1l-0.1,0c-0.2,0-0.3,0-0.6,0.1c-0.2,0.1-0.4,0.1-0.6,0.1h0l-0.1,0c-0.2,0-0.3,0-0.3-0.1
			c0,0,0-0.1,0-0.1c0,0,0,0,0,0C12.1,11.6,12.1,11.6,12.1,11.6L12.1,11.6z M12.9,9C12.9,9,12.9,8.9,12.9,9c0-0.1,0.1-0.1,0.1-0.1
			c0,0,0.1,0,0.2-0.1c0.1,0,0.1,0,0.2,0c0.1,0,0.1,0,0.3,0.1C13.9,9,14,9.1,14,9.2c0,0,0,0.1,0,0.2c0,0,0,0.1,0,0.1
			c0,0.1,0.1,0.1,0.3,0.1c0.3,0,0.5,0.1,0.8,0.2c0.2,0.1,0.2,0.2,0.2,0.3c0,0,0,0.1-0.1,0.1s-0.1,0-0.1,0c0,0-0.1,0-0.1,0h0
			c0,0,0,0-0.1,0c0,0-0.1,0-0.1,0c0,0,0,0-0.1,0c0,0,0,0-0.1,0l0,0c0,0-0.1,0-0.1,0c0,0-0.2,0-0.3,0H14c-0.2,0-0.3,0-0.5,0.3
			c-0.1,0.1-0.1,0.2-0.1,0.2s-0.1,0.1-0.1,0.2c-0.1,0.1-0.2,0.2-0.3,0.3c-0.3,0.3-0.4,0.3-0.4,0.3c0,0,0,0,0,0c0,0,0-0.1,0-0.1
			c0.1-0.1,0.3-0.5,0.3-0.7c0-0.1,0.1-0.2,0.1-0.2c0,0,0,0,0,0c0,0-0.1,0-0.2,0h0c0,0,0,0-0.1,0c-0.1,0-0.2,0.1-0.2,0.1h0
			c0,0-0.5,0.2-0.6,0.2c0,0,0,0.1-0.1,0.2c-0.1,0.2-0.1,0.3-0.2,0.3s-0.2-0.1-0.2-0.2c0-0.1,0-0.1-0.3-0.1c-0.3,0-0.5-0.1-0.5-0.1
			c0-0.1,0.2-0.3,0.5-0.3c0,0,0.1,0,0.1,0c0,0,0,0,0,0c0,0,0,0,0,0c0,0,0,0,0,0h0c0,0,0,0,0-0.1c0-0.1-0.1-0.3-0.1-0.5
			c0-0.1-0.1-0.1-0.1-0.1c0,0,0,0,0,0l0,0c0-0.1,0.1-0.1,0.1-0.1c0.1,0,0.3,0.2,0.4,0.4c0.1,0.1,0.1,0.2,0.1,0.2s0.2-0.1,0.5-0.1
			c0.5-0.1,0.6-0.2,0.7-0.2c0,0,0.1,0,0.1,0c0,0,0.1-0.2,0.1-0.3c0-0.1,0-0.1-0.1-0.1C13,9.2,12.9,9.1,12.9,9
			C12.9,9.1,12.9,9.1,12.9,9C12.9,9,12.9,9,12.9,9z M12.7,15.8c0,0,0-0.1,0-0.1c0-0.1-0.2-0.2-0.2-0.2c-0.1,0-0.3-0.2-0.3-0.3
			c0,0,0-0.1,0.2-0.1c0.1,0,0.2,0,0.3,0c0.2,0,0.5,0.2,0.5,0.4l0.1,0.1h0.3c0.2,0,0.3,0,0.4,0.1c0.1,0,0.1,0.1,0.1,0.1v0
			c0,0.1,0,0.1-0.1,0.1c0,0-0.1,0.1-0.3,0.1c-0.1,0-0.2,0.1-0.2,0.1c0,0-0.1,0-0.1,0c0,0-0.1,0.1-0.1,0.2c-0.1,0.2-0.4,0.6-0.4,0.6
			c0,0,0,0,0,0.1c0,0,0,0,0.1,0c0.1,0,0.2,0,0.4-0.1c0.1,0,0.4-0.1,0.5-0.1c0.2,0,0.3,0,0.3,0c0,0,0,0,0.1,0c0.2,0,0.5,0.1,0.7,0.1
			c0.3,0.1,0.5,0.2,0.6,0.3c0,0,0,0.1,0,0.1c0,0.1-0.1,0.2-0.2,0.2c0,0,0,0-0.1,0c0,0-0.1,0-0.2,0s-0.3,0-0.5-0.1
			c-0.2,0-0.4-0.1-0.5-0.1h0c-0.1,0-0.3,0-0.5,0c-0.2,0-0.5,0-0.6,0.1l-0.2,0c0,0-0.1,0-0.1,0c0,0-0.1,0-0.1,0c0,0,0,0-0.1,0
			c0,0-0.1,0-0.2,0.1c-0.1,0-0.2,0.1-0.3,0.1c-0.1,0-0.1,0-0.2,0c0,0-0.1,0-0.1,0c0,0-0.1,0-0.1,0c-0.1,0-0.1,0-0.1,0c0,0,0,0,0,0
			l0,0c-0.1,0-0.3,0.1-0.4,0.1c0,0,0,0,0,0c0,0-0.1,0-0.1-0.1l0-0.1c0,0,0-0.1,0-0.1c0-0.1,0-0.1,0.1-0.1c0,0,0.1,0,0.1-0.1
			c0,0,0,0,0.1,0c0,0,0,0,0.1,0c0,0,0.1,0,0.1,0c0.1,0,0.1,0,0.2,0c0.5-0.2,1.1-0.7,1.2-1l0-0.1l-0.2,0h-0.1c-0.3,0-0.4,0-0.5-0.1
			l-0.1-0.1h0.2c0.1,0,0.3,0,0.7-0.1C12.7,16,12.7,16,12.7,15.8L12.7,15.8z M11.9,12.5c0,0,0.2,0,0.3-0.1c0.1,0,0.2-0.1,0.3-0.1
			c0,0,0.1,0,0.1-0.1c0.1,0,0.1,0,0.2,0c0.1,0,0.2,0,0.2,0c0.1,0,0.1,0.1,0.1,0.1c0,0.1-0.1,0.2-0.4,0.2c-0.2,0-0.3,0.1-0.3,0.1
			c0,0-0.1,0-0.1,0c-0.1,0-0.2,0-0.2,0H12c-0.1,0-0.1,0-0.2-0.1c-0.1,0-0.1-0.1-0.1-0.1c0,0,0,0,0.1,0
			C11.8,12.5,11.8,12.5,11.9,12.5C11.8,12.5,11.9,12.5,11.9,12.5z"/>
	</g>
	<g id="地面_00000085960540020044898610000002193894466238366089_">
		<path id="草_00000050658507514173148250000014360179358624052912_" class="st10" d="M2.4,29c-0.4-1.3-0.5-2.2-1.3-3.5
			C2.8,25.4,3.5,27.9,2.4,29L2.4,29z"/>
		<path id="草_00000179627912085844586860000016558588140227868062_" class="st10" d="M26.6,29c-1.1-1.1-0.4-3.6,1.3-3.5
			C27.1,26.8,27,27.7,26.6,29L26.6,29z"/>
		<path id="草_00000151529837931384215080000007510860043949423779_" class="st10" d="M25.8,29.5c-1.2-2.3-0.6-6.1,2.1-7
			C26.2,24.6,26.2,27,25.8,29.5L25.8,29.5z"/>
		<rect id="地面" y="28" class="st11" width="28" height="2"/>
	</g>
</g>
<g id="画像なし">
	<g id="画像なし_00000052826117572747028460000016017265853480651424_">
		<path class="st12" d="M27.1,21.6l-7.5,7.5c-1.2,1.2-3.1,1.2-4.2,0l-7.5-7.5c-1.2-1.2-1.2-3.1,0-4.2l7.5-7.5c1.2-1.2,3.1-1.2,4.2,0
			l7.5,7.5C28.3,18.5,28.3,20.5,27.1,21.6z"/>
		<path id="カメラ" class="st13" d="M22,15.5h-1.5l-0.8-1.6c-0.1-0.2-0.3-0.4-0.6-0.4h-3.2c-0.2,0-0.5,0.1-0.6,0.4l-0.8,1.6H13
			c-0.9,0-1.5,0.7-1.5,1.5V22c0,0.9,0.7,1.5,1.5,1.5H22c0.9,0,1.5-0.7,1.5-1.5V17C23.5,16.2,22.8,15.5,22,15.5z M17.5,22
			c-1.4,0-2.5-1.1-2.5-2.5c0-1.4,1.1-2.5,2.5-2.5c1.4,0,2.5,1.1,2.5,2.5C20,20.9,18.9,22,17.5,22z"/>
		<g id="斜線">
			<rect x="10.3" y="18.6" transform="matrix(0.7071 0.7071 -0.7071 0.7071 18.7662 -7.0127)" class="st14" width="15" height="1"/>
			<rect x="9.6" y="19.4" transform="matrix(0.7071 0.7071 -0.7071 0.7071 19.0591 -6.3056)" class="st13" width="15" height="1"/>
		</g>
	</g>
</g>
<g id="要調査">
	<path id="白ベール" class="st15" d="M28,30H0V8.6C0,3.9,3.9,0,8.6,0H24c2.2,0,4,1.8,4,4V30z"/>
	<g>
		<path class="st16" d="M27.1,21.6l-7.5,7.5c-1.2,1.2-3.1,1.2-4.2,0l-7.5-7.5c-1.2-1.2-1.2-3.1,0-4.2l7.5-7.5c1.2-1.2,3.1-1.2,4.2,0
			l7.5,7.5C28.3,18.5,28.3,20.5,27.1,21.6z"/>
		<g>
			<path d="M18.7,23.8c0,0.7-0.6,1.3-1.2,1.3s-1.3-0.6-1.3-1.3c0-0.7,0.6-1.2,1.3-1.2S18.7,23.1,18.7,23.8z M18.2,21
				c-0.1,0.5-0.2,0.8-0.7,0.8c-0.5,0-0.6-0.4-0.7-0.8l-0.5-3.5V15c0-0.8,0.4-1.1,1.2-1.1c0.7,0,1.1,0.3,1.1,1.1v2.5L18.2,21z"/>
		</g>
	</g>
</g>
<g id="消失">
	<g>
		<path id="卒塔婆_00000008144170875907440220000001706382033921957763_" class="st17" d="M27.4,9.2l0.2-2.6
			c0-0.6-0.2-1.1-0.6-1.3l0.4,0c0,0,0.3-0.3,0.3-0.9c0-1.2-1.2-1.9-1.2-1.9l-0.2-0.2l-0.3,0.1c0,0-1.3,0.5-1.5,1.7
			c-0.1,0.6,0.1,0.9,0.1,0.9l0.5,0c-0.4,0.2-0.7,0.6-0.8,1.2l-0.2,2.6c0,0.5,0.1,0.9,0.4,1.2c-0.3,0.2-0.5,0.6-0.6,1.1l-0.2,2.6
			c-0.1,0.7,0.4,1.4,0.9,1.4l-0.2,0c-0.5,0-0.9,0.4-0.9,1l-1.1,13.1c0,0.1,0.1,0.2,0.2,0.2l2.9,0.2l1.1-13.4c0-0.5-0.3-1-0.7-1.1
			l-0.3,0c0.6,0,1.1-0.5,1.2-1.3l0.2-2.6c0-0.5-0.1-0.9-0.4-1.2C27.1,10.1,27.3,9.7,27.4,9.2z"/>
		<path id="卒塔婆_00000041295319327389831120000011382475609428978342_" class="st18" d="M23.6,7.2V4.4c0-0.6-0.3-1.1-0.7-1.3
			h0.5c0,0,0.3-0.3,0.2-1c-0.1-1.3-1.4-2-1.4-2L21.9,0l-0.3,0.2c0,0-1.3,0.7-1.4,2c-0.1,0.6,0.2,1,0.2,1h0.5
			c-0.4,0.2-0.7,0.7-0.7,1.3v2.8c0,0.5,0.2,1,0.5,1.2c-0.3,0.3-0.5,0.7-0.5,1.2v2.8c0,0.8,0.5,1.4,1.1,1.4h-0.2
			c-0.5,0-0.9,0.5-0.9,1.2v14c0,0.1,0.1,0.2,0.2,0.2h3.2V15c0-0.6-0.4-1.1-0.8-1.1h-0.3c0.6,0,1.1-0.6,1.1-1.4V9.7
			c0-0.5-0.2-1-0.5-1.2C23.3,8.2,23.6,7.8,23.6,7.2z"/>
		<path id="卒塔婆_00000039822299135215878220000006557571746316661124_" class="st18" d="M5.4,9.2L5.3,6.6c0-0.6-0.3-1-0.7-1.2
			l0.4,0c0,0,0.3-0.3,0.2-0.9C5,3.2,3.8,2.6,3.8,2.6L3.5,2.5L3.3,2.6c0,0-1.2,0.7-1.3,1.9c0,0.6,0.3,0.9,0.3,0.9l0.5,0
			C2.4,5.6,2.1,6.1,2.1,6.7l0.1,2.7c0,0.5,0.2,0.9,0.5,1.1c-0.3,0.2-0.5,0.7-0.5,1.1l0.1,2.7c0,0.7,0.5,1.3,1.1,1.3l-0.2,0
			c-0.5,0-0.8,0.5-0.8,1.1l0.4,13.1C2.9,29.9,3,30,3.1,30L6,29.9L5.6,16.5c0-0.5-0.4-1-0.8-1l-0.3,0c0.6,0,1-0.6,1-1.4l-0.1-2.7
			c0-0.5-0.2-0.9-0.5-1.1C5.2,10.1,5.4,9.7,5.4,9.2z"/>
		<rect id="土台_00000110460268682338878270000000418870456055226795_" x="3.4" y="25" class="st7" width="20" height="3"/>
		<path id="竿石_00000076570011418156142900000004886126979849641129_" class="st8" d="M18.4,25h-10V3.1C8.4,2.5,8.9,2,9.5,2h7.9
			c0.6,0,1.1,0.5,1.1,1.1V25z"/>
		<g id="墓">
			<path class="st9" d="M12.1,11.6c0,0,0.1,0,0.1,0c0,0,0.1,0,0.2,0c0,0,0,0,0.2,0l0.1,0c0.2-0.1,0.8-0.2,0.9-0.2c0.1,0,0.1,0,0.2,0
				c0.2,0,0.3,0.1,0.5,0.2c0.2,0.2,0.3,0.4,0.3,0.6c0,0.1,0,0.2,0,0.2c0,0.1-0.1,0.1-0.1,0.2c0,0.1,0,0.2-0.1,0.2
				c0,0.1-0.1,0.1-0.1,0.2c0,0,0,0.1-0.1,0.1c0,0-0.1,0.2-0.1,0.3c-0.1,0.3-0.3,0.5-0.5,0.5l-0.2,0c-0.1,0-0.1-0.1-0.1-0.1l0,0
				c-0.1-0.1-0.1-0.1-0.2-0.1h0c0,0,0,0,0,0c0,0-0.1,0-0.1,0c0,0-0.1,0-0.1,0c-0.1,0-0.1,0-0.1,0c0,0,0,0-0.1,0
				c-0.1,0-0.3,0.1-0.4,0.1c-0.1,0-0.2,0-0.2,0.1c0,0,0,0,0,0c0,0.1,0.1,0.1,0.2,0.2c0.1,0,0.2,0.1,0.2,0.1c0.1,0,0.1,0.1,0.1,0.2
				c0,0,0,0,0,0c0,0,0,0,0,0c0,0,0.2,0,0.3-0.1l0.2,0L13,14.2c-0.1,0-0.2-0.2-0.2-0.3v0h0c0,0,0.1,0,0.1,0l0.1,0c0.1,0,0.1,0,0.1,0
				c0,0,0,0,0,0h0c0,0,0.3,0.1,0.5,0.2c0.1,0,0.1,0,0.1,0c0,0,0,0,0.1,0l0.1,0h0c0.3,0,0.4-0.1,0.6-0.1c0.1,0,0.1,0,0.2,0
				c0.3,0.1,0.7,0.3,0.7,0.4c0,0.1-0.1,0.2-0.2,0.2h0c-0.1,0-0.1,0-0.1,0c0,0-0.3-0.1-0.4-0.1c0,0-0.1,0-0.1,0h0
				c0.1,0.1,1,0.8,1.1,0.9c0.4,0.3,0.9,0.5,1.5,0.7c0.5,0.2,0.6,0.2,0.8,0.4l0,0c0,0,0,0,0,0c0,0,0.1,0.1,0.1,0.1s0,0.1,0,0.1l0,0
				c0,0.1-0.1,0.1-0.1,0.1c0,0,0,0-0.1,0c-0.4,0-1.3-0.3-1.7-0.6c0,0-0.1-0.1-0.2-0.1c-0.2-0.1-0.7-0.5-1-0.7
				c-0.3-0.3-0.5-0.5-0.8-0.7c-0.3-0.2-0.4-0.3-0.5-0.3h0l0,0c0,0,0,0-0.1,0c0,0,0,0-0.1,0c-0.1,0-0.2,0-0.3,0.1c-0.1,0-0.1,0-0.1,0
				h0l0,0c-0.1,0-0.1,0-0.2,0l0,0c-0.1,0-0.1,0-0.1,0c0,0,0,0-0.1,0c0,0,0,0,0,0c-0.1,0-0.3,0.2-0.4,0.4c-0.1,0.1-0.5,0.7-0.6,0.8
				c-0.1,0.1-0.1,0.2-0.2,0.2C11,16.5,10.5,17,10.3,17c0,0-0.2,0.1-0.2,0.1c-0.2,0.1-0.5,0.3-0.6,0.3c0,0-0.1,0-0.1,0
				c0,0-0.1,0-0.2,0c-0.1,0-0.2,0-0.3,0.1c-0.1,0-0.1,0-0.1,0h0c0,0,0.1-0.1,0.2-0.2c0.6-0.4,1.5-1.2,1.8-1.6
				c0.3-0.4,0.5-0.6,0.5-0.7c0,0,0,0,0,0s0,0-0.1,0c0,0-0.1,0-0.1,0h0l0,0c-0.1,0-0.3,0.1-0.4,0.1h0c0,0,0,0-0.1,0
				c-0.1,0-0.1,0-0.2,0h-0.1c0,0-0.1,0-0.1,0c0,0,0,0,0,0c0,0,0.1-0.1,0.2-0.1c0.1,0,0.1,0,0.2-0.1c0,0,0.1,0,0.1,0c0,0,0,0,0.1,0
				c0,0,0.1,0,0.1,0c0,0,0,0,0.1,0l0.1,0c0,0,0.1,0,0.1,0c0,0,0.1,0,0.1,0l0.1,0c0.1,0,0.1-0.1,0.2-0.1c0,0,0.1-0.1,0.2-0.1
				c0.1-0.1,0.1-0.2,0.1-0.2c0,0,0-0.1-0.1-0.1c-0.1,0-0.1-0.2-0.1-0.3c0,0,0,0,0,0v0c0,0,0-0.1-0.1-0.2c0-0.1-0.1-0.3-0.2-0.5
				c-0.1-0.4-0.2-0.6-0.4-0.9c0-0.1-0.1-0.2-0.1-0.3l0,0c0,0,0-0.1,0-0.1c0,0,0,0,0.1-0.1h0c0,0,0,0,0,0c0,0,0.1,0,0.1,0
				c0.1,0,0.4,0.4,0.5,0.6c0.1,0.3,0.3,0.6,0.3,0.7c0,0.1,0,0.2,0.1,0.2c0,0,0.1,0,0.2-0.1c0.3-0.1,0.7-0.2,0.9-0.2h0l0.1,0l0.1-0.3
				c0.2-0.5,0.4-0.9,0.4-1.2l0-0.1l-0.1,0c-0.2,0-0.3,0-0.6,0.1c-0.2,0.1-0.4,0.1-0.6,0.1h0l-0.1,0c-0.2,0-0.3,0-0.3-0.1
				c0,0,0-0.1,0-0.1c0,0,0,0,0,0C12.1,11.6,12.1,11.6,12.1,11.6L12.1,11.6z M12.9,9C12.9,9,12.9,8.9,12.9,9c0-0.1,0.1-0.1,0.1-0.1
				c0,0,0.1,0,0.2-0.1c0.1,0,0.1,0,0.2,0c0.1,0,0.1,0,0.3,0.1C13.9,9,14,9.1,14,9.2c0,0,0,0.1,0,0.2c0,0,0,0.1,0,0.1
				c0,0.1,0.1,0.1,0.3,0.1c0.3,0,0.5,0.1,0.8,0.2c0.2,0.1,0.2,0.2,0.2,0.3c0,0,0,0.1-0.1,0.1s-0.1,0-0.1,0c0,0-0.1,0-0.1,0h0
				c0,0,0,0-0.1,0c0,0-0.1,0-0.1,0c0,0,0,0-0.1,0c0,0,0,0-0.1,0l0,0c0,0-0.1,0-0.1,0c0,0-0.2,0-0.3,0H14c-0.2,0-0.3,0-0.5,0.3
				c-0.1,0.1-0.1,0.2-0.1,0.2s-0.1,0.1-0.1,0.2c-0.1,0.1-0.2,0.2-0.3,0.3c-0.3,0.3-0.4,0.3-0.4,0.3c0,0,0,0,0,0c0,0,0-0.1,0-0.1
				c0.1-0.1,0.3-0.5,0.3-0.7c0-0.1,0.1-0.2,0.1-0.2c0,0,0,0,0,0c0,0-0.1,0-0.2,0h0c0,0,0,0-0.1,0c-0.1,0-0.2,0.1-0.2,0.1h0
				c0,0-0.5,0.2-0.6,0.2c0,0,0,0.1-0.1,0.2c-0.1,0.2-0.1,0.3-0.2,0.3s-0.2-0.1-0.2-0.2c0-0.1,0-0.1-0.3-0.1c-0.3,0-0.5-0.1-0.5-0.1
				c0-0.1,0.2-0.3,0.5-0.3c0,0,0.1,0,0.1,0c0,0,0,0,0,0c0,0,0,0,0,0c0,0,0,0,0,0h0c0,0,0,0,0-0.1c0-0.1-0.1-0.3-0.1-0.5
				c0-0.1-0.1-0.1-0.1-0.1c0,0,0,0,0,0l0,0c0-0.1,0.1-0.1,0.1-0.1c0.1,0,0.3,0.2,0.4,0.4c0.1,0.1,0.1,0.2,0.1,0.2s0.2-0.1,0.5-0.1
				c0.5-0.1,0.6-0.2,0.7-0.2c0,0,0.1,0,0.1,0c0,0,0.1-0.2,0.1-0.3c0-0.1,0-0.1-0.1-0.1C13,9.2,12.9,9.1,12.9,9
				C12.9,9.1,12.9,9.1,12.9,9C12.9,9,12.9,9,12.9,9z M12.7,15.8c0,0,0-0.1,0-0.1c0-0.1-0.2-0.2-0.2-0.2c-0.1,0-0.3-0.2-0.3-0.3
				c0,0,0-0.1,0.2-0.1c0.1,0,0.2,0,0.3,0c0.2,0,0.5,0.2,0.5,0.4l0.1,0.1h0.3c0.2,0,0.3,0,0.4,0.1c0.1,0,0.1,0.1,0.1,0.1v0
				c0,0.1,0,0.1-0.1,0.1c0,0-0.1,0.1-0.3,0.1c-0.1,0-0.2,0.1-0.2,0.1c0,0-0.1,0-0.1,0c0,0-0.1,0.1-0.1,0.2c-0.1,0.2-0.4,0.6-0.4,0.6
				c0,0,0,0,0,0.1c0,0,0,0,0.1,0c0.1,0,0.2,0,0.4-0.1c0.1,0,0.4-0.1,0.5-0.1c0.2,0,0.3,0,0.3,0c0,0,0,0,0.1,0c0.2,0,0.5,0.1,0.7,0.1
				c0.3,0.1,0.5,0.2,0.6,0.3c0,0,0,0.1,0,0.1c0,0.1-0.1,0.2-0.2,0.2c0,0,0,0-0.1,0c0,0-0.1,0-0.2,0s-0.3,0-0.5-0.1
				c-0.2,0-0.4-0.1-0.5-0.1h0c-0.1,0-0.3,0-0.5,0c-0.2,0-0.5,0-0.6,0.1l-0.2,0c0,0-0.1,0-0.1,0c0,0-0.1,0-0.1,0c0,0,0,0-0.1,0
				c0,0-0.1,0-0.2,0.1c-0.1,0-0.2,0.1-0.3,0.1c-0.1,0-0.1,0-0.2,0c0,0-0.1,0-0.1,0c0,0-0.1,0-0.1,0c-0.1,0-0.1,0-0.1,0c0,0,0,0,0,0
				l0,0c-0.1,0-0.3,0.1-0.4,0.1c0,0,0,0,0,0c0,0-0.1,0-0.1-0.1l0-0.1c0,0,0-0.1,0-0.1c0-0.1,0-0.1,0.1-0.1c0,0,0.1,0,0.1-0.1
				c0,0,0,0,0.1,0c0,0,0,0,0.1,0c0,0,0.1,0,0.1,0c0.1,0,0.1,0,0.2,0c0.5-0.2,1.1-0.7,1.2-1l0-0.1l-0.2,0h-0.1c-0.3,0-0.4,0-0.5-0.1
				l-0.1-0.1h0.2c0.1,0,0.3,0,0.7-0.1C12.7,16,12.7,16,12.7,15.8L12.7,15.8z M11.9,12.5c0,0,0.2,0,0.3-0.1c0.1,0,0.2-0.1,0.3-0.1
				c0,0,0.1,0,0.1-0.1c0.1,0,0.1,0,0.2,0c0.1,0,0.2,0,0.2,0c0.1,0,0.1,0.1,0.1,0.1c0,0.1-0.1,0.2-0.4,0.2c-0.2,0-0.3,0.1-0.3,0.1
				c0,0-0.1,0-0.1,0c-0.1,0-0.2,0-0.2,0H12c-0.1,0-0.1,0-0.2-0.1c-0.1,0-0.1-0.1-0.1-0.1c0,0,0,0,0.1,0
				C11.8,12.5,11.8,12.5,11.9,12.5C11.8,12.5,11.9,12.5,11.9,12.5z"/>
		</g>
		<g id="地面_00000077292792756350882120000012323105059808592307_">
			<path id="草_00000067918552466288506880000013896100695678092427_" class="st17" d="M2.4,29c-0.4-1.3-0.5-2.2-1.3-3.5
				C2.8,25.4,3.5,27.9,2.4,29L2.4,29z"/>
			<path id="草_00000070117202752277652350000011592114302832929416_" class="st17" d="M26.6,29c-1.1-1.1-0.4-3.6,1.3-3.5
				C27.1,26.8,27,27.7,26.6,29L26.6,29z"/>
			<path id="草_00000010292523530278365640000000759120980071219390_" class="st17" d="M25.8,29.5c-1.2-2.3-0.6-6.1,2.1-7
				C26.2,24.6,26.2,27,25.8,29.5L25.8,29.5z"/>
			<rect id="地面_00000095318391562476616300000014976659865884118427_" y="28" class="st19" width="28" height="2"/>
		</g>
	</g>
	<g>
		<path class="st20" d="M27.1,21.6l-7.5,7.5c-1.2,1.2-3.1,1.2-4.2,0l-7.5-7.5c-1.2-1.2-1.2-3.1,0-4.2l7.5-7.5c1.2-1.2,3.1-1.2,4.2,0
			l7.5,7.5C28.3,18.6,28.3,20.4,27.1,21.6z"/>
		<g>
			<path class="st21" d="M12.7,24.4l-0.2-0.2c-0.5-0.5-0.5-1.3,0-1.8l7.9-7.9c0.5-0.5,1.3-0.5,1.8,0l0.2,0.2c0.5,0.5,0.5,1.3,0,1.8
				l-7.9,7.9C14,24.9,13.2,24.9,12.7,24.4z"/>
			<path class="st21" d="M20.5,24.4l-7.9-7.9c-0.5-0.5-0.5-1.3,0-1.8l0.2-0.2c0.5-0.5,1.3-0.5,1.8,0l7.9,7.9c0.5,0.5,0.5,1.3,0,1.8
				l-0.2,0.2C21.8,24.9,21,24.9,20.5,24.4z"/>
		</g>
	</g>
</g>
</svg>
