<?xml version="1.0" encoding="utf-8"?>
<!-- Generator: Adobe Illustrator 27.1.1, SVG Export Plug-In . SVG Version: 6.00 Build 0)  -->
<svg version="1.1" xmlns="http://www.w3.org/2000/svg" xmlns:xlink="http://www.w3.org/1999/xlink" x="0px" y="0px"
	 viewBox="0 0 28 40" style="enable-background:new 0 0 28 40;" xml:space="preserve">
<style type="text/css">
	.st0{display:none;}
	.st1{fill:#808080;}
	.st2{fill:#CCCCCC;}
	.st3{fill:#009245;}
	.st4{fill:#39B54A;}
	.st5{fill:#8C6239;}
	.st6{fill:none;stroke:#A67C52;stroke-linecap:round;stroke-miterlimit:10;}
	.st7{fill:#FFFFFF;}
	.st8{fill:#E2CB5A;}
	.st9{fill:#1B1464;}
	.st10{fill:#2E3192;}
	.st11{opacity:0.3;fill:#FFFFFF;}
	.st12{fill:#FFCE00;}
	.st13{fill:#5E5E5E;}
	.st14{fill:#848484;}
	.st15{fill:#6A6A6A;}
	.st16{fill:none;stroke:#848484;stroke-linecap:round;stroke-miterlimit:10;}
	.st17{fill:#C5C5C5;}
	.st18{fill:#FF0000;}
	.st19{fill:#F2F2F2;}
</style>
<g id="ガイド_00000162338702563158607440000009963323815856875396_" class="st0">
</g>
<g id="ピン">
	<g>
		<g>
			<polygon class="st1" points="15,40 13,40 12,30 16,30 			"/>
			<rect x="14" y="30" class="st2" width="1" height="10"/>
		</g>
		<g>
			<rect x="12" y="20" class="st1" width="4" height="10"/>
			<rect x="14" y="20" class="st2" width="1" height="10"/>
		</g>
	</g>
</g>
<g id="ノーマル">
	<g id="葉">
		<path class="st3" d="M28,12c0-0.8-0.5-1.5-1.1-1.8C27,10,27,9.8,27,9.5c0-1.2-0.9-2.2-2-2.5c0,0,0,0,0,0c0-0.8-0.5-1.5-1.1-1.8
			C24,5,24,4.8,24,4.5C24,3.1,22.9,2,21.5,2c-0.5,0-0.9,0.1-1.3,0.4C19.8,2.1,19.4,2,19,2c-0.2,0-0.3,0-0.5,0.1
			c-0.5-0.6-1.2-1.1-2-1.1c-0.2,0-0.5,0-0.7,0.1C15.5,0.5,14.8,0,14,0c-1,0-1.7,0.7-1.9,1.6c-0.4-0.3-1-0.6-1.6-0.6
			C9.2,1,8.1,2,8,3.3C7.7,3.1,7.4,3,7,3C5.9,3,5,3.9,5,5c0,0,0,0,0,0C3.9,5.3,3,6.3,3,7.5C3,7.7,3,7.8,3.1,8C3,8,3,8,3,8
			c-1.1,0-2,0.9-2,2c0,0.4,0.1,0.8,0.4,1.2C1.1,11.6,1,12,1,12.5c0,0.2,0,0.5,0.1,0.7C0.5,13.5,0,14.2,0,15c0,1.1,0.9,2,2,2
			c0,1.7,1.3,3,3,3c1.1,0,2.1-0.6,2.6-1.6C8,18.8,8.5,19,9,19c0.5,0,0.9-0.2,1.2-0.4c0.4,0.9,1.3,1.4,2.3,1.4c0.2,0,0.5,0,0.7-0.1
			c0.3,0.7,1,1.1,1.8,1.1c1,0,1.7-0.7,1.9-1.6c0.4,0.3,1,0.6,1.6,0.6c1,0,1.9-0.6,2.3-1.4c0.3,0.3,0.8,0.4,1.2,0.4c1.1,0,2-0.9,2-2
			c0,0,0,0,0-0.1c0.2,0,0.3,0.1,0.5,0.1c1.4,0,2.5-1.1,2.5-2.5c0-0.2,0-0.5-0.1-0.7C27.5,13.5,28,12.8,28,12z"/>
		<path class="st4" d="M4.6,7.1c0,0-1,1.9-0.4,3.2s2.6,1.6,2.6,1.6s0.8-1.6,0-2.9C6.3,8.1,4.6,7.1,4.6,7.1z"/>
		<path class="st4" d="M7.1,5.5c0,0,0.6,2,2,2.5s3-0.7,3-0.7S11.5,5.5,10,5.2C9,4.9,7.1,5.5,7.1,5.5z"/>
		<path class="st4" d="M17,2.3c0,0-2.1,0.3-2.8,1.5c-0.7,1.2,0.2,3.1,0.2,3.1s1.8-0.3,2.4-1.7C17.2,4.4,17,2.3,17,2.3z"/>
		<path class="st4" d="M21.6,3.1c0,0-2,0.6-2.5,2s0.7,3,0.7,3s1.8-0.6,2.1-2.1C22.1,5.1,21.6,3.1,21.6,3.1z"/>
		<path class="st4" d="M24.5,7.8c0,0-2.1-0.3-3.1,0.7c-1,1-0.6,3-0.6,3s1.8,0.2,2.8-1C24.2,9.8,24.5,7.8,24.5,7.8z"/>
		<path class="st4" d="M17.9,8.4c0,0-1.5,0.2-2.1,1.1c-0.5,0.9,0.2,2.2,0.2,2.2s1.3-0.2,1.8-1.2C18,9.8,17.9,8.4,17.9,8.4z"/>
		<path class="st4" d="M26.4,10.9c0,0-1.5-0.4-2.3,0.3c-0.8,0.6-0.7,2.1-0.7,2.1s1.3,0.3,2.1-0.5C26,12.3,26.4,10.9,26.4,10.9z"/>
		<path class="st4" d="M23.9,15c0,0-1-0.7-1.8-0.5c-0.8,0.2-1.2,1.3-1.2,1.3s0.8,0.6,1.6,0.3C23.2,15.9,23.9,15,23.9,15z"/>
		<path class="st4" d="M6.9,13.7c0,0-0.5-1.1-1.3-1.3C4.8,12.3,4,13.1,4,13.1s0.5,0.9,1.3,1C5.8,14.2,6.9,13.7,6.9,13.7z"/>
		<path class="st4" d="M2.8,15.5c0,0,0.3,1.5,1.3,1.9C5,17.8,6.2,17,6.2,17s-0.3-1.3-1.4-1.6C4.2,15.2,2.8,15.5,2.8,15.5z"/>
		<path class="st4" d="M8.9,8.5c0,0-0.8,1.3-0.5,2.3c0.4,1,1.8,1.3,1.8,1.3S11,11,10.4,10C10.1,9.4,8.9,8.5,8.9,8.5z"/>
		<path class="st4" d="M11.9,2.4c0,0-0.7,1-0.4,1.8c0.3,0.8,1.4,1,1.4,1s0.6-0.9,0.2-1.7C12.9,3,11.9,2.4,11.9,2.4z"/>
	</g>
	<g id="幹">
		<path class="st5" d="M4.4,34.9c-0.5,0.1-0.8-0.5-0.5-0.8c0.6-0.8,1.5-1.9,2.1-3c1-2,2-9,2-9v-6.9l-1-2.8c0,0,0.9,0.4,2,0.7
			c0.7,0.2,2,2,2,2s0-2.9,1-3.9c0.5-0.5,0.9-1,1.3-1.5c0.3-0.4,0.8-0.2,0.9,0.2c0.2,1,0.4,2.4,0.8,3.2c1,2,1,2.4,1,2.4s0-2.4,2-3.4
			c0.7-0.3,1.3-0.6,1.7-0.7c0.4-0.1,0.8,0.3,0.6,0.7c-0.2,0.3-0.3,0.7-0.3,1c0,1,0,4,0,4s0,3,0,6c0,3.2,1,8,2,9
			c0.6,0.6,1.7,1.6,2.4,2.3c0.3,0.2,0.1,0.7-0.3,0.7c-1-0.1-2.5-0.2-3.1-0.7c-2.4-1.8-3-2.2-3-2.2l-0.9,2.7c0,0.1-0.2,0.2-0.3,0.1
			L14,32l-4.3,2.6c-0.2,0.1-0.5-0.1-0.4-0.3L10,32c0,0-1,1-3,2C6.1,34.5,5.1,34.7,4.4,34.9z"/>
		<path class="st6" d="M9.6,16.2C10,21,8.5,30,8.5,30"/>
		<path class="st6" d="M17.5,16.2C17.2,21,18.7,30,18.7,30"/>
		<path class="st6" d="M12.6,14.2c0.4,4.8-1.1,16.3-1.1,16.3"/>
	</g>
	<g id="注連縄_00000115512557918630800730000011841701755079613321_">
		<g id="紙垂_00000133523634227876083880000017595736600894340743_">
			<rect x="10.5" y="23" transform="matrix(-0.7071 -0.7071 0.7071 -0.7071 1.8284 49.8701)" class="st7" width="1.5" height="3"/>
			
				<rect x="10.5" y="25.3" transform="matrix(-0.7071 -0.7071 0.7071 -0.7071 0.2218 53.7487)" class="st7" width="1.5" height="3"/>
			
				<rect x="10.5" y="27.6" transform="matrix(-0.7071 -0.7071 0.7071 -0.7071 -1.3848 57.6274)" class="st7" width="1.5" height="3"/>
		</g>
		<g id="紙垂">
			<rect x="16" y="23" transform="matrix(-0.7071 -0.7071 0.7071 -0.7071 11.3154 53.7997)" class="st7" width="1.5" height="3"/>
			<rect x="16" y="25.3" transform="matrix(-0.7071 -0.7071 0.7071 -0.7071 9.7088 57.6784)" class="st7" width="1.5" height="3"/>
			<rect x="16" y="27.6" transform="matrix(-0.7071 -0.7071 0.7071 -0.7071 8.1022 61.5571)" class="st7" width="1.5" height="3"/>
		</g>
		<polygon id="筋_00000132777338549733392560000001207772682563052718_" class="st8" points="14,23 13,30 15,30 		"/>
		<polygon id="筋_00000152262437947327421350000004466724861983383685_" class="st8" points="8.9,23.1 6.6,29.8 8.5,30.1 		"/>
		<polygon id="筋" class="st8" points="18.6,23.1 20.9,29.8 18.9,30.1 		"/>
		<g id="注連縄">
			<path class="st8" d="M11.4,22.4L11.4,22.4c-0.7,0.7-1.6,0.7-2.2,0.1l-2.4-2.4L6.8,20c0.6-0.6,1.6-0.6,2.2,0L11.4,22.4z"/>
			<path class="st8" d="M13.9,22.4L13.9,22.4c-0.7,0.7-1.6,0.7-2.2,0.1l-2.4-2.4L9.3,20c0.6-0.6,1.6-0.6,2.2,0L13.9,22.4z"/>
			<path class="st8" d="M16.3,22.4L16.3,22.4c-0.7,0.7-1.6,0.7-2.2,0.1l-2.4-2.4l0.1-0.1c0.6-0.6,1.6-0.6,2.2,0L16.3,22.4z"/>
			<path class="st8" d="M18.8,22.4L18.8,22.4c-0.7,0.7-1.6,0.7-2.2,0.1l-2.4-2.4l0.1-0.1c0.6-0.6,1.6-0.6,2.2,0L18.8,22.4z"/>
			<path class="st8" d="M21.2,22.4L21.2,22.4c-0.7,0.7-1.6,0.7-2.2,0.1l-2.4-2.4l0.1-0.1c0.6-0.6,1.6-0.6,2.2,0L21.2,22.4z"/>
		</g>
	</g>
</g>
<g id="画像なし">
	<g id="画像なし_00000052826117572747028460000016017265853480651424_">
		<path class="st9" d="M27.1,26.6l-7.5,7.5c-1.2,1.2-3.1,1.2-4.2,0l-7.5-7.5c-1.2-1.2-1.2-3.1,0-4.2l7.5-7.5c1.2-1.2,3.1-1.2,4.2,0
			l7.5,7.5C28.3,23.5,28.3,25.5,27.1,26.6z"/>
		<path id="カメラ" class="st7" d="M22,20.5h-1.5l-0.8-1.6c-0.1-0.2-0.3-0.4-0.6-0.4h-3.2c-0.2,0-0.5,0.1-0.6,0.4l-0.8,1.6H13
			c-0.9,0-1.5,0.7-1.5,1.5V27c0,0.9,0.7,1.5,1.5,1.5H22c0.9,0,1.5-0.7,1.5-1.5V22C23.5,21.2,22.8,20.5,22,20.5z M17.5,27
			c-1.4,0-2.5-1.1-2.5-2.5c0-1.4,1.1-2.5,2.5-2.5c1.4,0,2.5,1.1,2.5,2.5C20,25.9,18.9,27,17.5,27z"/>
		<g id="斜線">
			<rect x="10.3" y="23.6" transform="matrix(0.7071 0.7071 -0.7071 0.7071 22.3017 -5.5482)" class="st10" width="15" height="1"/>
			<rect x="9.6" y="24.4" transform="matrix(0.7071 0.7071 -0.7071 0.7071 22.5946 -4.8411)" class="st7" width="15" height="1"/>
		</g>
	</g>
</g>
<g id="要調査">
	<path id="白ベール" class="st11" d="M25.4,35H2.8C1.3,35,0,33.7,0,32.2V11.8C0,5.3,5.3,0,11.8,0h5.5C23.2,0,28,4.8,28,10.7
		v21.7C28,33.9,26.9,35,25.4,35z"/>
	<g>
		<path class="st12" d="M27.1,26.6l-7.5,7.5c-1.2,1.2-3.1,1.2-4.2,0l-7.5-7.5c-1.2-1.2-1.2-3.1,0-4.2l7.5-7.5c1.2-1.2,3.1-1.2,4.2,0
			l7.5,7.5C28.3,23.5,28.3,25.5,27.1,26.6z"/>
		<g>
			<path d="M18.7,28.8c0,0.7-0.6,1.3-1.2,1.3s-1.3-0.6-1.3-1.3c0-0.7,0.6-1.2,1.3-1.2S18.7,28.1,18.7,28.8z M18.2,26
				c-0.1,0.5-0.2,0.8-0.7,0.8c-0.5,0-0.6-0.4-0.7-0.8l-0.5-3.5V20c0-0.8,0.4-1.1,1.2-1.1c0.7,0,1.1,0.3,1.1,1.1v2.5L18.2,26z"/>
		</g>
	</g>
</g>
<g id="消失">
	<g>
		<g id="葉_00000019637484704715056310000005211642687540676239_">
			<path class="st13" d="M28,12c0-0.8-0.5-1.5-1.1-1.8C27,10,27,9.8,27,9.5c0-1.2-0.9-2.2-2-2.5c0,0,0,0,0,0c0-0.8-0.5-1.5-1.1-1.8
				C24,5,24,4.8,24,4.5C24,3.1,22.9,2,21.5,2c-0.5,0-0.9,0.1-1.3,0.4C19.8,2.1,19.4,2,19,2c-0.2,0-0.3,0-0.5,0.1
				c-0.5-0.6-1.2-1.1-2-1.1c-0.2,0-0.5,0-0.7,0.1C15.5,0.5,14.8,0,14,0c-1,0-1.7,0.7-1.9,1.6c-0.4-0.3-1-0.6-1.6-0.6
				C9.2,1,8.1,2,8,3.3C7.7,3.1,7.4,3,7,3C5.9,3,5,3.9,5,5c0,0,0,0,0,0C3.9,5.3,3,6.3,3,7.5C3,7.7,3,7.8,3.1,8C3,8,3,8,3,8
				c-1.1,0-2,0.9-2,2c0,0.4,0.1,0.8,0.4,1.2C1.1,11.6,1,12,1,12.5c0,0.2,0,0.5,0.1,0.7C0.5,13.5,0,14.2,0,15c0,1.1,0.9,2,2,2
				c0,1.7,1.3,3,3,3c1.1,0,2.1-0.6,2.6-1.6C8,18.8,8.5,19,9,19c0.5,0,0.9-0.2,1.2-0.4c0.4,0.9,1.3,1.4,2.3,1.4c0.2,0,0.5,0,0.7-0.1
				c0.3,0.7,1,1.1,1.8,1.1c1,0,1.7-0.7,1.9-1.6c0.4,0.3,1,0.6,1.6,0.6c1,0,1.9-0.6,2.3-1.4c0.3,0.3,0.8,0.4,1.2,0.4c1.1,0,2-0.9,2-2
				c0,0,0,0,0-0.1c0.2,0,0.3,0.1,0.5,0.1c1.4,0,2.5-1.1,2.5-2.5c0-0.2,0-0.5-0.1-0.7C27.5,13.5,28,12.8,28,12z"/>
			<path class="st14" d="M4.6,7.1c0,0-1,1.9-0.4,3.2s2.6,1.6,2.6,1.6s0.8-1.6,0-2.9C6.3,8.1,4.6,7.1,4.6,7.1z"/>
			<path class="st14" d="M7.1,5.5c0,0,0.6,2,2,2.5s3-0.7,3-0.7S11.5,5.5,10,5.2C9,4.9,7.1,5.5,7.1,5.5z"/>
			<path class="st14" d="M17,2.3c0,0-2.1,0.3-2.8,1.5c-0.7,1.2,0.2,3.1,0.2,3.1s1.8-0.3,2.4-1.7C17.2,4.4,17,2.3,17,2.3z"/>
			<path class="st14" d="M21.6,3.1c0,0-2,0.6-2.5,2s0.7,3,0.7,3s1.8-0.6,2.1-2.1C22.1,5.1,21.6,3.1,21.6,3.1z"/>
			<path class="st14" d="M24.5,7.8c0,0-2.1-0.3-3.1,0.7c-1,1-0.6,3-0.6,3s1.8,0.2,2.8-1C24.2,9.8,24.5,7.8,24.5,7.8z"/>
			<path class="st14" d="M17.9,8.4c0,0-1.5,0.2-2.1,1.1c-0.5,0.9,0.2,2.2,0.2,2.2s1.3-0.2,1.8-1.2C18,9.8,17.9,8.4,17.9,8.4z"/>
			<path class="st14" d="M26.4,10.9c0,0-1.5-0.4-2.3,0.3c-0.8,0.6-0.7,2.1-0.7,2.1s1.3,0.3,2.1-0.5C26,12.3,26.4,10.9,26.4,10.9z"/>
			<path class="st14" d="M23.9,15c0,0-1-0.7-1.8-0.5c-0.8,0.2-1.2,1.3-1.2,1.3s0.8,0.6,1.6,0.3C23.2,15.9,23.9,15,23.9,15z"/>
			<path class="st14" d="M6.9,13.7c0,0-0.5-1.1-1.3-1.3C4.8,12.3,4,13.1,4,13.1s0.5,0.9,1.3,1C5.8,14.2,6.9,13.7,6.9,13.7z"/>
			<path class="st14" d="M2.8,15.5c0,0,0.3,1.5,1.3,1.9C5,17.8,6.2,17,6.2,17s-0.3-1.3-1.4-1.6C4.2,15.2,2.8,15.5,2.8,15.5z"/>
			<path class="st14" d="M8.9,8.5c0,0-0.8,1.3-0.5,2.3c0.4,1,1.8,1.3,1.8,1.3S11,11,10.4,10C10.1,9.4,8.9,8.5,8.9,8.5z"/>
			<path class="st14" d="M11.9,2.4c0,0-0.7,1-0.4,1.8c0.3,0.8,1.4,1,1.4,1s0.6-0.9,0.2-1.7C12.9,3,11.9,2.4,11.9,2.4z"/>
		</g>
		<g id="幹_00000176029628703039665620000016288510268083110564_">
			<path class="st15" d="M4.4,34.9c-0.5,0.1-0.8-0.5-0.5-0.8c0.6-0.8,1.5-1.9,2.1-3c1-2,2-9,2-9v-6.9l-1-2.8c0,0,0.9,0.4,2,0.7
				c0.7,0.2,2,2,2,2s0-2.9,1-3.9c0.5-0.5,0.9-1,1.3-1.5c0.3-0.4,0.8-0.2,0.9,0.2c0.2,1,0.4,2.4,0.8,3.2c1,2,1,2.4,1,2.4s0-2.4,2-3.4
				c0.7-0.3,1.3-0.6,1.7-0.7c0.4-0.1,0.8,0.3,0.6,0.7c-0.2,0.3-0.3,0.7-0.3,1c0,1,0,4,0,4s0,3,0,6c0,3.2,1,8,2,9
				c0.6,0.6,1.7,1.6,2.4,2.3c0.3,0.2,0.1,0.7-0.3,0.7c-1-0.1-2.5-0.2-3.1-0.7c-2.4-1.8-3-2.2-3-2.2l-0.9,2.7c0,0.1-0.2,0.2-0.3,0.1
				L14,32l-4.3,2.6c-0.2,0.1-0.5-0.1-0.4-0.3L10,32c0,0-1,1-3,2C6.1,34.5,5.1,34.7,4.4,34.9z"/>
			<path class="st16" d="M9.6,16.2C10,21,8.5,30,8.5,30"/>
			<path class="st16" d="M17.5,16.2C17.2,21,18.7,30,18.7,30"/>
			<path class="st16" d="M12.6,14.2c0.4,4.8-1.1,16.3-1.1,16.3"/>
		</g>
		<g id="注連縄_00000127739090062464106070000015571188411859066270_">
			<g id="紙垂_00000044149875505484398810000002215878085199884979_">
				<rect x="10.5" y="23" transform="matrix(-0.7071 -0.7071 0.7071 -0.7071 1.8284 49.8701)" class="st7" width="1.5" height="3"/>
				
					<rect x="10.5" y="25.3" transform="matrix(-0.7071 -0.7071 0.7071 -0.7071 0.2218 53.7487)" class="st7" width="1.5" height="3"/>
				
					<rect x="10.5" y="27.6" transform="matrix(-0.7071 -0.7071 0.7071 -0.7071 -1.3848 57.6274)" class="st7" width="1.5" height="3"/>
			</g>
			<g id="紙垂_00000044150597428566031920000003423854018501654420_">
				<rect x="16" y="23" transform="matrix(-0.7071 -0.7071 0.7071 -0.7071 11.3154 53.7997)" class="st7" width="1.5" height="3"/>
				<rect x="16" y="25.3" transform="matrix(-0.7071 -0.7071 0.7071 -0.7071 9.7088 57.6784)" class="st7" width="1.5" height="3"/>
				<rect x="16" y="27.6" transform="matrix(-0.7071 -0.7071 0.7071 -0.7071 8.1022 61.5571)" class="st7" width="1.5" height="3"/>
			</g>
			<polygon id="筋_00000052783299718784871170000002327217174643309468_" class="st17" points="14,23 13,30 15,30 			"/>
			<polygon id="筋_00000121247016867115944920000010125950951477709194_" class="st17" points="8.9,23.1 6.6,29.8 8.5,30.1 			"/>
			<polygon id="筋_00000180355131088647436830000016841343477342499245_" class="st17" points="18.6,23.1 20.9,29.8 18.9,30.1 			
				"/>
			<g id="注連縄_00000090257011539310224700000004469223966548867003_">
				<path class="st17" d="M11.4,22.4L11.4,22.4c-0.7,0.7-1.6,0.7-2.2,0.1l-2.4-2.4L6.8,20c0.6-0.6,1.6-0.6,2.2,0L11.4,22.4z"/>
				<path class="st17" d="M13.9,22.4L13.9,22.4c-0.7,0.7-1.6,0.7-2.2,0.1l-2.4-2.4L9.3,20c0.6-0.6,1.6-0.6,2.2,0L13.9,22.4z"/>
				<path class="st17" d="M16.3,22.4L16.3,22.4c-0.7,0.7-1.6,0.7-2.2,0.1l-2.4-2.4l0.1-0.1c0.6-0.6,1.6-0.6,2.2,0L16.3,22.4z"/>
				<path class="st17" d="M18.8,22.4L18.8,22.4c-0.7,0.7-1.6,0.7-2.2,0.1l-2.4-2.4l0.1-0.1c0.6-0.6,1.6-0.6,2.2,0L18.8,22.4z"/>
				<path class="st17" d="M21.2,22.4L21.2,22.4c-0.7,0.7-1.6,0.7-2.2,0.1l-2.4-2.4l0.1-0.1c0.6-0.6,1.6-0.6,2.2,0L21.2,22.4z"/>
			</g>
		</g>
	</g>
	<g>
		<path class="st18" d="M27.1,26.6l-7.5,7.5c-1.2,1.2-3.1,1.2-4.2,0l-7.5-7.5c-1.2-1.2-1.2-3.1,0-4.2l7.5-7.5c1.2-1.2,3.1-1.2,4.2,0
			l7.5,7.5C28.3,23.6,28.3,25.4,27.1,26.6z"/>
		<g>
			<path class="st19" d="M12.7,29.4l-0.2-0.2c-0.5-0.5-0.5-1.3,0-1.8l7.9-7.9c0.5-0.5,1.3-0.5,1.8,0l0.2,0.2c0.5,0.5,0.5,1.3,0,1.8
				l-7.9,7.9C14,29.9,13.2,29.9,12.7,29.4z"/>
			<path class="st19" d="M20.5,29.4l-7.9-7.9c-0.5-0.5-0.5-1.3,0-1.8l0.2-0.2c0.5-0.5,1.3-0.5,1.8,0l7.9,7.9c0.5,0.5,0.5,1.3,0,1.8
				l-0.2,0.2C21.8,29.9,21,29.9,20.5,29.4z"/>
		</g>
	</g>
</g>
</svg>
